<svg width="400" height="300" version="1.1" xmlns="http://www.w3.org/2000/svg" xmlns:xlink="http://www.w3.org/1999/xlink"> <rect width="400" height="300" x="0" y="0" fill="#ffe0e0"></rect> <line x1="70.0" x2="70.0" y1="240" y2="244" stroke="black"></line> <line x1="70.0" x2="70.0" y1="40" y2="240" stroke="#c0c0c0" opacity="nil"></line> <text y="254" x="70.0" fill="black" font-size="12" text-anchor="middle" font-family="arial"> 0</text> <line x1="88.23529411764706" x2="88.23529411764706" y1="240" y2="242" stroke="black"></line> <line x1="88.23529411764706" x2="88.23529411764706" y1="40" y2="240" stroke="#c0c0c0" opacity="nil"></line> <line x1="106.47058823529412" x2="106.47058823529412" y1="240" y2="242" stroke="black"></line> <line x1="106.47058823529412" x2="106.47058823529412" y1="40" y2="240" stroke="#c0c0c0" opacity="nil"></line> <line x1="124.70588235294119" x2="124.70588235294119" y1="240" y2="242" stroke="black"></line> <line x1="124.70588235294119" x2="124.70588235294119" y1="40" y2="240" stroke="#c0c0c0" opacity="nil"></line> <line x1="142.94117647058823" x2="142.94117647058823" y1="240" y2="242" stroke="black"></line> <line x1="142.94117647058823" x2="142.94117647058823" y1="40" y2="240" stroke="#c0c0c0" opacity="nil"></line> <line x1="161.1764705882353" x2="161.1764705882353" y1="240" y2="244" stroke="black"></line> <line x1="161.1764705882353" x2="161.1764705882353" y1="40" y2="240" stroke="#c0c0c0" opacity="nil"></line> <text y="254" x="161.1764705882353" fill="black" font-size="12" text-anchor="middle" font-family="arial"> 10</text> <line x1="179.41176470588238" x2="179.41176470588238" y1="240" y2="242" stroke="black"></line> <line x1="179.41176470588238" x2="179.41176470588238" y1="40" y2="240" stroke="#c0c0c0" opacity="nil"></line> <line x1="197.6470588235294" x2="197.6470588235294" y1="240" y2="242" stroke="black"></line> <line x1="197.6470588235294" x2="197.6470588235294" y1="40" y2="240" stroke="#c0c0c0" opacity="nil"></line> <line x1="215.88235294117646" x2="215.88235294117646" y1="240" y2="242" stroke="black"></line> <line x1="215.88235294117646" x2="215.88235294117646" y1="40" y2="240" stroke="#c0c0c0" opacity="nil"></line> <line x1="234.11764705882354" x2="234.11764705882354" y1="240" y2="242" stroke="black"></line> <line x1="234.11764705882354" x2="234.11764705882354" y1="40" y2="240" stroke="#c0c0c0" opacity="nil"></line> <line x1="252.3529411764706" x2="252.3529411764706" y1="240" y2="244" stroke="black"></line> <line x1="252.3529411764706" x2="252.3529411764706" y1="40" y2="240" stroke="#c0c0c0" opacity="nil"></line> <text y="254" x="252.3529411764706" fill="black" font-size="12" text-anchor="middle" font-family="arial"> 20</text> <line x1="270.5882352941177" x2="270.5882352941177" y1="240" y2="242" stroke="black"></line> <line x1="270.5882352941177" x2="270.5882352941177" y1="40" y2="240" stroke="#c0c0c0" opacity="nil"></line> <line x1="288.82352941176475" x2="288.82352941176475" y1="240" y2="242" stroke="black"></line> <line x1="288.82352941176475" x2="288.82352941176475" y1="40" y2="240" stroke="#c0c0c0" opacity="nil"></line> <line x1="307.0588235294117" x2="307.0588235294117" y1="240" y2="242" stroke="black"></line> <line x1="307.0588235294117" x2="307.0588235294117" y1="40" y2="240" stroke="#c0c0c0" opacity="nil"></line> <line x1="325.2941176470588" x2="325.2941176470588" y1="240" y2="242" stroke="black"></line> <line x1="325.2941176470588" x2="325.2941176470588" y1="40" y2="240" stroke="#c0c0c0" opacity="nil"></line> <line x1="343.52941176470586" x2="343.52941176470586" y1="240" y2="244" stroke="black"></line> <line x1="343.52941176470586" x2="343.52941176470586" y1="40" y2="240" stroke="#c0c0c0" opacity="nil"></line> <text y="254" x="343.52941176470586" fill="black" font-size="12" text-anchor="middle" font-family="arial"> 30</text> <line x1="361.7647058823529" x2="361.7647058823529" y1="240" y2="242" stroke="black"></line> <line x1="361.7647058823529" x2="361.7647058823529" y1="40" y2="240" stroke="#c0c0c0" opacity="nil"></line> <line x1="380.0" x2="380.0" y1="240" y2="242" stroke="black"></line> <line x1="380.0" x2="380.0" y1="40" y2="240" stroke="#c0c0c0" opacity="nil"></line> <line x1="70" x2="67" y1="240.0" y2="240.0" stroke="black"></line> <line x1="70" x2="380" y1="240.0" y2="240.0" opacity="nil" stroke="#c0c0c0"></line> <text y="244.0" x="64" fill="black" font-size="12" text-anchor="end" font-family="arial"> 41</text> <line x1="70" x2="67" y1="223.33333333333334" y2="223.33333333333334" stroke="black"></line> <line x1="70" x2="380" y1="223.33333333333334" y2="223.33333333333334" opacity="nil" stroke="#c0c0c0"></line> <text y="227.33333333333334" x="64" fill="black" font-size="12" text-anchor="end" font-family="arial"> 42</text> <line x1="70" x2="67" y1="206.66666666666669" y2="206.66666666666669" stroke="black"></line> <line x1="70" x2="380" y1="206.66666666666669" y2="206.66666666666669" opacity="nil" stroke="#c0c0c0"></line> <text y="210.66666666666669" x="64" fill="black" font-size="12" text-anchor="end" font-family="arial"> 43</text> <line x1="70" x2="67" y1="190.0" y2="190.0" stroke="black"></line> <line x1="70" x2="380" y1="190.0" y2="190.0" opacity="nil" stroke="#c0c0c0"></line> <text y="194.0" x="64" fill="black" font-size="12" text-anchor="end" font-family="arial"> 44</text> <line x1="70" x2="67" y1="173.33333333333334" y2="173.33333333333334" stroke="black"></line> <line x1="70" x2="380" y1="173.33333333333334" y2="173.33333333333334" opacity="nil" stroke="#c0c0c0"></line> <text y="177.33333333333334" x="64" fill="black" font-size="12" text-anchor="end" font-family="arial"> 45</text> <line x1="70" x2="67" y1="156.66666666666666" y2="156.66666666666666" stroke="black"></line> <line x1="70" x2="380" y1="156.66666666666666" y2="156.66666666666666" opacity="nil" stroke="#c0c0c0"></line> <text y="160.66666666666666" x="64" fill="black" font-size="12" text-anchor="end" font-family="arial"> 46</text> <line x1="70" x2="67" y1="140.0" y2="140.0" stroke="black"></line> <line x1="70" x2="380" y1="140.0" y2="140.0" opacity="nil" stroke="#c0c0c0"></line> <text y="144.0" x="64" fill="black" font-size="12" text-anchor="end" font-family="arial"> 47</text> <line x1="70" x2="67" y1="123.33333333333333" y2="123.33333333333333" stroke="black"></line> <line x1="70" x2="380" y1="123.33333333333333" y2="123.33333333333333" opacity="nil" stroke="#c0c0c0"></line> <text y="127.33333333333331" x="64" fill="black" font-size="12" text-anchor="end" font-family="arial"> 48</text> <line x1="70" x2="67" y1="106.66666666666669" y2="106.66666666666669" stroke="black"></line> <line x1="70" x2="380" y1="106.66666666666669" y2="106.66666666666669" opacity="nil" stroke="#c0c0c0"></line> <text y="110.66666666666669" x="64" fill="black" font-size="12" text-anchor="end" font-family="arial"> 49</text> <line x1="70" x2="67" y1="90.0" y2="90.0" stroke="black"></line> <line x1="70" x2="380" y1="90.0" y2="90.0" opacity="nil" stroke="#c0c0c0"></line> <text y="94.0" x="64" fill="black" font-size="12" text-anchor="end" font-family="arial"> 50</text> <line x1="70" x2="67" y1="73.33333333333331" y2="73.33333333333331" stroke="black"></line> <line x1="70" x2="380" y1="73.33333333333331" y2="73.33333333333331" opacity="nil" stroke="#c0c0c0"></line> <text y="77.33333333333331" x="64" fill="black" font-size="12" text-anchor="end" font-family="arial"> 51</text> <line x1="70" x2="67" y1="56.666666666666686" y2="56.666666666666686" stroke="black"></line> <line x1="70" x2="380" y1="56.666666666666686" y2="56.666666666666686" opacity="nil" stroke="#c0c0c0"></line> <text y="60.666666666666686" x="64" fill="black" font-size="12" text-anchor="end" font-family="arial"> 52</text> <line x1="70" x2="67" y1="40.0" y2="40.0" stroke="black"></line> <line x1="70" x2="380" y1="40.0" y2="40.0" opacity="nil" stroke="#c0c0c0"></line> <text y="44.0" x="64" fill="black" font-size="12" text-anchor="end" font-family="arial"> 53</text> <line x1="70" x2="70" y1="40" y2="245" stroke="black"></line> <line x1="65" x2="380" y1="240" y2="240" stroke="black"></line> <line x1="70" x2="79.11764705882354" y1="240.0" y2="221.66666666666663" stroke="black"></line> <line x1="79.11764705882354" x2="88.23529411764706" y1="221.66666666666663" y2="221.66666666666663" stroke="black"></line> <line x1="88.23529411764706" x2="97.3529411764706" y1="221.66666666666663" y2="188.33333333333331" stroke="black"></line> <line x1="97.3529411764706" x2="106.47058823529412" y1="188.33333333333331" y2="196.66666666666663" stroke="black"></line> <line x1="106.47058823529412" x2="115.58823529411765" y1="196.66666666666663" y2="196.66666666666663" stroke="black"></line> <line x1="115.58823529411765" x2="124.70588235294119" y1="196.66666666666663" y2="208.33333333333337" stroke="black"></line> <line x1="124.70588235294119" x2="133.8235294117647" y1="208.33333333333337" y2="206.66666666666669" stroke="black"></line> <line x1="133.8235294117647" x2="142.94117647058823" y1="206.66666666666669" y2="203.3333333333333" stroke="black"></line> <line x1="142.94117647058823" x2="152.05882352941177" y1="203.3333333333333" y2="183.33333333333337" stroke="black"></line> <line x1="152.05882352941177" x2="161.1764705882353" y1="183.33333333333337" y2="181.66666666666666" stroke="black"></line> <line x1="161.1764705882353" x2="170.29411764705884" y1="181.66666666666666" y2="166.66666666666669" stroke="black"></line> <line x1="170.29411764705884" x2="179.41176470588238" y1="166.66666666666669" y2="158.33333333333337" stroke="black"></line> <line x1="179.41176470588238" x2="188.52941176470586" y1="158.33333333333337" y2="56.666666666666686" stroke="black"></line> <line x1="188.52941176470586" x2="197.6470588235294" y1="56.666666666666686" y2="40.0" stroke="black"></line> <line x1="197.6470588235294" x2="206.76470588235293" y1="40.0" y2="48.333333333333314" stroke="black"></line> <line x1="206.76470588235293" x2="215.88235294117646" y1="48.333333333333314" y2="73.33333333333331" stroke="black"></line> <line x1="215.88235294117646" x2="225.0" y1="73.33333333333331" y2="90.0" stroke="black"></line> <line x1="225.0" x2="234.11764705882354" y1="90.0" y2="90.0" stroke="black"></line> <line x1="234.11764705882354" x2="243.23529411764707" y1="90.0" y2="90.0" stroke="black"></line> <line x1="243.23529411764707" x2="252.3529411764706" y1="90.0" y2="103.33333333333329" stroke="black"></line> <line x1="252.3529411764706" x2="261.47058823529414" y1="103.33333333333329" y2="96.66666666666663" stroke="black"></line> <line x1="261.47058823529414" x2="270.5882352941177" y1="96.66666666666663" y2="90.0" stroke="black"></line> <line x1="270.5882352941177" x2="279.7058823529412" y1="90.0" y2="106.66666666666669" stroke="black"></line> <line x1="279.7058823529412" x2="288.82352941176475" y1="106.66666666666669" y2="90.0" stroke="black"></line> <line x1="288.82352941176475" x2="297.9411764705883" y1="90.0" y2="106.66666666666669" stroke="black"></line> <line x1="297.9411764705883" x2="307.0588235294117" y1="106.66666666666669" y2="115.0" stroke="black"></line> <line x1="307.0588235294117" x2="316.17647058823525" y1="115.0" y2="93.3333333333334" stroke="black"></line> <line x1="316.17647058823525" x2="325.2941176470588" y1="93.3333333333334" y2="123.33333333333333" stroke="black"></line> <line x1="325.2941176470588" x2="334.4117647058823" y1="123.33333333333333" y2="126.66666666666671" stroke="black"></line> <line x1="334.4117647058823" x2="343.52941176470586" y1="126.66666666666671" y2="128.3333333333333" stroke="black"></line> <line x1="343.52941176470586" x2="352.6470588235294" y1="128.3333333333333" y2="140.0" stroke="black"></line> <line x1="352.6470588235294" x2="361.7647058823529" y1="140.0" y2="151.6666666666667" stroke="black"></line> <line x1="361.7647058823529" x2="370.88235294117646" y1="151.6666666666667" y2="144.99999999999994" stroke="black"></line> <line x1="370.88235294117646" x2="380" y1="144.99999999999994" y2="126.66666666666671" stroke="black"></line></svg>