<svg width="400" height="200" version="1.1" xmlns="http://www.w3.org/2000/svg" xmlns:xlink="http://www.w3.org/1999/xlink"> <rect width="400" height="200" x="0" y="0" fill="#101010"></rect> <rect width="380" height="71.55" x="10" y="23.975" fill="#e6194b"></rect> <text y="65.75" x="20" fill="#c0c0c0" font-weight="normal" font-size="20" text-anchor="left" font-family="Futura"> lars.ingebrigtsen.no</text> <rect width="96.64197530864197" height="71.55" x="10" y="103.475" fill="#3cb44b"></rect> <text y="145.25" x="20" fill="#c0c0c0" font-weight="normal" font-size="20" text-anchor="left" font-family="Futura"> moving-pictures.ingebrigtsen.no</text> <line x1="10.0" x2="10.0" y1="179" y2="183" stroke="#c0c0c0"></line> <line x1="10.0" x2="10.0" y1="20" y2="179" stroke="#404040" opacity="0.2"></line> <text y="193" x="10.0" fill="#c0c0c0" font-weight="normal" font-size="12" text-anchor="middle" font-family="Futura"> 0</text> <line x1="28.76543209876543" x2="28.76543209876543" y1="179" y2="181" stroke="#c0c0c0"></line> <line x1="28.76543209876543" x2="28.76543209876543" y1="20" y2="179" stroke="#404040" opacity="0.2"></line> <line x1="47.53086419753086" x2="47.53086419753086" y1="179" y2="181" stroke="#c0c0c0"></line> <line x1="47.53086419753086" x2="47.53086419753086" y1="20" y2="179" stroke="#404040" opacity="0.2"></line> <line x1="66.29629629629629" x2="66.29629629629629" y1="179" y2="181" stroke="#c0c0c0"></line> <line x1="66.29629629629629" x2="66.29629629629629" y1="20" y2="179" stroke="#404040" opacity="0.2"></line> <line x1="85.06172839506172" x2="85.06172839506172" y1="179" y2="181" stroke="#c0c0c0"></line> <line x1="85.06172839506172" x2="85.06172839506172" y1="20" y2="179" stroke="#404040" opacity="0.2"></line> <line x1="103.82716049382715" x2="103.82716049382715" y1="179" y2="183" stroke="#c0c0c0"></line> <line x1="103.82716049382715" x2="103.82716049382715" y1="20" y2="179" stroke="#404040" opacity="0.2"></line> <text y="193" x="103.82716049382715" fill="#c0c0c0" font-weight="normal" font-size="12" text-anchor="middle" font-family="Futura"> 100</text> <line x1="122.59259259259258" x2="122.59259259259258" y1="179" y2="181" stroke="#c0c0c0"></line> <line x1="122.59259259259258" x2="122.59259259259258" y1="20" y2="179" stroke="#404040" opacity="0.2"></line> <line x1="141.35802469135803" x2="141.35802469135803" y1="179" y2="181" stroke="#c0c0c0"></line> <line x1="141.35802469135803" x2="141.35802469135803" y1="20" y2="179" stroke="#404040" opacity="0.2"></line> <line x1="160.12345679012344" x2="160.12345679012344" y1="179" y2="181" stroke="#c0c0c0"></line> <line x1="160.12345679012344" x2="160.12345679012344" y1="20" y2="179" stroke="#404040" opacity="0.2"></line> <line x1="178.88888888888889" x2="178.88888888888889" y1="179" y2="181" stroke="#c0c0c0"></line> <line x1="178.88888888888889" x2="178.88888888888889" y1="20" y2="179" stroke="#404040" opacity="0.2"></line> <line x1="197.6543209876543" x2="197.6543209876543" y1="179" y2="183" stroke="#c0c0c0"></line> <line x1="197.6543209876543" x2="197.6543209876543" y1="20" y2="179" stroke="#404040" opacity="0.2"></line> <text y="193" x="197.6543209876543" fill="#c0c0c0" font-weight="normal" font-size="12" text-anchor="middle" font-family="Futura"> 200</text> <line x1="216.41975308641975" x2="216.41975308641975" y1="179" y2="181" stroke="#c0c0c0"></line> <line x1="216.41975308641975" x2="216.41975308641975" y1="20" y2="179" stroke="#404040" opacity="0.2"></line> <line x1="235.18518518518516" x2="235.18518518518516" y1="179" y2="181" stroke="#c0c0c0"></line> <line x1="235.18518518518516" x2="235.18518518518516" y1="20" y2="179" stroke="#404040" opacity="0.2"></line> <line x1="253.9506172839506" x2="253.9506172839506" y1="179" y2="181" stroke="#c0c0c0"></line> <line x1="253.9506172839506" x2="253.9506172839506" y1="20" y2="179" stroke="#404040" opacity="0.2"></line> <line x1="272.71604938271605" x2="272.71604938271605" y1="179" y2="181" stroke="#c0c0c0"></line> <line x1="272.71604938271605" x2="272.71604938271605" y1="20" y2="179" stroke="#404040" opacity="0.2"></line> <line x1="291.48148148148147" x2="291.48148148148147" y1="179" y2="183" stroke="#c0c0c0"></line> <line x1="291.48148148148147" x2="291.48148148148147" y1="20" y2="179" stroke="#404040" opacity="0.2"></line> <text y="193" x="291.48148148148147" fill="#c0c0c0" font-weight="normal" font-size="12" text-anchor="middle" font-family="Futura"> 300</text> <line x1="310.2469135802469" x2="310.2469135802469" y1="179" y2="181" stroke="#c0c0c0"></line> <line x1="310.2469135802469" x2="310.2469135802469" y1="20" y2="179" stroke="#404040" opacity="0.2"></line> <line x1="329.01234567901236" x2="329.01234567901236" y1="179" y2="181" stroke="#c0c0c0"></line> <line x1="329.01234567901236" x2="329.01234567901236" y1="20" y2="179" stroke="#404040" opacity="0.2"></line> <line x1="347.77777777777777" x2="347.77777777777777" y1="179" y2="181" stroke="#c0c0c0"></line> <line x1="347.77777777777777" x2="347.77777777777777" y1="20" y2="179" stroke="#404040" opacity="0.2"></line> <line x1="366.5432098765432" x2="366.5432098765432" y1="179" y2="181" stroke="#c0c0c0"></line> <line x1="366.5432098765432" x2="366.5432098765432" y1="20" y2="179" stroke="#404040" opacity="0.2"></line> <line x1="385.3086419753086" x2="385.3086419753086" y1="179" y2="183" stroke="#c0c0c0"></line> <line x1="385.3086419753086" x2="385.3086419753086" y1="20" y2="179" stroke="#404040" opacity="0.2"></line> <text y="193" x="385.3086419753086" fill="#c0c0c0" font-weight="normal" font-size="12" text-anchor="middle" font-family="Futura"> 400</text> <line x1="10" x2="10" y1="20" y2="184" stroke="#c0c0c0"></line> <line x1="5" x2="390" y1="179" y2="179" stroke="#c0c0c0"></line></svg>