<svg width="250" height="300" version="1.1" xmlns="http://www.w3.org/2000/svg" xmlns:xlink="http://www.w3.org/1999/xlink"> <rect width="250" height="300" x="0" y="0" fill="#101010"></rect> <rect width="4.681933842239186" height="46.62" x="10" y="22.59" fill="#e6194b"></rect> <text y="51.9" x="20" fill="#c0c0c0" font-weight="normal" font-size="18" text-anchor="left" font-family="Futura"> kitchen-sink.kwakk.info</text> <rect width="230" height="46.62" x="10" y="74.39" fill="#3cb44b"></rect> <text y="103.69999999999999" x="20" fill="#c0c0c0" font-weight="normal" font-size="18" text-anchor="left" font-family="Futura"> lars.ingebrigtsen.no</text> <rect width="60.279898218829516" height="46.62" x="10" y="126.19" fill="#ffe119"></rect> <text y="155.5" x="20" fill="#c0c0c0" font-weight="normal" font-size="18" text-anchor="left" font-family="Futura"> moving-pictures.ingebrigtsen.no</text> <rect width="12.290076335877862" height="46.62" x="10" y="177.98999999999998" fill="#4363d8"></rect> <text y="207.29999999999998" x="20" fill="#c0c0c0" font-weight="normal" font-size="18" text-anchor="left" font-family="Futura"> totally-epic.kwakk.info</text> <rect width="2.9262086513994907" height="46.62" x="10" y="229.79" fill="#f58231"></rect> <text y="259.09999999999997" x="20" fill="#c0c0c0" font-weight="normal" font-size="18" text-anchor="left" font-family="Futura"> totally-pacific.kwakk.info</text> <rect width="3.5114503816793894" height="20" x="10" y="38.489999999999995" fill="#004000"></rect> <text y="51.9" x="20" fill="#c0c0c0" font-weight="normal" font-size="18" text-anchor="left" font-family="Futura"> kitchen-sink.kwakk.info</text> <rect width="80.76335877862594" height="20" x="10" y="90.28999999999999" fill="#004000"></rect> <text y="103.69999999999999" x="20" fill="#c0c0c0" font-weight="normal" font-size="18" text-anchor="left" font-family="Futura"> lars.ingebrigtsen.no</text> <rect width="6.43765903307888" height="20" x="10" y="142.09" fill="#004000"></rect> <text y="155.5" x="20" fill="#c0c0c0" font-weight="normal" font-size="18" text-anchor="left" font-family="Futura"> moving-pictures.ingebrigtsen.no</text> <rect width="2.9262086513994907" height="20" x="10" y="193.89" fill="#004000"></rect> <text y="207.29999999999998" x="20" fill="#c0c0c0" font-weight="normal" font-size="18" text-anchor="left" font-family="Futura"> totally-epic.kwakk.info</text> <rect width="1.1704834605597965" height="20" x="10" y="245.69" fill="#004000"></rect> <text y="259.09999999999997" x="20" fill="#c0c0c0" font-weight="normal" font-size="18" text-anchor="left" font-family="Futura"> totally-pacific.kwakk.info</text> <line x1="10.0" x2="10.0" y1="279" y2="283" stroke="#c0c0c0"></line> <line x1="10.0" x2="10.0" y1="20" y2="279" stroke="#404040" opacity="0.2"></line> <text y="293" x="10.0" fill="#c0c0c0" font-weight="normal" font-size="12" text-anchor="middle" font-family="Futura"> 0</text> <line x1="21.704834605597963" x2="21.704834605597963" y1="279" y2="281" stroke="#c0c0c0"></line> <line x1="21.704834605597963" x2="21.704834605597963" y1="20" y2="279" stroke="#404040" opacity="0.2"></line> <line x1="33.409669211195926" x2="33.409669211195926" y1="279" y2="281" stroke="#c0c0c0"></line> <line x1="33.409669211195926" x2="33.409669211195926" y1="20" y2="279" stroke="#404040" opacity="0.2"></line> <line x1="45.11450381679389" x2="45.11450381679389" y1="279" y2="281" stroke="#c0c0c0"></line> <line x1="45.11450381679389" x2="45.11450381679389" y1="20" y2="279" stroke="#404040" opacity="0.2"></line> <line x1="56.81933842239185" x2="56.81933842239185" y1="279" y2="281" stroke="#c0c0c0"></line> <line x1="56.81933842239185" x2="56.81933842239185" y1="20" y2="279" stroke="#404040" opacity="0.2"></line> <line x1="68.52417302798983" x2="68.52417302798983" y1="279" y2="283" stroke="#c0c0c0"></line> <line x1="68.52417302798983" x2="68.52417302798983" y1="20" y2="279" stroke="#404040" opacity="0.2"></line> <text y="293" x="68.52417302798983" fill="#c0c0c0" font-weight="normal" font-size="12" text-anchor="middle" font-family="Futura"> 100</text> <line x1="80.22900763358778" x2="80.22900763358778" y1="279" y2="281" stroke="#c0c0c0"></line> <line x1="80.22900763358778" x2="80.22900763358778" y1="20" y2="279" stroke="#404040" opacity="0.2"></line> <line x1="91.93384223918575" x2="91.93384223918575" y1="279" y2="281" stroke="#c0c0c0"></line> <line x1="91.93384223918575" x2="91.93384223918575" y1="20" y2="279" stroke="#404040" opacity="0.2"></line> <line x1="103.6386768447837" x2="103.6386768447837" y1="279" y2="281" stroke="#c0c0c0"></line> <line x1="103.6386768447837" x2="103.6386768447837" y1="20" y2="279" stroke="#404040" opacity="0.2"></line> <line x1="115.34351145038167" x2="115.34351145038167" y1="279" y2="281" stroke="#c0c0c0"></line> <line x1="115.34351145038167" x2="115.34351145038167" y1="20" y2="279" stroke="#404040" opacity="0.2"></line> <line x1="127.04834605597965" x2="127.04834605597965" y1="279" y2="283" stroke="#c0c0c0"></line> <line x1="127.04834605597965" x2="127.04834605597965" y1="20" y2="279" stroke="#404040" opacity="0.2"></line> <text y="293" x="127.04834605597965" fill="#c0c0c0" font-weight="normal" font-size="12" text-anchor="middle" font-family="Futura"> 200</text> <line x1="138.7531806615776" x2="138.7531806615776" y1="279" y2="281" stroke="#c0c0c0"></line> <line x1="138.7531806615776" x2="138.7531806615776" y1="20" y2="279" stroke="#404040" opacity="0.2"></line> <line x1="150.45801526717557" x2="150.45801526717557" y1="279" y2="281" stroke="#c0c0c0"></line> <line x1="150.45801526717557" x2="150.45801526717557" y1="20" y2="279" stroke="#404040" opacity="0.2"></line> <line x1="162.16284987277353" x2="162.16284987277353" y1="279" y2="281" stroke="#c0c0c0"></line> <line x1="162.16284987277353" x2="162.16284987277353" y1="20" y2="279" stroke="#404040" opacity="0.2"></line> <line x1="173.8676844783715" x2="173.8676844783715" y1="279" y2="281" stroke="#c0c0c0"></line> <line x1="173.8676844783715" x2="173.8676844783715" y1="20" y2="279" stroke="#404040" opacity="0.2"></line> <line x1="185.57251908396947" x2="185.57251908396947" y1="279" y2="283" stroke="#c0c0c0"></line> <line x1="185.57251908396947" x2="185.57251908396947" y1="20" y2="279" stroke="#404040" opacity="0.2"></line> <text y="293" x="185.57251908396947" fill="#c0c0c0" font-weight="normal" font-size="12" text-anchor="middle" font-family="Futura"> 300</text> <line x1="197.2773536895674" x2="197.2773536895674" y1="279" y2="281" stroke="#c0c0c0"></line> <line x1="197.2773536895674" x2="197.2773536895674" y1="20" y2="279" stroke="#404040" opacity="0.2"></line> <line x1="208.98218829516537" x2="208.98218829516537" y1="279" y2="281" stroke="#c0c0c0"></line> <line x1="208.98218829516537" x2="208.98218829516537" y1="20" y2="279" stroke="#404040" opacity="0.2"></line> <line x1="220.68702290076334" x2="220.68702290076334" y1="279" y2="281" stroke="#c0c0c0"></line> <line x1="220.68702290076334" x2="220.68702290076334" y1="20" y2="279" stroke="#404040" opacity="0.2"></line> <line x1="232.3918575063613" x2="232.3918575063613" y1="279" y2="281" stroke="#c0c0c0"></line> <line x1="232.3918575063613" x2="232.3918575063613" y1="20" y2="279" stroke="#404040" opacity="0.2"></line> <line x1="10" x2="10" y1="20" y2="284" stroke="#c0c0c0"></line> <line x1="5" x2="240" y1="279" y2="279" stroke="#c0c0c0"></line></svg>