<svg width="550" height="300" version="1.1" xmlns="http://www.w3.org/2000/svg" xmlns:xlink="http://www.w3.org/1999/xlink"> <rect width="550" height="300" x="0" y="0" fill="#101010"></rect> <clipPath id="clip-0"> <rect x="31" y="20" width="509" height="259"></rect></clipPath> <rect width="228.6" height="187.56944444444443" x="56.39999999999999" y="91.43055555555557" fill="#e6194b" clip-path="url(#clip-0)"></rect> <rect width="228.6" height="259.0" x="310.9" y="20.0" fill="#3cb44b" clip-path="url(#clip-0)"></rect> <clipPath id="clip-1"> <rect x="31" y="20" width="509" height="259"></rect></clipPath> <rect width="20" height="72.45833333333331" x="148" y="206.54166666666669" fill="#004000" clip-path="url(#clip-1)"></rect> <rect width="20" height="123.84722222222223" x="402.5" y="155.15277777777777" fill="#004000" clip-path="url(#clip-1)"></rect> <text y="294" x="170.70000000000002" fill="#c0c0c0" font-weight="bold" font-size="12" text-anchor="middle" font-family="Futura"> 09</text> <text y="294" x="425.20000000000005" fill="#c0c0c0" font-weight="bold" font-size="12" text-anchor="middle" font-family="Futura"> today</text> <line x1="31" x2="28" y1="279.0" y2="279.0" stroke="#c0c0c0"></line> <line x1="31" x2="540" y1="279.0" y2="279.0" opacity="0.2" stroke="#a0a0a0"></line> <text y="283.0" x="25" fill="#c0c0c0" font-size="12" text-anchor="end" font-family="Futura"> 0</text> <line x1="31" x2="28" y1="253.30555555555554" y2="253.30555555555554" stroke="#c0c0c0"></line> <line x1="31" x2="540" y1="253.30555555555554" y2="253.30555555555554" opacity="0.2" stroke="#a0a0a0"></line> <text y="257.30555555555554" x="25" fill="#c0c0c0" font-size="12" text-anchor="end" font-family="Futura"> 50</text> <line x1="31" x2="28" y1="227.61111111111111" y2="227.61111111111111" stroke="#c0c0c0"></line> <line x1="31" x2="540" y1="227.61111111111111" y2="227.61111111111111" opacity="0.2" stroke="#a0a0a0"></line> <text y="231.61111111111111" x="25" fill="#c0c0c0" font-size="12" text-anchor="end" font-family="Futura"> 100</text> <line x1="31" x2="28" y1="201.91666666666669" y2="201.91666666666669" stroke="#c0c0c0"></line> <line x1="31" x2="540" y1="201.91666666666669" y2="201.91666666666669" opacity="0.2" stroke="#a0a0a0"></line> <text y="205.91666666666669" x="25" fill="#c0c0c0" font-size="12" text-anchor="end" font-family="Futura"> 150</text> <line x1="31" x2="28" y1="176.22222222222223" y2="176.22222222222223" stroke="#c0c0c0"></line> <line x1="31" x2="540" y1="176.22222222222223" y2="176.22222222222223" opacity="0.2" stroke="#a0a0a0"></line> <text y="180.22222222222223" x="25" fill="#c0c0c0" font-size="12" text-anchor="end" font-family="Futura"> 200</text> <line x1="31" x2="28" y1="150.52777777777777" y2="150.52777777777777" stroke="#c0c0c0"></line> <line x1="31" x2="540" y1="150.52777777777777" y2="150.52777777777777" opacity="0.2" stroke="#a0a0a0"></line> <text y="154.52777777777777" x="25" fill="#c0c0c0" font-size="12" text-anchor="end" font-family="Futura"> 250</text> <line x1="31" x2="28" y1="124.83333333333334" y2="124.83333333333334" stroke="#c0c0c0"></line> <line x1="31" x2="540" y1="124.83333333333334" y2="124.83333333333334" opacity="0.2" stroke="#a0a0a0"></line> <text y="128.83333333333334" x="25" fill="#c0c0c0" font-size="12" text-anchor="end" font-family="Futura"> 300</text> <line x1="31" x2="28" y1="99.13888888888889" y2="99.13888888888889" stroke="#c0c0c0"></line> <line x1="31" x2="540" y1="99.13888888888889" y2="99.13888888888889" opacity="0.2" stroke="#a0a0a0"></line> <text y="103.13888888888889" x="25" fill="#c0c0c0" font-size="12" text-anchor="end" font-family="Futura"> 350</text> <line x1="31" x2="28" y1="73.44444444444446" y2="73.44444444444446" stroke="#c0c0c0"></line> <line x1="31" x2="540" y1="73.44444444444446" y2="73.44444444444446" opacity="0.2" stroke="#a0a0a0"></line> <text y="77.44444444444446" x="25" fill="#c0c0c0" font-size="12" text-anchor="end" font-family="Futura"> 400</text> <line x1="31" x2="28" y1="47.75" y2="47.75" stroke="#c0c0c0"></line> <line x1="31" x2="540" y1="47.75" y2="47.75" opacity="0.2" stroke="#a0a0a0"></line> <text y="51.75" x="25" fill="#c0c0c0" font-size="12" text-anchor="end" font-family="Futura"> 450</text> <line x1="31" x2="28" y1="22.055555555555543" y2="22.055555555555543" stroke="#c0c0c0"></line> <line x1="31" x2="540" y1="22.055555555555543" y2="22.055555555555543" opacity="0.2" stroke="#a0a0a0"></line> <text y="26.055555555555543" x="25" fill="#c0c0c0" font-size="12" text-anchor="end" font-family="Futura"> 500</text> <line x1="31" x2="31" y1="20" y2="284" stroke="#c0c0c0"></line> <line x1="26" x2="540" y1="279" y2="279" stroke="#c0c0c0"></line></svg>