<svg width="728" height="500" version="1.1" xmlns="http://www.w3.org/2000/svg" xmlns:xlink="http://www.w3.org/1999/xlink"> <rect width="728" height="500" x="0" y="0" fill="white"></rect> <line x1="70.0" x2="70.0" y1="440" y2="444" stroke="black"></line> <line x1="70.0" x2="70.0" y1="40" y2="440" stroke="#e0e0e0" opacity="nil"></line> <text y="454" x="70.0" fill="black" font-size="12" text-anchor="middle" font-family="sans-serif"> 2024-01-10</text> <line x1="229.5" x2="229.5" y1="440" y2="444" stroke="black"></line> <line x1="229.5" x2="229.5" y1="40" y2="440" stroke="#e0e0e0" opacity="nil"></line> <text y="454" x="229.5" fill="black" font-size="12" text-anchor="middle" font-family="sans-serif"> 2024-01-11</text> <line x1="389.0" x2="389.0" y1="440" y2="444" stroke="black"></line> <line x1="389.0" x2="389.0" y1="40" y2="440" stroke="#e0e0e0" opacity="nil"></line> <text y="454" x="389.0" fill="black" font-size="12" text-anchor="middle" font-family="sans-serif"> 2024-01-12</text> <line x1="548.5" x2="548.5" y1="440" y2="444" stroke="black"></line> <line x1="548.5" x2="548.5" y1="40" y2="440" stroke="#e0e0e0" opacity="nil"></line> <text y="454" x="548.5" fill="black" font-size="12" text-anchor="middle" font-family="sans-serif"> 2024-01-13</text> <line x1="708.0" x2="708.0" y1="440" y2="444" stroke="black"></line> <line x1="708.0" x2="708.0" y1="40" y2="440" stroke="#e0e0e0" opacity="nil"></line> <text y="454" x="708.0" fill="black" font-size="12" text-anchor="middle" font-family="sans-serif"> 2024-01-14</text> <line x1="70" x2="67" y1="440.0" y2="440.0" stroke="black"></line> <line x1="70" x2="708" y1="440.0" y2="440.0" opacity="nil" stroke="#e0e0e0"></line> <text y="444.0" x="64" fill="black" font-size="12" text-anchor="end" font-family="sans-serif"> 15</text> <line x1="70" x2="67" y1="420.0" y2="420.0" stroke="black"></line> <line x1="70" x2="708" y1="420.0" y2="420.0" opacity="nil" stroke="#e0e0e0"></line> <text y="424.0" x="64" fill="black" font-size="12" text-anchor="end" font-family="sans-serif"> 16</text> <line x1="70" x2="67" y1="400.0" y2="400.0" stroke="black"></line> <line x1="70" x2="708" y1="400.0" y2="400.0" opacity="nil" stroke="#e0e0e0"></line> <text y="404.0" x="64" fill="black" font-size="12" text-anchor="end" font-family="sans-serif"> 17</text> <line x1="70" x2="67" y1="380.0" y2="380.0" stroke="black"></line> <line x1="70" x2="708" y1="380.0" y2="380.0" opacity="nil" stroke="#e0e0e0"></line> <text y="384.0" x="64" fill="black" font-size="12" text-anchor="end" font-family="sans-serif"> 18</text> <line x1="70" x2="67" y1="360.0" y2="360.0" stroke="black"></line> <line x1="70" x2="708" y1="360.0" y2="360.0" opacity="nil" stroke="#e0e0e0"></line> <text y="364.0" x="64" fill="black" font-size="12" text-anchor="end" font-family="sans-serif"> 19</text> <line x1="70" x2="67" y1="340.0" y2="340.0" stroke="black"></line> <line x1="70" x2="708" y1="340.0" y2="340.0" opacity="nil" stroke="#e0e0e0"></line> <text y="344.0" x="64" fill="black" font-size="12" text-anchor="end" font-family="sans-serif"> 20</text> <line x1="70" x2="67" y1="320.0" y2="320.0" stroke="black"></line> <line x1="70" x2="708" y1="320.0" y2="320.0" opacity="nil" stroke="#e0e0e0"></line> <text y="324.0" x="64" fill="black" font-size="12" text-anchor="end" font-family="sans-serif"> 21</text> <line x1="70" x2="67" y1="300.0" y2="300.0" stroke="black"></line> <line x1="70" x2="708" y1="300.0" y2="300.0" opacity="nil" stroke="#e0e0e0"></line> <text y="304.0" x="64" fill="black" font-size="12" text-anchor="end" font-family="sans-serif"> 22</text> <line x1="70" x2="67" y1="280.0" y2="280.0" stroke="black"></line> <line x1="70" x2="708" y1="280.0" y2="280.0" opacity="nil" stroke="#e0e0e0"></line> <text y="284.0" x="64" fill="black" font-size="12" text-anchor="end" font-family="sans-serif"> 23</text> <line x1="70" x2="67" y1="260.0" y2="260.0" stroke="black"></line> <line x1="70" x2="708" y1="260.0" y2="260.0" opacity="nil" stroke="#e0e0e0"></line> <text y="264.0" x="64" fill="black" font-size="12" text-anchor="end" font-family="sans-serif"> 24</text> <line x1="70" x2="67" y1="240.0" y2="240.0" stroke="black"></line> <line x1="70" x2="708" y1="240.0" y2="240.0" opacity="nil" stroke="#e0e0e0"></line> <text y="244.0" x="64" fill="black" font-size="12" text-anchor="end" font-family="sans-serif"> 25</text> <line x1="70" x2="67" y1="219.99999999999997" y2="219.99999999999997" stroke="black"></line> <line x1="70" x2="708" y1="219.99999999999997" y2="219.99999999999997" opacity="nil" stroke="#e0e0e0"></line> <text y="223.99999999999997" x="64" fill="black" font-size="12" text-anchor="end" font-family="sans-serif"> 26</text> <line x1="70" x2="67" y1="200.0" y2="200.0" stroke="black"></line> <line x1="70" x2="708" y1="200.0" y2="200.0" opacity="nil" stroke="#e0e0e0"></line> <text y="204.0" x="64" fill="black" font-size="12" text-anchor="end" font-family="sans-serif"> 27</text> <line x1="70" x2="67" y1="180.0" y2="180.0" stroke="black"></line> <line x1="70" x2="708" y1="180.0" y2="180.0" opacity="nil" stroke="#e0e0e0"></line> <text y="184.0" x="64" fill="black" font-size="12" text-anchor="end" font-family="sans-serif"> 28</text> <line x1="70" x2="67" y1="160.0" y2="160.0" stroke="black"></line> <line x1="70" x2="708" y1="160.0" y2="160.0" opacity="nil" stroke="#e0e0e0"></line> <text y="164.0" x="64" fill="black" font-size="12" text-anchor="end" font-family="sans-serif"> 29</text> <line x1="70" x2="67" y1="140.0" y2="140.0" stroke="black"></line> <line x1="70" x2="708" y1="140.0" y2="140.0" opacity="nil" stroke="#e0e0e0"></line> <text y="144.0" x="64" fill="black" font-size="12" text-anchor="end" font-family="sans-serif"> 30</text> <line x1="70" x2="67" y1="120.0" y2="120.0" stroke="black"></line> <line x1="70" x2="708" y1="120.0" y2="120.0" opacity="nil" stroke="#e0e0e0"></line> <text y="124.0" x="64" fill="black" font-size="12" text-anchor="end" font-family="sans-serif"> 31</text> <line x1="70" x2="67" y1="100.0" y2="100.0" stroke="black"></line> <line x1="70" x2="708" y1="100.0" y2="100.0" opacity="nil" stroke="#e0e0e0"></line> <text y="104.0" x="64" fill="black" font-size="12" text-anchor="end" font-family="sans-serif"> 32</text> <line x1="70" x2="67" y1="80.0" y2="80.0" stroke="black"></line> <line x1="70" x2="708" y1="80.0" y2="80.0" opacity="nil" stroke="#e0e0e0"></line> <text y="84.0" x="64" fill="black" font-size="12" text-anchor="end" font-family="sans-serif"> 33</text> <line x1="70" x2="67" y1="60.0" y2="60.0" stroke="black"></line> <line x1="70" x2="708" y1="60.0" y2="60.0" opacity="nil" stroke="#e0e0e0"></line> <text y="64.0" x="64" fill="black" font-size="12" text-anchor="end" font-family="sans-serif"> 34</text> <line x1="70" x2="67" y1="40.0" y2="40.0" stroke="black"></line> <line x1="70" x2="708" y1="40.0" y2="40.0" opacity="nil" stroke="#e0e0e0"></line> <text y="44.0" x="64" fill="black" font-size="12" text-anchor="end" font-family="sans-serif"> 35</text> <line x1="70" x2="70" y1="40" y2="445" stroke="black"></line> <line x1="65" x2="708" y1="440" y2="440" stroke="black"></line> <clipPath id="clip-0"> <rect x="70" y="40" width="638" height="400"></rect></clipPath> <line x1="70" x2="229.5" y1="440.0" y2="240.0" stroke="red" clip-path="url(#clip-0)" stroke-width="1"></line> <text y="34.0" x="389.0" fill="red" font-weight="normal" font-size="12" text-anchor="middle" font-family="sans-serif"> Peak</text> <line x1="386.0" x2="392.0" y1="37.0" y2="43.0" stroke="red" clip-path="url(#clip-0)"></line> <line x1="392.0" x2="386.0" y1="37.0" y2="43.0" stroke="red" clip-path="url(#clip-0)"></line> <line x1="229.5" x2="389.0" y1="240.0" y2="40.0" stroke="red" clip-path="url(#clip-0)" stroke-width="1"></line> <line x1="389.0" x2="548.5" y1="40.0" y2="240.0" stroke="red" clip-path="url(#clip-0)" stroke-width="1"></line> <line x1="548.5" x2="708" y1="240.0" y2="340.0" stroke="red" clip-path="url(#clip-0)" stroke-width="1"></line></svg>