<svg width="300" height="200" version="1.1" xmlns="http://www.w3.org/2000/svg" xmlns:xlink="http://www.w3.org/1999/xlink"> <rect width="300" height="200" x="0" y="0" fill="none"></rect> <line x1="30.0" x2="30.0" y1="179" y2="183" stroke="black"></line> <line x1="30.0" x2="30.0" y1="20" y2="179" stroke="#e0e0e0" opacity="nil"></line> <text y="193" x="30.0" fill="black" font-size="12" text-anchor="middle" font-family="sans-serif"> 0</text> <line x1="45.294117647058826" x2="45.294117647058826" y1="179" y2="181" stroke="black"></line> <line x1="45.294117647058826" x2="45.294117647058826" y1="20" y2="179" stroke="#e0e0e0" opacity="nil"></line> <line x1="60.588235294117645" x2="60.588235294117645" y1="179" y2="181" stroke="black"></line> <line x1="60.588235294117645" x2="60.588235294117645" y1="20" y2="179" stroke="#e0e0e0" opacity="nil"></line> <line x1="75.88235294117646" x2="75.88235294117646" y1="179" y2="181" stroke="black"></line> <line x1="75.88235294117646" x2="75.88235294117646" y1="20" y2="179" stroke="#e0e0e0" opacity="nil"></line> <line x1="91.17647058823529" x2="91.17647058823529" y1="179" y2="181" stroke="black"></line> <line x1="91.17647058823529" x2="91.17647058823529" y1="20" y2="179" stroke="#e0e0e0" opacity="nil"></line> <line x1="106.47058823529412" x2="106.47058823529412" y1="179" y2="183" stroke="black"></line> <line x1="106.47058823529412" x2="106.47058823529412" y1="20" y2="179" stroke="#e0e0e0" opacity="nil"></line> <text y="193" x="106.47058823529412" fill="black" font-size="12" text-anchor="middle" font-family="sans-serif"> 10</text> <line x1="121.76470588235294" x2="121.76470588235294" y1="179" y2="181" stroke="black"></line> <line x1="121.76470588235294" x2="121.76470588235294" y1="20" y2="179" stroke="#e0e0e0" opacity="nil"></line> <line x1="137.05882352941177" x2="137.05882352941177" y1="179" y2="181" stroke="black"></line> <line x1="137.05882352941177" x2="137.05882352941177" y1="20" y2="179" stroke="#e0e0e0" opacity="nil"></line> <line x1="152.35294117647058" x2="152.35294117647058" y1="179" y2="181" stroke="black"></line> <line x1="152.35294117647058" x2="152.35294117647058" y1="20" y2="179" stroke="#e0e0e0" opacity="nil"></line> <line x1="167.64705882352942" x2="167.64705882352942" y1="179" y2="181" stroke="black"></line> <line x1="167.64705882352942" x2="167.64705882352942" y1="20" y2="179" stroke="#e0e0e0" opacity="nil"></line> <line x1="182.94117647058823" x2="182.94117647058823" y1="179" y2="183" stroke="black"></line> <line x1="182.94117647058823" x2="182.94117647058823" y1="20" y2="179" stroke="#e0e0e0" opacity="nil"></line> <text y="193" x="182.94117647058823" fill="black" font-size="12" text-anchor="middle" font-family="sans-serif"> 20</text> <line x1="198.23529411764707" x2="198.23529411764707" y1="179" y2="181" stroke="black"></line> <line x1="198.23529411764707" x2="198.23529411764707" y1="20" y2="179" stroke="#e0e0e0" opacity="nil"></line> <line x1="213.52941176470588" x2="213.52941176470588" y1="179" y2="181" stroke="black"></line> <line x1="213.52941176470588" x2="213.52941176470588" y1="20" y2="179" stroke="#e0e0e0" opacity="nil"></line> <line x1="228.8235294117647" x2="228.8235294117647" y1="179" y2="181" stroke="black"></line> <line x1="228.8235294117647" x2="228.8235294117647" y1="20" y2="179" stroke="#e0e0e0" opacity="nil"></line> <line x1="244.1176470588235" x2="244.1176470588235" y1="179" y2="181" stroke="black"></line> <line x1="244.1176470588235" x2="244.1176470588235" y1="20" y2="179" stroke="#e0e0e0" opacity="nil"></line> <line x1="259.4117647058823" x2="259.4117647058823" y1="179" y2="183" stroke="black"></line> <line x1="259.4117647058823" x2="259.4117647058823" y1="20" y2="179" stroke="#e0e0e0" opacity="nil"></line> <text y="193" x="259.4117647058823" fill="black" font-size="12" text-anchor="middle" font-family="sans-serif"> 30</text> <line x1="274.70588235294116" x2="274.70588235294116" y1="179" y2="181" stroke="black"></line> <line x1="274.70588235294116" x2="274.70588235294116" y1="20" y2="179" stroke="#e0e0e0" opacity="nil"></line> <line x1="290.0" x2="290.0" y1="179" y2="181" stroke="black"></line> <line x1="290.0" x2="290.0" y1="20" y2="179" stroke="#e0e0e0" opacity="nil"></line> <line x1="30" x2="27" y1="179.0" y2="179.0" stroke="black"></line> <line x1="30" x2="290" y1="179.0" y2="179.0" opacity="nil" stroke="#e0e0e0"></line> <line x1="30" x2="27" y1="165.75" y2="165.75" stroke="black"></line> <line x1="30" x2="290" y1="165.75" y2="165.75" opacity="nil" stroke="#e0e0e0"></line> <text y="169.75" x="24" fill="black" font-size="12" text-anchor="end" font-family="sans-serif"> 42</text> <line x1="30" x2="27" y1="152.5" y2="152.5" stroke="black"></line> <line x1="30" x2="290" y1="152.5" y2="152.5" opacity="nil" stroke="#e0e0e0"></line> <line x1="30" x2="27" y1="139.25" y2="139.25" stroke="black"></line> <line x1="30" x2="290" y1="139.25" y2="139.25" opacity="nil" stroke="#e0e0e0"></line> <text y="143.25" x="24" fill="black" font-size="12" text-anchor="end" font-family="sans-serif"> 44</text> <line x1="30" x2="27" y1="126.0" y2="126.0" stroke="black"></line> <line x1="30" x2="290" y1="126.0" y2="126.0" opacity="nil" stroke="#e0e0e0"></line> <line x1="30" x2="27" y1="112.75" y2="112.75" stroke="black"></line> <line x1="30" x2="290" y1="112.75" y2="112.75" opacity="nil" stroke="#e0e0e0"></line> <text y="116.75" x="24" fill="black" font-size="12" text-anchor="end" font-family="sans-serif"> 46</text> <line x1="30" x2="27" y1="99.5" y2="99.5" stroke="black"></line> <line x1="30" x2="290" y1="99.5" y2="99.5" opacity="nil" stroke="#e0e0e0"></line> <line x1="30" x2="27" y1="86.25" y2="86.25" stroke="black"></line> <line x1="30" x2="290" y1="86.25" y2="86.25" opacity="nil" stroke="#e0e0e0"></line> <text y="90.25" x="24" fill="black" font-size="12" text-anchor="end" font-family="sans-serif"> 48</text> <line x1="30" x2="27" y1="73.0" y2="73.0" stroke="black"></line> <line x1="30" x2="290" y1="73.0" y2="73.0" opacity="nil" stroke="#e0e0e0"></line> <line x1="30" x2="27" y1="59.75" y2="59.75" stroke="black"></line> <line x1="30" x2="290" y1="59.75" y2="59.75" opacity="nil" stroke="#e0e0e0"></line> <text y="63.75" x="24" fill="black" font-size="12" text-anchor="end" font-family="sans-serif"> 50</text> <line x1="30" x2="27" y1="46.5" y2="46.5" stroke="black"></line> <line x1="30" x2="290" y1="46.5" y2="46.5" opacity="nil" stroke="#e0e0e0"></line> <line x1="30" x2="27" y1="33.25" y2="33.25" stroke="black"></line> <line x1="30" x2="290" y1="33.25" y2="33.25" opacity="nil" stroke="#e0e0e0"></line> <text y="37.25" x="24" fill="black" font-size="12" text-anchor="end" font-family="sans-serif"> 52</text> <line x1="30" x2="27" y1="20.0" y2="20.0" stroke="black"></line> <line x1="30" x2="290" y1="20.0" y2="20.0" opacity="nil" stroke="#e0e0e0"></line> <line x1="30" x2="30" y1="20" y2="184" stroke="black"></line> <line x1="25" x2="290" y1="179" y2="179" stroke="black"></line> <line x1="30" x2="37.64705882352941" y1="179.0" y2="164.42499999999998" stroke="black"></line> <line x1="37.64705882352941" x2="45.294117647058826" y1="164.42499999999998" y2="164.42499999999998" stroke="black"></line> <line x1="45.294117647058826" x2="52.94117647058823" y1="164.42499999999998" y2="137.92499999999998" stroke="black"></line> <line x1="52.94117647058823" x2="60.588235294117645" y1="137.92499999999998" y2="144.54999999999998" stroke="black"></line> <line x1="60.588235294117645" x2="68.23529411764706" y1="144.54999999999998" y2="144.54999999999998" stroke="black"></line> <line x1="68.23529411764706" x2="75.88235294117646" y1="144.54999999999998" y2="153.82500000000002" stroke="black"></line> <line x1="75.88235294117646" x2="83.52941176470588" y1="153.82500000000002" y2="152.5" stroke="black"></line> <line x1="83.52941176470588" x2="91.17647058823529" y1="152.5" y2="149.84999999999997" stroke="black"></line> <line x1="91.17647058823529" x2="98.82352941176471" y1="149.84999999999997" y2="133.95000000000002" stroke="black"></line> <line x1="98.82352941176471" x2="106.47058823529412" y1="133.95000000000002" y2="132.625" stroke="black"></line> <line x1="106.47058823529412" x2="114.11764705882354" y1="132.625" y2="120.70000000000002" stroke="black"></line> <line x1="114.11764705882354" x2="121.76470588235294" y1="120.70000000000002" y2="114.07500000000002" stroke="black"></line> <line x1="121.76470588235294" x2="129.41176470588235" y1="114.07500000000002" y2="33.25" stroke="black"></line> <line x1="129.41176470588235" x2="137.05882352941177" y1="33.25" y2="20.0" stroke="black"></line> <line x1="137.05882352941177" x2="144.70588235294116" y1="20.0" y2="26.625" stroke="black"></line> <line x1="144.70588235294116" x2="152.35294117647058" y1="26.625" y2="46.5" stroke="black"></line> <line x1="152.35294117647058" x2="160.0" y1="46.5" y2="59.75" stroke="black"></line> <line x1="160.0" x2="167.64705882352942" y1="59.75" y2="59.75" stroke="black"></line> <line x1="167.64705882352942" x2="175.29411764705884" y1="59.75" y2="59.75" stroke="black"></line> <line x1="175.29411764705884" x2="182.94117647058823" y1="59.75" y2="70.34999999999997" stroke="black"></line> <line x1="182.94117647058823" x2="190.58823529411765" y1="70.34999999999997" y2="65.04999999999998" stroke="black"></line> <line x1="190.58823529411765" x2="198.23529411764707" y1="65.04999999999998" y2="59.75" stroke="black"></line> <line x1="198.23529411764707" x2="205.8823529411765" y1="59.75" y2="73.0" stroke="black"></line> <line x1="205.8823529411765" x2="213.52941176470588" y1="73.0" y2="59.75" stroke="black"></line> <line x1="213.52941176470588" x2="221.1764705882353" y1="59.75" y2="73.0" stroke="black"></line> <line x1="221.1764705882353" x2="228.8235294117647" y1="73.0" y2="79.625" stroke="black"></line> <line x1="228.8235294117647" x2="236.47058823529412" y1="79.625" y2="62.40000000000005" stroke="black"></line> <line x1="236.47058823529412" x2="244.1176470588235" y1="62.40000000000005" y2="86.25" stroke="black"></line> <line x1="244.1176470588235" x2="251.76470588235293" y1="86.25" y2="88.90000000000003" stroke="black"></line> <line x1="251.76470588235293" x2="259.4117647058823" y1="88.90000000000003" y2="90.22499999999997" stroke="black"></line> <line x1="259.4117647058823" x2="267.05882352941177" y1="90.22499999999997" y2="99.5" stroke="black"></line> <line x1="267.05882352941177" x2="274.70588235294116" y1="99.5" y2="108.77500000000003" stroke="black"></line> <line x1="274.70588235294116" x2="282.3529411764706" y1="108.77500000000003" y2="103.47499999999997" stroke="black"></line> <line x1="282.3529411764706" x2="290" y1="103.47499999999997" y2="88.90000000000003" stroke="black"></line></svg>