<svg width="300" height="200" version="1.1" xmlns="http://www.w3.org/2000/svg" xmlns:xlink="http://www.w3.org/1999/xlink"> <rect width="300" height="200" x="0" y="0" fill="white"></rect> <line x1="30.0" x2="30.0" y1="179" y2="183" stroke="black"></line> <line x1="30.0" x2="30.0" y1="20" y2="179" stroke="#e0e0e0" opacity="nil"></line> <text y="193" x="30.0" fill="black" font-size="12" text-anchor="middle" font-family="sans-serif"> 0</text> <line x1="45.294117647058826" x2="45.294117647058826" y1="179" y2="181" stroke="black"></line> <line x1="45.294117647058826" x2="45.294117647058826" y1="20" y2="179" stroke="#e0e0e0" opacity="nil"></line> <line x1="60.588235294117645" x2="60.588235294117645" y1="179" y2="181" stroke="black"></line> <line x1="60.588235294117645" x2="60.588235294117645" y1="20" y2="179" stroke="#e0e0e0" opacity="nil"></line> <line x1="75.88235294117646" x2="75.88235294117646" y1="179" y2="181" stroke="black"></line> <line x1="75.88235294117646" x2="75.88235294117646" y1="20" y2="179" stroke="#e0e0e0" opacity="nil"></line> <line x1="91.17647058823529" x2="91.17647058823529" y1="179" y2="181" stroke="black"></line> <line x1="91.17647058823529" x2="91.17647058823529" y1="20" y2="179" stroke="#e0e0e0" opacity="nil"></line> <line x1="106.47058823529412" x2="106.47058823529412" y1="179" y2="183" stroke="black"></line> <line x1="106.47058823529412" x2="106.47058823529412" y1="20" y2="179" stroke="#e0e0e0" opacity="nil"></line> <text y="193" x="106.47058823529412" fill="black" font-size="12" text-anchor="middle" font-family="sans-serif"> 10</text> <line x1="121.76470588235294" x2="121.76470588235294" y1="179" y2="181" stroke="black"></line> <line x1="121.76470588235294" x2="121.76470588235294" y1="20" y2="179" stroke="#e0e0e0" opacity="nil"></line> <line x1="137.05882352941177" x2="137.05882352941177" y1="179" y2="181" stroke="black"></line> <line x1="137.05882352941177" x2="137.05882352941177" y1="20" y2="179" stroke="#e0e0e0" opacity="nil"></line> <line x1="152.35294117647058" x2="152.35294117647058" y1="179" y2="181" stroke="black"></line> <line x1="152.35294117647058" x2="152.35294117647058" y1="20" y2="179" stroke="#e0e0e0" opacity="nil"></line> <line x1="167.64705882352942" x2="167.64705882352942" y1="179" y2="181" stroke="black"></line> <line x1="167.64705882352942" x2="167.64705882352942" y1="20" y2="179" stroke="#e0e0e0" opacity="nil"></line> <line x1="182.94117647058823" x2="182.94117647058823" y1="179" y2="183" stroke="black"></line> <line x1="182.94117647058823" x2="182.94117647058823" y1="20" y2="179" stroke="#e0e0e0" opacity="nil"></line> <text y="193" x="182.94117647058823" fill="black" font-size="12" text-anchor="middle" font-family="sans-serif"> 20</text> <line x1="198.23529411764707" x2="198.23529411764707" y1="179" y2="181" stroke="black"></line> <line x1="198.23529411764707" x2="198.23529411764707" y1="20" y2="179" stroke="#e0e0e0" opacity="nil"></line> <line x1="213.52941176470588" x2="213.52941176470588" y1="179" y2="181" stroke="black"></line> <line x1="213.52941176470588" x2="213.52941176470588" y1="20" y2="179" stroke="#e0e0e0" opacity="nil"></line> <line x1="228.8235294117647" x2="228.8235294117647" y1="179" y2="181" stroke="black"></line> <line x1="228.8235294117647" x2="228.8235294117647" y1="20" y2="179" stroke="#e0e0e0" opacity="nil"></line> <line x1="244.1176470588235" x2="244.1176470588235" y1="179" y2="181" stroke="black"></line> <line x1="244.1176470588235" x2="244.1176470588235" y1="20" y2="179" stroke="#e0e0e0" opacity="nil"></line> <line x1="259.4117647058823" x2="259.4117647058823" y1="179" y2="183" stroke="black"></line> <line x1="259.4117647058823" x2="259.4117647058823" y1="20" y2="179" stroke="#e0e0e0" opacity="nil"></line> <text y="193" x="259.4117647058823" fill="black" font-size="12" text-anchor="middle" font-family="sans-serif"> 30</text> <line x1="274.70588235294116" x2="274.70588235294116" y1="179" y2="181" stroke="black"></line> <line x1="274.70588235294116" x2="274.70588235294116" y1="20" y2="179" stroke="#e0e0e0" opacity="nil"></line> <line x1="290.0" x2="290.0" y1="179" y2="181" stroke="black"></line> <line x1="290.0" x2="290.0" y1="20" y2="179" stroke="#e0e0e0" opacity="nil"></line> <line x1="30" x2="27" y1="179.0" y2="179.0" stroke="black"></line> <line x1="30" x2="290" y1="179.0" y2="179.0" opacity="nil" stroke="#e0e0e0"></line> <text y="183.0" x="24" fill="black" font-size="12" text-anchor="end" font-family="sans-serif"> 40</text> <line x1="30" x2="27" y1="168.107625429461" y2="168.107625429461" stroke="black"></line> <line x1="30" x2="290" y1="168.107625429461" y2="168.107625429461" opacity="nil" stroke="#e0e0e0"></line> <text y="172.107625429461" x="24" fill="black" font-size="12" text-anchor="end" font-family="sans-serif"> 42</text> <line x1="30" x2="27" y1="157.21525085892196" y2="157.21525085892196" stroke="black"></line> <line x1="30" x2="290" y1="157.21525085892196" y2="157.21525085892196" opacity="nil" stroke="#e0e0e0"></line> <text y="161.21525085892196" x="24" fill="black" font-size="12" text-anchor="end" font-family="sans-serif"> 44</text> <line x1="30" x2="27" y1="146.32287628838296" y2="146.32287628838296" stroke="black"></line> <line x1="30" x2="290" y1="146.32287628838296" y2="146.32287628838296" opacity="nil" stroke="#e0e0e0"></line> <text y="150.32287628838296" x="24" fill="black" font-size="12" text-anchor="end" font-family="sans-serif"> 46</text> <line x1="30" x2="27" y1="135.43050171784392" y2="135.43050171784392" stroke="black"></line> <line x1="30" x2="290" y1="135.43050171784392" y2="135.43050171784392" opacity="nil" stroke="#e0e0e0"></line> <text y="139.43050171784392" x="24" fill="black" font-size="12" text-anchor="end" font-family="sans-serif"> 48</text> <line x1="30" x2="27" y1="124.53812714730492" y2="124.53812714730492" stroke="black"></line> <line x1="30" x2="290" y1="124.53812714730492" y2="124.53812714730492" opacity="nil" stroke="#e0e0e0"></line> <text y="128.53812714730492" x="24" fill="black" font-size="12" text-anchor="end" font-family="sans-serif"> 50</text> <line x1="30" x2="27" y1="113.6457525767659" y2="113.6457525767659" stroke="black"></line> <line x1="30" x2="290" y1="113.6457525767659" y2="113.6457525767659" opacity="nil" stroke="#e0e0e0"></line> <text y="117.6457525767659" x="24" fill="black" font-size="12" text-anchor="end" font-family="sans-serif"> 52</text> <line x1="30" x2="27" y1="102.7533780062269" y2="102.7533780062269" stroke="black"></line> <line x1="30" x2="290" y1="102.7533780062269" y2="102.7533780062269" opacity="nil" stroke="#e0e0e0"></line> <text y="106.7533780062269" x="24" fill="black" font-size="12" text-anchor="end" font-family="sans-serif"> 54</text> <line x1="30" x2="27" y1="91.86100343568788" y2="91.86100343568788" stroke="black"></line> <line x1="30" x2="290" y1="91.86100343568788" y2="91.86100343568788" opacity="nil" stroke="#e0e0e0"></line> <text y="95.86100343568788" x="24" fill="black" font-size="12" text-anchor="end" font-family="sans-serif"> 56</text> <line x1="30" x2="27" y1="80.96862886514887" y2="80.96862886514887" stroke="black"></line> <line x1="30" x2="290" y1="80.96862886514887" y2="80.96862886514887" opacity="nil" stroke="#e0e0e0"></line> <text y="84.96862886514887" x="24" fill="black" font-size="12" text-anchor="end" font-family="sans-serif"> 58</text> <line x1="30" x2="27" y1="70.07625429460984" y2="70.07625429460984" stroke="black"></line> <line x1="30" x2="290" y1="70.07625429460984" y2="70.07625429460984" opacity="nil" stroke="#e0e0e0"></line> <text y="74.07625429460984" x="24" fill="black" font-size="12" text-anchor="end" font-family="sans-serif"> 60</text> <line x1="30" x2="27" y1="59.183879724070835" y2="59.183879724070835" stroke="black"></line> <line x1="30" x2="290" y1="59.183879724070835" y2="59.183879724070835" opacity="nil" stroke="#e0e0e0"></line> <text y="63.183879724070835" x="24" fill="black" font-size="12" text-anchor="end" font-family="sans-serif"> 62</text> <line x1="30" x2="27" y1="48.2915051535318" y2="48.2915051535318" stroke="black"></line> <line x1="30" x2="290" y1="48.2915051535318" y2="48.2915051535318" opacity="nil" stroke="#e0e0e0"></line> <text y="52.2915051535318" x="24" fill="black" font-size="12" text-anchor="end" font-family="sans-serif"> 64</text> <line x1="30" x2="27" y1="37.3991305829928" y2="37.3991305829928" stroke="black"></line> <line x1="30" x2="290" y1="37.3991305829928" y2="37.3991305829928" opacity="nil" stroke="#e0e0e0"></line> <text y="41.3991305829928" x="24" fill="black" font-size="12" text-anchor="end" font-family="sans-serif"> 66</text> <line x1="30" x2="27" y1="26.506756012453792" y2="26.506756012453792" stroke="black"></line> <line x1="30" x2="290" y1="26.506756012453792" y2="26.506756012453792" opacity="nil" stroke="#e0e0e0"></line> <text y="30.506756012453792" x="24" fill="black" font-size="12" text-anchor="end" font-family="sans-serif"> 68</text> <line x1="30" x2="30" y1="20" y2="184" stroke="black"></line> <line x1="25" x2="290" y1="179" y2="179" stroke="black"></line> <clipPath id="clip-0"> <rect x="30" y="20" width="260" height="159"></rect></clipPath> <line x1="30" x2="30" y1="83.41183749700632" y2="179" stroke="blue" clip-path="url(#clip-0)"></line> <line x1="37.64705882352941" x2="37.64705882352941" y1="70.72946999760508" y2="179" stroke="blue" clip-path="url(#clip-0)"></line> <line x1="45.294117647058826" x2="45.294117647058826" y1="70.72946999760508" y2="179" stroke="blue" clip-path="url(#clip-0)"></line> <line x1="52.94117647058823" x2="52.94117647058823" y1="72.54123678323383" y2="179" stroke="blue" clip-path="url(#clip-0)"></line> <line x1="60.588235294117645" x2="60.588235294117645" y1="70.72946999760508" y2="179" stroke="blue" clip-path="url(#clip-0)"></line> <line x1="68.23529411764706" x2="68.23529411764706" y1="72.54123678323383" y2="179" stroke="blue" clip-path="url(#clip-0)"></line> <line x1="75.88235294117646" x2="75.88235294117646" y1="75.25888696167695" y2="179" stroke="blue" clip-path="url(#clip-0)"></line> <line x1="83.52941176470588" x2="83.52941176470588" y1="76.16477035449134" y2="179" stroke="blue" clip-path="url(#clip-0)"></line> <line x1="91.17647058823529" x2="91.17647058823529" y1="76.16477035449134" y2="179" stroke="blue" clip-path="url(#clip-0)"></line> <line x1="98.82352941176471" x2="98.82352941176471" y1="76.16477035449134" y2="179" stroke="blue" clip-path="url(#clip-0)"></line> <line x1="106.47058823529412" x2="106.47058823529412" y1="67.10593642634757" y2="179" stroke="blue" clip-path="url(#clip-0)"></line> <line x1="114.11764705882354" x2="114.11764705882354" y1="50.800035355688806" y2="179" stroke="blue" clip-path="url(#clip-0)"></line> <line x1="121.76470588235294" x2="121.76470588235294" y1="50.800035355688806" y2="179" stroke="blue" clip-path="url(#clip-0)"></line> <line x1="129.41176470588235" x2="129.41176470588235" y1="48.98826857006006" y2="179" stroke="blue" clip-path="url(#clip-0)"></line> <line x1="137.05882352941177" x2="137.05882352941177" y1="50.800035355688806" y2="179" stroke="blue" clip-path="url(#clip-0)"></line> <line x1="144.70588235294116" x2="144.70588235294116" y1="39.929434641916316" y2="179" stroke="blue" clip-path="url(#clip-0)"></line> <line x1="152.35294117647058" x2="152.35294117647058" y1="43.55296821317381" y2="179" stroke="blue" clip-path="url(#clip-0)"></line> <line x1="160.0" x2="160.0" y1="48.98826857006006" y2="179" stroke="blue" clip-path="url(#clip-0)"></line> <line x1="167.64705882352942" x2="167.64705882352942" y1="48.98826857006006" y2="179" stroke="blue" clip-path="url(#clip-0)"></line> <line x1="175.29411764705884" x2="175.29411764705884" y1="27.24706714251502" y2="179" stroke="blue" clip-path="url(#clip-0)"></line> <line x1="182.94117647058823" x2="182.94117647058823" y1="34.49413428503004" y2="179" stroke="blue" clip-path="url(#clip-0)"></line> <line x1="190.58823529411765" x2="190.58823529411765" y1="25.435300356886273" y2="179" stroke="blue" clip-path="url(#clip-0)"></line> <line x1="198.23529411764707" x2="198.23529411764707" y1="20.0" y2="179" stroke="blue" clip-path="url(#clip-0)"></line> <line x1="205.8823529411765" x2="205.8823529411765" y1="28.690677113846846" y2="179" stroke="blue" clip-path="url(#clip-0)"></line> <line x1="213.52941176470588" x2="213.52941176470588" y1="31.952943297723294" y2="179" stroke="blue" clip-path="url(#clip-0)"></line> <line x1="221.1764705882353" x2="221.1764705882353" y1="23.78366236981904" y2="179" stroke="blue" clip-path="url(#clip-0)"></line> <line x1="228.8235294117647" x2="228.8235294117647" y1="21.06056872718426" y2="179" stroke="blue" clip-path="url(#clip-0)"></line> <line x1="236.47058823529412" x2="236.47058823529412" y1="31.952943297723294" y2="179" stroke="blue" clip-path="url(#clip-0)"></line> <line x1="244.1176470588235" x2="244.1176470588235" y1="23.78366236981904" y2="179" stroke="blue" clip-path="url(#clip-0)"></line> <line x1="251.76470588235293" x2="251.76470588235293" y1="48.2915051535318" y2="179" stroke="blue" clip-path="url(#clip-0)"></line> <line x1="259.4117647058823" x2="259.4117647058823" y1="80.96862886514887" y2="179" stroke="blue" clip-path="url(#clip-0)"></line> <line x1="267.05882352941177" x2="267.05882352941177" y1="53.73769243880132" y2="179" stroke="blue" clip-path="url(#clip-0)"></line> <line x1="274.70588235294116" x2="274.70588235294116" y1="70.07625429460984" y2="179" stroke="blue" clip-path="url(#clip-0)"></line> <line x1="282.3529411764706" x2="282.3529411764706" y1="53.73769243880132" y2="179" stroke="blue" clip-path="url(#clip-0)"></line> <line x1="290" x2="290" y1="70.07625429460984" y2="179" stroke="blue" clip-path="url(#clip-0)"></line> <clipPath id="clip-1"> <rect x="30" y="20" width="260" height="159"></rect></clipPath> <line x1="30" x2="37.64705882352941" y1="173.5538127147305" y2="167.56300670093404" stroke="black" clip-path="url(#clip-1)"></line> <line x1="37.64705882352941" x2="45.294117647058826" y1="167.56300670093404" y2="167.56300670093404" stroke="black" clip-path="url(#clip-1)"></line> <line x1="45.294117647058826" x2="52.94117647058823" y1="167.56300670093404" y2="156.670632130395" stroke="black" clip-path="url(#clip-1)"></line> <line x1="52.94117647058823" x2="60.588235294117645" y1="156.670632130395" y2="159.39372577302976" stroke="black" clip-path="url(#clip-1)"></line> <line x1="60.588235294117645" x2="68.23529411764706" y1="159.39372577302976" y2="159.39372577302976" stroke="black" clip-path="url(#clip-1)"></line> <line x1="68.23529411764706" x2="75.88235294117646" y1="159.39372577302976" y2="163.20605687271842" stroke="black" clip-path="url(#clip-1)"></line> <line x1="75.88235294117646" x2="83.52941176470588" y1="163.20605687271842" y2="162.66143814419146" stroke="black" clip-path="url(#clip-1)"></line> <line x1="83.52941176470588" x2="91.17647058823529" y1="162.66143814419146" y2="161.57220068713755" stroke="black" clip-path="url(#clip-1)"></line> <line x1="91.17647058823529" x2="98.82352941176471" y1="161.57220068713755" y2="155.03677594481417" stroke="black" clip-path="url(#clip-1)"></line> <line x1="98.82352941176471" x2="106.47058823529412" y1="155.03677594481417" y2="154.4921572162872" stroke="black" clip-path="url(#clip-1)"></line> <line x1="106.47058823529412" x2="114.11764705882354" y1="154.4921572162872" y2="149.59058865954466" stroke="black" clip-path="url(#clip-1)"></line> <line x1="114.11764705882354" x2="121.76470588235294" y1="149.59058865954466" y2="146.8674950169099" stroke="black" clip-path="url(#clip-1)"></line> <line x1="121.76470588235294" x2="129.41176470588235" y1="146.8674950169099" y2="113.6457525767659" stroke="black" clip-path="url(#clip-1)"></line> <line x1="129.41176470588235" x2="137.05882352941177" y1="113.6457525767659" y2="108.1995652914964" stroke="black" clip-path="url(#clip-1)"></line> <line x1="137.05882352941177" x2="144.70588235294116" y1="108.1995652914964" y2="110.92265893413115" stroke="black" clip-path="url(#clip-1)"></line> <line x1="144.70588235294116" x2="152.35294117647058" y1="110.92265893413115" y2="119.09193986203542" stroke="black" clip-path="url(#clip-1)"></line> <line x1="152.35294117647058" x2="160.0" y1="119.09193986203542" y2="124.53812714730492" stroke="black" clip-path="url(#clip-1)"></line> <line x1="160.0" x2="167.64705882352942" y1="124.53812714730492" y2="124.53812714730492" stroke="black" clip-path="url(#clip-1)"></line> <line x1="167.64705882352942" x2="175.29411764705884" y1="124.53812714730492" y2="124.53812714730492" stroke="black" clip-path="url(#clip-1)"></line> <line x1="175.29411764705884" x2="182.94117647058823" y1="124.53812714730492" y2="128.8950769755205" stroke="black" clip-path="url(#clip-1)"></line> <line x1="182.94117647058823" x2="190.58823529411765" y1="128.8950769755205" y2="126.71660206141271" stroke="black" clip-path="url(#clip-1)"></line> <line x1="190.58823529411765" x2="198.23529411764707" y1="126.71660206141271" y2="124.53812714730492" stroke="black" clip-path="url(#clip-1)"></line> <line x1="198.23529411764707" x2="205.8823529411765" y1="124.53812714730492" y2="129.98431443257442" stroke="black" clip-path="url(#clip-1)"></line> <line x1="205.8823529411765" x2="213.52941176470588" y1="129.98431443257442" y2="124.53812714730492" stroke="black" clip-path="url(#clip-1)"></line> <line x1="213.52941176470588" x2="221.1764705882353" y1="124.53812714730492" y2="129.98431443257442" stroke="black" clip-path="url(#clip-1)"></line> <line x1="221.1764705882353" x2="228.8235294117647" y1="129.98431443257442" y2="132.70740807520917" stroke="black" clip-path="url(#clip-1)"></line> <line x1="228.8235294117647" x2="236.47058823529412" y1="132.70740807520917" y2="125.62736460435883" stroke="black" clip-path="url(#clip-1)"></line> <line x1="236.47058823529412" x2="244.1176470588235" y1="125.62736460435883" y2="135.43050171784392" stroke="black" clip-path="url(#clip-1)"></line> <line x1="244.1176470588235" x2="251.76470588235293" y1="135.43050171784392" y2="136.51973917489784" stroke="black" clip-path="url(#clip-1)"></line> <line x1="251.76470588235293" x2="259.4117647058823" y1="136.51973917489784" y2="137.06435790342476" stroke="black" clip-path="url(#clip-1)"></line> <line x1="259.4117647058823" x2="267.05882352941177" y1="137.06435790342476" y2="140.87668900311346" stroke="black" clip-path="url(#clip-1)"></line> <line x1="267.05882352941177" x2="274.70588235294116" y1="140.87668900311346" y2="144.68902010280212" stroke="black" clip-path="url(#clip-1)"></line> <line x1="274.70588235294116" x2="282.3529411764706" y1="144.68902010280212" y2="142.5105451886943" stroke="black" clip-path="url(#clip-1)"></line> <line x1="282.3529411764706" x2="290" y1="142.5105451886943" y2="136.51973917489784" stroke="black" clip-path="url(#clip-1)"></line></svg>