<svg width="300" height="200" version="1.1" xmlns="http://www.w3.org/2000/svg" xmlns:xlink="http://www.w3.org/1999/xlink"> <defs> <linearGradient id="gradient-grad08Nzxp" x1="0" x2="1" y1="0" y2="0"> <stop offset="0%" stop-color="blue"></stop> <stop offset="100%" stop-color="black"></stop></linearGradient> <linearGradient id="gradient-0" x1="0" x2="0" y1="0" y2="1"> <stop offset="0%" stop-color="red"></stop> <stop offset="100%" stop-color="black"></stop></linearGradient></defs> <rect width="300" height="200" x="0" y="0" x1="0" x2="0" y1="0" y2="1" fill="url(#gradient-grad08Nzxp)"></rect> <line x1="30.0" x2="30.0" y1="179" y2="183" stroke="white"></line> <line x1="30.0" x2="30.0" y1="20" y2="179" stroke="#444" opacity="nil"></line> <text y="193" x="30.0" fill="white" font-size="12" text-anchor="middle" font-family="sans-serif"> 0</text> <line x1="45.294117647058826" x2="45.294117647058826" y1="179" y2="181" stroke="white"></line> <line x1="45.294117647058826" x2="45.294117647058826" y1="20" y2="179" stroke="#444" opacity="nil"></line> <line x1="60.588235294117645" x2="60.588235294117645" y1="179" y2="181" stroke="white"></line> <line x1="60.588235294117645" x2="60.588235294117645" y1="20" y2="179" stroke="#444" opacity="nil"></line> <line x1="75.88235294117646" x2="75.88235294117646" y1="179" y2="181" stroke="white"></line> <line x1="75.88235294117646" x2="75.88235294117646" y1="20" y2="179" stroke="#444" opacity="nil"></line> <line x1="91.17647058823529" x2="91.17647058823529" y1="179" y2="181" stroke="white"></line> <line x1="91.17647058823529" x2="91.17647058823529" y1="20" y2="179" stroke="#444" opacity="nil"></line> <line x1="106.47058823529412" x2="106.47058823529412" y1="179" y2="183" stroke="white"></line> <line x1="106.47058823529412" x2="106.47058823529412" y1="20" y2="179" stroke="#444" opacity="nil"></line> <text y="193" x="106.47058823529412" fill="white" font-size="12" text-anchor="middle" font-family="sans-serif"> 10</text> <line x1="121.76470588235294" x2="121.76470588235294" y1="179" y2="181" stroke="white"></line> <line x1="121.76470588235294" x2="121.76470588235294" y1="20" y2="179" stroke="#444" opacity="nil"></line> <line x1="137.05882352941177" x2="137.05882352941177" y1="179" y2="181" stroke="white"></line> <line x1="137.05882352941177" x2="137.05882352941177" y1="20" y2="179" stroke="#444" opacity="nil"></line> <line x1="152.35294117647058" x2="152.35294117647058" y1="179" y2="181" stroke="white"></line> <line x1="152.35294117647058" x2="152.35294117647058" y1="20" y2="179" stroke="#444" opacity="nil"></line> <line x1="167.64705882352942" x2="167.64705882352942" y1="179" y2="181" stroke="white"></line> <line x1="167.64705882352942" x2="167.64705882352942" y1="20" y2="179" stroke="#444" opacity="nil"></line> <line x1="182.94117647058823" x2="182.94117647058823" y1="179" y2="183" stroke="white"></line> <line x1="182.94117647058823" x2="182.94117647058823" y1="20" y2="179" stroke="#444" opacity="nil"></line> <text y="193" x="182.94117647058823" fill="white" font-size="12" text-anchor="middle" font-family="sans-serif"> 20</text> <line x1="198.23529411764707" x2="198.23529411764707" y1="179" y2="181" stroke="white"></line> <line x1="198.23529411764707" x2="198.23529411764707" y1="20" y2="179" stroke="#444" opacity="nil"></line> <line x1="213.52941176470588" x2="213.52941176470588" y1="179" y2="181" stroke="white"></line> <line x1="213.52941176470588" x2="213.52941176470588" y1="20" y2="179" stroke="#444" opacity="nil"></line> <line x1="228.8235294117647" x2="228.8235294117647" y1="179" y2="181" stroke="white"></line> <line x1="228.8235294117647" x2="228.8235294117647" y1="20" y2="179" stroke="#444" opacity="nil"></line> <line x1="244.1176470588235" x2="244.1176470588235" y1="179" y2="181" stroke="white"></line> <line x1="244.1176470588235" x2="244.1176470588235" y1="20" y2="179" stroke="#444" opacity="nil"></line> <line x1="259.4117647058823" x2="259.4117647058823" y1="179" y2="183" stroke="white"></line> <line x1="259.4117647058823" x2="259.4117647058823" y1="20" y2="179" stroke="#444" opacity="nil"></line> <text y="193" x="259.4117647058823" fill="white" font-size="12" text-anchor="middle" font-family="sans-serif"> 30</text> <line x1="274.70588235294116" x2="274.70588235294116" y1="179" y2="181" stroke="white"></line> <line x1="274.70588235294116" x2="274.70588235294116" y1="20" y2="179" stroke="#444" opacity="nil"></line> <line x1="290.0" x2="290.0" y1="179" y2="181" stroke="white"></line> <line x1="290.0" x2="290.0" y1="20" y2="179" stroke="#444" opacity="nil"></line> <line x1="30" x2="27" y1="179.0" y2="179.0" stroke="white"></line> <line x1="30" x2="290" y1="179.0" y2="179.0" opacity="nil" stroke="#444"></line> <text y="183.0" x="24" fill="white" font-size="12" text-anchor="end" font-family="sans-serif"> 40</text> <line x1="30" x2="27" y1="163.1" y2="163.1" stroke="white"></line> <line x1="30" x2="290" y1="163.1" y2="163.1" opacity="nil" stroke="#444"></line> <text y="167.1" x="24" fill="white" font-size="12" text-anchor="end" font-family="sans-serif"> 42</text> <line x1="30" x2="27" y1="147.2" y2="147.2" stroke="white"></line> <line x1="30" x2="290" y1="147.2" y2="147.2" opacity="nil" stroke="#444"></line> <text y="151.2" x="24" fill="white" font-size="12" text-anchor="end" font-family="sans-serif"> 44</text> <line x1="30" x2="27" y1="131.3" y2="131.3" stroke="white"></line> <line x1="30" x2="290" y1="131.3" y2="131.3" opacity="nil" stroke="#444"></line> <text y="135.3" x="24" fill="white" font-size="12" text-anchor="end" font-family="sans-serif"> 46</text> <line x1="30" x2="27" y1="115.4" y2="115.4" stroke="white"></line> <line x1="30" x2="290" y1="115.4" y2="115.4" opacity="nil" stroke="#444"></line> <text y="119.4" x="24" fill="white" font-size="12" text-anchor="end" font-family="sans-serif"> 48</text> <line x1="30" x2="27" y1="99.5" y2="99.5" stroke="white"></line> <line x1="30" x2="290" y1="99.5" y2="99.5" opacity="nil" stroke="#444"></line> <text y="103.5" x="24" fill="white" font-size="12" text-anchor="end" font-family="sans-serif"> 50</text> <line x1="30" x2="27" y1="83.60000000000001" y2="83.60000000000001" stroke="white"></line> <line x1="30" x2="290" y1="83.60000000000001" y2="83.60000000000001" opacity="nil" stroke="#444"></line> <text y="87.60000000000001" x="24" fill="white" font-size="12" text-anchor="end" font-family="sans-serif"> 52</text> <line x1="30" x2="27" y1="67.7" y2="67.7" stroke="white"></line> <line x1="30" x2="290" y1="67.7" y2="67.7" opacity="nil" stroke="#444"></line> <text y="71.7" x="24" fill="white" font-size="12" text-anchor="end" font-family="sans-serif"> 54</text> <line x1="30" x2="27" y1="51.8" y2="51.8" stroke="white"></line> <line x1="30" x2="290" y1="51.8" y2="51.8" opacity="nil" stroke="#444"></line> <text y="55.8" x="24" fill="white" font-size="12" text-anchor="end" font-family="sans-serif"> 56</text> <line x1="30" x2="27" y1="35.900000000000006" y2="35.900000000000006" stroke="white"></line> <line x1="30" x2="290" y1="35.900000000000006" y2="35.900000000000006" opacity="nil" stroke="#444"></line> <text y="39.900000000000006" x="24" fill="white" font-size="12" text-anchor="end" font-family="sans-serif"> 58</text> <line x1="30" x2="27" y1="20.0" y2="20.0" stroke="white"></line> <line x1="30" x2="290" y1="20.0" y2="20.0" opacity="nil" stroke="#444"></line> <text y="24.0" x="24" fill="white" font-size="12" text-anchor="end" font-family="sans-serif"> 60</text> <line x1="30" x2="30" y1="20" y2="184" stroke="white"></line> <line x1="25" x2="290" y1="179" y2="179" stroke="white"></line> <clipPath id="clip-0"> <rect x="30" y="20" width="260" height="159"></rect></clipPath> <polygon points="30 179, 30 171.05, 37.64705882352941 162.30499999999998, 45.294117647058826 162.30499999999998, 52.94117647058823 146.40499999999997, 60.588235294117645 150.38, 68.23529411764706 150.38, 75.88235294117646 155.94500000000002, 83.52941176470588 155.15, 91.17647058823529 153.55999999999997, 98.82352941176471 144.02, 106.47058823529412 143.225, 114.11764705882354 136.07000000000002, 121.76470588235294 132.09500000000003, 129.41176470588235 83.60000000000001, 137.05882352941177 75.64999999999999, 144.70588235294116 79.625, 152.35294117647058 91.55, 160.0 99.5, 167.64705882352942 99.5, 175.29411764705884 99.5, 182.94117647058823 105.85999999999999, 190.58823529411765 102.67999999999998, 198.23529411764707 99.5, 205.8823529411765 107.45, 213.52941176470588 99.5, 221.1764705882353 107.45, 228.8235294117647 111.425, 236.47058823529412 101.09000000000002, 244.1176470588235 115.4, 251.76470588235293 116.99000000000002, 259.4117647058823 117.78499999999998, 267.05882352941177 123.35, 274.70588235294116 128.91500000000002, 282.3529411764706 125.73499999999999, 290 116.99000000000002, 290 179"></polygon></svg>