<svg width="300" height="200" version="1.1" xmlns="http://www.w3.org/2000/svg" xmlns:xlink="http://www.w3.org/1999/xlink"> <rect width="300" height="200" x="0" y="0" fill="white"></rect> <line x1="30.0" x2="30.0" y1="179" y2="183" stroke="black"></line> <line x1="30.0" x2="30.0" y1="20" y2="179" stroke="#e0e0e0" opacity="1"></line> <text y="193" x="30.0" fill="black" font-weight="normal" font-size="12" text-anchor="middle" font-family="sans-serif"> 0</text> <line x1="45.294117647058826" x2="45.294117647058826" y1="179" y2="181" stroke="black"></line> <line x1="45.294117647058826" x2="45.294117647058826" y1="20" y2="179" stroke="#e0e0e0" opacity="1"></line> <line x1="60.588235294117645" x2="60.588235294117645" y1="179" y2="181" stroke="black"></line> <line x1="60.588235294117645" x2="60.588235294117645" y1="20" y2="179" stroke="#e0e0e0" opacity="1"></line> <line x1="75.88235294117646" x2="75.88235294117646" y1="179" y2="181" stroke="black"></line> <line x1="75.88235294117646" x2="75.88235294117646" y1="20" y2="179" stroke="#e0e0e0" opacity="1"></line> <line x1="91.17647058823529" x2="91.17647058823529" y1="179" y2="181" stroke="black"></line> <line x1="91.17647058823529" x2="91.17647058823529" y1="20" y2="179" stroke="#e0e0e0" opacity="1"></line> <line x1="106.47058823529412" x2="106.47058823529412" y1="179" y2="183" stroke="black"></line> <line x1="106.47058823529412" x2="106.47058823529412" y1="20" y2="179" stroke="#e0e0e0" opacity="1"></line> <text y="193" x="106.47058823529412" fill="black" font-weight="normal" font-size="12" text-anchor="middle" font-family="sans-serif"> 10</text> <line x1="121.76470588235294" x2="121.76470588235294" y1="179" y2="181" stroke="black"></line> <line x1="121.76470588235294" x2="121.76470588235294" y1="20" y2="179" stroke="#e0e0e0" opacity="1"></line> <line x1="137.05882352941177" x2="137.05882352941177" y1="179" y2="181" stroke="black"></line> <line x1="137.05882352941177" x2="137.05882352941177" y1="20" y2="179" stroke="#e0e0e0" opacity="1"></line> <line x1="152.35294117647058" x2="152.35294117647058" y1="179" y2="181" stroke="black"></line> <line x1="152.35294117647058" x2="152.35294117647058" y1="20" y2="179" stroke="#e0e0e0" opacity="1"></line> <line x1="167.64705882352942" x2="167.64705882352942" y1="179" y2="181" stroke="black"></line> <line x1="167.64705882352942" x2="167.64705882352942" y1="20" y2="179" stroke="#e0e0e0" opacity="1"></line> <line x1="182.94117647058823" x2="182.94117647058823" y1="179" y2="183" stroke="black"></line> <line x1="182.94117647058823" x2="182.94117647058823" y1="20" y2="179" stroke="#e0e0e0" opacity="1"></line> <text y="193" x="182.94117647058823" fill="black" font-weight="normal" font-size="12" text-anchor="middle" font-family="sans-serif"> 20</text> <line x1="198.23529411764707" x2="198.23529411764707" y1="179" y2="181" stroke="black"></line> <line x1="198.23529411764707" x2="198.23529411764707" y1="20" y2="179" stroke="#e0e0e0" opacity="1"></line> <line x1="213.52941176470588" x2="213.52941176470588" y1="179" y2="181" stroke="black"></line> <line x1="213.52941176470588" x2="213.52941176470588" y1="20" y2="179" stroke="#e0e0e0" opacity="1"></line> <line x1="228.8235294117647" x2="228.8235294117647" y1="179" y2="181" stroke="black"></line> <line x1="228.8235294117647" x2="228.8235294117647" y1="20" y2="179" stroke="#e0e0e0" opacity="1"></line> <line x1="244.1176470588235" x2="244.1176470588235" y1="179" y2="181" stroke="black"></line> <line x1="244.1176470588235" x2="244.1176470588235" y1="20" y2="179" stroke="#e0e0e0" opacity="1"></line> <line x1="259.4117647058823" x2="259.4117647058823" y1="179" y2="183" stroke="black"></line> <line x1="259.4117647058823" x2="259.4117647058823" y1="20" y2="179" stroke="#e0e0e0" opacity="1"></line> <text y="193" x="259.4117647058823" fill="black" font-weight="normal" font-size="12" text-anchor="middle" font-family="sans-serif"> 30</text> <line x1="274.70588235294116" x2="274.70588235294116" y1="179" y2="181" stroke="black"></line> <line x1="274.70588235294116" x2="274.70588235294116" y1="20" y2="179" stroke="#e0e0e0" opacity="1"></line> <line x1="290.0" x2="290.0" y1="179" y2="181" stroke="black"></line> <line x1="290.0" x2="290.0" y1="20" y2="179" stroke="#e0e0e0" opacity="1"></line> <line x1="30" x2="27" y1="168.4" y2="168.4" stroke="black"></line> <line x1="30" x2="290" y1="168.4" y2="168.4" opacity="1" stroke="#e0e0e0"></line> <text y="172.4" x="24" fill="black" font-size="12" text-anchor="end" font-family="sans-serif"> 58</text> <line x1="30" x2="27" y1="147.2" y2="147.2" stroke="black"></line> <line x1="30" x2="290" y1="147.2" y2="147.2" opacity="1" stroke="#e0e0e0"></line> <text y="151.2" x="24" fill="black" font-size="12" text-anchor="end" font-family="sans-serif"> 60</text> <line x1="30" x2="27" y1="126.0" y2="126.0" stroke="black"></line> <line x1="30" x2="290" y1="126.0" y2="126.0" opacity="1" stroke="#e0e0e0"></line> <text y="130.0" x="24" fill="black" font-size="12" text-anchor="end" font-family="sans-serif"> 62</text> <line x1="30" x2="27" y1="104.8" y2="104.8" stroke="black"></line> <line x1="30" x2="290" y1="104.8" y2="104.8" opacity="1" stroke="#e0e0e0"></line> <text y="108.8" x="24" fill="black" font-size="12" text-anchor="end" font-family="sans-serif"> 64</text> <line x1="30" x2="27" y1="83.60000000000001" y2="83.60000000000001" stroke="black"></line> <line x1="30" x2="290" y1="83.60000000000001" y2="83.60000000000001" opacity="1" stroke="#e0e0e0"></line> <text y="87.60000000000001" x="24" fill="black" font-size="12" text-anchor="end" font-family="sans-serif"> 66</text> <line x1="30" x2="27" y1="62.400000000000006" y2="62.400000000000006" stroke="black"></line> <line x1="30" x2="290" y1="62.400000000000006" y2="62.400000000000006" opacity="1" stroke="#e0e0e0"></line> <text y="66.4" x="24" fill="black" font-size="12" text-anchor="end" font-family="sans-serif"> 68</text> <line x1="30" x2="27" y1="41.19999999999999" y2="41.19999999999999" stroke="black"></line> <line x1="30" x2="290" y1="41.19999999999999" y2="41.19999999999999" opacity="1" stroke="#e0e0e0"></line> <text y="45.19999999999999" x="24" fill="black" font-size="12" text-anchor="end" font-family="sans-serif"> 70</text> <line x1="30" x2="27" y1="20.0" y2="20.0" stroke="black"></line> <line x1="30" x2="290" y1="20.0" y2="20.0" opacity="1" stroke="#e0e0e0"></line> <text y="24.0" x="24" fill="black" font-size="12" text-anchor="end" font-family="sans-serif"> 72</text> <line x1="30" x2="30" y1="20" y2="184" stroke="black"></line> <line x1="25" x2="290" y1="179" y2="179" stroke="black"></line> <clipPath id="clip-0"> <rect x="30" y="20" width="260" height="159"></rect></clipPath> <line x1="30" x2="37.64705882352941" y1="173.1552554" y2="148.471364" stroke="black" clip-path="url(#clip-0)" stroke-width="1"></line> <line x1="37.64705882352941" x2="45.294117647058826" y1="148.471364" y2="148.471364" stroke="black" clip-path="url(#clip-0)" stroke-width="1"></line> <line x1="45.294117647058826" x2="52.94117647058823" y1="148.471364" y2="151.9976342" stroke="black" clip-path="url(#clip-0)" stroke-width="1"></line> <line x1="52.94117647058823" x2="60.588235294117645" y1="151.9976342" y2="148.471364" stroke="black" clip-path="url(#clip-0)" stroke-width="1"></line> <line x1="60.588235294117645" x2="68.23529411764706" y1="148.471364" y2="151.9976342" stroke="black" clip-path="url(#clip-0)" stroke-width="1"></line> <line x1="68.23529411764706" x2="75.88235294117646" y1="151.9976342" y2="157.28703950000002" stroke="black" clip-path="url(#clip-0)" stroke-width="1"></line> <line x1="75.88235294117646" x2="83.52941176470588" y1="157.28703950000002" y2="159.05017460000002" stroke="black" clip-path="url(#clip-0)" stroke-width="1"></line> <line x1="83.52941176470588" x2="91.17647058823529" y1="159.05017460000002" y2="159.05017460000002" stroke="black" clip-path="url(#clip-0)" stroke-width="1"></line> <line x1="91.17647058823529" x2="98.82352941176471" y1="159.05017460000002" y2="159.05017460000002" stroke="black" clip-path="url(#clip-0)" stroke-width="1"></line> <line x1="98.82352941176471" x2="106.47058823529412" y1="159.05017460000002" y2="141.4188236" stroke="black" clip-path="url(#clip-0)" stroke-width="1"></line> <line x1="106.47058823529412" x2="114.11764705882354" y1="141.4188236" y2="109.68239179999999" stroke="black" clip-path="url(#clip-0)" stroke-width="1"></line> <line x1="114.11764705882354" x2="121.76470588235294" y1="109.68239179999999" y2="109.68239179999999" stroke="black" clip-path="url(#clip-0)" stroke-width="1"></line> <line x1="121.76470588235294" x2="129.41176470588235" y1="109.68239179999999" y2="106.15612159999999" stroke="black" clip-path="url(#clip-0)" stroke-width="1"></line> <line x1="129.41176470588235" x2="137.05882352941177" y1="106.15612159999999" y2="109.68239179999999" stroke="black" clip-path="url(#clip-0)" stroke-width="1"></line> <line x1="137.05882352941177" x2="144.70588235294116" y1="109.68239179999999" y2="88.52477060000002" stroke="black" clip-path="url(#clip-0)" stroke-width="1"></line> <line x1="144.70588235294116" x2="152.35294117647058" y1="88.52477060000002" y2="95.57731100000004" stroke="black" clip-path="url(#clip-0)" stroke-width="1"></line> <line x1="152.35294117647058" x2="160.0" y1="95.57731100000004" y2="106.15612159999999" stroke="black" clip-path="url(#clip-0)" stroke-width="1"></line> <line x1="160.0" x2="167.64705882352942" y1="106.15612159999999" y2="106.15612159999999" stroke="black" clip-path="url(#clip-0)" stroke-width="1"></line> <line x1="167.64705882352942" x2="175.29411764705884" y1="106.15612159999999" y2="63.84087919999996" stroke="black" clip-path="url(#clip-0)" stroke-width="1"></line> <line x1="175.29411764705884" x2="182.94117647058823" y1="63.84087919999996" y2="77.94596" stroke="black" clip-path="url(#clip-0)" stroke-width="1"></line> <line x1="182.94117647058823" x2="190.58823529411765" y1="77.94596" y2="60.31460899999996" stroke="black" clip-path="url(#clip-0)" stroke-width="1"></line> <line x1="190.58823529411765" x2="198.23529411764707" y1="60.31460899999996" y2="49.735798399999936" stroke="black" clip-path="url(#clip-0)" stroke-width="1"></line> <line x1="198.23529411764707" x2="205.8823529411765" y1="49.735798399999936" y2="66.65059999999997" stroke="black" clip-path="url(#clip-0)" stroke-width="1"></line> <line x1="205.8823529411765" x2="213.52941176470588" y1="66.65059999999997" y2="73.0" stroke="black" clip-path="url(#clip-0)" stroke-width="1"></line> <line x1="213.52941176470588" x2="221.1764705882353" y1="73.0" y2="57.099999999999994" stroke="black" clip-path="url(#clip-0)" stroke-width="1"></line> <line x1="221.1764705882353" x2="228.8235294117647" y1="57.099999999999994" y2="51.8" stroke="black" clip-path="url(#clip-0)" stroke-width="1"></line> <line x1="228.8235294117647" x2="236.47058823529412" y1="51.8" y2="73.0" stroke="black" clip-path="url(#clip-0)" stroke-width="1"></line> <line x1="236.47058823529412" x2="244.1176470588235" y1="73.0" y2="57.099999999999994" stroke="black" clip-path="url(#clip-0)" stroke-width="1"></line> <line x1="244.1176470588235" x2="251.76470588235293" y1="57.099999999999994" y2="104.8" stroke="black" clip-path="url(#clip-0)" stroke-width="1"></line> <line x1="251.76470588235293" x2="259.4117647058823" y1="104.8" y2="168.4" stroke="black" clip-path="url(#clip-0)" stroke-width="1"></line> <line x1="259.4117647058823" x2="267.05882352941177" y1="168.4" y2="115.4" stroke="black" clip-path="url(#clip-0)" stroke-width="1"></line> <line x1="267.05882352941177" x2="274.70588235294116" y1="115.4" y2="147.2" stroke="black" clip-path="url(#clip-0)" stroke-width="1"></line> <line x1="274.70588235294116" x2="282.3529411764706" y1="147.2" y2="115.4" stroke="black" clip-path="url(#clip-0)" stroke-width="1"></line> <line x1="282.3529411764706" x2="290" y1="115.4" y2="147.2" stroke="black" clip-path="url(#clip-0)" stroke-width="1"></line></svg>