<svg width="300" height="200" version="1.1" xmlns="http://www.w3.org/2000/svg" xmlns:xlink="http://www.w3.org/1999/xlink"> <rect width="300" height="200" x="0" y="0" fill="white"></rect> <line x1="30.0" x2="30.0" y1="179" y2="183" stroke="black"></line> <line x1="30.0" x2="30.0" y1="20" y2="179" stroke="#e0e0e0" opacity="nil"></line> <text y="193" x="30.0" fill="black" font-size="12" text-anchor="middle" font-family="sans-serif"> 0</text> <line x1="45.294117647058826" x2="45.294117647058826" y1="179" y2="181" stroke="black"></line> <line x1="45.294117647058826" x2="45.294117647058826" y1="20" y2="179" stroke="#e0e0e0" opacity="nil"></line> <line x1="60.588235294117645" x2="60.588235294117645" y1="179" y2="181" stroke="black"></line> <line x1="60.588235294117645" x2="60.588235294117645" y1="20" y2="179" stroke="#e0e0e0" opacity="nil"></line> <line x1="75.88235294117646" x2="75.88235294117646" y1="179" y2="181" stroke="black"></line> <line x1="75.88235294117646" x2="75.88235294117646" y1="20" y2="179" stroke="#e0e0e0" opacity="nil"></line> <line x1="91.17647058823529" x2="91.17647058823529" y1="179" y2="181" stroke="black"></line> <line x1="91.17647058823529" x2="91.17647058823529" y1="20" y2="179" stroke="#e0e0e0" opacity="nil"></line> <line x1="106.47058823529412" x2="106.47058823529412" y1="179" y2="183" stroke="black"></line> <line x1="106.47058823529412" x2="106.47058823529412" y1="20" y2="179" stroke="#e0e0e0" opacity="nil"></line> <text y="193" x="106.47058823529412" fill="black" font-size="12" text-anchor="middle" font-family="sans-serif"> 10</text> <line x1="121.76470588235294" x2="121.76470588235294" y1="179" y2="181" stroke="black"></line> <line x1="121.76470588235294" x2="121.76470588235294" y1="20" y2="179" stroke="#e0e0e0" opacity="nil"></line> <line x1="137.05882352941177" x2="137.05882352941177" y1="179" y2="181" stroke="black"></line> <line x1="137.05882352941177" x2="137.05882352941177" y1="20" y2="179" stroke="#e0e0e0" opacity="nil"></line> <line x1="152.35294117647058" x2="152.35294117647058" y1="179" y2="181" stroke="black"></line> <line x1="152.35294117647058" x2="152.35294117647058" y1="20" y2="179" stroke="#e0e0e0" opacity="nil"></line> <line x1="167.64705882352942" x2="167.64705882352942" y1="179" y2="181" stroke="black"></line> <line x1="167.64705882352942" x2="167.64705882352942" y1="20" y2="179" stroke="#e0e0e0" opacity="nil"></line> <line x1="182.94117647058823" x2="182.94117647058823" y1="179" y2="183" stroke="black"></line> <line x1="182.94117647058823" x2="182.94117647058823" y1="20" y2="179" stroke="#e0e0e0" opacity="nil"></line> <text y="193" x="182.94117647058823" fill="black" font-size="12" text-anchor="middle" font-family="sans-serif"> 20</text> <line x1="198.23529411764707" x2="198.23529411764707" y1="179" y2="181" stroke="black"></line> <line x1="198.23529411764707" x2="198.23529411764707" y1="20" y2="179" stroke="#e0e0e0" opacity="nil"></line> <line x1="213.52941176470588" x2="213.52941176470588" y1="179" y2="181" stroke="black"></line> <line x1="213.52941176470588" x2="213.52941176470588" y1="20" y2="179" stroke="#e0e0e0" opacity="nil"></line> <line x1="228.8235294117647" x2="228.8235294117647" y1="179" y2="181" stroke="black"></line> <line x1="228.8235294117647" x2="228.8235294117647" y1="20" y2="179" stroke="#e0e0e0" opacity="nil"></line> <line x1="244.1176470588235" x2="244.1176470588235" y1="179" y2="181" stroke="black"></line> <line x1="244.1176470588235" x2="244.1176470588235" y1="20" y2="179" stroke="#e0e0e0" opacity="nil"></line> <line x1="259.4117647058823" x2="259.4117647058823" y1="179" y2="183" stroke="black"></line> <line x1="259.4117647058823" x2="259.4117647058823" y1="20" y2="179" stroke="#e0e0e0" opacity="nil"></line> <text y="193" x="259.4117647058823" fill="black" font-size="12" text-anchor="middle" font-family="sans-serif"> 30</text> <line x1="274.70588235294116" x2="274.70588235294116" y1="179" y2="181" stroke="black"></line> <line x1="274.70588235294116" x2="274.70588235294116" y1="20" y2="179" stroke="#e0e0e0" opacity="nil"></line> <line x1="290.0" x2="290.0" y1="179" y2="181" stroke="black"></line> <line x1="290.0" x2="290.0" y1="20" y2="179" stroke="#e0e0e0" opacity="nil"></line> <line x1="30" x2="27" y1="179.0" y2="179.0" stroke="black"></line> <line x1="30" x2="290" y1="179.0" y2="179.0" opacity="nil" stroke="#e0e0e0"></line> <line x1="30" x2="27" y1="166.76923076923077" y2="166.76923076923077" stroke="black"></line> <line x1="30" x2="290" y1="166.76923076923077" y2="166.76923076923077" opacity="nil" stroke="#e0e0e0"></line> <text y="170.76923076923077" x="24" fill="black" font-size="12" text-anchor="end" font-family="sans-serif"> 42</text> <line x1="30" x2="27" y1="154.53846153846155" y2="154.53846153846155" stroke="black"></line> <line x1="30" x2="290" y1="154.53846153846155" y2="154.53846153846155" opacity="nil" stroke="#e0e0e0"></line> <line x1="30" x2="27" y1="142.30769230769232" y2="142.30769230769232" stroke="black"></line> <line x1="30" x2="290" y1="142.30769230769232" y2="142.30769230769232" opacity="nil" stroke="#e0e0e0"></line> <text y="146.30769230769232" x="24" fill="black" font-size="12" text-anchor="end" font-family="sans-serif"> 44</text> <line x1="30" x2="27" y1="130.07692307692307" y2="130.07692307692307" stroke="black"></line> <line x1="30" x2="290" y1="130.07692307692307" y2="130.07692307692307" opacity="nil" stroke="#e0e0e0"></line> <line x1="30" x2="27" y1="117.84615384615384" y2="117.84615384615384" stroke="black"></line> <line x1="30" x2="290" y1="117.84615384615384" y2="117.84615384615384" opacity="nil" stroke="#e0e0e0"></line> <text y="121.84615384615384" x="24" fill="black" font-size="12" text-anchor="end" font-family="sans-serif"> 46</text> <line x1="30" x2="27" y1="105.61538461538461" y2="105.61538461538461" stroke="black"></line> <line x1="30" x2="290" y1="105.61538461538461" y2="105.61538461538461" opacity="nil" stroke="#e0e0e0"></line> <line x1="30" x2="27" y1="93.38461538461539" y2="93.38461538461539" stroke="black"></line> <line x1="30" x2="290" y1="93.38461538461539" y2="93.38461538461539" opacity="nil" stroke="#e0e0e0"></line> <text y="97.38461538461539" x="24" fill="black" font-size="12" text-anchor="end" font-family="sans-serif"> 48</text> <line x1="30" x2="27" y1="81.15384615384615" y2="81.15384615384615" stroke="black"></line> <line x1="30" x2="290" y1="81.15384615384615" y2="81.15384615384615" opacity="nil" stroke="#e0e0e0"></line> <line x1="30" x2="27" y1="68.92307692307692" y2="68.92307692307692" stroke="black"></line> <line x1="30" x2="290" y1="68.92307692307692" y2="68.92307692307692" opacity="nil" stroke="#e0e0e0"></line> <text y="72.92307692307692" x="24" fill="black" font-size="12" text-anchor="end" font-family="sans-serif"> 50</text> <line x1="30" x2="27" y1="56.69230769230768" y2="56.69230769230768" stroke="black"></line> <line x1="30" x2="290" y1="56.69230769230768" y2="56.69230769230768" opacity="nil" stroke="#e0e0e0"></line> <line x1="30" x2="27" y1="44.46153846153845" y2="44.46153846153845" stroke="black"></line> <line x1="30" x2="290" y1="44.46153846153845" y2="44.46153846153845" opacity="nil" stroke="#e0e0e0"></line> <text y="48.46153846153845" x="24" fill="black" font-size="12" text-anchor="end" font-family="sans-serif"> 52</text> <line x1="30" x2="27" y1="32.230769230769226" y2="32.230769230769226" stroke="black"></line> <line x1="30" x2="290" y1="32.230769230769226" y2="32.230769230769226" opacity="nil" stroke="#e0e0e0"></line> <line x1="30" x2="27" y1="20.0" y2="20.0" stroke="black"></line> <line x1="30" x2="290" y1="20.0" y2="20.0" opacity="nil" stroke="#e0e0e0"></line> <text y="24.0" x="24" fill="black" font-size="12" text-anchor="end" font-family="sans-serif"> 54</text> <line x1="30" x2="30" y1="20" y2="184" stroke="black"></line> <line x1="25" x2="290" y1="179" y2="179" stroke="black"></line> <clipPath id="clip-0"> <rect x="30" y="20" width="260" height="159"></rect></clipPath> <text y="26.230769230769226" x="137.05882352941177" fill="black" font-weight="normal" font-size="12" text-anchor="middle" font-family="sans-serif"> New Model</text> <line x1="134.05882352941177" x2="140.05882352941177" y1="29.230769230769226" y2="35.230769230769226" stroke="black" clip-path="url(#clip-0)"></line> <line x1="140.05882352941177" x2="134.05882352941177" y1="29.230769230769226" y2="35.230769230769226" stroke="black" clip-path="url(#clip-0)"></line> <path d="M 30 179.0 C 30.764705882352942 177.6546153846154 36.11764705882353 166.89153846153846 37.64705882352941 165.54615384615383 C 39.1764705882353 164.2007692307692 43.76470588235294 167.99230769230766 45.294117647058826 165.54615384615383 C 46.82352941176471 163.1 51.41176470588235 142.91923076923075 52.94117647058823 141.08461538461538 C 54.470588235294116 139.25 59.05882352941176 146.58846153846153 60.588235294117645 147.2 C 62.11764705882353 147.81153846153845 66.70588235294117 146.34384615384613 68.23529411764706 147.2 C 69.76470588235294 148.05615384615385 74.35294117647058 155.02769230769232 75.88235294117646 155.76153846153846 C 77.41176470588235 156.4953846153846 82.0 154.90538461538463 83.52941176470588 154.53846153846155 C 85.05882352941177 154.17153846153846 89.6470588235294 153.80461538461535 91.17647058823529 152.09230769230766 C 92.70588235294117 150.37999999999997 97.29411764705883 139.00538461538463 98.82352941176471 137.41538461538462 C 100.3529411764706 135.82538461538462 104.94117647058823 137.4153846153846 106.47058823529412 136.19230769230768 C 108.0 134.96923076923076 112.58823529411765 126.89692307692309 114.11764705882354 125.1846153846154 C 115.64705882352942 123.47230769230771 120.23529411764706 127.14153846153847 121.76470588235294 119.06923076923078 C 123.29411764705883 110.9969230769231 127.88235294117646 53.14538461538461 129.41176470588235 44.46153846153845 C 130.94117647058823 35.7776923076923 135.52941176470588 32.842307692307685 137.05882352941177 32.230769230769226 C 138.58823529411765 31.619230769230764 143.17647058823528 35.89999999999999 144.70588235294116 38.34615384615384 C 146.23529411764704 40.79230769230769 150.8235294117647 53.63461538461537 152.35294117647058 56.69230769230768 C 153.88235294117646 59.749999999999986 158.47058823529412 67.69999999999999 160.0 68.92307692307692 C 161.52941176470588 70.14615384615385 166.11764705882354 68.92307692307692 167.64705882352942 68.92307692307692 C 169.1764705882353 68.92307692307692 173.76470588235296 67.94461538461539 175.29411764705884 68.92307692307692 C 176.82352941176472 69.90153846153845 181.41176470588235 78.2184615384615 182.94117647058823 78.70769230769227 C 184.47058823529412 79.19692307692304 189.05882352941177 74.79384615384613 190.58823529411765 73.8153846153846 C 192.11764705882354 72.83692307692307 196.7058823529412 68.18923076923076 198.23529411764707 68.92307692307692 C 199.76470588235296 69.65692307692308 204.3529411764706 81.15384615384615 205.8823529411765 81.15384615384615 C 207.41176470588238 81.15384615384615 212.0 68.92307692307692 213.52941176470588 68.92307692307692 C 215.05882352941177 68.92307692307692 219.64705882352942 79.31923076923076 221.1764705882353 81.15384615384615 C 222.7058823529412 82.98846153846154 227.2941176470588 88.2476923076923 228.8235294117647 87.26923076923077 C 230.35294117647058 86.29076923076924 234.94117647058823 70.75769230769234 236.47058823529412 71.3692307692308 C 238.0 71.98076923076925 242.58823529411762 90.93846153846154 244.1176470588235 93.38461538461539 C 245.6470588235294 95.83076923076923 250.23529411764704 95.46384615384619 251.76470588235293 95.83076923076926 C 253.2941176470588 96.19769230769234 257.88235294117646 96.07538461538459 259.4117647058823 97.05384615384612 C 260.9411764705882 98.03230769230765 265.52941176470586 103.90307692307691 267.05882352941177 105.61538461538461 C 268.5882352941177 107.32769230769232 273.17647058823525 113.81000000000004 274.70588235294116 114.17692307692312 C 276.2352941176471 114.54384615384619 280.82352941176475 111.11923076923074 282.3529411764706 109.28461538461535 C 283.88235294117646 107.44999999999996 289.2352941176471 97.17615384615387 290 95.83076923076926" fill="none" stroke="black" clip-path="url(#clip-0)" stroke-width="1"></path></svg>