<svg width="300" height="200" version="1.1" xmlns="http://www.w3.org/2000/svg" xmlns:xlink="http://www.w3.org/1999/xlink"> <rect width="300" height="200" x="0" y="0" fill="white"></rect> <text y="190" x="165" fill="black" font-size="12" font-weight="bold" text-anchor="middle" font-family="sans-serif"> Day</text> <text transform="translate(10,90) rotate(-90)" fill="black" font-size="12" font-weight="bold" text-anchor="middle" font-family="sans-serif"> Money</text> <line x1="40.0" x2="40.0" y1="160" y2="164" stroke="black"></line> <line x1="40.0" x2="40.0" y1="20" y2="160" stroke="#e0e0e0" opacity="nil"></line> <text y="174" x="40.0" fill="black" font-size="12" text-anchor="middle" font-family="sans-serif"> 0</text> <line x1="54.705882352941174" x2="54.705882352941174" y1="160" y2="162" stroke="black"></line> <line x1="54.705882352941174" x2="54.705882352941174" y1="20" y2="160" stroke="#e0e0e0" opacity="nil"></line> <line x1="69.41176470588235" x2="69.41176470588235" y1="160" y2="162" stroke="black"></line> <line x1="69.41176470588235" x2="69.41176470588235" y1="20" y2="160" stroke="#e0e0e0" opacity="nil"></line> <line x1="84.11764705882354" x2="84.11764705882354" y1="160" y2="162" stroke="black"></line> <line x1="84.11764705882354" x2="84.11764705882354" y1="20" y2="160" stroke="#e0e0e0" opacity="nil"></line> <line x1="98.8235294117647" x2="98.8235294117647" y1="160" y2="162" stroke="black"></line> <line x1="98.8235294117647" x2="98.8235294117647" y1="20" y2="160" stroke="#e0e0e0" opacity="nil"></line> <line x1="113.52941176470588" x2="113.52941176470588" y1="160" y2="164" stroke="black"></line> <line x1="113.52941176470588" x2="113.52941176470588" y1="20" y2="160" stroke="#e0e0e0" opacity="nil"></line> <text y="174" x="113.52941176470588" fill="black" font-size="12" text-anchor="middle" font-family="sans-serif"> 10</text> <line x1="128.23529411764707" x2="128.23529411764707" y1="160" y2="162" stroke="black"></line> <line x1="128.23529411764707" x2="128.23529411764707" y1="20" y2="160" stroke="#e0e0e0" opacity="nil"></line> <line x1="142.94117647058823" x2="142.94117647058823" y1="160" y2="162" stroke="black"></line> <line x1="142.94117647058823" x2="142.94117647058823" y1="20" y2="160" stroke="#e0e0e0" opacity="nil"></line> <line x1="157.6470588235294" x2="157.6470588235294" y1="160" y2="162" stroke="black"></line> <line x1="157.6470588235294" x2="157.6470588235294" y1="20" y2="160" stroke="#e0e0e0" opacity="nil"></line> <line x1="172.35294117647058" x2="172.35294117647058" y1="160" y2="162" stroke="black"></line> <line x1="172.35294117647058" x2="172.35294117647058" y1="20" y2="160" stroke="#e0e0e0" opacity="nil"></line> <line x1="187.05882352941177" x2="187.05882352941177" y1="160" y2="164" stroke="black"></line> <line x1="187.05882352941177" x2="187.05882352941177" y1="20" y2="160" stroke="#e0e0e0" opacity="nil"></line> <text y="174" x="187.05882352941177" fill="black" font-size="12" text-anchor="middle" font-family="sans-serif"> 20</text> <line x1="201.76470588235296" x2="201.76470588235296" y1="160" y2="162" stroke="black"></line> <line x1="201.76470588235296" x2="201.76470588235296" y1="20" y2="160" stroke="#e0e0e0" opacity="nil"></line> <line x1="216.47058823529412" x2="216.47058823529412" y1="160" y2="162" stroke="black"></line> <line x1="216.47058823529412" x2="216.47058823529412" y1="20" y2="160" stroke="#e0e0e0" opacity="nil"></line> <line x1="231.17647058823528" x2="231.17647058823528" y1="160" y2="162" stroke="black"></line> <line x1="231.17647058823528" x2="231.17647058823528" y1="20" y2="160" stroke="#e0e0e0" opacity="nil"></line> <line x1="245.88235294117646" x2="245.88235294117646" y1="160" y2="162" stroke="black"></line> <line x1="245.88235294117646" x2="245.88235294117646" y1="20" y2="160" stroke="#e0e0e0" opacity="nil"></line> <line x1="260.5882352941177" x2="260.5882352941177" y1="160" y2="164" stroke="black"></line> <line x1="260.5882352941177" x2="260.5882352941177" y1="20" y2="160" stroke="#e0e0e0" opacity="nil"></line> <text y="174" x="260.5882352941177" fill="black" font-size="12" text-anchor="middle" font-family="sans-serif"> 30</text> <line x1="275.2941176470588" x2="275.2941176470588" y1="160" y2="162" stroke="black"></line> <line x1="275.2941176470588" x2="275.2941176470588" y1="20" y2="160" stroke="#e0e0e0" opacity="nil"></line> <line x1="290.0" x2="290.0" y1="160" y2="162" stroke="black"></line> <line x1="290.0" x2="290.0" y1="20" y2="160" stroke="#e0e0e0" opacity="nil"></line> <line x1="40" x2="37" y1="160.0" y2="160.0" stroke="black"></line> <line x1="40" x2="290" y1="160.0" y2="160.0" opacity="nil" stroke="#e0e0e0"></line> <line x1="40" x2="37" y1="148.33333333333334" y2="148.33333333333334" stroke="black"></line> <line x1="40" x2="290" y1="148.33333333333334" y2="148.33333333333334" opacity="nil" stroke="#e0e0e0"></line> <text y="152.33333333333334" x="34" fill="black" font-size="12" text-anchor="end" font-family="sans-serif"> 42</text> <line x1="40" x2="37" y1="136.66666666666666" y2="136.66666666666666" stroke="black"></line> <line x1="40" x2="290" y1="136.66666666666666" y2="136.66666666666666" opacity="nil" stroke="#e0e0e0"></line> <line x1="40" x2="37" y1="125.0" y2="125.0" stroke="black"></line> <line x1="40" x2="290" y1="125.0" y2="125.0" opacity="nil" stroke="#e0e0e0"></line> <text y="129.0" x="34" fill="black" font-size="12" text-anchor="end" font-family="sans-serif"> 44</text> <line x1="40" x2="37" y1="113.33333333333334" y2="113.33333333333334" stroke="black"></line> <line x1="40" x2="290" y1="113.33333333333334" y2="113.33333333333334" opacity="nil" stroke="#e0e0e0"></line> <line x1="40" x2="37" y1="101.66666666666666" y2="101.66666666666666" stroke="black"></line> <line x1="40" x2="290" y1="101.66666666666666" y2="101.66666666666666" opacity="nil" stroke="#e0e0e0"></line> <text y="105.66666666666666" x="34" fill="black" font-size="12" text-anchor="end" font-family="sans-serif"> 46</text> <line x1="40" x2="37" y1="90.0" y2="90.0" stroke="black"></line> <line x1="40" x2="290" y1="90.0" y2="90.0" opacity="nil" stroke="#e0e0e0"></line> <line x1="40" x2="37" y1="78.33333333333333" y2="78.33333333333333" stroke="black"></line> <line x1="40" x2="290" y1="78.33333333333333" y2="78.33333333333333" opacity="nil" stroke="#e0e0e0"></line> <text y="82.33333333333333" x="34" fill="black" font-size="12" text-anchor="end" font-family="sans-serif"> 48</text> <line x1="40" x2="37" y1="66.66666666666667" y2="66.66666666666667" stroke="black"></line> <line x1="40" x2="290" y1="66.66666666666667" y2="66.66666666666667" opacity="nil" stroke="#e0e0e0"></line> <line x1="40" x2="37" y1="55.0" y2="55.0" stroke="black"></line> <line x1="40" x2="290" y1="55.0" y2="55.0" opacity="nil" stroke="#e0e0e0"></line> <text y="59.0" x="34" fill="black" font-size="12" text-anchor="end" font-family="sans-serif"> 50</text> <line x1="40" x2="37" y1="43.33333333333333" y2="43.33333333333333" stroke="black"></line> <line x1="40" x2="290" y1="43.33333333333333" y2="43.33333333333333" opacity="nil" stroke="#e0e0e0"></line> <line x1="40" x2="37" y1="31.666666666666686" y2="31.666666666666686" stroke="black"></line> <line x1="40" x2="290" y1="31.666666666666686" y2="31.666666666666686" opacity="nil" stroke="#e0e0e0"></line> <text y="35.666666666666686" x="34" fill="black" font-size="12" text-anchor="end" font-family="sans-serif"> 52</text> <line x1="40" x2="37" y1="20.0" y2="20.0" stroke="black"></line> <line x1="40" x2="290" y1="20.0" y2="20.0" opacity="nil" stroke="#e0e0e0"></line> <line x1="40" x2="40" y1="20" y2="165" stroke="black"></line> <line x1="35" x2="290" y1="160" y2="160" stroke="black"></line> <clipPath id="clip-0"> <rect x="40" y="20" width="250" height="140"></rect></clipPath> <line x1="40" x2="47.35294117647059" y1="160.0" y2="147.16666666666666" stroke="black" clip-path="url(#clip-0)"></line> <line x1="47.35294117647059" x2="54.705882352941174" y1="147.16666666666666" y2="147.16666666666666" stroke="black" clip-path="url(#clip-0)"></line> <line x1="54.705882352941174" x2="62.05882352941177" y1="147.16666666666666" y2="123.83333333333331" stroke="black" clip-path="url(#clip-0)"></line> <line x1="62.05882352941177" x2="69.41176470588235" y1="123.83333333333331" y2="129.66666666666666" stroke="black" clip-path="url(#clip-0)"></line> <line x1="69.41176470588235" x2="76.76470588235294" y1="129.66666666666666" y2="129.66666666666666" stroke="black" clip-path="url(#clip-0)"></line> <line x1="76.76470588235294" x2="84.11764705882354" y1="129.66666666666666" y2="137.83333333333334" stroke="black" clip-path="url(#clip-0)"></line> <line x1="84.11764705882354" x2="91.47058823529412" y1="137.83333333333334" y2="136.66666666666666" stroke="black" clip-path="url(#clip-0)"></line> <line x1="91.47058823529412" x2="98.8235294117647" y1="136.66666666666666" y2="134.33333333333331" stroke="black" clip-path="url(#clip-0)"></line> <line x1="98.8235294117647" x2="106.17647058823529" y1="134.33333333333331" y2="120.33333333333334" stroke="black" clip-path="url(#clip-0)"></line> <line x1="106.17647058823529" x2="113.52941176470588" y1="120.33333333333334" y2="119.16666666666666" stroke="black" clip-path="url(#clip-0)"></line> <line x1="113.52941176470588" x2="120.88235294117648" y1="119.16666666666666" y2="108.66666666666669" stroke="black" clip-path="url(#clip-0)"></line> <line x1="120.88235294117648" x2="128.23529411764707" y1="108.66666666666669" y2="102.83333333333334" stroke="black" clip-path="url(#clip-0)"></line> <line x1="128.23529411764707" x2="135.58823529411762" y1="102.83333333333334" y2="31.666666666666686" stroke="black" clip-path="url(#clip-0)"></line> <line x1="135.58823529411762" x2="142.94117647058823" y1="31.666666666666686" y2="20.0" stroke="black" clip-path="url(#clip-0)"></line> <line x1="142.94117647058823" x2="150.29411764705884" y1="20.0" y2="25.833333333333314" stroke="black" clip-path="url(#clip-0)"></line> <line x1="150.29411764705884" x2="157.6470588235294" y1="25.833333333333314" y2="43.33333333333333" stroke="black" clip-path="url(#clip-0)"></line> <line x1="157.6470588235294" x2="165.0" y1="43.33333333333333" y2="55.0" stroke="black" clip-path="url(#clip-0)"></line> <line x1="165.0" x2="172.35294117647058" y1="55.0" y2="55.0" stroke="black" clip-path="url(#clip-0)"></line> <line x1="172.35294117647058" x2="179.7058823529412" y1="55.0" y2="55.0" stroke="black" clip-path="url(#clip-0)"></line> <line x1="179.7058823529412" x2="187.05882352941177" y1="55.0" y2="64.3333333333333" stroke="black" clip-path="url(#clip-0)"></line> <line x1="187.05882352941177" x2="194.41176470588235" y1="64.3333333333333" y2="59.66666666666666" stroke="black" clip-path="url(#clip-0)"></line> <line x1="194.41176470588235" x2="201.76470588235296" y1="59.66666666666666" y2="55.0" stroke="black" clip-path="url(#clip-0)"></line> <line x1="201.76470588235296" x2="209.11764705882354" y1="55.0" y2="66.66666666666667" stroke="black" clip-path="url(#clip-0)"></line> <line x1="209.11764705882354" x2="216.47058823529412" y1="66.66666666666667" y2="55.0" stroke="black" clip-path="url(#clip-0)"></line> <line x1="216.47058823529412" x2="223.82352941176472" y1="55.0" y2="66.66666666666667" stroke="black" clip-path="url(#clip-0)"></line> <line x1="223.82352941176472" x2="231.17647058823528" y1="66.66666666666667" y2="72.5" stroke="black" clip-path="url(#clip-0)"></line> <line x1="231.17647058823528" x2="238.52941176470588" y1="72.5" y2="57.33333333333337" stroke="black" clip-path="url(#clip-0)"></line> <line x1="238.52941176470588" x2="245.88235294117646" y1="57.33333333333337" y2="78.33333333333333" stroke="black" clip-path="url(#clip-0)"></line> <line x1="245.88235294117646" x2="253.23529411764704" y1="78.33333333333333" y2="80.6666666666667" stroke="black" clip-path="url(#clip-0)"></line> <line x1="253.23529411764704" x2="260.5882352941177" y1="80.6666666666667" y2="81.8333333333333" stroke="black" clip-path="url(#clip-0)"></line> <line x1="260.5882352941177" x2="267.94117647058823" y1="81.8333333333333" y2="90.0" stroke="black" clip-path="url(#clip-0)"></line> <line x1="267.94117647058823" x2="275.2941176470588" y1="90.0" y2="98.1666666666667" stroke="black" clip-path="url(#clip-0)"></line> <line x1="275.2941176470588" x2="282.6470588235294" y1="98.1666666666667" y2="93.49999999999996" stroke="black" clip-path="url(#clip-0)"></line> <line x1="282.6470588235294" x2="290" y1="93.49999999999996" y2="80.6666666666667" stroke="black" clip-path="url(#clip-0)"></line></svg>