<svg width="300" height="200" version="1.1" xmlns="http://www.w3.org/2000/svg" xmlns:xlink="http://www.w3.org/1999/xlink"> <defs> <linearGradient id="gradient-0" x1="0" x2="0" y1="0" y2="1"> <stop offset="0%" stop-color="#c0c0c0"></stop> <stop offset="100%" stop-color="#c0c0c0"></stop></linearGradient></defs> <rect width="300" height="200" x="0" y="0" fill="white"></rect> <line x1="30.0" x2="30.0" y1="179" y2="183" stroke="black"></line> <line x1="30.0" x2="30.0" y1="20" y2="179" stroke="#e0e0e0" opacity="nil"></line> <text y="193" x="30.0" fill="black" font-size="12" text-anchor="middle" font-family="sans-serif"> 0</text> <line x1="45.294117647058826" x2="45.294117647058826" y1="179" y2="181" stroke="black"></line> <line x1="45.294117647058826" x2="45.294117647058826" y1="20" y2="179" stroke="#e0e0e0" opacity="nil"></line> <line x1="60.588235294117645" x2="60.588235294117645" y1="179" y2="181" stroke="black"></line> <line x1="60.588235294117645" x2="60.588235294117645" y1="20" y2="179" stroke="#e0e0e0" opacity="nil"></line> <line x1="75.88235294117646" x2="75.88235294117646" y1="179" y2="181" stroke="black"></line> <line x1="75.88235294117646" x2="75.88235294117646" y1="20" y2="179" stroke="#e0e0e0" opacity="nil"></line> <line x1="91.17647058823529" x2="91.17647058823529" y1="179" y2="181" stroke="black"></line> <line x1="91.17647058823529" x2="91.17647058823529" y1="20" y2="179" stroke="#e0e0e0" opacity="nil"></line> <line x1="106.47058823529412" x2="106.47058823529412" y1="179" y2="183" stroke="black"></line> <line x1="106.47058823529412" x2="106.47058823529412" y1="20" y2="179" stroke="#e0e0e0" opacity="nil"></line> <text y="193" x="106.47058823529412" fill="black" font-size="12" text-anchor="middle" font-family="sans-serif"> 10</text> <line x1="121.76470588235294" x2="121.76470588235294" y1="179" y2="181" stroke="black"></line> <line x1="121.76470588235294" x2="121.76470588235294" y1="20" y2="179" stroke="#e0e0e0" opacity="nil"></line> <line x1="137.05882352941177" x2="137.05882352941177" y1="179" y2="181" stroke="black"></line> <line x1="137.05882352941177" x2="137.05882352941177" y1="20" y2="179" stroke="#e0e0e0" opacity="nil"></line> <line x1="152.35294117647058" x2="152.35294117647058" y1="179" y2="181" stroke="black"></line> <line x1="152.35294117647058" x2="152.35294117647058" y1="20" y2="179" stroke="#e0e0e0" opacity="nil"></line> <line x1="167.64705882352942" x2="167.64705882352942" y1="179" y2="181" stroke="black"></line> <line x1="167.64705882352942" x2="167.64705882352942" y1="20" y2="179" stroke="#e0e0e0" opacity="nil"></line> <line x1="182.94117647058823" x2="182.94117647058823" y1="179" y2="183" stroke="black"></line> <line x1="182.94117647058823" x2="182.94117647058823" y1="20" y2="179" stroke="#e0e0e0" opacity="nil"></line> <text y="193" x="182.94117647058823" fill="black" font-size="12" text-anchor="middle" font-family="sans-serif"> 20</text> <line x1="198.23529411764707" x2="198.23529411764707" y1="179" y2="181" stroke="black"></line> <line x1="198.23529411764707" x2="198.23529411764707" y1="20" y2="179" stroke="#e0e0e0" opacity="nil"></line> <line x1="213.52941176470588" x2="213.52941176470588" y1="179" y2="181" stroke="black"></line> <line x1="213.52941176470588" x2="213.52941176470588" y1="20" y2="179" stroke="#e0e0e0" opacity="nil"></line> <line x1="228.8235294117647" x2="228.8235294117647" y1="179" y2="181" stroke="black"></line> <line x1="228.8235294117647" x2="228.8235294117647" y1="20" y2="179" stroke="#e0e0e0" opacity="nil"></line> <line x1="244.1176470588235" x2="244.1176470588235" y1="179" y2="181" stroke="black"></line> <line x1="244.1176470588235" x2="244.1176470588235" y1="20" y2="179" stroke="#e0e0e0" opacity="nil"></line> <line x1="259.4117647058823" x2="259.4117647058823" y1="179" y2="183" stroke="black"></line> <line x1="259.4117647058823" x2="259.4117647058823" y1="20" y2="179" stroke="#e0e0e0" opacity="nil"></line> <text y="193" x="259.4117647058823" fill="black" font-size="12" text-anchor="middle" font-family="sans-serif"> 30</text> <line x1="274.70588235294116" x2="274.70588235294116" y1="179" y2="181" stroke="black"></line> <line x1="274.70588235294116" x2="274.70588235294116" y1="20" y2="179" stroke="#e0e0e0" opacity="nil"></line> <line x1="290.0" x2="290.0" y1="179" y2="181" stroke="black"></line> <line x1="290.0" x2="290.0" y1="20" y2="179" stroke="#e0e0e0" opacity="nil"></line> <line x1="30" x2="27" y1="179.0" y2="179.0" stroke="black"></line> <line x1="30" x2="290" y1="179.0" y2="179.0" opacity="nil" stroke="#e0e0e0"></line> <line x1="30" x2="27" y1="165.75" y2="165.75" stroke="black"></line> <line x1="30" x2="290" y1="165.75" y2="165.75" opacity="nil" stroke="#e0e0e0"></line> <text y="169.75" x="24" fill="black" font-size="12" text-anchor="end" font-family="sans-serif"> 42</text> <line x1="30" x2="27" y1="152.5" y2="152.5" stroke="black"></line> <line x1="30" x2="290" y1="152.5" y2="152.5" opacity="nil" stroke="#e0e0e0"></line> <line x1="30" x2="27" y1="139.25" y2="139.25" stroke="black"></line> <line x1="30" x2="290" y1="139.25" y2="139.25" opacity="nil" stroke="#e0e0e0"></line> <text y="143.25" x="24" fill="black" font-size="12" text-anchor="end" font-family="sans-serif"> 44</text> <line x1="30" x2="27" y1="126.0" y2="126.0" stroke="black"></line> <line x1="30" x2="290" y1="126.0" y2="126.0" opacity="nil" stroke="#e0e0e0"></line> <line x1="30" x2="27" y1="112.75" y2="112.75" stroke="black"></line> <line x1="30" x2="290" y1="112.75" y2="112.75" opacity="nil" stroke="#e0e0e0"></line> <text y="116.75" x="24" fill="black" font-size="12" text-anchor="end" font-family="sans-serif"> 46</text> <line x1="30" x2="27" y1="99.5" y2="99.5" stroke="black"></line> <line x1="30" x2="290" y1="99.5" y2="99.5" opacity="nil" stroke="#e0e0e0"></line> <line x1="30" x2="27" y1="86.25" y2="86.25" stroke="black"></line> <line x1="30" x2="290" y1="86.25" y2="86.25" opacity="nil" stroke="#e0e0e0"></line> <text y="90.25" x="24" fill="black" font-size="12" text-anchor="end" font-family="sans-serif"> 48</text> <line x1="30" x2="27" y1="73.0" y2="73.0" stroke="black"></line> <line x1="30" x2="290" y1="73.0" y2="73.0" opacity="nil" stroke="#e0e0e0"></line> <line x1="30" x2="27" y1="59.75" y2="59.75" stroke="black"></line> <line x1="30" x2="290" y1="59.75" y2="59.75" opacity="nil" stroke="#e0e0e0"></line> <text y="63.75" x="24" fill="black" font-size="12" text-anchor="end" font-family="sans-serif"> 50</text> <line x1="30" x2="27" y1="46.5" y2="46.5" stroke="black"></line> <line x1="30" x2="290" y1="46.5" y2="46.5" opacity="nil" stroke="#e0e0e0"></line> <line x1="30" x2="27" y1="33.25" y2="33.25" stroke="black"></line> <line x1="30" x2="290" y1="33.25" y2="33.25" opacity="nil" stroke="#e0e0e0"></line> <text y="37.25" x="24" fill="black" font-size="12" text-anchor="end" font-family="sans-serif"> 52</text> <line x1="30" x2="27" y1="20.0" y2="20.0" stroke="black"></line> <line x1="30" x2="290" y1="20.0" y2="20.0" opacity="nil" stroke="#e0e0e0"></line> <line x1="30" x2="30" y1="20" y2="184" stroke="black"></line> <line x1="25" x2="290" y1="179" y2="179" stroke="black"></line> <polygon points="27.5 181.5, 30 176.5, 32.5 181.5" stroke="black" fill="#c0c0c0"></polygon> <polygon points="35.14705882352941 166.92499999999998, 37.64705882352941 161.92499999999998, 40.14705882352941 166.92499999999998" stroke="black" fill="#c0c0c0"></polygon> <polygon points="42.794117647058826 166.92499999999998, 45.294117647058826 161.92499999999998, 47.794117647058826 166.92499999999998" stroke="black" fill="#c0c0c0"></polygon> <polygon points="50.44117647058823 140.42499999999998, 52.94117647058823 135.42499999999998, 55.44117647058823 140.42499999999998" stroke="black" fill="#c0c0c0"></polygon> <polygon points="58.088235294117645 147.04999999999998, 60.588235294117645 142.04999999999998, 63.088235294117645 147.04999999999998" stroke="black" fill="#c0c0c0"></polygon> <polygon points="65.73529411764706 147.04999999999998, 68.23529411764706 142.04999999999998, 70.73529411764706 147.04999999999998" stroke="black" fill="#c0c0c0"></polygon> <polygon points="73.38235294117646 156.32500000000002, 75.88235294117646 151.32500000000002, 78.38235294117646 156.32500000000002" stroke="black" fill="#c0c0c0"></polygon> <polygon points="81.02941176470588 155.0, 83.52941176470588 150.0, 86.02941176470588 155.0" stroke="black" fill="#c0c0c0"></polygon> <polygon points="88.67647058823529 152.34999999999997, 91.17647058823529 147.34999999999997, 93.67647058823529 152.34999999999997" stroke="black" fill="#c0c0c0"></polygon> <polygon points="96.32352941176471 136.45000000000002, 98.82352941176471 131.45000000000002, 101.32352941176471 136.45000000000002" stroke="black" fill="#c0c0c0"></polygon> <polygon points="103.97058823529412 135.125, 106.47058823529412 130.125, 108.97058823529412 135.125" stroke="black" fill="#c0c0c0"></polygon> <polygon points="111.61764705882354 123.20000000000002, 114.11764705882354 118.20000000000002, 116.61764705882354 123.20000000000002" stroke="black" fill="#c0c0c0"></polygon> <polygon points="119.26470588235294 116.57500000000002, 121.76470588235294 111.57500000000002, 124.26470588235294 116.57500000000002" stroke="black" fill="#c0c0c0"></polygon> <polygon points="126.91176470588235 35.75, 129.41176470588235 30.75, 131.91176470588235 35.75" stroke="black" fill="#c0c0c0"></polygon> <polygon points="134.55882352941177 22.5, 137.05882352941177 17.5, 139.55882352941177 22.5" stroke="black" fill="#c0c0c0"></polygon> <polygon points="142.20588235294116 29.125, 144.70588235294116 24.125, 147.20588235294116 29.125" stroke="black" fill="#c0c0c0"></polygon> <polygon points="149.85294117647058 49.0, 152.35294117647058 44.0, 154.85294117647058 49.0" stroke="black" fill="#c0c0c0"></polygon> <polygon points="157.5 62.25, 160.0 57.25, 162.5 62.25" stroke="black" fill="#c0c0c0"></polygon> <polygon points="165.14705882352942 62.25, 167.64705882352942 57.25, 170.14705882352942 62.25" stroke="black" fill="#c0c0c0"></polygon> <polygon points="172.79411764705884 62.25, 175.29411764705884 57.25, 177.79411764705884 62.25" stroke="black" fill="#c0c0c0"></polygon> <polygon points="180.44117647058823 72.84999999999997, 182.94117647058823 67.84999999999997, 185.44117647058823 72.84999999999997" stroke="black" fill="#c0c0c0"></polygon> <polygon points="188.08823529411765 67.54999999999998, 190.58823529411765 62.54999999999998, 193.08823529411765 67.54999999999998" stroke="black" fill="#c0c0c0"></polygon> <polygon points="195.73529411764707 62.25, 198.23529411764707 57.25, 200.73529411764707 62.25" stroke="black" fill="#c0c0c0"></polygon> <polygon points="203.3823529411765 75.5, 205.8823529411765 70.5, 208.3823529411765 75.5" stroke="black" fill="#c0c0c0"></polygon> <polygon points="211.02941176470588 62.25, 213.52941176470588 57.25, 216.02941176470588 62.25" stroke="black" fill="#c0c0c0"></polygon> <polygon points="218.6764705882353 75.5, 221.1764705882353 70.5, 223.6764705882353 75.5" stroke="black" fill="#c0c0c0"></polygon> <polygon points="226.3235294117647 82.125, 228.8235294117647 77.125, 231.3235294117647 82.125" stroke="black" fill="#c0c0c0"></polygon> <polygon points="233.97058823529412 64.90000000000005, 236.47058823529412 59.90000000000005, 238.97058823529412 64.90000000000005" stroke="black" fill="#c0c0c0"></polygon> <polygon points="241.6176470588235 88.75, 244.1176470588235 83.75, 246.6176470588235 88.75" stroke="black" fill="#c0c0c0"></polygon> <polygon points="249.26470588235293 91.40000000000003, 251.76470588235293 86.40000000000003, 254.26470588235293 91.40000000000003" stroke="black" fill="#c0c0c0"></polygon> <polygon points="256.9117647058823 92.72499999999997, 259.4117647058823 87.72499999999997, 261.9117647058823 92.72499999999997" stroke="black" fill="#c0c0c0"></polygon> <polygon points="264.55882352941177 102.0, 267.05882352941177 97.0, 269.55882352941177 102.0" stroke="black" fill="#c0c0c0"></polygon> <polygon points="272.20588235294116 111.27500000000003, 274.70588235294116 106.27500000000003, 277.20588235294116 111.27500000000003" stroke="black" fill="#c0c0c0"></polygon> <polygon points="279.8529411764706 105.97499999999997, 282.3529411764706 100.97499999999997, 284.8529411764706 105.97499999999997" stroke="black" fill="#c0c0c0"></polygon> <polygon points="287.5 91.40000000000003, 290 86.40000000000003, 292.5 91.40000000000003" stroke="black" fill="#c0c0c0"></polygon> <polygon points="30 179, 290 179" stroke="nil" x1="0" x2="0" y1="0" y2="1" fill="url(#gradient-0)"></polygon></svg>