<svg width="300" height="200" version="1.1" xmlns="http://www.w3.org/2000/svg" xmlns:xlink="http://www.w3.org/1999/xlink"> <rect width="300" height="200" x="0" y="0" fill="white"></rect> <line x1="30.0" x2="30.0" y1="179" y2="183" stroke="black"></line> <line x1="30.0" x2="30.0" y1="20" y2="179" stroke="#e0e0e0" opacity="nil"></line> <text y="193" x="30.0" fill="black" font-size="12" text-anchor="middle" font-family="sans-serif"> 0</text> <line x1="45.294117647058826" x2="45.294117647058826" y1="179" y2="181" stroke="black"></line> <line x1="45.294117647058826" x2="45.294117647058826" y1="20" y2="179" stroke="#e0e0e0" opacity="nil"></line> <line x1="60.588235294117645" x2="60.588235294117645" y1="179" y2="181" stroke="black"></line> <line x1="60.588235294117645" x2="60.588235294117645" y1="20" y2="179" stroke="#e0e0e0" opacity="nil"></line> <line x1="75.88235294117646" x2="75.88235294117646" y1="179" y2="181" stroke="black"></line> <line x1="75.88235294117646" x2="75.88235294117646" y1="20" y2="179" stroke="#e0e0e0" opacity="nil"></line> <line x1="91.17647058823529" x2="91.17647058823529" y1="179" y2="181" stroke="black"></line> <line x1="91.17647058823529" x2="91.17647058823529" y1="20" y2="179" stroke="#e0e0e0" opacity="nil"></line> <line x1="106.47058823529412" x2="106.47058823529412" y1="179" y2="183" stroke="black"></line> <line x1="106.47058823529412" x2="106.47058823529412" y1="20" y2="179" stroke="#e0e0e0" opacity="nil"></line> <text y="193" x="106.47058823529412" fill="black" font-size="12" text-anchor="middle" font-family="sans-serif"> 10</text> <line x1="121.76470588235294" x2="121.76470588235294" y1="179" y2="181" stroke="black"></line> <line x1="121.76470588235294" x2="121.76470588235294" y1="20" y2="179" stroke="#e0e0e0" opacity="nil"></line> <line x1="137.05882352941177" x2="137.05882352941177" y1="179" y2="181" stroke="black"></line> <line x1="137.05882352941177" x2="137.05882352941177" y1="20" y2="179" stroke="#e0e0e0" opacity="nil"></line> <line x1="152.35294117647058" x2="152.35294117647058" y1="179" y2="181" stroke="black"></line> <line x1="152.35294117647058" x2="152.35294117647058" y1="20" y2="179" stroke="#e0e0e0" opacity="nil"></line> <line x1="167.64705882352942" x2="167.64705882352942" y1="179" y2="181" stroke="black"></line> <line x1="167.64705882352942" x2="167.64705882352942" y1="20" y2="179" stroke="#e0e0e0" opacity="nil"></line> <line x1="182.94117647058823" x2="182.94117647058823" y1="179" y2="183" stroke="black"></line> <line x1="182.94117647058823" x2="182.94117647058823" y1="20" y2="179" stroke="#e0e0e0" opacity="nil"></line> <text y="193" x="182.94117647058823" fill="black" font-size="12" text-anchor="middle" font-family="sans-serif"> 20</text> <line x1="198.23529411764707" x2="198.23529411764707" y1="179" y2="181" stroke="black"></line> <line x1="198.23529411764707" x2="198.23529411764707" y1="20" y2="179" stroke="#e0e0e0" opacity="nil"></line> <line x1="213.52941176470588" x2="213.52941176470588" y1="179" y2="181" stroke="black"></line> <line x1="213.52941176470588" x2="213.52941176470588" y1="20" y2="179" stroke="#e0e0e0" opacity="nil"></line> <line x1="228.8235294117647" x2="228.8235294117647" y1="179" y2="181" stroke="black"></line> <line x1="228.8235294117647" x2="228.8235294117647" y1="20" y2="179" stroke="#e0e0e0" opacity="nil"></line> <line x1="244.1176470588235" x2="244.1176470588235" y1="179" y2="181" stroke="black"></line> <line x1="244.1176470588235" x2="244.1176470588235" y1="20" y2="179" stroke="#e0e0e0" opacity="nil"></line> <line x1="259.4117647058823" x2="259.4117647058823" y1="179" y2="183" stroke="black"></line> <line x1="259.4117647058823" x2="259.4117647058823" y1="20" y2="179" stroke="#e0e0e0" opacity="nil"></line> <text y="193" x="259.4117647058823" fill="black" font-size="12" text-anchor="middle" font-family="sans-serif"> 30</text> <line x1="274.70588235294116" x2="274.70588235294116" y1="179" y2="181" stroke="black"></line> <line x1="274.70588235294116" x2="274.70588235294116" y1="20" y2="179" stroke="#e0e0e0" opacity="nil"></line> <line x1="290.0" x2="290.0" y1="179" y2="181" stroke="black"></line> <line x1="290.0" x2="290.0" y1="20" y2="179" stroke="#e0e0e0" opacity="nil"></line> <line x1="30" x2="27" y1="179.0" y2="179.0" stroke="black"></line> <line x1="30" x2="290" y1="179.0" y2="179.0" opacity="nil" stroke="#e0e0e0"></line> <line x1="30" x2="27" y1="165.9615873603168" y2="165.9615873603168" stroke="black"></line> <line x1="30" x2="290" y1="165.9615873603168" y2="165.9615873603168" opacity="nil" stroke="#e0e0e0"></line> <text y="169.9615873603168" x="24" fill="black" font-size="12" text-anchor="end" font-family="sans-serif"> 58</text> <line x1="30" x2="27" y1="152.92317472063357" y2="152.92317472063357" stroke="black"></line> <line x1="30" x2="290" y1="152.92317472063357" y2="152.92317472063357" opacity="nil" stroke="#e0e0e0"></line> <line x1="30" x2="27" y1="139.88476208095037" y2="139.88476208095037" stroke="black"></line> <line x1="30" x2="290" y1="139.88476208095037" y2="139.88476208095037" opacity="nil" stroke="#e0e0e0"></line> <text y="143.88476208095037" x="24" fill="black" font-size="12" text-anchor="end" font-family="sans-serif"> 60</text> <line x1="30" x2="27" y1="126.84634944126714" y2="126.84634944126714" stroke="black"></line> <line x1="30" x2="290" y1="126.84634944126714" y2="126.84634944126714" opacity="nil" stroke="#e0e0e0"></line> <line x1="30" x2="27" y1="113.80793680158393" y2="113.80793680158393" stroke="black"></line> <line x1="30" x2="290" y1="113.80793680158393" y2="113.80793680158393" opacity="nil" stroke="#e0e0e0"></line> <text y="117.80793680158393" x="24" fill="black" font-size="12" text-anchor="end" font-family="sans-serif"> 62</text> <line x1="30" x2="27" y1="100.76952416190072" y2="100.76952416190072" stroke="black"></line> <line x1="30" x2="290" y1="100.76952416190072" y2="100.76952416190072" opacity="nil" stroke="#e0e0e0"></line> <line x1="30" x2="27" y1="87.7311115222175" y2="87.7311115222175" stroke="black"></line> <line x1="30" x2="290" y1="87.7311115222175" y2="87.7311115222175" opacity="nil" stroke="#e0e0e0"></line> <text y="91.7311115222175" x="24" fill="black" font-size="12" text-anchor="end" font-family="sans-serif"> 64</text> <line x1="30" x2="27" y1="74.69269888253429" y2="74.69269888253429" stroke="black"></line> <line x1="30" x2="290" y1="74.69269888253429" y2="74.69269888253429" opacity="nil" stroke="#e0e0e0"></line> <line x1="30" x2="27" y1="61.654286242851086" y2="61.654286242851086" stroke="black"></line> <line x1="30" x2="290" y1="61.654286242851086" y2="61.654286242851086" opacity="nil" stroke="#e0e0e0"></line> <text y="65.65428624285109" x="24" fill="black" font-size="12" text-anchor="end" font-family="sans-serif"> 66</text> <line x1="30" x2="27" y1="48.61587360316787" y2="48.61587360316787" stroke="black"></line> <line x1="30" x2="290" y1="48.61587360316787" y2="48.61587360316787" opacity="nil" stroke="#e0e0e0"></line> <line x1="30" x2="27" y1="35.57746096348464" y2="35.57746096348464" stroke="black"></line> <line x1="30" x2="290" y1="35.57746096348464" y2="35.57746096348464" opacity="nil" stroke="#e0e0e0"></line> <text y="39.57746096348464" x="24" fill="black" font-size="12" text-anchor="end" font-family="sans-serif"> 68</text> <line x1="30" x2="27" y1="22.53904832380144" y2="22.53904832380144" stroke="black"></line> <line x1="30" x2="290" y1="22.53904832380144" y2="22.53904832380144" opacity="nil" stroke="#e0e0e0"></line> <line x1="30" x2="30" y1="20" y2="184" stroke="black"></line> <line x1="25" x2="290" y1="179" y2="179" stroke="black"></line> <line x1="30" x2="37.64705882352941" y1="171.8107366161924" y2="141.44858929295395" stroke="black"></line> <line x1="37.64705882352941" x2="45.294117647058826" y1="141.44858929295395" y2="141.44858929295395" stroke="black"></line> <line x1="45.294117647058826" x2="52.94117647058823" y1="141.44858929295395" y2="145.78603891055945" stroke="black"></line> <line x1="52.94117647058823" x2="60.588235294117645" y1="145.78603891055945" y2="141.44858929295395" stroke="black"></line> <line x1="60.588235294117645" x2="68.23529411764706" y1="141.44858929295395" y2="145.78603891055945" stroke="black"></line> <line x1="68.23529411764706" x2="75.88235294117646" y1="145.78603891055945" y2="152.29221333696773" stroke="black"></line> <line x1="75.88235294117646" x2="83.52941176470588" y1="152.29221333696773" y2="154.46093814577048" stroke="black"></line> <line x1="83.52941176470588" x2="91.17647058823529" y1="154.46093814577048" y2="154.46093814577048" stroke="black"></line> <line x1="91.17647058823529" x2="98.82352941176471" y1="154.46093814577048" y2="154.46093814577048" stroke="black"></line> <line x1="98.82352941176471" x2="106.47058823529412" y1="154.46093814577048" y2="132.77369005774295" stroke="black"></line> <line x1="106.47058823529412" x2="114.11764705882354" y1="132.77369005774295" y2="93.73664349929349" stroke="black"></line> <line x1="114.11764705882354" x2="121.76470588235294" y1="93.73664349929349" y2="93.73664349929349" stroke="black"></line> <line x1="121.76470588235294" x2="129.41176470588235" y1="93.73664349929349" y2="89.39919388168799" stroke="black"></line> <line x1="129.41176470588235" x2="137.05882352941177" y1="89.39919388168799" y2="93.73664349929349" stroke="black"></line> <line x1="137.05882352941177" x2="144.70588235294116" y1="93.73664349929349" y2="67.71194579366056" stroke="black"></line> <line x1="144.70588235294116" x2="152.35294117647058" y1="67.71194579366056" y2="76.38684502887158" stroke="black"></line> <line x1="152.35294117647058" x2="160.0" y1="76.38684502887158" y2="89.39919388168799" stroke="black"></line> <line x1="160.0" x2="167.64705882352942" y1="89.39919388168799" y2="89.39919388168799" stroke="black"></line> <line x1="167.64705882352942" x2="175.29411764705884" y1="89.39919388168799" y2="37.34979847042203" stroke="black"></line> <line x1="175.29411764705884" x2="182.94117647058823" y1="37.34979847042203" y2="54.699596940844046" stroke="black"></line> <line x1="182.94117647058823" x2="190.58823529411765" y1="54.699596940844046" y2="33.01234885281653" stroke="black"></line> <line x1="190.58823529411765" x2="198.23529411764707" y1="33.01234885281653" y2="20.0" stroke="black"></line> <line x1="198.23529411764707" x2="205.8823529411765" y1="20.0" y2="40.80586443199758" stroke="black"></line> <line x1="205.8823529411765" x2="213.52941176470588" y1="40.80586443199758" y2="48.61587360316787" stroke="black"></line> <line x1="213.52941176470588" x2="221.1764705882353" y1="48.61587360316787" y2="29.05825464364304" stroke="black"></line> <line x1="221.1764705882353" x2="228.8235294117647" y1="29.05825464364304" y2="22.53904832380144" stroke="black"></line> <line x1="228.8235294117647" x2="236.47058823529412" y1="22.53904832380144" y2="48.61587360316787" stroke="black"></line> <line x1="236.47058823529412" x2="244.1176470588235" y1="48.61587360316787" y2="29.05825464364304" stroke="black"></line> <line x1="244.1176470588235" x2="251.76470588235293" y1="29.05825464364304" y2="87.7311115222175" stroke="black"></line> <line x1="251.76470588235293" x2="259.4117647058823" y1="87.7311115222175" y2="165.9615873603168" stroke="black"></line> <line x1="259.4117647058823" x2="267.05882352941177" y1="165.9615873603168" y2="100.76952416190072" stroke="black"></line> <line x1="267.05882352941177" x2="274.70588235294116" y1="100.76952416190072" y2="139.88476208095037" stroke="black"></line> <line x1="274.70588235294116" x2="282.3529411764706" y1="139.88476208095037" y2="100.76952416190072" stroke="black"></line> <line x1="282.3529411764706" x2="290" y1="100.76952416190072" y2="139.88476208095037" stroke="black"></line></svg>