<svg width="300" height="200" version="1.1" xmlns="http://www.w3.org/2000/svg" xmlns:xlink="http://www.w3.org/1999/xlink"> <defs> <linearGradient id="gradient-0" x1="0" x2="0" y1="0" y2="1"> <stop offset="0%" stop-color="lightblue"></stop> <stop offset="100%" stop-color="lightblue"></stop></linearGradient></defs> <rect width="300" height="200" x="0" y="0" fill="white"></rect> <line x1="30.0" x2="30.0" y1="179" y2="183" stroke="black"></line> <line x1="30.0" x2="30.0" y1="20" y2="179" stroke="#e0e0e0" opacity="1"></line> <text y="193" x="30.0" fill="black" font-weight="normal" font-size="12" text-anchor="middle" font-family="sans-serif"> 0</text> <line x1="45.294117647058826" x2="45.294117647058826" y1="179" y2="181" stroke="black"></line> <line x1="45.294117647058826" x2="45.294117647058826" y1="20" y2="179" stroke="#e0e0e0" opacity="1"></line> <line x1="60.588235294117645" x2="60.588235294117645" y1="179" y2="181" stroke="black"></line> <line x1="60.588235294117645" x2="60.588235294117645" y1="20" y2="179" stroke="#e0e0e0" opacity="1"></line> <line x1="75.88235294117646" x2="75.88235294117646" y1="179" y2="181" stroke="black"></line> <line x1="75.88235294117646" x2="75.88235294117646" y1="20" y2="179" stroke="#e0e0e0" opacity="1"></line> <line x1="91.17647058823529" x2="91.17647058823529" y1="179" y2="181" stroke="black"></line> <line x1="91.17647058823529" x2="91.17647058823529" y1="20" y2="179" stroke="#e0e0e0" opacity="1"></line> <line x1="106.47058823529412" x2="106.47058823529412" y1="179" y2="183" stroke="black"></line> <line x1="106.47058823529412" x2="106.47058823529412" y1="20" y2="179" stroke="#e0e0e0" opacity="1"></line> <text y="193" x="106.47058823529412" fill="black" font-weight="normal" font-size="12" text-anchor="middle" font-family="sans-serif"> 10</text> <line x1="121.76470588235294" x2="121.76470588235294" y1="179" y2="181" stroke="black"></line> <line x1="121.76470588235294" x2="121.76470588235294" y1="20" y2="179" stroke="#e0e0e0" opacity="1"></line> <line x1="137.05882352941177" x2="137.05882352941177" y1="179" y2="181" stroke="black"></line> <line x1="137.05882352941177" x2="137.05882352941177" y1="20" y2="179" stroke="#e0e0e0" opacity="1"></line> <line x1="152.35294117647058" x2="152.35294117647058" y1="179" y2="181" stroke="black"></line> <line x1="152.35294117647058" x2="152.35294117647058" y1="20" y2="179" stroke="#e0e0e0" opacity="1"></line> <line x1="167.64705882352942" x2="167.64705882352942" y1="179" y2="181" stroke="black"></line> <line x1="167.64705882352942" x2="167.64705882352942" y1="20" y2="179" stroke="#e0e0e0" opacity="1"></line> <line x1="182.94117647058823" x2="182.94117647058823" y1="179" y2="183" stroke="black"></line> <line x1="182.94117647058823" x2="182.94117647058823" y1="20" y2="179" stroke="#e0e0e0" opacity="1"></line> <text y="193" x="182.94117647058823" fill="black" font-weight="normal" font-size="12" text-anchor="middle" font-family="sans-serif"> 20</text> <line x1="198.23529411764707" x2="198.23529411764707" y1="179" y2="181" stroke="black"></line> <line x1="198.23529411764707" x2="198.23529411764707" y1="20" y2="179" stroke="#e0e0e0" opacity="1"></line> <line x1="213.52941176470588" x2="213.52941176470588" y1="179" y2="181" stroke="black"></line> <line x1="213.52941176470588" x2="213.52941176470588" y1="20" y2="179" stroke="#e0e0e0" opacity="1"></line> <line x1="228.8235294117647" x2="228.8235294117647" y1="179" y2="181" stroke="black"></line> <line x1="228.8235294117647" x2="228.8235294117647" y1="20" y2="179" stroke="#e0e0e0" opacity="1"></line> <line x1="244.1176470588235" x2="244.1176470588235" y1="179" y2="181" stroke="black"></line> <line x1="244.1176470588235" x2="244.1176470588235" y1="20" y2="179" stroke="#e0e0e0" opacity="1"></line> <line x1="259.4117647058823" x2="259.4117647058823" y1="179" y2="183" stroke="black"></line> <line x1="259.4117647058823" x2="259.4117647058823" y1="20" y2="179" stroke="#e0e0e0" opacity="1"></line> <text y="193" x="259.4117647058823" fill="black" font-weight="normal" font-size="12" text-anchor="middle" font-family="sans-serif"> 30</text> <line x1="274.70588235294116" x2="274.70588235294116" y1="179" y2="181" stroke="black"></line> <line x1="274.70588235294116" x2="274.70588235294116" y1="20" y2="179" stroke="#e0e0e0" opacity="1"></line> <line x1="290.0" x2="290.0" y1="179" y2="181" stroke="black"></line> <line x1="290.0" x2="290.0" y1="20" y2="179" stroke="#e0e0e0" opacity="1"></line> <line x1="30" x2="27" y1="179.0" y2="179.0" stroke="black"></line> <line x1="30" x2="290" y1="179.0" y2="179.0" opacity="1" stroke="#e0e0e0"></line> <text y="183.0" x="24" fill="black" font-size="12" text-anchor="end" font-family="sans-serif"> 40</text> <line x1="30" x2="27" y1="169.0625" y2="169.0625" stroke="black"></line> <line x1="30" x2="290" y1="169.0625" y2="169.0625" opacity="1" stroke="#e0e0e0"></line> <line x1="30" x2="27" y1="159.125" y2="159.125" stroke="black"></line> <line x1="30" x2="290" y1="159.125" y2="159.125" opacity="1" stroke="#e0e0e0"></line> <line x1="30" x2="27" y1="149.1875" y2="149.1875" stroke="black"></line> <line x1="30" x2="290" y1="149.1875" y2="149.1875" opacity="1" stroke="#e0e0e0"></line> <line x1="30" x2="27" y1="139.25" y2="139.25" stroke="black"></line> <line x1="30" x2="290" y1="139.25" y2="139.25" opacity="1" stroke="#e0e0e0"></line> <line x1="30" x2="27" y1="129.3125" y2="129.3125" stroke="black"></line> <line x1="30" x2="290" y1="129.3125" y2="129.3125" opacity="1" stroke="#e0e0e0"></line> <text y="133.3125" x="24" fill="black" font-size="12" text-anchor="end" font-family="sans-serif"> 50</text> <line x1="30" x2="27" y1="119.375" y2="119.375" stroke="black"></line> <line x1="30" x2="290" y1="119.375" y2="119.375" opacity="1" stroke="#e0e0e0"></line> <line x1="30" x2="27" y1="109.4375" y2="109.4375" stroke="black"></line> <line x1="30" x2="290" y1="109.4375" y2="109.4375" opacity="1" stroke="#e0e0e0"></line> <line x1="30" x2="27" y1="99.5" y2="99.5" stroke="black"></line> <line x1="30" x2="290" y1="99.5" y2="99.5" opacity="1" stroke="#e0e0e0"></line> <line x1="30" x2="27" y1="89.5625" y2="89.5625" stroke="black"></line> <line x1="30" x2="290" y1="89.5625" y2="89.5625" opacity="1" stroke="#e0e0e0"></line> <line x1="30" x2="27" y1="79.625" y2="79.625" stroke="black"></line> <line x1="30" x2="290" y1="79.625" y2="79.625" opacity="1" stroke="#e0e0e0"></line> <text y="83.625" x="24" fill="black" font-size="12" text-anchor="end" font-family="sans-serif"> 60</text> <line x1="30" x2="27" y1="69.6875" y2="69.6875" stroke="black"></line> <line x1="30" x2="290" y1="69.6875" y2="69.6875" opacity="1" stroke="#e0e0e0"></line> <line x1="30" x2="27" y1="59.75" y2="59.75" stroke="black"></line> <line x1="30" x2="290" y1="59.75" y2="59.75" opacity="1" stroke="#e0e0e0"></line> <line x1="30" x2="27" y1="49.8125" y2="49.8125" stroke="black"></line> <line x1="30" x2="290" y1="49.8125" y2="49.8125" opacity="1" stroke="#e0e0e0"></line> <line x1="30" x2="27" y1="39.875" y2="39.875" stroke="black"></line> <line x1="30" x2="290" y1="39.875" y2="39.875" opacity="1" stroke="#e0e0e0"></line> <line x1="30" x2="27" y1="29.9375" y2="29.9375" stroke="black"></line> <line x1="30" x2="290" y1="29.9375" y2="29.9375" opacity="1" stroke="#e0e0e0"></line> <text y="33.9375" x="24" fill="black" font-size="12" text-anchor="end" font-family="sans-serif"> 70</text> <line x1="30" x2="27" y1="20.0" y2="20.0" stroke="black"></line> <line x1="30" x2="290" y1="20.0" y2="20.0" opacity="1" stroke="#e0e0e0"></line> <line x1="30" x2="30" y1="20" y2="184" stroke="black"></line> <line x1="25" x2="290" y1="179" y2="179" stroke="black"></line> <clipPath id="clip-0"> <rect x="30" y="20" width="260" height="159"></rect></clipPath> <polygon points="30 179, 30 174.03125, 30 168.56562499999998, 37.64705882352941 168.56562499999998, 37.64705882352941 168.56562499999998, 45.294117647058826 168.56562499999998, 45.294117647058826 158.62812499999998, 52.94117647058823 158.62812499999998, 52.94117647058823 161.11249999999998, 60.588235294117645 161.11249999999998, 60.588235294117645 161.11249999999998, 68.23529411764706 161.11249999999998, 68.23529411764706 164.59062500000002, 75.88235294117646 164.59062500000002, 75.88235294117646 164.09375, 83.52941176470588 164.09375, 83.52941176470588 163.1, 91.17647058823529 163.1, 91.17647058823529 157.13750000000002, 98.82352941176471 157.13750000000002, 98.82352941176471 156.640625, 106.47058823529412 156.640625, 106.47058823529412 152.16875000000002, 114.11764705882354 152.16875000000002, 114.11764705882354 149.68437500000002, 121.76470588235294 149.68437500000002, 121.76470588235294 119.375, 129.41176470588235 119.375, 129.41176470588235 114.40625, 137.05882352941177 114.40625, 137.05882352941177 116.890625, 144.70588235294116 116.890625, 144.70588235294116 124.34375, 152.35294117647058 124.34375, 152.35294117647058 129.3125, 160.0 129.3125, 160.0 129.3125, 167.64705882352942 129.3125, 167.64705882352942 129.3125, 175.29411764705884 129.3125, 175.29411764705884 133.2875, 182.94117647058823 133.2875, 182.94117647058823 131.29999999999998, 190.58823529411765 131.29999999999998, 190.58823529411765 129.3125, 198.23529411764707 129.3125, 198.23529411764707 134.28125, 205.8823529411765 134.28125, 205.8823529411765 129.3125, 213.52941176470588 129.3125, 213.52941176470588 134.28125, 221.1764705882353 134.28125, 221.1764705882353 136.765625, 228.8235294117647 136.765625, 228.8235294117647 130.30625, 236.47058823529412 130.30625, 236.47058823529412 139.25, 244.1176470588235 139.25, 244.1176470588235 140.24375, 251.76470588235293 140.24375, 251.76470588235293 140.740625, 259.4117647058823 140.740625, 259.4117647058823 144.21875, 267.05882352941177 144.21875, 267.05882352941177 147.696875, 274.70588235294116 147.696875, 274.70588235294116 145.709375, 282.3529411764706 145.709375, 282.3529411764706 140.24375, 290 140.24375, 290 79.625, 290 79.625, 290 64.71875, 282.3529411764706 64.71875, 282.3529411764706 79.625, 274.70588235294116 79.625, 274.70588235294116 64.71875, 267.05882352941177 64.71875, 267.05882352941177 89.5625, 259.4117647058823 89.5625, 259.4117647058823 59.75, 251.76470588235293 59.75, 251.76470588235293 37.390625, 244.1176470588235 37.390625, 244.1176470588235 44.84375, 236.47058823529412 44.84375, 236.47058823529412 34.90625, 228.8235294117647 34.90625, 228.8235294117647 37.390625, 221.1764705882353 37.390625, 221.1764705882353 44.84375, 213.52941176470588 44.84375, 213.52941176470588 41.86746874999997, 205.8823529411765 41.86746874999997, 205.8823529411765 33.93865549999998, 198.23529411764707 33.93865549999998, 198.23529411764707 38.89747296874998, 190.58823529411765 38.89747296874998, 190.58823529411765 47.162168750000006, 182.94117647058823 47.162168750000006, 182.94117647058823 40.55041212499998, 175.29411764705884 40.55041212499998, 175.29411764705884 60.38568199999999, 167.64705882352942 60.38568199999999, 167.64705882352942 60.38568199999999, 160.0 60.38568199999999, 160.0 55.42686453125002, 152.35294117647058 55.42686453125002, 152.35294117647058 52.120986218750005, 144.70588235294116 52.120986218750005, 144.70588235294116 62.03862115624999, 137.05882352941177 62.03862115624999, 137.05882352941177 60.38568199999999, 129.41176470588235 60.38568199999999, 129.41176470588235 62.03862115624999, 121.76470588235294 62.03862115624999, 121.76470588235294 62.03862115624999, 114.11764705882354 62.03862115624999, 114.11764705882354 76.9150735625, 106.47058823529412 76.9150735625, 106.47058823529412 85.17976934375001, 98.82352941176471 85.17976934375001, 98.82352941176471 85.17976934375001, 91.17647058823529 85.17976934375001, 91.17647058823529 85.17976934375001, 83.52941176470588 85.17976934375001, 83.52941176470588 84.35329976562501, 75.88235294117646 84.35329976562501, 75.88235294117646 81.87389103125, 68.23529411764706 81.87389103125, 68.23529411764706 80.220951875, 60.588235294117645 80.220951875, 60.588235294117645 81.87389103125, 52.94117647058823 81.87389103125, 52.94117647058823 80.220951875, 45.294117647058826 80.220951875, 45.294117647058826 80.220951875, 37.64705882352941 80.220951875, 37.64705882352941 91.79152596875, 30 91.79152596875, 30 179" stroke="black" clip-path="url(#clip-0)" x1="0" x2="0" y1="0" y2="1" fill="url(#gradient-0)"></polygon></svg>