<svg width="300" height="200" version="1.1" xmlns="http://www.w3.org/2000/svg" xmlns:xlink="http://www.w3.org/1999/xlink"> <rect width="300" height="200" x="0" y="0" fill="white"></rect> <line x1="34.0" x2="34.0" y1="179" y2="183" stroke="black"></line> <line x1="34.0" x2="34.0" y1="20" y2="179" stroke="#e0e0e0" opacity="nil"></line> <text y="193" x="34.0" fill="black" font-size="12" text-anchor="middle" font-family="sans-serif"> $0</text> <line x1="49.294117647058826" x2="49.294117647058826" y1="179" y2="181" stroke="black"></line> <line x1="49.294117647058826" x2="49.294117647058826" y1="20" y2="179" stroke="#e0e0e0" opacity="nil"></line> <line x1="64.58823529411765" x2="64.58823529411765" y1="179" y2="181" stroke="black"></line> <line x1="64.58823529411765" x2="64.58823529411765" y1="20" y2="179" stroke="#e0e0e0" opacity="nil"></line> <line x1="79.88235294117646" x2="79.88235294117646" y1="179" y2="181" stroke="black"></line> <line x1="79.88235294117646" x2="79.88235294117646" y1="20" y2="179" stroke="#e0e0e0" opacity="nil"></line> <line x1="95.17647058823529" x2="95.17647058823529" y1="179" y2="181" stroke="black"></line> <line x1="95.17647058823529" x2="95.17647058823529" y1="20" y2="179" stroke="#e0e0e0" opacity="nil"></line> <line x1="110.47058823529412" x2="110.47058823529412" y1="179" y2="183" stroke="black"></line> <line x1="110.47058823529412" x2="110.47058823529412" y1="20" y2="179" stroke="#e0e0e0" opacity="nil"></line> <text y="193" x="110.47058823529412" fill="black" font-size="12" text-anchor="middle" font-family="sans-serif"> $10</text> <line x1="125.76470588235294" x2="125.76470588235294" y1="179" y2="181" stroke="black"></line> <line x1="125.76470588235294" x2="125.76470588235294" y1="20" y2="179" stroke="#e0e0e0" opacity="nil"></line> <line x1="141.05882352941177" x2="141.05882352941177" y1="179" y2="181" stroke="black"></line> <line x1="141.05882352941177" x2="141.05882352941177" y1="20" y2="179" stroke="#e0e0e0" opacity="nil"></line> <line x1="156.35294117647058" x2="156.35294117647058" y1="179" y2="181" stroke="black"></line> <line x1="156.35294117647058" x2="156.35294117647058" y1="20" y2="179" stroke="#e0e0e0" opacity="nil"></line> <line x1="171.64705882352942" x2="171.64705882352942" y1="179" y2="181" stroke="black"></line> <line x1="171.64705882352942" x2="171.64705882352942" y1="20" y2="179" stroke="#e0e0e0" opacity="nil"></line> <line x1="186.94117647058823" x2="186.94117647058823" y1="179" y2="183" stroke="black"></line> <line x1="186.94117647058823" x2="186.94117647058823" y1="20" y2="179" stroke="#e0e0e0" opacity="nil"></line> <text y="193" x="186.94117647058823" fill="black" font-size="12" text-anchor="middle" font-family="sans-serif"> $20</text> <line x1="202.23529411764707" x2="202.23529411764707" y1="179" y2="181" stroke="black"></line> <line x1="202.23529411764707" x2="202.23529411764707" y1="20" y2="179" stroke="#e0e0e0" opacity="nil"></line> <line x1="217.52941176470588" x2="217.52941176470588" y1="179" y2="181" stroke="black"></line> <line x1="217.52941176470588" x2="217.52941176470588" y1="20" y2="179" stroke="#e0e0e0" opacity="nil"></line> <line x1="232.8235294117647" x2="232.8235294117647" y1="179" y2="181" stroke="black"></line> <line x1="232.8235294117647" x2="232.8235294117647" y1="20" y2="179" stroke="#e0e0e0" opacity="nil"></line> <line x1="248.1176470588235" x2="248.1176470588235" y1="179" y2="181" stroke="black"></line> <line x1="248.1176470588235" x2="248.1176470588235" y1="20" y2="179" stroke="#e0e0e0" opacity="nil"></line> <line x1="263.4117647058823" x2="263.4117647058823" y1="179" y2="183" stroke="black"></line> <line x1="263.4117647058823" x2="263.4117647058823" y1="20" y2="179" stroke="#e0e0e0" opacity="nil"></line> <text y="193" x="263.4117647058823" fill="black" font-size="12" text-anchor="middle" font-family="sans-serif"> $30</text> <line x1="278.70588235294116" x2="278.70588235294116" y1="179" y2="181" stroke="black"></line> <line x1="278.70588235294116" x2="278.70588235294116" y1="20" y2="179" stroke="#e0e0e0" opacity="nil"></line> <line x1="34" x2="31" y1="179.0" y2="179.0" stroke="black"></line> <line x1="34" x2="290" y1="179.0" y2="179.0" opacity="nil" stroke="#e0e0e0"></line> <line x1="34" x2="31" y1="166.76923076923077" y2="166.76923076923077" stroke="black"></line> <line x1="34" x2="290" y1="166.76923076923077" y2="166.76923076923077" opacity="nil" stroke="#e0e0e0"></line> <text y="170.76923076923077" x="28" fill="black" font-size="12" text-anchor="end" font-family="sans-serif"> 42%</text> <line x1="34" x2="31" y1="154.53846153846155" y2="154.53846153846155" stroke="black"></line> <line x1="34" x2="290" y1="154.53846153846155" y2="154.53846153846155" opacity="nil" stroke="#e0e0e0"></line> <line x1="34" x2="31" y1="142.30769230769232" y2="142.30769230769232" stroke="black"></line> <line x1="34" x2="290" y1="142.30769230769232" y2="142.30769230769232" opacity="nil" stroke="#e0e0e0"></line> <text y="146.30769230769232" x="28" fill="black" font-size="12" text-anchor="end" font-family="sans-serif"> 44%</text> <line x1="34" x2="31" y1="130.07692307692307" y2="130.07692307692307" stroke="black"></line> <line x1="34" x2="290" y1="130.07692307692307" y2="130.07692307692307" opacity="nil" stroke="#e0e0e0"></line> <line x1="34" x2="31" y1="117.84615384615384" y2="117.84615384615384" stroke="black"></line> <line x1="34" x2="290" y1="117.84615384615384" y2="117.84615384615384" opacity="nil" stroke="#e0e0e0"></line> <text y="121.84615384615384" x="28" fill="black" font-size="12" text-anchor="end" font-family="sans-serif"> 46%</text> <line x1="34" x2="31" y1="105.61538461538461" y2="105.61538461538461" stroke="black"></line> <line x1="34" x2="290" y1="105.61538461538461" y2="105.61538461538461" opacity="nil" stroke="#e0e0e0"></line> <line x1="34" x2="31" y1="93.38461538461539" y2="93.38461538461539" stroke="black"></line> <line x1="34" x2="290" y1="93.38461538461539" y2="93.38461538461539" opacity="nil" stroke="#e0e0e0"></line> <text y="97.38461538461539" x="28" fill="black" font-size="12" text-anchor="end" font-family="sans-serif"> 48%</text> <line x1="34" x2="31" y1="81.15384615384615" y2="81.15384615384615" stroke="black"></line> <line x1="34" x2="290" y1="81.15384615384615" y2="81.15384615384615" opacity="nil" stroke="#e0e0e0"></line> <line x1="34" x2="31" y1="68.92307692307692" y2="68.92307692307692" stroke="black"></line> <line x1="34" x2="290" y1="68.92307692307692" y2="68.92307692307692" opacity="nil" stroke="#e0e0e0"></line> <text y="72.92307692307692" x="28" fill="black" font-size="12" text-anchor="end" font-family="sans-serif"> 50%</text> <line x1="34" x2="31" y1="56.69230769230768" y2="56.69230769230768" stroke="black"></line> <line x1="34" x2="290" y1="56.69230769230768" y2="56.69230769230768" opacity="nil" stroke="#e0e0e0"></line> <line x1="34" x2="31" y1="44.46153846153845" y2="44.46153846153845" stroke="black"></line> <line x1="34" x2="290" y1="44.46153846153845" y2="44.46153846153845" opacity="nil" stroke="#e0e0e0"></line> <text y="48.46153846153845" x="28" fill="black" font-size="12" text-anchor="end" font-family="sans-serif"> 52%</text> <line x1="34" x2="31" y1="32.230769230769226" y2="32.230769230769226" stroke="black"></line> <line x1="34" x2="290" y1="32.230769230769226" y2="32.230769230769226" opacity="nil" stroke="#e0e0e0"></line> <line x1="34" x2="31" y1="20.0" y2="20.0" stroke="black"></line> <line x1="34" x2="290" y1="20.0" y2="20.0" opacity="nil" stroke="#e0e0e0"></line> <text y="24.0" x="28" fill="black" font-size="12" text-anchor="end" font-family="sans-serif"> 54%</text> <line x1="34" x2="34" y1="20" y2="184" stroke="black"></line> <line x1="29" x2="290" y1="179" y2="179" stroke="black"></line> <clipPath id="clip-0"> <rect x="34" y="20" width="260" height="159"></rect></clipPath> <line x1="34" x2="41.64705882352941" y1="179.0" y2="165.54615384615383" stroke="black" clip-path="url(#clip-0)" stroke-width="1"></line> <line x1="41.64705882352941" x2="49.294117647058826" y1="165.54615384615383" y2="165.54615384615383" stroke="black" clip-path="url(#clip-0)" stroke-width="1"></line> <line x1="49.294117647058826" x2="56.94117647058823" y1="165.54615384615383" y2="141.08461538461538" stroke="black" clip-path="url(#clip-0)" stroke-width="1"></line> <line x1="56.94117647058823" x2="64.58823529411765" y1="141.08461538461538" y2="147.2" stroke="black" clip-path="url(#clip-0)" stroke-width="1"></line> <line x1="64.58823529411765" x2="72.23529411764706" y1="147.2" y2="147.2" stroke="black" clip-path="url(#clip-0)" stroke-width="1"></line> <line x1="72.23529411764706" x2="79.88235294117646" y1="147.2" y2="155.76153846153846" stroke="black" clip-path="url(#clip-0)" stroke-width="1"></line> <line x1="79.88235294117646" x2="87.52941176470588" y1="155.76153846153846" y2="154.53846153846155" stroke="black" clip-path="url(#clip-0)" stroke-width="1"></line> <line x1="87.52941176470588" x2="95.17647058823529" y1="154.53846153846155" y2="152.09230769230766" stroke="black" clip-path="url(#clip-0)" stroke-width="1"></line> <line x1="95.17647058823529" x2="102.82352941176471" y1="152.09230769230766" y2="137.41538461538462" stroke="black" clip-path="url(#clip-0)" stroke-width="1"></line> <line x1="102.82352941176471" x2="110.47058823529412" y1="137.41538461538462" y2="136.19230769230768" stroke="black" clip-path="url(#clip-0)" stroke-width="1"></line> <line x1="110.47058823529412" x2="118.11764705882354" y1="136.19230769230768" y2="125.1846153846154" stroke="black" clip-path="url(#clip-0)" stroke-width="1"></line> <line x1="118.11764705882354" x2="125.76470588235294" y1="125.1846153846154" y2="119.06923076923078" stroke="black" clip-path="url(#clip-0)" stroke-width="1"></line> <line x1="125.76470588235294" x2="133.41176470588235" y1="119.06923076923078" y2="44.46153846153845" stroke="black" clip-path="url(#clip-0)" stroke-width="1"></line> <line x1="133.41176470588235" x2="141.05882352941177" y1="44.46153846153845" y2="32.230769230769226" stroke="black" clip-path="url(#clip-0)" stroke-width="1"></line> <line x1="141.05882352941177" x2="148.70588235294116" y1="32.230769230769226" y2="38.34615384615384" stroke="black" clip-path="url(#clip-0)" stroke-width="1"></line> <line x1="148.70588235294116" x2="156.35294117647058" y1="38.34615384615384" y2="56.69230769230768" stroke="black" clip-path="url(#clip-0)" stroke-width="1"></line> <line x1="156.35294117647058" x2="164.0" y1="56.69230769230768" y2="68.92307692307692" stroke="black" clip-path="url(#clip-0)" stroke-width="1"></line> <line x1="164.0" x2="171.64705882352942" y1="68.92307692307692" y2="68.92307692307692" stroke="black" clip-path="url(#clip-0)" stroke-width="1"></line> <line x1="171.64705882352942" x2="179.29411764705884" y1="68.92307692307692" y2="68.92307692307692" stroke="black" clip-path="url(#clip-0)" stroke-width="1"></line> <line x1="179.29411764705884" x2="186.94117647058823" y1="68.92307692307692" y2="78.70769230769227" stroke="black" clip-path="url(#clip-0)" stroke-width="1"></line> <line x1="186.94117647058823" x2="194.58823529411765" y1="78.70769230769227" y2="73.8153846153846" stroke="black" clip-path="url(#clip-0)" stroke-width="1"></line> <line x1="194.58823529411765" x2="202.23529411764707" y1="73.8153846153846" y2="68.92307692307692" stroke="black" clip-path="url(#clip-0)" stroke-width="1"></line> <line x1="202.23529411764707" x2="209.8823529411765" y1="68.92307692307692" y2="81.15384615384615" stroke="black" clip-path="url(#clip-0)" stroke-width="1"></line> <line x1="209.8823529411765" x2="217.52941176470588" y1="81.15384615384615" y2="68.92307692307692" stroke="black" clip-path="url(#clip-0)" stroke-width="1"></line> <line x1="217.52941176470588" x2="225.1764705882353" y1="68.92307692307692" y2="81.15384615384615" stroke="black" clip-path="url(#clip-0)" stroke-width="1"></line> <line x1="225.1764705882353" x2="232.8235294117647" y1="81.15384615384615" y2="87.26923076923077" stroke="black" clip-path="url(#clip-0)" stroke-width="1"></line> <line x1="232.8235294117647" x2="240.47058823529412" y1="87.26923076923077" y2="71.3692307692308" stroke="black" clip-path="url(#clip-0)" stroke-width="1"></line> <line x1="240.47058823529412" x2="248.1176470588235" y1="71.3692307692308" y2="93.38461538461539" stroke="black" clip-path="url(#clip-0)" stroke-width="1"></line> <line x1="248.1176470588235" x2="255.76470588235293" y1="93.38461538461539" y2="95.83076923076926" stroke="black" clip-path="url(#clip-0)" stroke-width="1"></line> <line x1="255.76470588235293" x2="263.4117647058823" y1="95.83076923076926" y2="97.05384615384612" stroke="black" clip-path="url(#clip-0)" stroke-width="1"></line> <line x1="263.4117647058823" x2="271.05882352941177" y1="97.05384615384612" y2="105.61538461538461" stroke="black" clip-path="url(#clip-0)" stroke-width="1"></line> <line x1="271.05882352941177" x2="278.70588235294116" y1="105.61538461538461" y2="114.17692307692312" stroke="black" clip-path="url(#clip-0)" stroke-width="1"></line> <line x1="278.70588235294116" x2="286.3529411764706" y1="114.17692307692312" y2="109.28461538461535" stroke="black" clip-path="url(#clip-0)" stroke-width="1"></line> <line x1="286.3529411764706" x2="294" y1="109.28461538461535" y2="95.83076923076926" stroke="black" clip-path="url(#clip-0)" stroke-width="1"></line></svg>