<svg width="300" height="200" version="1.1" xmlns="http://www.w3.org/2000/svg" xmlns:xlink="http://www.w3.org/1999/xlink"> <rect width="300" height="200" x="0" y="0" fill="white"></rect> <line x1="60.588235294117645" x2="60.588235294117645" y1="179" y2="183" stroke="black"></line> <line x1="60.588235294117645" x2="60.588235294117645" y1="20" y2="179" stroke="#e0e0e0" opacity="nil"></line> <text y="193" x="60.588235294117645" fill="black" font-size="12" text-anchor="middle" font-family="sans-serif"> Jan-05*</text> <line x1="114.11764705882354" x2="114.11764705882354" y1="179" y2="183" stroke="black"></line> <line x1="114.11764705882354" x2="114.11764705882354" y1="20" y2="179" stroke="#e0e0e0" opacity="nil"></line> <text y="193" x="114.11764705882354" fill="black" font-size="12" text-anchor="middle" font-family="sans-serif"> Jan-12*</text> <line x1="167.64705882352942" x2="167.64705882352942" y1="179" y2="183" stroke="black"></line> <line x1="167.64705882352942" x2="167.64705882352942" y1="20" y2="179" stroke="#e0e0e0" opacity="nil"></line> <text y="193" x="167.64705882352942" fill="black" font-size="12" text-anchor="middle" font-family="sans-serif"> Jan-19*</text> <line x1="221.1764705882353" x2="221.1764705882353" y1="179" y2="183" stroke="black"></line> <line x1="221.1764705882353" x2="221.1764705882353" y1="20" y2="179" stroke="#e0e0e0" opacity="nil"></line> <text y="193" x="221.1764705882353" fill="black" font-size="12" text-anchor="middle" font-family="sans-serif"> Jan-26*</text> <line x1="274.70588235294116" x2="274.70588235294116" y1="179" y2="183" stroke="black"></line> <line x1="274.70588235294116" x2="274.70588235294116" y1="20" y2="179" stroke="#e0e0e0" opacity="nil"></line> <text y="193" x="274.70588235294116" fill="black" font-size="12" text-anchor="middle" font-family="sans-serif"> Feb-02*</text> <line x1="30" x2="27" y1="179.0" y2="179.0" stroke="black"></line> <line x1="30" x2="290" y1="179.0" y2="179.0" opacity="nil" stroke="#e0e0e0"></line> <line x1="30" x2="27" y1="166.76923076923077" y2="166.76923076923077" stroke="black"></line> <line x1="30" x2="290" y1="166.76923076923077" y2="166.76923076923077" opacity="nil" stroke="#e0e0e0"></line> <text y="170.76923076923077" x="24" fill="black" font-size="12" text-anchor="end" font-family="sans-serif"> 42</text> <line x1="30" x2="27" y1="154.53846153846155" y2="154.53846153846155" stroke="black"></line> <line x1="30" x2="290" y1="154.53846153846155" y2="154.53846153846155" opacity="nil" stroke="#e0e0e0"></line> <line x1="30" x2="27" y1="142.30769230769232" y2="142.30769230769232" stroke="black"></line> <line x1="30" x2="290" y1="142.30769230769232" y2="142.30769230769232" opacity="nil" stroke="#e0e0e0"></line> <text y="146.30769230769232" x="24" fill="black" font-size="12" text-anchor="end" font-family="sans-serif"> 44</text> <line x1="30" x2="27" y1="130.07692307692307" y2="130.07692307692307" stroke="black"></line> <line x1="30" x2="290" y1="130.07692307692307" y2="130.07692307692307" opacity="nil" stroke="#e0e0e0"></line> <line x1="30" x2="27" y1="117.84615384615384" y2="117.84615384615384" stroke="black"></line> <line x1="30" x2="290" y1="117.84615384615384" y2="117.84615384615384" opacity="nil" stroke="#e0e0e0"></line> <text y="121.84615384615384" x="24" fill="black" font-size="12" text-anchor="end" font-family="sans-serif"> 46</text> <line x1="30" x2="27" y1="105.61538461538461" y2="105.61538461538461" stroke="black"></line> <line x1="30" x2="290" y1="105.61538461538461" y2="105.61538461538461" opacity="nil" stroke="#e0e0e0"></line> <line x1="30" x2="27" y1="93.38461538461539" y2="93.38461538461539" stroke="black"></line> <line x1="30" x2="290" y1="93.38461538461539" y2="93.38461538461539" opacity="nil" stroke="#e0e0e0"></line> <text y="97.38461538461539" x="24" fill="black" font-size="12" text-anchor="end" font-family="sans-serif"> 48</text> <line x1="30" x2="27" y1="81.15384615384615" y2="81.15384615384615" stroke="black"></line> <line x1="30" x2="290" y1="81.15384615384615" y2="81.15384615384615" opacity="nil" stroke="#e0e0e0"></line> <line x1="30" x2="27" y1="68.92307692307692" y2="68.92307692307692" stroke="black"></line> <line x1="30" x2="290" y1="68.92307692307692" y2="68.92307692307692" opacity="nil" stroke="#e0e0e0"></line> <text y="72.92307692307692" x="24" fill="black" font-size="12" text-anchor="end" font-family="sans-serif"> 50</text> <line x1="30" x2="27" y1="56.69230769230768" y2="56.69230769230768" stroke="black"></line> <line x1="30" x2="290" y1="56.69230769230768" y2="56.69230769230768" opacity="nil" stroke="#e0e0e0"></line> <line x1="30" x2="27" y1="44.46153846153845" y2="44.46153846153845" stroke="black"></line> <line x1="30" x2="290" y1="44.46153846153845" y2="44.46153846153845" opacity="nil" stroke="#e0e0e0"></line> <text y="48.46153846153845" x="24" fill="black" font-size="12" text-anchor="end" font-family="sans-serif"> 52</text> <line x1="30" x2="27" y1="32.230769230769226" y2="32.230769230769226" stroke="black"></line> <line x1="30" x2="290" y1="32.230769230769226" y2="32.230769230769226" opacity="nil" stroke="#e0e0e0"></line> <line x1="30" x2="27" y1="20.0" y2="20.0" stroke="black"></line> <line x1="30" x2="290" y1="20.0" y2="20.0" opacity="nil" stroke="#e0e0e0"></line> <text y="24.0" x="24" fill="black" font-size="12" text-anchor="end" font-family="sans-serif"> 54</text> <line x1="30" x2="30" y1="20" y2="184" stroke="black"></line> <line x1="25" x2="290" y1="179" y2="179" stroke="black"></line> <clipPath id="clip-0"> <rect x="30" y="20" width="260" height="159"></rect></clipPath> <line x1="30" x2="37.64705882352941" y1="179.0" y2="165.54615384615383" stroke="black" clip-path="url(#clip-0)" stroke-width="1"></line> <line x1="37.64705882352941" x2="45.294117647058826" y1="165.54615384615383" y2="165.54615384615383" stroke="black" clip-path="url(#clip-0)" stroke-width="1"></line> <line x1="45.294117647058826" x2="52.94117647058823" y1="165.54615384615383" y2="141.08461538461538" stroke="black" clip-path="url(#clip-0)" stroke-width="1"></line> <line x1="52.94117647058823" x2="60.588235294117645" y1="141.08461538461538" y2="147.2" stroke="black" clip-path="url(#clip-0)" stroke-width="1"></line> <line x1="60.588235294117645" x2="68.23529411764706" y1="147.2" y2="147.2" stroke="black" clip-path="url(#clip-0)" stroke-width="1"></line> <line x1="68.23529411764706" x2="75.88235294117646" y1="147.2" y2="155.76153846153846" stroke="black" clip-path="url(#clip-0)" stroke-width="1"></line> <line x1="75.88235294117646" x2="83.52941176470588" y1="155.76153846153846" y2="154.53846153846155" stroke="black" clip-path="url(#clip-0)" stroke-width="1"></line> <line x1="83.52941176470588" x2="91.17647058823529" y1="154.53846153846155" y2="152.09230769230766" stroke="black" clip-path="url(#clip-0)" stroke-width="1"></line> <line x1="91.17647058823529" x2="98.82352941176471" y1="152.09230769230766" y2="137.41538461538462" stroke="black" clip-path="url(#clip-0)" stroke-width="1"></line> <line x1="98.82352941176471" x2="106.47058823529412" y1="137.41538461538462" y2="136.19230769230768" stroke="black" clip-path="url(#clip-0)" stroke-width="1"></line> <line x1="106.47058823529412" x2="114.11764705882354" y1="136.19230769230768" y2="125.1846153846154" stroke="black" clip-path="url(#clip-0)" stroke-width="1"></line> <line x1="114.11764705882354" x2="121.76470588235294" y1="125.1846153846154" y2="119.06923076923078" stroke="black" clip-path="url(#clip-0)" stroke-width="1"></line> <line x1="121.76470588235294" x2="129.41176470588235" y1="119.06923076923078" y2="44.46153846153845" stroke="black" clip-path="url(#clip-0)" stroke-width="1"></line> <line x1="129.41176470588235" x2="137.05882352941177" y1="44.46153846153845" y2="32.230769230769226" stroke="black" clip-path="url(#clip-0)" stroke-width="1"></line> <line x1="137.05882352941177" x2="144.70588235294116" y1="32.230769230769226" y2="38.34615384615384" stroke="black" clip-path="url(#clip-0)" stroke-width="1"></line> <line x1="144.70588235294116" x2="152.35294117647058" y1="38.34615384615384" y2="56.69230769230768" stroke="black" clip-path="url(#clip-0)" stroke-width="1"></line> <line x1="152.35294117647058" x2="160.0" y1="56.69230769230768" y2="68.92307692307692" stroke="black" clip-path="url(#clip-0)" stroke-width="1"></line> <line x1="160.0" x2="167.64705882352942" y1="68.92307692307692" y2="68.92307692307692" stroke="black" clip-path="url(#clip-0)" stroke-width="1"></line> <line x1="167.64705882352942" x2="175.29411764705884" y1="68.92307692307692" y2="68.92307692307692" stroke="black" clip-path="url(#clip-0)" stroke-width="1"></line> <line x1="175.29411764705884" x2="182.94117647058823" y1="68.92307692307692" y2="78.70769230769227" stroke="black" clip-path="url(#clip-0)" stroke-width="1"></line> <line x1="182.94117647058823" x2="190.58823529411765" y1="78.70769230769227" y2="73.8153846153846" stroke="black" clip-path="url(#clip-0)" stroke-width="1"></line> <line x1="190.58823529411765" x2="198.23529411764707" y1="73.8153846153846" y2="68.92307692307692" stroke="black" clip-path="url(#clip-0)" stroke-width="1"></line> <line x1="198.23529411764707" x2="205.8823529411765" y1="68.92307692307692" y2="81.15384615384615" stroke="black" clip-path="url(#clip-0)" stroke-width="1"></line> <line x1="205.8823529411765" x2="213.52941176470588" y1="81.15384615384615" y2="68.92307692307692" stroke="black" clip-path="url(#clip-0)" stroke-width="1"></line> <line x1="213.52941176470588" x2="221.1764705882353" y1="68.92307692307692" y2="81.15384615384615" stroke="black" clip-path="url(#clip-0)" stroke-width="1"></line> <line x1="221.1764705882353" x2="228.8235294117647" y1="81.15384615384615" y2="87.26923076923077" stroke="black" clip-path="url(#clip-0)" stroke-width="1"></line> <line x1="228.8235294117647" x2="236.47058823529412" y1="87.26923076923077" y2="71.3692307692308" stroke="black" clip-path="url(#clip-0)" stroke-width="1"></line> <line x1="236.47058823529412" x2="244.1176470588235" y1="71.3692307692308" y2="93.38461538461539" stroke="black" clip-path="url(#clip-0)" stroke-width="1"></line> <line x1="244.1176470588235" x2="251.76470588235293" y1="93.38461538461539" y2="95.83076923076926" stroke="black" clip-path="url(#clip-0)" stroke-width="1"></line> <line x1="251.76470588235293" x2="259.4117647058823" y1="95.83076923076926" y2="97.05384615384612" stroke="black" clip-path="url(#clip-0)" stroke-width="1"></line> <line x1="259.4117647058823" x2="267.05882352941177" y1="97.05384615384612" y2="105.61538461538461" stroke="black" clip-path="url(#clip-0)" stroke-width="1"></line> <line x1="267.05882352941177" x2="274.70588235294116" y1="105.61538461538461" y2="114.17692307692312" stroke="black" clip-path="url(#clip-0)" stroke-width="1"></line> <line x1="274.70588235294116" x2="282.3529411764706" y1="114.17692307692312" y2="109.28461538461535" stroke="black" clip-path="url(#clip-0)" stroke-width="1"></line> <line x1="282.3529411764706" x2="290" y1="109.28461538461535" y2="95.83076923076926" stroke="black" clip-path="url(#clip-0)" stroke-width="1"></line></svg>