<svg width="300" height="200" version="1.1" xmlns="http://www.w3.org/2000/svg" xmlns:xlink="http://www.w3.org/1999/xlink"> <defs> <linearGradient id="gradient-gradrRVHRk" x1="0" x2="0" y1="0" y2="1"> <stop offset="0%" stop-color="blue"></stop> <stop offset="100%" stop-color="black"></stop></linearGradient> <linearGradient id="gradient-gradvPJkuJ" x1="0" x2="0" y1="0" y2="1"> <stop offset="0%" stop-color="blue"></stop> <stop offset="100%" stop-color="black"></stop></linearGradient> <linearGradient id="gradient-gradWazgKd" x1="0" x2="0" y1="0" y2="1"> <stop offset="0%" stop-color="blue"></stop> <stop offset="100%" stop-color="black"></stop></linearGradient> <linearGradient id="gradient-0" x1="0" x2="0" y1="0" y2="1"> <stop offset="0%" stop-color="blue"></stop> <stop offset="100%" stop-color="black"></stop></linearGradient></defs> <rect width="300" height="200" x="0" y="0" fill="#222"></rect> <clipPath id="clip-0"> <rect x="30" y="20" width="260" height="159"></rect></clipPath> <rect width="78.0" height="159.0" x="38.66666666666667" y="20.0" clip-path="url(#clip-0)" x1="0" x2="0" y1="0" y2="1" fill="url(#gradient-gradrRVHRk)"></rect> <rect width="78.0" height="96.36363636363636" x="125.33333333333333" y="82.63636363636364" clip-path="url(#clip-0)" x1="0" x2="0" y1="0" y2="1" fill="url(#gradient-gradvPJkuJ)"></rect> <rect width="78.0" height="115.63636363636364" x="211.99999999999997" y="63.36363636363636" clip-path="url(#clip-0)" x1="0" x2="0" y1="0" y2="1" fill="url(#gradient-gradWazgKd)"></rect> <polygon points="30 179, 203.33333333333331 179" stroke="nil" clip-path="url(#clip-0)" x1="0" x2="0" y1="0" y2="1" fill="url(#gradient-0)"></polygon> <text y="194" x="77.66666666666667" fill="#ccc" font-size="12" text-anchor="middle" font-family="sans-serif"> Apples</text> <text y="194" x="164.33333333333334" fill="#ccc" font-size="12" text-anchor="middle" font-family="sans-serif"> Oranges</text> <text y="194" x="251.00000000000003" fill="#ccc" font-size="12" text-anchor="middle" font-family="sans-serif"> Appanges</text> <line x1="30" x2="27" y1="179.0" y2="179.0" stroke="#ccc"></line> <line x1="30" x2="290" y1="179.0" y2="179.0" opacity="0.2" stroke="#e0e0e0"></line> <text y="183.0" x="24" fill="#ccc" font-size="12" text-anchor="end" font-family="sans-serif"> 0</text> <line x1="30" x2="27" y1="154.9090909090909" y2="154.9090909090909" stroke="#ccc"></line> <line x1="30" x2="290" y1="154.9090909090909" y2="154.9090909090909" opacity="0.2" stroke="#e0e0e0"></line> <text y="158.9090909090909" x="24" fill="#ccc" font-size="12" text-anchor="end" font-family="sans-serif"> 5</text> <line x1="30" x2="27" y1="130.8181818181818" y2="130.8181818181818" stroke="#ccc"></line> <line x1="30" x2="290" y1="130.8181818181818" y2="130.8181818181818" opacity="0.2" stroke="#e0e0e0"></line> <text y="134.8181818181818" x="24" fill="#ccc" font-size="12" text-anchor="end" font-family="sans-serif"> 10</text> <line x1="30" x2="27" y1="106.72727272727273" y2="106.72727272727273" stroke="#ccc"></line> <line x1="30" x2="290" y1="106.72727272727273" y2="106.72727272727273" opacity="0.2" stroke="#e0e0e0"></line> <text y="110.72727272727273" x="24" fill="#ccc" font-size="12" text-anchor="end" font-family="sans-serif"> 15</text> <line x1="30" x2="27" y1="82.63636363636364" y2="82.63636363636364" stroke="#ccc"></line> <line x1="30" x2="290" y1="82.63636363636364" y2="82.63636363636364" opacity="0.2" stroke="#e0e0e0"></line> <text y="86.63636363636364" x="24" fill="#ccc" font-size="12" text-anchor="end" font-family="sans-serif"> 20</text> <line x1="30" x2="27" y1="58.54545454545455" y2="58.54545454545455" stroke="#ccc"></line> <line x1="30" x2="290" y1="58.54545454545455" y2="58.54545454545455" opacity="0.2" stroke="#e0e0e0"></line> <text y="62.54545454545455" x="24" fill="#ccc" font-size="12" text-anchor="end" font-family="sans-serif"> 25</text> <line x1="30" x2="27" y1="34.45454545454547" y2="34.45454545454547" stroke="#ccc"></line> <line x1="30" x2="290" y1="34.45454545454547" y2="34.45454545454547" opacity="0.2" stroke="#e0e0e0"></line> <text y="38.45454545454547" x="24" fill="#ccc" font-size="12" text-anchor="end" font-family="sans-serif"> 30</text> <line x1="30" x2="30" y1="20" y2="184" stroke="#ccc"></line> <line x1="25" x2="290" y1="179" y2="179" stroke="#ccc"></line></svg>