<svg width="300" height="200" version="1.1" xmlns="http://www.w3.org/2000/svg" xmlns:xlink="http://www.w3.org/1999/xlink"> <rect width="300" height="200" x="0" y="0" fill="white"></rect> <line x1="34.0" x2="34.0" y1="179" y2="183" stroke="black"></line> <line x1="34.0" x2="34.0" y1="20" y2="179" stroke="#e0e0e0" opacity="1"></line> <text y="193" x="34.0" fill="black" font-weight="normal" font-size="12" text-anchor="middle" font-family="sans-serif"> 0</text> <line x1="52.285714285714285" x2="52.285714285714285" y1="179" y2="183" stroke="black"></line> <line x1="52.285714285714285" x2="52.285714285714285" y1="20" y2="179" stroke="#e0e0e0" opacity="1"></line> <text y="193" x="52.285714285714285" fill="black" font-weight="normal" font-size="12" text-anchor="middle" font-family="sans-serif"> 1</text> <line x1="70.57142857142857" x2="70.57142857142857" y1="179" y2="183" stroke="black"></line> <line x1="70.57142857142857" x2="70.57142857142857" y1="20" y2="179" stroke="#e0e0e0" opacity="1"></line> <text y="193" x="70.57142857142857" fill="black" font-weight="normal" font-size="12" text-anchor="middle" font-family="sans-serif"> 2</text> <line x1="88.85714285714286" x2="88.85714285714286" y1="179" y2="183" stroke="black"></line> <line x1="88.85714285714286" x2="88.85714285714286" y1="20" y2="179" stroke="#e0e0e0" opacity="1"></line> <text y="193" x="88.85714285714286" fill="black" font-weight="normal" font-size="12" text-anchor="middle" font-family="sans-serif"> 3</text> <line x1="107.14285714285714" x2="107.14285714285714" y1="179" y2="183" stroke="black"></line> <line x1="107.14285714285714" x2="107.14285714285714" y1="20" y2="179" stroke="#e0e0e0" opacity="1"></line> <text y="193" x="107.14285714285714" fill="black" font-weight="normal" font-size="12" text-anchor="middle" font-family="sans-serif"> 4</text> <line x1="125.42857142857143" x2="125.42857142857143" y1="179" y2="183" stroke="black"></line> <line x1="125.42857142857143" x2="125.42857142857143" y1="20" y2="179" stroke="#e0e0e0" opacity="1"></line> <text y="193" x="125.42857142857143" fill="black" font-weight="normal" font-size="12" text-anchor="middle" font-family="sans-serif"> 5</text> <line x1="143.71428571428572" x2="143.71428571428572" y1="179" y2="183" stroke="black"></line> <line x1="143.71428571428572" x2="143.71428571428572" y1="20" y2="179" stroke="#e0e0e0" opacity="1"></line> <text y="193" x="143.71428571428572" fill="black" font-weight="normal" font-size="12" text-anchor="middle" font-family="sans-serif"> 6</text> <line x1="162.0" x2="162.0" y1="179" y2="183" stroke="black"></line> <line x1="162.0" x2="162.0" y1="20" y2="179" stroke="#e0e0e0" opacity="1"></line> <text y="193" x="162.0" fill="black" font-weight="normal" font-size="12" text-anchor="middle" font-family="sans-serif"> 7</text> <line x1="180.28571428571428" x2="180.28571428571428" y1="179" y2="183" stroke="black"></line> <line x1="180.28571428571428" x2="180.28571428571428" y1="20" y2="179" stroke="#e0e0e0" opacity="1"></line> <text y="193" x="180.28571428571428" fill="black" font-weight="normal" font-size="12" text-anchor="middle" font-family="sans-serif"> 8</text> <line x1="198.57142857142858" x2="198.57142857142858" y1="179" y2="183" stroke="black"></line> <line x1="198.57142857142858" x2="198.57142857142858" y1="20" y2="179" stroke="#e0e0e0" opacity="1"></line> <text y="193" x="198.57142857142858" fill="black" font-weight="normal" font-size="12" text-anchor="middle" font-family="sans-serif"> 9</text> <line x1="216.85714285714286" x2="216.85714285714286" y1="179" y2="183" stroke="black"></line> <line x1="216.85714285714286" x2="216.85714285714286" y1="20" y2="179" stroke="#e0e0e0" opacity="1"></line> <text y="193" x="216.85714285714286" fill="black" font-weight="normal" font-size="12" text-anchor="middle" font-family="sans-serif"> 10</text> <line x1="235.14285714285714" x2="235.14285714285714" y1="179" y2="183" stroke="black"></line> <line x1="235.14285714285714" x2="235.14285714285714" y1="20" y2="179" stroke="#e0e0e0" opacity="1"></line> <text y="193" x="235.14285714285714" fill="black" font-weight="normal" font-size="12" text-anchor="middle" font-family="sans-serif"> 11</text> <line x1="253.42857142857142" x2="253.42857142857142" y1="179" y2="183" stroke="black"></line> <line x1="253.42857142857142" x2="253.42857142857142" y1="20" y2="179" stroke="#e0e0e0" opacity="1"></line> <text y="193" x="253.42857142857142" fill="black" font-weight="normal" font-size="12" text-anchor="middle" font-family="sans-serif"> 12</text> <line x1="271.7142857142857" x2="271.7142857142857" y1="179" y2="183" stroke="black"></line> <line x1="271.7142857142857" x2="271.7142857142857" y1="20" y2="179" stroke="#e0e0e0" opacity="1"></line> <text y="193" x="271.7142857142857" fill="black" font-weight="normal" font-size="12" text-anchor="middle" font-family="sans-serif"> 13</text> <line x1="290.0" x2="290.0" y1="179" y2="183" stroke="black"></line> <line x1="290.0" x2="290.0" y1="20" y2="179" stroke="#e0e0e0" opacity="1"></line> <text y="193" x="290.0" fill="black" font-weight="normal" font-size="12" text-anchor="middle" font-family="sans-serif"> 14</text> <line x1="34" x2="31" y1="179.0" y2="179.0" stroke="black"></line> <line x1="34" x2="290" y1="179.0" y2="179.0" opacity="1" stroke="#e0e0e0"></line> <line x1="34" x2="31" y1="166.76923076923077" y2="166.76923076923077" stroke="black"></line> <line x1="34" x2="290" y1="166.76923076923077" y2="166.76923076923077" opacity="1" stroke="#e0e0e0"></line> <text y="170.76923076923077" x="28" fill="black" font-size="12" text-anchor="end" font-family="sans-serif"> 0.02</text> <line x1="34" x2="31" y1="154.53846153846155" y2="154.53846153846155" stroke="black"></line> <line x1="34" x2="290" y1="154.53846153846155" y2="154.53846153846155" opacity="1" stroke="#e0e0e0"></line> <line x1="34" x2="31" y1="142.30769230769232" y2="142.30769230769232" stroke="black"></line> <line x1="34" x2="290" y1="142.30769230769232" y2="142.30769230769232" opacity="1" stroke="#e0e0e0"></line> <text y="146.30769230769232" x="28" fill="black" font-size="12" text-anchor="end" font-family="sans-serif"> 0.04</text> <line x1="34" x2="31" y1="130.07692307692307" y2="130.07692307692307" stroke="black"></line> <line x1="34" x2="290" y1="130.07692307692307" y2="130.07692307692307" opacity="1" stroke="#e0e0e0"></line> <line x1="34" x2="31" y1="117.84615384615385" y2="117.84615384615385" stroke="black"></line> <line x1="34" x2="290" y1="117.84615384615385" y2="117.84615384615385" opacity="1" stroke="#e0e0e0"></line> <text y="121.84615384615385" x="28" fill="black" font-size="12" text-anchor="end" font-family="sans-serif"> 0.06</text> <line x1="34" x2="31" y1="105.61538461538461" y2="105.61538461538461" stroke="black"></line> <line x1="34" x2="290" y1="105.61538461538461" y2="105.61538461538461" opacity="1" stroke="#e0e0e0"></line> <line x1="34" x2="31" y1="93.38461538461537" y2="93.38461538461537" stroke="black"></line> <line x1="34" x2="290" y1="93.38461538461537" y2="93.38461538461537" opacity="1" stroke="#e0e0e0"></line> <text y="97.38461538461537" x="28" fill="black" font-size="12" text-anchor="end" font-family="sans-serif"> 0.08</text> <line x1="34" x2="31" y1="81.15384615384615" y2="81.15384615384615" stroke="black"></line> <line x1="34" x2="290" y1="81.15384615384615" y2="81.15384615384615" opacity="1" stroke="#e0e0e0"></line> <line x1="34" x2="31" y1="68.9230769230769" y2="68.9230769230769" stroke="black"></line> <line x1="34" x2="290" y1="68.9230769230769" y2="68.9230769230769" opacity="1" stroke="#e0e0e0"></line> <text y="72.9230769230769" x="28" fill="black" font-size="12" text-anchor="end" font-family="sans-serif"> 0.10</text> <line x1="34" x2="31" y1="56.69230769230768" y2="56.69230769230768" stroke="black"></line> <line x1="34" x2="290" y1="56.69230769230768" y2="56.69230769230768" opacity="1" stroke="#e0e0e0"></line> <line x1="34" x2="31" y1="44.46153846153845" y2="44.46153846153845" stroke="black"></line> <line x1="34" x2="290" y1="44.46153846153845" y2="44.46153846153845" opacity="1" stroke="#e0e0e0"></line> <text y="48.46153846153845" x="28" fill="black" font-size="12" text-anchor="end" font-family="sans-serif"> 0.12</text> <line x1="34" x2="31" y1="32.230769230769226" y2="32.230769230769226" stroke="black"></line> <line x1="34" x2="290" y1="32.230769230769226" y2="32.230769230769226" opacity="1" stroke="#e0e0e0"></line> <line x1="34" x2="31" y1="20.0" y2="20.0" stroke="black"></line> <line x1="34" x2="290" y1="20.0" y2="20.0" opacity="1" stroke="#e0e0e0"></line> <text y="24.0" x="28" fill="black" font-size="12" text-anchor="end" font-family="sans-serif"> 0.14</text> <line x1="34" x2="34" y1="20" y2="184" stroke="black"></line> <line x1="29" x2="290" y1="179" y2="179" stroke="black"></line> <clipPath id="clip-0"> <rect x="34" y="20" width="256" height="159"></rect></clipPath> <line x1="34" x2="52.285714285714285" y1="179.0" y2="142.30769230769232" stroke="black" clip-path="url(#clip-0)" stroke-width="1"></line> <line x1="52.285714285714285" x2="70.57142857142857" y1="142.30769230769232" y2="142.30769230769232" stroke="black" clip-path="url(#clip-0)" stroke-width="1"></line> <line x1="70.57142857142857" x2="88.85714285714286" y1="142.30769230769232" y2="154.53846153846155" stroke="black" clip-path="url(#clip-0)" stroke-width="1"></line> <line x1="88.85714285714286" x2="107.14285714285714" y1="154.53846153846155" y2="130.07692307692307" stroke="black" clip-path="url(#clip-0)" stroke-width="1"></line> <line x1="107.14285714285714" x2="125.42857142857143" y1="130.07692307692307" y2="105.61538461538461" stroke="black" clip-path="url(#clip-0)" stroke-width="1"></line> <line x1="125.42857142857143" x2="143.71428571428572" y1="105.61538461538461" y2="93.38461538461537" stroke="black" clip-path="url(#clip-0)" stroke-width="1"></line> <line x1="143.71428571428572" x2="162.0" y1="93.38461538461537" y2="68.9230769230769" stroke="black" clip-path="url(#clip-0)" stroke-width="1"></line> <line x1="162.0" x2="180.28571428571428" y1="68.9230769230769" y2="56.69230769230768" stroke="black" clip-path="url(#clip-0)" stroke-width="1"></line> <line x1="180.28571428571428" x2="198.57142857142858" y1="56.69230769230768" y2="105.61538461538461" stroke="black" clip-path="url(#clip-0)" stroke-width="1"></line> <line x1="198.57142857142858" x2="216.85714285714286" y1="105.61538461538461" y2="93.38461538461537" stroke="black" clip-path="url(#clip-0)" stroke-width="1"></line> <line x1="216.85714285714286" x2="235.14285714285714" y1="93.38461538461537" y2="68.9230769230769" stroke="black" clip-path="url(#clip-0)" stroke-width="1"></line> <line x1="235.14285714285714" x2="253.42857142857142" y1="68.9230769230769" y2="56.69230769230768" stroke="black" clip-path="url(#clip-0)" stroke-width="1"></line> <line x1="253.42857142857142" x2="271.7142857142857" y1="56.69230769230768" y2="20.0" stroke="black" clip-path="url(#clip-0)" stroke-width="1"></line> <line x1="271.7142857142857" x2="290" y1="20.0" y2="105.61538461538461" stroke="black" clip-path="url(#clip-0)" stroke-width="1"></line></svg>