<svg width="300" height="200" version="1.1" xmlns="http://www.w3.org/2000/svg" xmlns:xlink="http://www.w3.org/1999/xlink"> <defs> <linearGradient id="gradient-0" x1="0" x2="0" y1="0" y2="1"> <stop offset="0%" stop-color="lightblue"></stop> <stop offset="100%" stop-color="lightblue"></stop></linearGradient></defs> <rect width="300" height="200" x="0" y="0" fill="white"></rect> <line x1="30.0" x2="30.0" y1="179" y2="183" stroke="black"></line> <line x1="30.0" x2="30.0" y1="20" y2="179" stroke="#e0e0e0" opacity="nil"></line> <text y="193" x="30.0" fill="black" font-size="12" text-anchor="middle" font-family="sans-serif"> 0</text> <line x1="45.294117647058826" x2="45.294117647058826" y1="179" y2="181" stroke="black"></line> <line x1="45.294117647058826" x2="45.294117647058826" y1="20" y2="179" stroke="#e0e0e0" opacity="nil"></line> <line x1="60.588235294117645" x2="60.588235294117645" y1="179" y2="181" stroke="black"></line> <line x1="60.588235294117645" x2="60.588235294117645" y1="20" y2="179" stroke="#e0e0e0" opacity="nil"></line> <line x1="75.88235294117646" x2="75.88235294117646" y1="179" y2="181" stroke="black"></line> <line x1="75.88235294117646" x2="75.88235294117646" y1="20" y2="179" stroke="#e0e0e0" opacity="nil"></line> <line x1="91.17647058823529" x2="91.17647058823529" y1="179" y2="181" stroke="black"></line> <line x1="91.17647058823529" x2="91.17647058823529" y1="20" y2="179" stroke="#e0e0e0" opacity="nil"></line> <line x1="106.47058823529412" x2="106.47058823529412" y1="179" y2="183" stroke="black"></line> <line x1="106.47058823529412" x2="106.47058823529412" y1="20" y2="179" stroke="#e0e0e0" opacity="nil"></line> <text y="193" x="106.47058823529412" fill="black" font-size="12" text-anchor="middle" font-family="sans-serif"> 10</text> <line x1="121.76470588235294" x2="121.76470588235294" y1="179" y2="181" stroke="black"></line> <line x1="121.76470588235294" x2="121.76470588235294" y1="20" y2="179" stroke="#e0e0e0" opacity="nil"></line> <line x1="137.05882352941177" x2="137.05882352941177" y1="179" y2="181" stroke="black"></line> <line x1="137.05882352941177" x2="137.05882352941177" y1="20" y2="179" stroke="#e0e0e0" opacity="nil"></line> <line x1="152.35294117647058" x2="152.35294117647058" y1="179" y2="181" stroke="black"></line> <line x1="152.35294117647058" x2="152.35294117647058" y1="20" y2="179" stroke="#e0e0e0" opacity="nil"></line> <line x1="167.64705882352942" x2="167.64705882352942" y1="179" y2="181" stroke="black"></line> <line x1="167.64705882352942" x2="167.64705882352942" y1="20" y2="179" stroke="#e0e0e0" opacity="nil"></line> <line x1="182.94117647058823" x2="182.94117647058823" y1="179" y2="183" stroke="black"></line> <line x1="182.94117647058823" x2="182.94117647058823" y1="20" y2="179" stroke="#e0e0e0" opacity="nil"></line> <text y="193" x="182.94117647058823" fill="black" font-size="12" text-anchor="middle" font-family="sans-serif"> 20</text> <line x1="198.23529411764707" x2="198.23529411764707" y1="179" y2="181" stroke="black"></line> <line x1="198.23529411764707" x2="198.23529411764707" y1="20" y2="179" stroke="#e0e0e0" opacity="nil"></line> <line x1="213.52941176470588" x2="213.52941176470588" y1="179" y2="181" stroke="black"></line> <line x1="213.52941176470588" x2="213.52941176470588" y1="20" y2="179" stroke="#e0e0e0" opacity="nil"></line> <line x1="228.8235294117647" x2="228.8235294117647" y1="179" y2="181" stroke="black"></line> <line x1="228.8235294117647" x2="228.8235294117647" y1="20" y2="179" stroke="#e0e0e0" opacity="nil"></line> <line x1="244.1176470588235" x2="244.1176470588235" y1="179" y2="181" stroke="black"></line> <line x1="244.1176470588235" x2="244.1176470588235" y1="20" y2="179" stroke="#e0e0e0" opacity="nil"></line> <line x1="259.4117647058823" x2="259.4117647058823" y1="179" y2="183" stroke="black"></line> <line x1="259.4117647058823" x2="259.4117647058823" y1="20" y2="179" stroke="#e0e0e0" opacity="nil"></line> <text y="193" x="259.4117647058823" fill="black" font-size="12" text-anchor="middle" font-family="sans-serif"> 30</text> <line x1="274.70588235294116" x2="274.70588235294116" y1="179" y2="181" stroke="black"></line> <line x1="274.70588235294116" x2="274.70588235294116" y1="20" y2="179" stroke="#e0e0e0" opacity="nil"></line> <line x1="290.0" x2="290.0" y1="179" y2="181" stroke="black"></line> <line x1="290.0" x2="290.0" y1="20" y2="179" stroke="#e0e0e0" opacity="nil"></line> <line x1="30" x2="27" y1="179.0" y2="179.0" stroke="black"></line> <line x1="30" x2="290" y1="179.0" y2="179.0" opacity="nil" stroke="#e0e0e0"></line> <text y="183.0" x="24" fill="black" font-size="12" text-anchor="end" font-family="sans-serif"> 40</text> <line x1="30" x2="27" y1="168.107625429461" y2="168.107625429461" stroke="black"></line> <line x1="30" x2="290" y1="168.107625429461" y2="168.107625429461" opacity="nil" stroke="#e0e0e0"></line> <text y="172.107625429461" x="24" fill="black" font-size="12" text-anchor="end" font-family="sans-serif"> 42</text> <line x1="30" x2="27" y1="157.21525085892196" y2="157.21525085892196" stroke="black"></line> <line x1="30" x2="290" y1="157.21525085892196" y2="157.21525085892196" opacity="nil" stroke="#e0e0e0"></line> <text y="161.21525085892196" x="24" fill="black" font-size="12" text-anchor="end" font-family="sans-serif"> 44</text> <line x1="30" x2="27" y1="146.32287628838296" y2="146.32287628838296" stroke="black"></line> <line x1="30" x2="290" y1="146.32287628838296" y2="146.32287628838296" opacity="nil" stroke="#e0e0e0"></line> <text y="150.32287628838296" x="24" fill="black" font-size="12" text-anchor="end" font-family="sans-serif"> 46</text> <line x1="30" x2="27" y1="135.43050171784392" y2="135.43050171784392" stroke="black"></line> <line x1="30" x2="290" y1="135.43050171784392" y2="135.43050171784392" opacity="nil" stroke="#e0e0e0"></line> <text y="139.43050171784392" x="24" fill="black" font-size="12" text-anchor="end" font-family="sans-serif"> 48</text> <line x1="30" x2="27" y1="124.53812714730492" y2="124.53812714730492" stroke="black"></line> <line x1="30" x2="290" y1="124.53812714730492" y2="124.53812714730492" opacity="nil" stroke="#e0e0e0"></line> <text y="128.53812714730492" x="24" fill="black" font-size="12" text-anchor="end" font-family="sans-serif"> 50</text> <line x1="30" x2="27" y1="113.6457525767659" y2="113.6457525767659" stroke="black"></line> <line x1="30" x2="290" y1="113.6457525767659" y2="113.6457525767659" opacity="nil" stroke="#e0e0e0"></line> <text y="117.6457525767659" x="24" fill="black" font-size="12" text-anchor="end" font-family="sans-serif"> 52</text> <line x1="30" x2="27" y1="102.7533780062269" y2="102.7533780062269" stroke="black"></line> <line x1="30" x2="290" y1="102.7533780062269" y2="102.7533780062269" opacity="nil" stroke="#e0e0e0"></line> <text y="106.7533780062269" x="24" fill="black" font-size="12" text-anchor="end" font-family="sans-serif"> 54</text> <line x1="30" x2="27" y1="91.86100343568788" y2="91.86100343568788" stroke="black"></line> <line x1="30" x2="290" y1="91.86100343568788" y2="91.86100343568788" opacity="nil" stroke="#e0e0e0"></line> <text y="95.86100343568788" x="24" fill="black" font-size="12" text-anchor="end" font-family="sans-serif"> 56</text> <line x1="30" x2="27" y1="80.96862886514887" y2="80.96862886514887" stroke="black"></line> <line x1="30" x2="290" y1="80.96862886514887" y2="80.96862886514887" opacity="nil" stroke="#e0e0e0"></line> <text y="84.96862886514887" x="24" fill="black" font-size="12" text-anchor="end" font-family="sans-serif"> 58</text> <line x1="30" x2="27" y1="70.07625429460984" y2="70.07625429460984" stroke="black"></line> <line x1="30" x2="290" y1="70.07625429460984" y2="70.07625429460984" opacity="nil" stroke="#e0e0e0"></line> <text y="74.07625429460984" x="24" fill="black" font-size="12" text-anchor="end" font-family="sans-serif"> 60</text> <line x1="30" x2="27" y1="59.183879724070835" y2="59.183879724070835" stroke="black"></line> <line x1="30" x2="290" y1="59.183879724070835" y2="59.183879724070835" opacity="nil" stroke="#e0e0e0"></line> <text y="63.183879724070835" x="24" fill="black" font-size="12" text-anchor="end" font-family="sans-serif"> 62</text> <line x1="30" x2="27" y1="48.2915051535318" y2="48.2915051535318" stroke="black"></line> <line x1="30" x2="290" y1="48.2915051535318" y2="48.2915051535318" opacity="nil" stroke="#e0e0e0"></line> <text y="52.2915051535318" x="24" fill="black" font-size="12" text-anchor="end" font-family="sans-serif"> 64</text> <line x1="30" x2="27" y1="37.3991305829928" y2="37.3991305829928" stroke="black"></line> <line x1="30" x2="290" y1="37.3991305829928" y2="37.3991305829928" opacity="nil" stroke="#e0e0e0"></line> <text y="41.3991305829928" x="24" fill="black" font-size="12" text-anchor="end" font-family="sans-serif"> 66</text> <line x1="30" x2="27" y1="26.506756012453792" y2="26.506756012453792" stroke="black"></line> <line x1="30" x2="290" y1="26.506756012453792" y2="26.506756012453792" opacity="nil" stroke="#e0e0e0"></line> <text y="30.506756012453792" x="24" fill="black" font-size="12" text-anchor="end" font-family="sans-serif"> 68</text> <line x1="30" x2="30" y1="20" y2="184" stroke="black"></line> <line x1="25" x2="290" y1="179" y2="179" stroke="black"></line> <clipPath id="clip-0"> <rect x="30" y="20" width="260" height="159"></rect></clipPath> <polygon points="30 179, 30 173.5538127147305, 30 167.56300670093404, 37.64705882352941 167.56300670093404, 37.64705882352941 167.56300670093404, 45.294117647058826 167.56300670093404, 45.294117647058826 156.670632130395, 52.94117647058823 156.670632130395, 52.94117647058823 159.39372577302976, 60.588235294117645 159.39372577302976, 60.588235294117645 159.39372577302976, 68.23529411764706 159.39372577302976, 68.23529411764706 163.20605687271842, 75.88235294117646 163.20605687271842, 75.88235294117646 162.66143814419146, 83.52941176470588 162.66143814419146, 83.52941176470588 161.57220068713755, 91.17647058823529 161.57220068713755, 91.17647058823529 155.03677594481417, 98.82352941176471 155.03677594481417, 98.82352941176471 154.4921572162872, 106.47058823529412 154.4921572162872, 106.47058823529412 149.59058865954466, 114.11764705882354 149.59058865954466, 114.11764705882354 146.8674950169099, 121.76470588235294 146.8674950169099, 121.76470588235294 113.6457525767659, 129.41176470588235 113.6457525767659, 129.41176470588235 108.1995652914964, 137.05882352941177 108.1995652914964, 137.05882352941177 110.92265893413115, 144.70588235294116 110.92265893413115, 144.70588235294116 119.09193986203542, 152.35294117647058 119.09193986203542, 152.35294117647058 124.53812714730492, 160.0 124.53812714730492, 160.0 124.53812714730492, 167.64705882352942 124.53812714730492, 167.64705882352942 124.53812714730492, 175.29411764705884 124.53812714730492, 175.29411764705884 128.8950769755205, 182.94117647058823 128.8950769755205, 182.94117647058823 126.71660206141271, 190.58823529411765 126.71660206141271, 190.58823529411765 124.53812714730492, 198.23529411764707 124.53812714730492, 198.23529411764707 129.98431443257442, 205.8823529411765 129.98431443257442, 205.8823529411765 124.53812714730492, 213.52941176470588 124.53812714730492, 213.52941176470588 129.98431443257442, 221.1764705882353 129.98431443257442, 221.1764705882353 132.70740807520917, 228.8235294117647 132.70740807520917, 228.8235294117647 125.62736460435883, 236.47058823529412 125.62736460435883, 236.47058823529412 135.43050171784392, 244.1176470588235 135.43050171784392, 244.1176470588235 136.51973917489784, 251.76470588235293 136.51973917489784, 251.76470588235293 137.06435790342476, 259.4117647058823 137.06435790342476, 259.4117647058823 140.87668900311346, 267.05882352941177 140.87668900311346, 267.05882352941177 144.68902010280212, 274.70588235294116 144.68902010280212, 274.70588235294116 142.5105451886943, 282.3529411764706 142.5105451886943, 282.3529411764706 136.51973917489784, 290 136.51973917489784, 290 70.07625429460984, 290 70.07625429460984, 290 53.73769243880132, 282.3529411764706 53.73769243880132, 282.3529411764706 70.07625429460984, 274.70588235294116 70.07625429460984, 274.70588235294116 53.73769243880132, 267.05882352941177 53.73769243880132, 267.05882352941177 80.96862886514887, 259.4117647058823 80.96862886514887, 259.4117647058823 48.2915051535318, 251.76470588235293 48.2915051535318, 251.76470588235293 23.78366236981904, 244.1176470588235 23.78366236981904, 244.1176470588235 31.952943297723294, 236.47058823529412 31.952943297723294, 236.47058823529412 21.06056872718426, 228.8235294117647 21.06056872718426, 228.8235294117647 23.78366236981904, 221.1764705882353 23.78366236981904, 221.1764705882353 31.952943297723294, 213.52941176470588 31.952943297723294, 213.52941176470588 28.690677113846846, 205.8823529411765 28.690677113846846, 205.8823529411765 20.0, 198.23529411764707 20.0, 198.23529411764707 25.435300356886273, 190.58823529411765 25.435300356886273, 190.58823529411765 34.49413428503004, 182.94117647058823 34.49413428503004, 182.94117647058823 27.24706714251502, 175.29411764705884 27.24706714251502, 175.29411764705884 48.98826857006006, 167.64705882352942 48.98826857006006, 167.64705882352942 48.98826857006006, 160.0 48.98826857006006, 160.0 43.55296821317381, 152.35294117647058 43.55296821317381, 152.35294117647058 39.929434641916316, 144.70588235294116 39.929434641916316, 144.70588235294116 50.800035355688806, 137.05882352941177 50.800035355688806, 137.05882352941177 48.98826857006006, 129.41176470588235 48.98826857006006, 129.41176470588235 50.800035355688806, 121.76470588235294 50.800035355688806, 121.76470588235294 50.800035355688806, 114.11764705882354 50.800035355688806, 114.11764705882354 67.10593642634757, 106.47058823529412 67.10593642634757, 106.47058823529412 76.16477035449134, 98.82352941176471 76.16477035449134, 98.82352941176471 76.16477035449134, 91.17647058823529 76.16477035449134, 91.17647058823529 76.16477035449134, 83.52941176470588 76.16477035449134, 83.52941176470588 75.25888696167695, 75.88235294117646 75.25888696167695, 75.88235294117646 72.54123678323383, 68.23529411764706 72.54123678323383, 68.23529411764706 70.72946999760508, 60.588235294117645 70.72946999760508, 60.588235294117645 72.54123678323383, 52.94117647058823 72.54123678323383, 52.94117647058823 70.72946999760508, 45.294117647058826 70.72946999760508, 45.294117647058826 70.72946999760508, 37.64705882352941 70.72946999760508, 37.64705882352941 83.41183749700632, 30 83.41183749700632, 30 179"></polygon></svg>