<svg width="300" height="200" version="1.1" xmlns="http://www.w3.org/2000/svg" xmlns:xlink="http://www.w3.org/1999/xlink"> <rect width="300" height="200" x="0" y="0" fill="white"></rect> <line x1="30.0" x2="30.0" y1="179" y2="183" stroke="black"></line> <line x1="30.0" x2="30.0" y1="20" y2="179" stroke="#e0e0e0" opacity="nil"></line> <text y="193" x="30.0" fill="black" font-size="12" text-anchor="middle" font-family="sans-serif"> 0</text> <line x1="45.294117647058826" x2="45.294117647058826" y1="179" y2="181" stroke="black"></line> <line x1="45.294117647058826" x2="45.294117647058826" y1="20" y2="179" stroke="#e0e0e0" opacity="nil"></line> <line x1="60.588235294117645" x2="60.588235294117645" y1="179" y2="181" stroke="black"></line> <line x1="60.588235294117645" x2="60.588235294117645" y1="20" y2="179" stroke="#e0e0e0" opacity="nil"></line> <line x1="75.88235294117646" x2="75.88235294117646" y1="179" y2="181" stroke="black"></line> <line x1="75.88235294117646" x2="75.88235294117646" y1="20" y2="179" stroke="#e0e0e0" opacity="nil"></line> <line x1="91.17647058823529" x2="91.17647058823529" y1="179" y2="181" stroke="black"></line> <line x1="91.17647058823529" x2="91.17647058823529" y1="20" y2="179" stroke="#e0e0e0" opacity="nil"></line> <line x1="106.47058823529412" x2="106.47058823529412" y1="179" y2="183" stroke="black"></line> <line x1="106.47058823529412" x2="106.47058823529412" y1="20" y2="179" stroke="#e0e0e0" opacity="nil"></line> <text y="193" x="106.47058823529412" fill="black" font-size="12" text-anchor="middle" font-family="sans-serif"> 10</text> <line x1="121.76470588235294" x2="121.76470588235294" y1="179" y2="181" stroke="black"></line> <line x1="121.76470588235294" x2="121.76470588235294" y1="20" y2="179" stroke="#e0e0e0" opacity="nil"></line> <line x1="137.05882352941177" x2="137.05882352941177" y1="179" y2="181" stroke="black"></line> <line x1="137.05882352941177" x2="137.05882352941177" y1="20" y2="179" stroke="#e0e0e0" opacity="nil"></line> <line x1="152.35294117647058" x2="152.35294117647058" y1="179" y2="181" stroke="black"></line> <line x1="152.35294117647058" x2="152.35294117647058" y1="20" y2="179" stroke="#e0e0e0" opacity="nil"></line> <line x1="167.64705882352942" x2="167.64705882352942" y1="179" y2="181" stroke="black"></line> <line x1="167.64705882352942" x2="167.64705882352942" y1="20" y2="179" stroke="#e0e0e0" opacity="nil"></line> <line x1="182.94117647058823" x2="182.94117647058823" y1="179" y2="183" stroke="black"></line> <line x1="182.94117647058823" x2="182.94117647058823" y1="20" y2="179" stroke="#e0e0e0" opacity="nil"></line> <text y="193" x="182.94117647058823" fill="black" font-size="12" text-anchor="middle" font-family="sans-serif"> 20</text> <line x1="198.23529411764707" x2="198.23529411764707" y1="179" y2="181" stroke="black"></line> <line x1="198.23529411764707" x2="198.23529411764707" y1="20" y2="179" stroke="#e0e0e0" opacity="nil"></line> <line x1="213.52941176470588" x2="213.52941176470588" y1="179" y2="181" stroke="black"></line> <line x1="213.52941176470588" x2="213.52941176470588" y1="20" y2="179" stroke="#e0e0e0" opacity="nil"></line> <line x1="228.8235294117647" x2="228.8235294117647" y1="179" y2="181" stroke="black"></line> <line x1="228.8235294117647" x2="228.8235294117647" y1="20" y2="179" stroke="#e0e0e0" opacity="nil"></line> <line x1="244.1176470588235" x2="244.1176470588235" y1="179" y2="181" stroke="black"></line> <line x1="244.1176470588235" x2="244.1176470588235" y1="20" y2="179" stroke="#e0e0e0" opacity="nil"></line> <line x1="259.4117647058823" x2="259.4117647058823" y1="179" y2="183" stroke="black"></line> <line x1="259.4117647058823" x2="259.4117647058823" y1="20" y2="179" stroke="#e0e0e0" opacity="nil"></line> <text y="193" x="259.4117647058823" fill="black" font-size="12" text-anchor="middle" font-family="sans-serif"> 30</text> <line x1="274.70588235294116" x2="274.70588235294116" y1="179" y2="181" stroke="black"></line> <line x1="274.70588235294116" x2="274.70588235294116" y1="20" y2="179" stroke="#e0e0e0" opacity="nil"></line> <line x1="290.0" x2="290.0" y1="179" y2="181" stroke="black"></line> <line x1="290.0" x2="290.0" y1="20" y2="179" stroke="#e0e0e0" opacity="nil"></line> <line x1="30" x2="27" y1="179.0" y2="179.0" stroke="black"></line> <line x1="30" x2="290" y1="179.0" y2="179.0" opacity="nil" stroke="#e0e0e0"></line> <line x1="30" x2="27" y1="165.75" y2="165.75" stroke="black"></line> <line x1="30" x2="290" y1="165.75" y2="165.75" opacity="nil" stroke="#e0e0e0"></line> <text y="169.75" x="24" fill="black" font-size="12" text-anchor="end" font-family="sans-serif"> 42</text> <line x1="30" x2="27" y1="152.5" y2="152.5" stroke="black"></line> <line x1="30" x2="290" y1="152.5" y2="152.5" opacity="nil" stroke="#e0e0e0"></line> <line x1="30" x2="27" y1="139.25" y2="139.25" stroke="black"></line> <line x1="30" x2="290" y1="139.25" y2="139.25" opacity="nil" stroke="#e0e0e0"></line> <text y="143.25" x="24" fill="black" font-size="12" text-anchor="end" font-family="sans-serif"> 44</text> <line x1="30" x2="27" y1="126.0" y2="126.0" stroke="black"></line> <line x1="30" x2="290" y1="126.0" y2="126.0" opacity="nil" stroke="#e0e0e0"></line> <line x1="30" x2="27" y1="112.75" y2="112.75" stroke="black"></line> <line x1="30" x2="290" y1="112.75" y2="112.75" opacity="nil" stroke="#e0e0e0"></line> <text y="116.75" x="24" fill="black" font-size="12" text-anchor="end" font-family="sans-serif"> 46</text> <line x1="30" x2="27" y1="99.5" y2="99.5" stroke="black"></line> <line x1="30" x2="290" y1="99.5" y2="99.5" opacity="nil" stroke="#e0e0e0"></line> <line x1="30" x2="27" y1="86.25" y2="86.25" stroke="black"></line> <line x1="30" x2="290" y1="86.25" y2="86.25" opacity="nil" stroke="#e0e0e0"></line> <text y="90.25" x="24" fill="black" font-size="12" text-anchor="end" font-family="sans-serif"> 48</text> <line x1="30" x2="27" y1="73.0" y2="73.0" stroke="black"></line> <line x1="30" x2="290" y1="73.0" y2="73.0" opacity="nil" stroke="#e0e0e0"></line> <line x1="30" x2="27" y1="59.75" y2="59.75" stroke="black"></line> <line x1="30" x2="290" y1="59.75" y2="59.75" opacity="nil" stroke="#e0e0e0"></line> <text y="63.75" x="24" fill="black" font-size="12" text-anchor="end" font-family="sans-serif"> 50</text> <line x1="30" x2="27" y1="46.5" y2="46.5" stroke="black"></line> <line x1="30" x2="290" y1="46.5" y2="46.5" opacity="nil" stroke="#e0e0e0"></line> <line x1="30" x2="27" y1="33.25" y2="33.25" stroke="black"></line> <line x1="30" x2="290" y1="33.25" y2="33.25" opacity="nil" stroke="#e0e0e0"></line> <text y="37.25" x="24" fill="black" font-size="12" text-anchor="end" font-family="sans-serif"> 52</text> <line x1="30" x2="27" y1="20.0" y2="20.0" stroke="black"></line> <line x1="30" x2="290" y1="20.0" y2="20.0" opacity="nil" stroke="#e0e0e0"></line> <line x1="30" x2="30" y1="20" y2="184" stroke="black"></line> <line x1="25" x2="290" y1="179" y2="179" stroke="black"></line> <clipPath id="clip-0"> <rect x="30" y="20" width="260" height="159"></rect></clipPath> <line x1="27" x2="33" y1="176.0" y2="182.0" stroke="black" clip-path="url(#clip-0)"></line> <line x1="33" x2="27" y1="176.0" y2="182.0" stroke="black" clip-path="url(#clip-0)"></line> <line x1="34.64705882352941" x2="40.64705882352941" y1="161.42499999999998" y2="167.42499999999998" stroke="black" clip-path="url(#clip-0)"></line> <line x1="40.64705882352941" x2="34.64705882352941" y1="161.42499999999998" y2="167.42499999999998" stroke="black" clip-path="url(#clip-0)"></line> <line x1="42.294117647058826" x2="48.294117647058826" y1="161.42499999999998" y2="167.42499999999998" stroke="black" clip-path="url(#clip-0)"></line> <line x1="48.294117647058826" x2="42.294117647058826" y1="161.42499999999998" y2="167.42499999999998" stroke="black" clip-path="url(#clip-0)"></line> <line x1="49.94117647058823" x2="55.94117647058823" y1="134.92499999999998" y2="140.92499999999998" stroke="black" clip-path="url(#clip-0)"></line> <line x1="55.94117647058823" x2="49.94117647058823" y1="134.92499999999998" y2="140.92499999999998" stroke="black" clip-path="url(#clip-0)"></line> <line x1="57.588235294117645" x2="63.588235294117645" y1="141.54999999999998" y2="147.54999999999998" stroke="black" clip-path="url(#clip-0)"></line> <line x1="63.588235294117645" x2="57.588235294117645" y1="141.54999999999998" y2="147.54999999999998" stroke="black" clip-path="url(#clip-0)"></line> <line x1="65.23529411764706" x2="71.23529411764706" y1="141.54999999999998" y2="147.54999999999998" stroke="black" clip-path="url(#clip-0)"></line> <line x1="71.23529411764706" x2="65.23529411764706" y1="141.54999999999998" y2="147.54999999999998" stroke="black" clip-path="url(#clip-0)"></line> <line x1="72.88235294117646" x2="78.88235294117646" y1="150.82500000000002" y2="156.82500000000002" stroke="black" clip-path="url(#clip-0)"></line> <line x1="78.88235294117646" x2="72.88235294117646" y1="150.82500000000002" y2="156.82500000000002" stroke="black" clip-path="url(#clip-0)"></line> <line x1="80.52941176470588" x2="86.52941176470588" y1="149.5" y2="155.5" stroke="black" clip-path="url(#clip-0)"></line> <line x1="86.52941176470588" x2="80.52941176470588" y1="149.5" y2="155.5" stroke="black" clip-path="url(#clip-0)"></line> <line x1="88.17647058823529" x2="94.17647058823529" y1="146.84999999999997" y2="152.84999999999997" stroke="black" clip-path="url(#clip-0)"></line> <line x1="94.17647058823529" x2="88.17647058823529" y1="146.84999999999997" y2="152.84999999999997" stroke="black" clip-path="url(#clip-0)"></line> <line x1="95.82352941176471" x2="101.82352941176471" y1="130.95000000000002" y2="136.95000000000002" stroke="black" clip-path="url(#clip-0)"></line> <line x1="101.82352941176471" x2="95.82352941176471" y1="130.95000000000002" y2="136.95000000000002" stroke="black" clip-path="url(#clip-0)"></line> <line x1="103.47058823529412" x2="109.47058823529412" y1="129.625" y2="135.625" stroke="black" clip-path="url(#clip-0)"></line> <line x1="109.47058823529412" x2="103.47058823529412" y1="129.625" y2="135.625" stroke="black" clip-path="url(#clip-0)"></line> <line x1="111.11764705882354" x2="117.11764705882354" y1="117.70000000000002" y2="123.70000000000002" stroke="black" clip-path="url(#clip-0)"></line> <line x1="117.11764705882354" x2="111.11764705882354" y1="117.70000000000002" y2="123.70000000000002" stroke="black" clip-path="url(#clip-0)"></line> <line x1="118.76470588235294" x2="124.76470588235294" y1="111.07500000000002" y2="117.07500000000002" stroke="black" clip-path="url(#clip-0)"></line> <line x1="124.76470588235294" x2="118.76470588235294" y1="111.07500000000002" y2="117.07500000000002" stroke="black" clip-path="url(#clip-0)"></line> <line x1="126.41176470588235" x2="132.41176470588235" y1="30.25" y2="36.25" stroke="black" clip-path="url(#clip-0)"></line> <line x1="132.41176470588235" x2="126.41176470588235" y1="30.25" y2="36.25" stroke="black" clip-path="url(#clip-0)"></line> <line x1="134.05882352941177" x2="140.05882352941177" y1="17.0" y2="23.0" stroke="black" clip-path="url(#clip-0)"></line> <line x1="140.05882352941177" x2="134.05882352941177" y1="17.0" y2="23.0" stroke="black" clip-path="url(#clip-0)"></line> <line x1="141.70588235294116" x2="147.70588235294116" y1="23.625" y2="29.625" stroke="black" clip-path="url(#clip-0)"></line> <line x1="147.70588235294116" x2="141.70588235294116" y1="23.625" y2="29.625" stroke="black" clip-path="url(#clip-0)"></line> <line x1="149.35294117647058" x2="155.35294117647058" y1="43.5" y2="49.5" stroke="black" clip-path="url(#clip-0)"></line> <line x1="155.35294117647058" x2="149.35294117647058" y1="43.5" y2="49.5" stroke="black" clip-path="url(#clip-0)"></line> <line x1="157.0" x2="163.0" y1="56.75" y2="62.75" stroke="black" clip-path="url(#clip-0)"></line> <line x1="163.0" x2="157.0" y1="56.75" y2="62.75" stroke="black" clip-path="url(#clip-0)"></line> <line x1="164.64705882352942" x2="170.64705882352942" y1="56.75" y2="62.75" stroke="black" clip-path="url(#clip-0)"></line> <line x1="170.64705882352942" x2="164.64705882352942" y1="56.75" y2="62.75" stroke="black" clip-path="url(#clip-0)"></line> <line x1="172.29411764705884" x2="178.29411764705884" y1="56.75" y2="62.75" stroke="black" clip-path="url(#clip-0)"></line> <line x1="178.29411764705884" x2="172.29411764705884" y1="56.75" y2="62.75" stroke="black" clip-path="url(#clip-0)"></line> <line x1="179.94117647058823" x2="185.94117647058823" y1="67.34999999999997" y2="73.34999999999997" stroke="black" clip-path="url(#clip-0)"></line> <line x1="185.94117647058823" x2="179.94117647058823" y1="67.34999999999997" y2="73.34999999999997" stroke="black" clip-path="url(#clip-0)"></line> <line x1="187.58823529411765" x2="193.58823529411765" y1="62.04999999999998" y2="68.04999999999998" stroke="black" clip-path="url(#clip-0)"></line> <line x1="193.58823529411765" x2="187.58823529411765" y1="62.04999999999998" y2="68.04999999999998" stroke="black" clip-path="url(#clip-0)"></line> <line x1="195.23529411764707" x2="201.23529411764707" y1="56.75" y2="62.75" stroke="black" clip-path="url(#clip-0)"></line> <line x1="201.23529411764707" x2="195.23529411764707" y1="56.75" y2="62.75" stroke="black" clip-path="url(#clip-0)"></line> <line x1="202.8823529411765" x2="208.8823529411765" y1="70.0" y2="76.0" stroke="black" clip-path="url(#clip-0)"></line> <line x1="208.8823529411765" x2="202.8823529411765" y1="70.0" y2="76.0" stroke="black" clip-path="url(#clip-0)"></line> <line x1="210.52941176470588" x2="216.52941176470588" y1="56.75" y2="62.75" stroke="black" clip-path="url(#clip-0)"></line> <line x1="216.52941176470588" x2="210.52941176470588" y1="56.75" y2="62.75" stroke="black" clip-path="url(#clip-0)"></line> <line x1="218.1764705882353" x2="224.1764705882353" y1="70.0" y2="76.0" stroke="black" clip-path="url(#clip-0)"></line> <line x1="224.1764705882353" x2="218.1764705882353" y1="70.0" y2="76.0" stroke="black" clip-path="url(#clip-0)"></line> <line x1="225.8235294117647" x2="231.8235294117647" y1="76.625" y2="82.625" stroke="black" clip-path="url(#clip-0)"></line> <line x1="231.8235294117647" x2="225.8235294117647" y1="76.625" y2="82.625" stroke="black" clip-path="url(#clip-0)"></line> <line x1="233.47058823529412" x2="239.47058823529412" y1="59.40000000000005" y2="65.40000000000005" stroke="black" clip-path="url(#clip-0)"></line> <line x1="239.47058823529412" x2="233.47058823529412" y1="59.40000000000005" y2="65.40000000000005" stroke="black" clip-path="url(#clip-0)"></line> <line x1="241.1176470588235" x2="247.1176470588235" y1="83.25" y2="89.25" stroke="black" clip-path="url(#clip-0)"></line> <line x1="247.1176470588235" x2="241.1176470588235" y1="83.25" y2="89.25" stroke="black" clip-path="url(#clip-0)"></line> <line x1="248.76470588235293" x2="254.76470588235293" y1="85.90000000000003" y2="91.90000000000003" stroke="black" clip-path="url(#clip-0)"></line> <line x1="254.76470588235293" x2="248.76470588235293" y1="85.90000000000003" y2="91.90000000000003" stroke="black" clip-path="url(#clip-0)"></line> <line x1="256.4117647058823" x2="262.4117647058823" y1="87.22499999999997" y2="93.22499999999997" stroke="black" clip-path="url(#clip-0)"></line> <line x1="262.4117647058823" x2="256.4117647058823" y1="87.22499999999997" y2="93.22499999999997" stroke="black" clip-path="url(#clip-0)"></line> <line x1="264.05882352941177" x2="270.05882352941177" y1="96.5" y2="102.5" stroke="black" clip-path="url(#clip-0)"></line> <line x1="270.05882352941177" x2="264.05882352941177" y1="96.5" y2="102.5" stroke="black" clip-path="url(#clip-0)"></line> <line x1="271.70588235294116" x2="277.70588235294116" y1="105.77500000000003" y2="111.77500000000003" stroke="black" clip-path="url(#clip-0)"></line> <line x1="277.70588235294116" x2="271.70588235294116" y1="105.77500000000003" y2="111.77500000000003" stroke="black" clip-path="url(#clip-0)"></line> <line x1="279.3529411764706" x2="285.3529411764706" y1="100.47499999999997" y2="106.47499999999997" stroke="black" clip-path="url(#clip-0)"></line> <line x1="285.3529411764706" x2="279.3529411764706" y1="100.47499999999997" y2="106.47499999999997" stroke="black" clip-path="url(#clip-0)"></line> <line x1="287" x2="293" y1="85.90000000000003" y2="91.90000000000003" stroke="black" clip-path="url(#clip-0)"></line> <line x1="293" x2="287" y1="85.90000000000003" y2="91.90000000000003" stroke="black" clip-path="url(#clip-0)"></line></svg>