<svg width="300" height="200" version="1.1" xmlns="http://www.w3.org/2000/svg" xmlns:xlink="http://www.w3.org/1999/xlink"> <defs> <linearGradient id="gradient-0" x1="0" x2="0" y1="0" y2="1"> <stop offset="0%" stop-color="vary"></stop> <stop offset="100%" stop-color="vary"></stop></linearGradient></defs> <rect width="300" height="200" x="0" y="0" fill="white"></rect> <line x1="43.68421052631579" x2="43.68421052631579" y1="179" y2="183" stroke="black"></line> <line x1="43.68421052631579" x2="43.68421052631579" y1="20" y2="179" stroke="#e0e0e0" opacity="nil"></line> <text y="193" x="43.68421052631579" fill="black" font-size="12" text-anchor="middle" font-family="sans-serif"> 2024-05-20</text> <line x1="67.63157894736842" x2="67.63157894736842" y1="179" y2="181" stroke="black"></line> <line x1="67.63157894736842" x2="67.63157894736842" y1="20" y2="179" stroke="#e0e0e0" opacity="nil"></line> <line x1="91.57894736842104" x2="91.57894736842104" y1="179" y2="181" stroke="black"></line> <line x1="91.57894736842104" x2="91.57894736842104" y1="20" y2="179" stroke="#e0e0e0" opacity="nil"></line> <line x1="115.52631578947368" x2="115.52631578947368" y1="179" y2="181" stroke="black"></line> <line x1="115.52631578947368" x2="115.52631578947368" y1="20" y2="179" stroke="#e0e0e0" opacity="nil"></line> <line x1="139.4736842105263" x2="139.4736842105263" y1="179" y2="183" stroke="black"></line> <line x1="139.4736842105263" x2="139.4736842105263" y1="20" y2="179" stroke="#e0e0e0" opacity="nil"></line> <text y="193" x="139.4736842105263" fill="black" font-size="12" text-anchor="middle" font-family="sans-serif"> 2024-06-17</text> <line x1="163.42105263157896" x2="163.42105263157896" y1="179" y2="181" stroke="black"></line> <line x1="163.42105263157896" x2="163.42105263157896" y1="20" y2="179" stroke="#e0e0e0" opacity="nil"></line> <line x1="187.3684210526316" x2="187.3684210526316" y1="179" y2="181" stroke="black"></line> <line x1="187.3684210526316" x2="187.3684210526316" y1="20" y2="179" stroke="#e0e0e0" opacity="nil"></line> <line x1="211.3157894736842" x2="211.3157894736842" y1="179" y2="181" stroke="black"></line> <line x1="211.3157894736842" x2="211.3157894736842" y1="20" y2="179" stroke="#e0e0e0" opacity="nil"></line> <line x1="235.26315789473685" x2="235.26315789473685" y1="179" y2="183" stroke="black"></line> <line x1="235.26315789473685" x2="235.26315789473685" y1="20" y2="179" stroke="#e0e0e0" opacity="nil"></line> <text y="193" x="235.26315789473685" fill="black" font-size="12" text-anchor="middle" font-family="sans-serif"> 2024-07-15</text> <line x1="259.2105263157895" x2="259.2105263157895" y1="179" y2="181" stroke="black"></line> <line x1="259.2105263157895" x2="259.2105263157895" y1="20" y2="179" stroke="#e0e0e0" opacity="nil"></line> <line x1="283.1578947368421" x2="283.1578947368421" y1="179" y2="181" stroke="black"></line> <line x1="283.1578947368421" x2="283.1578947368421" y1="20" y2="179" stroke="#e0e0e0" opacity="nil"></line> <line x1="30" x2="27" y1="179.0" y2="179.0" stroke="black"></line> <line x1="30" x2="290" y1="179.0" y2="179.0" opacity="nil" stroke="#e0e0e0"></line> <line x1="30" x2="27" y1="166.76923076923077" y2="166.76923076923077" stroke="black"></line> <line x1="30" x2="290" y1="166.76923076923077" y2="166.76923076923077" opacity="nil" stroke="#e0e0e0"></line> <text y="170.76923076923077" x="24" fill="black" font-size="12" text-anchor="end" font-family="sans-serif"> 2</text> <line x1="30" x2="27" y1="154.53846153846155" y2="154.53846153846155" stroke="black"></line> <line x1="30" x2="290" y1="154.53846153846155" y2="154.53846153846155" opacity="nil" stroke="#e0e0e0"></line> <line x1="30" x2="27" y1="142.30769230769232" y2="142.30769230769232" stroke="black"></line> <line x1="30" x2="290" y1="142.30769230769232" y2="142.30769230769232" opacity="nil" stroke="#e0e0e0"></line> <text y="146.30769230769232" x="24" fill="black" font-size="12" text-anchor="end" font-family="sans-serif"> 4</text> <line x1="30" x2="27" y1="130.07692307692307" y2="130.07692307692307" stroke="black"></line> <line x1="30" x2="290" y1="130.07692307692307" y2="130.07692307692307" opacity="nil" stroke="#e0e0e0"></line> <line x1="30" x2="27" y1="117.84615384615384" y2="117.84615384615384" stroke="black"></line> <line x1="30" x2="290" y1="117.84615384615384" y2="117.84615384615384" opacity="nil" stroke="#e0e0e0"></line> <text y="121.84615384615384" x="24" fill="black" font-size="12" text-anchor="end" font-family="sans-serif"> 6</text> <line x1="30" x2="27" y1="105.61538461538461" y2="105.61538461538461" stroke="black"></line> <line x1="30" x2="290" y1="105.61538461538461" y2="105.61538461538461" opacity="nil" stroke="#e0e0e0"></line> <line x1="30" x2="27" y1="93.38461538461539" y2="93.38461538461539" stroke="black"></line> <line x1="30" x2="290" y1="93.38461538461539" y2="93.38461538461539" opacity="nil" stroke="#e0e0e0"></line> <text y="97.38461538461539" x="24" fill="black" font-size="12" text-anchor="end" font-family="sans-serif"> 8</text> <line x1="30" x2="27" y1="81.15384615384615" y2="81.15384615384615" stroke="black"></line> <line x1="30" x2="290" y1="81.15384615384615" y2="81.15384615384615" opacity="nil" stroke="#e0e0e0"></line> <line x1="30" x2="27" y1="68.92307692307692" y2="68.92307692307692" stroke="black"></line> <line x1="30" x2="290" y1="68.92307692307692" y2="68.92307692307692" opacity="nil" stroke="#e0e0e0"></line> <text y="72.92307692307692" x="24" fill="black" font-size="12" text-anchor="end" font-family="sans-serif"> 10</text> <line x1="30" x2="27" y1="56.69230769230768" y2="56.69230769230768" stroke="black"></line> <line x1="30" x2="290" y1="56.69230769230768" y2="56.69230769230768" opacity="nil" stroke="#e0e0e0"></line> <line x1="30" x2="27" y1="44.46153846153845" y2="44.46153846153845" stroke="black"></line> <line x1="30" x2="290" y1="44.46153846153845" y2="44.46153846153845" opacity="nil" stroke="#e0e0e0"></line> <text y="48.46153846153845" x="24" fill="black" font-size="12" text-anchor="end" font-family="sans-serif"> 12</text> <line x1="30" x2="27" y1="32.230769230769226" y2="32.230769230769226" stroke="black"></line> <line x1="30" x2="290" y1="32.230769230769226" y2="32.230769230769226" opacity="nil" stroke="#e0e0e0"></line> <line x1="30" x2="27" y1="20.0" y2="20.0" stroke="black"></line> <line x1="30" x2="290" y1="20.0" y2="20.0" opacity="nil" stroke="#e0e0e0"></line> <text y="24.0" x="24" fill="black" font-size="12" text-anchor="end" font-family="sans-serif"> 14</text> <line x1="30" x2="30" y1="20" y2="184" stroke="black"></line> <line x1="25" x2="290" y1="179" y2="179" stroke="black"></line> <clipPath id="clip-0"> <rect x="30" y="20" width="260" height="159"></rect></clipPath> <circle cx="272.89473684210526" cy="179.0" r="3" fill="#e6194b" stroke="black" clip-path="url(#clip-0)"></circle> <circle cx="276.31578947368416" cy="179.0" r="3" fill="#3cb44b" stroke="black" clip-path="url(#clip-0)"></circle> <circle cx="290" cy="179.0" r="3" fill="#ffe119" stroke="black" clip-path="url(#clip-0)"></circle> <circle cx="30" cy="166.76923076923077" r="6" fill="#4363d8" stroke="black" clip-path="url(#clip-0)"></circle> <circle cx="211.3157894736842" cy="166.76923076923077" r="6" fill="#f58231" stroke="black" clip-path="url(#clip-0)"></circle> <circle cx="118.94736842105263" cy="154.53846153846155" r="9" fill="#911eb4" stroke="black" clip-path="url(#clip-0)"></circle> <circle cx="187.3684210526316" cy="142.30769230769232" r="12" fill="#46f0f0" stroke="black" clip-path="url(#clip-0)"></circle> <circle cx="163.42105263157896" cy="130.07692307692307" r="15" fill="#f032e6" stroke="black" clip-path="url(#clip-0)"></circle> <circle cx="279.7368421052631" cy="117.84615384615384" r="18" fill="#bcf60c" stroke="black" clip-path="url(#clip-0)"></circle> <circle cx="225.0" cy="20.0" r="42" fill="#fabebe" stroke="black" clip-path="url(#clip-0)"></circle> <polygon points="30 179, 225.0 179" stroke="nil" clip-path="url(#clip-0)" x1="0" x2="0" y1="0" y2="1" fill="url(#gradient-0)"></polygon></svg>