<svg width="800" height="500" version="1.1" xmlns="http://www.w3.org/2000/svg" xmlns:xlink="http://www.w3.org/1999/xlink"> <rect width="800" height="500" x="0" y="0" fill="#101010"></rect> <clipPath id="clip-0"> <rect x="70" y="40" width="710" height="89"></rect></clipPath> <rect width="42.3" height="85.63071428571429" x="74.19999999999999" y="43.36928571428571" fill="#e6194b" clip-path="url(#clip-0)"></rect> <rect width="42.3" height="50.157857142857154" x="121.53333333333333" y="78.84214285714285" fill="#3cb44b" clip-path="url(#clip-0)"></rect> <rect width="42.3" height="49.712857142857146" x="168.86666666666665" y="79.28714285714285" fill="#ffe119" clip-path="url(#clip-0)"></rect> <rect width="42.3" height="48.822857142857146" x="216.2" y="80.17714285714285" fill="#4363d8" clip-path="url(#clip-0)"></rect> <rect width="42.3" height="41.639285714285705" x="263.53333333333336" y="87.3607142857143" fill="#f58231" clip-path="url(#clip-0)"></rect> <rect width="42.3" height="41.00357142857143" x="310.8666666666667" y="87.99642857142857" fill="#911eb4" clip-path="url(#clip-0)"></rect> <rect width="42.3" height="40.94" x="358.20000000000005" y="88.06" fill="#46f0f0" clip-path="url(#clip-0)"></rect> <rect width="42.3" height="40.68571428571428" x="405.5333333333333" y="88.31428571428572" fill="#f032e6" clip-path="url(#clip-0)"></rect> <rect width="42.3" height="36.68071428571429" x="452.8666666666667" y="92.31928571428571" fill="#bcf60c" clip-path="url(#clip-0)"></rect> <rect width="42.3" height="34.519285714285715" x="500.20000000000005" y="94.48071428571428" fill="#fabebe" clip-path="url(#clip-0)"></rect> <rect width="42.3" height="34.39214285714286" x="547.5333333333333" y="94.60785714285714" fill="#008080" clip-path="url(#clip-0)"></rect> <rect width="42.3" height="33.75642857142857" x="594.8666666666667" y="95.24357142857143" fill="#e6beff" clip-path="url(#clip-0)"></rect> <rect width="42.3" height="33.56571428571428" x="642.2" y="95.43428571428572" fill="#9a6324" clip-path="url(#clip-0)"></rect> <rect width="42.3" height="30.832142857142856" x="689.5333333333334" y="98.16785714285714" fill="#fffac8" clip-path="url(#clip-0)"></rect> <rect width="42.3" height="30.51428571428572" x="736.8666666666667" y="98.48571428571428" fill="#800000" clip-path="url(#clip-0)"></rect> <text transform="translate(105.85,139) rotate(-90)" fill="#c0c0c0" font-weight="bold" font-size="35" text-anchor="end" font-family="sans-serif"> James Benning</text> <text transform="translate(153.18333333333334,139) rotate(-90)" fill="#c0c0c0" font-weight="bold" font-size="35" text-anchor="end" font-family="sans-serif"> Ra&#250;l Ruiz</text> <text transform="translate(200.51666666666665,139) rotate(-90)" fill="#c0c0c0" font-weight="bold" font-size="35" text-anchor="end" font-family="sans-serif"> Jim Jarmusch</text> <text transform="translate(247.85,139) rotate(-90)" fill="#c0c0c0" font-weight="bold" font-size="35" text-anchor="end" font-family="sans-serif"> Lav D&#237;az</text> <text transform="translate(295.18333333333334,139) rotate(-90)" fill="#c0c0c0" font-weight="bold" font-size="35" text-anchor="end" font-family="sans-serif"> Hong Sang-soo</text> <text transform="translate(342.51666666666665,139) rotate(-90)" fill="#c0c0c0" font-weight="bold" font-size="35" text-anchor="end" font-family="sans-serif"> Leonardo Favio</text> <text transform="translate(389.85,139) rotate(-90)" fill="#c0c0c0" font-weight="bold" font-size="35" text-anchor="end" font-family="sans-serif"> Jafar Panahi</text> <text transform="translate(437.1833333333333,139) rotate(-90)" fill="#c0c0c0" font-weight="bold" font-size="35" text-anchor="end" font-family="sans-serif"> Wes Anderson</text> <text transform="translate(484.51666666666665,139) rotate(-90)" fill="#c0c0c0" font-weight="bold" font-size="35" text-anchor="end" font-family="sans-serif"> Daniele Huillet</text> <text transform="translate(531.85,139) rotate(-90)" fill="#c0c0c0" font-weight="bold" font-size="35" text-anchor="end" font-family="sans-serif"> John Huston</text> <text transform="translate(579.1833333333333,139) rotate(-90)" fill="#c0c0c0" font-weight="bold" font-size="35" text-anchor="end" font-family="sans-serif"> Manoel de Oliveira</text> <text transform="translate(626.5166666666667,139) rotate(-90)" fill="#c0c0c0" font-weight="bold" font-size="35" text-anchor="end" font-family="sans-serif"> Clint Eastwood</text> <text transform="translate(673.85,139) rotate(-90)" fill="#c0c0c0" font-weight="bold" font-size="35" text-anchor="end" font-family="sans-serif"> Aleksandr Sokurov</text> <text transform="translate(721.1833333333334,139) rotate(-90)" fill="#c0c0c0" font-weight="bold" font-size="35" text-anchor="end" font-family="sans-serif"> Mikio Naruse</text> <text transform="translate(768.5166666666667,139) rotate(-90)" fill="#c0c0c0" font-weight="bold" font-size="35" text-anchor="end" font-family="sans-serif"> Stan Brakhage</text> <line x1="70" x2="67" y1="129.0" y2="129.0" stroke="#c0c0c0"></line> <line x1="70" x2="780" y1="129.0" y2="129.0" opacity="0.2" stroke="#a0a0a0"></line> <text y="133.0" x="64" fill="#c0c0c0" font-size="12" text-anchor="end" font-family="sans-serif"> 0</text> <line x1="70" x2="67" y1="116.28571428571429" y2="116.28571428571429" stroke="#c0c0c0"></line> <line x1="70" x2="780" y1="116.28571428571429" y2="116.28571428571429" opacity="0.2" stroke="#a0a0a0"></line> <line x1="70" x2="67" y1="103.57142857142857" y2="103.57142857142857" stroke="#c0c0c0"></line> <line x1="70" x2="780" y1="103.57142857142857" y2="103.57142857142857" opacity="0.2" stroke="#a0a0a0"></line> <line x1="70" x2="67" y1="90.85714285714286" y2="90.85714285714286" stroke="#c0c0c0"></line> <line x1="70" x2="780" y1="90.85714285714286" y2="90.85714285714286" opacity="0.2" stroke="#a0a0a0"></line> <line x1="70" x2="67" y1="78.14285714285714" y2="78.14285714285714" stroke="#c0c0c0"></line> <line x1="70" x2="780" y1="78.14285714285714" y2="78.14285714285714" opacity="0.2" stroke="#a0a0a0"></line> <line x1="70" x2="67" y1="65.42857142857143" y2="65.42857142857143" stroke="#c0c0c0"></line> <line x1="70" x2="780" y1="65.42857142857143" y2="65.42857142857143" opacity="0.2" stroke="#a0a0a0"></line> <text y="69.42857142857143" x="64" fill="#c0c0c0" font-size="12" text-anchor="end" font-family="sans-serif"> 1000</text> <line x1="70" x2="67" y1="52.71428571428572" y2="52.71428571428572" stroke="#c0c0c0"></line> <line x1="70" x2="780" y1="52.71428571428572" y2="52.71428571428572" opacity="0.2" stroke="#a0a0a0"></line> <line x1="70" x2="67" y1="40.0" y2="40.0" stroke="#c0c0c0"></line> <line x1="70" x2="780" y1="40.0" y2="40.0" opacity="0.2" stroke="#a0a0a0"></line> <line x1="70" x2="70" y1="40" y2="134" stroke="#c0c0c0"></line> <line x1="65" x2="780" y1="129" y2="129" stroke="#c0c0c0"></line></svg>