<svg width="728" height="450" version="1.1" xmlns="http://www.w3.org/2000/svg" xmlns:xlink="http://www.w3.org/1999/xlink"> <rect width="728" height="450" x="0" y="0" fill="white"></rect> <line x1="70.0" x2="70.0" y1="390" y2="394" stroke="black"></line> <line x1="70.0" x2="70.0" y1="40" y2="390" stroke="#e0e0e0" opacity="1"></line> <text y="404" x="70.0" fill="black" font-weight="normal" font-size="12" text-anchor="middle" font-family="sans-serif"> 2024-01-10</text> <line x1="229.5" x2="229.5" y1="390" y2="394" stroke="black"></line> <line x1="229.5" x2="229.5" y1="40" y2="390" stroke="#e0e0e0" opacity="1"></line> <text y="404" x="229.5" fill="black" font-weight="normal" font-size="12" text-anchor="middle" font-family="sans-serif"> 2024-01-11</text> <line x1="389.0" x2="389.0" y1="390" y2="394" stroke="black"></line> <line x1="389.0" x2="389.0" y1="40" y2="390" stroke="#e0e0e0" opacity="1"></line> <text y="404" x="389.0" fill="black" font-weight="normal" font-size="12" text-anchor="middle" font-family="sans-serif"> 2024-01-12</text> <line x1="548.5" x2="548.5" y1="390" y2="394" stroke="black"></line> <line x1="548.5" x2="548.5" y1="40" y2="390" stroke="#e0e0e0" opacity="1"></line> <text y="404" x="548.5" fill="black" font-weight="normal" font-size="12" text-anchor="middle" font-family="sans-serif"> 2024-01-13</text> <line x1="708.0" x2="708.0" y1="390" y2="394" stroke="black"></line> <line x1="708.0" x2="708.0" y1="40" y2="390" stroke="#e0e0e0" opacity="1"></line> <text y="404" x="708.0" fill="black" font-weight="normal" font-size="12" text-anchor="middle" font-family="sans-serif"> 2024-01-14</text> <line x1="70" x2="67" y1="390.0" y2="390.0" stroke="black"></line> <line x1="70" x2="708" y1="390.0" y2="390.0" opacity="1" stroke="#e0e0e0"></line> <line x1="70" x2="67" y1="373.3333333333333" y2="373.3333333333333" stroke="black"></line> <line x1="70" x2="708" y1="373.3333333333333" y2="373.3333333333333" opacity="1" stroke="#e0e0e0"></line> <text y="377.3333333333333" x="64" fill="black" font-size="12" text-anchor="end" font-family="sans-serif"> 16</text> <line x1="70" x2="67" y1="356.6666666666667" y2="356.6666666666667" stroke="black"></line> <line x1="70" x2="708" y1="356.6666666666667" y2="356.6666666666667" opacity="1" stroke="#e0e0e0"></line> <line x1="70" x2="67" y1="340.0" y2="340.0" stroke="black"></line> <line x1="70" x2="708" y1="340.0" y2="340.0" opacity="1" stroke="#e0e0e0"></line> <text y="344.0" x="64" fill="black" font-size="12" text-anchor="end" font-family="sans-serif"> 18</text> <line x1="70" x2="67" y1="323.33333333333337" y2="323.33333333333337" stroke="black"></line> <line x1="70" x2="708" y1="323.33333333333337" y2="323.33333333333337" opacity="1" stroke="#e0e0e0"></line> <line x1="70" x2="67" y1="306.6666666666667" y2="306.6666666666667" stroke="black"></line> <line x1="70" x2="708" y1="306.6666666666667" y2="306.6666666666667" opacity="1" stroke="#e0e0e0"></line> <text y="310.6666666666667" x="64" fill="black" font-size="12" text-anchor="end" font-family="sans-serif"> 20</text> <line x1="70" x2="67" y1="290.0" y2="290.0" stroke="black"></line> <line x1="70" x2="708" y1="290.0" y2="290.0" opacity="1" stroke="#e0e0e0"></line> <line x1="70" x2="67" y1="273.33333333333337" y2="273.33333333333337" stroke="black"></line> <line x1="70" x2="708" y1="273.33333333333337" y2="273.33333333333337" opacity="1" stroke="#e0e0e0"></line> <text y="277.33333333333337" x="64" fill="black" font-size="12" text-anchor="end" font-family="sans-serif"> 22</text> <line x1="70" x2="67" y1="256.6666666666667" y2="256.6666666666667" stroke="black"></line> <line x1="70" x2="708" y1="256.6666666666667" y2="256.6666666666667" opacity="1" stroke="#e0e0e0"></line> <line x1="70" x2="67" y1="240.0" y2="240.0" stroke="black"></line> <line x1="70" x2="708" y1="240.0" y2="240.0" opacity="1" stroke="#e0e0e0"></line> <text y="244.0" x="64" fill="black" font-size="12" text-anchor="end" font-family="sans-serif"> 24</text> <line x1="70" x2="67" y1="223.33333333333334" y2="223.33333333333334" stroke="black"></line> <line x1="70" x2="708" y1="223.33333333333334" y2="223.33333333333334" opacity="1" stroke="#e0e0e0"></line> <line x1="70" x2="67" y1="206.66666666666666" y2="206.66666666666666" stroke="black"></line> <line x1="70" x2="708" y1="206.66666666666666" y2="206.66666666666666" opacity="1" stroke="#e0e0e0"></line> <text y="210.66666666666666" x="64" fill="black" font-size="12" text-anchor="end" font-family="sans-serif"> 26</text> <line x1="70" x2="67" y1="190.0" y2="190.0" stroke="black"></line> <line x1="70" x2="708" y1="190.0" y2="190.0" opacity="1" stroke="#e0e0e0"></line> <line x1="70" x2="67" y1="173.33333333333331" y2="173.33333333333331" stroke="black"></line> <line x1="70" x2="708" y1="173.33333333333331" y2="173.33333333333331" opacity="1" stroke="#e0e0e0"></line> <text y="177.33333333333331" x="64" fill="black" font-size="12" text-anchor="end" font-family="sans-serif"> 28</text> <line x1="70" x2="67" y1="156.66666666666669" y2="156.66666666666669" stroke="black"></line> <line x1="70" x2="708" y1="156.66666666666669" y2="156.66666666666669" opacity="1" stroke="#e0e0e0"></line> <line x1="70" x2="67" y1="140.0" y2="140.0" stroke="black"></line> <line x1="70" x2="708" y1="140.0" y2="140.0" opacity="1" stroke="#e0e0e0"></line> <text y="144.0" x="64" fill="black" font-size="12" text-anchor="end" font-family="sans-serif"> 30</text> <line x1="70" x2="67" y1="123.33333333333337" y2="123.33333333333337" stroke="black"></line> <line x1="70" x2="708" y1="123.33333333333337" y2="123.33333333333337" opacity="1" stroke="#e0e0e0"></line> <line x1="70" x2="67" y1="106.66666666666669" y2="106.66666666666669" stroke="black"></line> <line x1="70" x2="708" y1="106.66666666666669" y2="106.66666666666669" opacity="1" stroke="#e0e0e0"></line> <text y="110.66666666666669" x="64" fill="black" font-size="12" text-anchor="end" font-family="sans-serif"> 32</text> <line x1="70" x2="67" y1="90.0" y2="90.0" stroke="black"></line> <line x1="70" x2="708" y1="90.0" y2="90.0" opacity="1" stroke="#e0e0e0"></line> <line x1="70" x2="67" y1="73.33333333333331" y2="73.33333333333331" stroke="black"></line> <line x1="70" x2="708" y1="73.33333333333331" y2="73.33333333333331" opacity="1" stroke="#e0e0e0"></line> <text y="77.33333333333331" x="64" fill="black" font-size="12" text-anchor="end" font-family="sans-serif"> 34</text> <line x1="70" x2="67" y1="56.666666666666686" y2="56.666666666666686" stroke="black"></line> <line x1="70" x2="708" y1="56.666666666666686" y2="56.666666666666686" opacity="1" stroke="#e0e0e0"></line> <line x1="70" x2="67" y1="40.0" y2="40.0" stroke="black"></line> <line x1="70" x2="708" y1="40.0" y2="40.0" opacity="1" stroke="#e0e0e0"></line> <text y="44.0" x="64" fill="black" font-size="12" text-anchor="end" font-family="sans-serif"> 36</text> <line x1="70" x2="70" y1="40" y2="395" stroke="black"></line> <line x1="65" x2="708" y1="390" y2="390" stroke="black"></line> <clipPath id="clip-0"> <rect x="70" y="40" width="638" height="350"></rect></clipPath> <line x1="70" x2="229.5" y1="390.0" y2="223.33333333333334" stroke="red" clip-path="url(#clip-0)" stroke-width="1"></line> <text y="50.666666666666686" x="389.0" fill="red" font-weight="normal" font-size="12" text-anchor="middle" font-family="sans-serif"> Peak</text> <line x1="386.0" x2="392.0" y1="53.666666666666686" y2="59.666666666666686" stroke="red" clip-path="url(#clip-0)"></line> <line x1="392.0" x2="386.0" y1="53.666666666666686" y2="59.666666666666686" stroke="red" clip-path="url(#clip-0)"></line> <line x1="229.5" x2="389.0" y1="223.33333333333334" y2="56.666666666666686" stroke="red" clip-path="url(#clip-0)" stroke-width="1"></line> <line x1="389.0" x2="548.5" y1="56.666666666666686" y2="223.33333333333334" stroke="red" clip-path="url(#clip-0)" stroke-width="1"></line> <line x1="548.5" x2="708" y1="223.33333333333334" y2="306.6666666666667" stroke="red" clip-path="url(#clip-0)" stroke-width="1"></line></svg>