<svg width="300" height="200" version="1.1" xmlns="http://www.w3.org/2000/svg" xmlns:xlink="http://www.w3.org/1999/xlink"> <rect width="300" height="200" x="0" y="0" fill="white"></rect> <line x1="30.0" x2="30.0" y1="179" y2="183" stroke="black"></line> <line x1="30.0" x2="30.0" y1="20" y2="179" stroke="#e0e0e0" opacity="1"></line> <text y="193" x="30.0" fill="black" font-weight="normal" font-size="12" text-anchor="middle" font-family="sans-serif"> 0</text> <line x1="45.294117647058826" x2="45.294117647058826" y1="179" y2="181" stroke="black"></line> <line x1="45.294117647058826" x2="45.294117647058826" y1="20" y2="179" stroke="#e0e0e0" opacity="1"></line> <line x1="60.588235294117645" x2="60.588235294117645" y1="179" y2="181" stroke="black"></line> <line x1="60.588235294117645" x2="60.588235294117645" y1="20" y2="179" stroke="#e0e0e0" opacity="1"></line> <line x1="75.88235294117646" x2="75.88235294117646" y1="179" y2="181" stroke="black"></line> <line x1="75.88235294117646" x2="75.88235294117646" y1="20" y2="179" stroke="#e0e0e0" opacity="1"></line> <line x1="91.17647058823529" x2="91.17647058823529" y1="179" y2="181" stroke="black"></line> <line x1="91.17647058823529" x2="91.17647058823529" y1="20" y2="179" stroke="#e0e0e0" opacity="1"></line> <line x1="106.47058823529412" x2="106.47058823529412" y1="179" y2="183" stroke="black"></line> <line x1="106.47058823529412" x2="106.47058823529412" y1="20" y2="179" stroke="#e0e0e0" opacity="1"></line> <text y="193" x="106.47058823529412" fill="black" font-weight="normal" font-size="12" text-anchor="middle" font-family="sans-serif"> 10</text> <line x1="121.76470588235294" x2="121.76470588235294" y1="179" y2="181" stroke="black"></line> <line x1="121.76470588235294" x2="121.76470588235294" y1="20" y2="179" stroke="#e0e0e0" opacity="1"></line> <line x1="137.05882352941177" x2="137.05882352941177" y1="179" y2="181" stroke="black"></line> <line x1="137.05882352941177" x2="137.05882352941177" y1="20" y2="179" stroke="#e0e0e0" opacity="1"></line> <line x1="152.35294117647058" x2="152.35294117647058" y1="179" y2="181" stroke="black"></line> <line x1="152.35294117647058" x2="152.35294117647058" y1="20" y2="179" stroke="#e0e0e0" opacity="1"></line> <line x1="167.64705882352942" x2="167.64705882352942" y1="179" y2="181" stroke="black"></line> <line x1="167.64705882352942" x2="167.64705882352942" y1="20" y2="179" stroke="#e0e0e0" opacity="1"></line> <line x1="182.94117647058823" x2="182.94117647058823" y1="179" y2="183" stroke="black"></line> <line x1="182.94117647058823" x2="182.94117647058823" y1="20" y2="179" stroke="#e0e0e0" opacity="1"></line> <text y="193" x="182.94117647058823" fill="black" font-weight="normal" font-size="12" text-anchor="middle" font-family="sans-serif"> 20</text> <line x1="198.23529411764707" x2="198.23529411764707" y1="179" y2="181" stroke="black"></line> <line x1="198.23529411764707" x2="198.23529411764707" y1="20" y2="179" stroke="#e0e0e0" opacity="1"></line> <line x1="213.52941176470588" x2="213.52941176470588" y1="179" y2="181" stroke="black"></line> <line x1="213.52941176470588" x2="213.52941176470588" y1="20" y2="179" stroke="#e0e0e0" opacity="1"></line> <line x1="228.8235294117647" x2="228.8235294117647" y1="179" y2="181" stroke="black"></line> <line x1="228.8235294117647" x2="228.8235294117647" y1="20" y2="179" stroke="#e0e0e0" opacity="1"></line> <line x1="244.1176470588235" x2="244.1176470588235" y1="179" y2="181" stroke="black"></line> <line x1="244.1176470588235" x2="244.1176470588235" y1="20" y2="179" stroke="#e0e0e0" opacity="1"></line> <line x1="259.4117647058823" x2="259.4117647058823" y1="179" y2="183" stroke="black"></line> <line x1="259.4117647058823" x2="259.4117647058823" y1="20" y2="179" stroke="#e0e0e0" opacity="1"></line> <text y="193" x="259.4117647058823" fill="black" font-weight="normal" font-size="12" text-anchor="middle" font-family="sans-serif"> 30</text> <line x1="274.70588235294116" x2="274.70588235294116" y1="179" y2="181" stroke="black"></line> <line x1="274.70588235294116" x2="274.70588235294116" y1="20" y2="179" stroke="#e0e0e0" opacity="1"></line> <line x1="290.0" x2="290.0" y1="179" y2="181" stroke="black"></line> <line x1="290.0" x2="290.0" y1="20" y2="179" stroke="#e0e0e0" opacity="1"></line> <line x1="30" x2="27" y1="179.0" y2="179.0" stroke="black"></line> <line x1="30" x2="290" y1="179.0" y2="179.0" opacity="1" stroke="#e0e0e0"></line> <line x1="30" x2="27" y1="167.64285714285714" y2="167.64285714285714" stroke="black"></line> <line x1="30" x2="290" y1="167.64285714285714" y2="167.64285714285714" opacity="1" stroke="#e0e0e0"></line> <text y="171.64285714285714" x="24" fill="black" font-size="12" text-anchor="end" font-family="sans-serif"> 42</text> <line x1="30" x2="27" y1="156.28571428571428" y2="156.28571428571428" stroke="black"></line> <line x1="30" x2="290" y1="156.28571428571428" y2="156.28571428571428" opacity="1" stroke="#e0e0e0"></line> <line x1="30" x2="27" y1="144.92857142857144" y2="144.92857142857144" stroke="black"></line> <line x1="30" x2="290" y1="144.92857142857144" y2="144.92857142857144" opacity="1" stroke="#e0e0e0"></line> <text y="148.92857142857144" x="24" fill="black" font-size="12" text-anchor="end" font-family="sans-serif"> 44</text> <line x1="30" x2="27" y1="133.57142857142858" y2="133.57142857142858" stroke="black"></line> <line x1="30" x2="290" y1="133.57142857142858" y2="133.57142857142858" opacity="1" stroke="#e0e0e0"></line> <line x1="30" x2="27" y1="122.21428571428572" y2="122.21428571428572" stroke="black"></line> <line x1="30" x2="290" y1="122.21428571428572" y2="122.21428571428572" opacity="1" stroke="#e0e0e0"></line> <text y="126.21428571428572" x="24" fill="black" font-size="12" text-anchor="end" font-family="sans-serif"> 46</text> <line x1="30" x2="27" y1="110.85714285714286" y2="110.85714285714286" stroke="black"></line> <line x1="30" x2="290" y1="110.85714285714286" y2="110.85714285714286" opacity="1" stroke="#e0e0e0"></line> <line x1="30" x2="27" y1="99.5" y2="99.5" stroke="black"></line> <line x1="30" x2="290" y1="99.5" y2="99.5" opacity="1" stroke="#e0e0e0"></line> <text y="103.5" x="24" fill="black" font-size="12" text-anchor="end" font-family="sans-serif"> 48</text> <line x1="30" x2="27" y1="88.14285714285715" y2="88.14285714285715" stroke="black"></line> <line x1="30" x2="290" y1="88.14285714285715" y2="88.14285714285715" opacity="1" stroke="#e0e0e0"></line> <line x1="30" x2="27" y1="76.78571428571428" y2="76.78571428571428" stroke="black"></line> <line x1="30" x2="290" y1="76.78571428571428" y2="76.78571428571428" opacity="1" stroke="#e0e0e0"></line> <text y="80.78571428571428" x="24" fill="black" font-size="12" text-anchor="end" font-family="sans-serif"> 50</text> <line x1="30" x2="27" y1="65.42857142857143" y2="65.42857142857143" stroke="black"></line> <line x1="30" x2="290" y1="65.42857142857143" y2="65.42857142857143" opacity="1" stroke="#e0e0e0"></line> <line x1="30" x2="27" y1="54.07142857142857" y2="54.07142857142857" stroke="black"></line> <line x1="30" x2="290" y1="54.07142857142857" y2="54.07142857142857" opacity="1" stroke="#e0e0e0"></line> <text y="58.07142857142857" x="24" fill="black" font-size="12" text-anchor="end" font-family="sans-serif"> 52</text> <line x1="30" x2="27" y1="42.71428571428572" y2="42.71428571428572" stroke="black"></line> <line x1="30" x2="290" y1="42.71428571428572" y2="42.71428571428572" opacity="1" stroke="#e0e0e0"></line> <line x1="30" x2="27" y1="31.35714285714286" y2="31.35714285714286" stroke="black"></line> <line x1="30" x2="290" y1="31.35714285714286" y2="31.35714285714286" opacity="1" stroke="#e0e0e0"></line> <text y="35.35714285714286" x="24" fill="black" font-size="12" text-anchor="end" font-family="sans-serif"> 54</text> <line x1="30" x2="27" y1="20.0" y2="20.0" stroke="black"></line> <line x1="30" x2="290" y1="20.0" y2="20.0" opacity="1" stroke="#e0e0e0"></line> <line x1="30" x2="30" y1="20" y2="184" stroke="black"></line> <line x1="25" x2="290" y1="179" y2="179" stroke="black"></line> <clipPath id="clip-0"> <rect x="30" y="20" width="260" height="159"></rect></clipPath> <line x1="30" x2="37.64705882352941" y1="179.0" y2="179.0" stroke="black" clip-path="url(#clip-0)"></line> <line x1="37.64705882352941" x2="37.64705882352941" y1="179.0" y2="166.50714285714284" stroke="black" clip-path="url(#clip-0)"></line> <line x1="37.64705882352941" x2="45.294117647058826" y1="166.50714285714284" y2="166.50714285714284" stroke="black" clip-path="url(#clip-0)"></line> <line x1="45.294117647058826" x2="45.294117647058826" y1="166.50714285714284" y2="166.50714285714284" stroke="black" clip-path="url(#clip-0)"></line> <line x1="45.294117647058826" x2="52.94117647058823" y1="166.50714285714284" y2="166.50714285714284" stroke="black" clip-path="url(#clip-0)"></line> <line x1="52.94117647058823" x2="52.94117647058823" y1="166.50714285714284" y2="143.79285714285714" stroke="black" clip-path="url(#clip-0)"></line> <line x1="52.94117647058823" x2="60.588235294117645" y1="143.79285714285714" y2="143.79285714285714" stroke="black" clip-path="url(#clip-0)"></line> <line x1="60.588235294117645" x2="60.588235294117645" y1="143.79285714285714" y2="149.47142857142856" stroke="black" clip-path="url(#clip-0)"></line> <line x1="60.588235294117645" x2="68.23529411764706" y1="149.47142857142856" y2="149.47142857142856" stroke="black" clip-path="url(#clip-0)"></line> <line x1="68.23529411764706" x2="68.23529411764706" y1="149.47142857142856" y2="149.47142857142856" stroke="black" clip-path="url(#clip-0)"></line> <line x1="68.23529411764706" x2="75.88235294117646" y1="149.47142857142856" y2="149.47142857142856" stroke="black" clip-path="url(#clip-0)"></line> <line x1="75.88235294117646" x2="75.88235294117646" y1="149.47142857142856" y2="157.42142857142858" stroke="black" clip-path="url(#clip-0)"></line> <line x1="75.88235294117646" x2="83.52941176470588" y1="157.42142857142858" y2="157.42142857142858" stroke="black" clip-path="url(#clip-0)"></line> <line x1="83.52941176470588" x2="83.52941176470588" y1="157.42142857142858" y2="156.28571428571428" stroke="black" clip-path="url(#clip-0)"></line> <line x1="83.52941176470588" x2="91.17647058823529" y1="156.28571428571428" y2="156.28571428571428" stroke="black" clip-path="url(#clip-0)"></line> <line x1="91.17647058823529" x2="91.17647058823529" y1="156.28571428571428" y2="154.01428571428568" stroke="black" clip-path="url(#clip-0)"></line> <line x1="91.17647058823529" x2="98.82352941176471" y1="154.01428571428568" y2="154.01428571428568" stroke="black" clip-path="url(#clip-0)"></line> <line x1="98.82352941176471" x2="98.82352941176471" y1="154.01428571428568" y2="140.3857142857143" stroke="black" clip-path="url(#clip-0)"></line> <line x1="98.82352941176471" x2="106.47058823529412" y1="140.3857142857143" y2="140.3857142857143" stroke="black" clip-path="url(#clip-0)"></line> <line x1="106.47058823529412" x2="106.47058823529412" y1="140.3857142857143" y2="139.25" stroke="black" clip-path="url(#clip-0)"></line> <line x1="106.47058823529412" x2="114.11764705882354" y1="139.25" y2="139.25" stroke="black" clip-path="url(#clip-0)"></line> <line x1="114.11764705882354" x2="114.11764705882354" y1="139.25" y2="129.02857142857144" stroke="black" clip-path="url(#clip-0)"></line> <line x1="114.11764705882354" x2="121.76470588235294" y1="129.02857142857144" y2="129.02857142857144" stroke="black" clip-path="url(#clip-0)"></line> <line x1="121.76470588235294" x2="121.76470588235294" y1="129.02857142857144" y2="123.35000000000002" stroke="black" clip-path="url(#clip-0)"></line> <line x1="121.76470588235294" x2="129.41176470588235" y1="123.35000000000002" y2="123.35000000000002" stroke="black" clip-path="url(#clip-0)"></line> <line x1="129.41176470588235" x2="129.41176470588235" y1="123.35000000000002" y2="54.07142857142857" stroke="black" clip-path="url(#clip-0)"></line> <line x1="129.41176470588235" x2="137.05882352941177" y1="54.07142857142857" y2="54.07142857142857" stroke="black" clip-path="url(#clip-0)"></line> <line x1="137.05882352941177" x2="137.05882352941177" y1="54.07142857142857" y2="42.71428571428572" stroke="black" clip-path="url(#clip-0)"></line> <line x1="137.05882352941177" x2="144.70588235294116" y1="42.71428571428572" y2="42.71428571428572" stroke="black" clip-path="url(#clip-0)"></line> <line x1="144.70588235294116" x2="144.70588235294116" y1="42.71428571428572" y2="48.39285714285714" stroke="black" clip-path="url(#clip-0)"></line> <line x1="144.70588235294116" x2="152.35294117647058" y1="48.39285714285714" y2="48.39285714285714" stroke="black" clip-path="url(#clip-0)"></line> <line x1="152.35294117647058" x2="152.35294117647058" y1="48.39285714285714" y2="65.42857142857143" stroke="black" clip-path="url(#clip-0)"></line> <line x1="152.35294117647058" x2="160.0" y1="65.42857142857143" y2="65.42857142857143" stroke="black" clip-path="url(#clip-0)"></line> <line x1="160.0" x2="160.0" y1="65.42857142857143" y2="76.78571428571428" stroke="black" clip-path="url(#clip-0)"></line> <line x1="160.0" x2="167.64705882352942" y1="76.78571428571428" y2="76.78571428571428" stroke="black" clip-path="url(#clip-0)"></line> <line x1="167.64705882352942" x2="167.64705882352942" y1="76.78571428571428" y2="76.78571428571428" stroke="black" clip-path="url(#clip-0)"></line> <line x1="167.64705882352942" x2="175.29411764705884" y1="76.78571428571428" y2="76.78571428571428" stroke="black" clip-path="url(#clip-0)"></line> <line x1="175.29411764705884" x2="175.29411764705884" y1="76.78571428571428" y2="76.78571428571428" stroke="black" clip-path="url(#clip-0)"></line> <line x1="175.29411764705884" x2="182.94117647058823" y1="76.78571428571428" y2="76.78571428571428" stroke="black" clip-path="url(#clip-0)"></line> <line x1="182.94117647058823" x2="182.94117647058823" y1="76.78571428571428" y2="85.87142857142854" stroke="black" clip-path="url(#clip-0)"></line> <line x1="182.94117647058823" x2="190.58823529411765" y1="85.87142857142854" y2="85.87142857142854" stroke="black" clip-path="url(#clip-0)"></line> <line x1="190.58823529411765" x2="190.58823529411765" y1="85.87142857142854" y2="81.32857142857141" stroke="black" clip-path="url(#clip-0)"></line> <line x1="190.58823529411765" x2="198.23529411764707" y1="81.32857142857141" y2="81.32857142857141" stroke="black" clip-path="url(#clip-0)"></line> <line x1="198.23529411764707" x2="198.23529411764707" y1="81.32857142857141" y2="76.78571428571428" stroke="black" clip-path="url(#clip-0)"></line> <line x1="198.23529411764707" x2="205.8823529411765" y1="76.78571428571428" y2="76.78571428571428" stroke="black" clip-path="url(#clip-0)"></line> <line x1="205.8823529411765" x2="205.8823529411765" y1="76.78571428571428" y2="88.14285714285715" stroke="black" clip-path="url(#clip-0)"></line> <line x1="205.8823529411765" x2="213.52941176470588" y1="88.14285714285715" y2="88.14285714285715" stroke="black" clip-path="url(#clip-0)"></line> <line x1="213.52941176470588" x2="213.52941176470588" y1="88.14285714285715" y2="76.78571428571428" stroke="black" clip-path="url(#clip-0)"></line> <line x1="213.52941176470588" x2="221.1764705882353" y1="76.78571428571428" y2="76.78571428571428" stroke="black" clip-path="url(#clip-0)"></line> <line x1="221.1764705882353" x2="221.1764705882353" y1="76.78571428571428" y2="88.14285714285715" stroke="black" clip-path="url(#clip-0)"></line> <line x1="221.1764705882353" x2="228.8235294117647" y1="88.14285714285715" y2="88.14285714285715" stroke="black" clip-path="url(#clip-0)"></line> <line x1="228.8235294117647" x2="228.8235294117647" y1="88.14285714285715" y2="93.82142857142857" stroke="black" clip-path="url(#clip-0)"></line> <line x1="228.8235294117647" x2="236.47058823529412" y1="93.82142857142857" y2="93.82142857142857" stroke="black" clip-path="url(#clip-0)"></line> <line x1="236.47058823529412" x2="236.47058823529412" y1="93.82142857142857" y2="79.05714285714289" stroke="black" clip-path="url(#clip-0)"></line> <line x1="236.47058823529412" x2="244.1176470588235" y1="79.05714285714289" y2="79.05714285714289" stroke="black" clip-path="url(#clip-0)"></line> <line x1="244.1176470588235" x2="244.1176470588235" y1="79.05714285714289" y2="99.5" stroke="black" clip-path="url(#clip-0)"></line> <line x1="244.1176470588235" x2="251.76470588235293" y1="99.5" y2="99.5" stroke="black" clip-path="url(#clip-0)"></line> <line x1="251.76470588235293" x2="251.76470588235293" y1="99.5" y2="101.7714285714286" stroke="black" clip-path="url(#clip-0)"></line> <line x1="251.76470588235293" x2="259.4117647058823" y1="101.7714285714286" y2="101.7714285714286" stroke="black" clip-path="url(#clip-0)"></line> <line x1="259.4117647058823" x2="259.4117647058823" y1="101.7714285714286" y2="102.90714285714283" stroke="black" clip-path="url(#clip-0)"></line> <line x1="259.4117647058823" x2="267.05882352941177" y1="102.90714285714283" y2="102.90714285714283" stroke="black" clip-path="url(#clip-0)"></line> <line x1="267.05882352941177" x2="267.05882352941177" y1="102.90714285714283" y2="110.85714285714286" stroke="black" clip-path="url(#clip-0)"></line> <line x1="267.05882352941177" x2="274.70588235294116" y1="110.85714285714286" y2="110.85714285714286" stroke="black" clip-path="url(#clip-0)"></line> <line x1="274.70588235294116" x2="274.70588235294116" y1="110.85714285714286" y2="118.80714285714288" stroke="black" clip-path="url(#clip-0)"></line> <line x1="274.70588235294116" x2="282.3529411764706" y1="118.80714285714288" y2="118.80714285714288" stroke="black" clip-path="url(#clip-0)"></line> <line x1="282.3529411764706" x2="282.3529411764706" y1="118.80714285714288" y2="114.26428571428568" stroke="black" clip-path="url(#clip-0)"></line> <line x1="282.3529411764706" x2="290" y1="114.26428571428568" y2="114.26428571428568" stroke="black" clip-path="url(#clip-0)"></line> <line x1="290" x2="290" y1="114.26428571428568" y2="101.7714285714286" stroke="black" clip-path="url(#clip-0)"></line></svg>