<svg width="300" height="200" version="1.1" xmlns="http://www.w3.org/2000/svg" xmlns:xlink="http://www.w3.org/1999/xlink"> <defs> <linearGradient id="gradient-0" x1="0" x2="0" y1="1" y2="0"> <stop offset="0%" stop-color="black"></stop> <stop offset="100%" stop-color="red"></stop></linearGradient> <linearGradient id="gradient-1" x1="1" x2="0" y1="0" y2="0"> <stop offset="0%" stop-color="black"></stop> <stop offset="100%" stop-color="red"></stop></linearGradient></defs> <rect width="300" height="200" x="0" y="0" fill="white"></rect> <line x1="30.0" x2="30.0" y1="179" y2="183" stroke="black"></line> <line x1="30.0" x2="30.0" y1="20" y2="179" stroke="#e0e0e0" opacity="1"></line> <text y="193" x="30.0" fill="black" font-weight="normal" font-size="12" text-anchor="middle" font-family="sans-serif"> 0</text> <line x1="45.294117647058826" x2="45.294117647058826" y1="179" y2="181" stroke="black"></line> <line x1="45.294117647058826" x2="45.294117647058826" y1="20" y2="179" stroke="#e0e0e0" opacity="1"></line> <line x1="60.588235294117645" x2="60.588235294117645" y1="179" y2="181" stroke="black"></line> <line x1="60.588235294117645" x2="60.588235294117645" y1="20" y2="179" stroke="#e0e0e0" opacity="1"></line> <line x1="75.88235294117646" x2="75.88235294117646" y1="179" y2="181" stroke="black"></line> <line x1="75.88235294117646" x2="75.88235294117646" y1="20" y2="179" stroke="#e0e0e0" opacity="1"></line> <line x1="91.17647058823529" x2="91.17647058823529" y1="179" y2="181" stroke="black"></line> <line x1="91.17647058823529" x2="91.17647058823529" y1="20" y2="179" stroke="#e0e0e0" opacity="1"></line> <line x1="106.47058823529412" x2="106.47058823529412" y1="179" y2="183" stroke="black"></line> <line x1="106.47058823529412" x2="106.47058823529412" y1="20" y2="179" stroke="#e0e0e0" opacity="1"></line> <text y="193" x="106.47058823529412" fill="black" font-weight="normal" font-size="12" text-anchor="middle" font-family="sans-serif"> 10</text> <line x1="121.76470588235294" x2="121.76470588235294" y1="179" y2="181" stroke="black"></line> <line x1="121.76470588235294" x2="121.76470588235294" y1="20" y2="179" stroke="#e0e0e0" opacity="1"></line> <line x1="137.05882352941177" x2="137.05882352941177" y1="179" y2="181" stroke="black"></line> <line x1="137.05882352941177" x2="137.05882352941177" y1="20" y2="179" stroke="#e0e0e0" opacity="1"></line> <line x1="152.35294117647058" x2="152.35294117647058" y1="179" y2="181" stroke="black"></line> <line x1="152.35294117647058" x2="152.35294117647058" y1="20" y2="179" stroke="#e0e0e0" opacity="1"></line> <line x1="167.64705882352942" x2="167.64705882352942" y1="179" y2="181" stroke="black"></line> <line x1="167.64705882352942" x2="167.64705882352942" y1="20" y2="179" stroke="#e0e0e0" opacity="1"></line> <line x1="182.94117647058823" x2="182.94117647058823" y1="179" y2="183" stroke="black"></line> <line x1="182.94117647058823" x2="182.94117647058823" y1="20" y2="179" stroke="#e0e0e0" opacity="1"></line> <text y="193" x="182.94117647058823" fill="black" font-weight="normal" font-size="12" text-anchor="middle" font-family="sans-serif"> 20</text> <line x1="198.23529411764707" x2="198.23529411764707" y1="179" y2="181" stroke="black"></line> <line x1="198.23529411764707" x2="198.23529411764707" y1="20" y2="179" stroke="#e0e0e0" opacity="1"></line> <line x1="213.52941176470588" x2="213.52941176470588" y1="179" y2="181" stroke="black"></line> <line x1="213.52941176470588" x2="213.52941176470588" y1="20" y2="179" stroke="#e0e0e0" opacity="1"></line> <line x1="228.8235294117647" x2="228.8235294117647" y1="179" y2="181" stroke="black"></line> <line x1="228.8235294117647" x2="228.8235294117647" y1="20" y2="179" stroke="#e0e0e0" opacity="1"></line> <line x1="244.1176470588235" x2="244.1176470588235" y1="179" y2="181" stroke="black"></line> <line x1="244.1176470588235" x2="244.1176470588235" y1="20" y2="179" stroke="#e0e0e0" opacity="1"></line> <line x1="259.4117647058823" x2="259.4117647058823" y1="179" y2="183" stroke="black"></line> <line x1="259.4117647058823" x2="259.4117647058823" y1="20" y2="179" stroke="#e0e0e0" opacity="1"></line> <text y="193" x="259.4117647058823" fill="black" font-weight="normal" font-size="12" text-anchor="middle" font-family="sans-serif"> 30</text> <line x1="274.70588235294116" x2="274.70588235294116" y1="179" y2="181" stroke="black"></line> <line x1="274.70588235294116" x2="274.70588235294116" y1="20" y2="179" stroke="#e0e0e0" opacity="1"></line> <line x1="290.0" x2="290.0" y1="179" y2="181" stroke="black"></line> <line x1="290.0" x2="290.0" y1="20" y2="179" stroke="#e0e0e0" opacity="1"></line> <line x1="30" x2="27" y1="179.0" y2="179.0" stroke="black"></line> <line x1="30" x2="290" y1="179.0" y2="179.0" opacity="1" stroke="#e0e0e0"></line> <line x1="30" x2="27" y1="167.64285714285714" y2="167.64285714285714" stroke="black"></line> <line x1="30" x2="290" y1="167.64285714285714" y2="167.64285714285714" opacity="1" stroke="#e0e0e0"></line> <text y="171.64285714285714" x="24" fill="black" font-size="12" text-anchor="end" font-family="sans-serif"> 42</text> <line x1="30" x2="27" y1="156.28571428571428" y2="156.28571428571428" stroke="black"></line> <line x1="30" x2="290" y1="156.28571428571428" y2="156.28571428571428" opacity="1" stroke="#e0e0e0"></line> <line x1="30" x2="27" y1="144.92857142857144" y2="144.92857142857144" stroke="black"></line> <line x1="30" x2="290" y1="144.92857142857144" y2="144.92857142857144" opacity="1" stroke="#e0e0e0"></line> <text y="148.92857142857144" x="24" fill="black" font-size="12" text-anchor="end" font-family="sans-serif"> 44</text> <line x1="30" x2="27" y1="133.57142857142858" y2="133.57142857142858" stroke="black"></line> <line x1="30" x2="290" y1="133.57142857142858" y2="133.57142857142858" opacity="1" stroke="#e0e0e0"></line> <line x1="30" x2="27" y1="122.21428571428572" y2="122.21428571428572" stroke="black"></line> <line x1="30" x2="290" y1="122.21428571428572" y2="122.21428571428572" opacity="1" stroke="#e0e0e0"></line> <text y="126.21428571428572" x="24" fill="black" font-size="12" text-anchor="end" font-family="sans-serif"> 46</text> <line x1="30" x2="27" y1="110.85714285714286" y2="110.85714285714286" stroke="black"></line> <line x1="30" x2="290" y1="110.85714285714286" y2="110.85714285714286" opacity="1" stroke="#e0e0e0"></line> <line x1="30" x2="27" y1="99.5" y2="99.5" stroke="black"></line> <line x1="30" x2="290" y1="99.5" y2="99.5" opacity="1" stroke="#e0e0e0"></line> <text y="103.5" x="24" fill="black" font-size="12" text-anchor="end" font-family="sans-serif"> 48</text> <line x1="30" x2="27" y1="88.14285714285715" y2="88.14285714285715" stroke="black"></line> <line x1="30" x2="290" y1="88.14285714285715" y2="88.14285714285715" opacity="1" stroke="#e0e0e0"></line> <line x1="30" x2="27" y1="76.78571428571428" y2="76.78571428571428" stroke="black"></line> <line x1="30" x2="290" y1="76.78571428571428" y2="76.78571428571428" opacity="1" stroke="#e0e0e0"></line> <text y="80.78571428571428" x="24" fill="black" font-size="12" text-anchor="end" font-family="sans-serif"> 50</text> <line x1="30" x2="27" y1="65.42857142857143" y2="65.42857142857143" stroke="black"></line> <line x1="30" x2="290" y1="65.42857142857143" y2="65.42857142857143" opacity="1" stroke="#e0e0e0"></line> <line x1="30" x2="27" y1="54.07142857142857" y2="54.07142857142857" stroke="black"></line> <line x1="30" x2="290" y1="54.07142857142857" y2="54.07142857142857" opacity="1" stroke="#e0e0e0"></line> <text y="58.07142857142857" x="24" fill="black" font-size="12" text-anchor="end" font-family="sans-serif"> 52</text> <line x1="30" x2="27" y1="42.71428571428572" y2="42.71428571428572" stroke="black"></line> <line x1="30" x2="290" y1="42.71428571428572" y2="42.71428571428572" opacity="1" stroke="#e0e0e0"></line> <line x1="30" x2="27" y1="31.35714285714286" y2="31.35714285714286" stroke="black"></line> <line x1="30" x2="290" y1="31.35714285714286" y2="31.35714285714286" opacity="1" stroke="#e0e0e0"></line> <text y="35.35714285714286" x="24" fill="black" font-size="12" text-anchor="end" font-family="sans-serif"> 54</text> <line x1="30" x2="27" y1="20.0" y2="20.0" stroke="black"></line> <line x1="30" x2="290" y1="20.0" y2="20.0" opacity="1" stroke="#e0e0e0"></line> <line x1="30" x2="30" y1="20" y2="184" stroke="black"></line> <line x1="25" x2="290" y1="179" y2="179" stroke="black"></line> <clipPath id="clip-0"> <rect x="30" y="20" width="260" height="159"></rect></clipPath> <polygon points="30 179, 30 179.0, 37.64705882352941 166.50714285714284, 45.294117647058826 166.50714285714284, 52.94117647058823 143.79285714285714, 60.588235294117645 149.47142857142856, 68.23529411764706 149.47142857142856, 75.88235294117646 157.42142857142858, 83.52941176470588 156.28571428571428, 91.17647058823529 154.01428571428568, 98.82352941176471 140.3857142857143, 106.47058823529412 139.25, 114.11764705882354 129.02857142857144, 121.76470588235294 123.35000000000002, 129.41176470588235 54.07142857142857, 137.05882352941177 42.71428571428572, 144.70588235294116 48.39285714285714, 152.35294117647058 65.42857142857143, 160.0 76.78571428571428, 167.64705882352942 76.78571428571428, 175.29411764705884 76.78571428571428, 182.94117647058823 85.87142857142854, 190.58823529411765 81.32857142857141, 198.23529411764707 76.78571428571428, 205.8823529411765 88.14285714285715, 213.52941176470588 76.78571428571428, 221.1764705882353 88.14285714285715, 228.8235294117647 93.82142857142857, 236.47058823529412 79.05714285714289, 244.1176470588235 99.5, 251.76470588235293 101.7714285714286, 259.4117647058823 102.90714285714283, 267.05882352941177 110.85714285714286, 274.70588235294116 118.80714285714288, 282.3529411764706 114.26428571428568, 290 101.7714285714286, 290 179" stroke="black" clip-path="url(#clip-0)" x1="0" x2="0" y1="0" y2="1" fill="url(#gradient-0)"></polygon> <clipPath id="clip-1"> <rect x="30" y="20" width="260" height="159"></rect></clipPath> <polygon points="30 20, 30 179.0, 37.64705882352941 166.50714285714284, 45.294117647058826 166.50714285714284, 52.94117647058823 143.79285714285714, 60.588235294117645 149.47142857142856, 68.23529411764706 149.47142857142856, 75.88235294117646 157.42142857142858, 83.52941176470588 156.28571428571428, 91.17647058823529 154.01428571428568, 98.82352941176471 140.3857142857143, 106.47058823529412 139.25, 114.11764705882354 129.02857142857144, 121.76470588235294 123.35000000000002, 129.41176470588235 54.07142857142857, 137.05882352941177 42.71428571428572, 144.70588235294116 48.39285714285714, 152.35294117647058 65.42857142857143, 160.0 76.78571428571428, 167.64705882352942 76.78571428571428, 175.29411764705884 76.78571428571428, 182.94117647058823 85.87142857142854, 190.58823529411765 81.32857142857141, 198.23529411764707 76.78571428571428, 205.8823529411765 88.14285714285715, 213.52941176470588 76.78571428571428, 221.1764705882353 88.14285714285715, 228.8235294117647 93.82142857142857, 236.47058823529412 79.05714285714289, 244.1176470588235 99.5, 251.76470588235293 101.7714285714286, 259.4117647058823 102.90714285714283, 267.05882352941177 110.85714285714286, 274.70588235294116 118.80714285714288, 282.3529411764706 114.26428571428568, 290 101.7714285714286, 290 20" stroke="black" clip-path="url(#clip-1)" x1="0" x2="0" y1="0" y2="1" fill="url(#gradient-1)"></polygon></svg>