<svg width="300" height="200" version="1.1" xmlns="http://www.w3.org/2000/svg" xmlns:xlink="http://www.w3.org/1999/xlink"> <rect width="300" height="200" x="0" y="0" fill="white"></rect> <line x1="30.0" x2="30.0" y1="179" y2="183" stroke="black"></line> <line x1="30.0" x2="30.0" y1="20" y2="179" stroke="#e0e0e0" opacity="1"></line> <text y="193" x="30.0" fill="black" font-weight="normal" font-size="12" text-anchor="middle" font-family="sans-serif"> 0</text> <line x1="45.294117647058826" x2="45.294117647058826" y1="179" y2="181" stroke="black"></line> <line x1="45.294117647058826" x2="45.294117647058826" y1="20" y2="179" stroke="#e0e0e0" opacity="1"></line> <line x1="60.588235294117645" x2="60.588235294117645" y1="179" y2="181" stroke="black"></line> <line x1="60.588235294117645" x2="60.588235294117645" y1="20" y2="179" stroke="#e0e0e0" opacity="1"></line> <line x1="75.88235294117646" x2="75.88235294117646" y1="179" y2="181" stroke="black"></line> <line x1="75.88235294117646" x2="75.88235294117646" y1="20" y2="179" stroke="#e0e0e0" opacity="1"></line> <line x1="91.17647058823529" x2="91.17647058823529" y1="179" y2="181" stroke="black"></line> <line x1="91.17647058823529" x2="91.17647058823529" y1="20" y2="179" stroke="#e0e0e0" opacity="1"></line> <line x1="106.47058823529412" x2="106.47058823529412" y1="179" y2="183" stroke="black"></line> <line x1="106.47058823529412" x2="106.47058823529412" y1="20" y2="179" stroke="#e0e0e0" opacity="1"></line> <text y="193" x="106.47058823529412" fill="black" font-weight="normal" font-size="12" text-anchor="middle" font-family="sans-serif"> 10</text> <line x1="121.76470588235294" x2="121.76470588235294" y1="179" y2="181" stroke="black"></line> <line x1="121.76470588235294" x2="121.76470588235294" y1="20" y2="179" stroke="#e0e0e0" opacity="1"></line> <line x1="137.05882352941177" x2="137.05882352941177" y1="179" y2="181" stroke="black"></line> <line x1="137.05882352941177" x2="137.05882352941177" y1="20" y2="179" stroke="#e0e0e0" opacity="1"></line> <line x1="152.35294117647058" x2="152.35294117647058" y1="179" y2="181" stroke="black"></line> <line x1="152.35294117647058" x2="152.35294117647058" y1="20" y2="179" stroke="#e0e0e0" opacity="1"></line> <line x1="167.64705882352942" x2="167.64705882352942" y1="179" y2="181" stroke="black"></line> <line x1="167.64705882352942" x2="167.64705882352942" y1="20" y2="179" stroke="#e0e0e0" opacity="1"></line> <line x1="182.94117647058823" x2="182.94117647058823" y1="179" y2="183" stroke="black"></line> <line x1="182.94117647058823" x2="182.94117647058823" y1="20" y2="179" stroke="#e0e0e0" opacity="1"></line> <text y="193" x="182.94117647058823" fill="black" font-weight="normal" font-size="12" text-anchor="middle" font-family="sans-serif"> 20</text> <line x1="198.23529411764707" x2="198.23529411764707" y1="179" y2="181" stroke="black"></line> <line x1="198.23529411764707" x2="198.23529411764707" y1="20" y2="179" stroke="#e0e0e0" opacity="1"></line> <line x1="213.52941176470588" x2="213.52941176470588" y1="179" y2="181" stroke="black"></line> <line x1="213.52941176470588" x2="213.52941176470588" y1="20" y2="179" stroke="#e0e0e0" opacity="1"></line> <line x1="228.8235294117647" x2="228.8235294117647" y1="179" y2="181" stroke="black"></line> <line x1="228.8235294117647" x2="228.8235294117647" y1="20" y2="179" stroke="#e0e0e0" opacity="1"></line> <line x1="244.1176470588235" x2="244.1176470588235" y1="179" y2="181" stroke="black"></line> <line x1="244.1176470588235" x2="244.1176470588235" y1="20" y2="179" stroke="#e0e0e0" opacity="1"></line> <line x1="259.4117647058823" x2="259.4117647058823" y1="179" y2="183" stroke="black"></line> <line x1="259.4117647058823" x2="259.4117647058823" y1="20" y2="179" stroke="#e0e0e0" opacity="1"></line> <text y="193" x="259.4117647058823" fill="black" font-weight="normal" font-size="12" text-anchor="middle" font-family="sans-serif"> 30</text> <line x1="274.70588235294116" x2="274.70588235294116" y1="179" y2="181" stroke="black"></line> <line x1="274.70588235294116" x2="274.70588235294116" y1="20" y2="179" stroke="#e0e0e0" opacity="1"></line> <line x1="290.0" x2="290.0" y1="179" y2="181" stroke="black"></line> <line x1="290.0" x2="290.0" y1="20" y2="179" stroke="#e0e0e0" opacity="1"></line> <line x1="30" x2="27" y1="179.0" y2="179.0" stroke="black"></line> <line x1="30" x2="290" y1="179.0" y2="179.0" opacity="1" stroke="#e0e0e0"></line> <line x1="30" x2="27" y1="167.64285714285714" y2="167.64285714285714" stroke="black"></line> <line x1="30" x2="290" y1="167.64285714285714" y2="167.64285714285714" opacity="1" stroke="#e0e0e0"></line> <text y="171.64285714285714" x="24" fill="black" font-size="12" text-anchor="end" font-family="sans-serif"> 42</text> <line x1="30" x2="27" y1="156.28571428571428" y2="156.28571428571428" stroke="black"></line> <line x1="30" x2="290" y1="156.28571428571428" y2="156.28571428571428" opacity="1" stroke="#e0e0e0"></line> <line x1="30" x2="27" y1="144.92857142857144" y2="144.92857142857144" stroke="black"></line> <line x1="30" x2="290" y1="144.92857142857144" y2="144.92857142857144" opacity="1" stroke="#e0e0e0"></line> <text y="148.92857142857144" x="24" fill="black" font-size="12" text-anchor="end" font-family="sans-serif"> 44</text> <line x1="30" x2="27" y1="133.57142857142858" y2="133.57142857142858" stroke="black"></line> <line x1="30" x2="290" y1="133.57142857142858" y2="133.57142857142858" opacity="1" stroke="#e0e0e0"></line> <line x1="30" x2="27" y1="122.21428571428572" y2="122.21428571428572" stroke="black"></line> <line x1="30" x2="290" y1="122.21428571428572" y2="122.21428571428572" opacity="1" stroke="#e0e0e0"></line> <text y="126.21428571428572" x="24" fill="black" font-size="12" text-anchor="end" font-family="sans-serif"> 46</text> <line x1="30" x2="27" y1="110.85714285714286" y2="110.85714285714286" stroke="black"></line> <line x1="30" x2="290" y1="110.85714285714286" y2="110.85714285714286" opacity="1" stroke="#e0e0e0"></line> <line x1="30" x2="27" y1="99.5" y2="99.5" stroke="black"></line> <line x1="30" x2="290" y1="99.5" y2="99.5" opacity="1" stroke="#e0e0e0"></line> <text y="103.5" x="24" fill="black" font-size="12" text-anchor="end" font-family="sans-serif"> 48</text> <line x1="30" x2="27" y1="88.14285714285715" y2="88.14285714285715" stroke="black"></line> <line x1="30" x2="290" y1="88.14285714285715" y2="88.14285714285715" opacity="1" stroke="#e0e0e0"></line> <line x1="30" x2="27" y1="76.78571428571428" y2="76.78571428571428" stroke="black"></line> <line x1="30" x2="290" y1="76.78571428571428" y2="76.78571428571428" opacity="1" stroke="#e0e0e0"></line> <text y="80.78571428571428" x="24" fill="black" font-size="12" text-anchor="end" font-family="sans-serif"> 50</text> <line x1="30" x2="27" y1="65.42857142857143" y2="65.42857142857143" stroke="black"></line> <line x1="30" x2="290" y1="65.42857142857143" y2="65.42857142857143" opacity="1" stroke="#e0e0e0"></line> <line x1="30" x2="27" y1="54.07142857142857" y2="54.07142857142857" stroke="black"></line> <line x1="30" x2="290" y1="54.07142857142857" y2="54.07142857142857" opacity="1" stroke="#e0e0e0"></line> <text y="58.07142857142857" x="24" fill="black" font-size="12" text-anchor="end" font-family="sans-serif"> 52</text> <line x1="30" x2="27" y1="42.71428571428572" y2="42.71428571428572" stroke="black"></line> <line x1="30" x2="290" y1="42.71428571428572" y2="42.71428571428572" opacity="1" stroke="#e0e0e0"></line> <line x1="30" x2="27" y1="31.35714285714286" y2="31.35714285714286" stroke="black"></line> <line x1="30" x2="290" y1="31.35714285714286" y2="31.35714285714286" opacity="1" stroke="#e0e0e0"></line> <text y="35.35714285714286" x="24" fill="black" font-size="12" text-anchor="end" font-family="sans-serif"> 54</text> <line x1="30" x2="27" y1="20.0" y2="20.0" stroke="black"></line> <line x1="30" x2="290" y1="20.0" y2="20.0" opacity="1" stroke="#e0e0e0"></line> <line x1="30" x2="30" y1="20" y2="184" stroke="black"></line> <line x1="25" x2="290" y1="179" y2="179" stroke="black"></line> <clipPath id="clip-0"> <rect x="30" y="20" width="260" height="159"></rect></clipPath> <text y="36.71428571428572" x="137.05882352941177" fill="black" font-weight="normal" font-size="12" text-anchor="middle" font-family="sans-serif"> New Model</text> <line x1="134.05882352941177" x2="140.05882352941177" y1="39.71428571428572" y2="45.71428571428572" stroke="black" clip-path="url(#clip-0)"></line> <line x1="140.05882352941177" x2="134.05882352941177" y1="39.71428571428572" y2="45.71428571428572" stroke="black" clip-path="url(#clip-0)"></line> <path d="M 30 179.0 C 30.764705882352942 177.75071428571428 36.11764705882353 167.75642857142856 37.64705882352941 166.50714285714284 C 39.1764705882353 165.25785714285712 43.76470588235294 168.7785714285714 45.294117647058826 166.50714285714284 C 46.82352941176471 164.23571428571427 51.41176470588235 145.49642857142857 52.94117647058823 143.79285714285714 C 54.470588235294116 142.08928571428572 59.05882352941176 148.9035714285714 60.588235294117645 149.47142857142856 C 62.11764705882353 150.0392857142857 66.70588235294117 148.67642857142857 68.23529411764706 149.47142857142856 C 69.76470588235294 150.26642857142855 74.35294117647058 156.74 75.88235294117646 157.42142857142858 C 77.41176470588235 158.10285714285715 82.0 156.62642857142856 83.52941176470588 156.28571428571428 C 85.05882352941177 155.945 89.6470588235294 155.60428571428568 91.17647058823529 154.01428571428568 C 92.70588235294117 152.42428571428567 97.29411764705883 141.86214285714286 98.82352941176471 140.3857142857143 C 100.3529411764706 138.90928571428574 104.94117647058823 140.3857142857143 106.47058823529412 139.25 C 108.0 138.1142857142857 112.58823529411765 130.61857142857144 114.11764705882354 129.02857142857144 C 115.64705882352942 127.43857142857144 120.23529411764706 130.8457142857143 121.76470588235294 123.35000000000002 C 123.29411764705883 115.85428571428574 127.88235294117646 62.135 129.41176470588235 54.07142857142857 C 130.94117647058823 46.00785714285714 135.52941176470588 43.282142857142865 137.05882352941177 42.71428571428572 C 138.58823529411765 42.14642857142858 143.17647058823528 46.12142857142857 144.70588235294116 48.39285714285714 C 146.23529411764704 50.66428571428571 150.8235294117647 62.589285714285715 152.35294117647058 65.42857142857143 C 153.88235294117646 68.26785714285714 158.47058823529412 75.64999999999999 160.0 76.78571428571428 C 161.52941176470588 77.92142857142856 166.11764705882354 76.78571428571428 167.64705882352942 76.78571428571428 C 169.1764705882353 76.78571428571428 173.76470588235296 75.87714285714286 175.29411764705884 76.78571428571428 C 176.82352941176472 77.6942857142857 181.41176470588235 85.41714285714282 182.94117647058823 85.87142857142854 C 184.47058823529412 86.32571428571426 189.05882352941177 82.23714285714283 190.58823529411765 81.32857142857141 C 192.11764705882354 80.41999999999999 196.7058823529412 76.10428571428571 198.23529411764707 76.78571428571428 C 199.76470588235296 77.46714285714285 204.3529411764706 88.14285714285715 205.8823529411765 88.14285714285715 C 207.41176470588238 88.14285714285715 212.0 76.78571428571428 213.52941176470588 76.78571428571428 C 215.05882352941177 76.78571428571428 219.64705882352942 86.43928571428572 221.1764705882353 88.14285714285715 C 222.7058823529412 89.84642857142859 227.2941176470588 94.72999999999999 228.8235294117647 93.82142857142857 C 230.35294117647058 92.91285714285715 234.94117647058823 78.48928571428576 236.47058823529412 79.05714285714289 C 238.0 79.62500000000003 242.58823529411762 97.22857142857143 244.1176470588235 99.5 C 245.6470588235294 101.77142857142857 250.23529411764704 101.43071428571432 251.76470588235293 101.7714285714286 C 253.2941176470588 102.11214285714289 257.88235294117646 101.99857142857141 259.4117647058823 102.90714285714283 C 260.9411764705882 103.81571428571425 265.52941176470586 109.26714285714286 267.05882352941177 110.85714285714286 C 268.5882352941177 112.44714285714286 273.17647058823525 118.4664285714286 274.70588235294116 118.80714285714288 C 276.2352941176471 119.14785714285716 280.82352941176475 115.9678571428571 282.3529411764706 114.26428571428568 C 283.88235294117646 112.56071428571425 289.2352941176471 103.0207142857143 290 101.7714285714286" fill="none" stroke="black" clip-path="url(#clip-0)" stroke-width="1"></path></svg>