<svg width="300" height="200" version="1.1" xmlns="http://www.w3.org/2000/svg" xmlns:xlink="http://www.w3.org/1999/xlink"> <rect width="300" height="200" x="0" y="0" fill="white"></rect> <line x1="30.0" x2="30.0" y1="179" y2="183" stroke="black"></line> <line x1="30.0" x2="30.0" y1="20" y2="179" stroke="#e0e0e0" opacity="1"></line> <text y="193" x="30.0" fill="black" font-weight="normal" font-size="12" text-anchor="middle" font-family="sans-serif"> 0</text> <line x1="45.294117647058826" x2="45.294117647058826" y1="179" y2="181" stroke="black"></line> <line x1="45.294117647058826" x2="45.294117647058826" y1="20" y2="179" stroke="#e0e0e0" opacity="1"></line> <line x1="60.588235294117645" x2="60.588235294117645" y1="179" y2="181" stroke="black"></line> <line x1="60.588235294117645" x2="60.588235294117645" y1="20" y2="179" stroke="#e0e0e0" opacity="1"></line> <line x1="75.88235294117646" x2="75.88235294117646" y1="179" y2="181" stroke="black"></line> <line x1="75.88235294117646" x2="75.88235294117646" y1="20" y2="179" stroke="#e0e0e0" opacity="1"></line> <line x1="91.17647058823529" x2="91.17647058823529" y1="179" y2="181" stroke="black"></line> <line x1="91.17647058823529" x2="91.17647058823529" y1="20" y2="179" stroke="#e0e0e0" opacity="1"></line> <line x1="106.47058823529412" x2="106.47058823529412" y1="179" y2="183" stroke="black"></line> <line x1="106.47058823529412" x2="106.47058823529412" y1="20" y2="179" stroke="#e0e0e0" opacity="1"></line> <text y="193" x="106.47058823529412" fill="black" font-weight="normal" font-size="12" text-anchor="middle" font-family="sans-serif"> 10</text> <line x1="121.76470588235294" x2="121.76470588235294" y1="179" y2="181" stroke="black"></line> <line x1="121.76470588235294" x2="121.76470588235294" y1="20" y2="179" stroke="#e0e0e0" opacity="1"></line> <line x1="137.05882352941177" x2="137.05882352941177" y1="179" y2="181" stroke="black"></line> <line x1="137.05882352941177" x2="137.05882352941177" y1="20" y2="179" stroke="#e0e0e0" opacity="1"></line> <line x1="152.35294117647058" x2="152.35294117647058" y1="179" y2="181" stroke="black"></line> <line x1="152.35294117647058" x2="152.35294117647058" y1="20" y2="179" stroke="#e0e0e0" opacity="1"></line> <line x1="167.64705882352942" x2="167.64705882352942" y1="179" y2="181" stroke="black"></line> <line x1="167.64705882352942" x2="167.64705882352942" y1="20" y2="179" stroke="#e0e0e0" opacity="1"></line> <line x1="182.94117647058823" x2="182.94117647058823" y1="179" y2="183" stroke="black"></line> <line x1="182.94117647058823" x2="182.94117647058823" y1="20" y2="179" stroke="#e0e0e0" opacity="1"></line> <text y="193" x="182.94117647058823" fill="black" font-weight="normal" font-size="12" text-anchor="middle" font-family="sans-serif"> 20</text> <line x1="198.23529411764707" x2="198.23529411764707" y1="179" y2="181" stroke="black"></line> <line x1="198.23529411764707" x2="198.23529411764707" y1="20" y2="179" stroke="#e0e0e0" opacity="1"></line> <line x1="213.52941176470588" x2="213.52941176470588" y1="179" y2="181" stroke="black"></line> <line x1="213.52941176470588" x2="213.52941176470588" y1="20" y2="179" stroke="#e0e0e0" opacity="1"></line> <line x1="228.8235294117647" x2="228.8235294117647" y1="179" y2="181" stroke="black"></line> <line x1="228.8235294117647" x2="228.8235294117647" y1="20" y2="179" stroke="#e0e0e0" opacity="1"></line> <line x1="244.1176470588235" x2="244.1176470588235" y1="179" y2="181" stroke="black"></line> <line x1="244.1176470588235" x2="244.1176470588235" y1="20" y2="179" stroke="#e0e0e0" opacity="1"></line> <line x1="259.4117647058823" x2="259.4117647058823" y1="179" y2="183" stroke="black"></line> <line x1="259.4117647058823" x2="259.4117647058823" y1="20" y2="179" stroke="#e0e0e0" opacity="1"></line> <text y="193" x="259.4117647058823" fill="black" font-weight="normal" font-size="12" text-anchor="middle" font-family="sans-serif"> 30</text> <line x1="274.70588235294116" x2="274.70588235294116" y1="179" y2="181" stroke="black"></line> <line x1="274.70588235294116" x2="274.70588235294116" y1="20" y2="179" stroke="#e0e0e0" opacity="1"></line> <line x1="290.0" x2="290.0" y1="179" y2="181" stroke="black"></line> <line x1="290.0" x2="290.0" y1="20" y2="179" stroke="#e0e0e0" opacity="1"></line> <line x1="30" x2="27" y1="179.0" y2="179.0" stroke="black"></line> <line x1="30" x2="290" y1="179.0" y2="179.0" opacity="1" stroke="#e0e0e0"></line> <line x1="30" x2="27" y1="167.64285714285714" y2="167.64285714285714" stroke="black"></line> <line x1="30" x2="290" y1="167.64285714285714" y2="167.64285714285714" opacity="1" stroke="#e0e0e0"></line> <text y="171.64285714285714" x="24" fill="black" font-size="12" text-anchor="end" font-family="sans-serif"> 42</text> <line x1="30" x2="27" y1="156.28571428571428" y2="156.28571428571428" stroke="black"></line> <line x1="30" x2="290" y1="156.28571428571428" y2="156.28571428571428" opacity="1" stroke="#e0e0e0"></line> <line x1="30" x2="27" y1="144.92857142857144" y2="144.92857142857144" stroke="black"></line> <line x1="30" x2="290" y1="144.92857142857144" y2="144.92857142857144" opacity="1" stroke="#e0e0e0"></line> <text y="148.92857142857144" x="24" fill="black" font-size="12" text-anchor="end" font-family="sans-serif"> 44</text> <line x1="30" x2="27" y1="133.57142857142858" y2="133.57142857142858" stroke="black"></line> <line x1="30" x2="290" y1="133.57142857142858" y2="133.57142857142858" opacity="1" stroke="#e0e0e0"></line> <line x1="30" x2="27" y1="122.21428571428572" y2="122.21428571428572" stroke="black"></line> <line x1="30" x2="290" y1="122.21428571428572" y2="122.21428571428572" opacity="1" stroke="#e0e0e0"></line> <text y="126.21428571428572" x="24" fill="black" font-size="12" text-anchor="end" font-family="sans-serif"> 46</text> <line x1="30" x2="27" y1="110.85714285714286" y2="110.85714285714286" stroke="black"></line> <line x1="30" x2="290" y1="110.85714285714286" y2="110.85714285714286" opacity="1" stroke="#e0e0e0"></line> <line x1="30" x2="27" y1="99.5" y2="99.5" stroke="black"></line> <line x1="30" x2="290" y1="99.5" y2="99.5" opacity="1" stroke="#e0e0e0"></line> <text y="103.5" x="24" fill="black" font-size="12" text-anchor="end" font-family="sans-serif"> 48</text> <line x1="30" x2="27" y1="88.14285714285715" y2="88.14285714285715" stroke="black"></line> <line x1="30" x2="290" y1="88.14285714285715" y2="88.14285714285715" opacity="1" stroke="#e0e0e0"></line> <line x1="30" x2="27" y1="76.78571428571428" y2="76.78571428571428" stroke="black"></line> <line x1="30" x2="290" y1="76.78571428571428" y2="76.78571428571428" opacity="1" stroke="#e0e0e0"></line> <text y="80.78571428571428" x="24" fill="black" font-size="12" text-anchor="end" font-family="sans-serif"> 50</text> <line x1="30" x2="27" y1="65.42857142857143" y2="65.42857142857143" stroke="black"></line> <line x1="30" x2="290" y1="65.42857142857143" y2="65.42857142857143" opacity="1" stroke="#e0e0e0"></line> <line x1="30" x2="27" y1="54.07142857142857" y2="54.07142857142857" stroke="black"></line> <line x1="30" x2="290" y1="54.07142857142857" y2="54.07142857142857" opacity="1" stroke="#e0e0e0"></line> <text y="58.07142857142857" x="24" fill="black" font-size="12" text-anchor="end" font-family="sans-serif"> 52</text> <line x1="30" x2="27" y1="42.71428571428572" y2="42.71428571428572" stroke="black"></line> <line x1="30" x2="290" y1="42.71428571428572" y2="42.71428571428572" opacity="1" stroke="#e0e0e0"></line> <line x1="30" x2="27" y1="31.35714285714286" y2="31.35714285714286" stroke="black"></line> <line x1="30" x2="290" y1="31.35714285714286" y2="31.35714285714286" opacity="1" stroke="#e0e0e0"></line> <text y="35.35714285714286" x="24" fill="black" font-size="12" text-anchor="end" font-family="sans-serif"> 54</text> <line x1="30" x2="27" y1="20.0" y2="20.0" stroke="black"></line> <line x1="30" x2="290" y1="20.0" y2="20.0" opacity="1" stroke="#e0e0e0"></line> <line x1="30" x2="30" y1="20" y2="184" stroke="black"></line> <line x1="25" x2="290" y1="179" y2="179" stroke="black"></line> <clipPath id="clip-0"> <rect x="30" y="20" width="260" height="159"></rect></clipPath> <rect width="7" height="7" x="26.5" y="175.5" stroke="green" clip-path="url(#clip-0)" fill="none"></rect> <rect width="7" height="7" x="34.14705882352941" y="163.00714285714284" stroke="green" clip-path="url(#clip-0)" fill="none"></rect> <rect width="7" height="7" x="41.794117647058826" y="163.00714285714284" stroke="green" clip-path="url(#clip-0)" fill="none"></rect> <rect width="7" height="7" x="49.44117647058823" y="140.29285714285714" stroke="green" clip-path="url(#clip-0)" fill="none"></rect> <rect width="7" height="7" x="57.088235294117645" y="145.97142857142856" stroke="green" clip-path="url(#clip-0)" fill="none"></rect> <rect width="7" height="7" x="64.73529411764706" y="145.97142857142856" stroke="green" clip-path="url(#clip-0)" fill="none"></rect> <rect width="7" height="7" x="72.38235294117646" y="153.92142857142858" stroke="green" clip-path="url(#clip-0)" fill="none"></rect> <rect width="7" height="7" x="80.02941176470588" y="152.78571428571428" stroke="green" clip-path="url(#clip-0)" fill="none"></rect> <rect width="7" height="7" x="87.67647058823529" y="150.51428571428568" stroke="green" clip-path="url(#clip-0)" fill="none"></rect> <rect width="7" height="7" x="95.32352941176471" y="136.8857142857143" stroke="green" clip-path="url(#clip-0)" fill="none"></rect> <rect width="7" height="7" x="102.97058823529412" y="135.75" stroke="green" clip-path="url(#clip-0)" fill="none"></rect> <rect width="7" height="7" x="110.61764705882354" y="125.52857142857144" stroke="green" clip-path="url(#clip-0)" fill="none"></rect> <rect width="7" height="7" x="118.26470588235294" y="119.85000000000002" stroke="green" clip-path="url(#clip-0)" fill="none"></rect> <rect width="7" height="7" x="125.91176470588235" y="50.57142857142857" stroke="green" clip-path="url(#clip-0)" fill="none"></rect> <rect width="7" height="7" x="133.55882352941177" y="39.21428571428572" stroke="green" clip-path="url(#clip-0)" fill="none"></rect> <rect width="7" height="7" x="141.20588235294116" y="44.89285714285714" stroke="green" clip-path="url(#clip-0)" fill="none"></rect> <rect width="7" height="7" x="148.85294117647058" y="61.92857142857143" stroke="green" clip-path="url(#clip-0)" fill="none"></rect> <rect width="7" height="7" x="156.5" y="73.28571428571428" stroke="green" clip-path="url(#clip-0)" fill="none"></rect> <rect width="7" height="7" x="164.14705882352942" y="73.28571428571428" stroke="green" clip-path="url(#clip-0)" fill="none"></rect> <rect width="7" height="7" x="171.79411764705884" y="73.28571428571428" stroke="green" clip-path="url(#clip-0)" fill="none"></rect> <rect width="7" height="7" x="179.44117647058823" y="82.37142857142854" stroke="green" clip-path="url(#clip-0)" fill="none"></rect> <rect width="7" height="7" x="187.08823529411765" y="77.82857142857141" stroke="green" clip-path="url(#clip-0)" fill="none"></rect> <rect width="7" height="7" x="194.73529411764707" y="73.28571428571428" stroke="green" clip-path="url(#clip-0)" fill="none"></rect> <rect width="7" height="7" x="202.3823529411765" y="84.64285714285715" stroke="green" clip-path="url(#clip-0)" fill="none"></rect> <rect width="7" height="7" x="210.02941176470588" y="73.28571428571428" stroke="green" clip-path="url(#clip-0)" fill="none"></rect> <rect width="7" height="7" x="217.6764705882353" y="84.64285714285715" stroke="green" clip-path="url(#clip-0)" fill="none"></rect> <rect width="7" height="7" x="225.3235294117647" y="90.32142857142857" stroke="green" clip-path="url(#clip-0)" fill="none"></rect> <rect width="7" height="7" x="232.97058823529412" y="75.55714285714289" stroke="green" clip-path="url(#clip-0)" fill="none"></rect> <rect width="7" height="7" x="240.6176470588235" y="96.0" stroke="green" clip-path="url(#clip-0)" fill="none"></rect> <rect width="7" height="7" x="248.26470588235293" y="98.2714285714286" stroke="green" clip-path="url(#clip-0)" fill="none"></rect> <rect width="7" height="7" x="255.91176470588232" y="99.40714285714283" stroke="green" clip-path="url(#clip-0)" fill="none"></rect> <rect width="7" height="7" x="263.55882352941177" y="107.35714285714286" stroke="green" clip-path="url(#clip-0)" fill="none"></rect> <rect width="7" height="7" x="271.20588235294116" y="115.30714285714288" stroke="green" clip-path="url(#clip-0)" fill="none"></rect> <rect width="7" height="7" x="278.8529411764706" y="110.76428571428568" stroke="green" clip-path="url(#clip-0)" fill="none"></rect> <rect width="7" height="7" x="286.5" y="98.2714285714286" stroke="green" clip-path="url(#clip-0)" fill="none"></rect></svg>