<svg width="300" height="200" version="1.1" xmlns="http://www.w3.org/2000/svg" xmlns:xlink="http://www.w3.org/1999/xlink"> <rect width="300" height="200" x="0" y="0" fill="white"></rect> <line x1="30.0" x2="30.0" y1="179" y2="183" stroke="black"></line> <line x1="30.0" x2="30.0" y1="20" y2="179" stroke="#e0e0e0" opacity="1"></line> <text y="193" x="30.0" fill="black" font-weight="normal" font-size="12" text-anchor="middle" font-family="sans-serif"> 0</text> <line x1="45.294117647058826" x2="45.294117647058826" y1="179" y2="181" stroke="black"></line> <line x1="45.294117647058826" x2="45.294117647058826" y1="20" y2="179" stroke="#e0e0e0" opacity="1"></line> <line x1="60.588235294117645" x2="60.588235294117645" y1="179" y2="181" stroke="black"></line> <line x1="60.588235294117645" x2="60.588235294117645" y1="20" y2="179" stroke="#e0e0e0" opacity="1"></line> <line x1="75.88235294117646" x2="75.88235294117646" y1="179" y2="181" stroke="black"></line> <line x1="75.88235294117646" x2="75.88235294117646" y1="20" y2="179" stroke="#e0e0e0" opacity="1"></line> <line x1="91.17647058823529" x2="91.17647058823529" y1="179" y2="181" stroke="black"></line> <line x1="91.17647058823529" x2="91.17647058823529" y1="20" y2="179" stroke="#e0e0e0" opacity="1"></line> <line x1="106.47058823529412" x2="106.47058823529412" y1="179" y2="183" stroke="black"></line> <line x1="106.47058823529412" x2="106.47058823529412" y1="20" y2="179" stroke="#e0e0e0" opacity="1"></line> <text y="193" x="106.47058823529412" fill="black" font-weight="normal" font-size="12" text-anchor="middle" font-family="sans-serif"> 10</text> <line x1="121.76470588235294" x2="121.76470588235294" y1="179" y2="181" stroke="black"></line> <line x1="121.76470588235294" x2="121.76470588235294" y1="20" y2="179" stroke="#e0e0e0" opacity="1"></line> <line x1="137.05882352941177" x2="137.05882352941177" y1="179" y2="181" stroke="black"></line> <line x1="137.05882352941177" x2="137.05882352941177" y1="20" y2="179" stroke="#e0e0e0" opacity="1"></line> <line x1="152.35294117647058" x2="152.35294117647058" y1="179" y2="181" stroke="black"></line> <line x1="152.35294117647058" x2="152.35294117647058" y1="20" y2="179" stroke="#e0e0e0" opacity="1"></line> <line x1="167.64705882352942" x2="167.64705882352942" y1="179" y2="181" stroke="black"></line> <line x1="167.64705882352942" x2="167.64705882352942" y1="20" y2="179" stroke="#e0e0e0" opacity="1"></line> <line x1="182.94117647058823" x2="182.94117647058823" y1="179" y2="183" stroke="black"></line> <line x1="182.94117647058823" x2="182.94117647058823" y1="20" y2="179" stroke="#e0e0e0" opacity="1"></line> <text y="193" x="182.94117647058823" fill="black" font-weight="normal" font-size="12" text-anchor="middle" font-family="sans-serif"> 20</text> <line x1="198.23529411764707" x2="198.23529411764707" y1="179" y2="181" stroke="black"></line> <line x1="198.23529411764707" x2="198.23529411764707" y1="20" y2="179" stroke="#e0e0e0" opacity="1"></line> <line x1="213.52941176470588" x2="213.52941176470588" y1="179" y2="181" stroke="black"></line> <line x1="213.52941176470588" x2="213.52941176470588" y1="20" y2="179" stroke="#e0e0e0" opacity="1"></line> <line x1="228.8235294117647" x2="228.8235294117647" y1="179" y2="181" stroke="black"></line> <line x1="228.8235294117647" x2="228.8235294117647" y1="20" y2="179" stroke="#e0e0e0" opacity="1"></line> <line x1="244.1176470588235" x2="244.1176470588235" y1="179" y2="181" stroke="black"></line> <line x1="244.1176470588235" x2="244.1176470588235" y1="20" y2="179" stroke="#e0e0e0" opacity="1"></line> <line x1="259.4117647058823" x2="259.4117647058823" y1="179" y2="183" stroke="black"></line> <line x1="259.4117647058823" x2="259.4117647058823" y1="20" y2="179" stroke="#e0e0e0" opacity="1"></line> <text y="193" x="259.4117647058823" fill="black" font-weight="normal" font-size="12" text-anchor="middle" font-family="sans-serif"> 30</text> <line x1="274.70588235294116" x2="274.70588235294116" y1="179" y2="181" stroke="black"></line> <line x1="274.70588235294116" x2="274.70588235294116" y1="20" y2="179" stroke="#e0e0e0" opacity="1"></line> <line x1="290.0" x2="290.0" y1="179" y2="181" stroke="black"></line> <line x1="290.0" x2="290.0" y1="20" y2="179" stroke="#e0e0e0" opacity="1"></line> <line x1="30" x2="27" y1="179.0" y2="179.0" stroke="black"></line> <line x1="30" x2="290" y1="179.0" y2="179.0" opacity="1" stroke="#e0e0e0"></line> <text y="183.0" x="24" fill="black" font-size="12" text-anchor="end" font-family="sans-serif"> 40</text> <line x1="30" x2="27" y1="169.0625" y2="169.0625" stroke="black"></line> <line x1="30" x2="290" y1="169.0625" y2="169.0625" opacity="1" stroke="#e0e0e0"></line> <line x1="30" x2="27" y1="159.125" y2="159.125" stroke="black"></line> <line x1="30" x2="290" y1="159.125" y2="159.125" opacity="1" stroke="#e0e0e0"></line> <line x1="30" x2="27" y1="149.1875" y2="149.1875" stroke="black"></line> <line x1="30" x2="290" y1="149.1875" y2="149.1875" opacity="1" stroke="#e0e0e0"></line> <line x1="30" x2="27" y1="139.25" y2="139.25" stroke="black"></line> <line x1="30" x2="290" y1="139.25" y2="139.25" opacity="1" stroke="#e0e0e0"></line> <line x1="30" x2="27" y1="129.3125" y2="129.3125" stroke="black"></line> <line x1="30" x2="290" y1="129.3125" y2="129.3125" opacity="1" stroke="#e0e0e0"></line> <text y="133.3125" x="24" fill="black" font-size="12" text-anchor="end" font-family="sans-serif"> 50</text> <line x1="30" x2="27" y1="119.375" y2="119.375" stroke="black"></line> <line x1="30" x2="290" y1="119.375" y2="119.375" opacity="1" stroke="#e0e0e0"></line> <line x1="30" x2="27" y1="109.4375" y2="109.4375" stroke="black"></line> <line x1="30" x2="290" y1="109.4375" y2="109.4375" opacity="1" stroke="#e0e0e0"></line> <line x1="30" x2="27" y1="99.5" y2="99.5" stroke="black"></line> <line x1="30" x2="290" y1="99.5" y2="99.5" opacity="1" stroke="#e0e0e0"></line> <line x1="30" x2="27" y1="89.5625" y2="89.5625" stroke="black"></line> <line x1="30" x2="290" y1="89.5625" y2="89.5625" opacity="1" stroke="#e0e0e0"></line> <line x1="30" x2="27" y1="79.625" y2="79.625" stroke="black"></line> <line x1="30" x2="290" y1="79.625" y2="79.625" opacity="1" stroke="#e0e0e0"></line> <text y="83.625" x="24" fill="black" font-size="12" text-anchor="end" font-family="sans-serif"> 60</text> <line x1="30" x2="27" y1="69.6875" y2="69.6875" stroke="black"></line> <line x1="30" x2="290" y1="69.6875" y2="69.6875" opacity="1" stroke="#e0e0e0"></line> <line x1="30" x2="27" y1="59.75" y2="59.75" stroke="black"></line> <line x1="30" x2="290" y1="59.75" y2="59.75" opacity="1" stroke="#e0e0e0"></line> <line x1="30" x2="27" y1="49.8125" y2="49.8125" stroke="black"></line> <line x1="30" x2="290" y1="49.8125" y2="49.8125" opacity="1" stroke="#e0e0e0"></line> <line x1="30" x2="27" y1="39.875" y2="39.875" stroke="black"></line> <line x1="30" x2="290" y1="39.875" y2="39.875" opacity="1" stroke="#e0e0e0"></line> <line x1="30" x2="27" y1="29.9375" y2="29.9375" stroke="black"></line> <line x1="30" x2="290" y1="29.9375" y2="29.9375" opacity="1" stroke="#e0e0e0"></line> <text y="33.9375" x="24" fill="black" font-size="12" text-anchor="end" font-family="sans-serif"> 70</text> <line x1="30" x2="27" y1="20.0" y2="20.0" stroke="black"></line> <line x1="30" x2="290" y1="20.0" y2="20.0" opacity="1" stroke="#e0e0e0"></line> <line x1="30" x2="30" y1="20" y2="184" stroke="black"></line> <line x1="25" x2="290" y1="179" y2="179" stroke="black"></line> <clipPath id="clip-0"> <rect x="30" y="20" width="260" height="159"></rect></clipPath> <line x1="30" x2="37.64705882352941" y1="91.79152596875" y2="80.220951875" stroke="blue" clip-path="url(#clip-0)" stroke-width="1"></line> <line x1="37.64705882352941" x2="45.294117647058826" y1="80.220951875" y2="80.220951875" stroke="blue" clip-path="url(#clip-0)" stroke-width="1"></line> <line x1="45.294117647058826" x2="52.94117647058823" y1="80.220951875" y2="81.87389103125" stroke="blue" clip-path="url(#clip-0)" stroke-width="1"></line> <line x1="52.94117647058823" x2="60.588235294117645" y1="81.87389103125" y2="80.220951875" stroke="blue" clip-path="url(#clip-0)" stroke-width="1"></line> <line x1="60.588235294117645" x2="68.23529411764706" y1="80.220951875" y2="81.87389103125" stroke="blue" clip-path="url(#clip-0)" stroke-width="1"></line> <line x1="68.23529411764706" x2="75.88235294117646" y1="81.87389103125" y2="84.35329976562501" stroke="blue" clip-path="url(#clip-0)" stroke-width="1"></line> <line x1="75.88235294117646" x2="83.52941176470588" y1="84.35329976562501" y2="85.17976934375001" stroke="blue" clip-path="url(#clip-0)" stroke-width="1"></line> <line x1="83.52941176470588" x2="91.17647058823529" y1="85.17976934375001" y2="85.17976934375001" stroke="blue" clip-path="url(#clip-0)" stroke-width="1"></line> <line x1="91.17647058823529" x2="98.82352941176471" y1="85.17976934375001" y2="85.17976934375001" stroke="blue" clip-path="url(#clip-0)" stroke-width="1"></line> <line x1="98.82352941176471" x2="106.47058823529412" y1="85.17976934375001" y2="76.9150735625" stroke="blue" clip-path="url(#clip-0)" stroke-width="1"></line> <line x1="106.47058823529412" x2="114.11764705882354" y1="76.9150735625" y2="62.03862115624999" stroke="blue" clip-path="url(#clip-0)" stroke-width="1"></line> <line x1="114.11764705882354" x2="121.76470588235294" y1="62.03862115624999" y2="62.03862115624999" stroke="blue" clip-path="url(#clip-0)" stroke-width="1"></line> <line x1="121.76470588235294" x2="129.41176470588235" y1="62.03862115624999" y2="60.38568199999999" stroke="blue" clip-path="url(#clip-0)" stroke-width="1"></line> <line x1="129.41176470588235" x2="137.05882352941177" y1="60.38568199999999" y2="62.03862115624999" stroke="blue" clip-path="url(#clip-0)" stroke-width="1"></line> <line x1="137.05882352941177" x2="144.70588235294116" y1="62.03862115624999" y2="52.120986218750005" stroke="blue" clip-path="url(#clip-0)" stroke-width="1"></line> <line x1="144.70588235294116" x2="152.35294117647058" y1="52.120986218750005" y2="55.42686453125002" stroke="blue" clip-path="url(#clip-0)" stroke-width="1"></line> <line x1="152.35294117647058" x2="160.0" y1="55.42686453125002" y2="60.38568199999999" stroke="blue" clip-path="url(#clip-0)" stroke-width="1"></line> <line x1="160.0" x2="167.64705882352942" y1="60.38568199999999" y2="60.38568199999999" stroke="blue" clip-path="url(#clip-0)" stroke-width="1"></line> <line x1="167.64705882352942" x2="175.29411764705884" y1="60.38568199999999" y2="40.55041212499998" stroke="blue" clip-path="url(#clip-0)" stroke-width="1"></line> <line x1="175.29411764705884" x2="182.94117647058823" y1="40.55041212499998" y2="47.162168750000006" stroke="blue" clip-path="url(#clip-0)" stroke-width="1"></line> <line x1="182.94117647058823" x2="190.58823529411765" y1="47.162168750000006" y2="38.89747296874998" stroke="blue" clip-path="url(#clip-0)" stroke-width="1"></line> <line x1="190.58823529411765" x2="198.23529411764707" y1="38.89747296874998" y2="33.93865549999998" stroke="blue" clip-path="url(#clip-0)" stroke-width="1"></line> <line x1="198.23529411764707" x2="205.8823529411765" y1="33.93865549999998" y2="41.86746874999997" stroke="blue" clip-path="url(#clip-0)" stroke-width="1"></line> <line x1="205.8823529411765" x2="213.52941176470588" y1="41.86746874999997" y2="44.84375" stroke="blue" clip-path="url(#clip-0)" stroke-width="1"></line> <line x1="213.52941176470588" x2="221.1764705882353" y1="44.84375" y2="37.390625" stroke="blue" clip-path="url(#clip-0)" stroke-width="1"></line> <line x1="221.1764705882353" x2="228.8235294117647" y1="37.390625" y2="34.90625" stroke="blue" clip-path="url(#clip-0)" stroke-width="1"></line> <line x1="228.8235294117647" x2="236.47058823529412" y1="34.90625" y2="44.84375" stroke="blue" clip-path="url(#clip-0)" stroke-width="1"></line> <line x1="236.47058823529412" x2="244.1176470588235" y1="44.84375" y2="37.390625" stroke="blue" clip-path="url(#clip-0)" stroke-width="1"></line> <line x1="244.1176470588235" x2="251.76470588235293" y1="37.390625" y2="59.75" stroke="blue" clip-path="url(#clip-0)" stroke-width="1"></line> <line x1="251.76470588235293" x2="259.4117647058823" y1="59.75" y2="89.5625" stroke="blue" clip-path="url(#clip-0)" stroke-width="1"></line> <line x1="259.4117647058823" x2="267.05882352941177" y1="89.5625" y2="64.71875" stroke="blue" clip-path="url(#clip-0)" stroke-width="1"></line> <line x1="267.05882352941177" x2="274.70588235294116" y1="64.71875" y2="79.625" stroke="blue" clip-path="url(#clip-0)" stroke-width="1"></line> <line x1="274.70588235294116" x2="282.3529411764706" y1="79.625" y2="64.71875" stroke="blue" clip-path="url(#clip-0)" stroke-width="1"></line> <line x1="282.3529411764706" x2="290" y1="64.71875" y2="79.625" stroke="blue" clip-path="url(#clip-0)" stroke-width="1"></line> <clipPath id="clip-1"> <rect x="30" y="20" width="260" height="159"></rect></clipPath> <line x1="30" x2="37.64705882352941" y1="174.03125" y2="168.56562499999998" stroke="black" clip-path="url(#clip-1)" stroke-width="1"></line> <line x1="37.64705882352941" x2="45.294117647058826" y1="168.56562499999998" y2="168.56562499999998" stroke="black" clip-path="url(#clip-1)" stroke-width="1"></line> <line x1="45.294117647058826" x2="52.94117647058823" y1="168.56562499999998" y2="158.62812499999998" stroke="black" clip-path="url(#clip-1)" stroke-width="1"></line> <line x1="52.94117647058823" x2="60.588235294117645" y1="158.62812499999998" y2="161.11249999999998" stroke="black" clip-path="url(#clip-1)" stroke-width="1"></line> <line x1="60.588235294117645" x2="68.23529411764706" y1="161.11249999999998" y2="161.11249999999998" stroke="black" clip-path="url(#clip-1)" stroke-width="1"></line> <line x1="68.23529411764706" x2="75.88235294117646" y1="161.11249999999998" y2="164.59062500000002" stroke="black" clip-path="url(#clip-1)" stroke-width="1"></line> <line x1="75.88235294117646" x2="83.52941176470588" y1="164.59062500000002" y2="164.09375" stroke="black" clip-path="url(#clip-1)" stroke-width="1"></line> <line x1="83.52941176470588" x2="91.17647058823529" y1="164.09375" y2="163.1" stroke="black" clip-path="url(#clip-1)" stroke-width="1"></line> <line x1="91.17647058823529" x2="98.82352941176471" y1="163.1" y2="157.13750000000002" stroke="black" clip-path="url(#clip-1)" stroke-width="1"></line> <line x1="98.82352941176471" x2="106.47058823529412" y1="157.13750000000002" y2="156.640625" stroke="black" clip-path="url(#clip-1)" stroke-width="1"></line> <line x1="106.47058823529412" x2="114.11764705882354" y1="156.640625" y2="152.16875000000002" stroke="black" clip-path="url(#clip-1)" stroke-width="1"></line> <line x1="114.11764705882354" x2="121.76470588235294" y1="152.16875000000002" y2="149.68437500000002" stroke="black" clip-path="url(#clip-1)" stroke-width="1"></line> <line x1="121.76470588235294" x2="129.41176470588235" y1="149.68437500000002" y2="119.375" stroke="black" clip-path="url(#clip-1)" stroke-width="1"></line> <line x1="129.41176470588235" x2="137.05882352941177" y1="119.375" y2="114.40625" stroke="black" clip-path="url(#clip-1)" stroke-width="1"></line> <line x1="137.05882352941177" x2="144.70588235294116" y1="114.40625" y2="116.890625" stroke="black" clip-path="url(#clip-1)" stroke-width="1"></line> <line x1="144.70588235294116" x2="152.35294117647058" y1="116.890625" y2="124.34375" stroke="black" clip-path="url(#clip-1)" stroke-width="1"></line> <line x1="152.35294117647058" x2="160.0" y1="124.34375" y2="129.3125" stroke="black" clip-path="url(#clip-1)" stroke-width="1"></line> <line x1="160.0" x2="167.64705882352942" y1="129.3125" y2="129.3125" stroke="black" clip-path="url(#clip-1)" stroke-width="1"></line> <line x1="167.64705882352942" x2="175.29411764705884" y1="129.3125" y2="129.3125" stroke="black" clip-path="url(#clip-1)" stroke-width="1"></line> <line x1="175.29411764705884" x2="182.94117647058823" y1="129.3125" y2="133.2875" stroke="black" clip-path="url(#clip-1)" stroke-width="1"></line> <line x1="182.94117647058823" x2="190.58823529411765" y1="133.2875" y2="131.29999999999998" stroke="black" clip-path="url(#clip-1)" stroke-width="1"></line> <line x1="190.58823529411765" x2="198.23529411764707" y1="131.29999999999998" y2="129.3125" stroke="black" clip-path="url(#clip-1)" stroke-width="1"></line> <line x1="198.23529411764707" x2="205.8823529411765" y1="129.3125" y2="134.28125" stroke="black" clip-path="url(#clip-1)" stroke-width="1"></line> <line x1="205.8823529411765" x2="213.52941176470588" y1="134.28125" y2="129.3125" stroke="black" clip-path="url(#clip-1)" stroke-width="1"></line> <line x1="213.52941176470588" x2="221.1764705882353" y1="129.3125" y2="134.28125" stroke="black" clip-path="url(#clip-1)" stroke-width="1"></line> <line x1="221.1764705882353" x2="228.8235294117647" y1="134.28125" y2="136.765625" stroke="black" clip-path="url(#clip-1)" stroke-width="1"></line> <line x1="228.8235294117647" x2="236.47058823529412" y1="136.765625" y2="130.30625" stroke="black" clip-path="url(#clip-1)" stroke-width="1"></line> <line x1="236.47058823529412" x2="244.1176470588235" y1="130.30625" y2="139.25" stroke="black" clip-path="url(#clip-1)" stroke-width="1"></line> <line x1="244.1176470588235" x2="251.76470588235293" y1="139.25" y2="140.24375" stroke="black" clip-path="url(#clip-1)" stroke-width="1"></line> <line x1="251.76470588235293" x2="259.4117647058823" y1="140.24375" y2="140.740625" stroke="black" clip-path="url(#clip-1)" stroke-width="1"></line> <line x1="259.4117647058823" x2="267.05882352941177" y1="140.740625" y2="144.21875" stroke="black" clip-path="url(#clip-1)" stroke-width="1"></line> <line x1="267.05882352941177" x2="274.70588235294116" y1="144.21875" y2="147.696875" stroke="black" clip-path="url(#clip-1)" stroke-width="1"></line> <line x1="274.70588235294116" x2="282.3529411764706" y1="147.696875" y2="145.709375" stroke="black" clip-path="url(#clip-1)" stroke-width="1"></line> <line x1="282.3529411764706" x2="290" y1="145.709375" y2="140.24375" stroke="black" clip-path="url(#clip-1)" stroke-width="1"></line> <rect width="43px" height="48" x="50" y="40" font-size="12" fill="white" stroke="black"></rect> <text y="60" x="55" fill="black" font-weight="bold" font-size="12" text-anchor="front" font-family="sans-serif"> Net</text> <text y="72" x="55" fill="blue" font-weight="bold" font-size="12" text-anchor="front" font-family="sans-serif"> Gross</text></svg>