<svg width="300" height="200" version="1.1" xmlns="http://www.w3.org/2000/svg" xmlns:xlink="http://www.w3.org/1999/xlink"> <rect width="300" height="200" x="0" y="0" fill="white"></rect> <line x1="30.0" x2="30.0" y1="179" y2="183" stroke="black"></line> <line x1="30.0" x2="30.0" y1="20" y2="179" stroke="#e0e0e0" opacity="nil"></line> <text y="193" x="30.0" fill="black" font-size="12" text-anchor="middle" font-family="sans-serif"> 0</text> <line x1="48.57142857142857" x2="48.57142857142857" y1="179" y2="181" stroke="black"></line> <line x1="48.57142857142857" x2="48.57142857142857" y1="20" y2="179" stroke="#e0e0e0" opacity="nil"></line> <line x1="67.14285714285714" x2="67.14285714285714" y1="179" y2="183" stroke="black"></line> <line x1="67.14285714285714" x2="67.14285714285714" y1="20" y2="179" stroke="#e0e0e0" opacity="nil"></line> <text y="193" x="67.14285714285714" fill="black" font-size="12" text-anchor="middle" font-family="sans-serif"> 2</text> <line x1="85.71428571428571" x2="85.71428571428571" y1="179" y2="181" stroke="black"></line> <line x1="85.71428571428571" x2="85.71428571428571" y1="20" y2="179" stroke="#e0e0e0" opacity="nil"></line> <line x1="104.28571428571428" x2="104.28571428571428" y1="179" y2="183" stroke="black"></line> <line x1="104.28571428571428" x2="104.28571428571428" y1="20" y2="179" stroke="#e0e0e0" opacity="nil"></line> <text y="193" x="104.28571428571428" fill="black" font-size="12" text-anchor="middle" font-family="sans-serif"> 4</text> <line x1="122.85714285714286" x2="122.85714285714286" y1="179" y2="181" stroke="black"></line> <line x1="122.85714285714286" x2="122.85714285714286" y1="20" y2="179" stroke="#e0e0e0" opacity="nil"></line> <line x1="141.42857142857142" x2="141.42857142857142" y1="179" y2="183" stroke="black"></line> <line x1="141.42857142857142" x2="141.42857142857142" y1="20" y2="179" stroke="#e0e0e0" opacity="nil"></line> <text y="193" x="141.42857142857142" fill="black" font-size="12" text-anchor="middle" font-family="sans-serif"> 6</text> <line x1="160.0" x2="160.0" y1="179" y2="181" stroke="black"></line> <line x1="160.0" x2="160.0" y1="20" y2="179" stroke="#e0e0e0" opacity="nil"></line> <line x1="178.57142857142856" x2="178.57142857142856" y1="179" y2="183" stroke="black"></line> <line x1="178.57142857142856" x2="178.57142857142856" y1="20" y2="179" stroke="#e0e0e0" opacity="nil"></line> <text y="193" x="178.57142857142856" fill="black" font-size="12" text-anchor="middle" font-family="sans-serif"> 8</text> <line x1="197.14285714285717" x2="197.14285714285717" y1="179" y2="181" stroke="black"></line> <line x1="197.14285714285717" x2="197.14285714285717" y1="20" y2="179" stroke="#e0e0e0" opacity="nil"></line> <line x1="215.71428571428572" x2="215.71428571428572" y1="179" y2="183" stroke="black"></line> <line x1="215.71428571428572" x2="215.71428571428572" y1="20" y2="179" stroke="#e0e0e0" opacity="nil"></line> <text y="193" x="215.71428571428572" fill="black" font-size="12" text-anchor="middle" font-family="sans-serif"> 10</text> <line x1="234.28571428571428" x2="234.28571428571428" y1="179" y2="181" stroke="black"></line> <line x1="234.28571428571428" x2="234.28571428571428" y1="20" y2="179" stroke="#e0e0e0" opacity="nil"></line> <line x1="252.85714285714283" x2="252.85714285714283" y1="179" y2="183" stroke="black"></line> <line x1="252.85714285714283" x2="252.85714285714283" y1="20" y2="179" stroke="#e0e0e0" opacity="nil"></line> <text y="193" x="252.85714285714283" fill="black" font-size="12" text-anchor="middle" font-family="sans-serif"> 12</text> <line x1="271.42857142857144" x2="271.42857142857144" y1="179" y2="181" stroke="black"></line> <line x1="271.42857142857144" x2="271.42857142857144" y1="20" y2="179" stroke="#e0e0e0" opacity="nil"></line> <line x1="290.0" x2="290.0" y1="179" y2="183" stroke="black"></line> <line x1="290.0" x2="290.0" y1="20" y2="179" stroke="#e0e0e0" opacity="nil"></line> <text y="193" x="290.0" fill="black" font-size="12" text-anchor="middle" font-family="sans-serif"> 14</text> <line x1="30" x2="27" y1="179.0" y2="179.0" stroke="black"></line> <line x1="30" x2="290" y1="179.0" y2="179.0" opacity="nil" stroke="#e0e0e0"></line> <text y="183.0" x="24" fill="black" font-size="12" text-anchor="end" font-family="sans-serif"> 1200k</text> <line x1="30" x2="27" y1="157.51351351351352" y2="157.51351351351352" stroke="black"></line> <line x1="30" x2="290" y1="157.51351351351352" y2="157.51351351351352" opacity="nil" stroke="#e0e0e0"></line> <text y="161.51351351351352" x="24" fill="black" font-size="12" text-anchor="end" font-family="sans-serif"> 1250k</text> <line x1="30" x2="27" y1="136.02702702702703" y2="136.02702702702703" stroke="black"></line> <line x1="30" x2="290" y1="136.02702702702703" y2="136.02702702702703" opacity="nil" stroke="#e0e0e0"></line> <text y="140.02702702702703" x="24" fill="black" font-size="12" text-anchor="end" font-family="sans-serif"> 1300k</text> <line x1="30" x2="27" y1="114.54054054054053" y2="114.54054054054053" stroke="black"></line> <line x1="30" x2="290" y1="114.54054054054053" y2="114.54054054054053" opacity="nil" stroke="#e0e0e0"></line> <text y="118.54054054054053" x="24" fill="black" font-size="12" text-anchor="end" font-family="sans-serif"> 1350k</text> <line x1="30" x2="27" y1="93.05405405405405" y2="93.05405405405405" stroke="black"></line> <line x1="30" x2="290" y1="93.05405405405405" y2="93.05405405405405" opacity="nil" stroke="#e0e0e0"></line> <text y="97.05405405405405" x="24" fill="black" font-size="12" text-anchor="end" font-family="sans-serif"> 1400k</text> <line x1="30" x2="27" y1="71.56756756756756" y2="71.56756756756756" stroke="black"></line> <line x1="30" x2="290" y1="71.56756756756756" y2="71.56756756756756" opacity="nil" stroke="#e0e0e0"></line> <text y="75.56756756756756" x="24" fill="black" font-size="12" text-anchor="end" font-family="sans-serif"> 1450k</text> <line x1="30" x2="27" y1="50.08108108108107" y2="50.08108108108107" stroke="black"></line> <line x1="30" x2="290" y1="50.08108108108107" y2="50.08108108108107" opacity="nil" stroke="#e0e0e0"></line> <text y="54.08108108108107" x="24" fill="black" font-size="12" text-anchor="end" font-family="sans-serif"> 1500k</text> <line x1="30" x2="27" y1="28.594594594594582" y2="28.594594594594582" stroke="black"></line> <line x1="30" x2="290" y1="28.594594594594582" y2="28.594594594594582" opacity="nil" stroke="#e0e0e0"></line> <text y="32.59459459459458" x="24" fill="black" font-size="12" text-anchor="end" font-family="sans-serif"> 1550k</text> <line x1="30" x2="30" y1="20" y2="184" stroke="black"></line> <line x1="25" x2="290" y1="179" y2="179" stroke="black"></line> <clipPath id="clip-0"> <rect x="30" y="20" width="260" height="159"></rect></clipPath> <line x1="30" x2="48.57142857142857" y1="174.7027027027027" y2="131.72972972972974" stroke="black" clip-path="url(#clip-0)"></line> <line x1="48.57142857142857" x2="67.14285714285714" y1="131.72972972972974" y2="80.16216216216216" stroke="black" clip-path="url(#clip-0)"></line> <line x1="67.14285714285714" x2="85.71428571428571" y1="80.16216216216216" y2="75.86486486486486" stroke="black" clip-path="url(#clip-0)"></line> <line x1="85.71428571428571" x2="104.28571428571428" y1="75.86486486486486" y2="20.0" stroke="black" clip-path="url(#clip-0)"></line> <line x1="104.28571428571428" x2="122.85714285714286" y1="20.0" y2="24.29729729729729" stroke="black" clip-path="url(#clip-0)"></line> <line x1="122.85714285714286" x2="141.42857142857142" y1="24.29729729729729" y2="28.594594594594582" stroke="black" clip-path="url(#clip-0)"></line> <line x1="141.42857142857142" x2="160.0" y1="28.594594594594582" y2="50.08108108108107" stroke="black" clip-path="url(#clip-0)"></line> <line x1="160.0" x2="178.57142857142856" y1="50.08108108108107" y2="67.27027027027026" stroke="black" clip-path="url(#clip-0)"></line> <line x1="178.57142857142856" x2="197.14285714285717" y1="67.27027027027026" y2="93.05405405405405" stroke="black" clip-path="url(#clip-0)"></line> <line x1="197.14285714285717" x2="215.71428571428572" y1="93.05405405405405" y2="136.02702702702703" stroke="black" clip-path="url(#clip-0)"></line> <line x1="215.71428571428572" x2="234.28571428571428" y1="136.02702702702703" y2="114.54054054054053" stroke="black" clip-path="url(#clip-0)"></line> <line x1="234.28571428571428" x2="252.85714285714283" y1="114.54054054054053" y2="105.94594594594594" stroke="black" clip-path="url(#clip-0)"></line> <line x1="252.85714285714283" x2="271.42857142857144" y1="105.94594594594594" y2="101.64864864864865" stroke="black" clip-path="url(#clip-0)"></line> <line x1="271.42857142857144" x2="290" y1="101.64864864864865" y2="97.35135135135135" stroke="black" clip-path="url(#clip-0)"></line></svg>