<svg width="300" height="200" version="1.1" xmlns="http://www.w3.org/2000/svg" xmlns:xlink="http://www.w3.org/1999/xlink"> <defs> <linearGradient id="gradient-0" x1="0" x2="0" y1="0" y2="1"> <stop offset="0%" stop-color="red"></stop> <stop offset="100%" stop-color="black"></stop></linearGradient></defs> <rect width="300" height="200" x="0" y="0" fill="white"></rect> <line x1="30.0" x2="30.0" y1="179" y2="183" stroke="black"></line> <line x1="30.0" x2="30.0" y1="20" y2="179" stroke="#e0e0e0" opacity="1"></line> <text y="193" x="30.0" fill="black" font-weight="normal" font-size="12" text-anchor="middle" font-family="sans-serif"> 0</text> <line x1="45.294117647058826" x2="45.294117647058826" y1="179" y2="181" stroke="black"></line> <line x1="45.294117647058826" x2="45.294117647058826" y1="20" y2="179" stroke="#e0e0e0" opacity="1"></line> <line x1="60.588235294117645" x2="60.588235294117645" y1="179" y2="181" stroke="black"></line> <line x1="60.588235294117645" x2="60.588235294117645" y1="20" y2="179" stroke="#e0e0e0" opacity="1"></line> <line x1="75.88235294117646" x2="75.88235294117646" y1="179" y2="181" stroke="black"></line> <line x1="75.88235294117646" x2="75.88235294117646" y1="20" y2="179" stroke="#e0e0e0" opacity="1"></line> <line x1="91.17647058823529" x2="91.17647058823529" y1="179" y2="181" stroke="black"></line> <line x1="91.17647058823529" x2="91.17647058823529" y1="20" y2="179" stroke="#e0e0e0" opacity="1"></line> <line x1="106.47058823529412" x2="106.47058823529412" y1="179" y2="183" stroke="black"></line> <line x1="106.47058823529412" x2="106.47058823529412" y1="20" y2="179" stroke="#e0e0e0" opacity="1"></line> <text y="193" x="106.47058823529412" fill="black" font-weight="normal" font-size="12" text-anchor="middle" font-family="sans-serif"> 10</text> <line x1="121.76470588235294" x2="121.76470588235294" y1="179" y2="181" stroke="black"></line> <line x1="121.76470588235294" x2="121.76470588235294" y1="20" y2="179" stroke="#e0e0e0" opacity="1"></line> <line x1="137.05882352941177" x2="137.05882352941177" y1="179" y2="181" stroke="black"></line> <line x1="137.05882352941177" x2="137.05882352941177" y1="20" y2="179" stroke="#e0e0e0" opacity="1"></line> <line x1="152.35294117647058" x2="152.35294117647058" y1="179" y2="181" stroke="black"></line> <line x1="152.35294117647058" x2="152.35294117647058" y1="20" y2="179" stroke="#e0e0e0" opacity="1"></line> <line x1="167.64705882352942" x2="167.64705882352942" y1="179" y2="181" stroke="black"></line> <line x1="167.64705882352942" x2="167.64705882352942" y1="20" y2="179" stroke="#e0e0e0" opacity="1"></line> <line x1="182.94117647058823" x2="182.94117647058823" y1="179" y2="183" stroke="black"></line> <line x1="182.94117647058823" x2="182.94117647058823" y1="20" y2="179" stroke="#e0e0e0" opacity="1"></line> <text y="193" x="182.94117647058823" fill="black" font-weight="normal" font-size="12" text-anchor="middle" font-family="sans-serif"> 20</text> <line x1="198.23529411764707" x2="198.23529411764707" y1="179" y2="181" stroke="black"></line> <line x1="198.23529411764707" x2="198.23529411764707" y1="20" y2="179" stroke="#e0e0e0" opacity="1"></line> <line x1="213.52941176470588" x2="213.52941176470588" y1="179" y2="181" stroke="black"></line> <line x1="213.52941176470588" x2="213.52941176470588" y1="20" y2="179" stroke="#e0e0e0" opacity="1"></line> <line x1="228.8235294117647" x2="228.8235294117647" y1="179" y2="181" stroke="black"></line> <line x1="228.8235294117647" x2="228.8235294117647" y1="20" y2="179" stroke="#e0e0e0" opacity="1"></line> <line x1="244.1176470588235" x2="244.1176470588235" y1="179" y2="181" stroke="black"></line> <line x1="244.1176470588235" x2="244.1176470588235" y1="20" y2="179" stroke="#e0e0e0" opacity="1"></line> <line x1="259.4117647058823" x2="259.4117647058823" y1="179" y2="183" stroke="black"></line> <line x1="259.4117647058823" x2="259.4117647058823" y1="20" y2="179" stroke="#e0e0e0" opacity="1"></line> <text y="193" x="259.4117647058823" fill="black" font-weight="normal" font-size="12" text-anchor="middle" font-family="sans-serif"> 30</text> <line x1="274.70588235294116" x2="274.70588235294116" y1="179" y2="181" stroke="black"></line> <line x1="274.70588235294116" x2="274.70588235294116" y1="20" y2="179" stroke="#e0e0e0" opacity="1"></line> <line x1="290.0" x2="290.0" y1="179" y2="181" stroke="black"></line> <line x1="290.0" x2="290.0" y1="20" y2="179" stroke="#e0e0e0" opacity="1"></line> <line x1="30" x2="27" y1="179.0" y2="179.0" stroke="black"></line> <line x1="30" x2="290" y1="179.0" y2="179.0" opacity="1" stroke="#e0e0e0"></line> <line x1="30" x2="27" y1="167.64285714285714" y2="167.64285714285714" stroke="black"></line> <line x1="30" x2="290" y1="167.64285714285714" y2="167.64285714285714" opacity="1" stroke="#e0e0e0"></line> <text y="171.64285714285714" x="24" fill="black" font-size="12" text-anchor="end" font-family="sans-serif"> 42</text> <line x1="30" x2="27" y1="156.28571428571428" y2="156.28571428571428" stroke="black"></line> <line x1="30" x2="290" y1="156.28571428571428" y2="156.28571428571428" opacity="1" stroke="#e0e0e0"></line> <line x1="30" x2="27" y1="144.92857142857144" y2="144.92857142857144" stroke="black"></line> <line x1="30" x2="290" y1="144.92857142857144" y2="144.92857142857144" opacity="1" stroke="#e0e0e0"></line> <text y="148.92857142857144" x="24" fill="black" font-size="12" text-anchor="end" font-family="sans-serif"> 44</text> <line x1="30" x2="27" y1="133.57142857142858" y2="133.57142857142858" stroke="black"></line> <line x1="30" x2="290" y1="133.57142857142858" y2="133.57142857142858" opacity="1" stroke="#e0e0e0"></line> <line x1="30" x2="27" y1="122.21428571428572" y2="122.21428571428572" stroke="black"></line> <line x1="30" x2="290" y1="122.21428571428572" y2="122.21428571428572" opacity="1" stroke="#e0e0e0"></line> <text y="126.21428571428572" x="24" fill="black" font-size="12" text-anchor="end" font-family="sans-serif"> 46</text> <line x1="30" x2="27" y1="110.85714285714286" y2="110.85714285714286" stroke="black"></line> <line x1="30" x2="290" y1="110.85714285714286" y2="110.85714285714286" opacity="1" stroke="#e0e0e0"></line> <line x1="30" x2="27" y1="99.5" y2="99.5" stroke="black"></line> <line x1="30" x2="290" y1="99.5" y2="99.5" opacity="1" stroke="#e0e0e0"></line> <text y="103.5" x="24" fill="black" font-size="12" text-anchor="end" font-family="sans-serif"> 48</text> <line x1="30" x2="27" y1="88.14285714285715" y2="88.14285714285715" stroke="black"></line> <line x1="30" x2="290" y1="88.14285714285715" y2="88.14285714285715" opacity="1" stroke="#e0e0e0"></line> <line x1="30" x2="27" y1="76.78571428571428" y2="76.78571428571428" stroke="black"></line> <line x1="30" x2="290" y1="76.78571428571428" y2="76.78571428571428" opacity="1" stroke="#e0e0e0"></line> <text y="80.78571428571428" x="24" fill="black" font-size="12" text-anchor="end" font-family="sans-serif"> 50</text> <line x1="30" x2="27" y1="65.42857142857143" y2="65.42857142857143" stroke="black"></line> <line x1="30" x2="290" y1="65.42857142857143" y2="65.42857142857143" opacity="1" stroke="#e0e0e0"></line> <line x1="30" x2="27" y1="54.07142857142857" y2="54.07142857142857" stroke="black"></line> <line x1="30" x2="290" y1="54.07142857142857" y2="54.07142857142857" opacity="1" stroke="#e0e0e0"></line> <text y="58.07142857142857" x="24" fill="black" font-size="12" text-anchor="end" font-family="sans-serif"> 52</text> <line x1="30" x2="27" y1="42.71428571428572" y2="42.71428571428572" stroke="black"></line> <line x1="30" x2="290" y1="42.71428571428572" y2="42.71428571428572" opacity="1" stroke="#e0e0e0"></line> <line x1="30" x2="27" y1="31.35714285714286" y2="31.35714285714286" stroke="black"></line> <line x1="30" x2="290" y1="31.35714285714286" y2="31.35714285714286" opacity="1" stroke="#e0e0e0"></line> <text y="35.35714285714286" x="24" fill="black" font-size="12" text-anchor="end" font-family="sans-serif"> 54</text> <line x1="30" x2="27" y1="20.0" y2="20.0" stroke="black"></line> <line x1="30" x2="290" y1="20.0" y2="20.0" opacity="1" stroke="#e0e0e0"></line> <line x1="30" x2="30" y1="20" y2="184" stroke="black"></line> <line x1="25" x2="290" y1="179" y2="179" stroke="black"></line> <clipPath id="clip-0"> <rect x="30" y="20" width="260" height="159"></rect></clipPath> <path d="M 30 179 C 30 179.0 -8.235294117647065 241.4642857142858 30 179.0 C 68.23529411764707 116.53571428571419 -38.82352941176472 228.97142857142865 37.64705882352941 166.50714285714284 C 114.11764705882354 104.04285714285703 -31.17647058823526 280.0785714285713 45.294117647058826 166.50714285714284 C 121.76470588235291 52.93571428571437 -23.529411764705856 228.97142857142853 52.94117647058823 143.79285714285714 C 129.41176470588232 58.61428571428576 -15.882352941176485 121.07857142857148 60.588235294117645 149.47142857142856 C 137.05882352941177 177.86428571428564 -8.23529411764703 109.72142857142848 68.23529411764706 149.47142857142856 C 144.70588235294116 189.22142857142865 -0.5882352941176663 123.35 75.88235294117646 157.42142857142858 C 152.3529411764706 191.49285714285716 7.058823529411754 173.32142857142878 83.52941176470588 156.28571428571428 C 160.0 139.24999999999977 14.70588235294116 233.51428571428556 91.17647058823529 154.01428571428568 C 167.64705882352942 74.51428571428579 22.35294117647058 214.20714285714268 98.82352941176471 140.3857142857143 C 175.29411764705884 66.56428571428592 29.999999999999986 196.0357142857143 106.47058823529412 139.25 C 182.94117647058823 82.4642857142857 37.647058823529406 208.52857142857133 114.11764705882354 129.02857142857144 C 190.58823529411768 49.52857142857155 45.29411764705888 498.13571428571436 121.76470588235294 123.35000000000002 C 198.23529411764702 -251.4357142857143 52.94117647058822 457.25000000000006 129.41176470588235 54.07142857142857 C 205.88235294117646 -349.10714285714295 60.58823529411771 71.10714285714288 137.05882352941177 42.71428571428572 C 213.52941176470583 14.32142857142857 68.2352941176471 -65.1785714285714 144.70588235294116 48.39285714285714 C 221.17647058823522 161.96428571428567 75.88235294117638 -76.53571428571426 152.35294117647058 65.42857142857143 C 228.82352941176478 207.3928571428571 83.5294117647058 20.000000000000043 160.0 76.78571428571428 C 236.4705882352942 133.5714285714285 91.17647058823522 76.78571428571428 167.64705882352942 76.78571428571428 C 244.11764705882362 76.78571428571428 98.82352941176478 31.357142857142975 175.29411764705884 76.78571428571428 C 251.7647058823529 122.21428571428558 106.47058823529417 63.15714285714289 182.94117647058823 85.87142857142854 C 259.4117647058823 108.58571428571419 114.11764705882345 126.75714285714271 190.58823529411765 81.32857142857141 C 267.0588235294118 35.900000000000105 121.76470588235287 42.71428571428555 198.23529411764707 76.78571428571428 C 274.7058823529413 110.857142857143 129.41176470588243 88.14285714285715 205.8823529411765 88.14285714285715 C 282.35294117647055 88.14285714285715 137.05882352941182 76.78571428571428 213.52941176470588 76.78571428571428 C 289.99999999999994 76.78571428571428 144.70588235294125 2.964285714285694 221.1764705882353 88.14285714285715 C 297.6470588235294 173.3214285714286 152.35294117647064 139.2499999999999 228.8235294117647 93.82142857142857 C 305.2941176470588 48.39285714285727 160.00000000000006 50.66428571428574 236.47058823529412 79.05714285714289 C 312.9411764705882 107.45000000000005 167.64705882352945 -14.071428571428541 244.1176470588235 99.5 C 320.58823529411757 213.07142857142856 175.29411764705887 84.73571428571445 251.76470588235293 101.7714285714286 C 328.23529411764696 118.80714285714275 182.94117647058812 57.47857142857153 259.4117647058823 102.90714285714283 C 335.8823529411765 148.33571428571412 190.58823529411757 31.35714285714262 267.05882352941177 110.85714285714286 C 343.52941176470597 190.35714285714312 198.23529411764696 101.7714285714288 274.70588235294116 118.80714285714288 C 351.17647058823536 135.84285714285696 205.8823529411764 199.44285714285706 282.3529411764706 114.26428571428568 C 358.8235294117648 29.08571428571429 251.76470588235304 -221.90714285714301 290 101.7714285714286 C 328.23529411764696 425.4500000000002 290 -207.142857142857 290 179 Z" stroke="black" clip-path="url(#clip-0)" x1="0" x2="0" y1="0" y2="1" fill="url(#gradient-0)" stroke-width="1"></path></svg>