<svg width="300" height="200" version="1.1" xmlns="http://www.w3.org/2000/svg" xmlns:xlink="http://www.w3.org/1999/xlink"> <defs> <linearGradient id="gradient-0" x1="0" x2="0" y1="0" y2="1"> <stop offset="0%" stop-color="#c0c0c0"></stop> <stop offset="100%" stop-color="#c0c0c0"></stop></linearGradient></defs> <rect width="300" height="200" x="0" y="0" fill="white"></rect> <line x1="30.0" x2="30.0" y1="179" y2="183" stroke="black"></line> <line x1="30.0" x2="30.0" y1="20" y2="179" stroke="#e0e0e0" opacity="1"></line> <text y="193" x="30.0" fill="black" font-weight="normal" font-size="12" text-anchor="middle" font-family="sans-serif"> 0</text> <line x1="45.294117647058826" x2="45.294117647058826" y1="179" y2="181" stroke="black"></line> <line x1="45.294117647058826" x2="45.294117647058826" y1="20" y2="179" stroke="#e0e0e0" opacity="1"></line> <line x1="60.588235294117645" x2="60.588235294117645" y1="179" y2="181" stroke="black"></line> <line x1="60.588235294117645" x2="60.588235294117645" y1="20" y2="179" stroke="#e0e0e0" opacity="1"></line> <line x1="75.88235294117646" x2="75.88235294117646" y1="179" y2="181" stroke="black"></line> <line x1="75.88235294117646" x2="75.88235294117646" y1="20" y2="179" stroke="#e0e0e0" opacity="1"></line> <line x1="91.17647058823529" x2="91.17647058823529" y1="179" y2="181" stroke="black"></line> <line x1="91.17647058823529" x2="91.17647058823529" y1="20" y2="179" stroke="#e0e0e0" opacity="1"></line> <line x1="106.47058823529412" x2="106.47058823529412" y1="179" y2="183" stroke="black"></line> <line x1="106.47058823529412" x2="106.47058823529412" y1="20" y2="179" stroke="#e0e0e0" opacity="1"></line> <text y="193" x="106.47058823529412" fill="black" font-weight="normal" font-size="12" text-anchor="middle" font-family="sans-serif"> 10</text> <line x1="121.76470588235294" x2="121.76470588235294" y1="179" y2="181" stroke="black"></line> <line x1="121.76470588235294" x2="121.76470588235294" y1="20" y2="179" stroke="#e0e0e0" opacity="1"></line> <line x1="137.05882352941177" x2="137.05882352941177" y1="179" y2="181" stroke="black"></line> <line x1="137.05882352941177" x2="137.05882352941177" y1="20" y2="179" stroke="#e0e0e0" opacity="1"></line> <line x1="152.35294117647058" x2="152.35294117647058" y1="179" y2="181" stroke="black"></line> <line x1="152.35294117647058" x2="152.35294117647058" y1="20" y2="179" stroke="#e0e0e0" opacity="1"></line> <line x1="167.64705882352942" x2="167.64705882352942" y1="179" y2="181" stroke="black"></line> <line x1="167.64705882352942" x2="167.64705882352942" y1="20" y2="179" stroke="#e0e0e0" opacity="1"></line> <line x1="182.94117647058823" x2="182.94117647058823" y1="179" y2="183" stroke="black"></line> <line x1="182.94117647058823" x2="182.94117647058823" y1="20" y2="179" stroke="#e0e0e0" opacity="1"></line> <text y="193" x="182.94117647058823" fill="black" font-weight="normal" font-size="12" text-anchor="middle" font-family="sans-serif"> 20</text> <line x1="198.23529411764707" x2="198.23529411764707" y1="179" y2="181" stroke="black"></line> <line x1="198.23529411764707" x2="198.23529411764707" y1="20" y2="179" stroke="#e0e0e0" opacity="1"></line> <line x1="213.52941176470588" x2="213.52941176470588" y1="179" y2="181" stroke="black"></line> <line x1="213.52941176470588" x2="213.52941176470588" y1="20" y2="179" stroke="#e0e0e0" opacity="1"></line> <line x1="228.8235294117647" x2="228.8235294117647" y1="179" y2="181" stroke="black"></line> <line x1="228.8235294117647" x2="228.8235294117647" y1="20" y2="179" stroke="#e0e0e0" opacity="1"></line> <line x1="244.1176470588235" x2="244.1176470588235" y1="179" y2="181" stroke="black"></line> <line x1="244.1176470588235" x2="244.1176470588235" y1="20" y2="179" stroke="#e0e0e0" opacity="1"></line> <line x1="259.4117647058823" x2="259.4117647058823" y1="179" y2="183" stroke="black"></line> <line x1="259.4117647058823" x2="259.4117647058823" y1="20" y2="179" stroke="#e0e0e0" opacity="1"></line> <text y="193" x="259.4117647058823" fill="black" font-weight="normal" font-size="12" text-anchor="middle" font-family="sans-serif"> 30</text> <line x1="274.70588235294116" x2="274.70588235294116" y1="179" y2="181" stroke="black"></line> <line x1="274.70588235294116" x2="274.70588235294116" y1="20" y2="179" stroke="#e0e0e0" opacity="1"></line> <line x1="290.0" x2="290.0" y1="179" y2="181" stroke="black"></line> <line x1="290.0" x2="290.0" y1="20" y2="179" stroke="#e0e0e0" opacity="1"></line> <line x1="30" x2="27" y1="179.0" y2="179.0" stroke="black"></line> <line x1="30" x2="290" y1="179.0" y2="179.0" opacity="1" stroke="#e0e0e0"></line> <line x1="30" x2="27" y1="167.64285714285714" y2="167.64285714285714" stroke="black"></line> <line x1="30" x2="290" y1="167.64285714285714" y2="167.64285714285714" opacity="1" stroke="#e0e0e0"></line> <text y="171.64285714285714" x="24" fill="black" font-size="12" text-anchor="end" font-family="sans-serif"> 42</text> <line x1="30" x2="27" y1="156.28571428571428" y2="156.28571428571428" stroke="black"></line> <line x1="30" x2="290" y1="156.28571428571428" y2="156.28571428571428" opacity="1" stroke="#e0e0e0"></line> <line x1="30" x2="27" y1="144.92857142857144" y2="144.92857142857144" stroke="black"></line> <line x1="30" x2="290" y1="144.92857142857144" y2="144.92857142857144" opacity="1" stroke="#e0e0e0"></line> <text y="148.92857142857144" x="24" fill="black" font-size="12" text-anchor="end" font-family="sans-serif"> 44</text> <line x1="30" x2="27" y1="133.57142857142858" y2="133.57142857142858" stroke="black"></line> <line x1="30" x2="290" y1="133.57142857142858" y2="133.57142857142858" opacity="1" stroke="#e0e0e0"></line> <line x1="30" x2="27" y1="122.21428571428572" y2="122.21428571428572" stroke="black"></line> <line x1="30" x2="290" y1="122.21428571428572" y2="122.21428571428572" opacity="1" stroke="#e0e0e0"></line> <text y="126.21428571428572" x="24" fill="black" font-size="12" text-anchor="end" font-family="sans-serif"> 46</text> <line x1="30" x2="27" y1="110.85714285714286" y2="110.85714285714286" stroke="black"></line> <line x1="30" x2="290" y1="110.85714285714286" y2="110.85714285714286" opacity="1" stroke="#e0e0e0"></line> <line x1="30" x2="27" y1="99.5" y2="99.5" stroke="black"></line> <line x1="30" x2="290" y1="99.5" y2="99.5" opacity="1" stroke="#e0e0e0"></line> <text y="103.5" x="24" fill="black" font-size="12" text-anchor="end" font-family="sans-serif"> 48</text> <line x1="30" x2="27" y1="88.14285714285715" y2="88.14285714285715" stroke="black"></line> <line x1="30" x2="290" y1="88.14285714285715" y2="88.14285714285715" opacity="1" stroke="#e0e0e0"></line> <line x1="30" x2="27" y1="76.78571428571428" y2="76.78571428571428" stroke="black"></line> <line x1="30" x2="290" y1="76.78571428571428" y2="76.78571428571428" opacity="1" stroke="#e0e0e0"></line> <text y="80.78571428571428" x="24" fill="black" font-size="12" text-anchor="end" font-family="sans-serif"> 50</text> <line x1="30" x2="27" y1="65.42857142857143" y2="65.42857142857143" stroke="black"></line> <line x1="30" x2="290" y1="65.42857142857143" y2="65.42857142857143" opacity="1" stroke="#e0e0e0"></line> <line x1="30" x2="27" y1="54.07142857142857" y2="54.07142857142857" stroke="black"></line> <line x1="30" x2="290" y1="54.07142857142857" y2="54.07142857142857" opacity="1" stroke="#e0e0e0"></line> <text y="58.07142857142857" x="24" fill="black" font-size="12" text-anchor="end" font-family="sans-serif"> 52</text> <line x1="30" x2="27" y1="42.71428571428572" y2="42.71428571428572" stroke="black"></line> <line x1="30" x2="290" y1="42.71428571428572" y2="42.71428571428572" opacity="1" stroke="#e0e0e0"></line> <line x1="30" x2="27" y1="31.35714285714286" y2="31.35714285714286" stroke="black"></line> <line x1="30" x2="290" y1="31.35714285714286" y2="31.35714285714286" opacity="1" stroke="#e0e0e0"></line> <text y="35.35714285714286" x="24" fill="black" font-size="12" text-anchor="end" font-family="sans-serif"> 54</text> <line x1="30" x2="27" y1="20.0" y2="20.0" stroke="black"></line> <line x1="30" x2="290" y1="20.0" y2="20.0" opacity="1" stroke="#e0e0e0"></line> <line x1="30" x2="30" y1="20" y2="184" stroke="black"></line> <line x1="25" x2="290" y1="179" y2="179" stroke="black"></line> <clipPath id="clip-0"> <rect x="30" y="20" width="260" height="159"></rect></clipPath> <polygon points="27.5 181.5, 30 176.5, 32.5 181.5" stroke="black" clip-path="url(#clip-0)" fill="#c0c0c0"></polygon> <polygon points="35.14705882352941 169.00714285714284, 37.64705882352941 164.00714285714284, 40.14705882352941 169.00714285714284" stroke="black" clip-path="url(#clip-0)" fill="#c0c0c0"></polygon> <polygon points="42.794117647058826 169.00714285714284, 45.294117647058826 164.00714285714284, 47.794117647058826 169.00714285714284" stroke="black" clip-path="url(#clip-0)" fill="#c0c0c0"></polygon> <polygon points="50.44117647058823 146.29285714285714, 52.94117647058823 141.29285714285714, 55.44117647058823 146.29285714285714" stroke="black" clip-path="url(#clip-0)" fill="#c0c0c0"></polygon> <polygon points="58.088235294117645 151.97142857142856, 60.588235294117645 146.97142857142856, 63.088235294117645 151.97142857142856" stroke="black" clip-path="url(#clip-0)" fill="#c0c0c0"></polygon> <polygon points="65.73529411764706 151.97142857142856, 68.23529411764706 146.97142857142856, 70.73529411764706 151.97142857142856" stroke="black" clip-path="url(#clip-0)" fill="#c0c0c0"></polygon> <polygon points="73.38235294117646 159.92142857142858, 75.88235294117646 154.92142857142858, 78.38235294117646 159.92142857142858" stroke="black" clip-path="url(#clip-0)" fill="#c0c0c0"></polygon> <polygon points="81.02941176470588 158.78571428571428, 83.52941176470588 153.78571428571428, 86.02941176470588 158.78571428571428" stroke="black" clip-path="url(#clip-0)" fill="#c0c0c0"></polygon> <polygon points="88.67647058823529 156.51428571428568, 91.17647058823529 151.51428571428568, 93.67647058823529 156.51428571428568" stroke="black" clip-path="url(#clip-0)" fill="#c0c0c0"></polygon> <polygon points="96.32352941176471 142.8857142857143, 98.82352941176471 137.8857142857143, 101.32352941176471 142.8857142857143" stroke="black" clip-path="url(#clip-0)" fill="#c0c0c0"></polygon> <polygon points="103.97058823529412 141.75, 106.47058823529412 136.75, 108.97058823529412 141.75" stroke="black" clip-path="url(#clip-0)" fill="#c0c0c0"></polygon> <polygon points="111.61764705882354 131.52857142857144, 114.11764705882354 126.52857142857144, 116.61764705882354 131.52857142857144" stroke="black" clip-path="url(#clip-0)" fill="#c0c0c0"></polygon> <polygon points="119.26470588235294 125.85000000000002, 121.76470588235294 120.85000000000002, 124.26470588235294 125.85000000000002" stroke="black" clip-path="url(#clip-0)" fill="#c0c0c0"></polygon> <polygon points="126.91176470588235 56.57142857142857, 129.41176470588235 51.57142857142857, 131.91176470588235 56.57142857142857" stroke="black" clip-path="url(#clip-0)" fill="#c0c0c0"></polygon> <polygon points="134.55882352941177 45.21428571428572, 137.05882352941177 40.21428571428572, 139.55882352941177 45.21428571428572" stroke="black" clip-path="url(#clip-0)" fill="#c0c0c0"></polygon> <polygon points="142.20588235294116 50.89285714285714, 144.70588235294116 45.89285714285714, 147.20588235294116 50.89285714285714" stroke="black" clip-path="url(#clip-0)" fill="#c0c0c0"></polygon> <polygon points="149.85294117647058 67.92857142857143, 152.35294117647058 62.92857142857143, 154.85294117647058 67.92857142857143" stroke="black" clip-path="url(#clip-0)" fill="#c0c0c0"></polygon> <polygon points="157.5 79.28571428571428, 160.0 74.28571428571428, 162.5 79.28571428571428" stroke="black" clip-path="url(#clip-0)" fill="#c0c0c0"></polygon> <polygon points="165.14705882352942 79.28571428571428, 167.64705882352942 74.28571428571428, 170.14705882352942 79.28571428571428" stroke="black" clip-path="url(#clip-0)" fill="#c0c0c0"></polygon> <polygon points="172.79411764705884 79.28571428571428, 175.29411764705884 74.28571428571428, 177.79411764705884 79.28571428571428" stroke="black" clip-path="url(#clip-0)" fill="#c0c0c0"></polygon> <polygon points="180.44117647058823 88.37142857142854, 182.94117647058823 83.37142857142854, 185.44117647058823 88.37142857142854" stroke="black" clip-path="url(#clip-0)" fill="#c0c0c0"></polygon> <polygon points="188.08823529411765 83.82857142857141, 190.58823529411765 78.82857142857141, 193.08823529411765 83.82857142857141" stroke="black" clip-path="url(#clip-0)" fill="#c0c0c0"></polygon> <polygon points="195.73529411764707 79.28571428571428, 198.23529411764707 74.28571428571428, 200.73529411764707 79.28571428571428" stroke="black" clip-path="url(#clip-0)" fill="#c0c0c0"></polygon> <polygon points="203.3823529411765 90.64285714285715, 205.8823529411765 85.64285714285715, 208.3823529411765 90.64285714285715" stroke="black" clip-path="url(#clip-0)" fill="#c0c0c0"></polygon> <polygon points="211.02941176470588 79.28571428571428, 213.52941176470588 74.28571428571428, 216.02941176470588 79.28571428571428" stroke="black" clip-path="url(#clip-0)" fill="#c0c0c0"></polygon> <polygon points="218.6764705882353 90.64285714285715, 221.1764705882353 85.64285714285715, 223.6764705882353 90.64285714285715" stroke="black" clip-path="url(#clip-0)" fill="#c0c0c0"></polygon> <polygon points="226.3235294117647 96.32142857142857, 228.8235294117647 91.32142857142857, 231.3235294117647 96.32142857142857" stroke="black" clip-path="url(#clip-0)" fill="#c0c0c0"></polygon> <polygon points="233.97058823529412 81.55714285714289, 236.47058823529412 76.55714285714289, 238.97058823529412 81.55714285714289" stroke="black" clip-path="url(#clip-0)" fill="#c0c0c0"></polygon> <polygon points="241.6176470588235 102.0, 244.1176470588235 97.0, 246.6176470588235 102.0" stroke="black" clip-path="url(#clip-0)" fill="#c0c0c0"></polygon> <polygon points="249.26470588235293 104.2714285714286, 251.76470588235293 99.2714285714286, 254.26470588235293 104.2714285714286" stroke="black" clip-path="url(#clip-0)" fill="#c0c0c0"></polygon> <polygon points="256.9117647058823 105.40714285714283, 259.4117647058823 100.40714285714283, 261.9117647058823 105.40714285714283" stroke="black" clip-path="url(#clip-0)" fill="#c0c0c0"></polygon> <polygon points="264.55882352941177 113.35714285714286, 267.05882352941177 108.35714285714286, 269.55882352941177 113.35714285714286" stroke="black" clip-path="url(#clip-0)" fill="#c0c0c0"></polygon> <polygon points="272.20588235294116 121.30714285714288, 274.70588235294116 116.30714285714288, 277.20588235294116 121.30714285714288" stroke="black" clip-path="url(#clip-0)" fill="#c0c0c0"></polygon> <polygon points="279.8529411764706 116.76428571428568, 282.3529411764706 111.76428571428568, 284.8529411764706 116.76428571428568" stroke="black" clip-path="url(#clip-0)" fill="#c0c0c0"></polygon> <polygon points="287.5 104.2714285714286, 290 99.2714285714286, 292.5 104.2714285714286" stroke="black" clip-path="url(#clip-0)" fill="#c0c0c0"></polygon> <polygon points="30 179, 290 179" stroke="black" clip-path="url(#clip-0)" x1="0" x2="0" y1="0" y2="1" fill="url(#gradient-0)"></polygon></svg>