<svg width="300" height="200" version="1.1" xmlns="http://www.w3.org/2000/svg" xmlns:xlink="http://www.w3.org/1999/xlink"> <rect width="300" height="200" x="0" y="0" fill="white"></rect> <line x1="30.0" x2="30.0" y1="179" y2="183" stroke="black"></line> <line x1="30.0" x2="30.0" y1="20" y2="179" stroke="#e0e0e0" opacity="1"></line> <text y="193" x="30.0" fill="black" font-weight="normal" font-size="12" text-anchor="middle" font-family="sans-serif"> 0</text> <line x1="45.294117647058826" x2="45.294117647058826" y1="179" y2="181" stroke="black"></line> <line x1="45.294117647058826" x2="45.294117647058826" y1="20" y2="179" stroke="#e0e0e0" opacity="1"></line> <line x1="60.588235294117645" x2="60.588235294117645" y1="179" y2="181" stroke="black"></line> <line x1="60.588235294117645" x2="60.588235294117645" y1="20" y2="179" stroke="#e0e0e0" opacity="1"></line> <line x1="75.88235294117646" x2="75.88235294117646" y1="179" y2="181" stroke="black"></line> <line x1="75.88235294117646" x2="75.88235294117646" y1="20" y2="179" stroke="#e0e0e0" opacity="1"></line> <line x1="91.17647058823529" x2="91.17647058823529" y1="179" y2="181" stroke="black"></line> <line x1="91.17647058823529" x2="91.17647058823529" y1="20" y2="179" stroke="#e0e0e0" opacity="1"></line> <line x1="106.47058823529412" x2="106.47058823529412" y1="179" y2="183" stroke="black"></line> <line x1="106.47058823529412" x2="106.47058823529412" y1="20" y2="179" stroke="#e0e0e0" opacity="1"></line> <text y="193" x="106.47058823529412" fill="black" font-weight="normal" font-size="12" text-anchor="middle" font-family="sans-serif"> 10</text> <line x1="121.76470588235294" x2="121.76470588235294" y1="179" y2="181" stroke="black"></line> <line x1="121.76470588235294" x2="121.76470588235294" y1="20" y2="179" stroke="#e0e0e0" opacity="1"></line> <line x1="137.05882352941177" x2="137.05882352941177" y1="179" y2="181" stroke="black"></line> <line x1="137.05882352941177" x2="137.05882352941177" y1="20" y2="179" stroke="#e0e0e0" opacity="1"></line> <line x1="152.35294117647058" x2="152.35294117647058" y1="179" y2="181" stroke="black"></line> <line x1="152.35294117647058" x2="152.35294117647058" y1="20" y2="179" stroke="#e0e0e0" opacity="1"></line> <line x1="167.64705882352942" x2="167.64705882352942" y1="179" y2="181" stroke="black"></line> <line x1="167.64705882352942" x2="167.64705882352942" y1="20" y2="179" stroke="#e0e0e0" opacity="1"></line> <line x1="182.94117647058823" x2="182.94117647058823" y1="179" y2="183" stroke="black"></line> <line x1="182.94117647058823" x2="182.94117647058823" y1="20" y2="179" stroke="#e0e0e0" opacity="1"></line> <text y="193" x="182.94117647058823" fill="black" font-weight="normal" font-size="12" text-anchor="middle" font-family="sans-serif"> 20</text> <line x1="198.23529411764707" x2="198.23529411764707" y1="179" y2="181" stroke="black"></line> <line x1="198.23529411764707" x2="198.23529411764707" y1="20" y2="179" stroke="#e0e0e0" opacity="1"></line> <line x1="213.52941176470588" x2="213.52941176470588" y1="179" y2="181" stroke="black"></line> <line x1="213.52941176470588" x2="213.52941176470588" y1="20" y2="179" stroke="#e0e0e0" opacity="1"></line> <line x1="228.8235294117647" x2="228.8235294117647" y1="179" y2="181" stroke="black"></line> <line x1="228.8235294117647" x2="228.8235294117647" y1="20" y2="179" stroke="#e0e0e0" opacity="1"></line> <line x1="244.1176470588235" x2="244.1176470588235" y1="179" y2="181" stroke="black"></line> <line x1="244.1176470588235" x2="244.1176470588235" y1="20" y2="179" stroke="#e0e0e0" opacity="1"></line> <line x1="259.4117647058823" x2="259.4117647058823" y1="179" y2="183" stroke="black"></line> <line x1="259.4117647058823" x2="259.4117647058823" y1="20" y2="179" stroke="#e0e0e0" opacity="1"></line> <text y="193" x="259.4117647058823" fill="black" font-weight="normal" font-size="12" text-anchor="middle" font-family="sans-serif"> 30</text> <line x1="274.70588235294116" x2="274.70588235294116" y1="179" y2="181" stroke="black"></line> <line x1="274.70588235294116" x2="274.70588235294116" y1="20" y2="179" stroke="#e0e0e0" opacity="1"></line> <line x1="290.0" x2="290.0" y1="179" y2="181" stroke="black"></line> <line x1="290.0" x2="290.0" y1="20" y2="179" stroke="#e0e0e0" opacity="1"></line> <line x1="30" x2="27" y1="179.0" y2="179.0" stroke="black"></line> <line x1="30" x2="290" y1="179.0" y2="179.0" opacity="1" stroke="#e0e0e0"></line> <line x1="30" x2="27" y1="167.64285714285714" y2="167.64285714285714" stroke="black"></line> <line x1="30" x2="290" y1="167.64285714285714" y2="167.64285714285714" opacity="1" stroke="#e0e0e0"></line> <text y="171.64285714285714" x="24" fill="black" font-size="12" text-anchor="end" font-family="sans-serif"> 42</text> <line x1="30" x2="27" y1="156.28571428571428" y2="156.28571428571428" stroke="black"></line> <line x1="30" x2="290" y1="156.28571428571428" y2="156.28571428571428" opacity="1" stroke="#e0e0e0"></line> <line x1="30" x2="27" y1="144.92857142857144" y2="144.92857142857144" stroke="black"></line> <line x1="30" x2="290" y1="144.92857142857144" y2="144.92857142857144" opacity="1" stroke="#e0e0e0"></line> <text y="148.92857142857144" x="24" fill="black" font-size="12" text-anchor="end" font-family="sans-serif"> 44</text> <line x1="30" x2="27" y1="133.57142857142858" y2="133.57142857142858" stroke="black"></line> <line x1="30" x2="290" y1="133.57142857142858" y2="133.57142857142858" opacity="1" stroke="#e0e0e0"></line> <line x1="30" x2="27" y1="122.21428571428572" y2="122.21428571428572" stroke="black"></line> <line x1="30" x2="290" y1="122.21428571428572" y2="122.21428571428572" opacity="1" stroke="#e0e0e0"></line> <text y="126.21428571428572" x="24" fill="black" font-size="12" text-anchor="end" font-family="sans-serif"> 46</text> <line x1="30" x2="27" y1="110.85714285714286" y2="110.85714285714286" stroke="black"></line> <line x1="30" x2="290" y1="110.85714285714286" y2="110.85714285714286" opacity="1" stroke="#e0e0e0"></line> <line x1="30" x2="27" y1="99.5" y2="99.5" stroke="black"></line> <line x1="30" x2="290" y1="99.5" y2="99.5" opacity="1" stroke="#e0e0e0"></line> <text y="103.5" x="24" fill="black" font-size="12" text-anchor="end" font-family="sans-serif"> 48</text> <line x1="30" x2="27" y1="88.14285714285715" y2="88.14285714285715" stroke="black"></line> <line x1="30" x2="290" y1="88.14285714285715" y2="88.14285714285715" opacity="1" stroke="#e0e0e0"></line> <line x1="30" x2="27" y1="76.78571428571428" y2="76.78571428571428" stroke="black"></line> <line x1="30" x2="290" y1="76.78571428571428" y2="76.78571428571428" opacity="1" stroke="#e0e0e0"></line> <text y="80.78571428571428" x="24" fill="black" font-size="12" text-anchor="end" font-family="sans-serif"> 50</text> <line x1="30" x2="27" y1="65.42857142857143" y2="65.42857142857143" stroke="black"></line> <line x1="30" x2="290" y1="65.42857142857143" y2="65.42857142857143" opacity="1" stroke="#e0e0e0"></line> <line x1="30" x2="27" y1="54.07142857142857" y2="54.07142857142857" stroke="black"></line> <line x1="30" x2="290" y1="54.07142857142857" y2="54.07142857142857" opacity="1" stroke="#e0e0e0"></line> <text y="58.07142857142857" x="24" fill="black" font-size="12" text-anchor="end" font-family="sans-serif"> 52</text> <line x1="30" x2="27" y1="42.71428571428572" y2="42.71428571428572" stroke="black"></line> <line x1="30" x2="290" y1="42.71428571428572" y2="42.71428571428572" opacity="1" stroke="#e0e0e0"></line> <line x1="30" x2="27" y1="31.35714285714286" y2="31.35714285714286" stroke="black"></line> <line x1="30" x2="290" y1="31.35714285714286" y2="31.35714285714286" opacity="1" stroke="#e0e0e0"></line> <text y="35.35714285714286" x="24" fill="black" font-size="12" text-anchor="end" font-family="sans-serif"> 54</text> <line x1="30" x2="27" y1="20.0" y2="20.0" stroke="black"></line> <line x1="30" x2="290" y1="20.0" y2="20.0" opacity="1" stroke="#e0e0e0"></line> <line x1="30" x2="30" y1="20" y2="184" stroke="black"></line> <line x1="25" x2="290" y1="179" y2="179" stroke="black"></line> <clipPath id="clip-0"> <rect x="30" y="20" width="260" height="159"></rect></clipPath> <line x1="27" x2="33" y1="176.0" y2="182.0" stroke="black" clip-path="url(#clip-0)"></line> <line x1="33" x2="27" y1="176.0" y2="182.0" stroke="black" clip-path="url(#clip-0)"></line> <line x1="34.64705882352941" x2="40.64705882352941" y1="163.50714285714284" y2="169.50714285714284" stroke="black" clip-path="url(#clip-0)"></line> <line x1="40.64705882352941" x2="34.64705882352941" y1="163.50714285714284" y2="169.50714285714284" stroke="black" clip-path="url(#clip-0)"></line> <line x1="42.294117647058826" x2="48.294117647058826" y1="163.50714285714284" y2="169.50714285714284" stroke="black" clip-path="url(#clip-0)"></line> <line x1="48.294117647058826" x2="42.294117647058826" y1="163.50714285714284" y2="169.50714285714284" stroke="black" clip-path="url(#clip-0)"></line> <line x1="49.94117647058823" x2="55.94117647058823" y1="140.79285714285714" y2="146.79285714285714" stroke="black" clip-path="url(#clip-0)"></line> <line x1="55.94117647058823" x2="49.94117647058823" y1="140.79285714285714" y2="146.79285714285714" stroke="black" clip-path="url(#clip-0)"></line> <line x1="57.588235294117645" x2="63.588235294117645" y1="146.47142857142856" y2="152.47142857142856" stroke="black" clip-path="url(#clip-0)"></line> <line x1="63.588235294117645" x2="57.588235294117645" y1="146.47142857142856" y2="152.47142857142856" stroke="black" clip-path="url(#clip-0)"></line> <line x1="65.23529411764706" x2="71.23529411764706" y1="146.47142857142856" y2="152.47142857142856" stroke="black" clip-path="url(#clip-0)"></line> <line x1="71.23529411764706" x2="65.23529411764706" y1="146.47142857142856" y2="152.47142857142856" stroke="black" clip-path="url(#clip-0)"></line> <line x1="72.88235294117646" x2="78.88235294117646" y1="154.42142857142858" y2="160.42142857142858" stroke="black" clip-path="url(#clip-0)"></line> <line x1="78.88235294117646" x2="72.88235294117646" y1="154.42142857142858" y2="160.42142857142858" stroke="black" clip-path="url(#clip-0)"></line> <line x1="80.52941176470588" x2="86.52941176470588" y1="153.28571428571428" y2="159.28571428571428" stroke="black" clip-path="url(#clip-0)"></line> <line x1="86.52941176470588" x2="80.52941176470588" y1="153.28571428571428" y2="159.28571428571428" stroke="black" clip-path="url(#clip-0)"></line> <line x1="88.17647058823529" x2="94.17647058823529" y1="151.01428571428568" y2="157.01428571428568" stroke="black" clip-path="url(#clip-0)"></line> <line x1="94.17647058823529" x2="88.17647058823529" y1="151.01428571428568" y2="157.01428571428568" stroke="black" clip-path="url(#clip-0)"></line> <line x1="95.82352941176471" x2="101.82352941176471" y1="137.3857142857143" y2="143.3857142857143" stroke="black" clip-path="url(#clip-0)"></line> <line x1="101.82352941176471" x2="95.82352941176471" y1="137.3857142857143" y2="143.3857142857143" stroke="black" clip-path="url(#clip-0)"></line> <line x1="103.47058823529412" x2="109.47058823529412" y1="136.25" y2="142.25" stroke="black" clip-path="url(#clip-0)"></line> <line x1="109.47058823529412" x2="103.47058823529412" y1="136.25" y2="142.25" stroke="black" clip-path="url(#clip-0)"></line> <line x1="111.11764705882354" x2="117.11764705882354" y1="126.02857142857144" y2="132.02857142857144" stroke="black" clip-path="url(#clip-0)"></line> <line x1="117.11764705882354" x2="111.11764705882354" y1="126.02857142857144" y2="132.02857142857144" stroke="black" clip-path="url(#clip-0)"></line> <line x1="118.76470588235294" x2="124.76470588235294" y1="120.35000000000002" y2="126.35000000000002" stroke="black" clip-path="url(#clip-0)"></line> <line x1="124.76470588235294" x2="118.76470588235294" y1="120.35000000000002" y2="126.35000000000002" stroke="black" clip-path="url(#clip-0)"></line> <line x1="126.41176470588235" x2="132.41176470588235" y1="51.07142857142857" y2="57.07142857142857" stroke="black" clip-path="url(#clip-0)"></line> <line x1="132.41176470588235" x2="126.41176470588235" y1="51.07142857142857" y2="57.07142857142857" stroke="black" clip-path="url(#clip-0)"></line> <line x1="134.05882352941177" x2="140.05882352941177" y1="39.71428571428572" y2="45.71428571428572" stroke="black" clip-path="url(#clip-0)"></line> <line x1="140.05882352941177" x2="134.05882352941177" y1="39.71428571428572" y2="45.71428571428572" stroke="black" clip-path="url(#clip-0)"></line> <line x1="141.70588235294116" x2="147.70588235294116" y1="45.39285714285714" y2="51.39285714285714" stroke="black" clip-path="url(#clip-0)"></line> <line x1="147.70588235294116" x2="141.70588235294116" y1="45.39285714285714" y2="51.39285714285714" stroke="black" clip-path="url(#clip-0)"></line> <line x1="149.35294117647058" x2="155.35294117647058" y1="62.42857142857143" y2="68.42857142857143" stroke="black" clip-path="url(#clip-0)"></line> <line x1="155.35294117647058" x2="149.35294117647058" y1="62.42857142857143" y2="68.42857142857143" stroke="black" clip-path="url(#clip-0)"></line> <line x1="157.0" x2="163.0" y1="73.78571428571428" y2="79.78571428571428" stroke="black" clip-path="url(#clip-0)"></line> <line x1="163.0" x2="157.0" y1="73.78571428571428" y2="79.78571428571428" stroke="black" clip-path="url(#clip-0)"></line> <line x1="164.64705882352942" x2="170.64705882352942" y1="73.78571428571428" y2="79.78571428571428" stroke="black" clip-path="url(#clip-0)"></line> <line x1="170.64705882352942" x2="164.64705882352942" y1="73.78571428571428" y2="79.78571428571428" stroke="black" clip-path="url(#clip-0)"></line> <line x1="172.29411764705884" x2="178.29411764705884" y1="73.78571428571428" y2="79.78571428571428" stroke="black" clip-path="url(#clip-0)"></line> <line x1="178.29411764705884" x2="172.29411764705884" y1="73.78571428571428" y2="79.78571428571428" stroke="black" clip-path="url(#clip-0)"></line> <line x1="179.94117647058823" x2="185.94117647058823" y1="82.87142857142854" y2="88.87142857142854" stroke="black" clip-path="url(#clip-0)"></line> <line x1="185.94117647058823" x2="179.94117647058823" y1="82.87142857142854" y2="88.87142857142854" stroke="black" clip-path="url(#clip-0)"></line> <line x1="187.58823529411765" x2="193.58823529411765" y1="78.32857142857141" y2="84.32857142857141" stroke="black" clip-path="url(#clip-0)"></line> <line x1="193.58823529411765" x2="187.58823529411765" y1="78.32857142857141" y2="84.32857142857141" stroke="black" clip-path="url(#clip-0)"></line> <line x1="195.23529411764707" x2="201.23529411764707" y1="73.78571428571428" y2="79.78571428571428" stroke="black" clip-path="url(#clip-0)"></line> <line x1="201.23529411764707" x2="195.23529411764707" y1="73.78571428571428" y2="79.78571428571428" stroke="black" clip-path="url(#clip-0)"></line> <line x1="202.8823529411765" x2="208.8823529411765" y1="85.14285714285715" y2="91.14285714285715" stroke="black" clip-path="url(#clip-0)"></line> <line x1="208.8823529411765" x2="202.8823529411765" y1="85.14285714285715" y2="91.14285714285715" stroke="black" clip-path="url(#clip-0)"></line> <line x1="210.52941176470588" x2="216.52941176470588" y1="73.78571428571428" y2="79.78571428571428" stroke="black" clip-path="url(#clip-0)"></line> <line x1="216.52941176470588" x2="210.52941176470588" y1="73.78571428571428" y2="79.78571428571428" stroke="black" clip-path="url(#clip-0)"></line> <line x1="218.1764705882353" x2="224.1764705882353" y1="85.14285714285715" y2="91.14285714285715" stroke="black" clip-path="url(#clip-0)"></line> <line x1="224.1764705882353" x2="218.1764705882353" y1="85.14285714285715" y2="91.14285714285715" stroke="black" clip-path="url(#clip-0)"></line> <line x1="225.8235294117647" x2="231.8235294117647" y1="90.82142857142857" y2="96.82142857142857" stroke="black" clip-path="url(#clip-0)"></line> <line x1="231.8235294117647" x2="225.8235294117647" y1="90.82142857142857" y2="96.82142857142857" stroke="black" clip-path="url(#clip-0)"></line> <line x1="233.47058823529412" x2="239.47058823529412" y1="76.05714285714289" y2="82.05714285714289" stroke="black" clip-path="url(#clip-0)"></line> <line x1="239.47058823529412" x2="233.47058823529412" y1="76.05714285714289" y2="82.05714285714289" stroke="black" clip-path="url(#clip-0)"></line> <line x1="241.1176470588235" x2="247.1176470588235" y1="96.5" y2="102.5" stroke="black" clip-path="url(#clip-0)"></line> <line x1="247.1176470588235" x2="241.1176470588235" y1="96.5" y2="102.5" stroke="black" clip-path="url(#clip-0)"></line> <line x1="248.76470588235293" x2="254.76470588235293" y1="98.7714285714286" y2="104.7714285714286" stroke="black" clip-path="url(#clip-0)"></line> <line x1="254.76470588235293" x2="248.76470588235293" y1="98.7714285714286" y2="104.7714285714286" stroke="black" clip-path="url(#clip-0)"></line> <line x1="256.4117647058823" x2="262.4117647058823" y1="99.90714285714283" y2="105.90714285714283" stroke="black" clip-path="url(#clip-0)"></line> <line x1="262.4117647058823" x2="256.4117647058823" y1="99.90714285714283" y2="105.90714285714283" stroke="black" clip-path="url(#clip-0)"></line> <line x1="264.05882352941177" x2="270.05882352941177" y1="107.85714285714286" y2="113.85714285714286" stroke="black" clip-path="url(#clip-0)"></line> <line x1="270.05882352941177" x2="264.05882352941177" y1="107.85714285714286" y2="113.85714285714286" stroke="black" clip-path="url(#clip-0)"></line> <line x1="271.70588235294116" x2="277.70588235294116" y1="115.80714285714288" y2="121.80714285714288" stroke="black" clip-path="url(#clip-0)"></line> <line x1="277.70588235294116" x2="271.70588235294116" y1="115.80714285714288" y2="121.80714285714288" stroke="black" clip-path="url(#clip-0)"></line> <line x1="279.3529411764706" x2="285.3529411764706" y1="111.26428571428568" y2="117.26428571428568" stroke="black" clip-path="url(#clip-0)"></line> <line x1="285.3529411764706" x2="279.3529411764706" y1="111.26428571428568" y2="117.26428571428568" stroke="black" clip-path="url(#clip-0)"></line> <line x1="287" x2="293" y1="98.7714285714286" y2="104.7714285714286" stroke="black" clip-path="url(#clip-0)"></line> <line x1="293" x2="287" y1="98.7714285714286" y2="104.7714285714286" stroke="black" clip-path="url(#clip-0)"></line></svg>