<svg width="300" height="200" version="1.1" xmlns="http://www.w3.org/2000/svg" xmlns:xlink="http://www.w3.org/1999/xlink"> <rect width="300" height="200" x="0" y="0" fill="white"></rect> <line x1="30.0" x2="30.0" y1="179" y2="183" stroke="black"></line> <line x1="30.0" x2="30.0" y1="20" y2="179" stroke="#e0e0e0" opacity="1"></line> <text y="193" x="30.0" fill="black" font-weight="normal" font-size="12" text-anchor="middle" font-family="sans-serif"> 0</text> <line x1="45.294117647058826" x2="45.294117647058826" y1="179" y2="181" stroke="black"></line> <line x1="45.294117647058826" x2="45.294117647058826" y1="20" y2="179" stroke="#e0e0e0" opacity="1"></line> <line x1="60.588235294117645" x2="60.588235294117645" y1="179" y2="181" stroke="black"></line> <line x1="60.588235294117645" x2="60.588235294117645" y1="20" y2="179" stroke="#e0e0e0" opacity="1"></line> <line x1="75.88235294117646" x2="75.88235294117646" y1="179" y2="181" stroke="black"></line> <line x1="75.88235294117646" x2="75.88235294117646" y1="20" y2="179" stroke="#e0e0e0" opacity="1"></line> <line x1="91.17647058823529" x2="91.17647058823529" y1="179" y2="181" stroke="black"></line> <line x1="91.17647058823529" x2="91.17647058823529" y1="20" y2="179" stroke="#e0e0e0" opacity="1"></line> <line x1="106.47058823529412" x2="106.47058823529412" y1="179" y2="183" stroke="black"></line> <line x1="106.47058823529412" x2="106.47058823529412" y1="20" y2="179" stroke="#e0e0e0" opacity="1"></line> <text y="193" x="106.47058823529412" fill="black" font-weight="normal" font-size="12" text-anchor="middle" font-family="sans-serif"> 10</text> <line x1="121.76470588235294" x2="121.76470588235294" y1="179" y2="181" stroke="black"></line> <line x1="121.76470588235294" x2="121.76470588235294" y1="20" y2="179" stroke="#e0e0e0" opacity="1"></line> <line x1="137.05882352941177" x2="137.05882352941177" y1="179" y2="181" stroke="black"></line> <line x1="137.05882352941177" x2="137.05882352941177" y1="20" y2="179" stroke="#e0e0e0" opacity="1"></line> <line x1="152.35294117647058" x2="152.35294117647058" y1="179" y2="181" stroke="black"></line> <line x1="152.35294117647058" x2="152.35294117647058" y1="20" y2="179" stroke="#e0e0e0" opacity="1"></line> <line x1="167.64705882352942" x2="167.64705882352942" y1="179" y2="181" stroke="black"></line> <line x1="167.64705882352942" x2="167.64705882352942" y1="20" y2="179" stroke="#e0e0e0" opacity="1"></line> <line x1="182.94117647058823" x2="182.94117647058823" y1="179" y2="183" stroke="black"></line> <line x1="182.94117647058823" x2="182.94117647058823" y1="20" y2="179" stroke="#e0e0e0" opacity="1"></line> <text y="193" x="182.94117647058823" fill="black" font-weight="normal" font-size="12" text-anchor="middle" font-family="sans-serif"> 20</text> <line x1="198.23529411764707" x2="198.23529411764707" y1="179" y2="181" stroke="black"></line> <line x1="198.23529411764707" x2="198.23529411764707" y1="20" y2="179" stroke="#e0e0e0" opacity="1"></line> <line x1="213.52941176470588" x2="213.52941176470588" y1="179" y2="181" stroke="black"></line> <line x1="213.52941176470588" x2="213.52941176470588" y1="20" y2="179" stroke="#e0e0e0" opacity="1"></line> <line x1="228.8235294117647" x2="228.8235294117647" y1="179" y2="181" stroke="black"></line> <line x1="228.8235294117647" x2="228.8235294117647" y1="20" y2="179" stroke="#e0e0e0" opacity="1"></line> <line x1="244.1176470588235" x2="244.1176470588235" y1="179" y2="181" stroke="black"></line> <line x1="244.1176470588235" x2="244.1176470588235" y1="20" y2="179" stroke="#e0e0e0" opacity="1"></line> <line x1="259.4117647058823" x2="259.4117647058823" y1="179" y2="183" stroke="black"></line> <line x1="259.4117647058823" x2="259.4117647058823" y1="20" y2="179" stroke="#e0e0e0" opacity="1"></line> <text y="193" x="259.4117647058823" fill="black" font-weight="normal" font-size="12" text-anchor="middle" font-family="sans-serif"> 30</text> <line x1="274.70588235294116" x2="274.70588235294116" y1="179" y2="181" stroke="black"></line> <line x1="274.70588235294116" x2="274.70588235294116" y1="20" y2="179" stroke="#e0e0e0" opacity="1"></line> <line x1="290.0" x2="290.0" y1="179" y2="181" stroke="black"></line> <line x1="290.0" x2="290.0" y1="20" y2="179" stroke="#e0e0e0" opacity="1"></line> <line x1="30" x2="27" y1="179.0" y2="179.0" stroke="black"></line> <line x1="30" x2="290" y1="179.0" y2="179.0" opacity="1" stroke="#e0e0e0"></line> <line x1="30" x2="27" y1="167.64285714285714" y2="167.64285714285714" stroke="black"></line> <line x1="30" x2="290" y1="167.64285714285714" y2="167.64285714285714" opacity="1" stroke="#e0e0e0"></line> <text y="171.64285714285714" x="24" fill="black" font-size="12" text-anchor="end" font-family="sans-serif"> 42</text> <line x1="30" x2="27" y1="156.28571428571428" y2="156.28571428571428" stroke="black"></line> <line x1="30" x2="290" y1="156.28571428571428" y2="156.28571428571428" opacity="1" stroke="#e0e0e0"></line> <line x1="30" x2="27" y1="144.92857142857144" y2="144.92857142857144" stroke="black"></line> <line x1="30" x2="290" y1="144.92857142857144" y2="144.92857142857144" opacity="1" stroke="#e0e0e0"></line> <text y="148.92857142857144" x="24" fill="black" font-size="12" text-anchor="end" font-family="sans-serif"> 44</text> <line x1="30" x2="27" y1="133.57142857142858" y2="133.57142857142858" stroke="black"></line> <line x1="30" x2="290" y1="133.57142857142858" y2="133.57142857142858" opacity="1" stroke="#e0e0e0"></line> <line x1="30" x2="27" y1="122.21428571428572" y2="122.21428571428572" stroke="black"></line> <line x1="30" x2="290" y1="122.21428571428572" y2="122.21428571428572" opacity="1" stroke="#e0e0e0"></line> <text y="126.21428571428572" x="24" fill="black" font-size="12" text-anchor="end" font-family="sans-serif"> 46</text> <line x1="30" x2="27" y1="110.85714285714286" y2="110.85714285714286" stroke="black"></line> <line x1="30" x2="290" y1="110.85714285714286" y2="110.85714285714286" opacity="1" stroke="#e0e0e0"></line> <line x1="30" x2="27" y1="99.5" y2="99.5" stroke="black"></line> <line x1="30" x2="290" y1="99.5" y2="99.5" opacity="1" stroke="#e0e0e0"></line> <text y="103.5" x="24" fill="black" font-size="12" text-anchor="end" font-family="sans-serif"> 48</text> <line x1="30" x2="27" y1="88.14285714285715" y2="88.14285714285715" stroke="black"></line> <line x1="30" x2="290" y1="88.14285714285715" y2="88.14285714285715" opacity="1" stroke="#e0e0e0"></line> <line x1="30" x2="27" y1="76.78571428571428" y2="76.78571428571428" stroke="black"></line> <line x1="30" x2="290" y1="76.78571428571428" y2="76.78571428571428" opacity="1" stroke="#e0e0e0"></line> <text y="80.78571428571428" x="24" fill="black" font-size="12" text-anchor="end" font-family="sans-serif"> 50</text> <line x1="30" x2="27" y1="65.42857142857143" y2="65.42857142857143" stroke="black"></line> <line x1="30" x2="290" y1="65.42857142857143" y2="65.42857142857143" opacity="1" stroke="#e0e0e0"></line> <line x1="30" x2="27" y1="54.07142857142857" y2="54.07142857142857" stroke="black"></line> <line x1="30" x2="290" y1="54.07142857142857" y2="54.07142857142857" opacity="1" stroke="#e0e0e0"></line> <text y="58.07142857142857" x="24" fill="black" font-size="12" text-anchor="end" font-family="sans-serif"> 52</text> <line x1="30" x2="27" y1="42.71428571428572" y2="42.71428571428572" stroke="black"></line> <line x1="30" x2="290" y1="42.71428571428572" y2="42.71428571428572" opacity="1" stroke="#e0e0e0"></line> <line x1="30" x2="27" y1="31.35714285714286" y2="31.35714285714286" stroke="black"></line> <line x1="30" x2="290" y1="31.35714285714286" y2="31.35714285714286" opacity="1" stroke="#e0e0e0"></line> <text y="35.35714285714286" x="24" fill="black" font-size="12" text-anchor="end" font-family="sans-serif"> 54</text> <line x1="30" x2="27" y1="20.0" y2="20.0" stroke="black"></line> <line x1="30" x2="290" y1="20.0" y2="20.0" opacity="1" stroke="#e0e0e0"></line> <line x1="30" x2="30" y1="20" y2="184" stroke="black"></line> <line x1="25" x2="290" y1="179" y2="179" stroke="black"></line> <clipPath id="clip-0"> <rect x="30" y="20" width="260" height="159"></rect></clipPath> <rect width="3" height="3" x="28.5" y="177.5" stroke="black" clip-path="url(#clip-0)" fill="none"></rect> <rect width="3" height="3" x="36.14705882352941" y="165.00714285714284" stroke="black" clip-path="url(#clip-0)" fill="none"></rect> <rect width="3" height="3" x="43.794117647058826" y="165.00714285714284" stroke="black" clip-path="url(#clip-0)" fill="none"></rect> <rect width="3" height="3" x="51.44117647058823" y="142.29285714285714" stroke="black" clip-path="url(#clip-0)" fill="none"></rect> <rect width="3" height="3" x="59.088235294117645" y="147.97142857142856" stroke="black" clip-path="url(#clip-0)" fill="none"></rect> <rect width="3" height="3" x="66.73529411764706" y="147.97142857142856" stroke="black" clip-path="url(#clip-0)" fill="none"></rect> <rect width="3" height="3" x="74.38235294117646" y="155.92142857142858" stroke="black" clip-path="url(#clip-0)" fill="none"></rect> <rect width="3" height="3" x="82.02941176470588" y="154.78571428571428" stroke="black" clip-path="url(#clip-0)" fill="none"></rect> <rect width="3" height="3" x="89.67647058823529" y="152.51428571428568" stroke="black" clip-path="url(#clip-0)" fill="none"></rect> <rect width="3" height="3" x="97.32352941176471" y="138.8857142857143" stroke="black" clip-path="url(#clip-0)" fill="none"></rect> <rect width="3" height="3" x="104.97058823529412" y="137.75" stroke="black" clip-path="url(#clip-0)" fill="none"></rect> <rect width="3" height="3" x="112.61764705882354" y="127.52857142857144" stroke="black" clip-path="url(#clip-0)" fill="none"></rect> <rect width="3" height="3" x="120.26470588235294" y="121.85000000000002" stroke="black" clip-path="url(#clip-0)" fill="none"></rect> <rect width="3" height="3" x="127.91176470588235" y="52.57142857142857" stroke="black" clip-path="url(#clip-0)" fill="none"></rect> <rect width="3" height="3" x="135.55882352941177" y="41.21428571428572" stroke="black" clip-path="url(#clip-0)" fill="none"></rect> <rect width="3" height="3" x="143.20588235294116" y="46.89285714285714" stroke="black" clip-path="url(#clip-0)" fill="none"></rect> <rect width="3" height="3" x="150.85294117647058" y="63.92857142857143" stroke="black" clip-path="url(#clip-0)" fill="none"></rect> <rect width="3" height="3" x="158.5" y="75.28571428571428" stroke="black" clip-path="url(#clip-0)" fill="none"></rect> <rect width="3" height="3" x="166.14705882352942" y="75.28571428571428" stroke="black" clip-path="url(#clip-0)" fill="none"></rect> <rect width="3" height="3" x="173.79411764705884" y="75.28571428571428" stroke="black" clip-path="url(#clip-0)" fill="none"></rect> <rect width="3" height="3" x="181.44117647058823" y="84.37142857142854" stroke="black" clip-path="url(#clip-0)" fill="none"></rect> <rect width="3" height="3" x="189.08823529411765" y="79.82857142857141" stroke="black" clip-path="url(#clip-0)" fill="none"></rect> <rect width="3" height="3" x="196.73529411764707" y="75.28571428571428" stroke="black" clip-path="url(#clip-0)" fill="none"></rect> <rect width="3" height="3" x="204.3823529411765" y="86.64285714285715" stroke="black" clip-path="url(#clip-0)" fill="none"></rect> <rect width="3" height="3" x="212.02941176470588" y="75.28571428571428" stroke="black" clip-path="url(#clip-0)" fill="none"></rect> <rect width="3" height="3" x="219.6764705882353" y="86.64285714285715" stroke="black" clip-path="url(#clip-0)" fill="none"></rect> <rect width="3" height="3" x="227.3235294117647" y="92.32142857142857" stroke="black" clip-path="url(#clip-0)" fill="none"></rect> <rect width="3" height="3" x="234.97058823529412" y="77.55714285714289" stroke="black" clip-path="url(#clip-0)" fill="none"></rect> <rect width="3" height="3" x="242.6176470588235" y="98.0" stroke="black" clip-path="url(#clip-0)" fill="none"></rect> <rect width="3" height="3" x="250.26470588235293" y="100.2714285714286" stroke="black" clip-path="url(#clip-0)" fill="none"></rect> <rect width="3" height="3" x="257.9117647058823" y="101.40714285714283" stroke="black" clip-path="url(#clip-0)" fill="none"></rect> <rect width="3" height="3" x="265.55882352941177" y="109.35714285714286" stroke="black" clip-path="url(#clip-0)" fill="none"></rect> <rect width="3" height="3" x="273.20588235294116" y="117.30714285714288" stroke="black" clip-path="url(#clip-0)" fill="none"></rect> <rect width="3" height="3" x="280.8529411764706" y="112.76428571428568" stroke="black" clip-path="url(#clip-0)" fill="none"></rect> <rect width="3" height="3" x="288.5" y="100.2714285714286" stroke="black" clip-path="url(#clip-0)" fill="none"></rect></svg>