<svg width="300" height="200" version="1.1" xmlns="http://www.w3.org/2000/svg" xmlns:xlink="http://www.w3.org/1999/xlink"> <defs> <linearGradient id="gradient-0" x1="0" x2="0" y1="0" y2="1"> <stop offset="0%" stop-color="red"></stop> <stop offset="100%" stop-color="black"></stop></linearGradient></defs> <rect width="300" height="200" x="0" y="0" fill="white"></rect> <line x1="30.0" x2="30.0" y1="179" y2="183" stroke="black"></line> <line x1="30.0" x2="30.0" y1="20" y2="179" stroke="#e0e0e0" opacity="nil"></line> <text y="193" x="30.0" fill="black" font-size="12" text-anchor="middle" font-family="sans-serif"> 0</text> <line x1="45.294117647058826" x2="45.294117647058826" y1="179" y2="181" stroke="black"></line> <line x1="45.294117647058826" x2="45.294117647058826" y1="20" y2="179" stroke="#e0e0e0" opacity="nil"></line> <line x1="60.588235294117645" x2="60.588235294117645" y1="179" y2="181" stroke="black"></line> <line x1="60.588235294117645" x2="60.588235294117645" y1="20" y2="179" stroke="#e0e0e0" opacity="nil"></line> <line x1="75.88235294117646" x2="75.88235294117646" y1="179" y2="181" stroke="black"></line> <line x1="75.88235294117646" x2="75.88235294117646" y1="20" y2="179" stroke="#e0e0e0" opacity="nil"></line> <line x1="91.17647058823529" x2="91.17647058823529" y1="179" y2="181" stroke="black"></line> <line x1="91.17647058823529" x2="91.17647058823529" y1="20" y2="179" stroke="#e0e0e0" opacity="nil"></line> <line x1="106.47058823529412" x2="106.47058823529412" y1="179" y2="183" stroke="black"></line> <line x1="106.47058823529412" x2="106.47058823529412" y1="20" y2="179" stroke="#e0e0e0" opacity="nil"></line> <text y="193" x="106.47058823529412" fill="black" font-size="12" text-anchor="middle" font-family="sans-serif"> 10</text> <line x1="121.76470588235294" x2="121.76470588235294" y1="179" y2="181" stroke="black"></line> <line x1="121.76470588235294" x2="121.76470588235294" y1="20" y2="179" stroke="#e0e0e0" opacity="nil"></line> <line x1="137.05882352941177" x2="137.05882352941177" y1="179" y2="181" stroke="black"></line> <line x1="137.05882352941177" x2="137.05882352941177" y1="20" y2="179" stroke="#e0e0e0" opacity="nil"></line> <line x1="152.35294117647058" x2="152.35294117647058" y1="179" y2="181" stroke="black"></line> <line x1="152.35294117647058" x2="152.35294117647058" y1="20" y2="179" stroke="#e0e0e0" opacity="nil"></line> <line x1="167.64705882352942" x2="167.64705882352942" y1="179" y2="181" stroke="black"></line> <line x1="167.64705882352942" x2="167.64705882352942" y1="20" y2="179" stroke="#e0e0e0" opacity="nil"></line> <line x1="182.94117647058823" x2="182.94117647058823" y1="179" y2="183" stroke="black"></line> <line x1="182.94117647058823" x2="182.94117647058823" y1="20" y2="179" stroke="#e0e0e0" opacity="nil"></line> <text y="193" x="182.94117647058823" fill="black" font-size="12" text-anchor="middle" font-family="sans-serif"> 20</text> <line x1="198.23529411764707" x2="198.23529411764707" y1="179" y2="181" stroke="black"></line> <line x1="198.23529411764707" x2="198.23529411764707" y1="20" y2="179" stroke="#e0e0e0" opacity="nil"></line> <line x1="213.52941176470588" x2="213.52941176470588" y1="179" y2="181" stroke="black"></line> <line x1="213.52941176470588" x2="213.52941176470588" y1="20" y2="179" stroke="#e0e0e0" opacity="nil"></line> <line x1="228.8235294117647" x2="228.8235294117647" y1="179" y2="181" stroke="black"></line> <line x1="228.8235294117647" x2="228.8235294117647" y1="20" y2="179" stroke="#e0e0e0" opacity="nil"></line> <line x1="244.1176470588235" x2="244.1176470588235" y1="179" y2="181" stroke="black"></line> <line x1="244.1176470588235" x2="244.1176470588235" y1="20" y2="179" stroke="#e0e0e0" opacity="nil"></line> <line x1="259.4117647058823" x2="259.4117647058823" y1="179" y2="183" stroke="black"></line> <line x1="259.4117647058823" x2="259.4117647058823" y1="20" y2="179" stroke="#e0e0e0" opacity="nil"></line> <text y="193" x="259.4117647058823" fill="black" font-size="12" text-anchor="middle" font-family="sans-serif"> 30</text> <line x1="274.70588235294116" x2="274.70588235294116" y1="179" y2="181" stroke="black"></line> <line x1="274.70588235294116" x2="274.70588235294116" y1="20" y2="179" stroke="#e0e0e0" opacity="nil"></line> <line x1="290.0" x2="290.0" y1="179" y2="181" stroke="black"></line> <line x1="290.0" x2="290.0" y1="20" y2="179" stroke="#e0e0e0" opacity="nil"></line> <line x1="30" x2="27" y1="179.0" y2="179.0" stroke="black"></line> <line x1="30" x2="290" y1="179.0" y2="179.0" opacity="nil" stroke="#e0e0e0"></line> <line x1="30" x2="27" y1="165.75" y2="165.75" stroke="black"></line> <line x1="30" x2="290" y1="165.75" y2="165.75" opacity="nil" stroke="#e0e0e0"></line> <text y="169.75" x="24" fill="black" font-size="12" text-anchor="end" font-family="sans-serif"> 42</text> <line x1="30" x2="27" y1="152.5" y2="152.5" stroke="black"></line> <line x1="30" x2="290" y1="152.5" y2="152.5" opacity="nil" stroke="#e0e0e0"></line> <line x1="30" x2="27" y1="139.25" y2="139.25" stroke="black"></line> <line x1="30" x2="290" y1="139.25" y2="139.25" opacity="nil" stroke="#e0e0e0"></line> <text y="143.25" x="24" fill="black" font-size="12" text-anchor="end" font-family="sans-serif"> 44</text> <line x1="30" x2="27" y1="126.0" y2="126.0" stroke="black"></line> <line x1="30" x2="290" y1="126.0" y2="126.0" opacity="nil" stroke="#e0e0e0"></line> <line x1="30" x2="27" y1="112.75" y2="112.75" stroke="black"></line> <line x1="30" x2="290" y1="112.75" y2="112.75" opacity="nil" stroke="#e0e0e0"></line> <text y="116.75" x="24" fill="black" font-size="12" text-anchor="end" font-family="sans-serif"> 46</text> <line x1="30" x2="27" y1="99.5" y2="99.5" stroke="black"></line> <line x1="30" x2="290" y1="99.5" y2="99.5" opacity="nil" stroke="#e0e0e0"></line> <line x1="30" x2="27" y1="86.25" y2="86.25" stroke="black"></line> <line x1="30" x2="290" y1="86.25" y2="86.25" opacity="nil" stroke="#e0e0e0"></line> <text y="90.25" x="24" fill="black" font-size="12" text-anchor="end" font-family="sans-serif"> 48</text> <line x1="30" x2="27" y1="73.0" y2="73.0" stroke="black"></line> <line x1="30" x2="290" y1="73.0" y2="73.0" opacity="nil" stroke="#e0e0e0"></line> <line x1="30" x2="27" y1="59.75" y2="59.75" stroke="black"></line> <line x1="30" x2="290" y1="59.75" y2="59.75" opacity="nil" stroke="#e0e0e0"></line> <text y="63.75" x="24" fill="black" font-size="12" text-anchor="end" font-family="sans-serif"> 50</text> <line x1="30" x2="27" y1="46.5" y2="46.5" stroke="black"></line> <line x1="30" x2="290" y1="46.5" y2="46.5" opacity="nil" stroke="#e0e0e0"></line> <line x1="30" x2="27" y1="33.25" y2="33.25" stroke="black"></line> <line x1="30" x2="290" y1="33.25" y2="33.25" opacity="nil" stroke="#e0e0e0"></line> <text y="37.25" x="24" fill="black" font-size="12" text-anchor="end" font-family="sans-serif"> 52</text> <line x1="30" x2="27" y1="20.0" y2="20.0" stroke="black"></line> <line x1="30" x2="290" y1="20.0" y2="20.0" opacity="nil" stroke="#e0e0e0"></line> <line x1="30" x2="30" y1="20" y2="184" stroke="black"></line> <line x1="25" x2="290" y1="179" y2="179" stroke="black"></line> <clipPath id="clip-0"> <rect x="30" y="20" width="260" height="159"></rect></clipPath> <path d="M 30 179 C 30.0 179.0 23.88235294117647 190.66000000000003 30 179.0 C 36.11764705882353 167.33999999999997 25.41176470588235 176.085 37.64705882352941 164.42499999999998 C 49.88235294117648 152.76499999999996 33.05882352941177 185.625 45.294117647058826 164.42499999999998 C 57.529411764705884 143.22499999999997 40.705882352941174 153.825 52.94117647058823 137.92499999999998 C 65.17647058823529 122.02499999999998 48.35294117647058 139.24999999999997 60.588235294117645 144.54999999999998 C 72.82352941176471 149.85 56.0 137.12999999999997 68.23529411764706 144.54999999999998 C 80.47058823529412 151.97 63.647058823529406 147.465 75.88235294117646 153.82500000000002 C 88.11764705882352 160.18500000000003 71.29411764705883 155.68000000000004 83.52941176470588 152.5 C 95.76470588235294 149.31999999999996 78.94117647058823 164.68999999999994 91.17647058823529 149.84999999999997 C 103.41176470588235 135.01 86.58823529411765 147.73 98.82352941176471 133.95000000000002 C 111.05882352941177 120.17000000000004 94.23529411764706 143.225 106.47058823529412 132.625 C 118.70588235294117 122.025 101.88235294117648 135.54 114.11764705882354 120.70000000000002 C 126.3529411764706 105.86000000000003 109.52941176470588 184.03500000000003 121.76470588235294 114.07500000000002 C 134.0 44.114999999999995 117.17647058823529 108.51000000000002 129.41176470588235 33.25 C 141.64705882352942 -42.01000000000002 124.82352941176472 25.3 137.05882352941177 20.0 C 149.2941176470588 14.7 132.47058823529412 5.424999999999997 144.70588235294116 26.625 C 156.9411764705882 47.825 140.1176470588235 20.0 152.35294117647058 46.5 C 164.58823529411765 73.0 147.76470588235293 49.15 160.0 59.75 C 172.23529411764707 70.35 155.41176470588235 59.75 167.64705882352942 59.75 C 179.8823529411765 59.75 163.0588235294118 51.270000000000024 175.29411764705884 59.75 C 187.52941176470588 68.22999999999998 170.7058823529412 66.10999999999999 182.94117647058823 70.34999999999997 C 195.17647058823528 74.58999999999995 178.35294117647058 73.52999999999996 190.58823529411765 65.04999999999998 C 202.82352941176472 56.57000000000001 186.0 53.389999999999986 198.23529411764707 59.75 C 210.47058823529414 66.11000000000001 193.64705882352945 73.0 205.8823529411765 73.0 C 218.11764705882354 73.0 201.29411764705884 59.75 213.52941176470588 59.75 C 225.76470588235293 59.75 208.94117647058826 57.1 221.1764705882353 73.0 C 233.41176470588235 88.9 216.58823529411765 88.10499999999996 228.8235294117647 79.625 C 241.05882352941174 71.14500000000004 224.23529411764707 57.10000000000005 236.47058823529412 62.40000000000005 C 248.70588235294116 67.70000000000005 231.88235294117646 65.05000000000001 244.1176470588235 86.25 C 256.35294117647055 107.44999999999999 239.52941176470588 85.72000000000006 251.76470588235293 88.90000000000003 C 264.0 92.08000000000001 247.17647058823525 81.74499999999999 259.4117647058823 90.22499999999997 C 271.6470588235294 98.70499999999994 254.8235294117647 84.65999999999994 267.05882352941177 99.5 C 279.29411764705884 114.34000000000006 262.4705882352941 105.59500000000006 274.70588235294116 108.77500000000003 C 286.94117647058823 111.95500000000001 270.11764705882354 119.37499999999997 282.3529411764706 103.47499999999997 C 294.5882352941177 87.57499999999996 283.88235294117646 28.480000000000004 290 88.90000000000003 C 296.11764705882354 149.32000000000005 290.0 106.92000000000003 290 179 Z" stroke="black" clip-path="url(#clip-0)" x1="0" x2="0" y1="0" y2="1" fill="url(#gradient-0)"></path></svg>