<svg width="300" height="200" version="1.1" xmlns="http://www.w3.org/2000/svg" xmlns:xlink="http://www.w3.org/1999/xlink"> <rect width="300" height="200" x="0" y="0" fill="white"></rect> <line x1="44.0" x2="44.0" y1="179" y2="183" stroke="black"></line> <line x1="44.0" x2="44.0" y1="20" y2="179" stroke="#e0e0e0" opacity="1"></line> <text y="193" x="44.0" fill="black" font-weight="normal" font-size="12" text-anchor="middle" font-family="sans-serif"> 0</text> <line x1="61.57142857142857" x2="61.57142857142857" y1="179" y2="183" stroke="black"></line> <line x1="61.57142857142857" x2="61.57142857142857" y1="20" y2="179" stroke="#e0e0e0" opacity="1"></line> <text y="193" x="61.57142857142857" fill="black" font-weight="normal" font-size="12" text-anchor="middle" font-family="sans-serif"> 1</text> <line x1="79.14285714285714" x2="79.14285714285714" y1="179" y2="183" stroke="black"></line> <line x1="79.14285714285714" x2="79.14285714285714" y1="20" y2="179" stroke="#e0e0e0" opacity="1"></line> <text y="193" x="79.14285714285714" fill="black" font-weight="normal" font-size="12" text-anchor="middle" font-family="sans-serif"> 2</text> <line x1="96.71428571428571" x2="96.71428571428571" y1="179" y2="183" stroke="black"></line> <line x1="96.71428571428571" x2="96.71428571428571" y1="20" y2="179" stroke="#e0e0e0" opacity="1"></line> <text y="193" x="96.71428571428571" fill="black" font-weight="normal" font-size="12" text-anchor="middle" font-family="sans-serif"> 3</text> <line x1="114.28571428571428" x2="114.28571428571428" y1="179" y2="183" stroke="black"></line> <line x1="114.28571428571428" x2="114.28571428571428" y1="20" y2="179" stroke="#e0e0e0" opacity="1"></line> <text y="193" x="114.28571428571428" fill="black" font-weight="normal" font-size="12" text-anchor="middle" font-family="sans-serif"> 4</text> <line x1="131.85714285714286" x2="131.85714285714286" y1="179" y2="183" stroke="black"></line> <line x1="131.85714285714286" x2="131.85714285714286" y1="20" y2="179" stroke="#e0e0e0" opacity="1"></line> <text y="193" x="131.85714285714286" fill="black" font-weight="normal" font-size="12" text-anchor="middle" font-family="sans-serif"> 5</text> <line x1="149.42857142857142" x2="149.42857142857142" y1="179" y2="183" stroke="black"></line> <line x1="149.42857142857142" x2="149.42857142857142" y1="20" y2="179" stroke="#e0e0e0" opacity="1"></line> <text y="193" x="149.42857142857142" fill="black" font-weight="normal" font-size="12" text-anchor="middle" font-family="sans-serif"> 6</text> <line x1="167.0" x2="167.0" y1="179" y2="183" stroke="black"></line> <line x1="167.0" x2="167.0" y1="20" y2="179" stroke="#e0e0e0" opacity="1"></line> <text y="193" x="167.0" fill="black" font-weight="normal" font-size="12" text-anchor="middle" font-family="sans-serif"> 7</text> <line x1="184.57142857142856" x2="184.57142857142856" y1="179" y2="183" stroke="black"></line> <line x1="184.57142857142856" x2="184.57142857142856" y1="20" y2="179" stroke="#e0e0e0" opacity="1"></line> <text y="193" x="184.57142857142856" fill="black" font-weight="normal" font-size="12" text-anchor="middle" font-family="sans-serif"> 8</text> <line x1="202.14285714285717" x2="202.14285714285717" y1="179" y2="183" stroke="black"></line> <line x1="202.14285714285717" x2="202.14285714285717" y1="20" y2="179" stroke="#e0e0e0" opacity="1"></line> <text y="193" x="202.14285714285717" fill="black" font-weight="normal" font-size="12" text-anchor="middle" font-family="sans-serif"> 9</text> <line x1="219.71428571428572" x2="219.71428571428572" y1="179" y2="183" stroke="black"></line> <line x1="219.71428571428572" x2="219.71428571428572" y1="20" y2="179" stroke="#e0e0e0" opacity="1"></line> <text y="193" x="219.71428571428572" fill="black" font-weight="normal" font-size="12" text-anchor="middle" font-family="sans-serif"> 10</text> <line x1="237.28571428571428" x2="237.28571428571428" y1="179" y2="183" stroke="black"></line> <line x1="237.28571428571428" x2="237.28571428571428" y1="20" y2="179" stroke="#e0e0e0" opacity="1"></line> <text y="193" x="237.28571428571428" fill="black" font-weight="normal" font-size="12" text-anchor="middle" font-family="sans-serif"> 11</text> <line x1="254.85714285714283" x2="254.85714285714283" y1="179" y2="183" stroke="black"></line> <line x1="254.85714285714283" x2="254.85714285714283" y1="20" y2="179" stroke="#e0e0e0" opacity="1"></line> <text y="193" x="254.85714285714283" fill="black" font-weight="normal" font-size="12" text-anchor="middle" font-family="sans-serif"> 12</text> <line x1="272.42857142857144" x2="272.42857142857144" y1="179" y2="183" stroke="black"></line> <line x1="272.42857142857144" x2="272.42857142857144" y1="20" y2="179" stroke="#e0e0e0" opacity="1"></line> <text y="193" x="272.42857142857144" fill="black" font-weight="normal" font-size="12" text-anchor="middle" font-family="sans-serif"> 13</text> <line x1="290.0" x2="290.0" y1="179" y2="183" stroke="black"></line> <line x1="290.0" x2="290.0" y1="20" y2="179" stroke="#e0e0e0" opacity="1"></line> <text y="193" x="290.0" fill="black" font-weight="normal" font-size="12" text-anchor="middle" font-family="sans-serif"> 14</text> <line x1="44" x2="41" y1="179.0" y2="179.0" stroke="black"></line> <line x1="44" x2="290" y1="179.0" y2="179.0" opacity="1" stroke="#e0e0e0"></line> <text y="183.0" x="38" fill="black" font-size="12" text-anchor="end" font-family="sans-serif"> 1200k</text> <line x1="44" x2="41" y1="159.125" y2="159.125" stroke="black"></line> <line x1="44" x2="290" y1="159.125" y2="159.125" opacity="1" stroke="#e0e0e0"></line> <line x1="44" x2="41" y1="139.25" y2="139.25" stroke="black"></line> <line x1="44" x2="290" y1="139.25" y2="139.25" opacity="1" stroke="#e0e0e0"></line> <text y="143.25" x="38" fill="black" font-size="12" text-anchor="end" font-family="sans-serif"> 1300k</text> <line x1="44" x2="41" y1="119.375" y2="119.375" stroke="black"></line> <line x1="44" x2="290" y1="119.375" y2="119.375" opacity="1" stroke="#e0e0e0"></line> <line x1="44" x2="41" y1="99.5" y2="99.5" stroke="black"></line> <line x1="44" x2="290" y1="99.5" y2="99.5" opacity="1" stroke="#e0e0e0"></line> <text y="103.5" x="38" fill="black" font-size="12" text-anchor="end" font-family="sans-serif"> 1400k</text> <line x1="44" x2="41" y1="79.625" y2="79.625" stroke="black"></line> <line x1="44" x2="290" y1="79.625" y2="79.625" opacity="1" stroke="#e0e0e0"></line> <line x1="44" x2="41" y1="59.75" y2="59.75" stroke="black"></line> <line x1="44" x2="290" y1="59.75" y2="59.75" opacity="1" stroke="#e0e0e0"></line> <text y="63.75" x="38" fill="black" font-size="12" text-anchor="end" font-family="sans-serif"> 1500k</text> <line x1="44" x2="41" y1="39.875" y2="39.875" stroke="black"></line> <line x1="44" x2="290" y1="39.875" y2="39.875" opacity="1" stroke="#e0e0e0"></line> <line x1="44" x2="41" y1="20.0" y2="20.0" stroke="black"></line> <line x1="44" x2="290" y1="20.0" y2="20.0" opacity="1" stroke="#e0e0e0"></line> <text y="24.0" x="38" fill="black" font-size="12" text-anchor="end" font-family="sans-serif"> 1600k</text> <line x1="44" x2="44" y1="20" y2="184" stroke="black"></line> <line x1="39" x2="290" y1="179" y2="179" stroke="black"></line> <clipPath id="clip-0"> <rect x="44" y="20" width="246" height="159"></rect></clipPath> <line x1="44" x2="61.57142857142857" y1="175.025" y2="135.275" stroke="black" clip-path="url(#clip-0)" stroke-width="1"></line> <line x1="61.57142857142857" x2="79.14285714285714" y1="135.275" y2="87.575" stroke="black" clip-path="url(#clip-0)" stroke-width="1"></line> <line x1="79.14285714285714" x2="96.71428571428571" y1="87.575" y2="83.60000000000001" stroke="black" clip-path="url(#clip-0)" stroke-width="1"></line> <line x1="96.71428571428571" x2="114.28571428571428" y1="83.60000000000001" y2="31.924999999999983" stroke="black" clip-path="url(#clip-0)" stroke-width="1"></line> <line x1="114.28571428571428" x2="131.85714285714286" y1="31.924999999999983" y2="35.900000000000006" stroke="black" clip-path="url(#clip-0)" stroke-width="1"></line> <line x1="131.85714285714286" x2="149.42857142857142" y1="35.900000000000006" y2="39.875" stroke="black" clip-path="url(#clip-0)" stroke-width="1"></line> <line x1="149.42857142857142" x2="167.0" y1="39.875" y2="59.75" stroke="black" clip-path="url(#clip-0)" stroke-width="1"></line> <line x1="167.0" x2="184.57142857142856" y1="59.75" y2="75.64999999999999" stroke="black" clip-path="url(#clip-0)" stroke-width="1"></line> <line x1="184.57142857142856" x2="202.14285714285717" y1="75.64999999999999" y2="99.5" stroke="black" clip-path="url(#clip-0)" stroke-width="1"></line> <line x1="202.14285714285717" x2="219.71428571428572" y1="99.5" y2="139.25" stroke="black" clip-path="url(#clip-0)" stroke-width="1"></line> <line x1="219.71428571428572" x2="237.28571428571428" y1="139.25" y2="119.375" stroke="black" clip-path="url(#clip-0)" stroke-width="1"></line> <line x1="237.28571428571428" x2="254.85714285714283" y1="119.375" y2="111.425" stroke="black" clip-path="url(#clip-0)" stroke-width="1"></line> <line x1="254.85714285714283" x2="272.42857142857144" y1="111.425" y2="107.45" stroke="black" clip-path="url(#clip-0)" stroke-width="1"></line> <line x1="272.42857142857144" x2="290" y1="107.45" y2="103.47500000000001" stroke="black" clip-path="url(#clip-0)" stroke-width="1"></line></svg>