<svg width="300" height="200" version="1.1" xmlns="http://www.w3.org/2000/svg" xmlns:xlink="http://www.w3.org/1999/xlink"> <defs> <linearGradient id="gradient-0" x1="0" x2="0" y1="0" y2="1"> <stop offset="0%" stop-color="red"></stop> <stop offset="100%" stop-color="black"></stop></linearGradient></defs> <rect width="300" height="200" x="0" y="0" fill="white"></rect> <line x1="30.0" x2="30.0" y1="179" y2="183" stroke="black"></line> <line x1="30.0" x2="30.0" y1="20" y2="179" stroke="#e0e0e0" opacity="nil"></line> <text y="193" x="30.0" fill="black" font-size="12" text-anchor="middle" font-family="sans-serif"> 0</text> <line x1="45.294117647058826" x2="45.294117647058826" y1="179" y2="181" stroke="black"></line> <line x1="45.294117647058826" x2="45.294117647058826" y1="20" y2="179" stroke="#e0e0e0" opacity="nil"></line> <line x1="60.588235294117645" x2="60.588235294117645" y1="179" y2="181" stroke="black"></line> <line x1="60.588235294117645" x2="60.588235294117645" y1="20" y2="179" stroke="#e0e0e0" opacity="nil"></line> <line x1="75.88235294117646" x2="75.88235294117646" y1="179" y2="181" stroke="black"></line> <line x1="75.88235294117646" x2="75.88235294117646" y1="20" y2="179" stroke="#e0e0e0" opacity="nil"></line> <line x1="91.17647058823529" x2="91.17647058823529" y1="179" y2="181" stroke="black"></line> <line x1="91.17647058823529" x2="91.17647058823529" y1="20" y2="179" stroke="#e0e0e0" opacity="nil"></line> <line x1="106.47058823529412" x2="106.47058823529412" y1="179" y2="183" stroke="black"></line> <line x1="106.47058823529412" x2="106.47058823529412" y1="20" y2="179" stroke="#e0e0e0" opacity="nil"></line> <text y="193" x="106.47058823529412" fill="black" font-size="12" text-anchor="middle" font-family="sans-serif"> 10</text> <line x1="121.76470588235294" x2="121.76470588235294" y1="179" y2="181" stroke="black"></line> <line x1="121.76470588235294" x2="121.76470588235294" y1="20" y2="179" stroke="#e0e0e0" opacity="nil"></line> <line x1="137.05882352941177" x2="137.05882352941177" y1="179" y2="181" stroke="black"></line> <line x1="137.05882352941177" x2="137.05882352941177" y1="20" y2="179" stroke="#e0e0e0" opacity="nil"></line> <line x1="152.35294117647058" x2="152.35294117647058" y1="179" y2="181" stroke="black"></line> <line x1="152.35294117647058" x2="152.35294117647058" y1="20" y2="179" stroke="#e0e0e0" opacity="nil"></line> <line x1="167.64705882352942" x2="167.64705882352942" y1="179" y2="181" stroke="black"></line> <line x1="167.64705882352942" x2="167.64705882352942" y1="20" y2="179" stroke="#e0e0e0" opacity="nil"></line> <line x1="182.94117647058823" x2="182.94117647058823" y1="179" y2="183" stroke="black"></line> <line x1="182.94117647058823" x2="182.94117647058823" y1="20" y2="179" stroke="#e0e0e0" opacity="nil"></line> <text y="193" x="182.94117647058823" fill="black" font-size="12" text-anchor="middle" font-family="sans-serif"> 20</text> <line x1="198.23529411764707" x2="198.23529411764707" y1="179" y2="181" stroke="black"></line> <line x1="198.23529411764707" x2="198.23529411764707" y1="20" y2="179" stroke="#e0e0e0" opacity="nil"></line> <line x1="213.52941176470588" x2="213.52941176470588" y1="179" y2="181" stroke="black"></line> <line x1="213.52941176470588" x2="213.52941176470588" y1="20" y2="179" stroke="#e0e0e0" opacity="nil"></line> <line x1="228.8235294117647" x2="228.8235294117647" y1="179" y2="181" stroke="black"></line> <line x1="228.8235294117647" x2="228.8235294117647" y1="20" y2="179" stroke="#e0e0e0" opacity="nil"></line> <line x1="244.1176470588235" x2="244.1176470588235" y1="179" y2="181" stroke="black"></line> <line x1="244.1176470588235" x2="244.1176470588235" y1="20" y2="179" stroke="#e0e0e0" opacity="nil"></line> <line x1="259.4117647058823" x2="259.4117647058823" y1="179" y2="183" stroke="black"></line> <line x1="259.4117647058823" x2="259.4117647058823" y1="20" y2="179" stroke="#e0e0e0" opacity="nil"></line> <text y="193" x="259.4117647058823" fill="black" font-size="12" text-anchor="middle" font-family="sans-serif"> 30</text> <line x1="274.70588235294116" x2="274.70588235294116" y1="179" y2="181" stroke="black"></line> <line x1="274.70588235294116" x2="274.70588235294116" y1="20" y2="179" stroke="#e0e0e0" opacity="nil"></line> <line x1="290.0" x2="290.0" y1="179" y2="181" stroke="black"></line> <line x1="290.0" x2="290.0" y1="20" y2="179" stroke="#e0e0e0" opacity="nil"></line> <line x1="30" x2="27" y1="179.0" y2="179.0" stroke="black"></line> <line x1="30" x2="290" y1="179.0" y2="179.0" opacity="nil" stroke="#e0e0e0"></line> <line x1="30" x2="27" y1="166.76923076923077" y2="166.76923076923077" stroke="black"></line> <line x1="30" x2="290" y1="166.76923076923077" y2="166.76923076923077" opacity="nil" stroke="#e0e0e0"></line> <text y="170.76923076923077" x="24" fill="black" font-size="12" text-anchor="end" font-family="sans-serif"> 42</text> <line x1="30" x2="27" y1="154.53846153846155" y2="154.53846153846155" stroke="black"></line> <line x1="30" x2="290" y1="154.53846153846155" y2="154.53846153846155" opacity="nil" stroke="#e0e0e0"></line> <line x1="30" x2="27" y1="142.30769230769232" y2="142.30769230769232" stroke="black"></line> <line x1="30" x2="290" y1="142.30769230769232" y2="142.30769230769232" opacity="nil" stroke="#e0e0e0"></line> <text y="146.30769230769232" x="24" fill="black" font-size="12" text-anchor="end" font-family="sans-serif"> 44</text> <line x1="30" x2="27" y1="130.07692307692307" y2="130.07692307692307" stroke="black"></line> <line x1="30" x2="290" y1="130.07692307692307" y2="130.07692307692307" opacity="nil" stroke="#e0e0e0"></line> <line x1="30" x2="27" y1="117.84615384615384" y2="117.84615384615384" stroke="black"></line> <line x1="30" x2="290" y1="117.84615384615384" y2="117.84615384615384" opacity="nil" stroke="#e0e0e0"></line> <text y="121.84615384615384" x="24" fill="black" font-size="12" text-anchor="end" font-family="sans-serif"> 46</text> <line x1="30" x2="27" y1="105.61538461538461" y2="105.61538461538461" stroke="black"></line> <line x1="30" x2="290" y1="105.61538461538461" y2="105.61538461538461" opacity="nil" stroke="#e0e0e0"></line> <line x1="30" x2="27" y1="93.38461538461539" y2="93.38461538461539" stroke="black"></line> <line x1="30" x2="290" y1="93.38461538461539" y2="93.38461538461539" opacity="nil" stroke="#e0e0e0"></line> <text y="97.38461538461539" x="24" fill="black" font-size="12" text-anchor="end" font-family="sans-serif"> 48</text> <line x1="30" x2="27" y1="81.15384615384615" y2="81.15384615384615" stroke="black"></line> <line x1="30" x2="290" y1="81.15384615384615" y2="81.15384615384615" opacity="nil" stroke="#e0e0e0"></line> <line x1="30" x2="27" y1="68.92307692307692" y2="68.92307692307692" stroke="black"></line> <line x1="30" x2="290" y1="68.92307692307692" y2="68.92307692307692" opacity="nil" stroke="#e0e0e0"></line> <text y="72.92307692307692" x="24" fill="black" font-size="12" text-anchor="end" font-family="sans-serif"> 50</text> <line x1="30" x2="27" y1="56.69230769230768" y2="56.69230769230768" stroke="black"></line> <line x1="30" x2="290" y1="56.69230769230768" y2="56.69230769230768" opacity="nil" stroke="#e0e0e0"></line> <line x1="30" x2="27" y1="44.46153846153845" y2="44.46153846153845" stroke="black"></line> <line x1="30" x2="290" y1="44.46153846153845" y2="44.46153846153845" opacity="nil" stroke="#e0e0e0"></line> <text y="48.46153846153845" x="24" fill="black" font-size="12" text-anchor="end" font-family="sans-serif"> 52</text> <line x1="30" x2="27" y1="32.230769230769226" y2="32.230769230769226" stroke="black"></line> <line x1="30" x2="290" y1="32.230769230769226" y2="32.230769230769226" opacity="nil" stroke="#e0e0e0"></line> <line x1="30" x2="27" y1="20.0" y2="20.0" stroke="black"></line> <line x1="30" x2="290" y1="20.0" y2="20.0" opacity="nil" stroke="#e0e0e0"></line> <text y="24.0" x="24" fill="black" font-size="12" text-anchor="end" font-family="sans-serif"> 54</text> <line x1="30" x2="30" y1="20" y2="184" stroke="black"></line> <line x1="25" x2="290" y1="179" y2="179" stroke="black"></line> <clipPath id="clip-0"> <rect x="30" y="20" width="260" height="159"></rect></clipPath> <path d="M 30 179 C 30 179.0 -8.235294117647065 246.26923076923086 30 179.0 C 68.23529411764707 111.73076923076914 -38.82352941176472 232.8153846153847 37.64705882352941 165.54615384615383 C 114.11764705882354 98.27692307692297 -31.17647058823526 287.8538461538461 45.294117647058826 165.54615384615383 C 121.76470588235291 43.238461538461564 -23.529411764705856 232.81538461538457 52.94117647058823 141.08461538461538 C 129.41176470588232 49.35384615384618 -15.882352941176485 116.62307692307692 60.588235294117645 147.2 C 137.05882352941177 177.77692307692305 -8.23529411764703 104.39230769230761 68.23529411764706 147.2 C 144.70588235294116 190.00769230769237 -0.5882352941176663 119.06923076923067 75.88235294117646 155.76153846153846 C 152.3529411764706 192.45384615384626 7.058823529411754 172.88461538461559 83.52941176470588 154.53846153846155 C 160.0 136.1923076923075 14.70588235294116 237.70769230769227 91.17647058823529 152.09230769230766 C 167.64705882352942 66.47692307692304 22.35294117647058 216.9153846153845 98.82352941176471 137.41538461538462 C 175.29411764705884 57.91538461538474 29.999999999999986 197.3461538461538 106.47058823529412 136.19230769230768 C 182.94117647058823 75.03846153846155 37.647058823529406 210.79999999999987 114.11764705882354 125.1846153846154 C 190.58823529411768 39.56923076923093 45.29411764705888 522.6846153846155 121.76470588235294 119.06923076923078 C 198.23529411764702 -284.54615384615397 52.94117647058822 478.65384615384625 129.41176470588235 44.46153846153845 C 205.88235294117646 -389.73076923076934 60.58823529411771 62.80769230769229 137.05882352941177 32.230769230769226 C 213.52941176470583 1.6538461538461604 68.2352941176471 -83.96153846153842 144.70588235294116 38.34615384615384 C 221.17647058823522 160.6538461538461 75.88235294117638 -96.19230769230774 152.35294117647058 56.69230769230768 C 228.82352941176478 209.5769230769231 83.5294117647058 7.769230769230717 160.0 68.92307692307692 C 236.4705882352942 130.07692307692312 91.17647058823522 68.92307692307692 167.64705882352942 68.92307692307692 C 244.11764705882362 68.92307692307692 98.82352941176478 20.00000000000017 175.29411764705884 68.92307692307692 C 251.7647058823529 117.84615384615367 106.47058823529417 54.24615384615386 182.94117647058823 78.70769230769227 C 259.4117647058823 103.16923076923068 114.11764705882345 122.73846153846135 190.58823529411765 73.8153846153846 C 267.0588235294118 24.892307692307853 121.76470588235287 32.2307692307692 198.23529411764707 68.92307692307692 C 274.7058823529413 105.61538461538464 129.41176470588243 81.15384615384615 205.8823529411765 81.15384615384615 C 282.35294117647055 81.15384615384615 137.05882352941182 68.92307692307692 213.52941176470588 68.92307692307692 C 289.99999999999994 68.92307692307692 144.70588235294125 -10.576923076923123 221.1764705882353 81.15384615384615 C 297.6470588235294 172.88461538461542 152.35294117647064 136.1923076923075 228.8235294117647 87.26923076923077 C 305.2941176470588 38.346153846154024 160.00000000000006 40.79230769230773 236.47058823529412 71.3692307692308 C 312.9411764705882 101.94615384615386 167.64705882352945 -28.923076923076948 244.1176470588235 93.38461538461539 C 320.58823529411757 215.69230769230774 175.29411764705887 77.48461538461558 251.76470588235293 95.83076923076926 C 328.23529411764696 114.17692307692295 182.94117647058812 48.130769230769374 259.4117647058823 97.05384615384612 C 335.8823529411765 145.97692307692287 190.58823529411757 19.999999999999645 267.05882352941177 105.61538461538461 C 343.52941176470597 191.23076923076957 198.23529411764696 95.83076923076943 274.70588235294116 114.17692307692312 C 351.17647058823536 132.52307692307681 205.8823529411764 201.01538461538462 282.3529411764706 109.28461538461535 C 358.8235294117648 17.55384615384608 251.76470588235304 -252.74615384615402 290 95.83076923076926 C 328.23529411764696 444.4076923076925 290 -236.8461538461537 290 179 Z" stroke="black" clip-path="url(#clip-0)" x1="0" x2="0" y1="0" y2="1" fill="url(#gradient-0)" stroke-width="1"></path></svg>