<svg width="300" height="200" version="1.1" xmlns="http://www.w3.org/2000/svg" xmlns:xlink="http://www.w3.org/1999/xlink"> <rect width="300" height="200" x="0" y="0" fill="white"></rect> <line x1="34.0" x2="34.0" y1="179" y2="183" stroke="black"></line> <line x1="34.0" x2="34.0" y1="20" y2="179" stroke="#e0e0e0" opacity="1"></line> <text y="193" x="34.0" fill="black" font-weight="normal" font-size="12" text-anchor="middle" font-family="sans-serif"> $0</text> <line x1="49.05882352941177" x2="49.05882352941177" y1="179" y2="181" stroke="black"></line> <line x1="49.05882352941177" x2="49.05882352941177" y1="20" y2="179" stroke="#e0e0e0" opacity="1"></line> <line x1="64.11764705882354" x2="64.11764705882354" y1="179" y2="181" stroke="black"></line> <line x1="64.11764705882354" x2="64.11764705882354" y1="20" y2="179" stroke="#e0e0e0" opacity="1"></line> <line x1="79.1764705882353" x2="79.1764705882353" y1="179" y2="181" stroke="black"></line> <line x1="79.1764705882353" x2="79.1764705882353" y1="20" y2="179" stroke="#e0e0e0" opacity="1"></line> <line x1="94.23529411764706" x2="94.23529411764706" y1="179" y2="181" stroke="black"></line> <line x1="94.23529411764706" x2="94.23529411764706" y1="20" y2="179" stroke="#e0e0e0" opacity="1"></line> <line x1="109.29411764705883" x2="109.29411764705883" y1="179" y2="183" stroke="black"></line> <line x1="109.29411764705883" x2="109.29411764705883" y1="20" y2="179" stroke="#e0e0e0" opacity="1"></line> <text y="193" x="109.29411764705883" fill="black" font-weight="normal" font-size="12" text-anchor="middle" font-family="sans-serif"> $10</text> <line x1="124.3529411764706" x2="124.3529411764706" y1="179" y2="181" stroke="black"></line> <line x1="124.3529411764706" x2="124.3529411764706" y1="20" y2="179" stroke="#e0e0e0" opacity="1"></line> <line x1="139.41176470588235" x2="139.41176470588235" y1="179" y2="181" stroke="black"></line> <line x1="139.41176470588235" x2="139.41176470588235" y1="20" y2="179" stroke="#e0e0e0" opacity="1"></line> <line x1="154.47058823529412" x2="154.47058823529412" y1="179" y2="181" stroke="black"></line> <line x1="154.47058823529412" x2="154.47058823529412" y1="20" y2="179" stroke="#e0e0e0" opacity="1"></line> <line x1="169.52941176470588" x2="169.52941176470588" y1="179" y2="181" stroke="black"></line> <line x1="169.52941176470588" x2="169.52941176470588" y1="20" y2="179" stroke="#e0e0e0" opacity="1"></line> <line x1="184.58823529411765" x2="184.58823529411765" y1="179" y2="183" stroke="black"></line> <line x1="184.58823529411765" x2="184.58823529411765" y1="20" y2="179" stroke="#e0e0e0" opacity="1"></line> <text y="193" x="184.58823529411765" fill="black" font-weight="normal" font-size="12" text-anchor="middle" font-family="sans-serif"> $20</text> <line x1="199.64705882352942" x2="199.64705882352942" y1="179" y2="181" stroke="black"></line> <line x1="199.64705882352942" x2="199.64705882352942" y1="20" y2="179" stroke="#e0e0e0" opacity="1"></line> <line x1="214.7058823529412" x2="214.7058823529412" y1="179" y2="181" stroke="black"></line> <line x1="214.7058823529412" x2="214.7058823529412" y1="20" y2="179" stroke="#e0e0e0" opacity="1"></line> <line x1="229.76470588235293" x2="229.76470588235293" y1="179" y2="181" stroke="black"></line> <line x1="229.76470588235293" x2="229.76470588235293" y1="20" y2="179" stroke="#e0e0e0" opacity="1"></line> <line x1="244.8235294117647" x2="244.8235294117647" y1="179" y2="181" stroke="black"></line> <line x1="244.8235294117647" x2="244.8235294117647" y1="20" y2="179" stroke="#e0e0e0" opacity="1"></line> <line x1="259.88235294117646" x2="259.88235294117646" y1="179" y2="183" stroke="black"></line> <line x1="259.88235294117646" x2="259.88235294117646" y1="20" y2="179" stroke="#e0e0e0" opacity="1"></line> <text y="193" x="259.88235294117646" fill="black" font-weight="normal" font-size="12" text-anchor="middle" font-family="sans-serif"> $30</text> <line x1="274.94117647058823" x2="274.94117647058823" y1="179" y2="181" stroke="black"></line> <line x1="274.94117647058823" x2="274.94117647058823" y1="20" y2="179" stroke="#e0e0e0" opacity="1"></line> <line x1="290.0" x2="290.0" y1="179" y2="181" stroke="black"></line> <line x1="290.0" x2="290.0" y1="20" y2="179" stroke="#e0e0e0" opacity="1"></line> <line x1="34" x2="31" y1="179.0" y2="179.0" stroke="black"></line> <line x1="34" x2="290" y1="179.0" y2="179.0" opacity="1" stroke="#e0e0e0"></line> <line x1="34" x2="31" y1="167.64285714285714" y2="167.64285714285714" stroke="black"></line> <line x1="34" x2="290" y1="167.64285714285714" y2="167.64285714285714" opacity="1" stroke="#e0e0e0"></line> <text y="171.64285714285714" x="28" fill="black" font-size="12" text-anchor="end" font-family="sans-serif"> 42%</text> <line x1="34" x2="31" y1="156.28571428571428" y2="156.28571428571428" stroke="black"></line> <line x1="34" x2="290" y1="156.28571428571428" y2="156.28571428571428" opacity="1" stroke="#e0e0e0"></line> <line x1="34" x2="31" y1="144.92857142857144" y2="144.92857142857144" stroke="black"></line> <line x1="34" x2="290" y1="144.92857142857144" y2="144.92857142857144" opacity="1" stroke="#e0e0e0"></line> <text y="148.92857142857144" x="28" fill="black" font-size="12" text-anchor="end" font-family="sans-serif"> 44%</text> <line x1="34" x2="31" y1="133.57142857142858" y2="133.57142857142858" stroke="black"></line> <line x1="34" x2="290" y1="133.57142857142858" y2="133.57142857142858" opacity="1" stroke="#e0e0e0"></line> <line x1="34" x2="31" y1="122.21428571428572" y2="122.21428571428572" stroke="black"></line> <line x1="34" x2="290" y1="122.21428571428572" y2="122.21428571428572" opacity="1" stroke="#e0e0e0"></line> <text y="126.21428571428572" x="28" fill="black" font-size="12" text-anchor="end" font-family="sans-serif"> 46%</text> <line x1="34" x2="31" y1="110.85714285714286" y2="110.85714285714286" stroke="black"></line> <line x1="34" x2="290" y1="110.85714285714286" y2="110.85714285714286" opacity="1" stroke="#e0e0e0"></line> <line x1="34" x2="31" y1="99.5" y2="99.5" stroke="black"></line> <line x1="34" x2="290" y1="99.5" y2="99.5" opacity="1" stroke="#e0e0e0"></line> <text y="103.5" x="28" fill="black" font-size="12" text-anchor="end" font-family="sans-serif"> 48%</text> <line x1="34" x2="31" y1="88.14285714285715" y2="88.14285714285715" stroke="black"></line> <line x1="34" x2="290" y1="88.14285714285715" y2="88.14285714285715" opacity="1" stroke="#e0e0e0"></line> <line x1="34" x2="31" y1="76.78571428571428" y2="76.78571428571428" stroke="black"></line> <line x1="34" x2="290" y1="76.78571428571428" y2="76.78571428571428" opacity="1" stroke="#e0e0e0"></line> <text y="80.78571428571428" x="28" fill="black" font-size="12" text-anchor="end" font-family="sans-serif"> 50%</text> <line x1="34" x2="31" y1="65.42857142857143" y2="65.42857142857143" stroke="black"></line> <line x1="34" x2="290" y1="65.42857142857143" y2="65.42857142857143" opacity="1" stroke="#e0e0e0"></line> <line x1="34" x2="31" y1="54.07142857142857" y2="54.07142857142857" stroke="black"></line> <line x1="34" x2="290" y1="54.07142857142857" y2="54.07142857142857" opacity="1" stroke="#e0e0e0"></line> <text y="58.07142857142857" x="28" fill="black" font-size="12" text-anchor="end" font-family="sans-serif"> 52%</text> <line x1="34" x2="31" y1="42.71428571428572" y2="42.71428571428572" stroke="black"></line> <line x1="34" x2="290" y1="42.71428571428572" y2="42.71428571428572" opacity="1" stroke="#e0e0e0"></line> <line x1="34" x2="31" y1="31.35714285714286" y2="31.35714285714286" stroke="black"></line> <line x1="34" x2="290" y1="31.35714285714286" y2="31.35714285714286" opacity="1" stroke="#e0e0e0"></line> <text y="35.35714285714286" x="28" fill="black" font-size="12" text-anchor="end" font-family="sans-serif"> 54%</text> <line x1="34" x2="31" y1="20.0" y2="20.0" stroke="black"></line> <line x1="34" x2="290" y1="20.0" y2="20.0" opacity="1" stroke="#e0e0e0"></line> <line x1="34" x2="34" y1="20" y2="184" stroke="black"></line> <line x1="29" x2="290" y1="179" y2="179" stroke="black"></line> <clipPath id="clip-0"> <rect x="34" y="20" width="256" height="159"></rect></clipPath> <line x1="34" x2="41.529411764705884" y1="179.0" y2="166.50714285714284" stroke="black" clip-path="url(#clip-0)" stroke-width="1"></line> <line x1="41.529411764705884" x2="49.05882352941177" y1="166.50714285714284" y2="166.50714285714284" stroke="black" clip-path="url(#clip-0)" stroke-width="1"></line> <line x1="49.05882352941177" x2="56.58823529411765" y1="166.50714285714284" y2="143.79285714285714" stroke="black" clip-path="url(#clip-0)" stroke-width="1"></line> <line x1="56.58823529411765" x2="64.11764705882354" y1="143.79285714285714" y2="149.47142857142856" stroke="black" clip-path="url(#clip-0)" stroke-width="1"></line> <line x1="64.11764705882354" x2="71.64705882352942" y1="149.47142857142856" y2="149.47142857142856" stroke="black" clip-path="url(#clip-0)" stroke-width="1"></line> <line x1="71.64705882352942" x2="79.1764705882353" y1="149.47142857142856" y2="157.42142857142858" stroke="black" clip-path="url(#clip-0)" stroke-width="1"></line> <line x1="79.1764705882353" x2="86.70588235294117" y1="157.42142857142858" y2="156.28571428571428" stroke="black" clip-path="url(#clip-0)" stroke-width="1"></line> <line x1="86.70588235294117" x2="94.23529411764706" y1="156.28571428571428" y2="154.01428571428568" stroke="black" clip-path="url(#clip-0)" stroke-width="1"></line> <line x1="94.23529411764706" x2="101.76470588235294" y1="154.01428571428568" y2="140.3857142857143" stroke="black" clip-path="url(#clip-0)" stroke-width="1"></line> <line x1="101.76470588235294" x2="109.29411764705883" y1="140.3857142857143" y2="139.25" stroke="black" clip-path="url(#clip-0)" stroke-width="1"></line> <line x1="109.29411764705883" x2="116.82352941176471" y1="139.25" y2="129.02857142857144" stroke="black" clip-path="url(#clip-0)" stroke-width="1"></line> <line x1="116.82352941176471" x2="124.3529411764706" y1="129.02857142857144" y2="123.35000000000002" stroke="black" clip-path="url(#clip-0)" stroke-width="1"></line> <line x1="124.3529411764706" x2="131.88235294117646" y1="123.35000000000002" y2="54.07142857142857" stroke="black" clip-path="url(#clip-0)" stroke-width="1"></line> <line x1="131.88235294117646" x2="139.41176470588235" y1="54.07142857142857" y2="42.71428571428572" stroke="black" clip-path="url(#clip-0)" stroke-width="1"></line> <line x1="139.41176470588235" x2="146.94117647058823" y1="42.71428571428572" y2="48.39285714285714" stroke="black" clip-path="url(#clip-0)" stroke-width="1"></line> <line x1="146.94117647058823" x2="154.47058823529412" y1="48.39285714285714" y2="65.42857142857143" stroke="black" clip-path="url(#clip-0)" stroke-width="1"></line> <line x1="154.47058823529412" x2="162.0" y1="65.42857142857143" y2="76.78571428571428" stroke="black" clip-path="url(#clip-0)" stroke-width="1"></line> <line x1="162.0" x2="169.52941176470588" y1="76.78571428571428" y2="76.78571428571428" stroke="black" clip-path="url(#clip-0)" stroke-width="1"></line> <line x1="169.52941176470588" x2="177.05882352941177" y1="76.78571428571428" y2="76.78571428571428" stroke="black" clip-path="url(#clip-0)" stroke-width="1"></line> <line x1="177.05882352941177" x2="184.58823529411765" y1="76.78571428571428" y2="85.87142857142854" stroke="black" clip-path="url(#clip-0)" stroke-width="1"></line> <line x1="184.58823529411765" x2="192.11764705882354" y1="85.87142857142854" y2="81.32857142857141" stroke="black" clip-path="url(#clip-0)" stroke-width="1"></line> <line x1="192.11764705882354" x2="199.64705882352942" y1="81.32857142857141" y2="76.78571428571428" stroke="black" clip-path="url(#clip-0)" stroke-width="1"></line> <line x1="199.64705882352942" x2="207.1764705882353" y1="76.78571428571428" y2="88.14285714285715" stroke="black" clip-path="url(#clip-0)" stroke-width="1"></line> <line x1="207.1764705882353" x2="214.7058823529412" y1="88.14285714285715" y2="76.78571428571428" stroke="black" clip-path="url(#clip-0)" stroke-width="1"></line> <line x1="214.7058823529412" x2="222.23529411764707" y1="76.78571428571428" y2="88.14285714285715" stroke="black" clip-path="url(#clip-0)" stroke-width="1"></line> <line x1="222.23529411764707" x2="229.76470588235293" y1="88.14285714285715" y2="93.82142857142857" stroke="black" clip-path="url(#clip-0)" stroke-width="1"></line> <line x1="229.76470588235293" x2="237.2941176470588" y1="93.82142857142857" y2="79.05714285714289" stroke="black" clip-path="url(#clip-0)" stroke-width="1"></line> <line x1="237.2941176470588" x2="244.8235294117647" y1="79.05714285714289" y2="99.5" stroke="black" clip-path="url(#clip-0)" stroke-width="1"></line> <line x1="244.8235294117647" x2="252.35294117647058" y1="99.5" y2="101.7714285714286" stroke="black" clip-path="url(#clip-0)" stroke-width="1"></line> <line x1="252.35294117647058" x2="259.88235294117646" y1="101.7714285714286" y2="102.90714285714283" stroke="black" clip-path="url(#clip-0)" stroke-width="1"></line> <line x1="259.88235294117646" x2="267.4117647058823" y1="102.90714285714283" y2="110.85714285714286" stroke="black" clip-path="url(#clip-0)" stroke-width="1"></line> <line x1="267.4117647058823" x2="274.94117647058823" y1="110.85714285714286" y2="118.80714285714288" stroke="black" clip-path="url(#clip-0)" stroke-width="1"></line> <line x1="274.94117647058823" x2="282.47058823529414" y1="118.80714285714288" y2="114.26428571428568" stroke="black" clip-path="url(#clip-0)" stroke-width="1"></line> <line x1="282.47058823529414" x2="290" y1="114.26428571428568" y2="101.7714285714286" stroke="black" clip-path="url(#clip-0)" stroke-width="1"></line></svg>