<svg width="300" height="200" version="1.1" xmlns="http://www.w3.org/2000/svg" xmlns:xlink="http://www.w3.org/1999/xlink"> <rect width="300" height="200" x="0" y="0" fill="white"></rect> <line x1="30.0" x2="30.0" y1="179" y2="183" stroke="black"></line> <line x1="30.0" x2="30.0" y1="20" y2="179" stroke="#e0e0e0" opacity="1"></line> <text y="193" x="30.0" fill="black" font-weight="normal" font-size="12" text-anchor="middle" font-family="sans-serif"> -1</text> <line x1="43.0" x2="43.0" y1="179" y2="183" stroke="black"></line> <line x1="43.0" x2="43.0" y1="20" y2="179" stroke="#e0e0e0" opacity="1"></line> <text y="193" x="43.0" fill="black" font-weight="normal" font-size="12" text-anchor="middle" font-family="sans-serif"> -0.9</text> <line x1="55.99999999999999" x2="55.99999999999999" y1="179" y2="183" stroke="black"></line> <line x1="55.99999999999999" x2="55.99999999999999" y1="20" y2="179" stroke="#e0e0e0" opacity="1"></line> <text y="193" x="55.99999999999999" fill="black" font-weight="normal" font-size="12" text-anchor="middle" font-family="sans-serif"> -0.8</text> <line x1="69.0" x2="69.0" y1="179" y2="183" stroke="black"></line> <line x1="69.0" x2="69.0" y1="20" y2="179" stroke="#e0e0e0" opacity="1"></line> <text y="193" x="69.0" fill="black" font-weight="normal" font-size="12" text-anchor="middle" font-family="sans-serif"> -0.7</text> <line x1="82.0" x2="82.0" y1="179" y2="183" stroke="black"></line> <line x1="82.0" x2="82.0" y1="20" y2="179" stroke="#e0e0e0" opacity="1"></line> <text y="193" x="82.0" fill="black" font-weight="normal" font-size="12" text-anchor="middle" font-family="sans-serif"> -0.6</text> <line x1="95.0" x2="95.0" y1="179" y2="183" stroke="black"></line> <line x1="95.0" x2="95.0" y1="20" y2="179" stroke="#e0e0e0" opacity="1"></line> <text y="193" x="95.0" fill="black" font-weight="normal" font-size="12" text-anchor="middle" font-family="sans-serif"> -0.5</text> <line x1="108.0" x2="108.0" y1="179" y2="183" stroke="black"></line> <line x1="108.0" x2="108.0" y1="20" y2="179" stroke="#e0e0e0" opacity="1"></line> <text y="193" x="108.0" fill="black" font-weight="normal" font-size="12" text-anchor="middle" font-family="sans-serif"> -0.4</text> <line x1="121.0" x2="121.0" y1="179" y2="183" stroke="black"></line> <line x1="121.0" x2="121.0" y1="20" y2="179" stroke="#e0e0e0" opacity="1"></line> <text y="193" x="121.0" fill="black" font-weight="normal" font-size="12" text-anchor="middle" font-family="sans-serif"> -0.3</text> <line x1="134.0" x2="134.0" y1="179" y2="183" stroke="black"></line> <line x1="134.0" x2="134.0" y1="20" y2="179" stroke="#e0e0e0" opacity="1"></line> <text y="193" x="134.0" fill="black" font-weight="normal" font-size="12" text-anchor="middle" font-family="sans-serif"> -0.2</text> <line x1="147.0" x2="147.0" y1="179" y2="183" stroke="black"></line> <line x1="147.0" x2="147.0" y1="20" y2="179" stroke="#e0e0e0" opacity="1"></line> <text y="193" x="147.0" fill="black" font-weight="normal" font-size="12" text-anchor="middle" font-family="sans-serif"> -0.1</text> <line x1="160.0" x2="160.0" y1="179" y2="183" stroke="black"></line> <line x1="160.0" x2="160.0" y1="20" y2="179" stroke="#e0e0e0" opacity="1"></line> <text y="193" x="160.0" fill="black" font-weight="normal" font-size="12" text-anchor="middle" font-family="sans-serif"> 0</text> <line x1="173.0" x2="173.0" y1="179" y2="183" stroke="black"></line> <line x1="173.0" x2="173.0" y1="20" y2="179" stroke="#e0e0e0" opacity="1"></line> <text y="193" x="173.0" fill="black" font-weight="normal" font-size="12" text-anchor="middle" font-family="sans-serif"> 0.1</text> <line x1="186.0" x2="186.0" y1="179" y2="183" stroke="black"></line> <line x1="186.0" x2="186.0" y1="20" y2="179" stroke="#e0e0e0" opacity="1"></line> <text y="193" x="186.0" fill="black" font-weight="normal" font-size="12" text-anchor="middle" font-family="sans-serif"> 0.2</text> <line x1="199.0" x2="199.0" y1="179" y2="183" stroke="black"></line> <line x1="199.0" x2="199.0" y1="20" y2="179" stroke="#e0e0e0" opacity="1"></line> <text y="193" x="199.0" fill="black" font-weight="normal" font-size="12" text-anchor="middle" font-family="sans-serif"> 0.3</text> <line x1="212.0" x2="212.0" y1="179" y2="183" stroke="black"></line> <line x1="212.0" x2="212.0" y1="20" y2="179" stroke="#e0e0e0" opacity="1"></line> <text y="193" x="212.0" fill="black" font-weight="normal" font-size="12" text-anchor="middle" font-family="sans-serif"> 0.4</text> <line x1="225.0" x2="225.0" y1="179" y2="183" stroke="black"></line> <line x1="225.0" x2="225.0" y1="20" y2="179" stroke="#e0e0e0" opacity="1"></line> <text y="193" x="225.0" fill="black" font-weight="normal" font-size="12" text-anchor="middle" font-family="sans-serif"> 0.5</text> <line x1="238.0" x2="238.0" y1="179" y2="183" stroke="black"></line> <line x1="238.0" x2="238.0" y1="20" y2="179" stroke="#e0e0e0" opacity="1"></line> <text y="193" x="238.0" fill="black" font-weight="normal" font-size="12" text-anchor="middle" font-family="sans-serif"> 0.6</text> <line x1="251.0" x2="251.0" y1="179" y2="183" stroke="black"></line> <line x1="251.0" x2="251.0" y1="20" y2="179" stroke="#e0e0e0" opacity="1"></line> <text y="193" x="251.0" fill="black" font-weight="normal" font-size="12" text-anchor="middle" font-family="sans-serif"> 0.7</text> <line x1="264.0" x2="264.0" y1="179" y2="183" stroke="black"></line> <line x1="264.0" x2="264.0" y1="20" y2="179" stroke="#e0e0e0" opacity="1"></line> <text y="193" x="264.0" fill="black" font-weight="normal" font-size="12" text-anchor="middle" font-family="sans-serif"> 0.8</text> <line x1="277.0" x2="277.0" y1="179" y2="183" stroke="black"></line> <line x1="277.0" x2="277.0" y1="20" y2="179" stroke="#e0e0e0" opacity="1"></line> <text y="193" x="277.0" fill="black" font-weight="normal" font-size="12" text-anchor="middle" font-family="sans-serif"> 0.9</text> <line x1="290.0" x2="290.0" y1="179" y2="183" stroke="black"></line> <line x1="290.0" x2="290.0" y1="20" y2="179" stroke="#e0e0e0" opacity="1"></line> <text y="193" x="290.0" fill="black" font-weight="normal" font-size="12" text-anchor="middle" font-family="sans-serif"> 1</text> <line x1="30" x2="27" y1="179.0" y2="179.0" stroke="black"></line> <line x1="30" x2="290" y1="179.0" y2="179.0" opacity="1" stroke="#e0e0e0"></line> <text y="183.0" x="24" fill="black" font-size="12" text-anchor="end" font-family="sans-serif"> -1</text> <line x1="30" x2="27" y1="163.1" y2="163.1" stroke="black"></line> <line x1="30" x2="290" y1="163.1" y2="163.1" opacity="1" stroke="#e0e0e0"></line> <line x1="30" x2="27" y1="147.2" y2="147.2" stroke="black"></line> <line x1="30" x2="290" y1="147.2" y2="147.2" opacity="1" stroke="#e0e0e0"></line> <line x1="30" x2="27" y1="131.3" y2="131.3" stroke="black"></line> <line x1="30" x2="290" y1="131.3" y2="131.3" opacity="1" stroke="#e0e0e0"></line> <line x1="30" x2="27" y1="115.4" y2="115.4" stroke="black"></line> <line x1="30" x2="290" y1="115.4" y2="115.4" opacity="1" stroke="#e0e0e0"></line> <line x1="30" x2="27" y1="99.5" y2="99.5" stroke="black"></line> <line x1="30" x2="290" y1="99.5" y2="99.5" opacity="1" stroke="#e0e0e0"></line> <text y="103.5" x="24" fill="black" font-size="12" text-anchor="end" font-family="sans-serif"> 0</text> <line x1="30" x2="27" y1="83.60000000000001" y2="83.60000000000001" stroke="black"></line> <line x1="30" x2="290" y1="83.60000000000001" y2="83.60000000000001" opacity="1" stroke="#e0e0e0"></line> <line x1="30" x2="27" y1="67.7" y2="67.7" stroke="black"></line> <line x1="30" x2="290" y1="67.7" y2="67.7" opacity="1" stroke="#e0e0e0"></line> <line x1="30" x2="27" y1="51.8" y2="51.8" stroke="black"></line> <line x1="30" x2="290" y1="51.8" y2="51.8" opacity="1" stroke="#e0e0e0"></line> <line x1="30" x2="27" y1="35.900000000000006" y2="35.900000000000006" stroke="black"></line> <line x1="30" x2="290" y1="35.900000000000006" y2="35.900000000000006" opacity="1" stroke="#e0e0e0"></line> <line x1="30" x2="27" y1="20.0" y2="20.0" stroke="black"></line> <line x1="30" x2="290" y1="20.0" y2="20.0" opacity="1" stroke="#e0e0e0"></line> <text y="24.0" x="24" fill="black" font-size="12" text-anchor="end" font-family="sans-serif"> 1</text> <line x1="30" x2="30" y1="20" y2="184" stroke="black"></line> <line x1="25" x2="290" y1="179" y2="179" stroke="black"></line> <clipPath id="clip-0"> <rect x="30" y="20" width="260" height="159"></rect></clipPath> <line x1="290.0" x2="283.63" y1="99.5" y2="74.9345" stroke="black" clip-path="url(#clip-0)" stroke-width="1"></line> <line x1="283.63" x2="265.17" y1="74.9345" y2="52.75399999999999" stroke="black" clip-path="url(#clip-0)" stroke-width="1"></line> <line x1="265.17" x2="236.44" y1="52.75399999999999" y2="35.184499999999986" stroke="black" clip-path="url(#clip-0)" stroke-width="1"></line> <line x1="236.44" x2="200.17" y1="35.184499999999986" y2="23.8955" stroke="black" clip-path="url(#clip-0)" stroke-width="1"></line> <line x1="200.17" x2="160.0" y1="23.8955" y2="20.0" stroke="black" clip-path="url(#clip-0)" stroke-width="1"></line> <line x1="160.0" x2="119.83000000000001" y1="20.0" y2="23.8955" stroke="black" clip-path="url(#clip-0)" stroke-width="1"></line> <line x1="119.83000000000001" x2="83.56" y1="23.8955" y2="35.184499999999986" stroke="black" clip-path="url(#clip-0)" stroke-width="1"></line> <line x1="83.56" x2="54.83" y1="35.184499999999986" y2="52.75399999999999" stroke="black" clip-path="url(#clip-0)" stroke-width="1"></line> <line x1="54.83" x2="36.370000000000005" y1="52.75399999999999" y2="74.9345" stroke="black" clip-path="url(#clip-0)" stroke-width="1"></line> <line x1="36.370000000000005" x2="30.0" y1="74.9345" y2="99.5" stroke="black" clip-path="url(#clip-0)" stroke-width="1"></line> <line x1="30.0" x2="36.370000000000005" y1="99.5" y2="124.06549999999999" stroke="black" clip-path="url(#clip-0)" stroke-width="1"></line> <line x1="36.370000000000005" x2="54.83" y1="124.06549999999999" y2="146.24599999999998" stroke="black" clip-path="url(#clip-0)" stroke-width="1"></line> <line x1="54.83" x2="83.56" y1="146.24599999999998" y2="163.81550000000001" stroke="black" clip-path="url(#clip-0)" stroke-width="1"></line> <line x1="83.56" x2="119.83000000000001" y1="163.81550000000001" y2="175.1045" stroke="black" clip-path="url(#clip-0)" stroke-width="1"></line> <line x1="119.83000000000001" x2="160.0" y1="175.1045" y2="179.0" stroke="black" clip-path="url(#clip-0)" stroke-width="1"></line> <line x1="160.0" x2="200.17" y1="179.0" y2="175.1045" stroke="black" clip-path="url(#clip-0)" stroke-width="1"></line> <line x1="200.17" x2="236.44" y1="175.1045" y2="163.81550000000001" stroke="black" clip-path="url(#clip-0)" stroke-width="1"></line> <line x1="236.44" x2="265.17" y1="163.81550000000001" y2="146.24599999999998" stroke="black" clip-path="url(#clip-0)" stroke-width="1"></line> <line x1="265.17" x2="283.63" y1="146.24599999999998" y2="124.06549999999999" stroke="black" clip-path="url(#clip-0)" stroke-width="1"></line></svg>