<svg width="300" height="200" version="1.1" xmlns="http://www.w3.org/2000/svg" xmlns:xlink="http://www.w3.org/1999/xlink"> <rect width="300" height="200" x="0" y="0" fill="white"></rect> <line x1="30.0" x2="30.0" y1="179" y2="183" stroke="black"></line> <line x1="30.0" x2="30.0" y1="20" y2="179" stroke="#e0e0e0" opacity="nil"></line> <text y="193" x="30.0" fill="black" font-size="12" text-anchor="middle" font-family="sans-serif"> 0</text> <line x1="45.294117647058826" x2="45.294117647058826" y1="179" y2="181" stroke="black"></line> <line x1="45.294117647058826" x2="45.294117647058826" y1="20" y2="179" stroke="#e0e0e0" opacity="nil"></line> <line x1="60.588235294117645" x2="60.588235294117645" y1="179" y2="181" stroke="black"></line> <line x1="60.588235294117645" x2="60.588235294117645" y1="20" y2="179" stroke="#e0e0e0" opacity="nil"></line> <line x1="75.88235294117646" x2="75.88235294117646" y1="179" y2="181" stroke="black"></line> <line x1="75.88235294117646" x2="75.88235294117646" y1="20" y2="179" stroke="#e0e0e0" opacity="nil"></line> <line x1="91.17647058823529" x2="91.17647058823529" y1="179" y2="181" stroke="black"></line> <line x1="91.17647058823529" x2="91.17647058823529" y1="20" y2="179" stroke="#e0e0e0" opacity="nil"></line> <line x1="106.47058823529412" x2="106.47058823529412" y1="179" y2="183" stroke="black"></line> <line x1="106.47058823529412" x2="106.47058823529412" y1="20" y2="179" stroke="#e0e0e0" opacity="nil"></line> <text y="193" x="106.47058823529412" fill="black" font-size="12" text-anchor="middle" font-family="sans-serif"> 10</text> <line x1="121.76470588235294" x2="121.76470588235294" y1="179" y2="181" stroke="black"></line> <line x1="121.76470588235294" x2="121.76470588235294" y1="20" y2="179" stroke="#e0e0e0" opacity="nil"></line> <line x1="137.05882352941177" x2="137.05882352941177" y1="179" y2="181" stroke="black"></line> <line x1="137.05882352941177" x2="137.05882352941177" y1="20" y2="179" stroke="#e0e0e0" opacity="nil"></line> <line x1="152.35294117647058" x2="152.35294117647058" y1="179" y2="181" stroke="black"></line> <line x1="152.35294117647058" x2="152.35294117647058" y1="20" y2="179" stroke="#e0e0e0" opacity="nil"></line> <line x1="167.64705882352942" x2="167.64705882352942" y1="179" y2="181" stroke="black"></line> <line x1="167.64705882352942" x2="167.64705882352942" y1="20" y2="179" stroke="#e0e0e0" opacity="nil"></line> <line x1="182.94117647058823" x2="182.94117647058823" y1="179" y2="183" stroke="black"></line> <line x1="182.94117647058823" x2="182.94117647058823" y1="20" y2="179" stroke="#e0e0e0" opacity="nil"></line> <text y="193" x="182.94117647058823" fill="black" font-size="12" text-anchor="middle" font-family="sans-serif"> 20</text> <line x1="198.23529411764707" x2="198.23529411764707" y1="179" y2="181" stroke="black"></line> <line x1="198.23529411764707" x2="198.23529411764707" y1="20" y2="179" stroke="#e0e0e0" opacity="nil"></line> <line x1="213.52941176470588" x2="213.52941176470588" y1="179" y2="181" stroke="black"></line> <line x1="213.52941176470588" x2="213.52941176470588" y1="20" y2="179" stroke="#e0e0e0" opacity="nil"></line> <line x1="228.8235294117647" x2="228.8235294117647" y1="179" y2="181" stroke="black"></line> <line x1="228.8235294117647" x2="228.8235294117647" y1="20" y2="179" stroke="#e0e0e0" opacity="nil"></line> <line x1="244.1176470588235" x2="244.1176470588235" y1="179" y2="181" stroke="black"></line> <line x1="244.1176470588235" x2="244.1176470588235" y1="20" y2="179" stroke="#e0e0e0" opacity="nil"></line> <line x1="259.4117647058823" x2="259.4117647058823" y1="179" y2="183" stroke="black"></line> <line x1="259.4117647058823" x2="259.4117647058823" y1="20" y2="179" stroke="#e0e0e0" opacity="nil"></line> <text y="193" x="259.4117647058823" fill="black" font-size="12" text-anchor="middle" font-family="sans-serif"> 30</text> <line x1="274.70588235294116" x2="274.70588235294116" y1="179" y2="181" stroke="black"></line> <line x1="274.70588235294116" x2="274.70588235294116" y1="20" y2="179" stroke="#e0e0e0" opacity="nil"></line> <line x1="290.0" x2="290.0" y1="179" y2="181" stroke="black"></line> <line x1="290.0" x2="290.0" y1="20" y2="179" stroke="#e0e0e0" opacity="nil"></line> <line x1="30" x2="27" y1="179.0" y2="179.0" stroke="black"></line> <line x1="30" x2="290" y1="179.0" y2="179.0" opacity="nil" stroke="#e0e0e0"></line> <line x1="30" x2="27" y1="165.75" y2="165.75" stroke="black"></line> <line x1="30" x2="290" y1="165.75" y2="165.75" opacity="nil" stroke="#e0e0e0"></line> <text y="169.75" x="24" fill="black" font-size="12" text-anchor="end" font-family="sans-serif"> 42</text> <line x1="30" x2="27" y1="152.5" y2="152.5" stroke="black"></line> <line x1="30" x2="290" y1="152.5" y2="152.5" opacity="nil" stroke="#e0e0e0"></line> <line x1="30" x2="27" y1="139.25" y2="139.25" stroke="black"></line> <line x1="30" x2="290" y1="139.25" y2="139.25" opacity="nil" stroke="#e0e0e0"></line> <text y="143.25" x="24" fill="black" font-size="12" text-anchor="end" font-family="sans-serif"> 44</text> <line x1="30" x2="27" y1="126.0" y2="126.0" stroke="black"></line> <line x1="30" x2="290" y1="126.0" y2="126.0" opacity="nil" stroke="#e0e0e0"></line> <line x1="30" x2="27" y1="112.75" y2="112.75" stroke="black"></line> <line x1="30" x2="290" y1="112.75" y2="112.75" opacity="nil" stroke="#e0e0e0"></line> <text y="116.75" x="24" fill="black" font-size="12" text-anchor="end" font-family="sans-serif"> 46</text> <line x1="30" x2="27" y1="99.5" y2="99.5" stroke="black"></line> <line x1="30" x2="290" y1="99.5" y2="99.5" opacity="nil" stroke="#e0e0e0"></line> <line x1="30" x2="27" y1="86.25" y2="86.25" stroke="black"></line> <line x1="30" x2="290" y1="86.25" y2="86.25" opacity="nil" stroke="#e0e0e0"></line> <text y="90.25" x="24" fill="black" font-size="12" text-anchor="end" font-family="sans-serif"> 48</text> <line x1="30" x2="27" y1="73.0" y2="73.0" stroke="black"></line> <line x1="30" x2="290" y1="73.0" y2="73.0" opacity="nil" stroke="#e0e0e0"></line> <line x1="30" x2="27" y1="59.75" y2="59.75" stroke="black"></line> <line x1="30" x2="290" y1="59.75" y2="59.75" opacity="nil" stroke="#e0e0e0"></line> <text y="63.75" x="24" fill="black" font-size="12" text-anchor="end" font-family="sans-serif"> 50</text> <line x1="30" x2="27" y1="46.5" y2="46.5" stroke="black"></line> <line x1="30" x2="290" y1="46.5" y2="46.5" opacity="nil" stroke="#e0e0e0"></line> <line x1="30" x2="27" y1="33.25" y2="33.25" stroke="black"></line> <line x1="30" x2="290" y1="33.25" y2="33.25" opacity="nil" stroke="#e0e0e0"></line> <text y="37.25" x="24" fill="black" font-size="12" text-anchor="end" font-family="sans-serif"> 52</text> <line x1="30" x2="27" y1="20.0" y2="20.0" stroke="black"></line> <line x1="30" x2="290" y1="20.0" y2="20.0" opacity="nil" stroke="#e0e0e0"></line> <line x1="30" x2="30" y1="20" y2="184" stroke="black"></line> <line x1="25" x2="290" y1="179" y2="179" stroke="black"></line> <clipPath id="clip-0"> <rect x="30" y="20" width="260" height="159"></rect></clipPath> <path d="M 30 179.0 C 30.764705882352942 177.5425 36.11764705882353 165.8825 37.64705882352941 164.42499999999998 C 39.1764705882353 162.96749999999997 43.76470588235294 167.075 45.294117647058826 164.42499999999998 C 46.82352941176471 161.77499999999998 51.41176470588235 139.9125 52.94117647058823 137.92499999999998 C 54.470588235294116 135.93749999999997 59.05882352941176 143.8875 60.588235294117645 144.54999999999998 C 62.11764705882353 145.21249999999998 66.70588235294117 143.62249999999997 68.23529411764706 144.54999999999998 C 69.76470588235294 145.4775 74.35294117647058 153.03000000000003 75.88235294117646 153.82500000000002 C 77.41176470588235 154.62 82.0 152.8975 83.52941176470588 152.5 C 85.05882352941177 152.1025 89.6470588235294 151.70499999999996 91.17647058823529 149.84999999999997 C 92.70588235294117 147.99499999999998 97.29411764705883 135.6725 98.82352941176471 133.95000000000002 C 100.3529411764706 132.22750000000002 104.94117647058823 133.95 106.47058823529412 132.625 C 108.0 131.3 112.58823529411765 122.55500000000002 114.11764705882354 120.70000000000002 C 115.64705882352942 118.84500000000001 120.23529411764706 122.82000000000002 121.76470588235294 114.07500000000002 C 123.29411764705883 105.33000000000001 127.88235294117646 42.6575 129.41176470588235 33.25 C 130.94117647058823 23.842499999999998 135.52941176470588 20.6625 137.05882352941177 20.0 C 138.58823529411765 19.3375 143.17647058823528 23.975 144.70588235294116 26.625 C 146.23529411764704 29.275 150.8235294117647 43.1875 152.35294117647058 46.5 C 153.88235294117646 49.8125 158.47058823529412 58.425 160.0 59.75 C 161.52941176470588 61.075 166.11764705882354 59.75 167.64705882352942 59.75 C 169.1764705882353 59.75 173.76470588235296 58.690000000000005 175.29411764705884 59.75 C 176.82352941176472 60.809999999999995 181.41176470588235 69.81999999999996 182.94117647058823 70.34999999999997 C 184.47058823529412 70.87999999999997 189.05882352941177 66.10999999999999 190.58823529411765 65.04999999999998 C 192.11764705882354 63.98999999999999 196.7058823529412 58.955 198.23529411764707 59.75 C 199.76470588235296 60.545 204.3529411764706 73.0 205.8823529411765 73.0 C 207.41176470588238 73.0 212.0 59.75 213.52941176470588 59.75 C 215.05882352941177 59.75 219.64705882352942 71.0125 221.1764705882353 73.0 C 222.7058823529412 74.9875 227.2941176470588 80.685 228.8235294117647 79.625 C 230.35294117647058 78.565 234.94117647058823 61.73750000000005 236.47058823529412 62.40000000000005 C 238.0 63.06250000000005 242.58823529411762 83.6 244.1176470588235 86.25 C 245.6470588235294 88.9 250.23529411764704 88.50250000000004 251.76470588235293 88.90000000000003 C 253.2941176470588 89.29750000000003 257.88235294117646 89.16499999999996 259.4117647058823 90.22499999999997 C 260.9411764705882 91.28499999999997 265.52941176470586 97.645 267.05882352941177 99.5 C 268.5882352941177 101.355 273.17647058823525 108.37750000000004 274.70588235294116 108.77500000000003 C 276.2352941176471 109.17250000000003 280.82352941176475 105.46249999999996 282.3529411764706 103.47499999999997 C 283.88235294117646 101.48749999999997 289.2352941176471 90.35750000000003 290 88.90000000000003" fill="none" stroke="black" clip-path="url(#clip-0)"></path></svg>