<svg width="300" height="200" version="1.1" xmlns="http://www.w3.org/2000/svg" xmlns:xlink="http://www.w3.org/1999/xlink"> <rect width="300" height="200" x="0" y="0" fill="white"></rect> <line x1="30.0" x2="30.0" y1="179" y2="183" stroke="black"></line> <line x1="30.0" x2="30.0" y1="20" y2="179" stroke="#e0e0e0" opacity="nil"></line> <text y="193" x="30.0" fill="black" font-size="12" text-anchor="middle" font-family="sans-serif"> 0</text> <line x1="45.294117647058826" x2="45.294117647058826" y1="179" y2="181" stroke="black"></line> <line x1="45.294117647058826" x2="45.294117647058826" y1="20" y2="179" stroke="#e0e0e0" opacity="nil"></line> <line x1="60.588235294117645" x2="60.588235294117645" y1="179" y2="181" stroke="black"></line> <line x1="60.588235294117645" x2="60.588235294117645" y1="20" y2="179" stroke="#e0e0e0" opacity="nil"></line> <line x1="75.88235294117646" x2="75.88235294117646" y1="179" y2="181" stroke="black"></line> <line x1="75.88235294117646" x2="75.88235294117646" y1="20" y2="179" stroke="#e0e0e0" opacity="nil"></line> <line x1="91.17647058823529" x2="91.17647058823529" y1="179" y2="181" stroke="black"></line> <line x1="91.17647058823529" x2="91.17647058823529" y1="20" y2="179" stroke="#e0e0e0" opacity="nil"></line> <line x1="106.47058823529412" x2="106.47058823529412" y1="179" y2="183" stroke="black"></line> <line x1="106.47058823529412" x2="106.47058823529412" y1="20" y2="179" stroke="#e0e0e0" opacity="nil"></line> <text y="193" x="106.47058823529412" fill="black" font-size="12" text-anchor="middle" font-family="sans-serif"> 10</text> <line x1="121.76470588235294" x2="121.76470588235294" y1="179" y2="181" stroke="black"></line> <line x1="121.76470588235294" x2="121.76470588235294" y1="20" y2="179" stroke="#e0e0e0" opacity="nil"></line> <line x1="137.05882352941177" x2="137.05882352941177" y1="179" y2="181" stroke="black"></line> <line x1="137.05882352941177" x2="137.05882352941177" y1="20" y2="179" stroke="#e0e0e0" opacity="nil"></line> <line x1="152.35294117647058" x2="152.35294117647058" y1="179" y2="181" stroke="black"></line> <line x1="152.35294117647058" x2="152.35294117647058" y1="20" y2="179" stroke="#e0e0e0" opacity="nil"></line> <line x1="167.64705882352942" x2="167.64705882352942" y1="179" y2="181" stroke="black"></line> <line x1="167.64705882352942" x2="167.64705882352942" y1="20" y2="179" stroke="#e0e0e0" opacity="nil"></line> <line x1="182.94117647058823" x2="182.94117647058823" y1="179" y2="183" stroke="black"></line> <line x1="182.94117647058823" x2="182.94117647058823" y1="20" y2="179" stroke="#e0e0e0" opacity="nil"></line> <text y="193" x="182.94117647058823" fill="black" font-size="12" text-anchor="middle" font-family="sans-serif"> 20</text> <line x1="198.23529411764707" x2="198.23529411764707" y1="179" y2="181" stroke="black"></line> <line x1="198.23529411764707" x2="198.23529411764707" y1="20" y2="179" stroke="#e0e0e0" opacity="nil"></line> <line x1="213.52941176470588" x2="213.52941176470588" y1="179" y2="181" stroke="black"></line> <line x1="213.52941176470588" x2="213.52941176470588" y1="20" y2="179" stroke="#e0e0e0" opacity="nil"></line> <line x1="228.8235294117647" x2="228.8235294117647" y1="179" y2="181" stroke="black"></line> <line x1="228.8235294117647" x2="228.8235294117647" y1="20" y2="179" stroke="#e0e0e0" opacity="nil"></line> <line x1="244.1176470588235" x2="244.1176470588235" y1="179" y2="181" stroke="black"></line> <line x1="244.1176470588235" x2="244.1176470588235" y1="20" y2="179" stroke="#e0e0e0" opacity="nil"></line> <line x1="259.4117647058823" x2="259.4117647058823" y1="179" y2="183" stroke="black"></line> <line x1="259.4117647058823" x2="259.4117647058823" y1="20" y2="179" stroke="#e0e0e0" opacity="nil"></line> <text y="193" x="259.4117647058823" fill="black" font-size="12" text-anchor="middle" font-family="sans-serif"> 30</text> <line x1="274.70588235294116" x2="274.70588235294116" y1="179" y2="181" stroke="black"></line> <line x1="274.70588235294116" x2="274.70588235294116" y1="20" y2="179" stroke="#e0e0e0" opacity="nil"></line> <line x1="290.0" x2="290.0" y1="179" y2="181" stroke="black"></line> <line x1="290.0" x2="290.0" y1="20" y2="179" stroke="#e0e0e0" opacity="nil"></line> <line x1="30" x2="27" y1="179.0" y2="179.0" stroke="black"></line> <line x1="30" x2="290" y1="179.0" y2="179.0" opacity="nil" stroke="#e0e0e0"></line> <line x1="30" x2="27" y1="165.75" y2="165.75" stroke="black"></line> <line x1="30" x2="290" y1="165.75" y2="165.75" opacity="nil" stroke="#e0e0e0"></line> <text y="169.75" x="24" fill="black" font-size="12" text-anchor="end" font-family="sans-serif"> 42</text> <line x1="30" x2="27" y1="152.5" y2="152.5" stroke="black"></line> <line x1="30" x2="290" y1="152.5" y2="152.5" opacity="nil" stroke="#e0e0e0"></line> <line x1="30" x2="27" y1="139.25" y2="139.25" stroke="black"></line> <line x1="30" x2="290" y1="139.25" y2="139.25" opacity="nil" stroke="#e0e0e0"></line> <text y="143.25" x="24" fill="black" font-size="12" text-anchor="end" font-family="sans-serif"> 44</text> <line x1="30" x2="27" y1="126.0" y2="126.0" stroke="black"></line> <line x1="30" x2="290" y1="126.0" y2="126.0" opacity="nil" stroke="#e0e0e0"></line> <line x1="30" x2="27" y1="112.75" y2="112.75" stroke="black"></line> <line x1="30" x2="290" y1="112.75" y2="112.75" opacity="nil" stroke="#e0e0e0"></line> <text y="116.75" x="24" fill="black" font-size="12" text-anchor="end" font-family="sans-serif"> 46</text> <line x1="30" x2="27" y1="99.5" y2="99.5" stroke="black"></line> <line x1="30" x2="290" y1="99.5" y2="99.5" opacity="nil" stroke="#e0e0e0"></line> <line x1="30" x2="27" y1="86.25" y2="86.25" stroke="black"></line> <line x1="30" x2="290" y1="86.25" y2="86.25" opacity="nil" stroke="#e0e0e0"></line> <text y="90.25" x="24" fill="black" font-size="12" text-anchor="end" font-family="sans-serif"> 48</text> <line x1="30" x2="27" y1="73.0" y2="73.0" stroke="black"></line> <line x1="30" x2="290" y1="73.0" y2="73.0" opacity="nil" stroke="#e0e0e0"></line> <line x1="30" x2="27" y1="59.75" y2="59.75" stroke="black"></line> <line x1="30" x2="290" y1="59.75" y2="59.75" opacity="nil" stroke="#e0e0e0"></line> <text y="63.75" x="24" fill="black" font-size="12" text-anchor="end" font-family="sans-serif"> 50</text> <line x1="30" x2="27" y1="46.5" y2="46.5" stroke="black"></line> <line x1="30" x2="290" y1="46.5" y2="46.5" opacity="nil" stroke="#e0e0e0"></line> <line x1="30" x2="27" y1="33.25" y2="33.25" stroke="black"></line> <line x1="30" x2="290" y1="33.25" y2="33.25" opacity="nil" stroke="#e0e0e0"></line> <text y="37.25" x="24" fill="black" font-size="12" text-anchor="end" font-family="sans-serif"> 52</text> <line x1="30" x2="27" y1="20.0" y2="20.0" stroke="black"></line> <line x1="30" x2="290" y1="20.0" y2="20.0" opacity="nil" stroke="#e0e0e0"></line> <line x1="30" x2="30" y1="20" y2="184" stroke="black"></line> <line x1="25" x2="290" y1="179" y2="179" stroke="black"></line> <rect width="3" height="3" x="28.5" y="177.5" stroke="black" fill="none"></rect> <rect width="3" height="3" x="36.14705882352941" y="162.92499999999998" stroke="black" fill="none"></rect> <rect width="3" height="3" x="43.794117647058826" y="162.92499999999998" stroke="black" fill="none"></rect> <rect width="3" height="3" x="51.44117647058823" y="136.42499999999998" stroke="black" fill="none"></rect> <rect width="3" height="3" x="59.088235294117645" y="143.04999999999998" stroke="black" fill="none"></rect> <rect width="3" height="3" x="66.73529411764706" y="143.04999999999998" stroke="black" fill="none"></rect> <rect width="3" height="3" x="74.38235294117646" y="152.32500000000002" stroke="black" fill="none"></rect> <rect width="3" height="3" x="82.02941176470588" y="151.0" stroke="black" fill="none"></rect> <rect width="3" height="3" x="89.67647058823529" y="148.34999999999997" stroke="black" fill="none"></rect> <rect width="3" height="3" x="97.32352941176471" y="132.45000000000002" stroke="black" fill="none"></rect> <rect width="3" height="3" x="104.97058823529412" y="131.125" stroke="black" fill="none"></rect> <rect width="3" height="3" x="112.61764705882354" y="119.20000000000002" stroke="black" fill="none"></rect> <rect width="3" height="3" x="120.26470588235294" y="112.57500000000002" stroke="black" fill="none"></rect> <rect width="3" height="3" x="127.91176470588235" y="31.75" stroke="black" fill="none"></rect> <rect width="3" height="3" x="135.55882352941177" y="18.5" stroke="black" fill="none"></rect> <rect width="3" height="3" x="143.20588235294116" y="25.125" stroke="black" fill="none"></rect> <rect width="3" height="3" x="150.85294117647058" y="45.0" stroke="black" fill="none"></rect> <rect width="3" height="3" x="158.5" y="58.25" stroke="black" fill="none"></rect> <rect width="3" height="3" x="166.14705882352942" y="58.25" stroke="black" fill="none"></rect> <rect width="3" height="3" x="173.79411764705884" y="58.25" stroke="black" fill="none"></rect> <rect width="3" height="3" x="181.44117647058823" y="68.84999999999997" stroke="black" fill="none"></rect> <rect width="3" height="3" x="189.08823529411765" y="63.54999999999998" stroke="black" fill="none"></rect> <rect width="3" height="3" x="196.73529411764707" y="58.25" stroke="black" fill="none"></rect> <rect width="3" height="3" x="204.3823529411765" y="71.5" stroke="black" fill="none"></rect> <rect width="3" height="3" x="212.02941176470588" y="58.25" stroke="black" fill="none"></rect> <rect width="3" height="3" x="219.6764705882353" y="71.5" stroke="black" fill="none"></rect> <rect width="3" height="3" x="227.3235294117647" y="78.125" stroke="black" fill="none"></rect> <rect width="3" height="3" x="234.97058823529412" y="60.90000000000005" stroke="black" fill="none"></rect> <rect width="3" height="3" x="242.6176470588235" y="84.75" stroke="black" fill="none"></rect> <rect width="3" height="3" x="250.26470588235293" y="87.40000000000003" stroke="black" fill="none"></rect> <rect width="3" height="3" x="257.9117647058823" y="88.72499999999997" stroke="black" fill="none"></rect> <rect width="3" height="3" x="265.55882352941177" y="98.0" stroke="black" fill="none"></rect> <rect width="3" height="3" x="273.20588235294116" y="107.27500000000003" stroke="black" fill="none"></rect> <rect width="3" height="3" x="280.8529411764706" y="101.97499999999997" stroke="black" fill="none"></rect> <rect width="3" height="3" x="288.5" y="87.40000000000003" stroke="black" fill="none"></rect></svg>