<svg width="300" height="200" version="1.1" xmlns="http://www.w3.org/2000/svg" xmlns:xlink="http://www.w3.org/1999/xlink"> <rect width="300" height="200" x="0" y="0" fill="white"></rect> <line x1="30.0" x2="30.0" y1="179" y2="183" stroke="black"></line> <line x1="30.0" x2="30.0" y1="20" y2="179" stroke="#e0e0e0" opacity="nil"></line> <text y="193" x="30.0" fill="black" font-size="12" text-anchor="middle" font-family="sans-serif"> 0</text> <line x1="48.57142857142857" x2="48.57142857142857" y1="179" y2="181" stroke="black"></line> <line x1="48.57142857142857" x2="48.57142857142857" y1="20" y2="179" stroke="#e0e0e0" opacity="nil"></line> <line x1="67.14285714285714" x2="67.14285714285714" y1="179" y2="183" stroke="black"></line> <line x1="67.14285714285714" x2="67.14285714285714" y1="20" y2="179" stroke="#e0e0e0" opacity="nil"></line> <text y="193" x="67.14285714285714" fill="black" font-size="12" text-anchor="middle" font-family="sans-serif"> 2</text> <line x1="85.71428571428571" x2="85.71428571428571" y1="179" y2="181" stroke="black"></line> <line x1="85.71428571428571" x2="85.71428571428571" y1="20" y2="179" stroke="#e0e0e0" opacity="nil"></line> <line x1="104.28571428571428" x2="104.28571428571428" y1="179" y2="183" stroke="black"></line> <line x1="104.28571428571428" x2="104.28571428571428" y1="20" y2="179" stroke="#e0e0e0" opacity="nil"></line> <text y="193" x="104.28571428571428" fill="black" font-size="12" text-anchor="middle" font-family="sans-serif"> 4</text> <line x1="122.85714285714286" x2="122.85714285714286" y1="179" y2="181" stroke="black"></line> <line x1="122.85714285714286" x2="122.85714285714286" y1="20" y2="179" stroke="#e0e0e0" opacity="nil"></line> <line x1="141.42857142857142" x2="141.42857142857142" y1="179" y2="183" stroke="black"></line> <line x1="141.42857142857142" x2="141.42857142857142" y1="20" y2="179" stroke="#e0e0e0" opacity="nil"></line> <text y="193" x="141.42857142857142" fill="black" font-size="12" text-anchor="middle" font-family="sans-serif"> 6</text> <line x1="160.0" x2="160.0" y1="179" y2="181" stroke="black"></line> <line x1="160.0" x2="160.0" y1="20" y2="179" stroke="#e0e0e0" opacity="nil"></line> <line x1="178.57142857142856" x2="178.57142857142856" y1="179" y2="183" stroke="black"></line> <line x1="178.57142857142856" x2="178.57142857142856" y1="20" y2="179" stroke="#e0e0e0" opacity="nil"></line> <text y="193" x="178.57142857142856" fill="black" font-size="12" text-anchor="middle" font-family="sans-serif"> 8</text> <line x1="197.14285714285717" x2="197.14285714285717" y1="179" y2="181" stroke="black"></line> <line x1="197.14285714285717" x2="197.14285714285717" y1="20" y2="179" stroke="#e0e0e0" opacity="nil"></line> <line x1="215.71428571428572" x2="215.71428571428572" y1="179" y2="183" stroke="black"></line> <line x1="215.71428571428572" x2="215.71428571428572" y1="20" y2="179" stroke="#e0e0e0" opacity="nil"></line> <text y="193" x="215.71428571428572" fill="black" font-size="12" text-anchor="middle" font-family="sans-serif"> 10</text> <line x1="234.28571428571428" x2="234.28571428571428" y1="179" y2="181" stroke="black"></line> <line x1="234.28571428571428" x2="234.28571428571428" y1="20" y2="179" stroke="#e0e0e0" opacity="nil"></line> <line x1="252.85714285714283" x2="252.85714285714283" y1="179" y2="183" stroke="black"></line> <line x1="252.85714285714283" x2="252.85714285714283" y1="20" y2="179" stroke="#e0e0e0" opacity="nil"></line> <text y="193" x="252.85714285714283" fill="black" font-size="12" text-anchor="middle" font-family="sans-serif"> 12</text> <line x1="271.42857142857144" x2="271.42857142857144" y1="179" y2="181" stroke="black"></line> <line x1="271.42857142857144" x2="271.42857142857144" y1="20" y2="179" stroke="#e0e0e0" opacity="nil"></line> <line x1="290.0" x2="290.0" y1="179" y2="183" stroke="black"></line> <line x1="290.0" x2="290.0" y1="20" y2="179" stroke="#e0e0e0" opacity="nil"></line> <text y="193" x="290.0" fill="black" font-size="12" text-anchor="middle" font-family="sans-serif"> 14</text> <line x1="30" x2="27" y1="179.0" y2="179.0" stroke="black"></line> <line x1="30" x2="290" y1="179.0" y2="179.0" opacity="nil" stroke="#e0e0e0"></line> <line x1="30" x2="27" y1="166.76923076923077" y2="166.76923076923077" stroke="black"></line> <line x1="30" x2="290" y1="166.76923076923077" y2="166.76923076923077" opacity="nil" stroke="#e0e0e0"></line> <text y="170.76923076923077" x="24" fill="black" font-size="12" text-anchor="end" font-family="sans-serif"> 0.02</text> <line x1="30" x2="27" y1="154.53846153846155" y2="154.53846153846155" stroke="black"></line> <line x1="30" x2="290" y1="154.53846153846155" y2="154.53846153846155" opacity="nil" stroke="#e0e0e0"></line> <line x1="30" x2="27" y1="142.30769230769232" y2="142.30769230769232" stroke="black"></line> <line x1="30" x2="290" y1="142.30769230769232" y2="142.30769230769232" opacity="nil" stroke="#e0e0e0"></line> <text y="146.30769230769232" x="24" fill="black" font-size="12" text-anchor="end" font-family="sans-serif"> 0.04</text> <line x1="30" x2="27" y1="130.07692307692307" y2="130.07692307692307" stroke="black"></line> <line x1="30" x2="290" y1="130.07692307692307" y2="130.07692307692307" opacity="nil" stroke="#e0e0e0"></line> <line x1="30" x2="27" y1="117.84615384615385" y2="117.84615384615385" stroke="black"></line> <line x1="30" x2="290" y1="117.84615384615385" y2="117.84615384615385" opacity="nil" stroke="#e0e0e0"></line> <text y="121.84615384615385" x="24" fill="black" font-size="12" text-anchor="end" font-family="sans-serif"> 0.06</text> <line x1="30" x2="27" y1="105.61538461538461" y2="105.61538461538461" stroke="black"></line> <line x1="30" x2="290" y1="105.61538461538461" y2="105.61538461538461" opacity="nil" stroke="#e0e0e0"></line> <line x1="30" x2="27" y1="93.38461538461537" y2="93.38461538461537" stroke="black"></line> <line x1="30" x2="290" y1="93.38461538461537" y2="93.38461538461537" opacity="nil" stroke="#e0e0e0"></line> <text y="97.38461538461537" x="24" fill="black" font-size="12" text-anchor="end" font-family="sans-serif"> 0.08</text> <line x1="30" x2="27" y1="81.15384615384615" y2="81.15384615384615" stroke="black"></line> <line x1="30" x2="290" y1="81.15384615384615" y2="81.15384615384615" opacity="nil" stroke="#e0e0e0"></line> <line x1="30" x2="27" y1="68.9230769230769" y2="68.9230769230769" stroke="black"></line> <line x1="30" x2="290" y1="68.9230769230769" y2="68.9230769230769" opacity="nil" stroke="#e0e0e0"></line> <text y="72.9230769230769" x="24" fill="black" font-size="12" text-anchor="end" font-family="sans-serif"> 0.10</text> <line x1="30" x2="27" y1="56.69230769230768" y2="56.69230769230768" stroke="black"></line> <line x1="30" x2="290" y1="56.69230769230768" y2="56.69230769230768" opacity="nil" stroke="#e0e0e0"></line> <line x1="30" x2="27" y1="44.46153846153845" y2="44.46153846153845" stroke="black"></line> <line x1="30" x2="290" y1="44.46153846153845" y2="44.46153846153845" opacity="nil" stroke="#e0e0e0"></line> <text y="48.46153846153845" x="24" fill="black" font-size="12" text-anchor="end" font-family="sans-serif"> 0.12</text> <line x1="30" x2="27" y1="32.230769230769226" y2="32.230769230769226" stroke="black"></line> <line x1="30" x2="290" y1="32.230769230769226" y2="32.230769230769226" opacity="nil" stroke="#e0e0e0"></line> <line x1="30" x2="27" y1="20.0" y2="20.0" stroke="black"></line> <line x1="30" x2="290" y1="20.0" y2="20.0" opacity="nil" stroke="#e0e0e0"></line> <text y="24.0" x="24" fill="black" font-size="12" text-anchor="end" font-family="sans-serif"> 0.14</text> <line x1="30" x2="30" y1="20" y2="184" stroke="black"></line> <line x1="25" x2="290" y1="179" y2="179" stroke="black"></line> <line x1="30" x2="48.57142857142857" y1="179.0" y2="142.30769230769232" stroke="black"></line> <line x1="48.57142857142857" x2="67.14285714285714" y1="142.30769230769232" y2="142.30769230769232" stroke="black"></line> <line x1="67.14285714285714" x2="85.71428571428571" y1="142.30769230769232" y2="154.53846153846155" stroke="black"></line> <line x1="85.71428571428571" x2="104.28571428571428" y1="154.53846153846155" y2="130.07692307692307" stroke="black"></line> <line x1="104.28571428571428" x2="122.85714285714286" y1="130.07692307692307" y2="105.61538461538461" stroke="black"></line> <line x1="122.85714285714286" x2="141.42857142857142" y1="105.61538461538461" y2="93.38461538461537" stroke="black"></line> <line x1="141.42857142857142" x2="160.0" y1="93.38461538461537" y2="68.9230769230769" stroke="black"></line> <line x1="160.0" x2="178.57142857142856" y1="68.9230769230769" y2="56.69230769230768" stroke="black"></line> <line x1="178.57142857142856" x2="197.14285714285717" y1="56.69230769230768" y2="105.61538461538461" stroke="black"></line> <line x1="197.14285714285717" x2="215.71428571428572" y1="105.61538461538461" y2="93.38461538461537" stroke="black"></line> <line x1="215.71428571428572" x2="234.28571428571428" y1="93.38461538461537" y2="68.9230769230769" stroke="black"></line> <line x1="234.28571428571428" x2="252.85714285714283" y1="68.9230769230769" y2="56.69230769230768" stroke="black"></line> <line x1="252.85714285714283" x2="271.42857142857144" y1="56.69230769230768" y2="20.0" stroke="black"></line> <line x1="271.42857142857144" x2="290" y1="20.0" y2="105.61538461538461" stroke="black"></line></svg>