<svg width="300" height="200" version="1.1" xmlns="http://www.w3.org/2000/svg" xmlns:xlink="http://www.w3.org/1999/xlink"> <rect width="300" height="200" x="0" y="0" fill="white"></rect> <line x1="30.0" x2="30.0" y1="179" y2="183" stroke="black"></line> <line x1="30.0" x2="30.0" y1="20" y2="179" stroke="#e0e0e0" opacity="nil"></line> <text y="193" x="30.0" fill="black" font-size="12" text-anchor="middle" font-family="sans-serif"> 0</text> <line x1="45.294117647058826" x2="45.294117647058826" y1="179" y2="181" stroke="black"></line> <line x1="45.294117647058826" x2="45.294117647058826" y1="20" y2="179" stroke="#e0e0e0" opacity="nil"></line> <line x1="60.588235294117645" x2="60.588235294117645" y1="179" y2="181" stroke="black"></line> <line x1="60.588235294117645" x2="60.588235294117645" y1="20" y2="179" stroke="#e0e0e0" opacity="nil"></line> <line x1="75.88235294117646" x2="75.88235294117646" y1="179" y2="181" stroke="black"></line> <line x1="75.88235294117646" x2="75.88235294117646" y1="20" y2="179" stroke="#e0e0e0" opacity="nil"></line> <line x1="91.17647058823529" x2="91.17647058823529" y1="179" y2="181" stroke="black"></line> <line x1="91.17647058823529" x2="91.17647058823529" y1="20" y2="179" stroke="#e0e0e0" opacity="nil"></line> <line x1="106.47058823529412" x2="106.47058823529412" y1="179" y2="183" stroke="black"></line> <line x1="106.47058823529412" x2="106.47058823529412" y1="20" y2="179" stroke="#e0e0e0" opacity="nil"></line> <text y="193" x="106.47058823529412" fill="black" font-size="12" text-anchor="middle" font-family="sans-serif"> 10</text> <line x1="121.76470588235294" x2="121.76470588235294" y1="179" y2="181" stroke="black"></line> <line x1="121.76470588235294" x2="121.76470588235294" y1="20" y2="179" stroke="#e0e0e0" opacity="nil"></line> <line x1="137.05882352941177" x2="137.05882352941177" y1="179" y2="181" stroke="black"></line> <line x1="137.05882352941177" x2="137.05882352941177" y1="20" y2="179" stroke="#e0e0e0" opacity="nil"></line> <line x1="152.35294117647058" x2="152.35294117647058" y1="179" y2="181" stroke="black"></line> <line x1="152.35294117647058" x2="152.35294117647058" y1="20" y2="179" stroke="#e0e0e0" opacity="nil"></line> <line x1="167.64705882352942" x2="167.64705882352942" y1="179" y2="181" stroke="black"></line> <line x1="167.64705882352942" x2="167.64705882352942" y1="20" y2="179" stroke="#e0e0e0" opacity="nil"></line> <line x1="182.94117647058823" x2="182.94117647058823" y1="179" y2="183" stroke="black"></line> <line x1="182.94117647058823" x2="182.94117647058823" y1="20" y2="179" stroke="#e0e0e0" opacity="nil"></line> <text y="193" x="182.94117647058823" fill="black" font-size="12" text-anchor="middle" font-family="sans-serif"> 20</text> <line x1="198.23529411764707" x2="198.23529411764707" y1="179" y2="181" stroke="black"></line> <line x1="198.23529411764707" x2="198.23529411764707" y1="20" y2="179" stroke="#e0e0e0" opacity="nil"></line> <line x1="213.52941176470588" x2="213.52941176470588" y1="179" y2="181" stroke="black"></line> <line x1="213.52941176470588" x2="213.52941176470588" y1="20" y2="179" stroke="#e0e0e0" opacity="nil"></line> <line x1="228.8235294117647" x2="228.8235294117647" y1="179" y2="181" stroke="black"></line> <line x1="228.8235294117647" x2="228.8235294117647" y1="20" y2="179" stroke="#e0e0e0" opacity="nil"></line> <line x1="244.1176470588235" x2="244.1176470588235" y1="179" y2="181" stroke="black"></line> <line x1="244.1176470588235" x2="244.1176470588235" y1="20" y2="179" stroke="#e0e0e0" opacity="nil"></line> <line x1="259.4117647058823" x2="259.4117647058823" y1="179" y2="183" stroke="black"></line> <line x1="259.4117647058823" x2="259.4117647058823" y1="20" y2="179" stroke="#e0e0e0" opacity="nil"></line> <text y="193" x="259.4117647058823" fill="black" font-size="12" text-anchor="middle" font-family="sans-serif"> 30</text> <line x1="274.70588235294116" x2="274.70588235294116" y1="179" y2="181" stroke="black"></line> <line x1="274.70588235294116" x2="274.70588235294116" y1="20" y2="179" stroke="#e0e0e0" opacity="nil"></line> <line x1="290.0" x2="290.0" y1="179" y2="181" stroke="black"></line> <line x1="290.0" x2="290.0" y1="20" y2="179" stroke="#e0e0e0" opacity="nil"></line> <line x1="30" x2="27" y1="179.0" y2="179.0" stroke="black"></line> <line x1="30" x2="290" y1="179.0" y2="179.0" opacity="nil" stroke="#e0e0e0"></line> <line x1="30" x2="27" y1="165.75" y2="165.75" stroke="black"></line> <line x1="30" x2="290" y1="165.75" y2="165.75" opacity="nil" stroke="#e0e0e0"></line> <text y="169.75" x="24" fill="black" font-size="12" text-anchor="end" font-family="sans-serif"> 42</text> <line x1="30" x2="27" y1="152.5" y2="152.5" stroke="black"></line> <line x1="30" x2="290" y1="152.5" y2="152.5" opacity="nil" stroke="#e0e0e0"></line> <line x1="30" x2="27" y1="139.25" y2="139.25" stroke="black"></line> <line x1="30" x2="290" y1="139.25" y2="139.25" opacity="nil" stroke="#e0e0e0"></line> <text y="143.25" x="24" fill="black" font-size="12" text-anchor="end" font-family="sans-serif"> 44</text> <line x1="30" x2="27" y1="126.0" y2="126.0" stroke="black"></line> <line x1="30" x2="290" y1="126.0" y2="126.0" opacity="nil" stroke="#e0e0e0"></line> <line x1="30" x2="27" y1="112.75" y2="112.75" stroke="black"></line> <line x1="30" x2="290" y1="112.75" y2="112.75" opacity="nil" stroke="#e0e0e0"></line> <text y="116.75" x="24" fill="black" font-size="12" text-anchor="end" font-family="sans-serif"> 46</text> <line x1="30" x2="27" y1="99.5" y2="99.5" stroke="black"></line> <line x1="30" x2="290" y1="99.5" y2="99.5" opacity="nil" stroke="#e0e0e0"></line> <line x1="30" x2="27" y1="86.25" y2="86.25" stroke="black"></line> <line x1="30" x2="290" y1="86.25" y2="86.25" opacity="nil" stroke="#e0e0e0"></line> <text y="90.25" x="24" fill="black" font-size="12" text-anchor="end" font-family="sans-serif"> 48</text> <line x1="30" x2="27" y1="73.0" y2="73.0" stroke="black"></line> <line x1="30" x2="290" y1="73.0" y2="73.0" opacity="nil" stroke="#e0e0e0"></line> <line x1="30" x2="27" y1="59.75" y2="59.75" stroke="black"></line> <line x1="30" x2="290" y1="59.75" y2="59.75" opacity="nil" stroke="#e0e0e0"></line> <text y="63.75" x="24" fill="black" font-size="12" text-anchor="end" font-family="sans-serif"> 50</text> <line x1="30" x2="27" y1="46.5" y2="46.5" stroke="black"></line> <line x1="30" x2="290" y1="46.5" y2="46.5" opacity="nil" stroke="#e0e0e0"></line> <line x1="30" x2="27" y1="33.25" y2="33.25" stroke="black"></line> <line x1="30" x2="290" y1="33.25" y2="33.25" opacity="nil" stroke="#e0e0e0"></line> <text y="37.25" x="24" fill="black" font-size="12" text-anchor="end" font-family="sans-serif"> 52</text> <line x1="30" x2="27" y1="20.0" y2="20.0" stroke="black"></line> <line x1="30" x2="290" y1="20.0" y2="20.0" opacity="nil" stroke="#e0e0e0"></line> <line x1="30" x2="30" y1="20" y2="184" stroke="black"></line> <line x1="25" x2="290" y1="179" y2="179" stroke="black"></line> <rect width="7" height="7" x="26.5" y="175.5" stroke="green" fill="none"></rect> <rect width="7" height="7" x="34.14705882352941" y="160.92499999999998" stroke="green" fill="none"></rect> <rect width="7" height="7" x="41.794117647058826" y="160.92499999999998" stroke="green" fill="none"></rect> <rect width="7" height="7" x="49.44117647058823" y="134.42499999999998" stroke="green" fill="none"></rect> <rect width="7" height="7" x="57.088235294117645" y="141.04999999999998" stroke="green" fill="none"></rect> <rect width="7" height="7" x="64.73529411764706" y="141.04999999999998" stroke="green" fill="none"></rect> <rect width="7" height="7" x="72.38235294117646" y="150.32500000000002" stroke="green" fill="none"></rect> <rect width="7" height="7" x="80.02941176470588" y="149.0" stroke="green" fill="none"></rect> <rect width="7" height="7" x="87.67647058823529" y="146.34999999999997" stroke="green" fill="none"></rect> <rect width="7" height="7" x="95.32352941176471" y="130.45000000000002" stroke="green" fill="none"></rect> <rect width="7" height="7" x="102.97058823529412" y="129.125" stroke="green" fill="none"></rect> <rect width="7" height="7" x="110.61764705882354" y="117.20000000000002" stroke="green" fill="none"></rect> <rect width="7" height="7" x="118.26470588235294" y="110.57500000000002" stroke="green" fill="none"></rect> <rect width="7" height="7" x="125.91176470588235" y="29.75" stroke="green" fill="none"></rect> <rect width="7" height="7" x="133.55882352941177" y="16.5" stroke="green" fill="none"></rect> <rect width="7" height="7" x="141.20588235294116" y="23.125" stroke="green" fill="none"></rect> <rect width="7" height="7" x="148.85294117647058" y="43.0" stroke="green" fill="none"></rect> <rect width="7" height="7" x="156.5" y="56.25" stroke="green" fill="none"></rect> <rect width="7" height="7" x="164.14705882352942" y="56.25" stroke="green" fill="none"></rect> <rect width="7" height="7" x="171.79411764705884" y="56.25" stroke="green" fill="none"></rect> <rect width="7" height="7" x="179.44117647058823" y="66.84999999999997" stroke="green" fill="none"></rect> <rect width="7" height="7" x="187.08823529411765" y="61.54999999999998" stroke="green" fill="none"></rect> <rect width="7" height="7" x="194.73529411764707" y="56.25" stroke="green" fill="none"></rect> <rect width="7" height="7" x="202.3823529411765" y="69.5" stroke="green" fill="none"></rect> <rect width="7" height="7" x="210.02941176470588" y="56.25" stroke="green" fill="none"></rect> <rect width="7" height="7" x="217.6764705882353" y="69.5" stroke="green" fill="none"></rect> <rect width="7" height="7" x="225.3235294117647" y="76.125" stroke="green" fill="none"></rect> <rect width="7" height="7" x="232.97058823529412" y="58.90000000000005" stroke="green" fill="none"></rect> <rect width="7" height="7" x="240.6176470588235" y="82.75" stroke="green" fill="none"></rect> <rect width="7" height="7" x="248.26470588235293" y="85.40000000000003" stroke="green" fill="none"></rect> <rect width="7" height="7" x="255.91176470588232" y="86.72499999999997" stroke="green" fill="none"></rect> <rect width="7" height="7" x="263.55882352941177" y="96.0" stroke="green" fill="none"></rect> <rect width="7" height="7" x="271.20588235294116" y="105.27500000000003" stroke="green" fill="none"></rect> <rect width="7" height="7" x="278.8529411764706" y="99.97499999999997" stroke="green" fill="none"></rect> <rect width="7" height="7" x="286.5" y="85.40000000000003" stroke="green" fill="none"></rect></svg>