<svg width="728" height="450" version="1.1" xmlns="http://www.w3.org/2000/svg" xmlns:xlink="http://www.w3.org/1999/xlink"> <rect width="728" height="450" x="0" y="0" fill="white"></rect> <text y="432" x="389" fill="black" font-size="12" font-weight="bold" text-anchor="middle" font-family="sans-serif"> Country</text> <text transform="translate(25,215) rotate(-90)" fill="black" font-size="12" font-weight="bold" text-anchor="middle" font-family="sans-serif"> Units_Sold</text> <clipPath id="clip-0"> <rect x="70" y="40" width="638" height="350"></rect></clipPath> <rect width="63.0" height="295.61" x="77.0" y="94.38999999999999" fill="#e6194b" clip-path="url(#clip-0)"></rect> <rect width="63.0" height="105.63" x="147.88888888888889" y="284.37" fill="#3cb44b" clip-path="url(#clip-0)"></rect> <rect width="63.0" height="53.09500000000003" x="218.77777777777777" y="336.905" fill="#ffe119" clip-path="url(#clip-0)"></rect> <rect width="63.0" height="116.26999999999998" x="289.66666666666663" y="273.73" fill="#4363d8" clip-path="url(#clip-0)"></rect> <rect width="63.0" height="344.575" x="360.55555555555554" y="45.42500000000001" fill="#f58231" clip-path="url(#clip-0)"></rect> <rect width="63.0" height="333.48" x="431.44444444444446" y="56.51999999999998" fill="#911eb4" clip-path="url(#clip-0)"></rect> <rect width="63.0" height="99.53999999999996" x="502.33333333333326" y="290.46000000000004" fill="#46f0f0" clip-path="url(#clip-0)"></rect> <rect width="63.0" height="255.465" x="573.2222222222222" y="134.535" fill="#f032e6" clip-path="url(#clip-0)"></rect> <rect width="63.0" height="84.98000000000002" x="644.1111111111111" y="305.02" fill="#bcf60c" clip-path="url(#clip-0)"></rect> <text y="407" x="108.5" fill="black" font-weight="bold" font-size="12" text-anchor="middle" font-family="sans-serif"> Libya</text> <text y="407" x="179.38888888888889" fill="black" font-weight="bold" font-size="12" text-anchor="middle" font-family="sans-serif"> Canada</text> <text y="407" x="250.27777777777777" fill="black" font-weight="bold" font-size="12" text-anchor="middle" font-family="sans-serif"> Libya</text> <text y="407" x="321.16666666666663" fill="black" font-weight="bold" font-size="12" text-anchor="middle" font-family="sans-serif"> Japan</text> <text y="407" x="392.05555555555554" fill="black" font-weight="bold" font-size="12" text-anchor="middle" font-family="sans-serif"> Chad</text> <text y="407" x="462.94444444444446" fill="black" font-weight="bold" font-size="12" text-anchor="middle" font-family="sans-serif"> Armenia</text> <text y="407" x="533.8333333333333" fill="black" font-weight="bold" font-size="12" text-anchor="middle" font-family="sans-serif"> Eritrea</text> <text y="407" x="604.7222222222222" fill="black" font-weight="bold" font-size="12" text-anchor="middle" font-family="sans-serif"> Montenegro</text> <text y="407" x="675.6111111111111" fill="black" font-weight="bold" font-size="12" text-anchor="middle" font-family="sans-serif"> Jamaica</text> <line x1="70" x2="67" y1="390.0" y2="390.0" stroke="black"></line> <line x1="70" x2="708" y1="390.0" y2="390.0" opacity="0.2" stroke="#a0a0a0"></line> <text y="394.0" x="64" fill="black" font-size="12" text-anchor="end" font-family="sans-serif"> 0</text> <line x1="70" x2="67" y1="372.5" y2="372.5" stroke="black"></line> <line x1="70" x2="708" y1="372.5" y2="372.5" opacity="0.2" stroke="#a0a0a0"></line> <line x1="70" x2="67" y1="355.0" y2="355.0" stroke="black"></line> <line x1="70" x2="708" y1="355.0" y2="355.0" opacity="0.2" stroke="#a0a0a0"></line> <text y="359.0" x="64" fill="black" font-size="12" text-anchor="end" font-family="sans-serif"> 1000</text> <line x1="70" x2="67" y1="337.5" y2="337.5" stroke="black"></line> <line x1="70" x2="708" y1="337.5" y2="337.5" opacity="0.2" stroke="#a0a0a0"></line> <line x1="70" x2="67" y1="320.0" y2="320.0" stroke="black"></line> <line x1="70" x2="708" y1="320.0" y2="320.0" opacity="0.2" stroke="#a0a0a0"></line> <text y="324.0" x="64" fill="black" font-size="12" text-anchor="end" font-family="sans-serif"> 2000</text> <line x1="70" x2="67" y1="302.5" y2="302.5" stroke="black"></line> <line x1="70" x2="708" y1="302.5" y2="302.5" opacity="0.2" stroke="#a0a0a0"></line> <line x1="70" x2="67" y1="285.0" y2="285.0" stroke="black"></line> <line x1="70" x2="708" y1="285.0" y2="285.0" opacity="0.2" stroke="#a0a0a0"></line> <text y="289.0" x="64" fill="black" font-size="12" text-anchor="end" font-family="sans-serif"> 3000</text> <line x1="70" x2="67" y1="267.5" y2="267.5" stroke="black"></line> <line x1="70" x2="708" y1="267.5" y2="267.5" opacity="0.2" stroke="#a0a0a0"></line> <line x1="70" x2="67" y1="250.0" y2="250.0" stroke="black"></line> <line x1="70" x2="708" y1="250.0" y2="250.0" opacity="0.2" stroke="#a0a0a0"></line> <text y="254.0" x="64" fill="black" font-size="12" text-anchor="end" font-family="sans-serif"> 4000</text> <line x1="70" x2="67" y1="232.5" y2="232.5" stroke="black"></line> <line x1="70" x2="708" y1="232.5" y2="232.5" opacity="0.2" stroke="#a0a0a0"></line> <line x1="70" x2="67" y1="215.0" y2="215.0" stroke="black"></line> <line x1="70" x2="708" y1="215.0" y2="215.0" opacity="0.2" stroke="#a0a0a0"></line> <text y="219.0" x="64" fill="black" font-size="12" text-anchor="end" font-family="sans-serif"> 5000</text> <line x1="70" x2="67" y1="197.49999999999997" y2="197.49999999999997" stroke="black"></line> <line x1="70" x2="708" y1="197.49999999999997" y2="197.49999999999997" opacity="0.2" stroke="#a0a0a0"></line> <line x1="70" x2="67" y1="180.0" y2="180.0" stroke="black"></line> <line x1="70" x2="708" y1="180.0" y2="180.0" opacity="0.2" stroke="#a0a0a0"></line> <text y="184.0" x="64" fill="black" font-size="12" text-anchor="end" font-family="sans-serif"> 6000</text> <line x1="70" x2="67" y1="162.5" y2="162.5" stroke="black"></line> <line x1="70" x2="708" y1="162.5" y2="162.5" opacity="0.2" stroke="#a0a0a0"></line> <line x1="70" x2="67" y1="145.00000000000003" y2="145.00000000000003" stroke="black"></line> <line x1="70" x2="708" y1="145.00000000000003" y2="145.00000000000003" opacity="0.2" stroke="#a0a0a0"></line> <text y="149.00000000000003" x="64" fill="black" font-size="12" text-anchor="end" font-family="sans-serif"> 7000</text> <line x1="70" x2="67" y1="127.5" y2="127.5" stroke="black"></line> <line x1="70" x2="708" y1="127.5" y2="127.5" opacity="0.2" stroke="#a0a0a0"></line> <line x1="70" x2="67" y1="110.0" y2="110.0" stroke="black"></line> <line x1="70" x2="708" y1="110.0" y2="110.0" opacity="0.2" stroke="#a0a0a0"></line> <text y="114.0" x="64" fill="black" font-size="12" text-anchor="end" font-family="sans-serif"> 8000</text> <line x1="70" x2="67" y1="92.5" y2="92.5" stroke="black"></line> <line x1="70" x2="708" y1="92.5" y2="92.5" opacity="0.2" stroke="#a0a0a0"></line> <line x1="70" x2="67" y1="75.0" y2="75.0" stroke="black"></line> <line x1="70" x2="708" y1="75.0" y2="75.0" opacity="0.2" stroke="#a0a0a0"></line> <text y="79.0" x="64" fill="black" font-size="12" text-anchor="end" font-family="sans-serif"> 9000</text> <line x1="70" x2="67" y1="57.5" y2="57.5" stroke="black"></line> <line x1="70" x2="708" y1="57.5" y2="57.5" opacity="0.2" stroke="#a0a0a0"></line> <line x1="70" x2="67" y1="40.0" y2="40.0" stroke="black"></line> <line x1="70" x2="708" y1="40.0" y2="40.0" opacity="0.2" stroke="#a0a0a0"></line> <text y="44.0" x="64" fill="black" font-size="12" text-anchor="end" font-family="sans-serif"> 10000</text> <line x1="70" x2="70" y1="40" y2="395" stroke="black"></line> <line x1="65" x2="708" y1="390" y2="390" stroke="black"></line></svg>