<svg width="200" height="150" version="1.1" xmlns="http://www.w3.org/2000/svg" xmlns:xlink="http://www.w3.org/1999/xlink"> <rect width="200" height="150" x="0" y="0" fill="white"></rect> <line x1="62.333333333333336" x2="62.333333333333336" y1="129" y2="133" stroke="black"></line> <line x1="62.333333333333336" x2="62.333333333333336" y1="20" y2="129" stroke="#e0e0e0" opacity="nil"></line> <text y="143" x="62.333333333333336" fill="black" font-size="12" text-anchor="middle" font-family="sans-serif"> 2009-01-05</text> <line x1="118.33333333333334" x2="118.33333333333334" y1="129" y2="131" stroke="black"></line> <line x1="118.33333333333334" x2="118.33333333333334" y1="20" y2="129" stroke="#e0e0e0" opacity="nil"></line> <line x1="174.33333333333334" x2="174.33333333333334" y1="129" y2="133" stroke="black"></line> <line x1="174.33333333333334" x2="174.33333333333334" y1="20" y2="129" stroke="#e0e0e0" opacity="nil"></line> <text y="143" x="174.33333333333334" fill="black" font-size="12" text-anchor="middle" font-family="sans-serif"> 2009-01-19</text> <line x1="30" x2="27" y1="129.0" y2="129.0" stroke="black"></line> <line x1="30" x2="190" y1="129.0" y2="129.0" opacity="nil" stroke="#e0e0e0"></line> <text y="133.0" x="24" fill="black" font-size="12" text-anchor="end" font-family="sans-serif"> 140</text> <line x1="30" x2="27" y1="108.03846153846153" y2="108.03846153846153" stroke="black"></line> <line x1="30" x2="190" y1="108.03846153846153" y2="108.03846153846153" opacity="nil" stroke="#e0e0e0"></line> <text y="112.03846153846153" x="24" fill="black" font-size="12" text-anchor="end" font-family="sans-serif"> 145</text> <line x1="30" x2="27" y1="87.07692307692307" y2="87.07692307692307" stroke="black"></line> <line x1="30" x2="190" y1="87.07692307692307" y2="87.07692307692307" opacity="nil" stroke="#e0e0e0"></line> <text y="91.07692307692307" x="24" fill="black" font-size="12" text-anchor="end" font-family="sans-serif"> 150</text> <line x1="30" x2="27" y1="66.11538461538461" y2="66.11538461538461" stroke="black"></line> <line x1="30" x2="190" y1="66.11538461538461" y2="66.11538461538461" opacity="nil" stroke="#e0e0e0"></line> <text y="70.11538461538461" x="24" fill="black" font-size="12" text-anchor="end" font-family="sans-serif"> 155</text> <line x1="30" x2="27" y1="45.153846153846146" y2="45.153846153846146" stroke="black"></line> <line x1="30" x2="190" y1="45.153846153846146" y2="45.153846153846146" opacity="nil" stroke="#e0e0e0"></line> <text y="49.153846153846146" x="24" fill="black" font-size="12" text-anchor="end" font-family="sans-serif"> 160</text> <line x1="30" x2="27" y1="24.192307692307693" y2="24.192307692307693" stroke="black"></line> <line x1="30" x2="190" y1="24.192307692307693" y2="24.192307692307693" opacity="nil" stroke="#e0e0e0"></line> <text y="28.192307692307693" x="24" fill="black" font-size="12" text-anchor="end" font-family="sans-serif"> 165</text> <line x1="30" x2="30" y1="20" y2="134" stroke="black"></line> <line x1="25" x2="190" y1="129" y2="129" stroke="black"></line> <clipPath id="clip-0"> <rect x="30" y="20" width="160" height="109"></rect></clipPath> <line x1="30" x2="38.0" y1="57.730769230769226" y2="61.92307692307692" stroke="black" clip-path="url(#clip-0)"></line> <line x1="38.0" x2="46.0" y1="61.92307692307692" y2="78.69230769230768" stroke="black" clip-path="url(#clip-0)"></line> <line x1="46.0" x2="54.0" y1="78.69230769230768" y2="78.69230769230768" stroke="black" clip-path="url(#clip-0)"></line> <line x1="54.0" x2="62.0" y1="78.69230769230768" y2="82.88461538461539" stroke="black" clip-path="url(#clip-0)"></line> <line x1="62.0" x2="70.0" y1="82.88461538461539" y2="40.96153846153845" stroke="black" clip-path="url(#clip-0)"></line> <line x1="70.0" x2="78.0" y1="40.96153846153845" y2="45.153846153846146" stroke="black" clip-path="url(#clip-0)"></line> <line x1="78.0" x2="86.0" y1="45.153846153846146" y2="61.92307692307692" stroke="black" clip-path="url(#clip-0)"></line> <line x1="86.0" x2="94.0" y1="61.92307692307692" y2="87.07692307692307" stroke="black" clip-path="url(#clip-0)"></line> <line x1="94.0" x2="102.0" y1="87.07692307692307" y2="70.30769230769232" stroke="black" clip-path="url(#clip-0)"></line> <line x1="102.0" x2="110.0" y1="70.30769230769232" y2="116.42307692307692" stroke="black" clip-path="url(#clip-0)"></line> <line x1="110.0" x2="118.0" y1="116.42307692307692" y2="82.88461538461539" stroke="black" clip-path="url(#clip-0)"></line> <line x1="118.0" x2="126.0" y1="82.88461538461539" y2="66.11538461538461" stroke="black" clip-path="url(#clip-0)"></line> <line x1="126.0" x2="134.0" y1="66.11538461538461" y2="36.769230769230774" stroke="black" clip-path="url(#clip-0)"></line> <line x1="134.0" x2="142.0" y1="36.769230769230774" y2="20.0" stroke="black" clip-path="url(#clip-0)"></line> <line x1="142.0" x2="150.0" y1="20.0" y2="87.07692307692307" stroke="black" clip-path="url(#clip-0)"></line> <line x1="150.0" x2="158.0" y1="87.07692307692307" y2="82.88461538461539" stroke="black" clip-path="url(#clip-0)"></line> <line x1="158.0" x2="166.0" y1="82.88461538461539" y2="74.5" stroke="black" clip-path="url(#clip-0)"></line> <line x1="166.0" x2="174.0" y1="74.5" y2="74.5" stroke="black" clip-path="url(#clip-0)"></line> <line x1="174.0" x2="182.0" y1="74.5" y2="95.46153846153845" stroke="black" clip-path="url(#clip-0)"></line> <line x1="182.0" x2="190" y1="95.46153846153845" y2="91.26923076923077" stroke="black" clip-path="url(#clip-0)"></line></svg>