<svg width="200" height="150" version="1.1" xmlns="http://www.w3.org/2000/svg" xmlns:xlink="http://www.w3.org/1999/xlink"> <rect width="200" height="150" x="0" y="0" fill="white"></rect> <line x1="62.8" x2="62.8" y1="129" y2="133" stroke="black"></line> <line x1="62.8" x2="62.8" y1="20" y2="129" stroke="#e0e0e0" opacity="1"></line> <text y="143" x="62.8" fill="black" font-weight="normal" font-size="12" text-anchor="middle" font-family="sans-serif"> 2009-01-05</text> <line x1="118.45" x2="118.45" y1="129" y2="131" stroke="black"></line> <line x1="118.45" x2="118.45" y1="20" y2="129" stroke="#e0e0e0" opacity="1"></line> <line x1="174.1" x2="174.1" y1="129" y2="133" stroke="black"></line> <line x1="174.1" x2="174.1" y1="20" y2="129" stroke="#e0e0e0" opacity="1"></line> <text y="143" x="174.1" fill="black" font-weight="normal" font-size="12" text-anchor="middle" font-family="sans-serif"> 2009-01-19</text> <line x1="31" x2="28" y1="129.0" y2="129.0" stroke="black"></line> <line x1="31" x2="190" y1="129.0" y2="129.0" opacity="1" stroke="#e0e0e0"></line> <text y="133.0" x="25" fill="black" font-size="12" text-anchor="end" font-family="sans-serif"> 140</text> <line x1="31" x2="28" y1="110.83333333333334" y2="110.83333333333334" stroke="black"></line> <line x1="31" x2="190" y1="110.83333333333334" y2="110.83333333333334" opacity="1" stroke="#e0e0e0"></line> <line x1="31" x2="28" y1="92.66666666666667" y2="92.66666666666667" stroke="black"></line> <line x1="31" x2="190" y1="92.66666666666667" y2="92.66666666666667" opacity="1" stroke="#e0e0e0"></line> <text y="96.66666666666667" x="25" fill="black" font-size="12" text-anchor="end" font-family="sans-serif"> 150</text> <line x1="31" x2="28" y1="74.5" y2="74.5" stroke="black"></line> <line x1="31" x2="190" y1="74.5" y2="74.5" opacity="1" stroke="#e0e0e0"></line> <line x1="31" x2="28" y1="56.33333333333334" y2="56.33333333333334" stroke="black"></line> <line x1="31" x2="190" y1="56.33333333333334" y2="56.33333333333334" opacity="1" stroke="#e0e0e0"></line> <text y="60.33333333333334" x="25" fill="black" font-size="12" text-anchor="end" font-family="sans-serif"> 160</text> <line x1="31" x2="28" y1="38.16666666666666" y2="38.16666666666666" stroke="black"></line> <line x1="31" x2="190" y1="38.16666666666666" y2="38.16666666666666" opacity="1" stroke="#e0e0e0"></line> <line x1="31" x2="28" y1="20.0" y2="20.0" stroke="black"></line> <line x1="31" x2="190" y1="20.0" y2="20.0" opacity="1" stroke="#e0e0e0"></line> <text y="24.0" x="25" fill="black" font-size="12" text-anchor="end" font-family="sans-serif"> 170</text> <line x1="31" x2="31" y1="20" y2="134" stroke="black"></line> <line x1="26" x2="190" y1="129" y2="129" stroke="black"></line> <clipPath id="clip-0"> <rect x="31" y="20" width="159" height="109"></rect></clipPath> <line x1="31" x2="38.95" y1="67.23333333333333" y2="70.86666666666667" stroke="black" clip-path="url(#clip-0)" stroke-width="1"></line> <line x1="38.95" x2="46.9" y1="70.86666666666667" y2="85.4" stroke="black" clip-path="url(#clip-0)" stroke-width="1"></line> <line x1="46.9" x2="54.849999999999994" y1="85.4" y2="85.4" stroke="black" clip-path="url(#clip-0)" stroke-width="1"></line> <line x1="54.849999999999994" x2="62.8" y1="85.4" y2="89.03333333333333" stroke="black" clip-path="url(#clip-0)" stroke-width="1"></line> <line x1="62.8" x2="70.75" y1="89.03333333333333" y2="52.7" stroke="black" clip-path="url(#clip-0)" stroke-width="1"></line> <line x1="70.75" x2="78.69999999999999" y1="52.7" y2="56.33333333333334" stroke="black" clip-path="url(#clip-0)" stroke-width="1"></line> <line x1="78.69999999999999" x2="86.65" y1="56.33333333333334" y2="70.86666666666667" stroke="black" clip-path="url(#clip-0)" stroke-width="1"></line> <line x1="86.65" x2="94.6" y1="70.86666666666667" y2="92.66666666666667" stroke="black" clip-path="url(#clip-0)" stroke-width="1"></line> <line x1="94.6" x2="102.55" y1="92.66666666666667" y2="78.13333333333333" stroke="black" clip-path="url(#clip-0)" stroke-width="1"></line> <line x1="102.55" x2="110.5" y1="78.13333333333333" y2="118.1" stroke="black" clip-path="url(#clip-0)" stroke-width="1"></line> <line x1="110.5" x2="118.45" y1="118.1" y2="89.03333333333333" stroke="black" clip-path="url(#clip-0)" stroke-width="1"></line> <line x1="118.45" x2="126.39999999999999" y1="89.03333333333333" y2="74.5" stroke="black" clip-path="url(#clip-0)" stroke-width="1"></line> <line x1="126.39999999999999" x2="134.35000000000002" y1="74.5" y2="49.06666666666668" stroke="black" clip-path="url(#clip-0)" stroke-width="1"></line> <line x1="134.35000000000002" x2="142.3" y1="49.06666666666668" y2="34.53333333333333" stroke="black" clip-path="url(#clip-0)" stroke-width="1"></line> <line x1="142.3" x2="150.25" y1="34.53333333333333" y2="92.66666666666667" stroke="black" clip-path="url(#clip-0)" stroke-width="1"></line> <line x1="150.25" x2="158.2" y1="92.66666666666667" y2="89.03333333333333" stroke="black" clip-path="url(#clip-0)" stroke-width="1"></line> <line x1="158.2" x2="166.15" y1="89.03333333333333" y2="81.76666666666667" stroke="black" clip-path="url(#clip-0)" stroke-width="1"></line> <line x1="166.15" x2="174.1" y1="81.76666666666667" y2="81.76666666666667" stroke="black" clip-path="url(#clip-0)" stroke-width="1"></line> <line x1="174.1" x2="182.04999999999998" y1="81.76666666666667" y2="99.93333333333334" stroke="black" clip-path="url(#clip-0)" stroke-width="1"></line> <line x1="182.04999999999998" x2="190" y1="99.93333333333334" y2="96.30000000000001" stroke="black" clip-path="url(#clip-0)" stroke-width="1"></line></svg>