<svg width="300" height="200" version="1.1" xmlns="http://www.w3.org/2000/svg" xmlns:xlink="http://www.w3.org/1999/xlink"> <rect width="300" height="200" x="0" y="0" fill="white"></rect> <line x1="17.541666666666664" x2="17.541666666666664" y1="179" y2="181" stroke="black"></line> <line x1="17.541666666666664" x2="17.541666666666664" y1="20" y2="179" stroke="#e0e0e0" opacity="nil"></line> <line x1="30.541666666666668" x2="30.541666666666668" y1="179" y2="181" stroke="black"></line> <line x1="30.541666666666668" x2="30.541666666666668" y1="20" y2="179" stroke="#e0e0e0" opacity="nil"></line> <line x1="43.54166666666667" x2="43.54166666666667" y1="179" y2="181" stroke="black"></line> <line x1="43.54166666666667" x2="43.54166666666667" y1="20" y2="179" stroke="#e0e0e0" opacity="nil"></line> <line x1="56.54166666666667" x2="56.54166666666667" y1="179" y2="181" stroke="black"></line> <line x1="56.54166666666667" x2="56.54166666666667" y1="20" y2="179" stroke="#e0e0e0" opacity="nil"></line> <line x1="69.54166666666666" x2="69.54166666666666" y1="179" y2="181" stroke="black"></line> <line x1="69.54166666666666" x2="69.54166666666666" y1="20" y2="179" stroke="#e0e0e0" opacity="nil"></line> <line x1="82.54166666666666" x2="82.54166666666666" y1="179" y2="183" stroke="black"></line> <line x1="82.54166666666666" x2="82.54166666666666" y1="20" y2="179" stroke="#e0e0e0" opacity="nil"></line> <text y="193" x="82.54166666666666" fill="black" font-size="12" text-anchor="middle" font-family="sans-serif"> 2009-01-05</text> <line x1="95.54166666666667" x2="95.54166666666667" y1="179" y2="181" stroke="black"></line> <line x1="95.54166666666667" x2="95.54166666666667" y1="20" y2="179" stroke="#e0e0e0" opacity="nil"></line> <line x1="108.54166666666666" x2="108.54166666666666" y1="179" y2="181" stroke="black"></line> <line x1="108.54166666666666" x2="108.54166666666666" y1="20" y2="179" stroke="#e0e0e0" opacity="nil"></line> <line x1="121.54166666666667" x2="121.54166666666667" y1="179" y2="181" stroke="black"></line> <line x1="121.54166666666667" x2="121.54166666666667" y1="20" y2="179" stroke="#e0e0e0" opacity="nil"></line> <line x1="134.54166666666669" x2="134.54166666666669" y1="179" y2="181" stroke="black"></line> <line x1="134.54166666666669" x2="134.54166666666669" y1="20" y2="179" stroke="#e0e0e0" opacity="nil"></line> <line x1="147.54166666666669" x2="147.54166666666669" y1="179" y2="181" stroke="black"></line> <line x1="147.54166666666669" x2="147.54166666666669" y1="20" y2="179" stroke="#e0e0e0" opacity="nil"></line> <line x1="160.54166666666666" x2="160.54166666666666" y1="179" y2="181" stroke="black"></line> <line x1="160.54166666666666" x2="160.54166666666666" y1="20" y2="179" stroke="#e0e0e0" opacity="nil"></line> <line x1="173.54166666666669" x2="173.54166666666669" y1="179" y2="183" stroke="black"></line> <line x1="173.54166666666669" x2="173.54166666666669" y1="20" y2="179" stroke="#e0e0e0" opacity="nil"></line> <text y="193" x="173.54166666666669" fill="black" font-size="12" text-anchor="middle" font-family="sans-serif"> 2009-01-12</text> <line x1="186.54166666666666" x2="186.54166666666666" y1="179" y2="181" stroke="black"></line> <line x1="186.54166666666666" x2="186.54166666666666" y1="20" y2="179" stroke="#e0e0e0" opacity="nil"></line> <line x1="199.54166666666666" x2="199.54166666666666" y1="179" y2="181" stroke="black"></line> <line x1="199.54166666666666" x2="199.54166666666666" y1="20" y2="179" stroke="#e0e0e0" opacity="nil"></line> <line x1="212.54166666666666" x2="212.54166666666666" y1="179" y2="181" stroke="black"></line> <line x1="212.54166666666666" x2="212.54166666666666" y1="20" y2="179" stroke="#e0e0e0" opacity="nil"></line> <line x1="225.54166666666666" x2="225.54166666666666" y1="179" y2="181" stroke="black"></line> <line x1="225.54166666666666" x2="225.54166666666666" y1="20" y2="179" stroke="#e0e0e0" opacity="nil"></line> <line x1="238.54166666666669" x2="238.54166666666669" y1="179" y2="181" stroke="black"></line> <line x1="238.54166666666669" x2="238.54166666666669" y1="20" y2="179" stroke="#e0e0e0" opacity="nil"></line> <line x1="251.54166666666666" x2="251.54166666666666" y1="179" y2="181" stroke="black"></line> <line x1="251.54166666666666" x2="251.54166666666666" y1="20" y2="179" stroke="#e0e0e0" opacity="nil"></line> <line x1="264.54166666666663" x2="264.54166666666663" y1="179" y2="183" stroke="black"></line> <line x1="264.54166666666663" x2="264.54166666666663" y1="20" y2="179" stroke="#e0e0e0" opacity="nil"></line> <text y="193" x="264.54166666666663" fill="black" font-size="12" text-anchor="middle" font-family="sans-serif"> 2009-01-19</text> <line x1="277.54166666666663" x2="277.54166666666663" y1="179" y2="181" stroke="black"></line> <line x1="277.54166666666663" x2="277.54166666666663" y1="20" y2="179" stroke="#e0e0e0" opacity="nil"></line> <line x1="30" x2="27" y1="179.0" y2="179.0" stroke="black"></line> <line x1="30" x2="290" y1="179.0" y2="179.0" opacity="nil" stroke="#e0e0e0"></line> <line x1="30" x2="27" y1="165.75" y2="165.75" stroke="black"></line> <line x1="30" x2="290" y1="165.75" y2="165.75" opacity="nil" stroke="#e0e0e0"></line> <line x1="30" x2="27" y1="152.5" y2="152.5" stroke="black"></line> <line x1="30" x2="290" y1="152.5" y2="152.5" opacity="nil" stroke="#e0e0e0"></line> <line x1="30" x2="27" y1="139.25" y2="139.25" stroke="black"></line> <line x1="30" x2="290" y1="139.25" y2="139.25" opacity="nil" stroke="#e0e0e0"></line> <line x1="30" x2="27" y1="126.0" y2="126.0" stroke="black"></line> <line x1="30" x2="290" y1="126.0" y2="126.0" opacity="nil" stroke="#e0e0e0"></line> <text y="130.0" x="24" fill="black" font-size="12" text-anchor="end" font-family="sans-serif"> 150</text> <line x1="30" x2="27" y1="112.75" y2="112.75" stroke="black"></line> <line x1="30" x2="290" y1="112.75" y2="112.75" opacity="nil" stroke="#e0e0e0"></line> <line x1="30" x2="27" y1="99.5" y2="99.5" stroke="black"></line> <line x1="30" x2="290" y1="99.5" y2="99.5" opacity="nil" stroke="#e0e0e0"></line> <line x1="30" x2="27" y1="86.25" y2="86.25" stroke="black"></line> <line x1="30" x2="290" y1="86.25" y2="86.25" opacity="nil" stroke="#e0e0e0"></line> <line x1="30" x2="27" y1="73.0" y2="73.0" stroke="black"></line> <line x1="30" x2="290" y1="73.0" y2="73.0" opacity="nil" stroke="#e0e0e0"></line> <line x1="30" x2="27" y1="59.75" y2="59.75" stroke="black"></line> <line x1="30" x2="290" y1="59.75" y2="59.75" opacity="nil" stroke="#e0e0e0"></line> <text y="63.75" x="24" fill="black" font-size="12" text-anchor="end" font-family="sans-serif"> 160</text> <line x1="30" x2="27" y1="46.5" y2="46.5" stroke="black"></line> <line x1="30" x2="290" y1="46.5" y2="46.5" opacity="nil" stroke="#e0e0e0"></line> <line x1="30" x2="27" y1="33.25" y2="33.25" stroke="black"></line> <line x1="30" x2="290" y1="33.25" y2="33.25" opacity="nil" stroke="#e0e0e0"></line> <line x1="30" x2="27" y1="20.0" y2="20.0" stroke="black"></line> <line x1="30" x2="290" y1="20.0" y2="20.0" opacity="nil" stroke="#e0e0e0"></line> <line x1="30" x2="30" y1="20" y2="184" stroke="black"></line> <line x1="25" x2="290" y1="179" y2="179" stroke="black"></line> <line x1="30" x2="43.0" y1="79.625" y2="86.25" stroke="black"></line> <line x1="43.0" x2="56.0" y1="86.25" y2="112.75" stroke="black"></line> <line x1="56.0" x2="69.0" y1="112.75" y2="112.75" stroke="black"></line> <line x1="69.0" x2="82.0" y1="112.75" y2="119.375" stroke="black"></line> <line x1="82.0" x2="95.0" y1="119.375" y2="53.125" stroke="black"></line> <line x1="95.0" x2="108.0" y1="53.125" y2="59.75" stroke="black"></line> <line x1="108.0" x2="121.0" y1="59.75" y2="86.25" stroke="black"></line> <line x1="121.0" x2="134.0" y1="86.25" y2="126.0" stroke="black"></line> <line x1="134.0" x2="147.0" y1="126.0" y2="99.5" stroke="black"></line> <line x1="147.0" x2="160.0" y1="99.5" y2="172.375" stroke="black"></line> <line x1="160.0" x2="173.0" y1="172.375" y2="119.375" stroke="black"></line> <line x1="173.0" x2="186.0" y1="119.375" y2="92.875" stroke="black"></line> <line x1="186.0" x2="199.0" y1="92.875" y2="46.5" stroke="black"></line> <line x1="199.0" x2="212.0" y1="46.5" y2="20.0" stroke="black"></line> <line x1="212.0" x2="225.0" y1="20.0" y2="126.0" stroke="black"></line> <line x1="225.0" x2="238.0" y1="126.0" y2="119.375" stroke="black"></line> <line x1="238.0" x2="251.0" y1="119.375" y2="106.125" stroke="black"></line> <line x1="251.0" x2="264.0" y1="106.125" y2="106.125" stroke="black"></line> <line x1="264.0" x2="277.0" y1="106.125" y2="139.25" stroke="black"></line> <line x1="277.0" x2="290" y1="139.25" y2="132.625" stroke="black"></line></svg>