<svg width="300" height="200" version="1.1" xmlns="http://www.w3.org/2000/svg" xmlns:xlink="http://www.w3.org/1999/xlink"> <rect width="300" height="200" x="0" y="0" fill="white"></rect> <line x1="31.0" x2="31.0" y1="179" y2="181" stroke="black"></line> <line x1="31.0" x2="31.0" y1="20" y2="179" stroke="#e0e0e0" opacity="1"></line> <line x1="43.95" x2="43.95" y1="179" y2="181" stroke="black"></line> <line x1="43.95" x2="43.95" y1="20" y2="179" stroke="#e0e0e0" opacity="1"></line> <line x1="56.900000000000006" x2="56.900000000000006" y1="179" y2="181" stroke="black"></line> <line x1="56.900000000000006" x2="56.900000000000006" y1="20" y2="179" stroke="#e0e0e0" opacity="1"></line> <line x1="69.85" x2="69.85" y1="179" y2="181" stroke="black"></line> <line x1="69.85" x2="69.85" y1="20" y2="179" stroke="#e0e0e0" opacity="1"></line> <line x1="82.80000000000001" x2="82.80000000000001" y1="179" y2="183" stroke="black"></line> <line x1="82.80000000000001" x2="82.80000000000001" y1="20" y2="179" stroke="#e0e0e0" opacity="1"></line> <text y="193" x="82.80000000000001" fill="black" font-weight="normal" font-size="12" text-anchor="middle" font-family="sans-serif"> 2009-01-05</text> <line x1="95.75" x2="95.75" y1="179" y2="181" stroke="black"></line> <line x1="95.75" x2="95.75" y1="20" y2="179" stroke="#e0e0e0" opacity="1"></line> <line x1="108.7" x2="108.7" y1="179" y2="181" stroke="black"></line> <line x1="108.7" x2="108.7" y1="20" y2="179" stroke="#e0e0e0" opacity="1"></line> <line x1="121.64999999999999" x2="121.64999999999999" y1="179" y2="181" stroke="black"></line> <line x1="121.64999999999999" x2="121.64999999999999" y1="20" y2="179" stroke="#e0e0e0" opacity="1"></line> <line x1="134.60000000000002" x2="134.60000000000002" y1="179" y2="181" stroke="black"></line> <line x1="134.60000000000002" x2="134.60000000000002" y1="20" y2="179" stroke="#e0e0e0" opacity="1"></line> <line x1="147.55" x2="147.55" y1="179" y2="181" stroke="black"></line> <line x1="147.55" x2="147.55" y1="20" y2="179" stroke="#e0e0e0" opacity="1"></line> <line x1="160.5" x2="160.5" y1="179" y2="181" stroke="black"></line> <line x1="160.5" x2="160.5" y1="20" y2="179" stroke="#e0e0e0" opacity="1"></line> <line x1="173.45000000000002" x2="173.45000000000002" y1="179" y2="183" stroke="black"></line> <line x1="173.45000000000002" x2="173.45000000000002" y1="20" y2="179" stroke="#e0e0e0" opacity="1"></line> <text y="193" x="173.45000000000002" fill="black" font-weight="normal" font-size="12" text-anchor="middle" font-family="sans-serif"> 2009-01-12</text> <line x1="186.4" x2="186.4" y1="179" y2="181" stroke="black"></line> <line x1="186.4" x2="186.4" y1="20" y2="179" stroke="#e0e0e0" opacity="1"></line> <line x1="199.35" x2="199.35" y1="179" y2="181" stroke="black"></line> <line x1="199.35" x2="199.35" y1="20" y2="179" stroke="#e0e0e0" opacity="1"></line> <line x1="212.29999999999998" x2="212.29999999999998" y1="179" y2="181" stroke="black"></line> <line x1="212.29999999999998" x2="212.29999999999998" y1="20" y2="179" stroke="#e0e0e0" opacity="1"></line> <line x1="225.25" x2="225.25" y1="179" y2="181" stroke="black"></line> <line x1="225.25" x2="225.25" y1="20" y2="179" stroke="#e0e0e0" opacity="1"></line> <line x1="238.20000000000002" x2="238.20000000000002" y1="179" y2="181" stroke="black"></line> <line x1="238.20000000000002" x2="238.20000000000002" y1="20" y2="179" stroke="#e0e0e0" opacity="1"></line> <line x1="251.15" x2="251.15" y1="179" y2="181" stroke="black"></line> <line x1="251.15" x2="251.15" y1="20" y2="179" stroke="#e0e0e0" opacity="1"></line> <line x1="264.1" x2="264.1" y1="179" y2="183" stroke="black"></line> <line x1="264.1" x2="264.1" y1="20" y2="179" stroke="#e0e0e0" opacity="1"></line> <text y="193" x="264.1" fill="black" font-weight="normal" font-size="12" text-anchor="middle" font-family="sans-serif"> 2009-01-19</text> <line x1="277.04999999999995" x2="277.04999999999995" y1="179" y2="181" stroke="black"></line> <line x1="277.04999999999995" x2="277.04999999999995" y1="20" y2="179" stroke="#e0e0e0" opacity="1"></line> <line x1="290.0" x2="290.0" y1="179" y2="181" stroke="black"></line> <line x1="290.0" x2="290.0" y1="20" y2="179" stroke="#e0e0e0" opacity="1"></line> <line x1="31" x2="28" y1="179.0" y2="179.0" stroke="black"></line> <line x1="31" x2="290" y1="179.0" y2="179.0" opacity="1" stroke="#e0e0e0"></line> <line x1="31" x2="28" y1="169.0625" y2="169.0625" stroke="black"></line> <line x1="31" x2="290" y1="169.0625" y2="169.0625" opacity="1" stroke="#e0e0e0"></line> <line x1="31" x2="28" y1="159.125" y2="159.125" stroke="black"></line> <line x1="31" x2="290" y1="159.125" y2="159.125" opacity="1" stroke="#e0e0e0"></line> <line x1="31" x2="28" y1="149.1875" y2="149.1875" stroke="black"></line> <line x1="31" x2="290" y1="149.1875" y2="149.1875" opacity="1" stroke="#e0e0e0"></line> <line x1="31" x2="28" y1="139.25" y2="139.25" stroke="black"></line> <line x1="31" x2="290" y1="139.25" y2="139.25" opacity="1" stroke="#e0e0e0"></line> <text y="143.25" x="25" fill="black" font-size="12" text-anchor="end" font-family="sans-serif"> 150</text> <line x1="31" x2="28" y1="129.3125" y2="129.3125" stroke="black"></line> <line x1="31" x2="290" y1="129.3125" y2="129.3125" opacity="1" stroke="#e0e0e0"></line> <line x1="31" x2="28" y1="119.375" y2="119.375" stroke="black"></line> <line x1="31" x2="290" y1="119.375" y2="119.375" opacity="1" stroke="#e0e0e0"></line> <line x1="31" x2="28" y1="109.4375" y2="109.4375" stroke="black"></line> <line x1="31" x2="290" y1="109.4375" y2="109.4375" opacity="1" stroke="#e0e0e0"></line> <line x1="31" x2="28" y1="99.5" y2="99.5" stroke="black"></line> <line x1="31" x2="290" y1="99.5" y2="99.5" opacity="1" stroke="#e0e0e0"></line> <line x1="31" x2="28" y1="89.5625" y2="89.5625" stroke="black"></line> <line x1="31" x2="290" y1="89.5625" y2="89.5625" opacity="1" stroke="#e0e0e0"></line> <text y="93.5625" x="25" fill="black" font-size="12" text-anchor="end" font-family="sans-serif"> 160</text> <line x1="31" x2="28" y1="79.625" y2="79.625" stroke="black"></line> <line x1="31" x2="290" y1="79.625" y2="79.625" opacity="1" stroke="#e0e0e0"></line> <line x1="31" x2="28" y1="69.6875" y2="69.6875" stroke="black"></line> <line x1="31" x2="290" y1="69.6875" y2="69.6875" opacity="1" stroke="#e0e0e0"></line> <line x1="31" x2="28" y1="59.75" y2="59.75" stroke="black"></line> <line x1="31" x2="290" y1="59.75" y2="59.75" opacity="1" stroke="#e0e0e0"></line> <line x1="31" x2="28" y1="49.8125" y2="49.8125" stroke="black"></line> <line x1="31" x2="290" y1="49.8125" y2="49.8125" opacity="1" stroke="#e0e0e0"></line> <line x1="31" x2="28" y1="39.875" y2="39.875" stroke="black"></line> <line x1="31" x2="290" y1="39.875" y2="39.875" opacity="1" stroke="#e0e0e0"></line> <text y="43.875" x="25" fill="black" font-size="12" text-anchor="end" font-family="sans-serif"> 170</text> <line x1="31" x2="28" y1="29.9375" y2="29.9375" stroke="black"></line> <line x1="31" x2="290" y1="29.9375" y2="29.9375" opacity="1" stroke="#e0e0e0"></line> <line x1="31" x2="28" y1="20.0" y2="20.0" stroke="black"></line> <line x1="31" x2="290" y1="20.0" y2="20.0" opacity="1" stroke="#e0e0e0"></line> <line x1="31" x2="31" y1="20" y2="184" stroke="black"></line> <line x1="26" x2="290" y1="179" y2="179" stroke="black"></line> <clipPath id="clip-0"> <rect x="31" y="20" width="259" height="159"></rect></clipPath> <line x1="31" x2="43.95" y1="104.46875" y2="109.4375" stroke="black" clip-path="url(#clip-0)" stroke-width="1"></line> <line x1="43.95" x2="56.900000000000006" y1="109.4375" y2="129.3125" stroke="black" clip-path="url(#clip-0)" stroke-width="1"></line> <line x1="56.900000000000006" x2="69.85" y1="129.3125" y2="129.3125" stroke="black" clip-path="url(#clip-0)" stroke-width="1"></line> <line x1="69.85" x2="82.80000000000001" y1="129.3125" y2="134.28125" stroke="black" clip-path="url(#clip-0)" stroke-width="1"></line> <line x1="82.80000000000001" x2="95.75" y1="134.28125" y2="84.59375" stroke="black" clip-path="url(#clip-0)" stroke-width="1"></line> <line x1="95.75" x2="108.7" y1="84.59375" y2="89.5625" stroke="black" clip-path="url(#clip-0)" stroke-width="1"></line> <line x1="108.7" x2="121.64999999999999" y1="89.5625" y2="109.4375" stroke="black" clip-path="url(#clip-0)" stroke-width="1"></line> <line x1="121.64999999999999" x2="134.60000000000002" y1="109.4375" y2="139.25" stroke="black" clip-path="url(#clip-0)" stroke-width="1"></line> <line x1="134.60000000000002" x2="147.55" y1="139.25" y2="119.375" stroke="black" clip-path="url(#clip-0)" stroke-width="1"></line> <line x1="147.55" x2="160.5" y1="119.375" y2="174.03125" stroke="black" clip-path="url(#clip-0)" stroke-width="1"></line> <line x1="160.5" x2="173.45000000000002" y1="174.03125" y2="134.28125" stroke="black" clip-path="url(#clip-0)" stroke-width="1"></line> <line x1="173.45000000000002" x2="186.4" y1="134.28125" y2="114.40625" stroke="black" clip-path="url(#clip-0)" stroke-width="1"></line> <line x1="186.4" x2="199.35" y1="114.40625" y2="79.625" stroke="black" clip-path="url(#clip-0)" stroke-width="1"></line> <line x1="199.35" x2="212.29999999999998" y1="79.625" y2="59.75" stroke="black" clip-path="url(#clip-0)" stroke-width="1"></line> <line x1="212.29999999999998" x2="225.25" y1="59.75" y2="139.25" stroke="black" clip-path="url(#clip-0)" stroke-width="1"></line> <line x1="225.25" x2="238.20000000000002" y1="139.25" y2="134.28125" stroke="black" clip-path="url(#clip-0)" stroke-width="1"></line> <line x1="238.20000000000002" x2="251.15" y1="134.28125" y2="124.34375" stroke="black" clip-path="url(#clip-0)" stroke-width="1"></line> <line x1="251.15" x2="264.1" y1="124.34375" y2="124.34375" stroke="black" clip-path="url(#clip-0)" stroke-width="1"></line> <line x1="264.1" x2="277.04999999999995" y1="124.34375" y2="149.1875" stroke="black" clip-path="url(#clip-0)" stroke-width="1"></line> <line x1="277.04999999999995" x2="290" y1="149.1875" y2="144.21875" stroke="black" clip-path="url(#clip-0)" stroke-width="1"></line></svg>