<svg width="728" height="500" version="1.1" xmlns="http://www.w3.org/2000/svg" xmlns:xlink="http://www.w3.org/1999/xlink"> <rect width="728" height="500" x="0" y="0" fill="#101010"></rect> <text y="23" x="389" fill="#c0c0c0" font-size="12" font-weight="bold" text-anchor="middle" font-family="sans-serif"> How Much Higher Would A Director Place</text> <clipPath id="clip-0"> <rect x="70" y="40" width="638" height="310"></rect></clipPath> <rect width="11.484" height="309.31111111111113" x="71.276" y="40.68888888888887" fill="#e6194b" clip-path="url(#clip-0)"></rect> <rect width="11.484" height="181.17777777777778" x="84.036" y="168.82222222222222" fill="#3cb44b" clip-path="url(#clip-0)"></rect> <rect width="11.484" height="179.57037037037037" x="96.79599999999999" y="170.42962962962963" fill="#ffe119" clip-path="url(#clip-0)"></rect> <rect width="11.484" height="176.35555555555555" x="109.556" y="173.64444444444445" fill="#4363d8" clip-path="url(#clip-0)"></rect> <rect width="11.484" height="150.4074074074074" x="122.31599999999999" y="199.5925925925926" fill="#f58231" clip-path="url(#clip-0)"></rect> <rect width="11.484" height="148.11111111111111" x="135.07600000000002" y="201.88888888888889" fill="#911eb4" clip-path="url(#clip-0)"></rect> <rect width="11.484" height="147.88148148148147" x="147.836" y="202.11851851851853" fill="#46f0f0" clip-path="url(#clip-0)"></rect> <rect width="11.484" height="146.96296296296296" x="160.596" y="203.03703703703704" fill="#f032e6" clip-path="url(#clip-0)"></rect> <rect width="11.484" height="132.4962962962963" x="173.356" y="217.5037037037037" fill="#bcf60c" clip-path="url(#clip-0)"></rect> <rect width="11.484" height="124.68888888888887" x="186.11599999999999" y="225.31111111111113" fill="#fabebe" clip-path="url(#clip-0)"></rect> <rect width="11.484" height="124.22962962962964" x="198.87600000000003" y="225.77037037037036" fill="#008080" clip-path="url(#clip-0)"></rect> <rect width="11.484" height="121.93333333333334" x="211.63600000000002" y="228.06666666666666" fill="#e6beff" clip-path="url(#clip-0)"></rect> <rect width="11.484" height="121.24444444444447" x="224.39600000000002" y="228.75555555555553" fill="#9a6324" clip-path="url(#clip-0)"></rect> <rect width="11.484" height="111.37037037037038" x="237.156" y="238.62962962962962" fill="#fffac8" clip-path="url(#clip-0)"></rect> <rect width="11.484" height="110.22222222222223" x="249.91600000000003" y="239.77777777777777" fill="#800000" clip-path="url(#clip-0)"></rect> <rect width="11.484" height="105.85925925925926" x="262.676" y="244.14074074074074" fill="#aaffc3" clip-path="url(#clip-0)"></rect> <rect width="11.484" height="102.64444444444445" x="275.436" y="247.35555555555555" fill="#808000" clip-path="url(#clip-0)"></rect> <rect width="11.484" height="101.26666666666665" x="288.196" y="248.73333333333335" fill="#ffd8b1" clip-path="url(#clip-0)"></rect> <rect width="11.484" height="98.74074074074076" x="300.95599999999996" y="251.25925925925924" fill="#000075" clip-path="url(#clip-0)"></rect> <rect width="11.484" height="94.3777777777778" x="313.716" y="255.6222222222222" fill="#808080" clip-path="url(#clip-0)"></rect> <rect width="11.484" height="93.45925925925928" x="326.47600000000006" y="256.5407407407407" fill="#ffffff" clip-path="url(#clip-0)"></rect> <rect width="11.484" height="91.85185185185185" x="339.236" y="258.14814814814815" fill="#000000" clip-path="url(#clip-0)"></rect> <rect width="11.484" height="90.93333333333334" x="351.99600000000004" y="259.06666666666666" fill="#e6194b" clip-path="url(#clip-0)"></rect> <rect width="11.484" height="90.47407407407411" x="364.75600000000003" y="259.5259259259259" fill="#3cb44b" clip-path="url(#clip-0)"></rect> <rect width="11.484" height="89.09629629629626" x="377.516" y="260.90370370370374" fill="#ffe119" clip-path="url(#clip-0)"></rect> <rect width="11.484" height="87.25925925925924" x="390.276" y="262.74074074074076" fill="#4363d8" clip-path="url(#clip-0)"></rect> <rect width="11.484" height="86.57037037037037" x="403.036" y="263.42962962962963" fill="#f58231" clip-path="url(#clip-0)"></rect> <rect width="11.484" height="86.34074074074073" x="415.79600000000005" y="263.6592592592593" fill="#911eb4" clip-path="url(#clip-0)"></rect> <rect width="11.484" height="80.60000000000002" x="428.55600000000004" y="269.4" fill="#46f0f0" clip-path="url(#clip-0)"></rect> <rect width="11.484" height="78.76296296296294" x="441.316" y="271.23703703703706" fill="#f032e6" clip-path="url(#clip-0)"></rect> <rect width="11.484" height="77.61481481481479" x="454.076" y="272.3851851851852" fill="#bcf60c" clip-path="url(#clip-0)"></rect> <rect width="11.484" height="76.92592592592592" x="466.836" y="273.0740740740741" fill="#fabebe" clip-path="url(#clip-0)"></rect> <rect width="11.484" height="76.23703703703706" x="479.596" y="273.76296296296294" fill="#008080" clip-path="url(#clip-0)"></rect> <rect width="11.484" height="75.31851851851854" x="492.35600000000005" y="274.68148148148146" fill="#e6beff" clip-path="url(#clip-0)"></rect> <rect width="11.484" height="75.0888888888889" x="505.11600000000004" y="274.9111111111111" fill="#9a6324" clip-path="url(#clip-0)"></rect> <rect width="11.484" height="74.85925925925926" x="517.8759999999999" y="275.14074074074074" fill="#fffac8" clip-path="url(#clip-0)"></rect> <rect width="11.484" height="73.25185185185182" x="530.6359999999999" y="276.7481481481482" fill="#800000" clip-path="url(#clip-0)"></rect> <rect width="11.484" height="73.02222222222224" x="543.396" y="276.97777777777776" fill="#aaffc3" clip-path="url(#clip-0)"></rect> <rect width="11.484" height="72.56296296296296" x="556.156" y="277.43703703703704" fill="#808000" clip-path="url(#clip-0)"></rect> <rect width="11.484" height="71.64444444444445" x="568.916" y="278.35555555555555" fill="#ffd8b1" clip-path="url(#clip-0)"></rect> <rect width="11.484" height="70.4962962962963" x="581.676" y="279.5037037037037" fill="#000075" clip-path="url(#clip-0)"></rect> <rect width="11.484" height="70.26666666666665" x="594.4359999999999" y="279.73333333333335" fill="#808080" clip-path="url(#clip-0)"></rect> <rect width="11.484" height="69.1185185185185" x="607.1959999999999" y="280.8814814814815" fill="#ffffff" clip-path="url(#clip-0)"></rect> <rect width="11.484" height="66.8222222222222" x="619.9559999999999" y="283.1777777777778" fill="#000000" clip-path="url(#clip-0)"></rect> <rect width="11.484" height="66.36296296296297" x="632.716" y="283.63703703703703" fill="#e6194b" clip-path="url(#clip-0)"></rect> <rect width="11.484" height="65.67407407407404" x="645.476" y="284.32592592592596" fill="#3cb44b" clip-path="url(#clip-0)"></rect> <rect width="11.484" height="65.21481481481482" x="658.236" y="284.7851851851852" fill="#ffe119" clip-path="url(#clip-0)"></rect> <rect width="11.484" height="63.377777777777794" x="670.9959999999999" y="286.6222222222222" fill="#4363d8" clip-path="url(#clip-0)"></rect> <rect width="11.484" height="63.377777777777794" x="683.756" y="286.6222222222222" fill="#f58231" clip-path="url(#clip-0)"></rect> <rect width="11.484" height="61.08148148148149" x="696.516" y="288.9185185185185" fill="#911eb4" clip-path="url(#clip-0)"></rect> <text transform="translate(80.018,360) rotate(-90)" fill="#c0c0c0" font-size="12" text-anchor="end" font-family="sans-serif"> James Benning</text> <text transform="translate(92.778,360) rotate(-90)" fill="#c0c0c0" font-size="12" text-anchor="end" font-family="sans-serif"> Ra&#250;l Ruiz</text> <text transform="translate(105.538,360) rotate(-90)" fill="#c0c0c0" font-size="12" text-anchor="end" font-family="sans-serif"> Jim Jarmusch</text> <text transform="translate(118.298,360) rotate(-90)" fill="#c0c0c0" font-size="12" text-anchor="end" font-family="sans-serif"> Lav D&#237;az</text> <text transform="translate(131.058,360) rotate(-90)" fill="#c0c0c0" font-size="12" text-anchor="end" font-family="sans-serif"> Hong Sang-soo</text> <text transform="translate(143.818,360) rotate(-90)" fill="#c0c0c0" font-size="12" text-anchor="end" font-family="sans-serif"> Leonardo Favio</text> <text transform="translate(156.578,360) rotate(-90)" fill="#c0c0c0" font-size="12" text-anchor="end" font-family="sans-serif"> Jafar Panahi</text> <text transform="translate(169.338,360) rotate(-90)" fill="#c0c0c0" font-size="12" text-anchor="end" font-family="sans-serif"> Wes Anderson</text> <text transform="translate(182.09799999999998,360) rotate(-90)" fill="#c0c0c0" font-size="12" text-anchor="end" font-family="sans-serif"> Daniele Huillet</text> <text transform="translate(194.858,360) rotate(-90)" fill="#c0c0c0" font-size="12" text-anchor="end" font-family="sans-serif"> John Huston</text> <text transform="translate(207.618,360) rotate(-90)" fill="#c0c0c0" font-size="12" text-anchor="end" font-family="sans-serif"> Manoel de Oliveira</text> <text transform="translate(220.378,360) rotate(-90)" fill="#c0c0c0" font-size="12" text-anchor="end" font-family="sans-serif"> Clint Eastwood</text> <text transform="translate(233.138,360) rotate(-90)" fill="#c0c0c0" font-size="12" text-anchor="end" font-family="sans-serif"> Aleksandr Sokurov</text> <text transform="translate(245.898,360) rotate(-90)" fill="#c0c0c0" font-size="12" text-anchor="end" font-family="sans-serif"> Mikio Naruse</text> <text transform="translate(258.658,360) rotate(-90)" fill="#c0c0c0" font-size="12" text-anchor="end" font-family="sans-serif"> Stan Brakhage</text> <text transform="translate(271.41799999999995,360) rotate(-90)" fill="#c0c0c0" font-size="12" text-anchor="end" font-family="sans-serif"> Alexei German</text> <text transform="translate(284.17799999999994,360) rotate(-90)" fill="#c0c0c0" font-size="12" text-anchor="end" font-family="sans-serif"> Frederick Wiseman</text> <text transform="translate(296.93799999999993,360) rotate(-90)" fill="#c0c0c0" font-size="12" text-anchor="end" font-family="sans-serif"> Shohei Imamura</text> <text transform="translate(309.698,360) rotate(-90)" fill="#c0c0c0" font-size="12" text-anchor="end" font-family="sans-serif"> Abderrahmane Sissako</text> <text transform="translate(322.45799999999997,360) rotate(-90)" fill="#c0c0c0" font-size="12" text-anchor="end" font-family="sans-serif"> Sidney Lumet</text> <text transform="translate(335.21799999999996,360) rotate(-90)" fill="#c0c0c0" font-size="12" text-anchor="end" font-family="sans-serif"> Paul Verhoeven</text> <text transform="translate(347.97799999999995,360) rotate(-90)" fill="#c0c0c0" font-size="12" text-anchor="end" font-family="sans-serif"> Josef von Sternberg</text> <text transform="translate(360.73799999999994,360) rotate(-90)" fill="#c0c0c0" font-size="12" text-anchor="end" font-family="sans-serif"> Peter Bogdanovich</text> <text transform="translate(373.498,360) rotate(-90)" fill="#c0c0c0" font-size="12" text-anchor="end" font-family="sans-serif"> Kira Muratova</text> <text transform="translate(386.258,360) rotate(-90)" fill="#c0c0c0" font-size="12" text-anchor="end" font-family="sans-serif"> Maurice Pialat</text> <text transform="translate(399.018,360) rotate(-90)" fill="#c0c0c0" font-size="12" text-anchor="end" font-family="sans-serif"> David Fincher</text> <text transform="translate(411.77799999999996,360) rotate(-90)" fill="#c0c0c0" font-size="12" text-anchor="end" font-family="sans-serif"> Miklos Jancs&#243;</text> <text transform="translate(424.53799999999995,360) rotate(-90)" fill="#c0c0c0" font-size="12" text-anchor="end" font-family="sans-serif"> James Cameron</text> <text transform="translate(437.29799999999994,360) rotate(-90)" fill="#c0c0c0" font-size="12" text-anchor="end" font-family="sans-serif"> George A. Romero</text> <text transform="translate(450.058,360) rotate(-90)" fill="#c0c0c0" font-size="12" text-anchor="end" font-family="sans-serif"> Jean Cocteau</text> <text transform="translate(462.818,360) rotate(-90)" fill="#c0c0c0" font-size="12" text-anchor="end" font-family="sans-serif"> Andrzej Wajda</text> <text transform="translate(475.578,360) rotate(-90)" fill="#c0c0c0" font-size="12" text-anchor="end" font-family="sans-serif"> Elia Kazan</text> <text transform="translate(488.33799999999997,360) rotate(-90)" fill="#c0c0c0" font-size="12" text-anchor="end" font-family="sans-serif"> Christopher Nolan</text> <text transform="translate(501.09799999999996,360) rotate(-90)" fill="#c0c0c0" font-size="12" text-anchor="end" font-family="sans-serif"> Rob Reiner</text> <text transform="translate(513.858,360) rotate(-90)" fill="#c0c0c0" font-size="12" text-anchor="end" font-family="sans-serif"> Tod Browning</text> <text transform="translate(526.6179999999999,360) rotate(-90)" fill="#c0c0c0" font-size="12" text-anchor="end" font-family="sans-serif"> Jean-Marie Straub</text> <text transform="translate(539.378,360) rotate(-90)" fill="#c0c0c0" font-size="12" text-anchor="end" font-family="sans-serif"> Steve McQueen</text> <text transform="translate(552.138,360) rotate(-90)" fill="#c0c0c0" font-size="12" text-anchor="end" font-family="sans-serif"> Andy Warhol</text> <text transform="translate(564.898,360) rotate(-90)" fill="#c0c0c0" font-size="12" text-anchor="end" font-family="sans-serif"> Kathryn Bigelow</text> <text transform="translate(577.658,360) rotate(-90)" fill="#c0c0c0" font-size="12" text-anchor="end" font-family="sans-serif"> Masaki Kobayashi</text> <text transform="translate(590.418,360) rotate(-90)" fill="#c0c0c0" font-size="12" text-anchor="end" font-family="sans-serif"> William Friedkin</text> <text transform="translate(603.178,360) rotate(-90)" fill="#c0c0c0" font-size="12" text-anchor="end" font-family="sans-serif"> Ang Lee</text> <text transform="translate(615.938,360) rotate(-90)" fill="#c0c0c0" font-size="12" text-anchor="end" font-family="sans-serif"> Andrea Arnold</text> <text transform="translate(628.698,360) rotate(-90)" fill="#c0c0c0" font-size="12" text-anchor="end" font-family="sans-serif"> Lina Wertm&#252;ller</text> <text transform="translate(641.458,360) rotate(-90)" fill="#c0c0c0" font-size="12" text-anchor="end" font-family="sans-serif"> Jia Zhangke</text> <text transform="translate(654.2180000000001,360) rotate(-90)" fill="#c0c0c0" font-size="12" text-anchor="end" font-family="sans-serif"> Jonathan Demme</text> <text transform="translate(666.9780000000001,360) rotate(-90)" fill="#c0c0c0" font-size="12" text-anchor="end" font-family="sans-serif"> Joseph Losey</text> <text transform="translate(679.738,360) rotate(-90)" fill="#c0c0c0" font-size="12" text-anchor="end" font-family="sans-serif"> Milos Forman</text> <text transform="translate(692.498,360) rotate(-90)" fill="#c0c0c0" font-size="12" text-anchor="end" font-family="sans-serif"> Kelly Reichardt</text> <text transform="translate(705.258,360) rotate(-90)" fill="#c0c0c0" font-size="12" text-anchor="end" font-family="sans-serif"> George Cukor</text> <line x1="70" x2="67" y1="350.0" y2="350.0" stroke="#c0c0c0"></line> <line x1="70" x2="708" y1="350.0" y2="350.0" opacity="0.2" stroke="#404040"></line> <text y="354.0" x="64" fill="#c0c0c0" font-size="12" text-anchor="end" font-family="sans-serif"> 0</text> <line x1="70" x2="67" y1="338.51851851851853" y2="338.51851851851853" stroke="#c0c0c0"></line> <line x1="70" x2="708" y1="338.51851851851853" y2="338.51851851851853" opacity="0.2" stroke="#404040"></line> <line x1="70" x2="67" y1="327.03703703703707" y2="327.03703703703707" stroke="#c0c0c0"></line> <line x1="70" x2="708" y1="327.03703703703707" y2="327.03703703703707" opacity="0.2" stroke="#404040"></line> <text y="331.03703703703707" x="64" fill="#c0c0c0" font-size="12" text-anchor="end" font-family="sans-serif"> 100</text> <line x1="70" x2="67" y1="315.55555555555554" y2="315.55555555555554" stroke="#c0c0c0"></line> <line x1="70" x2="708" y1="315.55555555555554" y2="315.55555555555554" opacity="0.2" stroke="#404040"></line> <line x1="70" x2="67" y1="304.0740740740741" y2="304.0740740740741" stroke="#c0c0c0"></line> <line x1="70" x2="708" y1="304.0740740740741" y2="304.0740740740741" opacity="0.2" stroke="#404040"></line> <text y="308.0740740740741" x="64" fill="#c0c0c0" font-size="12" text-anchor="end" font-family="sans-serif"> 200</text> <line x1="70" x2="67" y1="292.5925925925926" y2="292.5925925925926" stroke="#c0c0c0"></line> <line x1="70" x2="708" y1="292.5925925925926" y2="292.5925925925926" opacity="0.2" stroke="#404040"></line> <line x1="70" x2="67" y1="281.1111111111111" y2="281.1111111111111" stroke="#c0c0c0"></line> <line x1="70" x2="708" y1="281.1111111111111" y2="281.1111111111111" opacity="0.2" stroke="#404040"></line> <text y="285.1111111111111" x="64" fill="#c0c0c0" font-size="12" text-anchor="end" font-family="sans-serif"> 300</text> <line x1="70" x2="67" y1="269.6296296296296" y2="269.6296296296296" stroke="#c0c0c0"></line> <line x1="70" x2="708" y1="269.6296296296296" y2="269.6296296296296" opacity="0.2" stroke="#404040"></line> <line x1="70" x2="67" y1="258.14814814814815" y2="258.14814814814815" stroke="#c0c0c0"></line> <line x1="70" x2="708" y1="258.14814814814815" y2="258.14814814814815" opacity="0.2" stroke="#404040"></line> <text y="262.14814814814815" x="64" fill="#c0c0c0" font-size="12" text-anchor="end" font-family="sans-serif"> 400</text> <line x1="70" x2="67" y1="246.66666666666669" y2="246.66666666666669" stroke="#c0c0c0"></line> <line x1="70" x2="708" y1="246.66666666666669" y2="246.66666666666669" opacity="0.2" stroke="#404040"></line> <line x1="70" x2="67" y1="235.1851851851852" y2="235.1851851851852" stroke="#c0c0c0"></line> <line x1="70" x2="708" y1="235.1851851851852" y2="235.1851851851852" opacity="0.2" stroke="#404040"></line> <text y="239.1851851851852" x="64" fill="#c0c0c0" font-size="12" text-anchor="end" font-family="sans-serif"> 500</text> <line x1="70" x2="67" y1="223.7037037037037" y2="223.7037037037037" stroke="#c0c0c0"></line> <line x1="70" x2="708" y1="223.7037037037037" y2="223.7037037037037" opacity="0.2" stroke="#404040"></line> <line x1="70" x2="67" y1="212.22222222222223" y2="212.22222222222223" stroke="#c0c0c0"></line> <line x1="70" x2="708" y1="212.22222222222223" y2="212.22222222222223" opacity="0.2" stroke="#404040"></line> <text y="216.22222222222223" x="64" fill="#c0c0c0" font-size="12" text-anchor="end" font-family="sans-serif"> 600</text> <line x1="70" x2="67" y1="200.74074074074076" y2="200.74074074074076" stroke="#c0c0c0"></line> <line x1="70" x2="708" y1="200.74074074074076" y2="200.74074074074076" opacity="0.2" stroke="#404040"></line> <line x1="70" x2="67" y1="189.25925925925927" y2="189.25925925925927" stroke="#c0c0c0"></line> <line x1="70" x2="708" y1="189.25925925925927" y2="189.25925925925927" opacity="0.2" stroke="#404040"></line> <text y="193.25925925925927" x="64" fill="#c0c0c0" font-size="12" text-anchor="end" font-family="sans-serif"> 700</text> <line x1="70" x2="67" y1="177.77777777777777" y2="177.77777777777777" stroke="#c0c0c0"></line> <line x1="70" x2="708" y1="177.77777777777777" y2="177.77777777777777" opacity="0.2" stroke="#404040"></line> <line x1="70" x2="67" y1="166.2962962962963" y2="166.2962962962963" stroke="#c0c0c0"></line> <line x1="70" x2="708" y1="166.2962962962963" y2="166.2962962962963" opacity="0.2" stroke="#404040"></line> <text y="170.2962962962963" x="64" fill="#c0c0c0" font-size="12" text-anchor="end" font-family="sans-serif"> 800</text> <line x1="70" x2="67" y1="154.8148148148148" y2="154.8148148148148" stroke="#c0c0c0"></line> <line x1="70" x2="708" y1="154.8148148148148" y2="154.8148148148148" opacity="0.2" stroke="#404040"></line> <line x1="70" x2="67" y1="143.33333333333334" y2="143.33333333333334" stroke="#c0c0c0"></line> <line x1="70" x2="708" y1="143.33333333333334" y2="143.33333333333334" opacity="0.2" stroke="#404040"></line> <text y="147.33333333333334" x="64" fill="#c0c0c0" font-size="12" text-anchor="end" font-family="sans-serif"> 900</text> <line x1="70" x2="67" y1="131.85185185185185" y2="131.85185185185185" stroke="#c0c0c0"></line> <line x1="70" x2="708" y1="131.85185185185185" y2="131.85185185185185" opacity="0.2" stroke="#404040"></line> <line x1="70" x2="67" y1="120.37037037037038" y2="120.37037037037038" stroke="#c0c0c0"></line> <line x1="70" x2="708" y1="120.37037037037038" y2="120.37037037037038" opacity="0.2" stroke="#404040"></line> <text y="124.37037037037038" x="64" fill="#c0c0c0" font-size="12" text-anchor="end" font-family="sans-serif"> 1000</text> <line x1="70" x2="67" y1="108.88888888888889" y2="108.88888888888889" stroke="#c0c0c0"></line> <line x1="70" x2="708" y1="108.88888888888889" y2="108.88888888888889" opacity="0.2" stroke="#404040"></line> <line x1="70" x2="67" y1="97.40740740740742" y2="97.40740740740742" stroke="#c0c0c0"></line> <line x1="70" x2="708" y1="97.40740740740742" y2="97.40740740740742" opacity="0.2" stroke="#404040"></line> <text y="101.40740740740742" x="64" fill="#c0c0c0" font-size="12" text-anchor="end" font-family="sans-serif"> 1100</text> <line x1="70" x2="67" y1="85.92592592592592" y2="85.92592592592592" stroke="#c0c0c0"></line> <line x1="70" x2="708" y1="85.92592592592592" y2="85.92592592592592" opacity="0.2" stroke="#404040"></line> <line x1="70" x2="67" y1="74.44444444444446" y2="74.44444444444446" stroke="#c0c0c0"></line> <line x1="70" x2="708" y1="74.44444444444446" y2="74.44444444444446" opacity="0.2" stroke="#404040"></line> <text y="78.44444444444446" x="64" fill="#c0c0c0" font-size="12" text-anchor="end" font-family="sans-serif"> 1200</text> <line x1="70" x2="67" y1="62.96296296296293" y2="62.96296296296293" stroke="#c0c0c0"></line> <line x1="70" x2="708" y1="62.96296296296293" y2="62.96296296296293" opacity="0.2" stroke="#404040"></line> <line x1="70" x2="67" y1="51.481481481481524" y2="51.481481481481524" stroke="#c0c0c0"></line> <line x1="70" x2="708" y1="51.481481481481524" y2="51.481481481481524" opacity="0.2" stroke="#404040"></line> <text y="55.481481481481524" x="64" fill="#c0c0c0" font-size="12" text-anchor="end" font-family="sans-serif"> 1300</text> <line x1="70" x2="67" y1="40.0" y2="40.0" stroke="#c0c0c0"></line> <line x1="70" x2="708" y1="40.0" y2="40.0" opacity="0.2" stroke="#404040"></line> <line x1="70" x2="70" y1="40" y2="355" stroke="#c0c0c0"></line> <line x1="65" x2="708" y1="350" y2="350" stroke="#c0c0c0"></line></svg>