<svg width="728" height="500" version="1.1" xmlns="http://www.w3.org/2000/svg" xmlns:xlink="http://www.w3.org/1999/xlink"> <rect width="728" height="500" x="0" y="0" fill="#101010"></rect> <text y="23" x="417" fill="#c0c0c0" font-size="12" font-weight="bold" text-anchor="middle" font-family="sans-serif"> How Much Higher Would A Director Place</text> <text y="56.833333333333336" x="5" fill="#c0c0c0" font-weight="normal" font-size="12" text-anchor="left" font-family="sans-serif"> James Benning</text> <rect width="582" height="24.0" x="126" y="41.333333333333336" fill="#e6194b"></rect> <text y="83.5" x="5" fill="#c0c0c0" font-weight="normal" font-size="12" text-anchor="left" font-family="sans-serif"> Ra&#250;l Ruiz</text> <rect width="340.9042316258352" height="24.0" x="126" y="68.0" fill="#3cb44b"></rect> <text y="110.16666666666667" x="5" fill="#c0c0c0" font-weight="normal" font-size="12" text-anchor="left" font-family="sans-serif"> Jim Jarmusch</text> <rect width="337.87973273942094" height="24.0" x="126" y="94.66666666666667" fill="#ffe119"></rect> <text y="136.83333333333334" x="5" fill="#c0c0c0" font-weight="normal" font-size="12" text-anchor="left" font-family="sans-serif"> Lav D&#237;az</text> <rect width="331.8307349665924" height="24.0" x="126" y="121.33333333333333" fill="#4363d8"></rect> <text y="163.50000000000003" x="5" fill="#c0c0c0" font-weight="normal" font-size="12" text-anchor="left" font-family="sans-serif"> Hong Sang-soo</text> <rect width="283.0066815144766" height="24.0" x="126" y="148.00000000000003" fill="#f58231"></rect> <text y="190.16666666666669" x="5" fill="#c0c0c0" font-weight="normal" font-size="12" text-anchor="left" font-family="sans-serif"> Leonardo Favio</text> <rect width="278.6859688195991" height="24.0" x="126" y="174.66666666666669" fill="#911eb4"></rect> <text y="216.83333333333334" x="5" fill="#c0c0c0" font-weight="normal" font-size="12" text-anchor="left" font-family="sans-serif"> Jafar Panahi</text> <rect width="278.2538975501114" height="24.0" x="126" y="201.33333333333334" fill="#46f0f0"></rect> <text y="243.50000000000003" x="5" fill="#c0c0c0" font-weight="normal" font-size="12" text-anchor="left" font-family="sans-serif"> Wes Anderson</text> <rect width="276.52561247216033" height="24.0" x="126" y="228.00000000000003" fill="#f032e6"></rect> <text y="270.1666666666667" x="5" fill="#c0c0c0" font-weight="normal" font-size="12" text-anchor="left" font-family="sans-serif"> Daniele Huillet</text> <rect width="249.30512249443206" height="24.0" x="126" y="254.66666666666669" fill="#bcf60c"></rect> <text y="296.8333333333333" x="5" fill="#c0c0c0" font-weight="normal" font-size="12" text-anchor="left" font-family="sans-serif"> John Huston</text> <rect width="234.61469933184856" height="24.0" x="126" y="281.3333333333333" fill="#fabebe"></rect> <text y="323.5" x="5" fill="#c0c0c0" font-weight="normal" font-size="12" text-anchor="left" font-family="sans-serif"> Manoel de Oliveira</text> <rect width="233.75055679287306" height="24.0" x="126" y="308.0" fill="#008080"></rect> <text y="350.1666666666667" x="5" fill="#c0c0c0" font-weight="normal" font-size="12" text-anchor="left" font-family="sans-serif"> Clint Eastwood</text> <rect width="229.42984409799553" height="24.0" x="126" y="334.6666666666667" fill="#e6beff"></rect> <text y="376.8333333333333" x="5" fill="#c0c0c0" font-weight="normal" font-size="12" text-anchor="left" font-family="sans-serif"> Aleksandr Sokurov</text> <rect width="228.13363028953228" height="24.0" x="126" y="361.3333333333333" fill="#9a6324"></rect> <text y="403.5" x="5" fill="#c0c0c0" font-weight="normal" font-size="12" text-anchor="left" font-family="sans-serif"> Mikio Naruse</text> <rect width="209.55456570155903" height="24.0" x="126" y="388.0" fill="#fffac8"></rect> <text y="430.1666666666667" x="5" fill="#c0c0c0" font-weight="normal" font-size="12" text-anchor="left" font-family="sans-serif"> Stan Brakhage</text> <rect width="207.39420935412028" height="24.0" x="126" y="414.6666666666667" fill="#800000"></rect> <line x1="126.0" x2="126.0" y1="440" y2="444" stroke="#c0c0c0"></line> <line x1="126.0" x2="126.0" y1="40" y2="440" stroke="#404040" opacity="0.2"></line> <text y="454" x="126.0" fill="#c0c0c0" font-size="12" text-anchor="middle" font-family="sans-serif"> 0</text> <line x1="147.60356347438753" x2="147.60356347438753" y1="440" y2="442" stroke="#c0c0c0"></line> <line x1="147.60356347438753" x2="147.60356347438753" y1="40" y2="440" stroke="#404040" opacity="0.2"></line> <line x1="169.20712694877506" x2="169.20712694877506" y1="440" y2="444" stroke="#c0c0c0"></line> <line x1="169.20712694877506" x2="169.20712694877506" y1="40" y2="440" stroke="#404040" opacity="0.2"></line> <text y="454" x="169.20712694877506" fill="#c0c0c0" font-size="12" text-anchor="middle" font-family="sans-serif"> 100</text> <line x1="190.81069042316258" x2="190.81069042316258" y1="440" y2="442" stroke="#c0c0c0"></line> <line x1="190.81069042316258" x2="190.81069042316258" y1="40" y2="440" stroke="#404040" opacity="0.2"></line> <line x1="212.4142538975501" x2="212.4142538975501" y1="440" y2="444" stroke="#c0c0c0"></line> <line x1="212.4142538975501" x2="212.4142538975501" y1="40" y2="440" stroke="#404040" opacity="0.2"></line> <text y="454" x="212.4142538975501" fill="#c0c0c0" font-size="12" text-anchor="middle" font-family="sans-serif"> 200</text> <line x1="234.01781737193764" x2="234.01781737193764" y1="440" y2="442" stroke="#c0c0c0"></line> <line x1="234.01781737193764" x2="234.01781737193764" y1="40" y2="440" stroke="#404040" opacity="0.2"></line> <line x1="255.62138084632517" x2="255.62138084632517" y1="440" y2="444" stroke="#c0c0c0"></line> <line x1="255.62138084632517" x2="255.62138084632517" y1="40" y2="440" stroke="#404040" opacity="0.2"></line> <text y="454" x="255.62138084632517" fill="#c0c0c0" font-size="12" text-anchor="middle" font-family="sans-serif"> 300</text> <line x1="277.22494432071267" x2="277.22494432071267" y1="440" y2="442" stroke="#c0c0c0"></line> <line x1="277.22494432071267" x2="277.22494432071267" y1="40" y2="440" stroke="#404040" opacity="0.2"></line> <line x1="298.8285077951002" x2="298.8285077951002" y1="440" y2="444" stroke="#c0c0c0"></line> <line x1="298.8285077951002" x2="298.8285077951002" y1="40" y2="440" stroke="#404040" opacity="0.2"></line> <text y="454" x="298.8285077951002" fill="#c0c0c0" font-size="12" text-anchor="middle" font-family="sans-serif"> 400</text> <line x1="320.4320712694878" x2="320.4320712694878" y1="440" y2="442" stroke="#c0c0c0"></line> <line x1="320.4320712694878" x2="320.4320712694878" y1="40" y2="440" stroke="#404040" opacity="0.2"></line> <line x1="342.0356347438753" x2="342.0356347438753" y1="440" y2="444" stroke="#c0c0c0"></line> <line x1="342.0356347438753" x2="342.0356347438753" y1="40" y2="440" stroke="#404040" opacity="0.2"></line> <text y="454" x="342.0356347438753" fill="#c0c0c0" font-size="12" text-anchor="middle" font-family="sans-serif"> 500</text> <line x1="363.6391982182628" x2="363.6391982182628" y1="440" y2="442" stroke="#c0c0c0"></line> <line x1="363.6391982182628" x2="363.6391982182628" y1="40" y2="440" stroke="#404040" opacity="0.2"></line> <line x1="385.24276169265033" x2="385.24276169265033" y1="440" y2="444" stroke="#c0c0c0"></line> <line x1="385.24276169265033" x2="385.24276169265033" y1="40" y2="440" stroke="#404040" opacity="0.2"></line> <text y="454" x="385.24276169265033" fill="#c0c0c0" font-size="12" text-anchor="middle" font-family="sans-serif"> 600</text> <line x1="406.84632516703783" x2="406.84632516703783" y1="440" y2="442" stroke="#c0c0c0"></line> <line x1="406.84632516703783" x2="406.84632516703783" y1="40" y2="440" stroke="#404040" opacity="0.2"></line> <line x1="428.4498886414254" x2="428.4498886414254" y1="440" y2="444" stroke="#c0c0c0"></line> <line x1="428.4498886414254" x2="428.4498886414254" y1="40" y2="440" stroke="#404040" opacity="0.2"></line> <text y="454" x="428.4498886414254" fill="#c0c0c0" font-size="12" text-anchor="middle" font-family="sans-serif"> 700</text> <line x1="450.0534521158129" x2="450.0534521158129" y1="440" y2="442" stroke="#c0c0c0"></line> <line x1="450.0534521158129" x2="450.0534521158129" y1="40" y2="440" stroke="#404040" opacity="0.2"></line> <line x1="471.65701559020044" x2="471.65701559020044" y1="440" y2="444" stroke="#c0c0c0"></line> <line x1="471.65701559020044" x2="471.65701559020044" y1="40" y2="440" stroke="#404040" opacity="0.2"></line> <text y="454" x="471.65701559020044" fill="#c0c0c0" font-size="12" text-anchor="middle" font-family="sans-serif"> 800</text> <line x1="493.260579064588" x2="493.260579064588" y1="440" y2="442" stroke="#c0c0c0"></line> <line x1="493.260579064588" x2="493.260579064588" y1="40" y2="440" stroke="#404040" opacity="0.2"></line> <line x1="514.8641425389756" x2="514.8641425389756" y1="440" y2="444" stroke="#c0c0c0"></line> <line x1="514.8641425389756" x2="514.8641425389756" y1="40" y2="440" stroke="#404040" opacity="0.2"></line> <text y="454" x="514.8641425389756" fill="#c0c0c0" font-size="12" text-anchor="middle" font-family="sans-serif"> 900</text> <line x1="536.467706013363" x2="536.467706013363" y1="440" y2="442" stroke="#c0c0c0"></line> <line x1="536.467706013363" x2="536.467706013363" y1="40" y2="440" stroke="#404040" opacity="0.2"></line> <line x1="558.0712694877506" x2="558.0712694877506" y1="440" y2="444" stroke="#c0c0c0"></line> <line x1="558.0712694877506" x2="558.0712694877506" y1="40" y2="440" stroke="#404040" opacity="0.2"></line> <text y="454" x="558.0712694877506" fill="#c0c0c0" font-size="12" text-anchor="middle" font-family="sans-serif"> 1000</text> <line x1="579.6748329621381" x2="579.6748329621381" y1="440" y2="442" stroke="#c0c0c0"></line> <line x1="579.6748329621381" x2="579.6748329621381" y1="40" y2="440" stroke="#404040" opacity="0.2"></line> <line x1="601.2783964365256" x2="601.2783964365256" y1="440" y2="444" stroke="#c0c0c0"></line> <line x1="601.2783964365256" x2="601.2783964365256" y1="40" y2="440" stroke="#404040" opacity="0.2"></line> <text y="454" x="601.2783964365256" fill="#c0c0c0" font-size="12" text-anchor="middle" font-family="sans-serif"> 1100</text> <line x1="622.8819599109131" x2="622.8819599109131" y1="440" y2="442" stroke="#c0c0c0"></line> <line x1="622.8819599109131" x2="622.8819599109131" y1="40" y2="440" stroke="#404040" opacity="0.2"></line> <line x1="644.4855233853007" x2="644.4855233853007" y1="440" y2="444" stroke="#c0c0c0"></line> <line x1="644.4855233853007" x2="644.4855233853007" y1="40" y2="440" stroke="#404040" opacity="0.2"></line> <text y="454" x="644.4855233853007" fill="#c0c0c0" font-size="12" text-anchor="middle" font-family="sans-serif"> 1200</text> <line x1="666.0890868596882" x2="666.0890868596882" y1="440" y2="442" stroke="#c0c0c0"></line> <line x1="666.0890868596882" x2="666.0890868596882" y1="40" y2="440" stroke="#404040" opacity="0.2"></line> <line x1="687.6926503340757" x2="687.6926503340757" y1="440" y2="444" stroke="#c0c0c0"></line> <line x1="687.6926503340757" x2="687.6926503340757" y1="40" y2="440" stroke="#404040" opacity="0.2"></line> <text y="454" x="687.6926503340757" fill="#c0c0c0" font-size="12" text-anchor="middle" font-family="sans-serif"> 1300</text> <line x1="126" x2="126" y1="40" y2="445" stroke="#c0c0c0"></line> <line x1="121" x2="708" y1="440" y2="440" stroke="#c0c0c0"></line></svg>