<svg width="728" height="1200" version="1.1" xmlns="http://www.w3.org/2000/svg" xmlns:xlink="http://www.w3.org/1999/xlink"> <rect width="728" height="1200" x="0" y="0" fill="#101010"></rect> <text y="23" x="432" fill="#c0c0c0" font-size="12" font-weight="bold" text-anchor="middle" font-family="sans-serif"> How Much Higher Would A Director Place</text> <rect width="551" height="19.8" x="157" y="41.1" fill="#e6194b"></rect> <text y="58" x="5" fill="#c0c0c0" font-weight="normal" font-size="12" text-anchor="left" font-family="sans-serif"> James Benning</text> <rect width="322.74610244988867" height="19.8" x="157" y="63.1" fill="#3cb44b"></rect> <text y="80" x="5" fill="#c0c0c0" font-weight="normal" font-size="12" text-anchor="left" font-family="sans-serif"> Ra&#250;l Ruiz</text> <rect width="319.8827023014105" height="19.8" x="157" y="85.1" fill="#ffe119"></rect> <text y="102" x="5" fill="#c0c0c0" font-weight="normal" font-size="12" text-anchor="left" font-family="sans-serif"> Jim Jarmusch</text> <rect width="314.15590200445433" height="19.8" x="157" y="107.1" fill="#4363d8"></rect> <text y="124" x="5" fill="#c0c0c0" font-weight="normal" font-size="12" text-anchor="left" font-family="sans-serif"> Lav D&#237;az</text> <rect width="267.9324424647364" height="19.8" x="157" y="129.1" fill="#f58231"></rect> <text y="146" x="5" fill="#c0c0c0" font-weight="normal" font-size="12" text-anchor="left" font-family="sans-serif"> Hong Sang-soo</text> <rect width="263.84187082405344" height="19.8" x="157" y="151.1" fill="#911eb4"></rect> <text y="168" x="5" fill="#c0c0c0" font-weight="normal" font-size="12" text-anchor="left" font-family="sans-serif"> Leonardo Favio</text> <rect width="263.4328136599852" height="19.8" x="157" y="173.1" fill="#46f0f0"></rect> <text y="190" x="5" fill="#c0c0c0" font-weight="normal" font-size="12" text-anchor="left" font-family="sans-serif"> Jafar Panahi</text> <rect width="261.7965850037119" height="19.8" x="157" y="195.1" fill="#f032e6"></rect> <text y="212" x="5" fill="#c0c0c0" font-weight="normal" font-size="12" text-anchor="left" font-family="sans-serif"> Wes Anderson</text> <rect width="236.02598366740904" height="19.8" x="157" y="217.1" fill="#bcf60c"></rect> <text y="234" x="5" fill="#c0c0c0" font-weight="normal" font-size="12" text-anchor="left" font-family="sans-serif"> Daniele Huillet</text> <rect width="222.11804008908686" height="19.8" x="157" y="239.1" fill="#fabebe"></rect> <text y="256" x="5" fill="#c0c0c0" font-weight="normal" font-size="12" text-anchor="left" font-family="sans-serif"> John Huston</text> <rect width="221.29992576095026" height="19.8" x="157" y="261.1" fill="#008080"></rect> <text y="278" x="5" fill="#c0c0c0" font-weight="normal" font-size="12" text-anchor="left" font-family="sans-serif"> Manoel de Oliveira</text> <rect width="217.20935412026725" height="19.8" x="157" y="283.1" fill="#e6beff"></rect> <text y="300" x="5" fill="#c0c0c0" font-weight="normal" font-size="12" text-anchor="left" font-family="sans-serif"> Clint Eastwood</text> <rect width="215.98218262806236" height="19.8" x="157" y="305.1" fill="#9a6324"></rect> <text y="322" x="5" fill="#c0c0c0" font-weight="normal" font-size="12" text-anchor="left" font-family="sans-serif"> Aleksandr Sokurov</text> <rect width="198.39272457312546" height="19.8" x="157" y="327.1" fill="#fffac8"></rect> <text y="344" x="5" fill="#c0c0c0" font-weight="normal" font-size="12" text-anchor="left" font-family="sans-serif"> Mikio Naruse</text> <rect width="196.34743875278397" height="19.8" x="157" y="349.1" fill="#800000"></rect> <text y="366" x="5" fill="#c0c0c0" font-weight="normal" font-size="12" text-anchor="left" font-family="sans-serif"> Stan Brakhage</text> <rect width="188.57535263548627" height="19.8" x="157" y="371.1" fill="#aaffc3"></rect> <text y="388" x="5" fill="#c0c0c0" font-weight="normal" font-size="12" text-anchor="left" font-family="sans-serif"> Alexei German</text> <rect width="182.84855233853006" height="19.8" x="157" y="393.1" fill="#808000"></rect> <text y="410" x="5" fill="#c0c0c0" font-weight="normal" font-size="12" text-anchor="left" font-family="sans-serif"> Frederick Wiseman</text> <rect width="180.39420935412028" height="19.8" x="157" y="415.1" fill="#ffd8b1"></rect> <text y="432" x="5" fill="#c0c0c0" font-weight="normal" font-size="12" text-anchor="left" font-family="sans-serif"> Shohei Imamura</text> <rect width="175.89458054936895" height="19.8" x="157" y="437.1" fill="#000075"></rect> <text y="454" x="5" fill="#c0c0c0" font-weight="normal" font-size="12" text-anchor="left" font-family="sans-serif"> Abderrahmane Sissako</text> <rect width="168.12249443207128" height="19.8" x="157" y="459.1" fill="#808080"></rect> <text y="476" x="5" fill="#c0c0c0" font-weight="normal" font-size="12" text-anchor="left" font-family="sans-serif"> Sidney Lumet</text> <rect width="166.48626577579805" height="19.8" x="157" y="481.1" fill="#ffffff"></rect> <text y="498" x="5" fill="#c0c0c0" font-weight="normal" font-size="12" text-anchor="left" font-family="sans-serif"> Paul Verhoeven</text> <rect width="163.62286562731995" height="19.8" x="157" y="503.1" fill="#000000"></rect> <text y="520" x="5" fill="#c0c0c0" font-weight="normal" font-size="12" text-anchor="left" font-family="sans-serif"> Josef von Sternberg</text> <rect width="161.98663697104678" height="19.8" x="157" y="525.1" fill="#e6194b"></rect> <text y="542" x="5" fill="#c0c0c0" font-weight="normal" font-size="12" text-anchor="left" font-family="sans-serif"> Peter Bogdanovich</text> <rect width="161.16852264291018" height="19.8" x="157" y="547.1" fill="#3cb44b"></rect> <text y="564" x="5" fill="#c0c0c0" font-weight="normal" font-size="12" text-anchor="left" font-family="sans-serif"> Kira Muratova</text> <rect width="158.7141796585004" height="19.8" x="157" y="569.1" fill="#ffe119"></rect> <text y="586" x="5" fill="#c0c0c0" font-weight="normal" font-size="12" text-anchor="left" font-family="sans-serif"> Maurice Pialat</text> <rect width="155.44172234595396" height="19.8" x="157" y="591.1" fill="#4363d8"></rect> <text y="608" x="5" fill="#c0c0c0" font-weight="normal" font-size="12" text-anchor="left" font-family="sans-serif"> David Fincher</text> <rect width="154.21455085374907" height="19.8" x="157" y="613.1" fill="#f58231"></rect> <text y="630" x="5" fill="#c0c0c0" font-weight="normal" font-size="12" text-anchor="left" font-family="sans-serif"> Miklos Jancs&#243;</text> <rect width="153.8054936896808" height="19.8" x="157" y="635.1" fill="#911eb4"></rect> <text y="652" x="5" fill="#c0c0c0" font-weight="normal" font-size="12" text-anchor="left" font-family="sans-serif"> James Cameron</text> <rect width="143.57906458797325" height="19.8" x="157" y="657.1" fill="#46f0f0"></rect> <text y="674" x="5" fill="#c0c0c0" font-weight="normal" font-size="12" text-anchor="left" font-family="sans-serif"> George A. Romero</text> <rect width="140.30660727542687" height="19.8" x="157" y="679.1" fill="#f032e6"></rect> <text y="696" x="5" fill="#c0c0c0" font-weight="normal" font-size="12" text-anchor="left" font-family="sans-serif"> Jean Cocteau</text> <rect width="138.26132145508538" height="19.8" x="157" y="701.1" fill="#bcf60c"></rect> <text y="718" x="5" fill="#c0c0c0" font-weight="normal" font-size="12" text-anchor="left" font-family="sans-serif"> Andrzej Wajda</text> <rect width="137.0341499628805" height="19.8" x="157" y="723.1" fill="#fabebe"></rect> <text y="740" x="5" fill="#c0c0c0" font-weight="normal" font-size="12" text-anchor="left" font-family="sans-serif"> Elia Kazan</text> <rect width="135.80697847067557" height="19.8" x="157" y="745.1" fill="#008080"></rect> <text y="762" x="5" fill="#c0c0c0" font-weight="normal" font-size="12" text-anchor="left" font-family="sans-serif"> Christopher Nolan</text> <rect width="134.17074981440237" height="19.8" x="157" y="767.1" fill="#e6beff"></rect> <text y="784" x="5" fill="#c0c0c0" font-weight="normal" font-size="12" text-anchor="left" font-family="sans-serif"> Rob Reiner</text> <rect width="133.76169265033408" height="19.8" x="157" y="789.1" fill="#9a6324"></rect> <text y="806" x="5" fill="#c0c0c0" font-weight="normal" font-size="12" text-anchor="left" font-family="sans-serif"> Tod Browning</text> <rect width="133.35263548626577" height="19.8" x="157" y="811.1" fill="#fffac8"></rect> <text y="828" x="5" fill="#c0c0c0" font-weight="normal" font-size="12" text-anchor="left" font-family="sans-serif"> Jean-Marie Straub</text> <rect width="130.48923533778768" height="19.8" x="157" y="833.1" fill="#800000"></rect> <text y="850" x="5" fill="#c0c0c0" font-weight="normal" font-size="12" text-anchor="left" font-family="sans-serif"> Steve McQueen</text> <rect width="130.0801781737194" height="19.8" x="157" y="855.1" fill="#aaffc3"></rect> <text y="872" x="5" fill="#c0c0c0" font-weight="normal" font-size="12" text-anchor="left" font-family="sans-serif"> Andy Warhol</text> <rect width="129.2620638455828" height="19.8" x="157" y="877.1" fill="#808000"></rect> <text y="894" x="5" fill="#c0c0c0" font-weight="normal" font-size="12" text-anchor="left" font-family="sans-serif"> Kathryn Bigelow</text> <rect width="127.62583518930957" height="19.8" x="157" y="899.1" fill="#ffd8b1"></rect> <text y="916" x="5" fill="#c0c0c0" font-weight="normal" font-size="12" text-anchor="left" font-family="sans-serif"> Masaki Kobayashi</text> <rect width="125.58054936896808" height="19.8" x="157" y="921.1" fill="#000075"></rect> <text y="938" x="5" fill="#c0c0c0" font-weight="normal" font-size="12" text-anchor="left" font-family="sans-serif"> William Friedkin</text> <rect width="125.17149220489978" height="19.8" x="157" y="943.1" fill="#808080"></rect> <text y="960" x="5" fill="#c0c0c0" font-weight="normal" font-size="12" text-anchor="left" font-family="sans-serif"> Ang Lee</text> <rect width="123.12620638455829" height="19.8" x="157" y="965.1" fill="#ffffff"></rect> <text y="982" x="5" fill="#c0c0c0" font-weight="normal" font-size="12" text-anchor="left" font-family="sans-serif"> Andrea Arnold</text> <rect width="119.03563474387528" height="19.8" x="157" y="987.1" fill="#000000"></rect> <text y="1004" x="5" fill="#c0c0c0" font-weight="normal" font-size="12" text-anchor="left" font-family="sans-serif"> Lina Wertm&#252;ller</text> <rect width="118.21752041573868" height="19.8" x="157" y="1009.1" fill="#e6194b"></rect> <text y="1026" x="5" fill="#c0c0c0" font-weight="normal" font-size="12" text-anchor="left" font-family="sans-serif"> Jia Zhangke</text> <rect width="116.99034892353379" height="19.8" x="157" y="1031.1" fill="#3cb44b"></rect> <text y="1048" x="5" fill="#c0c0c0" font-weight="normal" font-size="12" text-anchor="left" font-family="sans-serif"> Jonathan Demme</text> <rect width="116.17223459539717" height="19.8" x="157" y="1053.1" fill="#ffe119"></rect> <text y="1070" x="5" fill="#c0c0c0" font-weight="normal" font-size="12" text-anchor="left" font-family="sans-serif"> Joseph Losey</text> <rect width="112.89977728285078" height="19.8" x="157" y="1075.1" fill="#4363d8"></rect> <text y="1092" x="5" fill="#c0c0c0" font-weight="normal" font-size="12" text-anchor="left" font-family="sans-serif"> Milos Forman</text> <rect width="112.89977728285078" height="19.8" x="157" y="1097.1" fill="#f58231"></rect> <text y="1114" x="5" fill="#c0c0c0" font-weight="normal" font-size="12" text-anchor="left" font-family="sans-serif"> Kelly Reichardt</text> <rect width="108.80920564216778" height="19.8" x="157" y="1119.1" fill="#911eb4"></rect> <text y="1136" x="5" fill="#c0c0c0" font-weight="normal" font-size="12" text-anchor="left" font-family="sans-serif"> George Cukor</text> <line x1="157.0" x2="157.0" y1="1140" y2="1144" stroke="#c0c0c0"></line> <line x1="157.0" x2="157.0" y1="40" y2="1140" stroke="#404040" opacity="0.2"></line> <text y="1154" x="157.0" fill="#c0c0c0" font-weight="normal" font-size="12" text-anchor="middle" font-family="sans-serif"> 0</text> <line x1="177.452858203415" x2="177.452858203415" y1="1140" y2="1142" stroke="#c0c0c0"></line> <line x1="177.452858203415" x2="177.452858203415" y1="40" y2="1140" stroke="#404040" opacity="0.2"></line> <line x1="197.90571640682998" x2="197.90571640682998" y1="1140" y2="1144" stroke="#c0c0c0"></line> <line x1="197.90571640682998" x2="197.90571640682998" y1="40" y2="1140" stroke="#404040" opacity="0.2"></line> <text y="1154" x="197.90571640682998" fill="#c0c0c0" font-weight="normal" font-size="12" text-anchor="middle" font-family="sans-serif"> 100</text> <line x1="218.358574610245" x2="218.358574610245" y1="1140" y2="1142" stroke="#c0c0c0"></line> <line x1="218.358574610245" x2="218.358574610245" y1="40" y2="1140" stroke="#404040" opacity="0.2"></line> <line x1="238.81143281365996" x2="238.81143281365996" y1="1140" y2="1144" stroke="#c0c0c0"></line> <line x1="238.81143281365996" x2="238.81143281365996" y1="40" y2="1140" stroke="#404040" opacity="0.2"></line> <text y="1154" x="238.81143281365996" fill="#c0c0c0" font-weight="normal" font-size="12" text-anchor="middle" font-family="sans-serif"> 200</text> <line x1="259.264291017075" x2="259.264291017075" y1="1140" y2="1142" stroke="#c0c0c0"></line> <line x1="259.264291017075" x2="259.264291017075" y1="40" y2="1140" stroke="#404040" opacity="0.2"></line> <line x1="279.71714922049" x2="279.71714922049" y1="1140" y2="1144" stroke="#c0c0c0"></line> <line x1="279.71714922049" x2="279.71714922049" y1="40" y2="1140" stroke="#404040" opacity="0.2"></line> <text y="1154" x="279.71714922049" fill="#c0c0c0" font-weight="normal" font-size="12" text-anchor="middle" font-family="sans-serif"> 300</text> <line x1="300.17000742390496" x2="300.17000742390496" y1="1140" y2="1142" stroke="#c0c0c0"></line> <line x1="300.17000742390496" x2="300.17000742390496" y1="40" y2="1140" stroke="#404040" opacity="0.2"></line> <line x1="320.6228656273199" x2="320.6228656273199" y1="1140" y2="1144" stroke="#c0c0c0"></line> <line x1="320.6228656273199" x2="320.6228656273199" y1="40" y2="1140" stroke="#404040" opacity="0.2"></line> <text y="1154" x="320.6228656273199" fill="#c0c0c0" font-weight="normal" font-size="12" text-anchor="middle" font-family="sans-serif"> 400</text> <line x1="341.075723830735" x2="341.075723830735" y1="1140" y2="1142" stroke="#c0c0c0"></line> <line x1="341.075723830735" x2="341.075723830735" y1="40" y2="1140" stroke="#404040" opacity="0.2"></line> <line x1="361.52858203414996" x2="361.52858203414996" y1="1140" y2="1144" stroke="#c0c0c0"></line> <line x1="361.52858203414996" x2="361.52858203414996" y1="40" y2="1140" stroke="#404040" opacity="0.2"></line> <text y="1154" x="361.52858203414996" fill="#c0c0c0" font-weight="normal" font-size="12" text-anchor="middle" font-family="sans-serif"> 500</text> <line x1="381.9814402375649" x2="381.9814402375649" y1="1140" y2="1142" stroke="#c0c0c0"></line> <line x1="381.9814402375649" x2="381.9814402375649" y1="40" y2="1140" stroke="#404040" opacity="0.2"></line> <line x1="402.43429844098" x2="402.43429844098" y1="1140" y2="1144" stroke="#c0c0c0"></line> <line x1="402.43429844098" x2="402.43429844098" y1="40" y2="1140" stroke="#404040" opacity="0.2"></line> <text y="1154" x="402.43429844098" fill="#c0c0c0" font-weight="normal" font-size="12" text-anchor="middle" font-family="sans-serif"> 600</text> <line x1="422.88715664439496" x2="422.88715664439496" y1="1140" y2="1142" stroke="#c0c0c0"></line> <line x1="422.88715664439496" x2="422.88715664439496" y1="40" y2="1140" stroke="#404040" opacity="0.2"></line> <line x1="443.34001484781" x2="443.34001484781" y1="1140" y2="1144" stroke="#c0c0c0"></line> <line x1="443.34001484781" x2="443.34001484781" y1="40" y2="1140" stroke="#404040" opacity="0.2"></line> <text y="1154" x="443.34001484781" fill="#c0c0c0" font-weight="normal" font-size="12" text-anchor="middle" font-family="sans-serif"> 700</text> <line x1="463.79287305122494" x2="463.79287305122494" y1="1140" y2="1142" stroke="#c0c0c0"></line> <line x1="463.79287305122494" x2="463.79287305122494" y1="40" y2="1140" stroke="#404040" opacity="0.2"></line> <line x1="484.2457312546399" x2="484.2457312546399" y1="1140" y2="1144" stroke="#c0c0c0"></line> <line x1="484.2457312546399" x2="484.2457312546399" y1="40" y2="1140" stroke="#404040" opacity="0.2"></line> <text y="1154" x="484.2457312546399" fill="#c0c0c0" font-weight="normal" font-size="12" text-anchor="middle" font-family="sans-serif"> 800</text> <line x1="504.698589458055" x2="504.698589458055" y1="1140" y2="1142" stroke="#c0c0c0"></line> <line x1="504.698589458055" x2="504.698589458055" y1="40" y2="1140" stroke="#404040" opacity="0.2"></line> <line x1="525.15144766147" x2="525.15144766147" y1="1140" y2="1144" stroke="#c0c0c0"></line> <line x1="525.15144766147" x2="525.15144766147" y1="40" y2="1140" stroke="#404040" opacity="0.2"></line> <text y="1154" x="525.15144766147" fill="#c0c0c0" font-weight="normal" font-size="12" text-anchor="middle" font-family="sans-serif"> 900</text> <line x1="545.604305864885" x2="545.604305864885" y1="1140" y2="1142" stroke="#c0c0c0"></line> <line x1="545.604305864885" x2="545.604305864885" y1="40" y2="1140" stroke="#404040" opacity="0.2"></line> <line x1="566.0571640682999" x2="566.0571640682999" y1="1140" y2="1144" stroke="#c0c0c0"></line> <line x1="566.0571640682999" x2="566.0571640682999" y1="40" y2="1140" stroke="#404040" opacity="0.2"></line> <text y="1154" x="566.0571640682999" fill="#c0c0c0" font-weight="normal" font-size="12" text-anchor="middle" font-family="sans-serif"> 1000</text> <line x1="586.5100222717149" x2="586.5100222717149" y1="1140" y2="1142" stroke="#c0c0c0"></line> <line x1="586.5100222717149" x2="586.5100222717149" y1="40" y2="1140" stroke="#404040" opacity="0.2"></line> <line x1="606.9628804751299" x2="606.9628804751299" y1="1140" y2="1144" stroke="#c0c0c0"></line> <line x1="606.9628804751299" x2="606.9628804751299" y1="40" y2="1140" stroke="#404040" opacity="0.2"></line> <text y="1154" x="606.9628804751299" fill="#c0c0c0" font-weight="normal" font-size="12" text-anchor="middle" font-family="sans-serif"> 1100</text> <line x1="627.4157386785449" x2="627.4157386785449" y1="1140" y2="1142" stroke="#c0c0c0"></line> <line x1="627.4157386785449" x2="627.4157386785449" y1="40" y2="1140" stroke="#404040" opacity="0.2"></line> <line x1="647.86859688196" x2="647.86859688196" y1="1140" y2="1144" stroke="#c0c0c0"></line> <line x1="647.86859688196" x2="647.86859688196" y1="40" y2="1140" stroke="#404040" opacity="0.2"></line> <text y="1154" x="647.86859688196" fill="#c0c0c0" font-weight="normal" font-size="12" text-anchor="middle" font-family="sans-serif"> 1200</text> <line x1="668.321455085375" x2="668.321455085375" y1="1140" y2="1142" stroke="#c0c0c0"></line> <line x1="668.321455085375" x2="668.321455085375" y1="40" y2="1140" stroke="#404040" opacity="0.2"></line> <line x1="688.7743132887899" x2="688.7743132887899" y1="1140" y2="1144" stroke="#c0c0c0"></line> <line x1="688.7743132887899" x2="688.7743132887899" y1="40" y2="1140" stroke="#404040" opacity="0.2"></line> <text y="1154" x="688.7743132887899" fill="#c0c0c0" font-weight="normal" font-size="12" text-anchor="middle" font-family="sans-serif"> 1300</text> <line x1="157" x2="157" y1="40" y2="1145" stroke="#c0c0c0"></line> <line x1="152" x2="708" y1="1140" y2="1140" stroke="#c0c0c0"></line></svg>