<svg width="728" height="600" version="1.1" xmlns="http://www.w3.org/2000/svg" xmlns:xlink="http://www.w3.org/1999/xlink"> <rect width="728" height="600" x="0" y="0" fill="#101010"></rect> <text y="23" x="421" fill="#c0c0c0" font-size="12" font-weight="bold" text-anchor="middle" font-family="sans-serif"> How Much Lower Would A Director Place</text> <rect width="573" height="20.454545454545453" x="135" y="41.13636363636363" fill="#e6194b"></rect> <text y="58.36363636363636" x="5" fill="#c0c0c0" font-weight="normal" font-size="12" text-anchor="left" font-family="sans-serif"> Gillo Pontecorvo</text> <rect width="537.1875" height="20.454545454545453" x="135" y="63.86363636363636" fill="#3cb44b"></rect> <text y="81.09090909090908" x="5" fill="#c0c0c0" font-weight="normal" font-size="12" text-anchor="left" font-family="sans-serif"> Maya Deren</text> <rect width="519.28125" height="20.454545454545453" x="135" y="86.5909090909091" fill="#ffe119"></rect> <text y="103.81818181818181" x="5" fill="#c0c0c0" font-weight="normal" font-size="12" text-anchor="left" font-family="sans-serif"> Charles Laughton</text> <rect width="519.28125" height="20.454545454545453" x="135" y="109.31818181818183" fill="#4363d8"></rect> <text y="126.54545454545455" x="5" fill="#c0c0c0" font-weight="normal" font-size="12" text-anchor="left" font-family="sans-serif"> Claude Lanzmann</text> <rect width="483.46875" height="20.454545454545453" x="135" y="132.04545454545453" fill="#f58231"></rect> <text y="149.27272727272728" x="5" fill="#c0c0c0" font-weight="normal" font-size="12" text-anchor="left" font-family="sans-serif"> Barbara Loden</text> <rect width="447.65625" height="20.454545454545453" x="135" y="154.77272727272725" fill="#911eb4"></rect> <text y="172.0" x="5" fill="#c0c0c0" font-weight="normal" font-size="12" text-anchor="left" font-family="sans-serif"> V&#283;ra Chytilov&#225;</text> <rect width="447.65625" height="20.454545454545453" x="135" y="177.5" fill="#46f0f0"></rect> <text y="194.72727272727275" x="5" fill="#c0c0c0" font-weight="normal" font-size="12" text-anchor="left" font-family="sans-serif"> Julie Dash</text> <rect width="429.75" height="20.454545454545453" x="135" y="200.22727272727272" fill="#f032e6"></rect> <text y="217.45454545454547" x="5" fill="#c0c0c0" font-weight="normal" font-size="12" text-anchor="left" font-family="sans-serif"> Gene Kelly</text> <rect width="411.84375" height="20.454545454545453" x="135" y="222.95454545454544" fill="#bcf60c"></rect> <text y="240.1818181818182" x="5" fill="#c0c0c0" font-weight="normal" font-size="12" text-anchor="left" font-family="sans-serif"> Dziga Vertov</text> <rect width="411.84375" height="20.454545454545453" x="135" y="245.68181818181816" fill="#fabebe"></rect> <text y="262.9090909090909" x="5" fill="#c0c0c0" font-weight="normal" font-size="12" text-anchor="left" font-family="sans-serif"> Charles Burnett</text> <rect width="376.03125" height="20.454545454545453" x="135" y="268.4090909090909" fill="#008080"></rect> <text y="285.6363636363636" x="5" fill="#c0c0c0" font-weight="normal" font-size="12" text-anchor="left" font-family="sans-serif"> Barry Jenkins</text> <rect width="340.21875" height="20.454545454545453" x="135" y="291.1363636363636" fill="#e6beff"></rect> <text y="308.3636363636364" x="5" fill="#c0c0c0" font-weight="normal" font-size="12" text-anchor="left" font-family="sans-serif"> Jacques Tati</text> <rect width="322.3125" height="20.454545454545453" x="135" y="313.8636363636364" fill="#9a6324"></rect> <text y="331.0909090909091" x="5" fill="#c0c0c0" font-weight="normal" font-size="12" text-anchor="left" font-family="sans-serif"> Elem Klimov</text> <rect width="286.5" height="20.454545454545453" x="135" y="336.59090909090907" fill="#fffac8"></rect> <text y="353.8181818181818" x="5" fill="#c0c0c0" font-weight="normal" font-size="12" text-anchor="left" font-family="sans-serif"> Carol Reed</text> <rect width="268.59375" height="20.454545454545453" x="135" y="359.3181818181818" fill="#800000"></rect> <text y="376.54545454545456" x="5" fill="#c0c0c0" font-weight="normal" font-size="12" text-anchor="left" font-family="sans-serif"> Jean Vigo</text> <rect width="250.6875" height="20.454545454545453" x="135" y="382.0454545454545" fill="#aaffc3"></rect> <text y="399.27272727272725" x="5" fill="#c0c0c0" font-weight="normal" font-size="12" text-anchor="left" font-family="sans-serif"> Claire Denis</text> <rect width="250.6875" height="20.454545454545453" x="135" y="404.77272727272725" fill="#808000"></rect> <text y="422.0" x="5" fill="#c0c0c0" font-weight="normal" font-size="12" text-anchor="left" font-family="sans-serif"> Spike Lee</text> <rect width="232.78125" height="20.454545454545453" x="135" y="427.5" fill="#ffd8b1"></rect> <text y="444.72727272727275" x="5" fill="#c0c0c0" font-weight="normal" font-size="12" text-anchor="left" font-family="sans-serif"> Buster Keaton</text> <rect width="232.78125" height="20.454545454545453" x="135" y="450.2272727272727" fill="#000075"></rect> <text y="467.45454545454544" x="5" fill="#c0c0c0" font-weight="normal" font-size="12" text-anchor="left" font-family="sans-serif"> Michael Curtiz</text> <rect width="232.78125" height="20.454545454545453" x="135" y="472.95454545454544" fill="#808080"></rect> <text y="490.1818181818182" x="5" fill="#c0c0c0" font-weight="normal" font-size="12" text-anchor="left" font-family="sans-serif"> Forough Farokhzad</text> <rect width="214.875" height="20.454545454545453" x="135" y="495.68181818181813" fill="#ffffff"></rect> <text y="512.9090909090909" x="5" fill="#c0c0c0" font-weight="normal" font-size="12" text-anchor="left" font-family="sans-serif"> F.W. Murnau</text> <rect width="196.96875" height="20.454545454545453" x="135" y="518.4090909090909" fill="#000000"></rect> <text y="535.6363636363636" x="5" fill="#c0c0c0" font-weight="normal" font-size="12" text-anchor="left" font-family="sans-serif"> Tobe Hooper</text> <line x1="135.0" x2="135.0" y1="540" y2="544" stroke="#c0c0c0"></line> <line x1="135.0" x2="135.0" y1="40" y2="540" stroke="#404040" opacity="0.2"></line> <text y="554" x="135.0" fill="#c0c0c0" font-weight="normal" font-size="12" text-anchor="middle" font-family="sans-serif"> 0</text> <line x1="152.90625" x2="152.90625" y1="540" y2="544" stroke="#c0c0c0"></line> <line x1="152.90625" x2="152.90625" y1="40" y2="540" stroke="#404040" opacity="0.2"></line> <text y="554" x="152.90625" fill="#c0c0c0" font-weight="normal" font-size="12" text-anchor="middle" font-family="sans-serif"> 1</text> <line x1="170.8125" x2="170.8125" y1="540" y2="544" stroke="#c0c0c0"></line> <line x1="170.8125" x2="170.8125" y1="40" y2="540" stroke="#404040" opacity="0.2"></line> <text y="554" x="170.8125" fill="#c0c0c0" font-weight="normal" font-size="12" text-anchor="middle" font-family="sans-serif"> 2</text> <line x1="188.71875" x2="188.71875" y1="540" y2="544" stroke="#c0c0c0"></line> <line x1="188.71875" x2="188.71875" y1="40" y2="540" stroke="#404040" opacity="0.2"></line> <text y="554" x="188.71875" fill="#c0c0c0" font-weight="normal" font-size="12" text-anchor="middle" font-family="sans-serif"> 3</text> <line x1="206.625" x2="206.625" y1="540" y2="544" stroke="#c0c0c0"></line> <line x1="206.625" x2="206.625" y1="40" y2="540" stroke="#404040" opacity="0.2"></line> <text y="554" x="206.625" fill="#c0c0c0" font-weight="normal" font-size="12" text-anchor="middle" font-family="sans-serif"> 4</text> <line x1="224.53125" x2="224.53125" y1="540" y2="544" stroke="#c0c0c0"></line> <line x1="224.53125" x2="224.53125" y1="40" y2="540" stroke="#404040" opacity="0.2"></line> <text y="554" x="224.53125" fill="#c0c0c0" font-weight="normal" font-size="12" text-anchor="middle" font-family="sans-serif"> 5</text> <line x1="242.4375" x2="242.4375" y1="540" y2="544" stroke="#c0c0c0"></line> <line x1="242.4375" x2="242.4375" y1="40" y2="540" stroke="#404040" opacity="0.2"></line> <text y="554" x="242.4375" fill="#c0c0c0" font-weight="normal" font-size="12" text-anchor="middle" font-family="sans-serif"> 6</text> <line x1="260.34375" x2="260.34375" y1="540" y2="544" stroke="#c0c0c0"></line> <line x1="260.34375" x2="260.34375" y1="40" y2="540" stroke="#404040" opacity="0.2"></line> <text y="554" x="260.34375" fill="#c0c0c0" font-weight="normal" font-size="12" text-anchor="middle" font-family="sans-serif"> 7</text> <line x1="278.25" x2="278.25" y1="540" y2="544" stroke="#c0c0c0"></line> <line x1="278.25" x2="278.25" y1="40" y2="540" stroke="#404040" opacity="0.2"></line> <text y="554" x="278.25" fill="#c0c0c0" font-weight="normal" font-size="12" text-anchor="middle" font-family="sans-serif"> 8</text> <line x1="296.15625" x2="296.15625" y1="540" y2="544" stroke="#c0c0c0"></line> <line x1="296.15625" x2="296.15625" y1="40" y2="540" stroke="#404040" opacity="0.2"></line> <text y="554" x="296.15625" fill="#c0c0c0" font-weight="normal" font-size="12" text-anchor="middle" font-family="sans-serif"> 9</text> <line x1="314.0625" x2="314.0625" y1="540" y2="544" stroke="#c0c0c0"></line> <line x1="314.0625" x2="314.0625" y1="40" y2="540" stroke="#404040" opacity="0.2"></line> <text y="554" x="314.0625" fill="#c0c0c0" font-weight="normal" font-size="12" text-anchor="middle" font-family="sans-serif"> 10</text> <line x1="331.96875" x2="331.96875" y1="540" y2="544" stroke="#c0c0c0"></line> <line x1="331.96875" x2="331.96875" y1="40" y2="540" stroke="#404040" opacity="0.2"></line> <text y="554" x="331.96875" fill="#c0c0c0" font-weight="normal" font-size="12" text-anchor="middle" font-family="sans-serif"> 11</text> <line x1="349.875" x2="349.875" y1="540" y2="544" stroke="#c0c0c0"></line> <line x1="349.875" x2="349.875" y1="40" y2="540" stroke="#404040" opacity="0.2"></line> <text y="554" x="349.875" fill="#c0c0c0" font-weight="normal" font-size="12" text-anchor="middle" font-family="sans-serif"> 12</text> <line x1="367.78125" x2="367.78125" y1="540" y2="544" stroke="#c0c0c0"></line> <line x1="367.78125" x2="367.78125" y1="40" y2="540" stroke="#404040" opacity="0.2"></line> <text y="554" x="367.78125" fill="#c0c0c0" font-weight="normal" font-size="12" text-anchor="middle" font-family="sans-serif"> 13</text> <line x1="385.6875" x2="385.6875" y1="540" y2="544" stroke="#c0c0c0"></line> <line x1="385.6875" x2="385.6875" y1="40" y2="540" stroke="#404040" opacity="0.2"></line> <text y="554" x="385.6875" fill="#c0c0c0" font-weight="normal" font-size="12" text-anchor="middle" font-family="sans-serif"> 14</text> <line x1="403.59375" x2="403.59375" y1="540" y2="544" stroke="#c0c0c0"></line> <line x1="403.59375" x2="403.59375" y1="40" y2="540" stroke="#404040" opacity="0.2"></line> <text y="554" x="403.59375" fill="#c0c0c0" font-weight="normal" font-size="12" text-anchor="middle" font-family="sans-serif"> 15</text> <line x1="421.5" x2="421.5" y1="540" y2="544" stroke="#c0c0c0"></line> <line x1="421.5" x2="421.5" y1="40" y2="540" stroke="#404040" opacity="0.2"></line> <text y="554" x="421.5" fill="#c0c0c0" font-weight="normal" font-size="12" text-anchor="middle" font-family="sans-serif"> 16</text> <line x1="439.40625" x2="439.40625" y1="540" y2="544" stroke="#c0c0c0"></line> <line x1="439.40625" x2="439.40625" y1="40" y2="540" stroke="#404040" opacity="0.2"></line> <text y="554" x="439.40625" fill="#c0c0c0" font-weight="normal" font-size="12" text-anchor="middle" font-family="sans-serif"> 17</text> <line x1="457.3125" x2="457.3125" y1="540" y2="544" stroke="#c0c0c0"></line> <line x1="457.3125" x2="457.3125" y1="40" y2="540" stroke="#404040" opacity="0.2"></line> <text y="554" x="457.3125" fill="#c0c0c0" font-weight="normal" font-size="12" text-anchor="middle" font-family="sans-serif"> 18</text> <line x1="475.21875" x2="475.21875" y1="540" y2="544" stroke="#c0c0c0"></line> <line x1="475.21875" x2="475.21875" y1="40" y2="540" stroke="#404040" opacity="0.2"></line> <text y="554" x="475.21875" fill="#c0c0c0" font-weight="normal" font-size="12" text-anchor="middle" font-family="sans-serif"> 19</text> <line x1="493.125" x2="493.125" y1="540" y2="544" stroke="#c0c0c0"></line> <line x1="493.125" x2="493.125" y1="40" y2="540" stroke="#404040" opacity="0.2"></line> <text y="554" x="493.125" fill="#c0c0c0" font-weight="normal" font-size="12" text-anchor="middle" font-family="sans-serif"> 20</text> <line x1="511.03125" x2="511.03125" y1="540" y2="544" stroke="#c0c0c0"></line> <line x1="511.03125" x2="511.03125" y1="40" y2="540" stroke="#404040" opacity="0.2"></line> <text y="554" x="511.03125" fill="#c0c0c0" font-weight="normal" font-size="12" text-anchor="middle" font-family="sans-serif"> 21</text> <line x1="528.9375" x2="528.9375" y1="540" y2="544" stroke="#c0c0c0"></line> <line x1="528.9375" x2="528.9375" y1="40" y2="540" stroke="#404040" opacity="0.2"></line> <text y="554" x="528.9375" fill="#c0c0c0" font-weight="normal" font-size="12" text-anchor="middle" font-family="sans-serif"> 22</text> <line x1="546.84375" x2="546.84375" y1="540" y2="544" stroke="#c0c0c0"></line> <line x1="546.84375" x2="546.84375" y1="40" y2="540" stroke="#404040" opacity="0.2"></line> <text y="554" x="546.84375" fill="#c0c0c0" font-weight="normal" font-size="12" text-anchor="middle" font-family="sans-serif"> 23</text> <line x1="564.75" x2="564.75" y1="540" y2="544" stroke="#c0c0c0"></line> <line x1="564.75" x2="564.75" y1="40" y2="540" stroke="#404040" opacity="0.2"></line> <text y="554" x="564.75" fill="#c0c0c0" font-weight="normal" font-size="12" text-anchor="middle" font-family="sans-serif"> 24</text> <line x1="582.65625" x2="582.65625" y1="540" y2="544" stroke="#c0c0c0"></line> <line x1="582.65625" x2="582.65625" y1="40" y2="540" stroke="#404040" opacity="0.2"></line> <text y="554" x="582.65625" fill="#c0c0c0" font-weight="normal" font-size="12" text-anchor="middle" font-family="sans-serif"> 25</text> <line x1="600.5625" x2="600.5625" y1="540" y2="544" stroke="#c0c0c0"></line> <line x1="600.5625" x2="600.5625" y1="40" y2="540" stroke="#404040" opacity="0.2"></line> <text y="554" x="600.5625" fill="#c0c0c0" font-weight="normal" font-size="12" text-anchor="middle" font-family="sans-serif"> 26</text> <line x1="618.46875" x2="618.46875" y1="540" y2="544" stroke="#c0c0c0"></line> <line x1="618.46875" x2="618.46875" y1="40" y2="540" stroke="#404040" opacity="0.2"></line> <text y="554" x="618.46875" fill="#c0c0c0" font-weight="normal" font-size="12" text-anchor="middle" font-family="sans-serif"> 27</text> <line x1="636.375" x2="636.375" y1="540" y2="544" stroke="#c0c0c0"></line> <line x1="636.375" x2="636.375" y1="40" y2="540" stroke="#404040" opacity="0.2"></line> <text y="554" x="636.375" fill="#c0c0c0" font-weight="normal" font-size="12" text-anchor="middle" font-family="sans-serif"> 28</text> <line x1="654.28125" x2="654.28125" y1="540" y2="544" stroke="#c0c0c0"></line> <line x1="654.28125" x2="654.28125" y1="40" y2="540" stroke="#404040" opacity="0.2"></line> <text y="554" x="654.28125" fill="#c0c0c0" font-weight="normal" font-size="12" text-anchor="middle" font-family="sans-serif"> 29</text> <line x1="672.1875" x2="672.1875" y1="540" y2="544" stroke="#c0c0c0"></line> <line x1="672.1875" x2="672.1875" y1="40" y2="540" stroke="#404040" opacity="0.2"></line> <text y="554" x="672.1875" fill="#c0c0c0" font-weight="normal" font-size="12" text-anchor="middle" font-family="sans-serif"> 30</text> <line x1="690.09375" x2="690.09375" y1="540" y2="544" stroke="#c0c0c0"></line> <line x1="690.09375" x2="690.09375" y1="40" y2="540" stroke="#404040" opacity="0.2"></line> <text y="554" x="690.09375" fill="#c0c0c0" font-weight="normal" font-size="12" text-anchor="middle" font-family="sans-serif"> 31</text> <line x1="708.0" x2="708.0" y1="540" y2="544" stroke="#c0c0c0"></line> <line x1="708.0" x2="708.0" y1="40" y2="540" stroke="#404040" opacity="0.2"></line> <text y="554" x="708.0" fill="#c0c0c0" font-weight="normal" font-size="12" text-anchor="middle" font-family="sans-serif"> 32</text> <line x1="135" x2="135" y1="40" y2="545" stroke="#c0c0c0"></line> <line x1="130" x2="708" y1="540" y2="540" stroke="#c0c0c0"></line></svg>