<svg width="728" height="450" version="1.1" xmlns="http://www.w3.org/2000/svg" xmlns:xlink="http://www.w3.org/1999/xlink"> <rect width="728" height="450" x="0" y="0" fill="#101010"></rect> <text y="23" x="420" fill="#c0c0c0" font-size="12" font-weight="bold" text-anchor="middle" font-family="sans-serif"> How Much Higher Would A Director Place</text> <rect width="575" height="21.0" x="133" y="41.166666666666664" fill="#e6194b"></rect> <text y="58.666666666666664" x="5" fill="#c0c0c0" font-weight="normal" font-size="12" text-anchor="left" font-family="sans-serif"> James Benning</text> <rect width="336.804008908686" height="21.0" x="133" y="64.5" fill="#3cb44b"></rect> <text y="82.0" x="5" fill="#c0c0c0" font-weight="normal" font-size="12" text-anchor="left" font-family="sans-serif"> Ra&#250;l Ruiz</text> <rect width="333.8158871566444" height="21.0" x="133" y="87.83333333333333" fill="#ffe119"></rect> <text y="105.33333333333333" x="5" fill="#c0c0c0" font-weight="normal" font-size="12" text-anchor="left" font-family="sans-serif"> Jim Jarmusch</text> <rect width="327.8396436525612" height="21.0" x="133" y="111.16666666666667" fill="#4363d8"></rect> <text y="128.66666666666666" x="5" fill="#c0c0c0" font-weight="normal" font-size="12" text-anchor="left" font-family="sans-serif"> Lav D&#237;az</text> <rect width="279.60282108389015" height="21.0" x="133" y="134.49999999999997" fill="#f58231"></rect> <text y="151.99999999999997" x="5" fill="#c0c0c0" font-weight="normal" font-size="12" text-anchor="left" font-family="sans-serif"> Hong Sang-soo</text> <rect width="275.3340757238307" height="21.0" x="133" y="157.83333333333331" fill="#911eb4"></rect> <text y="175.33333333333331" x="5" fill="#c0c0c0" font-weight="normal" font-size="12" text-anchor="left" font-family="sans-serif"> Leonardo Favio</text> <rect width="274.9072011878248" height="21.0" x="133" y="181.16666666666666" fill="#46f0f0"></rect> <text y="198.66666666666666" x="5" fill="#c0c0c0" font-weight="normal" font-size="12" text-anchor="left" font-family="sans-serif"> Jafar Panahi</text> <rect width="273.19970304380104" height="21.0" x="133" y="204.49999999999997" fill="#f032e6"></rect> <text y="221.99999999999997" x="5" fill="#c0c0c0" font-weight="normal" font-size="12" text-anchor="left" font-family="sans-serif"> Wes Anderson</text> <rect width="246.30660727542687" height="21.0" x="133" y="227.83333333333331" fill="#bcf60c"></rect> <text y="245.33333333333331" x="5" fill="#c0c0c0" font-weight="normal" font-size="12" text-anchor="left" font-family="sans-serif"> Daniele Huillet</text> <rect width="231.79287305122494" height="21.0" x="133" y="251.16666666666666" fill="#fabebe"></rect> <text y="268.6666666666667" x="5" fill="#c0c0c0" font-weight="normal" font-size="12" text-anchor="left" font-family="sans-serif"> John Huston</text> <rect width="230.93912397921306" height="21.0" x="133" y="274.5" fill="#008080"></rect> <text y="292.0" x="5" fill="#c0c0c0" font-weight="normal" font-size="12" text-anchor="left" font-family="sans-serif"> Manoel de Oliveira</text> <rect width="226.67037861915367" height="21.0" x="133" y="297.8333333333333" fill="#e6beff"></rect> <text y="315.3333333333333" x="5" fill="#c0c0c0" font-weight="normal" font-size="12" text-anchor="left" font-family="sans-serif"> Clint Eastwood</text> <rect width="225.38975501113583" height="21.0" x="133" y="321.1666666666667" fill="#9a6324"></rect> <text y="338.6666666666667" x="5" fill="#c0c0c0" font-weight="normal" font-size="12" text-anchor="left" font-family="sans-serif"> Aleksandr Sokurov</text> <rect width="207.0341499628805" height="21.0" x="133" y="344.5" fill="#fffac8"></rect> <text y="362.0" x="5" fill="#c0c0c0" font-weight="normal" font-size="12" text-anchor="left" font-family="sans-serif"> Mikio Naruse</text> <rect width="204.89977728285078" height="21.0" x="133" y="367.8333333333333" fill="#800000"></rect> <text y="385.3333333333333" x="5" fill="#c0c0c0" font-weight="normal" font-size="12" text-anchor="left" font-family="sans-serif"> Stan Brakhage</text> <line x1="133.0" x2="133.0" y1="390" y2="394" stroke="#c0c0c0"></line> <line x1="133.0" x2="133.0" y1="40" y2="390" stroke="#404040" opacity="0.2"></line> <text y="404" x="133.0" fill="#c0c0c0" font-weight="normal" font-size="12" text-anchor="middle" font-family="sans-serif"> 0</text> <line x1="154.34372680029696" x2="154.34372680029696" y1="390" y2="392" stroke="#c0c0c0"></line> <line x1="154.34372680029696" x2="154.34372680029696" y1="40" y2="390" stroke="#404040" opacity="0.2"></line> <line x1="175.68745360059393" x2="175.68745360059393" y1="390" y2="394" stroke="#c0c0c0"></line> <line x1="175.68745360059393" x2="175.68745360059393" y1="40" y2="390" stroke="#404040" opacity="0.2"></line> <text y="404" x="175.68745360059393" fill="#c0c0c0" font-weight="normal" font-size="12" text-anchor="middle" font-family="sans-serif"> 100</text> <line x1="197.0311804008909" x2="197.0311804008909" y1="390" y2="392" stroke="#c0c0c0"></line> <line x1="197.0311804008909" x2="197.0311804008909" y1="40" y2="390" stroke="#404040" opacity="0.2"></line> <line x1="218.37490720118782" x2="218.37490720118782" y1="390" y2="394" stroke="#c0c0c0"></line> <line x1="218.37490720118782" x2="218.37490720118782" y1="40" y2="390" stroke="#404040" opacity="0.2"></line> <text y="404" x="218.37490720118782" fill="#c0c0c0" font-weight="normal" font-size="12" text-anchor="middle" font-family="sans-serif"> 200</text> <line x1="239.71863400148476" x2="239.71863400148476" y1="390" y2="392" stroke="#c0c0c0"></line> <line x1="239.71863400148476" x2="239.71863400148476" y1="40" y2="390" stroke="#404040" opacity="0.2"></line> <line x1="261.0623608017818" x2="261.0623608017818" y1="390" y2="394" stroke="#c0c0c0"></line> <line x1="261.0623608017818" x2="261.0623608017818" y1="40" y2="390" stroke="#404040" opacity="0.2"></line> <text y="404" x="261.0623608017818" fill="#c0c0c0" font-weight="normal" font-size="12" text-anchor="middle" font-family="sans-serif"> 300</text> <line x1="282.40608760207874" x2="282.40608760207874" y1="390" y2="392" stroke="#c0c0c0"></line> <line x1="282.40608760207874" x2="282.40608760207874" y1="40" y2="390" stroke="#404040" opacity="0.2"></line> <line x1="303.74981440237565" x2="303.74981440237565" y1="390" y2="394" stroke="#c0c0c0"></line> <line x1="303.74981440237565" x2="303.74981440237565" y1="40" y2="390" stroke="#404040" opacity="0.2"></line> <text y="404" x="303.74981440237565" fill="#c0c0c0" font-weight="normal" font-size="12" text-anchor="middle" font-family="sans-serif"> 400</text> <line x1="325.0935412026726" x2="325.0935412026726" y1="390" y2="392" stroke="#c0c0c0"></line> <line x1="325.0935412026726" x2="325.0935412026726" y1="40" y2="390" stroke="#404040" opacity="0.2"></line> <line x1="346.4372680029695" x2="346.4372680029695" y1="390" y2="394" stroke="#c0c0c0"></line> <line x1="346.4372680029695" x2="346.4372680029695" y1="40" y2="390" stroke="#404040" opacity="0.2"></line> <text y="404" x="346.4372680029695" fill="#c0c0c0" font-weight="normal" font-size="12" text-anchor="middle" font-family="sans-serif"> 500</text> <line x1="367.7809948032665" x2="367.7809948032665" y1="390" y2="392" stroke="#c0c0c0"></line> <line x1="367.7809948032665" x2="367.7809948032665" y1="40" y2="390" stroke="#404040" opacity="0.2"></line> <line x1="389.1247216035635" x2="389.1247216035635" y1="390" y2="394" stroke="#c0c0c0"></line> <line x1="389.1247216035635" x2="389.1247216035635" y1="40" y2="390" stroke="#404040" opacity="0.2"></line> <text y="404" x="389.1247216035635" fill="#c0c0c0" font-weight="normal" font-size="12" text-anchor="middle" font-family="sans-serif"> 600</text> <line x1="410.4684484038604" x2="410.4684484038604" y1="390" y2="392" stroke="#c0c0c0"></line> <line x1="410.4684484038604" x2="410.4684484038604" y1="40" y2="390" stroke="#404040" opacity="0.2"></line> <line x1="431.8121752041574" x2="431.8121752041574" y1="390" y2="394" stroke="#c0c0c0"></line> <line x1="431.8121752041574" x2="431.8121752041574" y1="40" y2="390" stroke="#404040" opacity="0.2"></line> <text y="404" x="431.8121752041574" fill="#c0c0c0" font-weight="normal" font-size="12" text-anchor="middle" font-family="sans-serif"> 700</text> <line x1="453.15590200445433" x2="453.15590200445433" y1="390" y2="392" stroke="#c0c0c0"></line> <line x1="453.15590200445433" x2="453.15590200445433" y1="40" y2="390" stroke="#404040" opacity="0.2"></line> <line x1="474.4996288047513" x2="474.4996288047513" y1="390" y2="394" stroke="#c0c0c0"></line> <line x1="474.4996288047513" x2="474.4996288047513" y1="40" y2="390" stroke="#404040" opacity="0.2"></line> <text y="404" x="474.4996288047513" fill="#c0c0c0" font-weight="normal" font-size="12" text-anchor="middle" font-family="sans-serif"> 800</text> <line x1="495.84335560504826" x2="495.84335560504826" y1="390" y2="392" stroke="#c0c0c0"></line> <line x1="495.84335560504826" x2="495.84335560504826" y1="40" y2="390" stroke="#404040" opacity="0.2"></line> <line x1="517.1870824053452" x2="517.1870824053452" y1="390" y2="394" stroke="#c0c0c0"></line> <line x1="517.1870824053452" x2="517.1870824053452" y1="40" y2="390" stroke="#404040" opacity="0.2"></line> <text y="404" x="517.1870824053452" fill="#c0c0c0" font-weight="normal" font-size="12" text-anchor="middle" font-family="sans-serif"> 900</text> <line x1="538.5308092056421" x2="538.5308092056421" y1="390" y2="392" stroke="#c0c0c0"></line> <line x1="538.5308092056421" x2="538.5308092056421" y1="40" y2="390" stroke="#404040" opacity="0.2"></line> <line x1="559.874536005939" x2="559.874536005939" y1="390" y2="394" stroke="#c0c0c0"></line> <line x1="559.874536005939" x2="559.874536005939" y1="40" y2="390" stroke="#404040" opacity="0.2"></line> <text y="404" x="559.874536005939" fill="#c0c0c0" font-weight="normal" font-size="12" text-anchor="middle" font-family="sans-serif"> 1000</text> <line x1="581.2182628062361" x2="581.2182628062361" y1="390" y2="392" stroke="#c0c0c0"></line> <line x1="581.2182628062361" x2="581.2182628062361" y1="40" y2="390" stroke="#404040" opacity="0.2"></line> <line x1="602.561989606533" x2="602.561989606533" y1="390" y2="394" stroke="#c0c0c0"></line> <line x1="602.561989606533" x2="602.561989606533" y1="40" y2="390" stroke="#404040" opacity="0.2"></line> <text y="404" x="602.561989606533" fill="#c0c0c0" font-weight="normal" font-size="12" text-anchor="middle" font-family="sans-serif"> 1100</text> <line x1="623.9057164068299" x2="623.9057164068299" y1="390" y2="392" stroke="#c0c0c0"></line> <line x1="623.9057164068299" x2="623.9057164068299" y1="40" y2="390" stroke="#404040" opacity="0.2"></line> <line x1="645.249443207127" x2="645.249443207127" y1="390" y2="394" stroke="#c0c0c0"></line> <line x1="645.249443207127" x2="645.249443207127" y1="40" y2="390" stroke="#404040" opacity="0.2"></line> <text y="404" x="645.249443207127" fill="#c0c0c0" font-weight="normal" font-size="12" text-anchor="middle" font-family="sans-serif"> 1200</text> <line x1="666.593170007424" x2="666.593170007424" y1="390" y2="392" stroke="#c0c0c0"></line> <line x1="666.593170007424" x2="666.593170007424" y1="40" y2="390" stroke="#404040" opacity="0.2"></line> <line x1="687.9368968077208" x2="687.9368968077208" y1="390" y2="394" stroke="#c0c0c0"></line> <line x1="687.9368968077208" x2="687.9368968077208" y1="40" y2="390" stroke="#404040" opacity="0.2"></line> <text y="404" x="687.9368968077208" fill="#c0c0c0" font-weight="normal" font-size="12" text-anchor="middle" font-family="sans-serif"> 1300</text> <line x1="133" x2="133" y1="40" y2="395" stroke="#c0c0c0"></line> <line x1="128" x2="708" y1="390" y2="390" stroke="#c0c0c0"></line></svg>