<svg width="728" height="450" version="1.1" xmlns="http://www.w3.org/2000/svg" xmlns:xlink="http://www.w3.org/1999/xlink"> <rect width="728" height="450" x="0" y="0" fill="#101010"></rect> <text y="23" x="389" fill="#c0c0c0" font-size="12" font-weight="bold" text-anchor="middle" font-family="sans-serif"> How Much Higher Would A Director Place</text> <clipPath id="clip-0"> <rect x="70" y="40" width="638" height="260"></rect></clipPath> <rect width="37.8" height="250.15714285714287" x="74.19999999999999" y="49.84285714285713" fill="#e6194b" clip-path="url(#clip-0)"></rect> <rect width="37.8" height="146.52857142857144" x="116.73333333333332" y="153.47142857142856" fill="#3cb44b" clip-path="url(#clip-0)"></rect> <rect width="37.8" height="145.22857142857143" x="159.26666666666665" y="154.77142857142857" fill="#ffe119" clip-path="url(#clip-0)"></rect> <rect width="37.8" height="142.62857142857143" x="201.79999999999998" y="157.37142857142857" fill="#4363d8" clip-path="url(#clip-0)"></rect> <rect width="37.8" height="121.64285714285714" x="244.33333333333334" y="178.35714285714286" fill="#f58231" clip-path="url(#clip-0)"></rect> <rect width="37.8" height="119.78571428571428" x="286.8666666666667" y="180.21428571428572" fill="#911eb4" clip-path="url(#clip-0)"></rect> <rect width="37.8" height="119.60000000000002" x="329.40000000000003" y="180.39999999999998" fill="#46f0f0" clip-path="url(#clip-0)"></rect> <rect width="37.8" height="118.85714285714283" x="371.9333333333334" y="181.14285714285717" fill="#f032e6" clip-path="url(#clip-0)"></rect> <rect width="37.8" height="107.15714285714284" x="414.4666666666667" y="192.84285714285716" fill="#bcf60c" clip-path="url(#clip-0)"></rect> <rect width="37.8" height="100.84285714285716" x="457.0" y="199.15714285714284" fill="#fabebe" clip-path="url(#clip-0)"></rect> <rect width="37.8" height="100.47142857142859" x="499.5333333333333" y="199.5285714285714" fill="#008080" clip-path="url(#clip-0)"></rect> <rect width="37.8" height="98.6142857142857" x="542.0666666666666" y="201.3857142857143" fill="#e6beff" clip-path="url(#clip-0)"></rect> <rect width="37.8" height="98.05714285714288" x="584.6" y="201.94285714285712" fill="#9a6324" clip-path="url(#clip-0)"></rect> <rect width="37.8" height="90.07142857142856" x="627.1333333333334" y="209.92857142857144" fill="#fffac8" clip-path="url(#clip-0)"></rect> <rect width="37.8" height="89.14285714285714" x="669.6666666666667" y="210.85714285714286" fill="#800000" clip-path="url(#clip-0)"></rect> <text transform="translate(96.1,310) rotate(-90)" fill="#c0c0c0" font-weight="bold" font-size="12" text-anchor="end" font-family="sans-serif"> James Benning</text> <text transform="translate(138.63333333333333,310) rotate(-90)" fill="#c0c0c0" font-weight="bold" font-size="12" text-anchor="end" font-family="sans-serif"> Ra&#250;l Ruiz</text> <text transform="translate(181.16666666666666,310) rotate(-90)" fill="#c0c0c0" font-weight="bold" font-size="12" text-anchor="end" font-family="sans-serif"> Jim Jarmusch</text> <text transform="translate(223.7,310) rotate(-90)" fill="#c0c0c0" font-weight="bold" font-size="12" text-anchor="end" font-family="sans-serif"> Lav D&#237;az</text> <text transform="translate(266.23333333333335,310) rotate(-90)" fill="#c0c0c0" font-weight="bold" font-size="12" text-anchor="end" font-family="sans-serif"> Hong Sang-soo</text> <text transform="translate(308.76666666666665,310) rotate(-90)" fill="#c0c0c0" font-weight="bold" font-size="12" text-anchor="end" font-family="sans-serif"> Leonardo Favio</text> <text transform="translate(351.3,310) rotate(-90)" fill="#c0c0c0" font-weight="bold" font-size="12" text-anchor="end" font-family="sans-serif"> Jafar Panahi</text> <text transform="translate(393.83333333333337,310) rotate(-90)" fill="#c0c0c0" font-weight="bold" font-size="12" text-anchor="end" font-family="sans-serif"> Wes Anderson</text> <text transform="translate(436.3666666666667,310) rotate(-90)" fill="#c0c0c0" font-weight="bold" font-size="12" text-anchor="end" font-family="sans-serif"> Daniele Huillet</text> <text transform="translate(478.9,310) rotate(-90)" fill="#c0c0c0" font-weight="bold" font-size="12" text-anchor="end" font-family="sans-serif"> John Huston</text> <text transform="translate(521.4333333333333,310) rotate(-90)" fill="#c0c0c0" font-weight="bold" font-size="12" text-anchor="end" font-family="sans-serif"> Manoel de Oliveira</text> <text transform="translate(563.9666666666666,310) rotate(-90)" fill="#c0c0c0" font-weight="bold" font-size="12" text-anchor="end" font-family="sans-serif"> Clint Eastwood</text> <text transform="translate(606.5,310) rotate(-90)" fill="#c0c0c0" font-weight="bold" font-size="12" text-anchor="end" font-family="sans-serif"> Aleksandr Sokurov</text> <text transform="translate(649.0333333333334,310) rotate(-90)" fill="#c0c0c0" font-weight="bold" font-size="12" text-anchor="end" font-family="sans-serif"> Mikio Naruse</text> <text transform="translate(691.5666666666667,310) rotate(-90)" fill="#c0c0c0" font-weight="bold" font-size="12" text-anchor="end" font-family="sans-serif"> Stan Brakhage</text> <line x1="70" x2="67" y1="300.0" y2="300.0" stroke="#c0c0c0"></line> <line x1="70" x2="708" y1="300.0" y2="300.0" opacity="0.2" stroke="#a0a0a0"></line> <text y="304.0" x="64" fill="#c0c0c0" font-size="12" text-anchor="end" font-family="sans-serif"> 0</text> <line x1="70" x2="67" y1="281.42857142857144" y2="281.42857142857144" stroke="#c0c0c0"></line> <line x1="70" x2="708" y1="281.42857142857144" y2="281.42857142857144" opacity="0.2" stroke="#a0a0a0"></line> <line x1="70" x2="67" y1="262.8571428571429" y2="262.8571428571429" stroke="#c0c0c0"></line> <line x1="70" x2="708" y1="262.8571428571429" y2="262.8571428571429" opacity="0.2" stroke="#a0a0a0"></line> <text y="266.8571428571429" x="64" fill="#c0c0c0" font-size="12" text-anchor="end" font-family="sans-serif"> 200</text> <line x1="70" x2="67" y1="244.28571428571428" y2="244.28571428571428" stroke="#c0c0c0"></line> <line x1="70" x2="708" y1="244.28571428571428" y2="244.28571428571428" opacity="0.2" stroke="#a0a0a0"></line> <line x1="70" x2="67" y1="225.71428571428572" y2="225.71428571428572" stroke="#c0c0c0"></line> <line x1="70" x2="708" y1="225.71428571428572" y2="225.71428571428572" opacity="0.2" stroke="#a0a0a0"></line> <text y="229.71428571428572" x="64" fill="#c0c0c0" font-size="12" text-anchor="end" font-family="sans-serif"> 400</text> <line x1="70" x2="67" y1="207.14285714285714" y2="207.14285714285714" stroke="#c0c0c0"></line> <line x1="70" x2="708" y1="207.14285714285714" y2="207.14285714285714" opacity="0.2" stroke="#a0a0a0"></line> <line x1="70" x2="67" y1="188.57142857142858" y2="188.57142857142858" stroke="#c0c0c0"></line> <line x1="70" x2="708" y1="188.57142857142858" y2="188.57142857142858" opacity="0.2" stroke="#a0a0a0"></line> <text y="192.57142857142858" x="64" fill="#c0c0c0" font-size="12" text-anchor="end" font-family="sans-serif"> 600</text> <line x1="70" x2="67" y1="170.0" y2="170.0" stroke="#c0c0c0"></line> <line x1="70" x2="708" y1="170.0" y2="170.0" opacity="0.2" stroke="#a0a0a0"></line> <line x1="70" x2="67" y1="151.42857142857144" y2="151.42857142857144" stroke="#c0c0c0"></line> <line x1="70" x2="708" y1="151.42857142857144" y2="151.42857142857144" opacity="0.2" stroke="#a0a0a0"></line> <text y="155.42857142857144" x="64" fill="#c0c0c0" font-size="12" text-anchor="end" font-family="sans-serif"> 800</text> <line x1="70" x2="67" y1="132.85714285714283" y2="132.85714285714283" stroke="#c0c0c0"></line> <line x1="70" x2="708" y1="132.85714285714283" y2="132.85714285714283" opacity="0.2" stroke="#a0a0a0"></line> <line x1="70" x2="67" y1="114.28571428571428" y2="114.28571428571428" stroke="#c0c0c0"></line> <line x1="70" x2="708" y1="114.28571428571428" y2="114.28571428571428" opacity="0.2" stroke="#a0a0a0"></line> <text y="118.28571428571428" x="64" fill="#c0c0c0" font-size="12" text-anchor="end" font-family="sans-serif"> 1000</text> <line x1="70" x2="67" y1="95.71428571428572" y2="95.71428571428572" stroke="#c0c0c0"></line> <line x1="70" x2="708" y1="95.71428571428572" y2="95.71428571428572" opacity="0.2" stroke="#a0a0a0"></line> <line x1="70" x2="67" y1="77.14285714285717" y2="77.14285714285717" stroke="#c0c0c0"></line> <line x1="70" x2="708" y1="77.14285714285717" y2="77.14285714285717" opacity="0.2" stroke="#a0a0a0"></line> <text y="81.14285714285717" x="64" fill="#c0c0c0" font-size="12" text-anchor="end" font-family="sans-serif"> 1200</text> <line x1="70" x2="67" y1="58.571428571428555" y2="58.571428571428555" stroke="#c0c0c0"></line> <line x1="70" x2="708" y1="58.571428571428555" y2="58.571428571428555" opacity="0.2" stroke="#a0a0a0"></line> <line x1="70" x2="67" y1="40.0" y2="40.0" stroke="#c0c0c0"></line> <line x1="70" x2="708" y1="40.0" y2="40.0" opacity="0.2" stroke="#a0a0a0"></line> <text y="44.0" x="64" fill="#c0c0c0" font-size="12" text-anchor="end" font-family="sans-serif"> 1400</text> <line x1="70" x2="70" y1="40" y2="305" stroke="#c0c0c0"></line> <line x1="65" x2="708" y1="300" y2="300" stroke="#c0c0c0"></line></svg>