<svg width="728" height="600" version="1.1" xmlns="http://www.w3.org/2000/svg" xmlns:xlink="http://www.w3.org/1999/xlink"> <rect width="728" height="600" x="0" y="0" fill="#101010"></rect> <text y="23" x="418" fill="#c0c0c0" font-size="12" font-weight="bold" text-anchor="middle" font-family="sans-serif"> How Much Lower Would A Director Place</text> <text y="54.86363636363636" x="5" fill="#c0c0c0" font-weight="normal" font-size="12" text-anchor="left" font-family="sans-serif"> Gillo Pontecorvo</text> <rect width="580" height="20.454545454545453" x="128" y="41.13636363636363" fill="#e6194b"></rect> <text y="77.59090909090908" x="5" fill="#c0c0c0" font-weight="normal" font-size="12" text-anchor="left" font-family="sans-serif"> Maya Deren</text> <rect width="543.75" height="20.454545454545453" x="128" y="63.86363636363636" fill="#3cb44b"></rect> <text y="100.31818181818181" x="5" fill="#c0c0c0" font-weight="normal" font-size="12" text-anchor="left" font-family="sans-serif"> Charles Laughton</text> <rect width="525.625" height="20.454545454545453" x="128" y="86.5909090909091" fill="#ffe119"></rect> <text y="123.04545454545455" x="5" fill="#c0c0c0" font-weight="normal" font-size="12" text-anchor="left" font-family="sans-serif"> Claude Lanzmann</text> <rect width="525.625" height="20.454545454545453" x="128" y="109.31818181818183" fill="#4363d8"></rect> <text y="145.77272727272728" x="5" fill="#c0c0c0" font-weight="normal" font-size="12" text-anchor="left" font-family="sans-serif"> Barbara Loden</text> <rect width="489.375" height="20.454545454545453" x="128" y="132.04545454545453" fill="#f58231"></rect> <text y="168.5" x="5" fill="#c0c0c0" font-weight="normal" font-size="12" text-anchor="left" font-family="sans-serif"> V&#283;ra Chytilov&#225;</text> <rect width="453.125" height="20.454545454545453" x="128" y="154.77272727272725" fill="#911eb4"></rect> <text y="191.22727272727275" x="5" fill="#c0c0c0" font-weight="normal" font-size="12" text-anchor="left" font-family="sans-serif"> Julie Dash</text> <rect width="453.125" height="20.454545454545453" x="128" y="177.5" fill="#46f0f0"></rect> <text y="213.95454545454547" x="5" fill="#c0c0c0" font-weight="normal" font-size="12" text-anchor="left" font-family="sans-serif"> Gene Kelly</text> <rect width="435.0" height="20.454545454545453" x="128" y="200.22727272727272" fill="#f032e6"></rect> <text y="236.6818181818182" x="5" fill="#c0c0c0" font-weight="normal" font-size="12" text-anchor="left" font-family="sans-serif"> Dziga Vertov</text> <rect width="416.875" height="20.454545454545453" x="128" y="222.95454545454544" fill="#bcf60c"></rect> <text y="259.4090909090909" x="5" fill="#c0c0c0" font-weight="normal" font-size="12" text-anchor="left" font-family="sans-serif"> Charles Burnett</text> <rect width="416.875" height="20.454545454545453" x="128" y="245.68181818181816" fill="#fabebe"></rect> <text y="282.1363636363636" x="5" fill="#c0c0c0" font-weight="normal" font-size="12" text-anchor="left" font-family="sans-serif"> Barry Jenkins</text> <rect width="380.625" height="20.454545454545453" x="128" y="268.4090909090909" fill="#008080"></rect> <text y="304.8636363636364" x="5" fill="#c0c0c0" font-weight="normal" font-size="12" text-anchor="left" font-family="sans-serif"> Jacques Tati</text> <rect width="344.375" height="20.454545454545453" x="128" y="291.1363636363636" fill="#e6beff"></rect> <text y="327.5909090909091" x="5" fill="#c0c0c0" font-weight="normal" font-size="12" text-anchor="left" font-family="sans-serif"> Elem Klimov</text> <rect width="326.25" height="20.454545454545453" x="128" y="313.8636363636364" fill="#9a6324"></rect> <text y="350.3181818181818" x="5" fill="#c0c0c0" font-weight="normal" font-size="12" text-anchor="left" font-family="sans-serif"> Carol Reed</text> <rect width="290.0" height="20.454545454545453" x="128" y="336.59090909090907" fill="#fffac8"></rect> <text y="373.04545454545456" x="5" fill="#c0c0c0" font-weight="normal" font-size="12" text-anchor="left" font-family="sans-serif"> Jean Vigo</text> <rect width="271.875" height="20.454545454545453" x="128" y="359.3181818181818" fill="#800000"></rect> <text y="395.77272727272725" x="5" fill="#c0c0c0" font-weight="normal" font-size="12" text-anchor="left" font-family="sans-serif"> Claire Denis</text> <rect width="253.75" height="20.454545454545453" x="128" y="382.0454545454545" fill="#aaffc3"></rect> <text y="418.5" x="5" fill="#c0c0c0" font-weight="normal" font-size="12" text-anchor="left" font-family="sans-serif"> Spike Lee</text> <rect width="253.75" height="20.454545454545453" x="128" y="404.77272727272725" fill="#808000"></rect> <text y="441.22727272727275" x="5" fill="#c0c0c0" font-weight="normal" font-size="12" text-anchor="left" font-family="sans-serif"> Buster Keaton</text> <rect width="235.625" height="20.454545454545453" x="128" y="427.5" fill="#ffd8b1"></rect> <text y="463.95454545454544" x="5" fill="#c0c0c0" font-weight="normal" font-size="12" text-anchor="left" font-family="sans-serif"> Michael Curtiz</text> <rect width="235.625" height="20.454545454545453" x="128" y="450.2272727272727" fill="#000075"></rect> <text y="486.6818181818182" x="5" fill="#c0c0c0" font-weight="normal" font-size="12" text-anchor="left" font-family="sans-serif"> Forough Farokhzad</text> <rect width="235.625" height="20.454545454545453" x="128" y="472.95454545454544" fill="#808080"></rect> <text y="509.4090909090909" x="5" fill="#c0c0c0" font-weight="normal" font-size="12" text-anchor="left" font-family="sans-serif"> F.W. Murnau</text> <rect width="217.5" height="20.454545454545453" x="128" y="495.68181818181813" fill="#ffffff"></rect> <text y="532.1363636363636" x="5" fill="#c0c0c0" font-weight="normal" font-size="12" text-anchor="left" font-family="sans-serif"> Tobe Hooper</text> <rect width="199.375" height="20.454545454545453" x="128" y="518.4090909090909" fill="#000000"></rect> <line x1="128.0" x2="128.0" y1="540" y2="544" stroke="#c0c0c0"></line> <line x1="128.0" x2="128.0" y1="40" y2="540" stroke="#404040" opacity="0.2"></line> <text y="554" x="128.0" fill="#c0c0c0" font-size="12" text-anchor="middle" font-family="sans-serif"> 0</text> <line x1="146.125" x2="146.125" y1="540" y2="544" stroke="#c0c0c0"></line> <line x1="146.125" x2="146.125" y1="40" y2="540" stroke="#404040" opacity="0.2"></line> <text y="554" x="146.125" fill="#c0c0c0" font-size="12" text-anchor="middle" font-family="sans-serif"> 1</text> <line x1="164.25" x2="164.25" y1="540" y2="544" stroke="#c0c0c0"></line> <line x1="164.25" x2="164.25" y1="40" y2="540" stroke="#404040" opacity="0.2"></line> <text y="554" x="164.25" fill="#c0c0c0" font-size="12" text-anchor="middle" font-family="sans-serif"> 2</text> <line x1="182.375" x2="182.375" y1="540" y2="544" stroke="#c0c0c0"></line> <line x1="182.375" x2="182.375" y1="40" y2="540" stroke="#404040" opacity="0.2"></line> <text y="554" x="182.375" fill="#c0c0c0" font-size="12" text-anchor="middle" font-family="sans-serif"> 3</text> <line x1="200.5" x2="200.5" y1="540" y2="544" stroke="#c0c0c0"></line> <line x1="200.5" x2="200.5" y1="40" y2="540" stroke="#404040" opacity="0.2"></line> <text y="554" x="200.5" fill="#c0c0c0" font-size="12" text-anchor="middle" font-family="sans-serif"> 4</text> <line x1="218.625" x2="218.625" y1="540" y2="544" stroke="#c0c0c0"></line> <line x1="218.625" x2="218.625" y1="40" y2="540" stroke="#404040" opacity="0.2"></line> <text y="554" x="218.625" fill="#c0c0c0" font-size="12" text-anchor="middle" font-family="sans-serif"> 5</text> <line x1="236.75" x2="236.75" y1="540" y2="544" stroke="#c0c0c0"></line> <line x1="236.75" x2="236.75" y1="40" y2="540" stroke="#404040" opacity="0.2"></line> <text y="554" x="236.75" fill="#c0c0c0" font-size="12" text-anchor="middle" font-family="sans-serif"> 6</text> <line x1="254.875" x2="254.875" y1="540" y2="544" stroke="#c0c0c0"></line> <line x1="254.875" x2="254.875" y1="40" y2="540" stroke="#404040" opacity="0.2"></line> <text y="554" x="254.875" fill="#c0c0c0" font-size="12" text-anchor="middle" font-family="sans-serif"> 7</text> <line x1="273.0" x2="273.0" y1="540" y2="544" stroke="#c0c0c0"></line> <line x1="273.0" x2="273.0" y1="40" y2="540" stroke="#404040" opacity="0.2"></line> <text y="554" x="273.0" fill="#c0c0c0" font-size="12" text-anchor="middle" font-family="sans-serif"> 8</text> <line x1="291.125" x2="291.125" y1="540" y2="544" stroke="#c0c0c0"></line> <line x1="291.125" x2="291.125" y1="40" y2="540" stroke="#404040" opacity="0.2"></line> <text y="554" x="291.125" fill="#c0c0c0" font-size="12" text-anchor="middle" font-family="sans-serif"> 9</text> <line x1="309.25" x2="309.25" y1="540" y2="544" stroke="#c0c0c0"></line> <line x1="309.25" x2="309.25" y1="40" y2="540" stroke="#404040" opacity="0.2"></line> <text y="554" x="309.25" fill="#c0c0c0" font-size="12" text-anchor="middle" font-family="sans-serif"> 10</text> <line x1="327.375" x2="327.375" y1="540" y2="544" stroke="#c0c0c0"></line> <line x1="327.375" x2="327.375" y1="40" y2="540" stroke="#404040" opacity="0.2"></line> <text y="554" x="327.375" fill="#c0c0c0" font-size="12" text-anchor="middle" font-family="sans-serif"> 11</text> <line x1="345.5" x2="345.5" y1="540" y2="544" stroke="#c0c0c0"></line> <line x1="345.5" x2="345.5" y1="40" y2="540" stroke="#404040" opacity="0.2"></line> <text y="554" x="345.5" fill="#c0c0c0" font-size="12" text-anchor="middle" font-family="sans-serif"> 12</text> <line x1="363.625" x2="363.625" y1="540" y2="544" stroke="#c0c0c0"></line> <line x1="363.625" x2="363.625" y1="40" y2="540" stroke="#404040" opacity="0.2"></line> <text y="554" x="363.625" fill="#c0c0c0" font-size="12" text-anchor="middle" font-family="sans-serif"> 13</text> <line x1="381.75" x2="381.75" y1="540" y2="544" stroke="#c0c0c0"></line> <line x1="381.75" x2="381.75" y1="40" y2="540" stroke="#404040" opacity="0.2"></line> <text y="554" x="381.75" fill="#c0c0c0" font-size="12" text-anchor="middle" font-family="sans-serif"> 14</text> <line x1="399.875" x2="399.875" y1="540" y2="544" stroke="#c0c0c0"></line> <line x1="399.875" x2="399.875" y1="40" y2="540" stroke="#404040" opacity="0.2"></line> <text y="554" x="399.875" fill="#c0c0c0" font-size="12" text-anchor="middle" font-family="sans-serif"> 15</text> <line x1="418.0" x2="418.0" y1="540" y2="544" stroke="#c0c0c0"></line> <line x1="418.0" x2="418.0" y1="40" y2="540" stroke="#404040" opacity="0.2"></line> <text y="554" x="418.0" fill="#c0c0c0" font-size="12" text-anchor="middle" font-family="sans-serif"> 16</text> <line x1="436.125" x2="436.125" y1="540" y2="544" stroke="#c0c0c0"></line> <line x1="436.125" x2="436.125" y1="40" y2="540" stroke="#404040" opacity="0.2"></line> <text y="554" x="436.125" fill="#c0c0c0" font-size="12" text-anchor="middle" font-family="sans-serif"> 17</text> <line x1="454.25" x2="454.25" y1="540" y2="544" stroke="#c0c0c0"></line> <line x1="454.25" x2="454.25" y1="40" y2="540" stroke="#404040" opacity="0.2"></line> <text y="554" x="454.25" fill="#c0c0c0" font-size="12" text-anchor="middle" font-family="sans-serif"> 18</text> <line x1="472.375" x2="472.375" y1="540" y2="544" stroke="#c0c0c0"></line> <line x1="472.375" x2="472.375" y1="40" y2="540" stroke="#404040" opacity="0.2"></line> <text y="554" x="472.375" fill="#c0c0c0" font-size="12" text-anchor="middle" font-family="sans-serif"> 19</text> <line x1="490.5" x2="490.5" y1="540" y2="544" stroke="#c0c0c0"></line> <line x1="490.5" x2="490.5" y1="40" y2="540" stroke="#404040" opacity="0.2"></line> <text y="554" x="490.5" fill="#c0c0c0" font-size="12" text-anchor="middle" font-family="sans-serif"> 20</text> <line x1="508.625" x2="508.625" y1="540" y2="544" stroke="#c0c0c0"></line> <line x1="508.625" x2="508.625" y1="40" y2="540" stroke="#404040" opacity="0.2"></line> <text y="554" x="508.625" fill="#c0c0c0" font-size="12" text-anchor="middle" font-family="sans-serif"> 21</text> <line x1="526.75" x2="526.75" y1="540" y2="544" stroke="#c0c0c0"></line> <line x1="526.75" x2="526.75" y1="40" y2="540" stroke="#404040" opacity="0.2"></line> <text y="554" x="526.75" fill="#c0c0c0" font-size="12" text-anchor="middle" font-family="sans-serif"> 22</text> <line x1="544.875" x2="544.875" y1="540" y2="544" stroke="#c0c0c0"></line> <line x1="544.875" x2="544.875" y1="40" y2="540" stroke="#404040" opacity="0.2"></line> <text y="554" x="544.875" fill="#c0c0c0" font-size="12" text-anchor="middle" font-family="sans-serif"> 23</text> <line x1="563.0" x2="563.0" y1="540" y2="544" stroke="#c0c0c0"></line> <line x1="563.0" x2="563.0" y1="40" y2="540" stroke="#404040" opacity="0.2"></line> <text y="554" x="563.0" fill="#c0c0c0" font-size="12" text-anchor="middle" font-family="sans-serif"> 24</text> <line x1="581.125" x2="581.125" y1="540" y2="544" stroke="#c0c0c0"></line> <line x1="581.125" x2="581.125" y1="40" y2="540" stroke="#404040" opacity="0.2"></line> <text y="554" x="581.125" fill="#c0c0c0" font-size="12" text-anchor="middle" font-family="sans-serif"> 25</text> <line x1="599.25" x2="599.25" y1="540" y2="544" stroke="#c0c0c0"></line> <line x1="599.25" x2="599.25" y1="40" y2="540" stroke="#404040" opacity="0.2"></line> <text y="554" x="599.25" fill="#c0c0c0" font-size="12" text-anchor="middle" font-family="sans-serif"> 26</text> <line x1="617.375" x2="617.375" y1="540" y2="544" stroke="#c0c0c0"></line> <line x1="617.375" x2="617.375" y1="40" y2="540" stroke="#404040" opacity="0.2"></line> <text y="554" x="617.375" fill="#c0c0c0" font-size="12" text-anchor="middle" font-family="sans-serif"> 27</text> <line x1="635.5" x2="635.5" y1="540" y2="544" stroke="#c0c0c0"></line> <line x1="635.5" x2="635.5" y1="40" y2="540" stroke="#404040" opacity="0.2"></line> <text y="554" x="635.5" fill="#c0c0c0" font-size="12" text-anchor="middle" font-family="sans-serif"> 28</text> <line x1="653.625" x2="653.625" y1="540" y2="544" stroke="#c0c0c0"></line> <line x1="653.625" x2="653.625" y1="40" y2="540" stroke="#404040" opacity="0.2"></line> <text y="554" x="653.625" fill="#c0c0c0" font-size="12" text-anchor="middle" font-family="sans-serif"> 29</text> <line x1="671.75" x2="671.75" y1="540" y2="544" stroke="#c0c0c0"></line> <line x1="671.75" x2="671.75" y1="40" y2="540" stroke="#404040" opacity="0.2"></line> <text y="554" x="671.75" fill="#c0c0c0" font-size="12" text-anchor="middle" font-family="sans-serif"> 30</text> <line x1="689.875" x2="689.875" y1="540" y2="544" stroke="#c0c0c0"></line> <line x1="689.875" x2="689.875" y1="40" y2="540" stroke="#404040" opacity="0.2"></line> <text y="554" x="689.875" fill="#c0c0c0" font-size="12" text-anchor="middle" font-family="sans-serif"> 31</text> <line x1="708.0" x2="708.0" y1="540" y2="544" stroke="#c0c0c0"></line> <line x1="708.0" x2="708.0" y1="40" y2="540" stroke="#404040" opacity="0.2"></line> <text y="554" x="708.0" fill="#c0c0c0" font-size="12" text-anchor="middle" font-family="sans-serif"> 32</text> <line x1="128" x2="128" y1="40" y2="545" stroke="#c0c0c0"></line> <line x1="123" x2="708" y1="540" y2="540" stroke="#c0c0c0"></line></svg>