<svg width="728" height="1200" version="1.1" xmlns="http://www.w3.org/2000/svg" xmlns:xlink="http://www.w3.org/1999/xlink"> <rect width="728" height="1200" x="0" y="0" fill="#101010"></rect> <text y="23" x="424" fill="#c0c0c0" font-size="12" font-weight="bold" text-anchor="middle" font-family="sans-serif"> How Much Higher Would A Director Place</text> <text y="54" x="5" fill="#c0c0c0" font-weight="normal" font-size="12" text-anchor="left" font-family="sans-serif"> James Benning</text> <rect width="568" height="19.8" x="140" y="41.1" fill="#e6194b"></rect> <text y="76" x="5" fill="#c0c0c0" font-weight="normal" font-size="12" text-anchor="left" font-family="sans-serif"> Ra&#250;l Ruiz</text> <rect width="332.7037861915368" height="19.8" x="140" y="63.1" fill="#3cb44b"></rect> <text y="98" x="5" fill="#c0c0c0" font-weight="normal" font-size="12" text-anchor="left" font-family="sans-serif"> Jim Jarmusch</text> <rect width="329.7520415738678" height="19.8" x="140" y="85.1" fill="#ffe119"></rect> <text y="120" x="5" fill="#c0c0c0" font-weight="normal" font-size="12" text-anchor="left" font-family="sans-serif"> Lav D&#237;az</text> <rect width="323.84855233853006" height="19.8" x="140" y="107.1" fill="#4363d8"></rect> <text y="142" x="5" fill="#c0c0c0" font-weight="normal" font-size="12" text-anchor="left" font-family="sans-serif"> Hong Sang-soo</text> <rect width="276.19896065330363" height="19.8" x="140" y="129.1" fill="#f58231"></rect> <text y="164" x="5" fill="#c0c0c0" font-weight="normal" font-size="12" text-anchor="left" font-family="sans-serif"> Leonardo Favio</text> <rect width="271.98218262806233" height="19.8" x="140" y="151.1" fill="#911eb4"></rect> <text y="186" x="5" fill="#c0c0c0" font-weight="normal" font-size="12" text-anchor="left" font-family="sans-serif"> Jafar Panahi</text> <rect width="271.56050482553826" height="19.8" x="140" y="173.1" fill="#46f0f0"></rect> <text y="208" x="5" fill="#c0c0c0" font-weight="normal" font-size="12" text-anchor="left" font-family="sans-serif"> Wes Anderson</text> <rect width="269.8737936154417" height="19.8" x="140" y="195.1" fill="#f032e6"></rect> <text y="230" x="5" fill="#c0c0c0" font-weight="normal" font-size="12" text-anchor="left" font-family="sans-serif"> Daniele Huillet</text> <rect width="243.30809205642166" height="19.8" x="140" y="217.1" fill="#bcf60c"></rect> <text y="252" x="5" fill="#c0c0c0" font-weight="normal" font-size="12" text-anchor="left" font-family="sans-serif"> John Huston</text> <rect width="228.97104677060133" height="19.8" x="140" y="239.1" fill="#fabebe"></rect> <text y="274" x="5" fill="#c0c0c0" font-weight="normal" font-size="12" text-anchor="left" font-family="sans-serif"> Manoel de Oliveira</text> <rect width="228.12769116555307" height="19.8" x="140" y="261.1" fill="#008080"></rect> <text y="296" x="5" fill="#c0c0c0" font-weight="normal" font-size="12" text-anchor="left" font-family="sans-serif"> Clint Eastwood</text> <rect width="223.9109131403118" height="19.8" x="140" y="283.1" fill="#e6beff"></rect> <text y="318" x="5" fill="#c0c0c0" font-weight="normal" font-size="12" text-anchor="left" font-family="sans-serif"> Aleksandr Sokurov</text> <rect width="222.64587973273942" height="19.8" x="140" y="305.1" fill="#9a6324"></rect> <text y="340" x="5" fill="#c0c0c0" font-weight="normal" font-size="12" text-anchor="left" font-family="sans-serif"> Mikio Naruse</text> <rect width="204.51373422420193" height="19.8" x="140" y="327.1" fill="#fffac8"></rect> <text y="362" x="5" fill="#c0c0c0" font-weight="normal" font-size="12" text-anchor="left" font-family="sans-serif"> Stan Brakhage</text> <rect width="202.40534521158128" height="19.8" x="140" y="349.1" fill="#800000"></rect> <text y="384" x="5" fill="#c0c0c0" font-weight="normal" font-size="12" text-anchor="left" font-family="sans-serif"> Alexei German</text> <rect width="194.39346696362287" height="19.8" x="140" y="371.1" fill="#aaffc3"></rect> <text y="406" x="5" fill="#c0c0c0" font-weight="normal" font-size="12" text-anchor="left" font-family="sans-serif"> Frederick Wiseman</text> <rect width="188.48997772828508" height="19.8" x="140" y="393.1" fill="#808000"></rect> <text y="428" x="5" fill="#c0c0c0" font-weight="normal" font-size="12" text-anchor="left" font-family="sans-serif"> Shohei Imamura</text> <rect width="185.9599109131403" height="19.8" x="140" y="415.1" fill="#ffd8b1"></rect> <text y="450" x="5" fill="#c0c0c0" font-weight="normal" font-size="12" text-anchor="left" font-family="sans-serif"> Abderrahmane Sissako</text> <rect width="181.32145508537488" height="19.8" x="140" y="437.1" fill="#000075"></rect> <text y="472" x="5" fill="#c0c0c0" font-weight="normal" font-size="12" text-anchor="left" font-family="sans-serif"> Sidney Lumet</text> <rect width="173.3095768374165" height="19.8" x="140" y="459.1" fill="#808080"></rect> <text y="494" x="5" fill="#c0c0c0" font-weight="normal" font-size="12" text-anchor="left" font-family="sans-serif"> Paul Verhoeven</text> <rect width="171.62286562731995" height="19.8" x="140" y="481.1" fill="#ffffff"></rect> <text y="516" x="5" fill="#c0c0c0" font-weight="normal" font-size="12" text-anchor="left" font-family="sans-serif"> Josef von Sternberg</text> <rect width="168.67112100965107" height="19.8" x="140" y="503.1" fill="#000000"></rect> <text y="538" x="5" fill="#c0c0c0" font-weight="normal" font-size="12" text-anchor="left" font-family="sans-serif"> Peter Bogdanovich</text> <rect width="166.98440979955456" height="19.8" x="140" y="525.1" fill="#e6194b"></rect> <text y="560" x="5" fill="#c0c0c0" font-weight="normal" font-size="12" text-anchor="left" font-family="sans-serif"> Kira Muratova</text> <rect width="166.14105419450632" height="19.8" x="140" y="547.1" fill="#3cb44b"></rect> <text y="582" x="5" fill="#c0c0c0" font-weight="normal" font-size="12" text-anchor="left" font-family="sans-serif"> Maurice Pialat</text> <rect width="163.61098737936155" height="19.8" x="140" y="569.1" fill="#ffe119"></rect> <text y="604" x="5" fill="#c0c0c0" font-weight="normal" font-size="12" text-anchor="left" font-family="sans-serif"> David Fincher</text> <rect width="160.23756495916854" height="19.8" x="140" y="591.1" fill="#4363d8"></rect> <text y="626" x="5" fill="#c0c0c0" font-weight="normal" font-size="12" text-anchor="left" font-family="sans-serif"> Miklos Jancs&#243;</text> <rect width="158.97253155159612" height="19.8" x="140" y="613.1" fill="#f58231"></rect> <text y="648" x="5" fill="#c0c0c0" font-weight="normal" font-size="12" text-anchor="left" font-family="sans-serif"> James Cameron</text> <rect width="158.55085374907202" height="19.8" x="140" y="635.1" fill="#911eb4"></rect> <text y="670" x="5" fill="#c0c0c0" font-weight="normal" font-size="12" text-anchor="left" font-family="sans-serif"> George A. Romero</text> <rect width="148.0089086859688" height="19.8" x="140" y="657.1" fill="#46f0f0"></rect> <text y="692" x="5" fill="#c0c0c0" font-weight="normal" font-size="12" text-anchor="left" font-family="sans-serif"> Jean Cocteau</text> <rect width="144.6354862657758" height="19.8" x="140" y="679.1" fill="#f032e6"></rect> <text y="714" x="5" fill="#c0c0c0" font-weight="normal" font-size="12" text-anchor="left" font-family="sans-serif"> Andrzej Wajda</text> <rect width="142.52709725315515" height="19.8" x="140" y="701.1" fill="#bcf60c"></rect> <text y="736" x="5" fill="#c0c0c0" font-weight="normal" font-size="12" text-anchor="left" font-family="sans-serif"> Elia Kazan</text> <rect width="141.2620638455828" height="19.8" x="140" y="723.1" fill="#fabebe"></rect> <text y="758" x="5" fill="#c0c0c0" font-weight="normal" font-size="12" text-anchor="left" font-family="sans-serif"> Christopher Nolan</text> <rect width="139.9970304380104" height="19.8" x="140" y="745.1" fill="#008080"></rect> <text y="780" x="5" fill="#c0c0c0" font-weight="normal" font-size="12" text-anchor="left" font-family="sans-serif"> Rob Reiner</text> <rect width="138.31031922791388" height="19.8" x="140" y="767.1" fill="#e6beff"></rect> <text y="802" x="5" fill="#c0c0c0" font-weight="normal" font-size="12" text-anchor="left" font-family="sans-serif"> Tod Browning</text> <rect width="137.88864142538975" height="19.8" x="140" y="789.1" fill="#9a6324"></rect> <text y="824" x="5" fill="#c0c0c0" font-weight="normal" font-size="12" text-anchor="left" font-family="sans-serif"> Jean-Marie Straub</text> <rect width="137.46696362286562" height="19.8" x="140" y="811.1" fill="#fffac8"></rect> <text y="846" x="5" fill="#c0c0c0" font-weight="normal" font-size="12" text-anchor="left" font-family="sans-serif"> Steve McQueen</text> <rect width="134.51521900519674" height="19.8" x="140" y="833.1" fill="#800000"></rect> <text y="868" x="5" fill="#c0c0c0" font-weight="normal" font-size="12" text-anchor="left" font-family="sans-serif"> Andy Warhol</text> <rect width="134.0935412026726" height="19.8" x="140" y="855.1" fill="#aaffc3"></rect> <text y="890" x="5" fill="#c0c0c0" font-weight="normal" font-size="12" text-anchor="left" font-family="sans-serif"> Kathryn Bigelow</text> <rect width="133.25018559762435" height="19.8" x="140" y="877.1" fill="#808000"></rect> <text y="912" x="5" fill="#c0c0c0" font-weight="normal" font-size="12" text-anchor="left" font-family="sans-serif"> Masaki Kobayashi</text> <rect width="131.56347438752783" height="19.8" x="140" y="899.1" fill="#ffd8b1"></rect> <text y="934" x="5" fill="#c0c0c0" font-weight="normal" font-size="12" text-anchor="left" font-family="sans-serif"> William Friedkin</text> <rect width="129.4550853749072" height="19.8" x="140" y="921.1" fill="#000075"></rect> <text y="956" x="5" fill="#c0c0c0" font-weight="normal" font-size="12" text-anchor="left" font-family="sans-serif"> Ang Lee</text> <rect width="129.03340757238306" height="19.8" x="140" y="943.1" fill="#808080"></rect> <text y="978" x="5" fill="#c0c0c0" font-weight="normal" font-size="12" text-anchor="left" font-family="sans-serif"> Andrea Arnold</text> <rect width="126.92501855976244" height="19.8" x="140" y="965.1" fill="#ffffff"></rect> <text y="1000" x="5" fill="#c0c0c0" font-weight="normal" font-size="12" text-anchor="left" font-family="sans-serif"> Lina Wertm&#252;ller</text> <rect width="122.70824053452115" height="19.8" x="140" y="987.1" fill="#000000"></rect> <text y="1022" x="5" fill="#c0c0c0" font-weight="normal" font-size="12" text-anchor="left" font-family="sans-serif"> Jia Zhangke</text> <rect width="121.86488492947291" height="19.8" x="140" y="1009.1" fill="#e6194b"></rect> <text y="1044" x="5" fill="#c0c0c0" font-weight="normal" font-size="12" text-anchor="left" font-family="sans-serif"> Jonathan Demme</text> <rect width="120.59985152190053" height="19.8" x="140" y="1031.1" fill="#3cb44b"></rect> <text y="1066" x="5" fill="#c0c0c0" font-weight="normal" font-size="12" text-anchor="left" font-family="sans-serif"> Joseph Losey</text> <rect width="119.75649591685226" height="19.8" x="140" y="1053.1" fill="#ffe119"></rect> <text y="1088" x="5" fill="#c0c0c0" font-weight="normal" font-size="12" text-anchor="left" font-family="sans-serif"> Milos Forman</text> <rect width="116.38307349665924" height="19.8" x="140" y="1075.1" fill="#4363d8"></rect> <text y="1110" x="5" fill="#c0c0c0" font-weight="normal" font-size="12" text-anchor="left" font-family="sans-serif"> Kelly Reichardt</text> <rect width="116.38307349665924" height="19.8" x="140" y="1097.1" fill="#f58231"></rect> <text y="1132" x="5" fill="#c0c0c0" font-weight="normal" font-size="12" text-anchor="left" font-family="sans-serif"> George Cukor</text> <rect width="112.16629547141797" height="19.8" x="140" y="1119.1" fill="#911eb4"></rect> <line x1="140.0" x2="140.0" y1="1140" y2="1144" stroke="#c0c0c0"></line> <line x1="140.0" x2="140.0" y1="40" y2="1140" stroke="#404040" opacity="0.2"></line> <text y="1154" x="140.0" fill="#c0c0c0" font-size="12" text-anchor="middle" font-family="sans-serif"> 0</text> <line x1="161.08389012620637" x2="161.08389012620637" y1="1140" y2="1142" stroke="#c0c0c0"></line> <line x1="161.08389012620637" x2="161.08389012620637" y1="40" y2="1140" stroke="#404040" opacity="0.2"></line> <line x1="182.16778025241277" x2="182.16778025241277" y1="1140" y2="1144" stroke="#c0c0c0"></line> <line x1="182.16778025241277" x2="182.16778025241277" y1="40" y2="1140" stroke="#404040" opacity="0.2"></line> <text y="1154" x="182.16778025241277" fill="#c0c0c0" font-size="12" text-anchor="middle" font-family="sans-serif"> 100</text> <line x1="203.25167037861917" x2="203.25167037861917" y1="1140" y2="1142" stroke="#c0c0c0"></line> <line x1="203.25167037861917" x2="203.25167037861917" y1="40" y2="1140" stroke="#404040" opacity="0.2"></line> <line x1="224.33556050482554" x2="224.33556050482554" y1="1140" y2="1144" stroke="#c0c0c0"></line> <line x1="224.33556050482554" x2="224.33556050482554" y1="40" y2="1140" stroke="#404040" opacity="0.2"></line> <text y="1154" x="224.33556050482554" fill="#c0c0c0" font-size="12" text-anchor="middle" font-family="sans-serif"> 200</text> <line x1="245.4194506310319" x2="245.4194506310319" y1="1140" y2="1142" stroke="#c0c0c0"></line> <line x1="245.4194506310319" x2="245.4194506310319" y1="40" y2="1140" stroke="#404040" opacity="0.2"></line> <line x1="266.50334075723833" x2="266.50334075723833" y1="1140" y2="1144" stroke="#c0c0c0"></line> <line x1="266.50334075723833" x2="266.50334075723833" y1="40" y2="1140" stroke="#404040" opacity="0.2"></line> <text y="1154" x="266.50334075723833" fill="#c0c0c0" font-size="12" text-anchor="middle" font-family="sans-serif"> 300</text> <line x1="287.5872308834447" x2="287.5872308834447" y1="1140" y2="1142" stroke="#c0c0c0"></line> <line x1="287.5872308834447" x2="287.5872308834447" y1="40" y2="1140" stroke="#404040" opacity="0.2"></line> <line x1="308.6711210096511" x2="308.6711210096511" y1="1140" y2="1144" stroke="#c0c0c0"></line> <line x1="308.6711210096511" x2="308.6711210096511" y1="40" y2="1140" stroke="#404040" opacity="0.2"></line> <text y="1154" x="308.6711210096511" fill="#c0c0c0" font-size="12" text-anchor="middle" font-family="sans-serif"> 400</text> <line x1="329.75501113585744" x2="329.75501113585744" y1="1140" y2="1142" stroke="#c0c0c0"></line> <line x1="329.75501113585744" x2="329.75501113585744" y1="40" y2="1140" stroke="#404040" opacity="0.2"></line> <line x1="350.8389012620638" x2="350.8389012620638" y1="1140" y2="1144" stroke="#c0c0c0"></line> <line x1="350.8389012620638" x2="350.8389012620638" y1="40" y2="1140" stroke="#404040" opacity="0.2"></line> <text y="1154" x="350.8389012620638" fill="#c0c0c0" font-size="12" text-anchor="middle" font-family="sans-serif"> 500</text> <line x1="371.92279138827024" x2="371.92279138827024" y1="1140" y2="1142" stroke="#c0c0c0"></line> <line x1="371.92279138827024" x2="371.92279138827024" y1="40" y2="1140" stroke="#404040" opacity="0.2"></line> <line x1="393.00668151447667" x2="393.00668151447667" y1="1140" y2="1144" stroke="#c0c0c0"></line> <line x1="393.00668151447667" x2="393.00668151447667" y1="40" y2="1140" stroke="#404040" opacity="0.2"></line> <text y="1154" x="393.00668151447667" fill="#c0c0c0" font-size="12" text-anchor="middle" font-family="sans-serif"> 600</text> <line x1="414.090571640683" x2="414.090571640683" y1="1140" y2="1142" stroke="#c0c0c0"></line> <line x1="414.090571640683" x2="414.090571640683" y1="40" y2="1140" stroke="#404040" opacity="0.2"></line> <line x1="435.1744617668894" x2="435.1744617668894" y1="1140" y2="1144" stroke="#c0c0c0"></line> <line x1="435.1744617668894" x2="435.1744617668894" y1="40" y2="1140" stroke="#404040" opacity="0.2"></line> <text y="1154" x="435.1744617668894" fill="#c0c0c0" font-size="12" text-anchor="middle" font-family="sans-serif"> 700</text> <line x1="456.2583518930958" x2="456.2583518930958" y1="1140" y2="1142" stroke="#c0c0c0"></line> <line x1="456.2583518930958" x2="456.2583518930958" y1="40" y2="1140" stroke="#404040" opacity="0.2"></line> <line x1="477.34224201930215" x2="477.34224201930215" y1="1140" y2="1144" stroke="#c0c0c0"></line> <line x1="477.34224201930215" x2="477.34224201930215" y1="40" y2="1140" stroke="#404040" opacity="0.2"></line> <text y="1154" x="477.34224201930215" fill="#c0c0c0" font-size="12" text-anchor="middle" font-family="sans-serif"> 800</text> <line x1="498.4261321455086" x2="498.4261321455086" y1="1140" y2="1142" stroke="#c0c0c0"></line> <line x1="498.4261321455086" x2="498.4261321455086" y1="40" y2="1140" stroke="#404040" opacity="0.2"></line> <line x1="519.5100222717149" x2="519.5100222717149" y1="1140" y2="1144" stroke="#c0c0c0"></line> <line x1="519.5100222717149" x2="519.5100222717149" y1="40" y2="1140" stroke="#404040" opacity="0.2"></line> <text y="1154" x="519.5100222717149" fill="#c0c0c0" font-size="12" text-anchor="middle" font-family="sans-serif"> 900</text> <line x1="540.5939123979213" x2="540.5939123979213" y1="1140" y2="1142" stroke="#c0c0c0"></line> <line x1="540.5939123979213" x2="540.5939123979213" y1="40" y2="1140" stroke="#404040" opacity="0.2"></line> <line x1="561.6778025241276" x2="561.6778025241276" y1="1140" y2="1144" stroke="#c0c0c0"></line> <line x1="561.6778025241276" x2="561.6778025241276" y1="40" y2="1140" stroke="#404040" opacity="0.2"></line> <text y="1154" x="561.6778025241276" fill="#c0c0c0" font-size="12" text-anchor="middle" font-family="sans-serif"> 1000</text> <line x1="582.7616926503341" x2="582.7616926503341" y1="1140" y2="1142" stroke="#c0c0c0"></line> <line x1="582.7616926503341" x2="582.7616926503341" y1="40" y2="1140" stroke="#404040" opacity="0.2"></line> <line x1="603.8455827765405" x2="603.8455827765405" y1="1140" y2="1144" stroke="#c0c0c0"></line> <line x1="603.8455827765405" x2="603.8455827765405" y1="40" y2="1140" stroke="#404040" opacity="0.2"></line> <text y="1154" x="603.8455827765405" fill="#c0c0c0" font-size="12" text-anchor="middle" font-family="sans-serif"> 1100</text> <line x1="624.9294729027469" x2="624.9294729027469" y1="1140" y2="1142" stroke="#c0c0c0"></line> <line x1="624.9294729027469" x2="624.9294729027469" y1="40" y2="1140" stroke="#404040" opacity="0.2"></line> <line x1="646.0133630289533" x2="646.0133630289533" y1="1140" y2="1144" stroke="#c0c0c0"></line> <line x1="646.0133630289533" x2="646.0133630289533" y1="40" y2="1140" stroke="#404040" opacity="0.2"></line> <text y="1154" x="646.0133630289533" fill="#c0c0c0" font-size="12" text-anchor="middle" font-family="sans-serif"> 1200</text> <line x1="667.0972531551596" x2="667.0972531551596" y1="1140" y2="1142" stroke="#c0c0c0"></line> <line x1="667.0972531551596" x2="667.0972531551596" y1="40" y2="1140" stroke="#404040" opacity="0.2"></line> <line x1="688.181143281366" x2="688.181143281366" y1="1140" y2="1144" stroke="#c0c0c0"></line> <line x1="688.181143281366" x2="688.181143281366" y1="40" y2="1140" stroke="#404040" opacity="0.2"></line> <text y="1154" x="688.181143281366" fill="#c0c0c0" font-size="12" text-anchor="middle" font-family="sans-serif"> 1300</text> <line x1="140" x2="140" y1="40" y2="1145" stroke="#c0c0c0"></line> <line x1="135" x2="708" y1="1140" y2="1140" stroke="#c0c0c0"></line></svg>