<svg width="728" height="500" version="1.1" xmlns="http://www.w3.org/2000/svg" xmlns:xlink="http://www.w3.org/1999/xlink"> <rect width="728" height="500" x="0" y="0" fill="#101010"></rect> <text y="23" x="389" fill="#c0c0c0" font-size="12" font-weight="bold" text-anchor="middle" font-family="sans-serif"> How Much Higher Would A Director Place</text> <clipPath id="clip-0"> <rect x="70" y="40" width="638" height="310"></rect></clipPath> <rect width="38.28" height="309.31111111111113" x="74.25333333333333" y="40.68888888888887" fill="#e6194b" clip-path="url(#clip-0)"></rect> <rect width="38.28" height="181.17777777777778" x="116.78666666666666" y="168.82222222222222" fill="#3cb44b" clip-path="url(#clip-0)"></rect> <rect width="38.28" height="179.57037037037037" x="159.32" y="170.42962962962963" fill="#ffe119" clip-path="url(#clip-0)"></rect> <rect width="38.28" height="176.35555555555555" x="201.85333333333335" y="173.64444444444445" fill="#4363d8" clip-path="url(#clip-0)"></rect> <rect width="38.28" height="150.4074074074074" x="244.38666666666666" y="199.5925925925926" fill="#f58231" clip-path="url(#clip-0)"></rect> <rect width="38.28" height="148.11111111111111" x="286.91999999999996" y="201.88888888888889" fill="#911eb4" clip-path="url(#clip-0)"></rect> <rect width="38.28" height="147.88148148148147" x="329.4533333333334" y="202.11851851851853" fill="#46f0f0" clip-path="url(#clip-0)"></rect> <rect width="38.28" height="146.96296296296296" x="371.9866666666667" y="203.03703703703704" fill="#f032e6" clip-path="url(#clip-0)"></rect> <rect width="38.28" height="132.4962962962963" x="414.52" y="217.5037037037037" fill="#bcf60c" clip-path="url(#clip-0)"></rect> <rect width="38.28" height="124.68888888888887" x="457.05333333333334" y="225.31111111111113" fill="#fabebe" clip-path="url(#clip-0)"></rect> <rect width="38.28" height="124.22962962962964" x="499.58666666666664" y="225.77037037037036" fill="#008080" clip-path="url(#clip-0)"></rect> <rect width="38.28" height="121.93333333333334" x="542.1199999999999" y="228.06666666666666" fill="#e6beff" clip-path="url(#clip-0)"></rect> <rect width="38.28" height="121.24444444444447" x="584.6533333333334" y="228.75555555555553" fill="#9a6324" clip-path="url(#clip-0)"></rect> <rect width="38.28" height="111.37037037037038" x="627.1866666666667" y="238.62962962962962" fill="#fffac8" clip-path="url(#clip-0)"></rect> <rect width="38.28" height="110.22222222222223" x="669.72" y="239.77777777777777" fill="#800000" clip-path="url(#clip-0)"></rect> <text transform="translate(96.39333333333333,360) rotate(-90)" fill="#c0c0c0" font-size="12" text-anchor="end" font-family="sans-serif"> James Benning</text> <text transform="translate(138.92666666666668,360) rotate(-90)" fill="#c0c0c0" font-size="12" text-anchor="end" font-family="sans-serif"> Ra&#250;l Ruiz</text> <text transform="translate(181.45999999999998,360) rotate(-90)" fill="#c0c0c0" font-size="12" text-anchor="end" font-family="sans-serif"> Jim Jarmusch</text> <text transform="translate(223.99333333333334,360) rotate(-90)" fill="#c0c0c0" font-size="12" text-anchor="end" font-family="sans-serif"> Lav D&#237;az</text> <text transform="translate(266.52666666666664,360) rotate(-90)" fill="#c0c0c0" font-size="12" text-anchor="end" font-family="sans-serif"> Hong Sang-soo</text> <text transform="translate(309.05999999999995,360) rotate(-90)" fill="#c0c0c0" font-size="12" text-anchor="end" font-family="sans-serif"> Leonardo Favio</text> <text transform="translate(351.5933333333333,360) rotate(-90)" fill="#c0c0c0" font-size="12" text-anchor="end" font-family="sans-serif"> Jafar Panahi</text> <text transform="translate(394.12666666666667,360) rotate(-90)" fill="#c0c0c0" font-size="12" text-anchor="end" font-family="sans-serif"> Wes Anderson</text> <text transform="translate(436.65999999999997,360) rotate(-90)" fill="#c0c0c0" font-size="12" text-anchor="end" font-family="sans-serif"> Daniele Huillet</text> <text transform="translate(479.19333333333327,360) rotate(-90)" fill="#c0c0c0" font-size="12" text-anchor="end" font-family="sans-serif"> John Huston</text> <text transform="translate(521.7266666666667,360) rotate(-90)" fill="#c0c0c0" font-size="12" text-anchor="end" font-family="sans-serif"> Manoel de Oliveira</text> <text transform="translate(564.26,360) rotate(-90)" fill="#c0c0c0" font-size="12" text-anchor="end" font-family="sans-serif"> Clint Eastwood</text> <text transform="translate(606.7933333333333,360) rotate(-90)" fill="#c0c0c0" font-size="12" text-anchor="end" font-family="sans-serif"> Aleksandr Sokurov</text> <text transform="translate(649.3266666666666,360) rotate(-90)" fill="#c0c0c0" font-size="12" text-anchor="end" font-family="sans-serif"> Mikio Naruse</text> <text transform="translate(691.86,360) rotate(-90)" fill="#c0c0c0" font-size="12" text-anchor="end" font-family="sans-serif"> Stan Brakhage</text> <line x1="70" x2="67" y1="350.0" y2="350.0" stroke="#c0c0c0"></line> <line x1="70" x2="708" y1="350.0" y2="350.0" opacity="0.2" stroke="#404040"></line> <text y="354.0" x="64" fill="#c0c0c0" font-size="12" text-anchor="end" font-family="sans-serif"> 0</text> <line x1="70" x2="67" y1="338.51851851851853" y2="338.51851851851853" stroke="#c0c0c0"></line> <line x1="70" x2="708" y1="338.51851851851853" y2="338.51851851851853" opacity="0.2" stroke="#404040"></line> <line x1="70" x2="67" y1="327.03703703703707" y2="327.03703703703707" stroke="#c0c0c0"></line> <line x1="70" x2="708" y1="327.03703703703707" y2="327.03703703703707" opacity="0.2" stroke="#404040"></line> <text y="331.03703703703707" x="64" fill="#c0c0c0" font-size="12" text-anchor="end" font-family="sans-serif"> 100</text> <line x1="70" x2="67" y1="315.55555555555554" y2="315.55555555555554" stroke="#c0c0c0"></line> <line x1="70" x2="708" y1="315.55555555555554" y2="315.55555555555554" opacity="0.2" stroke="#404040"></line> <line x1="70" x2="67" y1="304.0740740740741" y2="304.0740740740741" stroke="#c0c0c0"></line> <line x1="70" x2="708" y1="304.0740740740741" y2="304.0740740740741" opacity="0.2" stroke="#404040"></line> <text y="308.0740740740741" x="64" fill="#c0c0c0" font-size="12" text-anchor="end" font-family="sans-serif"> 200</text> <line x1="70" x2="67" y1="292.5925925925926" y2="292.5925925925926" stroke="#c0c0c0"></line> <line x1="70" x2="708" y1="292.5925925925926" y2="292.5925925925926" opacity="0.2" stroke="#404040"></line> <line x1="70" x2="67" y1="281.1111111111111" y2="281.1111111111111" stroke="#c0c0c0"></line> <line x1="70" x2="708" y1="281.1111111111111" y2="281.1111111111111" opacity="0.2" stroke="#404040"></line> <text y="285.1111111111111" x="64" fill="#c0c0c0" font-size="12" text-anchor="end" font-family="sans-serif"> 300</text> <line x1="70" x2="67" y1="269.6296296296296" y2="269.6296296296296" stroke="#c0c0c0"></line> <line x1="70" x2="708" y1="269.6296296296296" y2="269.6296296296296" opacity="0.2" stroke="#404040"></line> <line x1="70" x2="67" y1="258.14814814814815" y2="258.14814814814815" stroke="#c0c0c0"></line> <line x1="70" x2="708" y1="258.14814814814815" y2="258.14814814814815" opacity="0.2" stroke="#404040"></line> <text y="262.14814814814815" x="64" fill="#c0c0c0" font-size="12" text-anchor="end" font-family="sans-serif"> 400</text> <line x1="70" x2="67" y1="246.66666666666669" y2="246.66666666666669" stroke="#c0c0c0"></line> <line x1="70" x2="708" y1="246.66666666666669" y2="246.66666666666669" opacity="0.2" stroke="#404040"></line> <line x1="70" x2="67" y1="235.1851851851852" y2="235.1851851851852" stroke="#c0c0c0"></line> <line x1="70" x2="708" y1="235.1851851851852" y2="235.1851851851852" opacity="0.2" stroke="#404040"></line> <text y="239.1851851851852" x="64" fill="#c0c0c0" font-size="12" text-anchor="end" font-family="sans-serif"> 500</text> <line x1="70" x2="67" y1="223.7037037037037" y2="223.7037037037037" stroke="#c0c0c0"></line> <line x1="70" x2="708" y1="223.7037037037037" y2="223.7037037037037" opacity="0.2" stroke="#404040"></line> <line x1="70" x2="67" y1="212.22222222222223" y2="212.22222222222223" stroke="#c0c0c0"></line> <line x1="70" x2="708" y1="212.22222222222223" y2="212.22222222222223" opacity="0.2" stroke="#404040"></line> <text y="216.22222222222223" x="64" fill="#c0c0c0" font-size="12" text-anchor="end" font-family="sans-serif"> 600</text> <line x1="70" x2="67" y1="200.74074074074076" y2="200.74074074074076" stroke="#c0c0c0"></line> <line x1="70" x2="708" y1="200.74074074074076" y2="200.74074074074076" opacity="0.2" stroke="#404040"></line> <line x1="70" x2="67" y1="189.25925925925927" y2="189.25925925925927" stroke="#c0c0c0"></line> <line x1="70" x2="708" y1="189.25925925925927" y2="189.25925925925927" opacity="0.2" stroke="#404040"></line> <text y="193.25925925925927" x="64" fill="#c0c0c0" font-size="12" text-anchor="end" font-family="sans-serif"> 700</text> <line x1="70" x2="67" y1="177.77777777777777" y2="177.77777777777777" stroke="#c0c0c0"></line> <line x1="70" x2="708" y1="177.77777777777777" y2="177.77777777777777" opacity="0.2" stroke="#404040"></line> <line x1="70" x2="67" y1="166.2962962962963" y2="166.2962962962963" stroke="#c0c0c0"></line> <line x1="70" x2="708" y1="166.2962962962963" y2="166.2962962962963" opacity="0.2" stroke="#404040"></line> <text y="170.2962962962963" x="64" fill="#c0c0c0" font-size="12" text-anchor="end" font-family="sans-serif"> 800</text> <line x1="70" x2="67" y1="154.8148148148148" y2="154.8148148148148" stroke="#c0c0c0"></line> <line x1="70" x2="708" y1="154.8148148148148" y2="154.8148148148148" opacity="0.2" stroke="#404040"></line> <line x1="70" x2="67" y1="143.33333333333334" y2="143.33333333333334" stroke="#c0c0c0"></line> <line x1="70" x2="708" y1="143.33333333333334" y2="143.33333333333334" opacity="0.2" stroke="#404040"></line> <text y="147.33333333333334" x="64" fill="#c0c0c0" font-size="12" text-anchor="end" font-family="sans-serif"> 900</text> <line x1="70" x2="67" y1="131.85185185185185" y2="131.85185185185185" stroke="#c0c0c0"></line> <line x1="70" x2="708" y1="131.85185185185185" y2="131.85185185185185" opacity="0.2" stroke="#404040"></line> <line x1="70" x2="67" y1="120.37037037037038" y2="120.37037037037038" stroke="#c0c0c0"></line> <line x1="70" x2="708" y1="120.37037037037038" y2="120.37037037037038" opacity="0.2" stroke="#404040"></line> <text y="124.37037037037038" x="64" fill="#c0c0c0" font-size="12" text-anchor="end" font-family="sans-serif"> 1000</text> <line x1="70" x2="67" y1="108.88888888888889" y2="108.88888888888889" stroke="#c0c0c0"></line> <line x1="70" x2="708" y1="108.88888888888889" y2="108.88888888888889" opacity="0.2" stroke="#404040"></line> <line x1="70" x2="67" y1="97.40740740740742" y2="97.40740740740742" stroke="#c0c0c0"></line> <line x1="70" x2="708" y1="97.40740740740742" y2="97.40740740740742" opacity="0.2" stroke="#404040"></line> <text y="101.40740740740742" x="64" fill="#c0c0c0" font-size="12" text-anchor="end" font-family="sans-serif"> 1100</text> <line x1="70" x2="67" y1="85.92592592592592" y2="85.92592592592592" stroke="#c0c0c0"></line> <line x1="70" x2="708" y1="85.92592592592592" y2="85.92592592592592" opacity="0.2" stroke="#404040"></line> <line x1="70" x2="67" y1="74.44444444444446" y2="74.44444444444446" stroke="#c0c0c0"></line> <line x1="70" x2="708" y1="74.44444444444446" y2="74.44444444444446" opacity="0.2" stroke="#404040"></line> <text y="78.44444444444446" x="64" fill="#c0c0c0" font-size="12" text-anchor="end" font-family="sans-serif"> 1200</text> <line x1="70" x2="67" y1="62.96296296296293" y2="62.96296296296293" stroke="#c0c0c0"></line> <line x1="70" x2="708" y1="62.96296296296293" y2="62.96296296296293" opacity="0.2" stroke="#404040"></line> <line x1="70" x2="67" y1="51.481481481481524" y2="51.481481481481524" stroke="#c0c0c0"></line> <line x1="70" x2="708" y1="51.481481481481524" y2="51.481481481481524" opacity="0.2" stroke="#404040"></line> <text y="55.481481481481524" x="64" fill="#c0c0c0" font-size="12" text-anchor="end" font-family="sans-serif"> 1300</text> <line x1="70" x2="67" y1="40.0" y2="40.0" stroke="#c0c0c0"></line> <line x1="70" x2="708" y1="40.0" y2="40.0" opacity="0.2" stroke="#404040"></line> <line x1="70" x2="70" y1="40" y2="355" stroke="#c0c0c0"></line> <line x1="65" x2="708" y1="350" y2="350" stroke="#c0c0c0"></line></svg>