<svg width="400" height="400" version="1.1" xmlns="http://www.w3.org/2000/svg" xmlns:xlink="http://www.w3.org/1999/xlink"> <rect width="400" height="400" x="0" y="0" fill="#101010"></rect> <text y="23" x="225" fill="#c0c0c0" font-size="12" font-weight="bold" text-anchor="middle" font-family="sans-serif"> Movies And Their Grades</text> <text y="381" x="225" fill="#c0c0c0" font-size="12" font-weight="bold" text-anchor="middle" font-family="sans-serif"> Grade</text> <text transform="translate(26,190) rotate(-90)" fill="#c0c0c0" font-size="12" font-weight="bold" text-anchor="middle" font-family="sans-serif"> Number of Movies</text> <clipPath id="clip-0"> <rect x="70" y="40" width="310" height="300"></rect></clipPath> <rect width="39.6" height="12.0" x="74.4" y="328.0" fill="#e6194b" clip-path="url(#clip-0)"></rect> <rect width="39.6" height="43.5" x="118.6857142857143" y="296.5" fill="#3cb44b" clip-path="url(#clip-0)"></rect> <rect width="39.6" height="184.5" x="162.97142857142856" y="155.5" fill="#ffe119" clip-path="url(#clip-0)"></rect> <rect width="39.6" height="198.0" x="207.25714285714287" y="142.0" fill="#4363d8" clip-path="url(#clip-0)"></rect> <rect width="39.6" height="297.0" x="251.54285714285714" y="43.0" fill="#f58231" clip-path="url(#clip-0)"></rect> <rect width="39.6" height="243.00000000000003" x="295.8285714285714" y="96.99999999999997" fill="#911eb4" clip-path="url(#clip-0)"></rect> <rect width="39.6" height="106.5" x="340.1142857142857" y="233.5" fill="#46f0f0" clip-path="url(#clip-0)"></rect> <text y="357" x="94.2" fill="#c0c0c0" font-weight="bold" font-size="12" text-anchor="middle" font-family="sans-serif"> &#9744;</text> <text y="357" x="138.4857142857143" fill="#c0c0c0" font-weight="bold" font-size="12" text-anchor="middle" font-family="sans-serif"> &#9856;</text> <text y="357" x="182.77142857142857" fill="#c0c0c0" font-weight="bold" font-size="12" text-anchor="middle" font-family="sans-serif"> &#9857;</text> <text y="357" x="227.05714285714288" fill="#c0c0c0" font-weight="bold" font-size="12" text-anchor="middle" font-family="sans-serif"> &#9858;</text> <text y="357" x="271.34285714285716" fill="#c0c0c0" font-weight="bold" font-size="12" text-anchor="middle" font-family="sans-serif"> &#9859;</text> <text y="357" x="315.62857142857143" fill="#c0c0c0" font-weight="bold" font-size="12" text-anchor="middle" font-family="sans-serif"> &#9860;</text> <text y="357" x="359.9142857142857" fill="#c0c0c0" font-weight="bold" font-size="12" text-anchor="middle" font-family="sans-serif"> &#9861;</text> <line x1="70" x2="67" y1="340.0" y2="340.0" stroke="#c0c0c0"></line> <line x1="70" x2="380" y1="340.0" y2="340.0" opacity="0.2" stroke="#a0a0a0"></line> <text y="344.0" x="64" fill="#c0c0c0" font-size="12" text-anchor="end" font-family="sans-serif"> 0</text> <line x1="70" x2="67" y1="325.0" y2="325.0" stroke="#c0c0c0"></line> <line x1="70" x2="380" y1="325.0" y2="325.0" opacity="0.2" stroke="#a0a0a0"></line> <line x1="70" x2="67" y1="310.0" y2="310.0" stroke="#c0c0c0"></line> <line x1="70" x2="380" y1="310.0" y2="310.0" opacity="0.2" stroke="#a0a0a0"></line> <text y="314.0" x="64" fill="#c0c0c0" font-size="12" text-anchor="end" font-family="sans-serif"> 20</text> <line x1="70" x2="67" y1="295.0" y2="295.0" stroke="#c0c0c0"></line> <line x1="70" x2="380" y1="295.0" y2="295.0" opacity="0.2" stroke="#a0a0a0"></line> <line x1="70" x2="67" y1="280.0" y2="280.0" stroke="#c0c0c0"></line> <line x1="70" x2="380" y1="280.0" y2="280.0" opacity="0.2" stroke="#a0a0a0"></line> <text y="284.0" x="64" fill="#c0c0c0" font-size="12" text-anchor="end" font-family="sans-serif"> 40</text> <line x1="70" x2="67" y1="265.0" y2="265.0" stroke="#c0c0c0"></line> <line x1="70" x2="380" y1="265.0" y2="265.0" opacity="0.2" stroke="#a0a0a0"></line> <line x1="70" x2="67" y1="250.0" y2="250.0" stroke="#c0c0c0"></line> <line x1="70" x2="380" y1="250.0" y2="250.0" opacity="0.2" stroke="#a0a0a0"></line> <text y="254.0" x="64" fill="#c0c0c0" font-size="12" text-anchor="end" font-family="sans-serif"> 60</text> <line x1="70" x2="67" y1="235.0" y2="235.0" stroke="#c0c0c0"></line> <line x1="70" x2="380" y1="235.0" y2="235.0" opacity="0.2" stroke="#a0a0a0"></line> <line x1="70" x2="67" y1="220.0" y2="220.0" stroke="#c0c0c0"></line> <line x1="70" x2="380" y1="220.0" y2="220.0" opacity="0.2" stroke="#a0a0a0"></line> <text y="224.0" x="64" fill="#c0c0c0" font-size="12" text-anchor="end" font-family="sans-serif"> 80</text> <line x1="70" x2="67" y1="205.0" y2="205.0" stroke="#c0c0c0"></line> <line x1="70" x2="380" y1="205.0" y2="205.0" opacity="0.2" stroke="#a0a0a0"></line> <line x1="70" x2="67" y1="190.0" y2="190.0" stroke="#c0c0c0"></line> <line x1="70" x2="380" y1="190.0" y2="190.0" opacity="0.2" stroke="#a0a0a0"></line> <text y="194.0" x="64" fill="#c0c0c0" font-size="12" text-anchor="end" font-family="sans-serif"> 100</text> <line x1="70" x2="67" y1="175.0" y2="175.0" stroke="#c0c0c0"></line> <line x1="70" x2="380" y1="175.0" y2="175.0" opacity="0.2" stroke="#a0a0a0"></line> <line x1="70" x2="67" y1="160.0" y2="160.0" stroke="#c0c0c0"></line> <line x1="70" x2="380" y1="160.0" y2="160.0" opacity="0.2" stroke="#a0a0a0"></line> <text y="164.0" x="64" fill="#c0c0c0" font-size="12" text-anchor="end" font-family="sans-serif"> 120</text> <line x1="70" x2="67" y1="145.0" y2="145.0" stroke="#c0c0c0"></line> <line x1="70" x2="380" y1="145.0" y2="145.0" opacity="0.2" stroke="#a0a0a0"></line> <line x1="70" x2="67" y1="130.0" y2="130.0" stroke="#c0c0c0"></line> <line x1="70" x2="380" y1="130.0" y2="130.0" opacity="0.2" stroke="#a0a0a0"></line> <text y="134.0" x="64" fill="#c0c0c0" font-size="12" text-anchor="end" font-family="sans-serif"> 140</text> <line x1="70" x2="67" y1="115.0" y2="115.0" stroke="#c0c0c0"></line> <line x1="70" x2="380" y1="115.0" y2="115.0" opacity="0.2" stroke="#a0a0a0"></line> <line x1="70" x2="67" y1="100.0" y2="100.0" stroke="#c0c0c0"></line> <line x1="70" x2="380" y1="100.0" y2="100.0" opacity="0.2" stroke="#a0a0a0"></line> <text y="104.0" x="64" fill="#c0c0c0" font-size="12" text-anchor="end" font-family="sans-serif"> 160</text> <line x1="70" x2="67" y1="85.0" y2="85.0" stroke="#c0c0c0"></line> <line x1="70" x2="380" y1="85.0" y2="85.0" opacity="0.2" stroke="#a0a0a0"></line> <line x1="70" x2="67" y1="70.0" y2="70.0" stroke="#c0c0c0"></line> <line x1="70" x2="380" y1="70.0" y2="70.0" opacity="0.2" stroke="#a0a0a0"></line> <text y="74.0" x="64" fill="#c0c0c0" font-size="12" text-anchor="end" font-family="sans-serif"> 180</text> <line x1="70" x2="67" y1="55.0" y2="55.0" stroke="#c0c0c0"></line> <line x1="70" x2="380" y1="55.0" y2="55.0" opacity="0.2" stroke="#a0a0a0"></line> <line x1="70" x2="67" y1="40.0" y2="40.0" stroke="#c0c0c0"></line> <line x1="70" x2="380" y1="40.0" y2="40.0" opacity="0.2" stroke="#a0a0a0"></line> <text y="44.0" x="64" fill="#c0c0c0" font-size="12" text-anchor="end" font-family="sans-serif"> 200</text> <line x1="70" x2="70" y1="40" y2="345" stroke="#c0c0c0"></line> <line x1="65" x2="380" y1="340" y2="340" stroke="#c0c0c0"></line></svg>