<svg width="300" height="200" version="1.1" xmlns="http://www.w3.org/2000/svg" xmlns:xlink="http://www.w3.org/1999/xlink"> <rect width="300" height="200" x="0" y="0" fill="white"></rect> <line x1="38.666666666666664" x2="38.666666666666664" y1="179" y2="181" stroke="black"></line> <line x1="38.666666666666664" x2="38.666666666666664" y1="20" y2="179" stroke="#e0e0e0" opacity="nil"></line> <line x1="64.66666666666666" x2="64.66666666666666" y1="179" y2="183" stroke="black"></line> <line x1="64.66666666666666" x2="64.66666666666666" y1="20" y2="179" stroke="#e0e0e0" opacity="nil"></line> <text y="193" x="64.66666666666666" fill="black" font-size="12" text-anchor="middle" font-family="sans-serif"> 15:00</text> <line x1="90.66666666666666" x2="90.66666666666666" y1="179" y2="181" stroke="black"></line> <line x1="90.66666666666666" x2="90.66666666666666" y1="20" y2="179" stroke="#e0e0e0" opacity="nil"></line> <line x1="116.66666666666666" x2="116.66666666666666" y1="179" y2="183" stroke="black"></line> <line x1="116.66666666666666" x2="116.66666666666666" y1="20" y2="179" stroke="#e0e0e0" opacity="nil"></line> <text y="193" x="116.66666666666666" fill="black" font-size="12" text-anchor="middle" font-family="sans-serif"> 15:30</text> <line x1="142.66666666666669" x2="142.66666666666669" y1="179" y2="181" stroke="black"></line> <line x1="142.66666666666669" x2="142.66666666666669" y1="20" y2="179" stroke="#e0e0e0" opacity="nil"></line> <line x1="168.66666666666666" x2="168.66666666666666" y1="179" y2="183" stroke="black"></line> <line x1="168.66666666666666" x2="168.66666666666666" y1="20" y2="179" stroke="#e0e0e0" opacity="nil"></line> <text y="193" x="168.66666666666666" fill="black" font-size="12" text-anchor="middle" font-family="sans-serif"> 16:00</text> <line x1="194.66666666666666" x2="194.66666666666666" y1="179" y2="181" stroke="black"></line> <line x1="194.66666666666666" x2="194.66666666666666" y1="20" y2="179" stroke="#e0e0e0" opacity="nil"></line> <line x1="220.66666666666666" x2="220.66666666666666" y1="179" y2="183" stroke="black"></line> <line x1="220.66666666666666" x2="220.66666666666666" y1="20" y2="179" stroke="#e0e0e0" opacity="nil"></line> <text y="193" x="220.66666666666666" fill="black" font-size="12" text-anchor="middle" font-family="sans-serif"> 16:30</text> <line x1="246.66666666666669" x2="246.66666666666669" y1="179" y2="181" stroke="black"></line> <line x1="246.66666666666669" x2="246.66666666666669" y1="20" y2="179" stroke="#e0e0e0" opacity="nil"></line> <line x1="272.66666666666663" x2="272.66666666666663" y1="179" y2="183" stroke="black"></line> <line x1="272.66666666666663" x2="272.66666666666663" y1="20" y2="179" stroke="#e0e0e0" opacity="nil"></line> <text y="193" x="272.66666666666663" fill="black" font-size="12" text-anchor="middle" font-family="sans-serif"> 17:00</text> <line x1="30" x2="27" y1="179.0" y2="179.0" stroke="black"></line> <line x1="30" x2="290" y1="179.0" y2="179.0" opacity="nil" stroke="#e0e0e0"></line> <text y="183.0" x="24" fill="black" font-size="12" text-anchor="end" font-family="sans-serif"> 60</text> <line x1="30" x2="27" y1="160.5865662999421" y2="160.5865662999421" stroke="black"></line> <line x1="30" x2="290" y1="160.5865662999421" y2="160.5865662999421" opacity="nil" stroke="#e0e0e0"></line> <text y="164.5865662999421" x="24" fill="black" font-size="12" text-anchor="end" font-family="sans-serif"> 80</text> <line x1="30" x2="27" y1="142.17313259988418" y2="142.17313259988418" stroke="black"></line> <line x1="30" x2="290" y1="142.17313259988418" y2="142.17313259988418" opacity="nil" stroke="#e0e0e0"></line> <text y="146.17313259988418" x="24" fill="black" font-size="12" text-anchor="end" font-family="sans-serif"> 100</text> <line x1="30" x2="27" y1="123.75969889982628" y2="123.75969889982628" stroke="black"></line> <line x1="30" x2="290" y1="123.75969889982628" y2="123.75969889982628" opacity="nil" stroke="#e0e0e0"></line> <text y="127.75969889982628" x="24" fill="black" font-size="12" text-anchor="end" font-family="sans-serif"> 120</text> <line x1="30" x2="27" y1="105.34626519976838" y2="105.34626519976838" stroke="black"></line> <line x1="30" x2="290" y1="105.34626519976838" y2="105.34626519976838" opacity="nil" stroke="#e0e0e0"></line> <text y="109.34626519976838" x="24" fill="black" font-size="12" text-anchor="end" font-family="sans-serif"> 140</text> <line x1="30" x2="27" y1="86.93283149971047" y2="86.93283149971047" stroke="black"></line> <line x1="30" x2="290" y1="86.93283149971047" y2="86.93283149971047" opacity="nil" stroke="#e0e0e0"></line> <text y="90.93283149971047" x="24" fill="black" font-size="12" text-anchor="end" font-family="sans-serif"> 160</text> <line x1="30" x2="27" y1="68.51939779965257" y2="68.51939779965257" stroke="black"></line> <line x1="30" x2="290" y1="68.51939779965257" y2="68.51939779965257" opacity="nil" stroke="#e0e0e0"></line> <text y="72.51939779965257" x="24" fill="black" font-size="12" text-anchor="end" font-family="sans-serif"> 180</text> <line x1="30" x2="27" y1="50.10596409959467" y2="50.10596409959467" stroke="black"></line> <line x1="30" x2="290" y1="50.10596409959467" y2="50.10596409959467" opacity="nil" stroke="#e0e0e0"></line> <text y="54.10596409959467" x="24" fill="black" font-size="12" text-anchor="end" font-family="sans-serif"> 200</text> <line x1="30" x2="27" y1="31.692530399536764" y2="31.692530399536764" stroke="black"></line> <line x1="30" x2="290" y1="31.692530399536764" y2="31.692530399536764" opacity="nil" stroke="#e0e0e0"></line> <text y="35.692530399536764" x="24" fill="black" font-size="12" text-anchor="end" font-family="sans-serif"> 220</text> <line x1="30" x2="30" y1="20" y2="184" stroke="black"></line> <line x1="25" x2="290" y1="179" y2="179" stroke="black"></line> <line x1="30" x2="47.42" y1="162.4279096699479" y2="77.63404748118123" stroke="black"></line> <line x1="47.42" x2="65.07111111111112" y1="77.63404748118123" y2="38.229299363057294" stroke="black"></line> <line x1="65.07111111111112" x2="82.0" y1="38.229299363057294" y2="20.9206716850029" stroke="black"></line> <line x1="82.0" x2="99.33333333333333" y1="20.9206716850029" y2="25.063694267515928" stroke="black"></line> <line x1="99.33333333333333" x2="116.66666666666666" y1="25.063694267515928" y2="36.572090330052106" stroke="black"></line> <line x1="116.66666666666666" x2="134.0" y1="36.572090330052106" y2="37.76896352055584" stroke="black"></line> <line x1="134.0" x2="151.33333333333331" y1="37.76896352055584" y2="32.79733642154022" stroke="black"></line> <line x1="151.33333333333331" x2="168.66666666666666" y1="32.79733642154022" y2="22.11754487550664" stroke="black"></line> <line x1="168.66666666666666" x2="186.0" y1="22.11754487550664" y2="58.668210770121604" stroke="black"></line> <line x1="186.0" x2="203.33333333333331" y1="58.668210770121604" y2="56.642733063115216" stroke="black"></line> <line x1="203.33333333333331" x2="220.66666666666666" y1="56.642733063115216" y2="20.0" stroke="black"></line> <line x1="220.66666666666666" x2="238.0" y1="20.0" y2="67.50665894614939" stroke="black"></line> <line x1="238.0" x2="255.33333333333334" y1="67.50665894614939" y2="60.32541980312679" stroke="black"></line> <line x1="255.33333333333334" x2="272.66666666666663" y1="60.32541980312679" y2="106.91140706427329" stroke="black"></line> <line x1="272.66666666666663" x2="290" y1="106.91140706427329" y2="120.44528083381587" stroke="black"></line></svg>