<svg width="300" height="200" version="1.1" xmlns="http://www.w3.org/2000/svg" xmlns:xlink="http://www.w3.org/1999/xlink"> <rect width="300" height="200" x="0" y="0" fill="white"></rect> <line x1="39.63333333333333" x2="39.63333333333333" y1="179" y2="181" stroke="black"></line> <line x1="39.63333333333333" x2="39.63333333333333" y1="20" y2="179" stroke="#e0e0e0" opacity="1"></line> <line x1="65.53333333333333" x2="65.53333333333333" y1="179" y2="183" stroke="black"></line> <line x1="65.53333333333333" x2="65.53333333333333" y1="20" y2="179" stroke="#e0e0e0" opacity="1"></line> <text y="193" x="65.53333333333333" fill="black" font-weight="normal" font-size="12" text-anchor="middle" font-family="sans-serif"> 15:00</text> <line x1="91.43333333333334" x2="91.43333333333334" y1="179" y2="181" stroke="black"></line> <line x1="91.43333333333334" x2="91.43333333333334" y1="20" y2="179" stroke="#e0e0e0" opacity="1"></line> <line x1="117.33333333333333" x2="117.33333333333333" y1="179" y2="183" stroke="black"></line> <line x1="117.33333333333333" x2="117.33333333333333" y1="20" y2="179" stroke="#e0e0e0" opacity="1"></line> <text y="193" x="117.33333333333333" fill="black" font-weight="normal" font-size="12" text-anchor="middle" font-family="sans-serif"> 15:30</text> <line x1="143.23333333333335" x2="143.23333333333335" y1="179" y2="181" stroke="black"></line> <line x1="143.23333333333335" x2="143.23333333333335" y1="20" y2="179" stroke="#e0e0e0" opacity="1"></line> <line x1="169.13333333333333" x2="169.13333333333333" y1="179" y2="183" stroke="black"></line> <line x1="169.13333333333333" x2="169.13333333333333" y1="20" y2="179" stroke="#e0e0e0" opacity="1"></line> <text y="193" x="169.13333333333333" fill="black" font-weight="normal" font-size="12" text-anchor="middle" font-family="sans-serif"> 16:00</text> <line x1="195.03333333333333" x2="195.03333333333333" y1="179" y2="181" stroke="black"></line> <line x1="195.03333333333333" x2="195.03333333333333" y1="20" y2="179" stroke="#e0e0e0" opacity="1"></line> <line x1="220.9333333333333" x2="220.9333333333333" y1="179" y2="183" stroke="black"></line> <line x1="220.9333333333333" x2="220.9333333333333" y1="20" y2="179" stroke="#e0e0e0" opacity="1"></line> <text y="193" x="220.9333333333333" fill="black" font-weight="normal" font-size="12" text-anchor="middle" font-family="sans-serif"> 16:30</text> <line x1="246.83333333333334" x2="246.83333333333334" y1="179" y2="181" stroke="black"></line> <line x1="246.83333333333334" x2="246.83333333333334" y1="20" y2="179" stroke="#e0e0e0" opacity="1"></line> <line x1="272.73333333333335" x2="272.73333333333335" y1="179" y2="183" stroke="black"></line> <line x1="272.73333333333335" x2="272.73333333333335" y1="20" y2="179" stroke="#e0e0e0" opacity="1"></line> <text y="193" x="272.73333333333335" fill="black" font-weight="normal" font-size="12" text-anchor="middle" font-family="sans-serif"> 17:00</text> <line x1="31" x2="28" y1="179.0" y2="179.0" stroke="black"></line> <line x1="31" x2="290" y1="179.0" y2="179.0" opacity="1" stroke="#e0e0e0"></line> <line x1="31" x2="28" y1="161.33333333333334" y2="161.33333333333334" stroke="black"></line> <line x1="31" x2="290" y1="161.33333333333334" y2="161.33333333333334" opacity="1" stroke="#e0e0e0"></line> <line x1="31" x2="28" y1="143.66666666666669" y2="143.66666666666669" stroke="black"></line> <line x1="31" x2="290" y1="143.66666666666669" y2="143.66666666666669" opacity="1" stroke="#e0e0e0"></line> <text y="147.66666666666669" x="25" fill="black" font-size="12" text-anchor="end" font-family="sans-serif"> 100</text> <line x1="31" x2="28" y1="126.0" y2="126.0" stroke="black"></line> <line x1="31" x2="290" y1="126.0" y2="126.0" opacity="1" stroke="#e0e0e0"></line> <line x1="31" x2="28" y1="108.33333333333334" y2="108.33333333333334" stroke="black"></line> <line x1="31" x2="290" y1="108.33333333333334" y2="108.33333333333334" opacity="1" stroke="#e0e0e0"></line> <line x1="31" x2="28" y1="90.66666666666666" y2="90.66666666666666" stroke="black"></line> <line x1="31" x2="290" y1="90.66666666666666" y2="90.66666666666666" opacity="1" stroke="#e0e0e0"></line> <line x1="31" x2="28" y1="73.0" y2="73.0" stroke="black"></line> <line x1="31" x2="290" y1="73.0" y2="73.0" opacity="1" stroke="#e0e0e0"></line> <line x1="31" x2="28" y1="55.33333333333333" y2="55.33333333333333" stroke="black"></line> <line x1="31" x2="290" y1="55.33333333333333" y2="55.33333333333333" opacity="1" stroke="#e0e0e0"></line> <text y="59.33333333333333" x="25" fill="black" font-size="12" text-anchor="end" font-family="sans-serif"> 200</text> <line x1="31" x2="28" y1="37.666666666666686" y2="37.666666666666686" stroke="black"></line> <line x1="31" x2="290" y1="37.666666666666686" y2="37.666666666666686" opacity="1" stroke="#e0e0e0"></line> <line x1="31" x2="28" y1="20.0" y2="20.0" stroke="black"></line> <line x1="31" x2="290" y1="20.0" y2="20.0" opacity="1" stroke="#e0e0e0"></line> <line x1="31" x2="31" y1="20" y2="184" stroke="black"></line> <line x1="26" x2="290" y1="179" y2="179" stroke="black"></line> <clipPath id="clip-0"> <rect x="31" y="20" width="259" height="159"></rect></clipPath> <line x1="31" x2="48.353" y1="163.1" y2="81.74500000000002" stroke="black" clip-path="url(#clip-0)" stroke-width="1"></line> <line x1="48.353" x2="65.93622222222223" y1="81.74500000000002" y2="43.93833333333333" stroke="black" clip-path="url(#clip-0)" stroke-width="1"></line> <line x1="65.93622222222223" x2="82.80000000000001" y1="43.93833333333333" y2="27.331666666666678" stroke="black" clip-path="url(#clip-0)" stroke-width="1"></line> <line x1="82.80000000000001" x2="100.06666666666666" y1="27.331666666666678" y2="31.306666666666672" stroke="black" clip-path="url(#clip-0)" stroke-width="1"></line> <line x1="100.06666666666666" x2="117.33333333333333" y1="31.306666666666672" y2="42.34833333333336" stroke="black" clip-path="url(#clip-0)" stroke-width="1"></line> <line x1="117.33333333333333" x2="134.60000000000002" y1="42.34833333333336" y2="43.49666666666667" stroke="black" clip-path="url(#clip-0)" stroke-width="1"></line> <line x1="134.60000000000002" x2="151.86666666666667" y1="43.49666666666667" y2="38.72666666666666" stroke="black" clip-path="url(#clip-0)" stroke-width="1"></line> <line x1="151.86666666666667" x2="169.13333333333333" y1="38.72666666666666" y2="28.47999999999999" stroke="black" clip-path="url(#clip-0)" stroke-width="1"></line> <line x1="169.13333333333333" x2="186.4" y1="28.47999999999999" y2="63.548333333333346" stroke="black" clip-path="url(#clip-0)" stroke-width="1"></line> <line x1="186.4" x2="203.66666666666666" y1="63.548333333333346" y2="61.60499999999999" stroke="black" clip-path="url(#clip-0)" stroke-width="1"></line> <line x1="203.66666666666666" x2="220.9333333333333" y1="61.60499999999999" y2="26.448333333333323" stroke="black" clip-path="url(#clip-0)" stroke-width="1"></line> <line x1="220.9333333333333" x2="238.20000000000002" y1="26.448333333333323" y2="72.02833333333335" stroke="black" clip-path="url(#clip-0)" stroke-width="1"></line> <line x1="238.20000000000002" x2="255.46666666666667" y1="72.02833333333335" y2="65.13833333333332" stroke="black" clip-path="url(#clip-0)" stroke-width="1"></line> <line x1="255.46666666666667" x2="272.73333333333335" y1="65.13833333333332" y2="109.835" stroke="black" clip-path="url(#clip-0)" stroke-width="1"></line> <line x1="272.73333333333335" x2="290" y1="109.835" y2="122.82000000000001" stroke="black" clip-path="url(#clip-0)" stroke-width="1"></line></svg>