<svg width="300" height="200" version="1.1" xmlns="http://www.w3.org/2000/svg" xmlns:xlink="http://www.w3.org/1999/xlink"> <rect width="300" height="200" x="0" y="0" fill="white"></rect> <line x1="30.0" x2="30.0" y1="179" y2="183" stroke="black"></line> <line x1="30.0" x2="30.0" y1="20" y2="179" stroke="#e0e0e0" opacity="nil"></line> <text y="193" x="30.0" fill="black" font-size="12" text-anchor="middle" font-family="sans-serif"> 00</text> <line x1="43.68421052631579" x2="43.68421052631579" y1="179" y2="181" stroke="black"></line> <line x1="43.68421052631579" x2="43.68421052631579" y1="20" y2="179" stroke="#e0e0e0" opacity="nil"></line> <line x1="57.368421052631575" x2="57.368421052631575" y1="179" y2="181" stroke="black"></line> <line x1="57.368421052631575" x2="57.368421052631575" y1="20" y2="179" stroke="#e0e0e0" opacity="nil"></line> <line x1="71.05263157894737" x2="71.05263157894737" y1="179" y2="183" stroke="black"></line> <line x1="71.05263157894737" x2="71.05263157894737" y1="20" y2="179" stroke="#e0e0e0" opacity="nil"></line> <text y="193" x="71.05263157894737" fill="black" font-size="12" text-anchor="middle" font-family="sans-serif"> 03</text> <line x1="84.73684210526315" x2="84.73684210526315" y1="179" y2="181" stroke="black"></line> <line x1="84.73684210526315" x2="84.73684210526315" y1="20" y2="179" stroke="#e0e0e0" opacity="nil"></line> <line x1="98.42105263157895" x2="98.42105263157895" y1="179" y2="181" stroke="black"></line> <line x1="98.42105263157895" x2="98.42105263157895" y1="20" y2="179" stroke="#e0e0e0" opacity="nil"></line> <line x1="112.10526315789473" x2="112.10526315789473" y1="179" y2="183" stroke="black"></line> <line x1="112.10526315789473" x2="112.10526315789473" y1="20" y2="179" stroke="#e0e0e0" opacity="nil"></line> <text y="193" x="112.10526315789473" fill="black" font-size="12" text-anchor="middle" font-family="sans-serif"> 06</text> <line x1="125.78947368421052" x2="125.78947368421052" y1="179" y2="181" stroke="black"></line> <line x1="125.78947368421052" x2="125.78947368421052" y1="20" y2="179" stroke="#e0e0e0" opacity="nil"></line> <line x1="139.4736842105263" x2="139.4736842105263" y1="179" y2="181" stroke="black"></line> <line x1="139.4736842105263" x2="139.4736842105263" y1="20" y2="179" stroke="#e0e0e0" opacity="nil"></line> <line x1="153.15789473684208" x2="153.15789473684208" y1="179" y2="183" stroke="black"></line> <line x1="153.15789473684208" x2="153.15789473684208" y1="20" y2="179" stroke="#e0e0e0" opacity="nil"></line> <text y="193" x="153.15789473684208" fill="black" font-size="12" text-anchor="middle" font-family="sans-serif"> 09</text> <line x1="166.8421052631579" x2="166.8421052631579" y1="179" y2="181" stroke="black"></line> <line x1="166.8421052631579" x2="166.8421052631579" y1="20" y2="179" stroke="#e0e0e0" opacity="nil"></line> <line x1="180.5263157894737" x2="180.5263157894737" y1="179" y2="181" stroke="black"></line> <line x1="180.5263157894737" x2="180.5263157894737" y1="20" y2="179" stroke="#e0e0e0" opacity="nil"></line> <line x1="194.21052631578945" x2="194.21052631578945" y1="179" y2="183" stroke="black"></line> <line x1="194.21052631578945" x2="194.21052631578945" y1="20" y2="179" stroke="#e0e0e0" opacity="nil"></line> <text y="193" x="194.21052631578945" fill="black" font-size="12" text-anchor="middle" font-family="sans-serif"> 12</text> <line x1="207.89473684210526" x2="207.89473684210526" y1="179" y2="181" stroke="black"></line> <line x1="207.89473684210526" x2="207.89473684210526" y1="20" y2="179" stroke="#e0e0e0" opacity="nil"></line> <line x1="221.57894736842104" x2="221.57894736842104" y1="179" y2="181" stroke="black"></line> <line x1="221.57894736842104" x2="221.57894736842104" y1="20" y2="179" stroke="#e0e0e0" opacity="nil"></line> <line x1="235.26315789473685" x2="235.26315789473685" y1="179" y2="183" stroke="black"></line> <line x1="235.26315789473685" x2="235.26315789473685" y1="20" y2="179" stroke="#e0e0e0" opacity="nil"></line> <text y="193" x="235.26315789473685" fill="black" font-size="12" text-anchor="middle" font-family="sans-serif"> 15</text> <line x1="248.94736842105263" x2="248.94736842105263" y1="179" y2="181" stroke="black"></line> <line x1="248.94736842105263" x2="248.94736842105263" y1="20" y2="179" stroke="#e0e0e0" opacity="nil"></line> <line x1="262.63157894736844" x2="262.63157894736844" y1="179" y2="181" stroke="black"></line> <line x1="262.63157894736844" x2="262.63157894736844" y1="20" y2="179" stroke="#e0e0e0" opacity="nil"></line> <line x1="276.31578947368416" x2="276.31578947368416" y1="179" y2="183" stroke="black"></line> <line x1="276.31578947368416" x2="276.31578947368416" y1="20" y2="179" stroke="#e0e0e0" opacity="nil"></line> <text y="193" x="276.31578947368416" fill="black" font-size="12" text-anchor="middle" font-family="sans-serif"> 18</text> <line x1="290.0" x2="290.0" y1="179" y2="181" stroke="black"></line> <line x1="290.0" x2="290.0" y1="20" y2="179" stroke="#e0e0e0" opacity="nil"></line> <line x1="30" x2="27" y1="179.0" y2="179.0" stroke="black"></line> <line x1="30" x2="290" y1="179.0" y2="179.0" opacity="nil" stroke="#e0e0e0"></line> <text y="183.0" x="24" fill="black" font-size="12" text-anchor="end" font-family="sans-serif"> 20</text> <line x1="30" x2="27" y1="164.049365303244" y2="164.049365303244" stroke="black"></line> <line x1="30" x2="290" y1="164.049365303244" y2="164.049365303244" opacity="nil" stroke="#e0e0e0"></line> <text y="168.049365303244" x="24" fill="black" font-size="12" text-anchor="end" font-family="sans-serif"> 40</text> <line x1="30" x2="27" y1="149.098730606488" y2="149.098730606488" stroke="black"></line> <line x1="30" x2="290" y1="149.098730606488" y2="149.098730606488" opacity="nil" stroke="#e0e0e0"></line> <text y="153.098730606488" x="24" fill="black" font-size="12" text-anchor="end" font-family="sans-serif"> 60</text> <line x1="30" x2="27" y1="134.148095909732" y2="134.148095909732" stroke="black"></line> <line x1="30" x2="290" y1="134.148095909732" y2="134.148095909732" opacity="nil" stroke="#e0e0e0"></line> <text y="138.148095909732" x="24" fill="black" font-size="12" text-anchor="end" font-family="sans-serif"> 80</text> <line x1="30" x2="27" y1="119.19746121297601" y2="119.19746121297601" stroke="black"></line> <line x1="30" x2="290" y1="119.19746121297601" y2="119.19746121297601" opacity="nil" stroke="#e0e0e0"></line> <text y="123.19746121297601" x="24" fill="black" font-size="12" text-anchor="end" font-family="sans-serif"> 100</text> <line x1="30" x2="27" y1="104.24682651622003" y2="104.24682651622003" stroke="black"></line> <line x1="30" x2="290" y1="104.24682651622003" y2="104.24682651622003" opacity="nil" stroke="#e0e0e0"></line> <text y="108.24682651622003" x="24" fill="black" font-size="12" text-anchor="end" font-family="sans-serif"> 120</text> <line x1="30" x2="27" y1="89.29619181946403" y2="89.29619181946403" stroke="black"></line> <line x1="30" x2="290" y1="89.29619181946403" y2="89.29619181946403" opacity="nil" stroke="#e0e0e0"></line> <text y="93.29619181946403" x="24" fill="black" font-size="12" text-anchor="end" font-family="sans-serif"> 140</text> <line x1="30" x2="27" y1="74.34555712270803" y2="74.34555712270803" stroke="black"></line> <line x1="30" x2="290" y1="74.34555712270803" y2="74.34555712270803" opacity="nil" stroke="#e0e0e0"></line> <text y="78.34555712270803" x="24" fill="black" font-size="12" text-anchor="end" font-family="sans-serif"> 160</text> <line x1="30" x2="27" y1="59.39492242595203" y2="59.39492242595203" stroke="black"></line> <line x1="30" x2="290" y1="59.39492242595203" y2="59.39492242595203" opacity="nil" stroke="#e0e0e0"></line> <text y="63.39492242595203" x="24" fill="black" font-size="12" text-anchor="end" font-family="sans-serif"> 180</text> <line x1="30" x2="27" y1="44.44428772919605" y2="44.44428772919605" stroke="black"></line> <line x1="30" x2="290" y1="44.44428772919605" y2="44.44428772919605" opacity="nil" stroke="#e0e0e0"></line> <text y="48.44428772919605" x="24" fill="black" font-size="12" text-anchor="end" font-family="sans-serif"> 200</text> <line x1="30" x2="27" y1="29.49365303244005" y2="29.49365303244005" stroke="black"></line> <line x1="30" x2="290" y1="29.49365303244005" y2="29.49365303244005" opacity="nil" stroke="#e0e0e0"></line> <text y="33.49365303244005" x="24" fill="black" font-size="12" text-anchor="end" font-family="sans-serif"> 220</text> <line x1="30" x2="30" y1="20" y2="184" stroke="black"></line> <line x1="25" x2="290" y1="179" y2="179" stroke="black"></line> <line x1="30" x2="43.68421052631579" y1="50.12552891396331" y2="56.25528913963328" stroke="black"></line> <line x1="43.68421052631579" x2="57.368421052631575" y1="56.25528913963328" y2="167.4132581100141" stroke="black"></line> <line x1="57.368421052631575" x2="71.05263157894737" y1="167.4132581100141" y2="142.59520451339915" stroke="black"></line> <line x1="71.05263157894737" x2="84.73684210526315" y1="142.59520451339915" y2="135.64315937940762" stroke="black"></line> <line x1="84.73684210526315" x2="98.42105263157895" y1="135.64315937940762" y2="66.79548660084626" stroke="black"></line> <line x1="98.42105263157895" x2="112.10526315789473" y1="66.79548660084626" y2="34.80112834978843" stroke="black"></line> <line x1="112.10526315789473" x2="125.78947368421052" y1="34.80112834978843" y2="20.747531734837793" stroke="black"></line> <line x1="125.78947368421052" x2="139.4736842105263" y1="20.747531734837793" y2="24.111424541607903" stroke="black"></line> <line x1="139.4736842105263" x2="153.15789473684208" y1="24.111424541607903" y2="33.455571227080384" stroke="black"></line> <line x1="153.15789473684208" x2="166.8421052631579" y1="33.455571227080384" y2="34.42736248236952" stroke="black"></line> <line x1="166.8421052631579" x2="180.5263157894737" y1="34.42736248236952" y2="30.390691114245413" stroke="black"></line> <line x1="180.5263157894737" x2="194.21052631578945" y1="30.390691114245413" y2="21.719322990126926" stroke="black"></line> <line x1="194.21052631578945" x2="207.89473684210526" y1="21.719322990126926" y2="51.396332863187595" stroke="black"></line> <line x1="207.89473684210526" x2="221.57894736842104" y1="51.396332863187595" y2="49.751763046544426" stroke="black"></line> <line x1="221.57894736842104" x2="235.26315789473685" y1="49.751763046544426" y2="20.0" stroke="black"></line> <line x1="235.26315789473685" x2="248.94736842105263" y1="20.0" y2="58.572637517630454" stroke="black"></line> <line x1="248.94736842105263" x2="262.63157894736844" y1="58.572637517630454" y2="52.74188998589561" stroke="black"></line> <line x1="262.63157894736844" x2="276.31578947368416" y1="52.74188998589561" y2="90.56699576868827" stroke="black"></line> <line x1="276.31578947368416" x2="290" y1="90.56699576868827" y2="101.55571227080395" stroke="black"></line></svg>