<svg width="300" height="200" version="1.1" xmlns="http://www.w3.org/2000/svg" xmlns:xlink="http://www.w3.org/1999/xlink"> <rect width="300" height="200" x="0" y="0" fill="white"></rect> <line x1="31.0" x2="31.0" y1="179" y2="183" stroke="black"></line> <line x1="31.0" x2="31.0" y1="20" y2="179" stroke="#e0e0e0" opacity="1"></line> <text y="193" x="31.0" fill="black" font-weight="normal" font-size="12" text-anchor="middle" font-family="sans-serif"> 00</text> <line x1="44.63157894736842" x2="44.63157894736842" y1="179" y2="181" stroke="black"></line> <line x1="44.63157894736842" x2="44.63157894736842" y1="20" y2="179" stroke="#e0e0e0" opacity="1"></line> <line x1="58.263157894736835" x2="58.263157894736835" y1="179" y2="181" stroke="black"></line> <line x1="58.263157894736835" x2="58.263157894736835" y1="20" y2="179" stroke="#e0e0e0" opacity="1"></line> <line x1="71.89473684210526" x2="71.89473684210526" y1="179" y2="183" stroke="black"></line> <line x1="71.89473684210526" x2="71.89473684210526" y1="20" y2="179" stroke="#e0e0e0" opacity="1"></line> <text y="193" x="71.89473684210526" fill="black" font-weight="normal" font-size="12" text-anchor="middle" font-family="sans-serif"> 03</text> <line x1="85.52631578947367" x2="85.52631578947367" y1="179" y2="181" stroke="black"></line> <line x1="85.52631578947367" x2="85.52631578947367" y1="20" y2="179" stroke="#e0e0e0" opacity="1"></line> <line x1="99.1578947368421" x2="99.1578947368421" y1="179" y2="181" stroke="black"></line> <line x1="99.1578947368421" x2="99.1578947368421" y1="20" y2="179" stroke="#e0e0e0" opacity="1"></line> <line x1="112.78947368421052" x2="112.78947368421052" y1="179" y2="183" stroke="black"></line> <line x1="112.78947368421052" x2="112.78947368421052" y1="20" y2="179" stroke="#e0e0e0" opacity="1"></line> <text y="193" x="112.78947368421052" fill="black" font-weight="normal" font-size="12" text-anchor="middle" font-family="sans-serif"> 06</text> <line x1="126.42105263157895" x2="126.42105263157895" y1="179" y2="181" stroke="black"></line> <line x1="126.42105263157895" x2="126.42105263157895" y1="20" y2="179" stroke="#e0e0e0" opacity="1"></line> <line x1="140.05263157894734" x2="140.05263157894734" y1="179" y2="181" stroke="black"></line> <line x1="140.05263157894734" x2="140.05263157894734" y1="20" y2="179" stroke="#e0e0e0" opacity="1"></line> <line x1="153.68421052631578" x2="153.68421052631578" y1="179" y2="183" stroke="black"></line> <line x1="153.68421052631578" x2="153.68421052631578" y1="20" y2="179" stroke="#e0e0e0" opacity="1"></line> <text y="193" x="153.68421052631578" fill="black" font-weight="normal" font-size="12" text-anchor="middle" font-family="sans-serif"> 09</text> <line x1="167.3157894736842" x2="167.3157894736842" y1="179" y2="181" stroke="black"></line> <line x1="167.3157894736842" x2="167.3157894736842" y1="20" y2="179" stroke="#e0e0e0" opacity="1"></line> <line x1="180.94736842105263" x2="180.94736842105263" y1="179" y2="181" stroke="black"></line> <line x1="180.94736842105263" x2="180.94736842105263" y1="20" y2="179" stroke="#e0e0e0" opacity="1"></line> <line x1="194.57894736842104" x2="194.57894736842104" y1="179" y2="183" stroke="black"></line> <line x1="194.57894736842104" x2="194.57894736842104" y1="20" y2="179" stroke="#e0e0e0" opacity="1"></line> <text y="193" x="194.57894736842104" fill="black" font-weight="normal" font-size="12" text-anchor="middle" font-family="sans-serif"> 12</text> <line x1="208.21052631578948" x2="208.21052631578948" y1="179" y2="181" stroke="black"></line> <line x1="208.21052631578948" x2="208.21052631578948" y1="20" y2="179" stroke="#e0e0e0" opacity="1"></line> <line x1="221.8421052631579" x2="221.8421052631579" y1="179" y2="181" stroke="black"></line> <line x1="221.8421052631579" x2="221.8421052631579" y1="20" y2="179" stroke="#e0e0e0" opacity="1"></line> <line x1="235.47368421052633" x2="235.47368421052633" y1="179" y2="183" stroke="black"></line> <line x1="235.47368421052633" x2="235.47368421052633" y1="20" y2="179" stroke="#e0e0e0" opacity="1"></line> <text y="193" x="235.47368421052633" fill="black" font-weight="normal" font-size="12" text-anchor="middle" font-family="sans-serif"> 15</text> <line x1="249.1052631578947" x2="249.1052631578947" y1="179" y2="181" stroke="black"></line> <line x1="249.1052631578947" x2="249.1052631578947" y1="20" y2="179" stroke="#e0e0e0" opacity="1"></line> <line x1="262.7368421052631" x2="262.7368421052631" y1="179" y2="181" stroke="black"></line> <line x1="262.7368421052631" x2="262.7368421052631" y1="20" y2="179" stroke="#e0e0e0" opacity="1"></line> <line x1="276.36842105263156" x2="276.36842105263156" y1="179" y2="183" stroke="black"></line> <line x1="276.36842105263156" x2="276.36842105263156" y1="20" y2="179" stroke="#e0e0e0" opacity="1"></line> <text y="193" x="276.36842105263156" fill="black" font-weight="normal" font-size="12" text-anchor="middle" font-family="sans-serif"> 18</text> <line x1="290.0" x2="290.0" y1="179" y2="181" stroke="black"></line> <line x1="290.0" x2="290.0" y1="20" y2="179" stroke="#e0e0e0" opacity="1"></line> <line x1="31" x2="28" y1="179.0" y2="179.0" stroke="black"></line> <line x1="31" x2="290" y1="179.0" y2="179.0" opacity="1" stroke="#e0e0e0"></line> <line x1="31" x2="28" y1="164.54545454545453" y2="164.54545454545453" stroke="black"></line> <line x1="31" x2="290" y1="164.54545454545453" y2="164.54545454545453" opacity="1" stroke="#e0e0e0"></line> <line x1="31" x2="28" y1="150.0909090909091" y2="150.0909090909091" stroke="black"></line> <line x1="31" x2="290" y1="150.0909090909091" y2="150.0909090909091" opacity="1" stroke="#e0e0e0"></line> <line x1="31" x2="28" y1="135.63636363636363" y2="135.63636363636363" stroke="black"></line> <line x1="31" x2="290" y1="135.63636363636363" y2="135.63636363636363" opacity="1" stroke="#e0e0e0"></line> <line x1="31" x2="28" y1="121.18181818181819" y2="121.18181818181819" stroke="black"></line> <line x1="31" x2="290" y1="121.18181818181819" y2="121.18181818181819" opacity="1" stroke="#e0e0e0"></line> <text y="125.18181818181819" x="25" fill="black" font-size="12" text-anchor="end" font-family="sans-serif"> 100</text> <line x1="31" x2="28" y1="106.72727272727273" y2="106.72727272727273" stroke="black"></line> <line x1="31" x2="290" y1="106.72727272727273" y2="106.72727272727273" opacity="1" stroke="#e0e0e0"></line> <line x1="31" x2="28" y1="92.27272727272728" y2="92.27272727272728" stroke="black"></line> <line x1="31" x2="290" y1="92.27272727272728" y2="92.27272727272728" opacity="1" stroke="#e0e0e0"></line> <line x1="31" x2="28" y1="77.81818181818181" y2="77.81818181818181" stroke="black"></line> <line x1="31" x2="290" y1="77.81818181818181" y2="77.81818181818181" opacity="1" stroke="#e0e0e0"></line> <line x1="31" x2="28" y1="63.36363636363636" y2="63.36363636363636" stroke="black"></line> <line x1="31" x2="290" y1="63.36363636363636" y2="63.36363636363636" opacity="1" stroke="#e0e0e0"></line> <line x1="31" x2="28" y1="48.90909090909091" y2="48.90909090909091" stroke="black"></line> <line x1="31" x2="290" y1="48.90909090909091" y2="48.90909090909091" opacity="1" stroke="#e0e0e0"></line> <text y="52.90909090909091" x="25" fill="black" font-size="12" text-anchor="end" font-family="sans-serif"> 200</text> <line x1="31" x2="28" y1="34.45454545454547" y2="34.45454545454547" stroke="black"></line> <line x1="31" x2="290" y1="34.45454545454547" y2="34.45454545454547" opacity="1" stroke="#e0e0e0"></line> <line x1="31" x2="28" y1="20.0" y2="20.0" stroke="black"></line> <line x1="31" x2="290" y1="20.0" y2="20.0" opacity="1" stroke="#e0e0e0"></line> <line x1="31" x2="31" y1="20" y2="184" stroke="black"></line> <line x1="26" x2="290" y1="179" y2="179" stroke="black"></line> <clipPath id="clip-0"> <rect x="31" y="20" width="259" height="159"></rect></clipPath> <line x1="31" x2="44.63157894736842" y1="54.40181818181817" y2="60.32818181818182" stroke="black" clip-path="url(#clip-0)" stroke-width="1"></line> <line x1="44.63157894736842" x2="58.263157894736835" y1="60.32818181818182" y2="167.7977272727273" stroke="black" clip-path="url(#clip-0)" stroke-width="1"></line> <line x1="58.263157894736835" x2="71.89473684210526" y1="167.7977272727273" y2="143.80318181818183" stroke="black" clip-path="url(#clip-0)" stroke-width="1"></line> <line x1="71.89473684210526" x2="85.52631578947367" y1="143.80318181818183" y2="137.0818181818182" stroke="black" clip-path="url(#clip-0)" stroke-width="1"></line> <line x1="85.52631578947367" x2="99.1578947368421" y1="137.0818181818182" y2="70.51863636363636" stroke="black" clip-path="url(#clip-0)" stroke-width="1"></line> <line x1="99.1578947368421" x2="112.78947368421052" y1="70.51863636363636" y2="39.5859090909091" stroke="black" clip-path="url(#clip-0)" stroke-width="1"></line> <line x1="112.78947368421052" x2="126.42105263157895" y1="39.5859090909091" y2="25.998636363636393" stroke="black" clip-path="url(#clip-0)" stroke-width="1"></line> <line x1="126.42105263157895" x2="140.05263157894734" y1="25.998636363636393" y2="29.25090909090909" stroke="black" clip-path="url(#clip-0)" stroke-width="1"></line> <line x1="140.05263157894734" x2="153.68421052631578" y1="29.25090909090909" y2="38.285000000000025" stroke="black" clip-path="url(#clip-0)" stroke-width="1"></line> <line x1="153.68421052631578" x2="167.3157894736842" y1="38.285000000000025" y2="39.22454545454545" stroke="black" clip-path="url(#clip-0)" stroke-width="1"></line> <line x1="167.3157894736842" x2="180.94736842105263" y1="39.22454545454545" y2="35.32181818181817" stroke="black" clip-path="url(#clip-0)" stroke-width="1"></line> <line x1="180.94736842105263" x2="194.57894736842104" y1="35.32181818181817" y2="26.938181818181818" stroke="black" clip-path="url(#clip-0)" stroke-width="1"></line> <line x1="194.57894736842104" x2="208.21052631578948" y1="26.938181818181818" y2="55.630454545454555" stroke="black" clip-path="url(#clip-0)" stroke-width="1"></line> <line x1="208.21052631578948" x2="221.8421052631579" y1="55.630454545454555" y2="54.04045454545455" stroke="black" clip-path="url(#clip-0)" stroke-width="1"></line> <line x1="221.8421052631579" x2="235.47368421052633" y1="54.04045454545455" y2="25.275909090909096" stroke="black" clip-path="url(#clip-0)" stroke-width="1"></line> <line x1="235.47368421052633" x2="249.1052631578947" y1="25.275909090909096" y2="62.56863636363636" stroke="black" clip-path="url(#clip-0)" stroke-width="1"></line> <line x1="249.1052631578947" x2="262.7368421052631" y1="62.56863636363636" y2="56.93136363636364" stroke="black" clip-path="url(#clip-0)" stroke-width="1"></line> <line x1="262.7368421052631" x2="276.36842105263156" y1="56.93136363636364" y2="93.50136363636362" stroke="black" clip-path="url(#clip-0)" stroke-width="1"></line> <line x1="276.36842105263156" x2="290" y1="93.50136363636362" y2="104.12545454545455" stroke="black" clip-path="url(#clip-0)" stroke-width="1"></line></svg>