<svg width="728" height="889" version="1.1" xmlns="http://www.w3.org/2000/svg" xmlns:xlink="http://www.w3.org/1999/xlink"> <rect width="728" height="889" x="0" y="0" fill="white"></rect> <line x1="70.0" x2="70.0" y1="829" y2="833" stroke="black"></line> <line x1="70.0" x2="70.0" y1="40" y2="829" stroke="#e0e0e0" opacity="nil"></line> <text y="843" x="70.0" fill="black" font-size="12" text-anchor="middle" font-family="sans-serif"> 0</text> <line x1="389.0" x2="389.0" y1="829" y2="833" stroke="black"></line> <line x1="389.0" x2="389.0" y1="40" y2="829" stroke="#e0e0e0" opacity="nil"></line> <text y="843" x="389.0" fill="black" font-size="12" text-anchor="middle" font-family="sans-serif"> 1</text> <line x1="708.0" x2="708.0" y1="829" y2="833" stroke="black"></line> <line x1="708.0" x2="708.0" y1="40" y2="829" stroke="#e0e0e0" opacity="nil"></line> <text y="843" x="708.0" fill="black" font-size="12" text-anchor="middle" font-family="sans-serif"> 2</text> <line x1="70" x2="67" y1="829.0" y2="829.0" stroke="black"></line> <line x1="70" x2="708" y1="829.0" y2="829.0" opacity="nil" stroke="#e0e0e0"></line> <text y="833.0" x="64" fill="black" font-size="12" text-anchor="end" font-family="sans-serif"> 41.0</text> <line x1="70" x2="67" y1="807.6756756756754" y2="807.6756756756754" stroke="black"></line> <line x1="70" x2="708" y1="807.6756756756754" y2="807.6756756756754" opacity="nil" stroke="#e0e0e0"></line> <text y="811.6756756756754" x="64" fill="black" font-size="12" text-anchor="end" font-family="sans-serif"> 41.1</text> <line x1="70" x2="67" y1="786.3513513513508" y2="786.3513513513508" stroke="black"></line> <line x1="70" x2="708" y1="786.3513513513508" y2="786.3513513513508" opacity="nil" stroke="#e0e0e0"></line> <text y="790.3513513513508" x="64" fill="black" font-size="12" text-anchor="end" font-family="sans-serif"> 41.2</text> <line x1="70" x2="67" y1="765.0270270270277" y2="765.0270270270277" stroke="black"></line> <line x1="70" x2="708" y1="765.0270270270277" y2="765.0270270270277" opacity="nil" stroke="#e0e0e0"></line> <text y="769.0270270270277" x="64" fill="black" font-size="12" text-anchor="end" font-family="sans-serif"> 41.3</text> <line x1="70" x2="67" y1="743.702702702703" y2="743.702702702703" stroke="black"></line> <line x1="70" x2="708" y1="743.702702702703" y2="743.702702702703" opacity="nil" stroke="#e0e0e0"></line> <text y="747.702702702703" x="64" fill="black" font-size="12" text-anchor="end" font-family="sans-serif"> 41.4</text> <line x1="70" x2="67" y1="722.3783783783784" y2="722.3783783783784" stroke="black"></line> <line x1="70" x2="708" y1="722.3783783783784" y2="722.3783783783784" opacity="nil" stroke="#e0e0e0"></line> <text y="726.3783783783784" x="64" fill="black" font-size="12" text-anchor="end" font-family="sans-serif"> 41.5</text> <line x1="70" x2="67" y1="701.0540540540538" y2="701.0540540540538" stroke="black"></line> <line x1="70" x2="708" y1="701.0540540540538" y2="701.0540540540538" opacity="nil" stroke="#e0e0e0"></line> <text y="705.0540540540538" x="64" fill="black" font-size="12" text-anchor="end" font-family="sans-serif"> 41.6</text> <line x1="70" x2="67" y1="679.7297297297292" y2="679.7297297297292" stroke="black"></line> <line x1="70" x2="708" y1="679.7297297297292" y2="679.7297297297292" opacity="nil" stroke="#e0e0e0"></line> <text y="683.7297297297292" x="64" fill="black" font-size="12" text-anchor="end" font-family="sans-serif"> 41.7</text> <line x1="70" x2="67" y1="658.4054054054061" y2="658.4054054054061" stroke="black"></line> <line x1="70" x2="708" y1="658.4054054054061" y2="658.4054054054061" opacity="nil" stroke="#e0e0e0"></line> <text y="662.4054054054061" x="64" fill="black" font-size="12" text-anchor="end" font-family="sans-serif"> 41.8</text> <line x1="70" x2="67" y1="637.0810810810815" y2="637.0810810810815" stroke="black"></line> <line x1="70" x2="708" y1="637.0810810810815" y2="637.0810810810815" opacity="nil" stroke="#e0e0e0"></line> <text y="641.0810810810815" x="64" fill="black" font-size="12" text-anchor="end" font-family="sans-serif"> 41.9</text> <line x1="70" x2="67" y1="615.7567567567569" y2="615.7567567567569" stroke="black"></line> <line x1="70" x2="708" y1="615.7567567567569" y2="615.7567567567569" opacity="nil" stroke="#e0e0e0"></line> <text y="619.7567567567569" x="64" fill="black" font-size="12" text-anchor="end" font-family="sans-serif"> 42.0</text> <line x1="70" x2="67" y1="594.4324324324323" y2="594.4324324324323" stroke="black"></line> <line x1="70" x2="708" y1="594.4324324324323" y2="594.4324324324323" opacity="nil" stroke="#e0e0e0"></line> <text y="598.4324324324323" x="64" fill="black" font-size="12" text-anchor="end" font-family="sans-serif"> 42.1</text> <line x1="70" x2="67" y1="573.1081081081077" y2="573.1081081081077" stroke="black"></line> <line x1="70" x2="708" y1="573.1081081081077" y2="573.1081081081077" opacity="nil" stroke="#e0e0e0"></line> <text y="577.1081081081077" x="64" fill="black" font-size="12" text-anchor="end" font-family="sans-serif"> 42.2</text> <line x1="70" x2="67" y1="551.7837837837847" y2="551.7837837837847" stroke="black"></line> <line x1="70" x2="708" y1="551.7837837837847" y2="551.7837837837847" opacity="nil" stroke="#e0e0e0"></line> <text y="555.7837837837847" x="64" fill="black" font-size="12" text-anchor="end" font-family="sans-serif"> 42.3</text> <line x1="70" x2="67" y1="530.45945945946" y2="530.45945945946" stroke="black"></line> <line x1="70" x2="708" y1="530.45945945946" y2="530.45945945946" opacity="nil" stroke="#e0e0e0"></line> <text y="534.45945945946" x="64" fill="black" font-size="12" text-anchor="end" font-family="sans-serif"> 42.4</text> <line x1="70" x2="67" y1="509.1351351351354" y2="509.1351351351354" stroke="black"></line> <line x1="70" x2="708" y1="509.1351351351354" y2="509.1351351351354" opacity="nil" stroke="#e0e0e0"></line> <text y="513.1351351351354" x="64" fill="black" font-size="12" text-anchor="end" font-family="sans-serif"> 42.5</text> <line x1="70" x2="67" y1="487.8108108108107" y2="487.8108108108107" stroke="black"></line> <line x1="70" x2="708" y1="487.8108108108107" y2="487.8108108108107" opacity="nil" stroke="#e0e0e0"></line> <text y="491.8108108108107" x="64" fill="black" font-size="12" text-anchor="end" font-family="sans-serif"> 42.6</text> <line x1="70" x2="67" y1="466.48648648648617" y2="466.48648648648617" stroke="black"></line> <line x1="70" x2="708" y1="466.48648648648617" y2="466.48648648648617" opacity="nil" stroke="#e0e0e0"></line> <text y="470.48648648648617" x="64" fill="black" font-size="12" text-anchor="end" font-family="sans-serif"> 42.7</text> <line x1="70" x2="67" y1="445.16216216216304" y2="445.16216216216304" stroke="black"></line> <line x1="70" x2="708" y1="445.16216216216304" y2="445.16216216216304" opacity="nil" stroke="#e0e0e0"></line> <text y="449.16216216216304" x="64" fill="black" font-size="12" text-anchor="end" font-family="sans-serif"> 42.8</text> <line x1="70" x2="67" y1="423.8378378378385" y2="423.8378378378385" stroke="black"></line> <line x1="70" x2="708" y1="423.8378378378385" y2="423.8378378378385" opacity="nil" stroke="#e0e0e0"></line> <text y="427.8378378378385" x="64" fill="black" font-size="12" text-anchor="end" font-family="sans-serif"> 42.9</text> <line x1="70" x2="67" y1="402.51351351351383" y2="402.51351351351383" stroke="black"></line> <line x1="70" x2="708" y1="402.51351351351383" y2="402.51351351351383" opacity="nil" stroke="#e0e0e0"></line> <text y="406.51351351351383" x="64" fill="black" font-size="12" text-anchor="end" font-family="sans-serif"> 43.0</text> <line x1="70" x2="67" y1="381.1891891891892" y2="381.1891891891892" stroke="black"></line> <line x1="70" x2="708" y1="381.1891891891892" y2="381.1891891891892" opacity="nil" stroke="#e0e0e0"></line> <text y="385.1891891891892" x="64" fill="black" font-size="12" text-anchor="end" font-family="sans-serif"> 43.1</text> <line x1="70" x2="67" y1="359.86486486486456" y2="359.86486486486456" stroke="black"></line> <line x1="70" x2="708" y1="359.86486486486456" y2="359.86486486486456" opacity="nil" stroke="#e0e0e0"></line> <text y="363.86486486486456" x="64" fill="black" font-size="12" text-anchor="end" font-family="sans-serif"> 43.2</text> <line x1="70" x2="67" y1="338.54054054054154" y2="338.54054054054154" stroke="black"></line> <line x1="70" x2="708" y1="338.54054054054154" y2="338.54054054054154" opacity="nil" stroke="#e0e0e0"></line> <text y="342.54054054054154" x="64" fill="black" font-size="12" text-anchor="end" font-family="sans-serif"> 43.3</text> <line x1="70" x2="67" y1="317.2162162162169" y2="317.2162162162169" stroke="black"></line> <line x1="70" x2="708" y1="317.2162162162169" y2="317.2162162162169" opacity="nil" stroke="#e0e0e0"></line> <text y="321.2162162162169" x="64" fill="black" font-size="12" text-anchor="end" font-family="sans-serif"> 43.4</text> <line x1="70" x2="67" y1="295.8918918918923" y2="295.8918918918923" stroke="black"></line> <line x1="70" x2="708" y1="295.8918918918923" y2="295.8918918918923" opacity="nil" stroke="#e0e0e0"></line> <text y="299.8918918918923" x="64" fill="black" font-size="12" text-anchor="end" font-family="sans-serif"> 43.5</text> <line x1="70" x2="67" y1="274.5675675675677" y2="274.5675675675677" stroke="black"></line> <line x1="70" x2="708" y1="274.5675675675677" y2="274.5675675675677" opacity="nil" stroke="#e0e0e0"></line> <text y="278.5675675675677" x="64" fill="black" font-size="12" text-anchor="end" font-family="sans-serif"> 43.6</text> <line x1="70" x2="67" y1="253.2432432432431" y2="253.2432432432431" stroke="black"></line> <line x1="70" x2="708" y1="253.2432432432431" y2="253.2432432432431" opacity="nil" stroke="#e0e0e0"></line> <text y="257.2432432432431" x="64" fill="black" font-size="12" text-anchor="end" font-family="sans-serif"> 43.7</text> <line x1="70" x2="67" y1="231.91891891891999" y2="231.91891891891999" stroke="black"></line> <line x1="70" x2="708" y1="231.91891891891999" y2="231.91891891891999" opacity="nil" stroke="#e0e0e0"></line> <text y="235.91891891891999" x="64" fill="black" font-size="12" text-anchor="end" font-family="sans-serif"> 43.8</text> <line x1="70" x2="67" y1="210.59459459459538" y2="210.59459459459538" stroke="black"></line> <line x1="70" x2="708" y1="210.59459459459538" y2="210.59459459459538" opacity="nil" stroke="#e0e0e0"></line> <text y="214.59459459459538" x="64" fill="black" font-size="12" text-anchor="end" font-family="sans-serif"> 43.9</text> <line x1="70" x2="67" y1="189.27027027027077" y2="189.27027027027077" stroke="black"></line> <line x1="70" x2="708" y1="189.27027027027077" y2="189.27027027027077" opacity="nil" stroke="#e0e0e0"></line> <text y="193.27027027027077" x="64" fill="black" font-size="12" text-anchor="end" font-family="sans-serif"> 44.0</text> <line x1="70" x2="67" y1="167.94594594594616" y2="167.94594594594616" stroke="black"></line> <line x1="70" x2="708" y1="167.94594594594616" y2="167.94594594594616" opacity="nil" stroke="#e0e0e0"></line> <text y="171.94594594594616" x="64" fill="black" font-size="12" text-anchor="end" font-family="sans-serif"> 44.1</text> <line x1="70" x2="67" y1="146.62162162162144" y2="146.62162162162144" stroke="black"></line> <line x1="70" x2="708" y1="146.62162162162144" y2="146.62162162162144" opacity="nil" stroke="#e0e0e0"></line> <text y="150.62162162162144" x="64" fill="black" font-size="12" text-anchor="end" font-family="sans-serif"> 44.2</text> <line x1="70" x2="67" y1="125.29729729729843" y2="125.29729729729843" stroke="black"></line> <line x1="70" x2="708" y1="125.29729729729843" y2="125.29729729729843" opacity="nil" stroke="#e0e0e0"></line> <text y="129.29729729729843" x="64" fill="black" font-size="12" text-anchor="end" font-family="sans-serif"> 44.3</text> <line x1="70" x2="67" y1="103.97297297297382" y2="103.97297297297382" stroke="black"></line> <line x1="70" x2="708" y1="103.97297297297382" y2="103.97297297297382" opacity="nil" stroke="#e0e0e0"></line> <text y="107.97297297297382" x="64" fill="black" font-size="12" text-anchor="end" font-family="sans-serif"> 44.4</text> <line x1="70" x2="67" y1="82.64864864864921" y2="82.64864864864921" stroke="black"></line> <line x1="70" x2="708" y1="82.64864864864921" y2="82.64864864864921" opacity="nil" stroke="#e0e0e0"></line> <text y="86.64864864864921" x="64" fill="black" font-size="12" text-anchor="end" font-family="sans-serif"> 44.5</text> <line x1="70" x2="67" y1="61.32432432432461" y2="61.32432432432461" stroke="black"></line> <line x1="70" x2="708" y1="61.32432432432461" y2="61.32432432432461" opacity="nil" stroke="#e0e0e0"></line> <text y="65.3243243243246" x="64" fill="black" font-size="12" text-anchor="end" font-family="sans-serif"> 44.6</text> <line x1="70" x2="67" y1="40.0" y2="40.0" stroke="black"></line> <line x1="70" x2="708" y1="40.0" y2="40.0" opacity="nil" stroke="#e0e0e0"></line> <text y="44.0" x="64" fill="black" font-size="12" text-anchor="end" font-family="sans-serif"> 44.7</text> <line x1="70" x2="70" y1="40" y2="834" stroke="black"></line> <line x1="65" x2="708" y1="829" y2="829" stroke="black"></line> <clipPath id="clip-0"> <rect x="70" y="40" width="638" height="789"></rect></clipPath> <line x1="70" x2="389.0" y1="829.0" y2="594.4324324324323" stroke="black" clip-path="url(#clip-0)"></line> <line x1="389.0" x2="708" y1="594.4324324324323" y2="40.0" stroke="black" clip-path="url(#clip-0)"></line></svg>