<svg width="728.3720930232558" height="444.7674418604651" version="1.1" xmlns="http://www.w3.org/2000/svg" xmlns:xlink="http://www.w3.org/1999/xlink"> <rect width="728.3720930232558" height="444.7674418604651" x="0" y="0" fill="white"></rect> <line x1="70.0" x2="70.0" y1="384.7674418604651" y2="388.7674418604651" stroke="black"></line> <line x1="70.0" x2="70.0" y1="40" y2="384.7674418604651" stroke="#e0e0e0" opacity="nil"></line> <text y="398.7674418604651" x="70.0" fill="black" font-size="12" text-anchor="middle" font-family="sans-serif"> 0</text> <line x1="92.47789059941042" x2="92.47789059941042" y1="384.7674418604651" y2="386.7674418604651" stroke="black"></line> <line x1="92.47789059941042" x2="92.47789059941042" y1="40" y2="384.7674418604651" stroke="#e0e0e0" opacity="nil"></line> <line x1="114.95578119882083" x2="114.95578119882083" y1="384.7674418604651" y2="388.7674418604651" stroke="black"></line> <line x1="114.95578119882083" x2="114.95578119882083" y1="40" y2="384.7674418604651" stroke="#e0e0e0" opacity="nil"></line> <text y="398.7674418604651" x="114.95578119882083" fill="black" font-size="12" text-anchor="middle" font-family="sans-serif"> 10</text> <line x1="137.43367179823125" x2="137.43367179823125" y1="384.7674418604651" y2="386.7674418604651" stroke="black"></line> <line x1="137.43367179823125" x2="137.43367179823125" y1="40" y2="384.7674418604651" stroke="#e0e0e0" opacity="nil"></line> <line x1="159.91156239764166" x2="159.91156239764166" y1="384.7674418604651" y2="388.7674418604651" stroke="black"></line> <line x1="159.91156239764166" x2="159.91156239764166" y1="40" y2="384.7674418604651" stroke="#e0e0e0" opacity="nil"></line> <text y="398.7674418604651" x="159.91156239764166" fill="black" font-size="12" text-anchor="middle" font-family="sans-serif"> 20</text> <line x1="182.38945299705208" x2="182.38945299705208" y1="384.7674418604651" y2="386.7674418604651" stroke="black"></line> <line x1="182.38945299705208" x2="182.38945299705208" y1="40" y2="384.7674418604651" stroke="#e0e0e0" opacity="nil"></line> <line x1="204.8673435964625" x2="204.8673435964625" y1="384.7674418604651" y2="388.7674418604651" stroke="black"></line> <line x1="204.8673435964625" x2="204.8673435964625" y1="40" y2="384.7674418604651" stroke="#e0e0e0" opacity="nil"></line> <text y="398.7674418604651" x="204.8673435964625" fill="black" font-size="12" text-anchor="middle" font-family="sans-serif"> 30</text> <line x1="227.34523419587293" x2="227.34523419587293" y1="384.7674418604651" y2="386.7674418604651" stroke="black"></line> <line x1="227.34523419587293" x2="227.34523419587293" y1="40" y2="384.7674418604651" stroke="#e0e0e0" opacity="nil"></line> <line x1="249.82312479528335" x2="249.82312479528335" y1="384.7674418604651" y2="388.7674418604651" stroke="black"></line> <line x1="249.82312479528335" x2="249.82312479528335" y1="40" y2="384.7674418604651" stroke="#e0e0e0" opacity="nil"></line> <text y="398.7674418604651" x="249.82312479528335" fill="black" font-size="12" text-anchor="middle" font-family="sans-serif"> 40</text> <line x1="272.30101539469376" x2="272.30101539469376" y1="384.7674418604651" y2="386.7674418604651" stroke="black"></line> <line x1="272.30101539469376" x2="272.30101539469376" y1="40" y2="384.7674418604651" stroke="#e0e0e0" opacity="nil"></line> <line x1="294.77890599410415" x2="294.77890599410415" y1="384.7674418604651" y2="388.7674418604651" stroke="black"></line> <line x1="294.77890599410415" x2="294.77890599410415" y1="40" y2="384.7674418604651" stroke="#e0e0e0" opacity="nil"></line> <text y="398.7674418604651" x="294.77890599410415" fill="black" font-size="12" text-anchor="middle" font-family="sans-serif"> 50</text> <line x1="317.25679659351454" x2="317.25679659351454" y1="384.7674418604651" y2="386.7674418604651" stroke="black"></line> <line x1="317.25679659351454" x2="317.25679659351454" y1="40" y2="384.7674418604651" stroke="#e0e0e0" opacity="nil"></line> <line x1="339.734687192925" x2="339.734687192925" y1="384.7674418604651" y2="388.7674418604651" stroke="black"></line> <line x1="339.734687192925" x2="339.734687192925" y1="40" y2="384.7674418604651" stroke="#e0e0e0" opacity="nil"></line> <text y="398.7674418604651" x="339.734687192925" fill="black" font-size="12" text-anchor="middle" font-family="sans-serif"> 60</text> <line x1="362.2125777923354" x2="362.2125777923354" y1="384.7674418604651" y2="386.7674418604651" stroke="black"></line> <line x1="362.2125777923354" x2="362.2125777923354" y1="40" y2="384.7674418604651" stroke="#e0e0e0" opacity="nil"></line> <line x1="384.69046839174587" x2="384.69046839174587" y1="384.7674418604651" y2="388.7674418604651" stroke="black"></line> <line x1="384.69046839174587" x2="384.69046839174587" y1="40" y2="384.7674418604651" stroke="#e0e0e0" opacity="nil"></line> <text y="398.7674418604651" x="384.69046839174587" fill="black" font-size="12" text-anchor="middle" font-family="sans-serif"> 70</text> <line x1="407.16835899115625" x2="407.16835899115625" y1="384.7674418604651" y2="386.7674418604651" stroke="black"></line> <line x1="407.16835899115625" x2="407.16835899115625" y1="40" y2="384.7674418604651" stroke="#e0e0e0" opacity="nil"></line> <line x1="429.6462495905667" x2="429.6462495905667" y1="384.7674418604651" y2="388.7674418604651" stroke="black"></line> <line x1="429.6462495905667" x2="429.6462495905667" y1="40" y2="384.7674418604651" stroke="#e0e0e0" opacity="nil"></line> <text y="398.7674418604651" x="429.6462495905667" fill="black" font-size="12" text-anchor="middle" font-family="sans-serif"> 80</text> <line x1="452.1241401899771" x2="452.1241401899771" y1="384.7674418604651" y2="386.7674418604651" stroke="black"></line> <line x1="452.1241401899771" x2="452.1241401899771" y1="40" y2="384.7674418604651" stroke="#e0e0e0" opacity="nil"></line> <line x1="474.6020307893875" x2="474.6020307893875" y1="384.7674418604651" y2="388.7674418604651" stroke="black"></line> <line x1="474.6020307893875" x2="474.6020307893875" y1="40" y2="384.7674418604651" stroke="#e0e0e0" opacity="nil"></line> <text y="398.7674418604651" x="474.6020307893875" fill="black" font-size="12" text-anchor="middle" font-family="sans-serif"> 90</text> <line x1="497.0799213887979" x2="497.0799213887979" y1="384.7674418604651" y2="386.7674418604651" stroke="black"></line> <line x1="497.0799213887979" x2="497.0799213887979" y1="40" y2="384.7674418604651" stroke="#e0e0e0" opacity="nil"></line> <line x1="519.5578119882083" x2="519.5578119882083" y1="384.7674418604651" y2="388.7674418604651" stroke="black"></line> <line x1="519.5578119882083" x2="519.5578119882083" y1="40" y2="384.7674418604651" stroke="#e0e0e0" opacity="nil"></line> <text y="398.7674418604651" x="519.5578119882083" fill="black" font-size="12" text-anchor="middle" font-family="sans-serif"> 100</text> <line x1="542.0357025876187" x2="542.0357025876187" y1="384.7674418604651" y2="386.7674418604651" stroke="black"></line> <line x1="542.0357025876187" x2="542.0357025876187" y1="40" y2="384.7674418604651" stroke="#e0e0e0" opacity="nil"></line> <line x1="564.5135931870291" x2="564.5135931870291" y1="384.7674418604651" y2="388.7674418604651" stroke="black"></line> <line x1="564.5135931870291" x2="564.5135931870291" y1="40" y2="384.7674418604651" stroke="#e0e0e0" opacity="nil"></line> <text y="398.7674418604651" x="564.5135931870291" fill="black" font-size="12" text-anchor="middle" font-family="sans-serif"> 110</text> <line x1="586.9914837864396" x2="586.9914837864396" y1="384.7674418604651" y2="386.7674418604651" stroke="black"></line> <line x1="586.9914837864396" x2="586.9914837864396" y1="40" y2="384.7674418604651" stroke="#e0e0e0" opacity="nil"></line> <line x1="609.46937438585" x2="609.46937438585" y1="384.7674418604651" y2="388.7674418604651" stroke="black"></line> <line x1="609.46937438585" x2="609.46937438585" y1="40" y2="384.7674418604651" stroke="#e0e0e0" opacity="nil"></line> <text y="398.7674418604651" x="609.46937438585" fill="black" font-size="12" text-anchor="middle" font-family="sans-serif"> 120</text> <line x1="631.9472649852604" x2="631.9472649852604" y1="384.7674418604651" y2="386.7674418604651" stroke="black"></line> <line x1="631.9472649852604" x2="631.9472649852604" y1="40" y2="384.7674418604651" stroke="#e0e0e0" opacity="nil"></line> <line x1="654.4251555846708" x2="654.4251555846708" y1="384.7674418604651" y2="388.7674418604651" stroke="black"></line> <line x1="654.4251555846708" x2="654.4251555846708" y1="40" y2="384.7674418604651" stroke="#e0e0e0" opacity="nil"></line> <text y="398.7674418604651" x="654.4251555846708" fill="black" font-size="12" text-anchor="middle" font-family="sans-serif"> 130</text> <line x1="676.9030461840812" x2="676.9030461840812" y1="384.7674418604651" y2="386.7674418604651" stroke="black"></line> <line x1="676.9030461840812" x2="676.9030461840812" y1="40" y2="384.7674418604651" stroke="#e0e0e0" opacity="nil"></line> <line x1="699.3809367834917" x2="699.3809367834917" y1="384.7674418604651" y2="388.7674418604651" stroke="black"></line> <line x1="699.3809367834917" x2="699.3809367834917" y1="40" y2="384.7674418604651" stroke="#e0e0e0" opacity="nil"></line> <text y="398.7674418604651" x="699.3809367834917" fill="black" font-size="12" text-anchor="middle" font-family="sans-serif"> 140</text> <line x1="70" x2="67" y1="384.7674418604651" y2="384.7674418604651" stroke="black"></line> <line x1="70" x2="708.3720930232558" y1="384.7674418604651" y2="384.7674418604651" opacity="nil" stroke="#e0e0e0"></line> <text y="388.7674418604651" x="64" fill="black" font-size="12" text-anchor="end" font-family="sans-serif"> 41.0</text> <line x1="70" x2="67" y1="366.1313639220613" y2="366.1313639220613" stroke="black"></line> <line x1="70" x2="708.3720930232558" y1="366.1313639220613" y2="366.1313639220613" opacity="nil" stroke="#e0e0e0"></line> <text y="370.1313639220613" x="64" fill="black" font-size="12" text-anchor="end" font-family="sans-serif"> 41.2</text> <line x1="70" x2="67" y1="347.4952859836582" y2="347.4952859836582" stroke="black"></line> <line x1="70" x2="708.3720930232558" y1="347.4952859836582" y2="347.4952859836582" opacity="nil" stroke="#e0e0e0"></line> <text y="351.4952859836582" x="64" fill="black" font-size="12" text-anchor="end" font-family="sans-serif"> 41.4</text> <line x1="70" x2="67" y1="328.8592080452545" y2="328.8592080452545" stroke="black"></line> <line x1="70" x2="708.3720930232558" y1="328.8592080452545" y2="328.8592080452545" opacity="nil" stroke="#e0e0e0"></line> <text y="332.8592080452545" x="64" fill="black" font-size="12" text-anchor="end" font-family="sans-serif"> 41.6</text> <line x1="70" x2="67" y1="310.2231301068514" y2="310.2231301068514" stroke="black"></line> <line x1="70" x2="708.3720930232558" y1="310.2231301068514" y2="310.2231301068514" opacity="nil" stroke="#e0e0e0"></line> <text y="314.2231301068514" x="64" fill="black" font-size="12" text-anchor="end" font-family="sans-serif"> 41.8</text> <line x1="70" x2="67" y1="291.5870521684476" y2="291.5870521684476" stroke="black"></line> <line x1="70" x2="708.3720930232558" y1="291.5870521684476" y2="291.5870521684476" opacity="nil" stroke="#e0e0e0"></line> <text y="295.5870521684476" x="64" fill="black" font-size="12" text-anchor="end" font-family="sans-serif"> 42.0</text> <line x1="70" x2="67" y1="272.9509742300438" y2="272.9509742300438" stroke="black"></line> <line x1="70" x2="708.3720930232558" y1="272.9509742300438" y2="272.9509742300438" opacity="nil" stroke="#e0e0e0"></line> <text y="276.9509742300438" x="64" fill="black" font-size="12" text-anchor="end" font-family="sans-serif"> 42.2</text> <line x1="70" x2="67" y1="254.3148962916407" y2="254.3148962916407" stroke="black"></line> <line x1="70" x2="708.3720930232558" y1="254.3148962916407" y2="254.3148962916407" opacity="nil" stroke="#e0e0e0"></line> <text y="258.3148962916407" x="64" fill="black" font-size="12" text-anchor="end" font-family="sans-serif"> 42.4</text> <line x1="70" x2="67" y1="235.67881835323692" y2="235.67881835323692" stroke="black"></line> <line x1="70" x2="708.3720930232558" y1="235.67881835323692" y2="235.67881835323692" opacity="nil" stroke="#e0e0e0"></line> <text y="239.67881835323692" x="64" fill="black" font-size="12" text-anchor="end" font-family="sans-serif"> 42.6</text> <line x1="70" x2="67" y1="217.04274041483382" y2="217.04274041483382" stroke="black"></line> <line x1="70" x2="708.3720930232558" y1="217.04274041483382" y2="217.04274041483382" opacity="nil" stroke="#e0e0e0"></line> <text y="221.04274041483382" x="64" fill="black" font-size="12" text-anchor="end" font-family="sans-serif"> 42.8</text> <line x1="70" x2="67" y1="198.40666247643006" y2="198.40666247643006" stroke="black"></line> <line x1="70" x2="708.3720930232558" y1="198.40666247643006" y2="198.40666247643006" opacity="nil" stroke="#e0e0e0"></line> <text y="202.40666247643006" x="64" fill="black" font-size="12" text-anchor="end" font-family="sans-serif"> 43.0</text> <line x1="70" x2="67" y1="179.77058453802627" y2="179.77058453802627" stroke="black"></line> <line x1="70" x2="708.3720930232558" y1="179.77058453802627" y2="179.77058453802627" opacity="nil" stroke="#e0e0e0"></line> <text y="183.77058453802627" x="64" fill="black" font-size="12" text-anchor="end" font-family="sans-serif"> 43.2</text> <line x1="70" x2="67" y1="161.13450659962317" y2="161.13450659962317" stroke="black"></line> <line x1="70" x2="708.3720930232558" y1="161.13450659962317" y2="161.13450659962317" opacity="nil" stroke="#e0e0e0"></line> <text y="165.13450659962317" x="64" fill="black" font-size="12" text-anchor="end" font-family="sans-serif"> 43.4</text> <line x1="70" x2="67" y1="142.4984286612194" y2="142.4984286612194" stroke="black"></line> <line x1="70" x2="708.3720930232558" y1="142.4984286612194" y2="142.4984286612194" opacity="nil" stroke="#e0e0e0"></line> <text y="146.4984286612194" x="64" fill="black" font-size="12" text-anchor="end" font-family="sans-serif"> 43.6</text> <line x1="70" x2="67" y1="123.8623507228163" y2="123.8623507228163" stroke="black"></line> <line x1="70" x2="708.3720930232558" y1="123.8623507228163" y2="123.8623507228163" opacity="nil" stroke="#e0e0e0"></line> <text y="127.8623507228163" x="64" fill="black" font-size="12" text-anchor="end" font-family="sans-serif"> 43.8</text> <line x1="70" x2="67" y1="105.22627278441252" y2="105.22627278441252" stroke="black"></line> <line x1="70" x2="708.3720930232558" y1="105.22627278441252" y2="105.22627278441252" opacity="nil" stroke="#e0e0e0"></line> <text y="109.22627278441252" x="64" fill="black" font-size="12" text-anchor="end" font-family="sans-serif"> 44.0</text> <line x1="70" x2="67" y1="86.59019484600873" y2="86.59019484600873" stroke="black"></line> <line x1="70" x2="708.3720930232558" y1="86.59019484600873" y2="86.59019484600873" opacity="nil" stroke="#e0e0e0"></line> <text y="90.59019484600873" x="64" fill="black" font-size="12" text-anchor="end" font-family="sans-serif"> 44.2</text> <line x1="70" x2="67" y1="67.95411690760562" y2="67.95411690760562" stroke="black"></line> <line x1="70" x2="708.3720930232558" y1="67.95411690760562" y2="67.95411690760562" opacity="nil" stroke="#e0e0e0"></line> <text y="71.95411690760562" x="64" fill="black" font-size="12" text-anchor="end" font-family="sans-serif"> 44.4</text> <line x1="70" x2="67" y1="49.31803896920189" y2="49.31803896920189" stroke="black"></line> <line x1="70" x2="708.3720930232558" y1="49.31803896920189" y2="49.31803896920189" opacity="nil" stroke="#e0e0e0"></line> <text y="53.31803896920189" x="64" fill="black" font-size="12" text-anchor="end" font-family="sans-serif"> 44.6</text> <line x1="70" x2="70" y1="40" y2="389.7674418604651" stroke="black"></line> <line x1="65" x2="708.3720930232558" y1="384.7674418604651" y2="384.7674418604651" stroke="black"></line> <line x1="70.0" x2="74.49557811988208" y1="384.7674418604651" y2="282.2690131992457" stroke="black"></line> <line x1="74.49557811988208" x2="78.99115623976417" y1="282.2690131992457" y2="40.0" stroke="black"></line> <line x1="78.99115623976417" x2="83.48673435964625" y1="40.0" y2="161.13450659962317" stroke="black"></line> <line x1="83.48673435964625" x2="87.98231247952833" y1="161.13450659962317" y2="161.13450659962317" stroke="black"></line> <line x1="87.98231247952833" x2="92.47789059941042" y1="161.13450659962317" y2="105.22627278441252" stroke="black"></line> <line x1="92.47789059941042" x2="96.9734687192925" y1="105.22627278441252" y2="170.45254556882506" stroke="black"></line> <line x1="96.9734687192925" x2="101.46904683917458" y1="170.45254556882506" y2="198.40666247643006" stroke="black"></line> <line x1="101.46904683917458" x2="105.96462495905666" y1="198.40666247643006" y2="151.81646763042133" stroke="black"></line> <line x1="105.96462495905666" x2="110.46020307893875" y1="151.81646763042133" y2="161.13450659962317" stroke="black"></line> <line x1="110.46020307893875" x2="114.95578119882083" y1="161.13450659962317" y2="179.77058453802627" stroke="black"></line> <line x1="114.95578119882083" x2="119.45135931870291" y1="179.77058453802627" y2="142.4984286612194" stroke="black"></line> <line x1="119.45135931870291" x2="123.946937438585" y1="142.4984286612194" y2="179.77058453802627" stroke="black"></line> <line x1="123.946937438585" x2="128.44251555846708" y1="179.77058453802627" y2="142.4984286612194" stroke="black"></line> <line x1="128.44251555846708" x2="132.93809367834916" y1="142.4984286612194" y2="133.1803896920175" stroke="black"></line> <line x1="132.93809367834916" x2="137.43367179823125" y1="133.1803896920175" y2="179.77058453802627" stroke="black"></line> <line x1="137.43367179823125" x2="141.92924991811333" y1="179.77058453802627" y2="189.08862350722816" stroke="black"></line> <line x1="141.92924991811333" x2="146.4248280379954" y1="189.08862350722816" y2="123.8623507228163" stroke="black"></line> <line x1="146.4248280379954" x2="150.9204061578775" y1="123.8623507228163" y2="189.08862350722816" stroke="black"></line> <line x1="150.9204061578775" x2="155.41598427775958" y1="189.08862350722816" y2="105.22627278441252" stroke="black"></line> <line x1="155.41598427775958" x2="159.91156239764166" y1="105.22627278441252" y2="189.08862350722816" stroke="black"></line> <line x1="159.91156239764166" x2="164.40714051752374" y1="189.08862350722816" y2="142.4984286612194" stroke="black"></line> <line x1="164.40714051752374" x2="168.90271863740583" y1="142.4984286612194" y2="161.13450659962317" stroke="black"></line> <line x1="168.90271863740583" x2="173.39829675728794" y1="161.13450659962317" y2="189.08862350722816" stroke="black"></line> <line x1="173.39829675728794" x2="177.89387487717" y1="189.08862350722816" y2="105.22627278441252" stroke="black"></line> <line x1="177.89387487717" x2="182.38945299705208" y1="105.22627278441252" y2="105.22627278441252" stroke="black"></line> <line x1="182.38945299705208" x2="186.88503111693416" y1="105.22627278441252" y2="133.1803896920175" stroke="black"></line> <line x1="186.88503111693416" x2="191.38060923681627" y1="133.1803896920175" y2="151.81646763042133" stroke="black"></line> <line x1="191.38060923681627" x2="195.87618735669832" y1="151.81646763042133" y2="133.1803896920175" stroke="black"></line> <line x1="195.87618735669832" x2="200.37176547658044" y1="133.1803896920175" y2="133.1803896920175" stroke="black"></line> <line x1="200.37176547658044" x2="204.8673435964625" y1="133.1803896920175" y2="179.77058453802627" stroke="black"></line> <line x1="204.8673435964625" x2="209.36292171634457" y1="179.77058453802627" y2="179.77058453802627" stroke="black"></line> <line x1="209.36292171634457" x2="213.85849983622668" y1="179.77058453802627" y2="114.54431175361441" stroke="black"></line> <line x1="213.85849983622668" x2="218.35407795610874" y1="114.54431175361441" y2="114.54431175361441" stroke="black"></line> <line x1="218.35407795610874" x2="222.84965607599082" y1="114.54431175361441" y2="105.22627278441252" stroke="black"></line> <line x1="222.84965607599082" x2="227.34523419587293" y1="105.22627278441252" y2="123.8623507228163" stroke="black"></line> <line x1="227.34523419587293" x2="231.840812315755" y1="123.8623507228163" y2="198.40666247643006" stroke="black"></line> <line x1="231.840812315755" x2="236.33639043563707" y1="198.40666247643006" y2="179.77058453802627" stroke="black"></line> <line x1="236.33639043563707" x2="240.83196855551915" y1="179.77058453802627" y2="142.4984286612194" stroke="black"></line> <line x1="240.83196855551915" x2="245.32754667540127" y1="142.4984286612194" y2="161.13450659962317" stroke="black"></line> <line x1="245.32754667540127" x2="249.82312479528335" y1="161.13450659962317" y2="142.4984286612194" stroke="black"></line> <line x1="249.82312479528335" x2="254.31870291516543" y1="142.4984286612194" y2="142.4984286612194" stroke="black"></line> <line x1="254.31870291516543" x2="258.8142810350475" y1="142.4984286612194" y2="133.1803896920175" stroke="black"></line> <line x1="258.8142810350475" x2="263.30985915492954" y1="133.1803896920175" y2="123.8623507228163" stroke="black"></line> <line x1="263.30985915492954" x2="267.80543727481165" y1="123.8623507228163" y2="189.08862350722816" stroke="black"></line> <line x1="267.80543727481165" x2="272.30101539469376" y1="189.08862350722816" y2="123.8623507228163" stroke="black"></line> <line x1="272.30101539469376" x2="276.7965935145759" y1="123.8623507228163" y2="123.8623507228163" stroke="black"></line> <line x1="276.7965935145759" x2="281.29217163445793" y1="123.8623507228163" y2="161.13450659962317" stroke="black"></line> <line x1="281.29217163445793" x2="285.78774975434" y1="161.13450659962317" y2="189.08862350722816" stroke="black"></line> <line x1="285.78774975434" x2="290.2833278742221" y1="189.08862350722816" y2="151.81646763042133" stroke="black"></line> <line x1="290.2833278742221" x2="294.77890599410415" y1="151.81646763042133" y2="123.8623507228163" stroke="black"></line> <line x1="294.77890599410415" x2="299.27448411398626" y1="123.8623507228163" y2="161.13450659962317" stroke="black"></line> <line x1="299.27448411398626" x2="303.7700622338683" y1="161.13450659962317" y2="114.54431175361441" stroke="black"></line> <line x1="303.7700622338683" x2="308.2656403537504" y1="114.54431175361441" y2="123.8623507228163" stroke="black"></line> <line x1="308.2656403537504" x2="312.76121847363254" y1="123.8623507228163" y2="123.8623507228163" stroke="black"></line> <line x1="312.76121847363254" x2="317.25679659351454" y1="123.8623507228163" y2="105.22627278441252" stroke="black"></line> <line x1="317.25679659351454" x2="321.75237471339665" y1="105.22627278441252" y2="114.54431175361441" stroke="black"></line> <line x1="321.75237471339665" x2="326.24795283327876" y1="114.54431175361441" y2="114.54431175361441" stroke="black"></line> <line x1="326.24795283327876" x2="330.74353095316087" y1="114.54431175361441" y2="151.81646763042133" stroke="black"></line> <line x1="330.74353095316087" x2="335.2391090730429" y1="151.81646763042133" y2="114.54431175361441" stroke="black"></line> <line x1="335.2391090730429" x2="339.734687192925" y1="114.54431175361441" y2="114.54431175361441" stroke="black"></line> <line x1="339.734687192925" x2="344.2302653128071" y1="114.54431175361441" y2="114.54431175361441" stroke="black"></line> <line x1="344.2302653128071" x2="348.72584343268915" y1="114.54431175361441" y2="123.8623507228163" stroke="black"></line> <line x1="348.72584343268915" x2="353.22142155257126" y1="123.8623507228163" y2="133.1803896920175" stroke="black"></line> <line x1="353.22142155257126" x2="357.71699967245337" y1="133.1803896920175" y2="151.81646763042133" stroke="black"></line> <line x1="357.71699967245337" x2="362.2125777923354" y1="151.81646763042133" y2="179.77058453802627" stroke="black"></line> <line x1="362.2125777923354" x2="366.7081559122175" y1="179.77058453802627" y2="142.4984286612194" stroke="black"></line> <line x1="366.7081559122175" x2="371.2037340320996" y1="142.4984286612194" y2="189.08862350722816" stroke="black"></line> <line x1="371.2037340320996" x2="375.69931215198164" y1="189.08862350722816" y2="189.08862350722816" stroke="black"></line> <line x1="375.69931215198164" x2="380.19489027186376" y1="189.08862350722816" y2="105.22627278441252" stroke="black"></line> <line x1="380.19489027186376" x2="384.69046839174587" y1="105.22627278441252" y2="123.8623507228163" stroke="black"></line> <line x1="384.69046839174587" x2="389.1860465116279" y1="123.8623507228163" y2="105.22627278441252" stroke="black"></line> <line x1="389.1860465116279" x2="393.68162463151" y1="105.22627278441252" y2="179.77058453802627" stroke="black"></line> <line x1="393.68162463151" x2="398.1772027513921" y1="179.77058453802627" y2="198.40666247643006" stroke="black"></line> <line x1="398.1772027513921" x2="402.67278087127414" y1="198.40666247643006" y2="198.40666247643006" stroke="black"></line> <line x1="402.67278087127414" x2="407.16835899115625" y1="198.40666247643006" y2="114.54431175361441" stroke="black"></line> <line x1="407.16835899115625" x2="411.6639371110383" y1="114.54431175361441" y2="142.4984286612194" stroke="black"></line> <line x1="411.6639371110383" x2="416.1595152309205" y1="142.4984286612194" y2="161.13450659962317" stroke="black"></line> <line x1="416.1595152309205" x2="420.65509335080253" y1="161.13450659962317" y2="114.54431175361441" stroke="black"></line> <line x1="420.65509335080253" x2="425.1506714706846" y1="114.54431175361441" y2="105.22627278441252" stroke="black"></line> <line x1="425.1506714706846" x2="429.6462495905667" y1="105.22627278441252" y2="189.08862350722816" stroke="black"></line> <line x1="429.6462495905667" x2="434.14182771044875" y1="189.08862350722816" y2="142.4984286612194" stroke="black"></line> <line x1="434.14182771044875" x2="438.63740583033086" y1="142.4984286612194" y2="170.45254556882506" stroke="black"></line> <line x1="438.63740583033086" x2="443.1329839502129" y1="170.45254556882506" y2="151.81646763042133" stroke="black"></line> <line x1="443.1329839502129" x2="447.628562070095" y1="151.81646763042133" y2="198.40666247643006" stroke="black"></line> <line x1="447.628562070095" x2="452.1241401899771" y1="198.40666247643006" y2="198.40666247643006" stroke="black"></line> <line x1="452.1241401899771" x2="456.61971830985914" y1="198.40666247643006" y2="114.54431175361441" stroke="black"></line> <line x1="456.61971830985914" x2="461.11529642974125" y1="114.54431175361441" y2="198.40666247643006" stroke="black"></line> <line x1="461.11529642974125" x2="465.6108745496233" y1="198.40666247643006" y2="170.45254556882506" stroke="black"></line> <line x1="465.6108745496233" x2="470.1064526695055" y1="170.45254556882506" y2="133.1803896920175" stroke="black"></line> <line x1="470.1064526695055" x2="474.6020307893875" y1="133.1803896920175" y2="142.4984286612194" stroke="black"></line> <line x1="474.6020307893875" x2="479.09760890926964" y1="142.4984286612194" y2="170.45254556882506" stroke="black"></line> <line x1="479.09760890926964" x2="483.5931870291517" y1="170.45254556882506" y2="189.08862350722816" stroke="black"></line> <line x1="483.5931870291517" x2="488.08876514903375" y1="189.08862350722816" y2="133.1803896920175" stroke="black"></line> <line x1="488.08876514903375" x2="492.58434326891586" y1="133.1803896920175" y2="189.08862350722816" stroke="black"></line> <line x1="492.58434326891586" x2="497.0799213887979" y1="189.08862350722816" y2="142.4984286612194" stroke="black"></line> <line x1="497.0799213887979" x2="501.57549950868" y1="142.4984286612194" y2="189.08862350722816" stroke="black"></line> <line x1="501.57549950868" x2="506.0710776285621" y1="189.08862350722816" y2="161.13450659962317" stroke="black"></line> <line x1="506.0710776285621" x2="510.56665574844413" y1="161.13450659962317" y2="151.81646763042133" stroke="black"></line> <line x1="510.56665574844413" x2="515.0622338683263" y1="151.81646763042133" y2="170.45254556882506" stroke="black"></line> <line x1="515.0622338683263" x2="519.5578119882083" y1="170.45254556882506" y2="114.54431175361441" stroke="black"></line> <line x1="519.5578119882083" x2="524.0533901080905" y1="114.54431175361441" y2="151.81646763042133" stroke="black"></line> <line x1="524.0533901080905" x2="528.5489682279725" y1="151.81646763042133" y2="161.13450659962317" stroke="black"></line> <line x1="528.5489682279725" x2="533.0445463478546" y1="161.13450659962317" y2="189.08862350722816" stroke="black"></line> <line x1="533.0445463478546" x2="537.5401244677366" y1="189.08862350722816" y2="170.45254556882506" stroke="black"></line> <line x1="537.5401244677366" x2="542.0357025876187" y1="170.45254556882506" y2="170.45254556882506" stroke="black"></line> <line x1="542.0357025876187" x2="546.5312807075009" y1="170.45254556882506" y2="142.4984286612194" stroke="black"></line> <line x1="546.5312807075009" x2="551.026858827383" y1="142.4984286612194" y2="189.08862350722816" stroke="black"></line> <line x1="551.026858827383" x2="555.5224369472651" y1="189.08862350722816" y2="133.1803896920175" stroke="black"></line> <line x1="555.5224369472651" x2="560.0180150671471" y1="133.1803896920175" y2="133.1803896920175" stroke="black"></line> <line x1="560.0180150671471" x2="564.5135931870291" y1="133.1803896920175" y2="151.81646763042133" stroke="black"></line> <line x1="564.5135931870291" x2="569.0091713069112" y1="151.81646763042133" y2="161.13450659962317" stroke="black"></line> <line x1="569.0091713069112" x2="573.5047494267933" y1="161.13450659962317" y2="189.08862350722816" stroke="black"></line> <line x1="573.5047494267933" x2="578.0003275466754" y1="189.08862350722816" y2="189.08862350722816" stroke="black"></line> <line x1="578.0003275466754" x2="582.4959056665575" y1="189.08862350722816" y2="198.40666247643006" stroke="black"></line> <line x1="582.4959056665575" x2="586.9914837864396" y1="198.40666247643006" y2="105.22627278441252" stroke="black"></line> <line x1="586.9914837864396" x2="591.4870619063217" y1="105.22627278441252" y2="151.81646763042133" stroke="black"></line> <line x1="591.4870619063217" x2="595.9826400262037" y1="151.81646763042133" y2="114.54431175361441" stroke="black"></line> <line x1="595.9826400262037" x2="600.4782181460859" y1="114.54431175361441" y2="161.13450659962317" stroke="black"></line> <line x1="600.4782181460859" x2="604.973796265968" y1="161.13450659962317" y2="151.81646763042133" stroke="black"></line> <line x1="604.973796265968" x2="609.46937438585" y1="151.81646763042133" y2="170.45254556882506" stroke="black"></line> <line x1="609.46937438585" x2="613.9649525057321" y1="170.45254556882506" y2="170.45254556882506" stroke="black"></line> <line x1="613.9649525057321" x2="618.4605306256142" y1="170.45254556882506" y2="114.54431175361441" stroke="black"></line> <line x1="618.4605306256142" x2="622.9561087454962" y1="114.54431175361441" y2="179.77058453802627" stroke="black"></line> <line x1="622.9561087454962" x2="627.4516868653783" y1="179.77058453802627" y2="198.40666247643006" stroke="black"></line> <line x1="627.4516868653783" x2="631.9472649852604" y1="198.40666247643006" y2="170.45254556882506" stroke="black"></line> <line x1="631.9472649852604" x2="636.4428431051425" y1="170.45254556882506" y2="142.4984286612194" stroke="black"></line> <line x1="636.4428431051425" x2="640.9384212250246" y1="142.4984286612194" y2="189.08862350722816" stroke="black"></line> <line x1="640.9384212250246" x2="645.4339993449067" y1="189.08862350722816" y2="189.08862350722816" stroke="black"></line> <line x1="645.4339993449067" x2="649.9295774647887" y1="189.08862350722816" y2="142.4984286612194" stroke="black"></line> <line x1="649.9295774647887" x2="654.4251555846708" y1="142.4984286612194" y2="105.22627278441252" stroke="black"></line> <line x1="654.4251555846708" x2="658.920733704553" y1="105.22627278441252" y2="170.45254556882506" stroke="black"></line> <line x1="658.920733704553" x2="663.416311824435" y1="170.45254556882506" y2="133.1803896920175" stroke="black"></line> <line x1="663.416311824435" x2="667.9118899443171" y1="133.1803896920175" y2="114.54431175361441" stroke="black"></line> <line x1="667.9118899443171" x2="672.4074680641992" y1="114.54431175361441" y2="189.08862350722816" stroke="black"></line> <line x1="672.4074680641992" x2="676.9030461840812" y1="189.08862350722816" y2="114.54431175361441" stroke="black"></line> <line x1="676.9030461840812" x2="681.3986243039633" y1="114.54431175361441" y2="198.40666247643006" stroke="black"></line> <line x1="681.3986243039633" x2="685.8942024238454" y1="198.40666247643006" y2="179.77058453802627" stroke="black"></line> <line x1="685.8942024238454" x2="690.3897805437275" y1="179.77058453802627" y2="105.22627278441252" stroke="black"></line> <line x1="690.3897805437275" x2="694.8853586636096" y1="105.22627278441252" y2="151.81646763042133" stroke="black"></line> <line x1="694.8853586636096" x2="699.3809367834917" y1="151.81646763042133" y2="161.13450659962317" stroke="black"></line> <line x1="699.3809367834917" x2="703.8765149033737" y1="161.13450659962317" y2="151.81646763042133" stroke="black"></line> <line x1="703.8765149033737" x2="708.3720930232558" y1="151.81646763042133" y2="189.08862350722816" stroke="black"></line></svg>