<svg width="728.3720930232558" height="444.7674418604651" version="1.1" xmlns="http://www.w3.org/2000/svg" xmlns:xlink="http://www.w3.org/1999/xlink"> <rect width="728.3720930232558" height="444.7674418604651" x="0" y="0" fill="white"></rect> <line x1="70.0" x2="70.0" y1="384.7674418604651" y2="388.7674418604651" stroke="black"></line> <line x1="70.0" x2="70.0" y1="40" y2="384.7674418604651" stroke="#e0e0e0" opacity="nil"></line> <text y="398.7674418604651" x="70.0" fill="black" font-size="12" text-anchor="middle" font-family="sans-serif"> 0</text> <line x1="99.01691331923891" x2="99.01691331923891" y1="384.7674418604651" y2="388.7674418604651" stroke="black"></line> <line x1="99.01691331923891" x2="99.01691331923891" y1="40" y2="384.7674418604651" stroke="#e0e0e0" opacity="nil"></line> <text y="398.7674418604651" x="99.01691331923891" fill="black" font-size="12" text-anchor="middle" font-family="sans-serif"> 1</text> <line x1="128.03382663847782" x2="128.03382663847782" y1="384.7674418604651" y2="388.7674418604651" stroke="black"></line> <line x1="128.03382663847782" x2="128.03382663847782" y1="40" y2="384.7674418604651" stroke="#e0e0e0" opacity="nil"></line> <text y="398.7674418604651" x="128.03382663847782" fill="black" font-size="12" text-anchor="middle" font-family="sans-serif"> 2</text> <line x1="157.0507399577167" x2="157.0507399577167" y1="384.7674418604651" y2="388.7674418604651" stroke="black"></line> <line x1="157.0507399577167" x2="157.0507399577167" y1="40" y2="384.7674418604651" stroke="#e0e0e0" opacity="nil"></line> <text y="398.7674418604651" x="157.0507399577167" fill="black" font-size="12" text-anchor="middle" font-family="sans-serif"> 3</text> <line x1="186.0676532769556" x2="186.0676532769556" y1="384.7674418604651" y2="388.7674418604651" stroke="black"></line> <line x1="186.0676532769556" x2="186.0676532769556" y1="40" y2="384.7674418604651" stroke="#e0e0e0" opacity="nil"></line> <text y="398.7674418604651" x="186.0676532769556" fill="black" font-size="12" text-anchor="middle" font-family="sans-serif"> 4</text> <line x1="215.0845665961945" x2="215.0845665961945" y1="384.7674418604651" y2="388.7674418604651" stroke="black"></line> <line x1="215.0845665961945" x2="215.0845665961945" y1="40" y2="384.7674418604651" stroke="#e0e0e0" opacity="nil"></line> <text y="398.7674418604651" x="215.0845665961945" fill="black" font-size="12" text-anchor="middle" font-family="sans-serif"> 5</text> <line x1="244.1014799154334" x2="244.1014799154334" y1="384.7674418604651" y2="388.7674418604651" stroke="black"></line> <line x1="244.1014799154334" x2="244.1014799154334" y1="40" y2="384.7674418604651" stroke="#e0e0e0" opacity="nil"></line> <text y="398.7674418604651" x="244.1014799154334" fill="black" font-size="12" text-anchor="middle" font-family="sans-serif"> 6</text> <line x1="273.11839323467234" x2="273.11839323467234" y1="384.7674418604651" y2="388.7674418604651" stroke="black"></line> <line x1="273.11839323467234" x2="273.11839323467234" y1="40" y2="384.7674418604651" stroke="#e0e0e0" opacity="nil"></line> <text y="398.7674418604651" x="273.11839323467234" fill="black" font-size="12" text-anchor="middle" font-family="sans-serif"> 7</text> <line x1="302.1353065539112" x2="302.1353065539112" y1="384.7674418604651" y2="388.7674418604651" stroke="black"></line> <line x1="302.1353065539112" x2="302.1353065539112" y1="40" y2="384.7674418604651" stroke="#e0e0e0" opacity="nil"></line> <text y="398.7674418604651" x="302.1353065539112" fill="black" font-size="12" text-anchor="middle" font-family="sans-serif"> 8</text> <line x1="331.15221987315016" x2="331.15221987315016" y1="384.7674418604651" y2="388.7674418604651" stroke="black"></line> <line x1="331.15221987315016" x2="331.15221987315016" y1="40" y2="384.7674418604651" stroke="#e0e0e0" opacity="nil"></line> <text y="398.7674418604651" x="331.15221987315016" fill="black" font-size="12" text-anchor="middle" font-family="sans-serif"> 9</text> <line x1="360.169133192389" x2="360.169133192389" y1="384.7674418604651" y2="388.7674418604651" stroke="black"></line> <line x1="360.169133192389" x2="360.169133192389" y1="40" y2="384.7674418604651" stroke="#e0e0e0" opacity="nil"></line> <text y="398.7674418604651" x="360.169133192389" fill="black" font-size="12" text-anchor="middle" font-family="sans-serif"> 10</text> <line x1="389.1860465116279" x2="389.1860465116279" y1="384.7674418604651" y2="388.7674418604651" stroke="black"></line> <line x1="389.1860465116279" x2="389.1860465116279" y1="40" y2="384.7674418604651" stroke="#e0e0e0" opacity="nil"></line> <text y="398.7674418604651" x="389.1860465116279" fill="black" font-size="12" text-anchor="middle" font-family="sans-serif"> 11</text> <line x1="418.2029598308668" x2="418.2029598308668" y1="384.7674418604651" y2="388.7674418604651" stroke="black"></line> <line x1="418.2029598308668" x2="418.2029598308668" y1="40" y2="384.7674418604651" stroke="#e0e0e0" opacity="nil"></line> <text y="398.7674418604651" x="418.2029598308668" fill="black" font-size="12" text-anchor="middle" font-family="sans-serif"> 12</text> <line x1="447.21987315010574" x2="447.21987315010574" y1="384.7674418604651" y2="388.7674418604651" stroke="black"></line> <line x1="447.21987315010574" x2="447.21987315010574" y1="40" y2="384.7674418604651" stroke="#e0e0e0" opacity="nil"></line> <text y="398.7674418604651" x="447.21987315010574" fill="black" font-size="12" text-anchor="middle" font-family="sans-serif"> 13</text> <line x1="476.2367864693446" x2="476.2367864693446" y1="384.7674418604651" y2="388.7674418604651" stroke="black"></line> <line x1="476.2367864693446" x2="476.2367864693446" y1="40" y2="384.7674418604651" stroke="#e0e0e0" opacity="nil"></line> <text y="398.7674418604651" x="476.2367864693446" fill="black" font-size="12" text-anchor="middle" font-family="sans-serif"> 14</text> <line x1="505.2536997885835" x2="505.2536997885835" y1="384.7674418604651" y2="388.7674418604651" stroke="black"></line> <line x1="505.2536997885835" x2="505.2536997885835" y1="40" y2="384.7674418604651" stroke="#e0e0e0" opacity="nil"></line> <text y="398.7674418604651" x="505.2536997885835" fill="black" font-size="12" text-anchor="middle" font-family="sans-serif"> 15</text> <line x1="534.2706131078224" x2="534.2706131078224" y1="384.7674418604651" y2="388.7674418604651" stroke="black"></line> <line x1="534.2706131078224" x2="534.2706131078224" y1="40" y2="384.7674418604651" stroke="#e0e0e0" opacity="nil"></line> <text y="398.7674418604651" x="534.2706131078224" fill="black" font-size="12" text-anchor="middle" font-family="sans-serif"> 16</text> <line x1="563.2875264270613" x2="563.2875264270613" y1="384.7674418604651" y2="388.7674418604651" stroke="black"></line> <line x1="563.2875264270613" x2="563.2875264270613" y1="40" y2="384.7674418604651" stroke="#e0e0e0" opacity="nil"></line> <text y="398.7674418604651" x="563.2875264270613" fill="black" font-size="12" text-anchor="middle" font-family="sans-serif"> 17</text> <line x1="592.3044397463003" x2="592.3044397463003" y1="384.7674418604651" y2="388.7674418604651" stroke="black"></line> <line x1="592.3044397463003" x2="592.3044397463003" y1="40" y2="384.7674418604651" stroke="#e0e0e0" opacity="nil"></line> <text y="398.7674418604651" x="592.3044397463003" fill="black" font-size="12" text-anchor="middle" font-family="sans-serif"> 18</text> <line x1="621.3213530655391" x2="621.3213530655391" y1="384.7674418604651" y2="388.7674418604651" stroke="black"></line> <line x1="621.3213530655391" x2="621.3213530655391" y1="40" y2="384.7674418604651" stroke="#e0e0e0" opacity="nil"></line> <text y="398.7674418604651" x="621.3213530655391" fill="black" font-size="12" text-anchor="middle" font-family="sans-serif"> 19</text> <line x1="650.338266384778" x2="650.338266384778" y1="384.7674418604651" y2="388.7674418604651" stroke="black"></line> <line x1="650.338266384778" x2="650.338266384778" y1="40" y2="384.7674418604651" stroke="#e0e0e0" opacity="nil"></line> <text y="398.7674418604651" x="650.338266384778" fill="black" font-size="12" text-anchor="middle" font-family="sans-serif"> 20</text> <line x1="679.355179704017" x2="679.355179704017" y1="384.7674418604651" y2="388.7674418604651" stroke="black"></line> <line x1="679.355179704017" x2="679.355179704017" y1="40" y2="384.7674418604651" stroke="#e0e0e0" opacity="nil"></line> <text y="398.7674418604651" x="679.355179704017" fill="black" font-size="12" text-anchor="middle" font-family="sans-serif"> 21</text> <line x1="708.3720930232558" x2="708.3720930232558" y1="384.7674418604651" y2="388.7674418604651" stroke="black"></line> <line x1="708.3720930232558" x2="708.3720930232558" y1="40" y2="384.7674418604651" stroke="#e0e0e0" opacity="nil"></line> <text y="398.7674418604651" x="708.3720930232558" fill="black" font-size="12" text-anchor="middle" font-family="sans-serif"> 22</text> <line x1="70" x2="67" y1="384.7674418604651" y2="384.7674418604651" stroke="black"></line> <line x1="70" x2="708.3720930232558" y1="384.7674418604651" y2="384.7674418604651" opacity="nil" stroke="#e0e0e0"></line> <text y="388.7674418604651" x="64" fill="black" font-size="12" text-anchor="end" font-family="sans-serif"> 41.0</text> <line x1="70" x2="67" y1="366.1313639220613" y2="366.1313639220613" stroke="black"></line> <line x1="70" x2="708.3720930232558" y1="366.1313639220613" y2="366.1313639220613" opacity="nil" stroke="#e0e0e0"></line> <text y="370.1313639220613" x="64" fill="black" font-size="12" text-anchor="end" font-family="sans-serif"> 41.2</text> <line x1="70" x2="67" y1="347.4952859836582" y2="347.4952859836582" stroke="black"></line> <line x1="70" x2="708.3720930232558" y1="347.4952859836582" y2="347.4952859836582" opacity="nil" stroke="#e0e0e0"></line> <text y="351.4952859836582" x="64" fill="black" font-size="12" text-anchor="end" font-family="sans-serif"> 41.4</text> <line x1="70" x2="67" y1="328.8592080452545" y2="328.8592080452545" stroke="black"></line> <line x1="70" x2="708.3720930232558" y1="328.8592080452545" y2="328.8592080452545" opacity="nil" stroke="#e0e0e0"></line> <text y="332.8592080452545" x="64" fill="black" font-size="12" text-anchor="end" font-family="sans-serif"> 41.6</text> <line x1="70" x2="67" y1="310.2231301068514" y2="310.2231301068514" stroke="black"></line> <line x1="70" x2="708.3720930232558" y1="310.2231301068514" y2="310.2231301068514" opacity="nil" stroke="#e0e0e0"></line> <text y="314.2231301068514" x="64" fill="black" font-size="12" text-anchor="end" font-family="sans-serif"> 41.8</text> <line x1="70" x2="67" y1="291.5870521684476" y2="291.5870521684476" stroke="black"></line> <line x1="70" x2="708.3720930232558" y1="291.5870521684476" y2="291.5870521684476" opacity="nil" stroke="#e0e0e0"></line> <text y="295.5870521684476" x="64" fill="black" font-size="12" text-anchor="end" font-family="sans-serif"> 42.0</text> <line x1="70" x2="67" y1="272.9509742300438" y2="272.9509742300438" stroke="black"></line> <line x1="70" x2="708.3720930232558" y1="272.9509742300438" y2="272.9509742300438" opacity="nil" stroke="#e0e0e0"></line> <text y="276.9509742300438" x="64" fill="black" font-size="12" text-anchor="end" font-family="sans-serif"> 42.2</text> <line x1="70" x2="67" y1="254.3148962916407" y2="254.3148962916407" stroke="black"></line> <line x1="70" x2="708.3720930232558" y1="254.3148962916407" y2="254.3148962916407" opacity="nil" stroke="#e0e0e0"></line> <text y="258.3148962916407" x="64" fill="black" font-size="12" text-anchor="end" font-family="sans-serif"> 42.4</text> <line x1="70" x2="67" y1="235.67881835323692" y2="235.67881835323692" stroke="black"></line> <line x1="70" x2="708.3720930232558" y1="235.67881835323692" y2="235.67881835323692" opacity="nil" stroke="#e0e0e0"></line> <text y="239.67881835323692" x="64" fill="black" font-size="12" text-anchor="end" font-family="sans-serif"> 42.6</text> <line x1="70" x2="67" y1="217.04274041483382" y2="217.04274041483382" stroke="black"></line> <line x1="70" x2="708.3720930232558" y1="217.04274041483382" y2="217.04274041483382" opacity="nil" stroke="#e0e0e0"></line> <text y="221.04274041483382" x="64" fill="black" font-size="12" text-anchor="end" font-family="sans-serif"> 42.8</text> <line x1="70" x2="67" y1="198.40666247643006" y2="198.40666247643006" stroke="black"></line> <line x1="70" x2="708.3720930232558" y1="198.40666247643006" y2="198.40666247643006" opacity="nil" stroke="#e0e0e0"></line> <text y="202.40666247643006" x="64" fill="black" font-size="12" text-anchor="end" font-family="sans-serif"> 43.0</text> <line x1="70" x2="67" y1="179.77058453802627" y2="179.77058453802627" stroke="black"></line> <line x1="70" x2="708.3720930232558" y1="179.77058453802627" y2="179.77058453802627" opacity="nil" stroke="#e0e0e0"></line> <text y="183.77058453802627" x="64" fill="black" font-size="12" text-anchor="end" font-family="sans-serif"> 43.2</text> <line x1="70" x2="67" y1="161.13450659962317" y2="161.13450659962317" stroke="black"></line> <line x1="70" x2="708.3720930232558" y1="161.13450659962317" y2="161.13450659962317" opacity="nil" stroke="#e0e0e0"></line> <text y="165.13450659962317" x="64" fill="black" font-size="12" text-anchor="end" font-family="sans-serif"> 43.4</text> <line x1="70" x2="67" y1="142.4984286612194" y2="142.4984286612194" stroke="black"></line> <line x1="70" x2="708.3720930232558" y1="142.4984286612194" y2="142.4984286612194" opacity="nil" stroke="#e0e0e0"></line> <text y="146.4984286612194" x="64" fill="black" font-size="12" text-anchor="end" font-family="sans-serif"> 43.6</text> <line x1="70" x2="67" y1="123.8623507228163" y2="123.8623507228163" stroke="black"></line> <line x1="70" x2="708.3720930232558" y1="123.8623507228163" y2="123.8623507228163" opacity="nil" stroke="#e0e0e0"></line> <text y="127.8623507228163" x="64" fill="black" font-size="12" text-anchor="end" font-family="sans-serif"> 43.8</text> <line x1="70" x2="67" y1="105.22627278441252" y2="105.22627278441252" stroke="black"></line> <line x1="70" x2="708.3720930232558" y1="105.22627278441252" y2="105.22627278441252" opacity="nil" stroke="#e0e0e0"></line> <text y="109.22627278441252" x="64" fill="black" font-size="12" text-anchor="end" font-family="sans-serif"> 44.0</text> <line x1="70" x2="67" y1="86.59019484600873" y2="86.59019484600873" stroke="black"></line> <line x1="70" x2="708.3720930232558" y1="86.59019484600873" y2="86.59019484600873" opacity="nil" stroke="#e0e0e0"></line> <text y="90.59019484600873" x="64" fill="black" font-size="12" text-anchor="end" font-family="sans-serif"> 44.2</text> <line x1="70" x2="67" y1="67.95411690760562" y2="67.95411690760562" stroke="black"></line> <line x1="70" x2="708.3720930232558" y1="67.95411690760562" y2="67.95411690760562" opacity="nil" stroke="#e0e0e0"></line> <text y="71.95411690760562" x="64" fill="black" font-size="12" text-anchor="end" font-family="sans-serif"> 44.4</text> <line x1="70" x2="67" y1="49.31803896920189" y2="49.31803896920189" stroke="black"></line> <line x1="70" x2="708.3720930232558" y1="49.31803896920189" y2="49.31803896920189" opacity="nil" stroke="#e0e0e0"></line> <text y="53.31803896920189" x="64" fill="black" font-size="12" text-anchor="end" font-family="sans-serif"> 44.6</text> <line x1="70" x2="70" y1="40" y2="389.7674418604651" stroke="black"></line> <line x1="65" x2="708.3720930232558" y1="384.7674418604651" y2="384.7674418604651" stroke="black"></line> <line x1="70.0" x2="99.01691331923891" y1="384.7674418604651" y2="282.2690131992457" stroke="black"></line> <line x1="99.01691331923891" x2="128.03382663847782" y1="282.2690131992457" y2="40.0" stroke="black"></line> <line x1="128.03382663847782" x2="157.0507399577167" y1="40.0" y2="161.13450659962317" stroke="black"></line> <line x1="157.0507399577167" x2="186.0676532769556" y1="161.13450659962317" y2="161.13450659962317" stroke="black"></line> <line x1="186.0676532769556" x2="215.0845665961945" y1="161.13450659962317" y2="105.22627278441252" stroke="black"></line> <line x1="215.0845665961945" x2="244.1014799154334" y1="105.22627278441252" y2="170.45254556882506" stroke="black"></line> <line x1="244.1014799154334" x2="273.11839323467234" y1="170.45254556882506" y2="198.40666247643006" stroke="black"></line> <line x1="273.11839323467234" x2="302.1353065539112" y1="198.40666247643006" y2="151.81646763042133" stroke="black"></line> <line x1="302.1353065539112" x2="331.15221987315016" y1="151.81646763042133" y2="161.13450659962317" stroke="black"></line> <line x1="331.15221987315016" x2="360.169133192389" y1="161.13450659962317" y2="179.77058453802627" stroke="black"></line> <line x1="360.169133192389" x2="389.1860465116279" y1="179.77058453802627" y2="142.4984286612194" stroke="black"></line> <line x1="389.1860465116279" x2="418.2029598308668" y1="142.4984286612194" y2="179.77058453802627" stroke="black"></line> <line x1="418.2029598308668" x2="447.21987315010574" y1="179.77058453802627" y2="142.4984286612194" stroke="black"></line> <line x1="447.21987315010574" x2="476.2367864693446" y1="142.4984286612194" y2="133.1803896920175" stroke="black"></line> <line x1="476.2367864693446" x2="505.2536997885835" y1="133.1803896920175" y2="179.77058453802627" stroke="black"></line> <line x1="505.2536997885835" x2="534.2706131078224" y1="179.77058453802627" y2="189.08862350722816" stroke="black"></line> <line x1="534.2706131078224" x2="563.2875264270613" y1="189.08862350722816" y2="123.8623507228163" stroke="black"></line> <line x1="563.2875264270613" x2="592.3044397463003" y1="123.8623507228163" y2="189.08862350722816" stroke="black"></line> <line x1="592.3044397463003" x2="621.3213530655391" y1="189.08862350722816" y2="105.22627278441252" stroke="black"></line> <line x1="621.3213530655391" x2="650.338266384778" y1="105.22627278441252" y2="189.08862350722816" stroke="black"></line> <line x1="650.338266384778" x2="679.355179704017" y1="189.08862350722816" y2="142.4984286612194" stroke="black"></line> <line x1="679.355179704017" x2="708.3720930232558" y1="142.4984286612194" y2="161.13450659962317" stroke="black"></line></svg>