<svg width="728" height="450" version="1.1" xmlns="http://www.w3.org/2000/svg" xmlns:xlink="http://www.w3.org/1999/xlink"> <rect width="728" height="450" x="0" y="0" fill="white"></rect> <line x1="70.0" x2="70.0" y1="390" y2="394" stroke="black"></line> <line x1="70.0" x2="70.0" y1="40" y2="390" stroke="#e0e0e0" opacity="1"></line> <text y="404" x="70.0" fill="black" font-weight="normal" font-size="12" text-anchor="middle" font-family="sans-serif"> 0</text> <line x1="92.46478873239437" x2="92.46478873239437" y1="390" y2="392" stroke="black"></line> <line x1="92.46478873239437" x2="92.46478873239437" y1="40" y2="390" stroke="#e0e0e0" opacity="1"></line> <line x1="114.92957746478874" x2="114.92957746478874" y1="390" y2="394" stroke="black"></line> <line x1="114.92957746478874" x2="114.92957746478874" y1="40" y2="390" stroke="#e0e0e0" opacity="1"></line> <text y="404" x="114.92957746478874" fill="black" font-weight="normal" font-size="12" text-anchor="middle" font-family="sans-serif"> 10</text> <line x1="137.3943661971831" x2="137.3943661971831" y1="390" y2="392" stroke="black"></line> <line x1="137.3943661971831" x2="137.3943661971831" y1="40" y2="390" stroke="#e0e0e0" opacity="1"></line> <line x1="159.85915492957747" x2="159.85915492957747" y1="390" y2="394" stroke="black"></line> <line x1="159.85915492957747" x2="159.85915492957747" y1="40" y2="390" stroke="#e0e0e0" opacity="1"></line> <text y="404" x="159.85915492957747" fill="black" font-weight="normal" font-size="12" text-anchor="middle" font-family="sans-serif"> 20</text> <line x1="182.32394366197184" x2="182.32394366197184" y1="390" y2="392" stroke="black"></line> <line x1="182.32394366197184" x2="182.32394366197184" y1="40" y2="390" stroke="#e0e0e0" opacity="1"></line> <line x1="204.7887323943662" x2="204.7887323943662" y1="390" y2="394" stroke="black"></line> <line x1="204.7887323943662" x2="204.7887323943662" y1="40" y2="390" stroke="#e0e0e0" opacity="1"></line> <text y="404" x="204.7887323943662" fill="black" font-weight="normal" font-size="12" text-anchor="middle" font-family="sans-serif"> 30</text> <line x1="227.25352112676057" x2="227.25352112676057" y1="390" y2="392" stroke="black"></line> <line x1="227.25352112676057" x2="227.25352112676057" y1="40" y2="390" stroke="#e0e0e0" opacity="1"></line> <line x1="249.71830985915494" x2="249.71830985915494" y1="390" y2="394" stroke="black"></line> <line x1="249.71830985915494" x2="249.71830985915494" y1="40" y2="390" stroke="#e0e0e0" opacity="1"></line> <text y="404" x="249.71830985915494" fill="black" font-weight="normal" font-size="12" text-anchor="middle" font-family="sans-serif"> 40</text> <line x1="272.1830985915493" x2="272.1830985915493" y1="390" y2="392" stroke="black"></line> <line x1="272.1830985915493" x2="272.1830985915493" y1="40" y2="390" stroke="#e0e0e0" opacity="1"></line> <line x1="294.6478873239437" x2="294.6478873239437" y1="390" y2="394" stroke="black"></line> <line x1="294.6478873239437" x2="294.6478873239437" y1="40" y2="390" stroke="#e0e0e0" opacity="1"></line> <text y="404" x="294.6478873239437" fill="black" font-weight="normal" font-size="12" text-anchor="middle" font-family="sans-serif"> 50</text> <line x1="317.11267605633805" x2="317.11267605633805" y1="390" y2="392" stroke="black"></line> <line x1="317.11267605633805" x2="317.11267605633805" y1="40" y2="390" stroke="#e0e0e0" opacity="1"></line> <line x1="339.5774647887324" x2="339.5774647887324" y1="390" y2="394" stroke="black"></line> <line x1="339.5774647887324" x2="339.5774647887324" y1="40" y2="390" stroke="#e0e0e0" opacity="1"></line> <text y="404" x="339.5774647887324" fill="black" font-weight="normal" font-size="12" text-anchor="middle" font-family="sans-serif"> 60</text> <line x1="362.0422535211268" x2="362.0422535211268" y1="390" y2="392" stroke="black"></line> <line x1="362.0422535211268" x2="362.0422535211268" y1="40" y2="390" stroke="#e0e0e0" opacity="1"></line> <line x1="384.50704225352115" x2="384.50704225352115" y1="390" y2="394" stroke="black"></line> <line x1="384.50704225352115" x2="384.50704225352115" y1="40" y2="390" stroke="#e0e0e0" opacity="1"></line> <text y="404" x="384.50704225352115" fill="black" font-weight="normal" font-size="12" text-anchor="middle" font-family="sans-serif"> 70</text> <line x1="406.97183098591546" x2="406.97183098591546" y1="390" y2="392" stroke="black"></line> <line x1="406.97183098591546" x2="406.97183098591546" y1="40" y2="390" stroke="#e0e0e0" opacity="1"></line> <line x1="429.4366197183099" x2="429.4366197183099" y1="390" y2="394" stroke="black"></line> <line x1="429.4366197183099" x2="429.4366197183099" y1="40" y2="390" stroke="#e0e0e0" opacity="1"></line> <text y="404" x="429.4366197183099" fill="black" font-weight="normal" font-size="12" text-anchor="middle" font-family="sans-serif"> 80</text> <line x1="451.9014084507042" x2="451.9014084507042" y1="390" y2="392" stroke="black"></line> <line x1="451.9014084507042" x2="451.9014084507042" y1="40" y2="390" stroke="#e0e0e0" opacity="1"></line> <line x1="474.3661971830986" x2="474.3661971830986" y1="390" y2="394" stroke="black"></line> <line x1="474.3661971830986" x2="474.3661971830986" y1="40" y2="390" stroke="#e0e0e0" opacity="1"></line> <text y="404" x="474.3661971830986" fill="black" font-weight="normal" font-size="12" text-anchor="middle" font-family="sans-serif"> 90</text> <line x1="496.83098591549293" x2="496.83098591549293" y1="390" y2="392" stroke="black"></line> <line x1="496.83098591549293" x2="496.83098591549293" y1="40" y2="390" stroke="#e0e0e0" opacity="1"></line> <line x1="519.2957746478874" x2="519.2957746478874" y1="390" y2="394" stroke="black"></line> <line x1="519.2957746478874" x2="519.2957746478874" y1="40" y2="390" stroke="#e0e0e0" opacity="1"></line> <text y="404" x="519.2957746478874" fill="black" font-weight="normal" font-size="12" text-anchor="middle" font-family="sans-serif"> 100</text> <line x1="541.7605633802817" x2="541.7605633802817" y1="390" y2="392" stroke="black"></line> <line x1="541.7605633802817" x2="541.7605633802817" y1="40" y2="390" stroke="#e0e0e0" opacity="1"></line> <line x1="564.2253521126761" x2="564.2253521126761" y1="390" y2="394" stroke="black"></line> <line x1="564.2253521126761" x2="564.2253521126761" y1="40" y2="390" stroke="#e0e0e0" opacity="1"></line> <text y="404" x="564.2253521126761" fill="black" font-weight="normal" font-size="12" text-anchor="middle" font-family="sans-serif"> 110</text> <line x1="586.6901408450705" x2="586.6901408450705" y1="390" y2="392" stroke="black"></line> <line x1="586.6901408450705" x2="586.6901408450705" y1="40" y2="390" stroke="#e0e0e0" opacity="1"></line> <line x1="609.1549295774648" x2="609.1549295774648" y1="390" y2="394" stroke="black"></line> <line x1="609.1549295774648" x2="609.1549295774648" y1="40" y2="390" stroke="#e0e0e0" opacity="1"></line> <text y="404" x="609.1549295774648" fill="black" font-weight="normal" font-size="12" text-anchor="middle" font-family="sans-serif"> 120</text> <line x1="631.6197183098592" x2="631.6197183098592" y1="390" y2="392" stroke="black"></line> <line x1="631.6197183098592" x2="631.6197183098592" y1="40" y2="390" stroke="#e0e0e0" opacity="1"></line> <line x1="654.0845070422536" x2="654.0845070422536" y1="390" y2="394" stroke="black"></line> <line x1="654.0845070422536" x2="654.0845070422536" y1="40" y2="390" stroke="#e0e0e0" opacity="1"></line> <text y="404" x="654.0845070422536" fill="black" font-weight="normal" font-size="12" text-anchor="middle" font-family="sans-serif"> 130</text> <line x1="676.5492957746478" x2="676.5492957746478" y1="390" y2="392" stroke="black"></line> <line x1="676.5492957746478" x2="676.5492957746478" y1="40" y2="390" stroke="#e0e0e0" opacity="1"></line> <line x1="699.0140845070423" x2="699.0140845070423" y1="390" y2="394" stroke="black"></line> <line x1="699.0140845070423" x2="699.0140845070423" y1="40" y2="390" stroke="#e0e0e0" opacity="1"></line> <text y="404" x="699.0140845070423" fill="black" font-weight="normal" font-size="12" text-anchor="middle" font-family="sans-serif"> 140</text> <line x1="70" x2="67" y1="390.0" y2="390.0" stroke="black"></line> <line x1="70" x2="708" y1="390.0" y2="390.0" opacity="1" stroke="#e0e0e0"></line> <text y="394.0" x="64" fill="black" font-size="12" text-anchor="end" font-family="sans-serif"> 41</text> <line x1="70" x2="67" y1="377.93103448275843" y2="377.93103448275843" stroke="black"></line> <line x1="70" x2="708" y1="377.93103448275843" y2="377.93103448275843" opacity="1" stroke="#e0e0e0"></line> <line x1="70" x2="67" y1="365.8620689655173" y2="365.8620689655173" stroke="black"></line> <line x1="70" x2="708" y1="365.8620689655173" y2="365.8620689655173" opacity="1" stroke="#e0e0e0"></line> <line x1="70" x2="67" y1="353.79310344827576" y2="353.79310344827576" stroke="black"></line> <line x1="70" x2="708" y1="353.79310344827576" y2="353.79310344827576" opacity="1" stroke="#e0e0e0"></line> <line x1="70" x2="67" y1="341.72413793103465" y2="341.72413793103465" stroke="black"></line> <line x1="70" x2="708" y1="341.72413793103465" y2="341.72413793103465" opacity="1" stroke="#e0e0e0"></line> <line x1="70" x2="67" y1="329.6551724137931" y2="329.6551724137931" stroke="black"></line> <line x1="70" x2="708" y1="329.6551724137931" y2="329.6551724137931" opacity="1" stroke="#e0e0e0"></line> <text y="333.6551724137931" x="64" fill="black" font-size="12" text-anchor="end" font-family="sans-serif"> 42</text> <line x1="70" x2="67" y1="317.5862068965515" y2="317.5862068965515" stroke="black"></line> <line x1="70" x2="708" y1="317.5862068965515" y2="317.5862068965515" opacity="1" stroke="#e0e0e0"></line> <line x1="70" x2="67" y1="305.5172413793104" y2="305.5172413793104" stroke="black"></line> <line x1="70" x2="708" y1="305.5172413793104" y2="305.5172413793104" opacity="1" stroke="#e0e0e0"></line> <line x1="70" x2="67" y1="293.44827586206884" y2="293.44827586206884" stroke="black"></line> <line x1="70" x2="708" y1="293.44827586206884" y2="293.44827586206884" opacity="1" stroke="#e0e0e0"></line> <line x1="70" x2="67" y1="281.3793103448277" y2="281.3793103448277" stroke="black"></line> <line x1="70" x2="708" y1="281.3793103448277" y2="281.3793103448277" opacity="1" stroke="#e0e0e0"></line> <line x1="70" x2="67" y1="269.31034482758616" y2="269.31034482758616" stroke="black"></line> <line x1="70" x2="708" y1="269.31034482758616" y2="269.31034482758616" opacity="1" stroke="#e0e0e0"></line> <text y="273.31034482758616" x="64" fill="black" font-size="12" text-anchor="end" font-family="sans-serif"> 43</text> <line x1="70" x2="67" y1="257.24137931034454" y2="257.24137931034454" stroke="black"></line> <line x1="70" x2="708" y1="257.24137931034454" y2="257.24137931034454" opacity="1" stroke="#e0e0e0"></line> <line x1="70" x2="67" y1="245.17241379310346" y2="245.17241379310346" stroke="black"></line> <line x1="70" x2="708" y1="245.17241379310346" y2="245.17241379310346" opacity="1" stroke="#e0e0e0"></line> <line x1="70" x2="67" y1="233.10344827586192" y2="233.10344827586192" stroke="black"></line> <line x1="70" x2="708" y1="233.10344827586192" y2="233.10344827586192" opacity="1" stroke="#e0e0e0"></line> <line x1="70" x2="67" y1="221.03448275862078" y2="221.03448275862078" stroke="black"></line> <line x1="70" x2="708" y1="221.03448275862078" y2="221.03448275862078" opacity="1" stroke="#e0e0e0"></line> <line x1="70" x2="67" y1="208.96551724137922" y2="208.96551724137922" stroke="black"></line> <line x1="70" x2="708" y1="208.96551724137922" y2="208.96551724137922" opacity="1" stroke="#e0e0e0"></line> <text y="212.96551724137922" x="64" fill="black" font-size="12" text-anchor="end" font-family="sans-serif"> 44</text> <line x1="70" x2="67" y1="196.89655172413765" y2="196.89655172413765" stroke="black"></line> <line x1="70" x2="708" y1="196.89655172413765" y2="196.89655172413765" opacity="1" stroke="#e0e0e0"></line> <line x1="70" x2="67" y1="184.82758620689654" y2="184.82758620689654" stroke="black"></line> <line x1="70" x2="708" y1="184.82758620689654" y2="184.82758620689654" opacity="1" stroke="#e0e0e0"></line> <line x1="70" x2="67" y1="172.75862068965498" y2="172.75862068965498" stroke="black"></line> <line x1="70" x2="708" y1="172.75862068965498" y2="172.75862068965498" opacity="1" stroke="#e0e0e0"></line> <line x1="70" x2="67" y1="160.68965517241384" y2="160.68965517241384" stroke="black"></line> <line x1="70" x2="708" y1="160.68965517241384" y2="160.68965517241384" opacity="1" stroke="#e0e0e0"></line> <line x1="70" x2="67" y1="148.62068965517227" y2="148.62068965517227" stroke="black"></line> <line x1="70" x2="708" y1="148.62068965517227" y2="148.62068965517227" opacity="1" stroke="#e0e0e0"></line> <text y="152.62068965517227" x="64" fill="black" font-size="12" text-anchor="end" font-family="sans-serif"> 45</text> <line x1="70" x2="67" y1="136.55172413793073" y2="136.55172413793073" stroke="black"></line> <line x1="70" x2="708" y1="136.55172413793073" y2="136.55172413793073" opacity="1" stroke="#e0e0e0"></line> <line x1="70" x2="67" y1="124.48275862068965" y2="124.48275862068965" stroke="black"></line> <line x1="70" x2="708" y1="124.48275862068965" y2="124.48275862068965" opacity="1" stroke="#e0e0e0"></line> <line x1="70" x2="67" y1="112.41379310344809" y2="112.41379310344809" stroke="black"></line> <line x1="70" x2="708" y1="112.41379310344809" y2="112.41379310344809" opacity="1" stroke="#e0e0e0"></line> <line x1="70" x2="67" y1="100.34482758620692" y2="100.34482758620692" stroke="black"></line> <line x1="70" x2="708" y1="100.34482758620692" y2="100.34482758620692" opacity="1" stroke="#e0e0e0"></line> <line x1="70" x2="67" y1="88.27586206896535" y2="88.27586206896535" stroke="black"></line> <line x1="70" x2="708" y1="88.27586206896535" y2="88.27586206896535" opacity="1" stroke="#e0e0e0"></line> <text y="92.27586206896535" x="64" fill="black" font-size="12" text-anchor="end" font-family="sans-serif"> 46</text> <line x1="70" x2="67" y1="76.20689655172384" y2="76.20689655172384" stroke="black"></line> <line x1="70" x2="708" y1="76.20689655172384" y2="76.20689655172384" opacity="1" stroke="#e0e0e0"></line> <line x1="70" x2="67" y1="64.13793103448268" y2="64.13793103448268" stroke="black"></line> <line x1="70" x2="708" y1="64.13793103448268" y2="64.13793103448268" opacity="1" stroke="#e0e0e0"></line> <line x1="70" x2="67" y1="52.06896551724111" y2="52.06896551724111" stroke="black"></line> <line x1="70" x2="708" y1="52.06896551724111" y2="52.06896551724111" opacity="1" stroke="#e0e0e0"></line> <line x1="70" x2="67" y1="40.0" y2="40.0" stroke="black"></line> <line x1="70" x2="708" y1="40.0" y2="40.0" opacity="1" stroke="#e0e0e0"></line> <line x1="70" x2="70" y1="40" y2="395" stroke="black"></line> <line x1="65" x2="708" y1="390" y2="390" stroke="black"></line> <clipPath id="clip-0"> <rect x="70" y="40" width="638" height="350"></rect></clipPath> <line x1="70" x2="74.49295774647888" y1="390.0" y2="323.62068965517227" stroke="black" clip-path="url(#clip-0)" stroke-width="1"></line> <line x1="74.49295774647888" x2="78.98591549295774" y1="323.62068965517227" y2="166.7241379310342" stroke="black" clip-path="url(#clip-0)" stroke-width="1"></line> <line x1="78.98591549295774" x2="83.47887323943662" y1="166.7241379310342" y2="245.17241379310346" stroke="black" clip-path="url(#clip-0)" stroke-width="1"></line> <line x1="83.47887323943662" x2="87.97183098591549" y1="245.17241379310346" y2="245.17241379310346" stroke="black" clip-path="url(#clip-0)" stroke-width="1"></line> <line x1="87.97183098591549" x2="92.46478873239437" y1="245.17241379310346" y2="208.96551724137922" stroke="black" clip-path="url(#clip-0)" stroke-width="1"></line> <line x1="92.46478873239437" x2="96.95774647887325" y1="208.96551724137922" y2="251.20689655172424" stroke="black" clip-path="url(#clip-0)" stroke-width="1"></line> <line x1="96.95774647887325" x2="101.45070422535211" y1="251.20689655172424" y2="269.31034482758616" stroke="black" clip-path="url(#clip-0)" stroke-width="1"></line> <line x1="101.45070422535211" x2="105.94366197183098" y1="269.31034482758616" y2="239.13793103448268" stroke="black" clip-path="url(#clip-0)" stroke-width="1"></line> <line x1="105.94366197183098" x2="110.43661971830986" y1="239.13793103448268" y2="245.17241379310346" stroke="black" clip-path="url(#clip-0)" stroke-width="1"></line> <line x1="110.43661971830986" x2="114.92957746478874" y1="245.17241379310346" y2="257.24137931034454" stroke="black" clip-path="url(#clip-0)" stroke-width="1"></line> <line x1="114.92957746478874" x2="119.4225352112676" y1="257.24137931034454" y2="233.10344827586192" stroke="black" clip-path="url(#clip-0)" stroke-width="1"></line> <line x1="119.4225352112676" x2="123.91549295774648" y1="233.10344827586192" y2="257.24137931034454" stroke="black" clip-path="url(#clip-0)" stroke-width="1"></line> <line x1="123.91549295774648" x2="128.40845070422534" y1="257.24137931034454" y2="233.10344827586192" stroke="black" clip-path="url(#clip-0)" stroke-width="1"></line> <line x1="128.40845070422534" x2="132.90140845070422" y1="233.10344827586192" y2="227.06896551724114" stroke="black" clip-path="url(#clip-0)" stroke-width="1"></line> <line x1="132.90140845070422" x2="137.3943661971831" y1="227.06896551724114" y2="257.24137931034454" stroke="black" clip-path="url(#clip-0)" stroke-width="1"></line> <line x1="137.3943661971831" x2="141.88732394366195" y1="257.24137931034454" y2="263.27586206896535" stroke="black" clip-path="url(#clip-0)" stroke-width="1"></line> <line x1="141.88732394366195" x2="146.38028169014086" y1="263.27586206896535" y2="221.03448275862078" stroke="black" clip-path="url(#clip-0)" stroke-width="1"></line> <line x1="146.38028169014086" x2="150.8732394366197" y1="221.03448275862078" y2="263.27586206896535" stroke="black" clip-path="url(#clip-0)" stroke-width="1"></line> <line x1="150.8732394366197" x2="155.36619718309856" y1="263.27586206896535" y2="208.96551724137922" stroke="black" clip-path="url(#clip-0)" stroke-width="1"></line> <line x1="155.36619718309856" x2="159.85915492957747" y1="208.96551724137922" y2="263.27586206896535" stroke="black" clip-path="url(#clip-0)" stroke-width="1"></line> <line x1="159.85915492957747" x2="164.35211267605632" y1="263.27586206896535" y2="233.10344827586192" stroke="black" clip-path="url(#clip-0)" stroke-width="1"></line> <line x1="164.35211267605632" x2="168.8450704225352" y1="233.10344827586192" y2="245.17241379310346" stroke="black" clip-path="url(#clip-0)" stroke-width="1"></line> <line x1="168.8450704225352" x2="173.33802816901408" y1="245.17241379310346" y2="263.27586206896535" stroke="black" clip-path="url(#clip-0)" stroke-width="1"></line> <line x1="173.33802816901408" x2="177.83098591549296" y1="263.27586206896535" y2="208.96551724137922" stroke="black" clip-path="url(#clip-0)" stroke-width="1"></line> <line x1="177.83098591549296" x2="182.32394366197184" y1="208.96551724137922" y2="208.96551724137922" stroke="black" clip-path="url(#clip-0)" stroke-width="1"></line> <line x1="182.32394366197184" x2="186.8169014084507" y1="208.96551724137922" y2="227.06896551724114" stroke="black" clip-path="url(#clip-0)" stroke-width="1"></line> <line x1="186.8169014084507" x2="191.30985915492957" y1="227.06896551724114" y2="239.13793103448268" stroke="black" clip-path="url(#clip-0)" stroke-width="1"></line> <line x1="191.30985915492957" x2="195.80281690140845" y1="239.13793103448268" y2="227.06896551724114" stroke="black" clip-path="url(#clip-0)" stroke-width="1"></line> <line x1="195.80281690140845" x2="200.29577464788733" y1="227.06896551724114" y2="227.06896551724114" stroke="black" clip-path="url(#clip-0)" stroke-width="1"></line> <line x1="200.29577464788733" x2="204.7887323943662" y1="227.06896551724114" y2="257.24137931034454" stroke="black" clip-path="url(#clip-0)" stroke-width="1"></line> <line x1="204.7887323943662" x2="209.28169014084506" y1="257.24137931034454" y2="257.24137931034454" stroke="black" clip-path="url(#clip-0)" stroke-width="1"></line> <line x1="209.28169014084506" x2="213.77464788732394" y1="257.24137931034454" y2="215.0" stroke="black" clip-path="url(#clip-0)" stroke-width="1"></line> <line x1="213.77464788732394" x2="218.26760563380282" y1="215.0" y2="215.0" stroke="black" clip-path="url(#clip-0)" stroke-width="1"></line> <line x1="218.26760563380282" x2="222.7605633802817" y1="215.0" y2="208.96551724137922" stroke="black" clip-path="url(#clip-0)" stroke-width="1"></line> <line x1="222.7605633802817" x2="227.25352112676057" y1="208.96551724137922" y2="221.03448275862078" stroke="black" clip-path="url(#clip-0)" stroke-width="1"></line> <line x1="227.25352112676057" x2="231.74647887323943" y1="221.03448275862078" y2="269.31034482758616" stroke="black" clip-path="url(#clip-0)" stroke-width="1"></line> <line x1="231.74647887323943" x2="236.2394366197183" y1="269.31034482758616" y2="257.24137931034454" stroke="black" clip-path="url(#clip-0)" stroke-width="1"></line> <line x1="236.2394366197183" x2="240.73239436619716" y1="257.24137931034454" y2="233.10344827586192" stroke="black" clip-path="url(#clip-0)" stroke-width="1"></line> <line x1="240.73239436619716" x2="245.22535211267606" y1="233.10344827586192" y2="245.17241379310346" stroke="black" clip-path="url(#clip-0)" stroke-width="1"></line> <line x1="245.22535211267606" x2="249.71830985915494" y1="245.17241379310346" y2="233.10344827586192" stroke="black" clip-path="url(#clip-0)" stroke-width="1"></line> <line x1="249.71830985915494" x2="254.2112676056338" y1="233.10344827586192" y2="233.10344827586192" stroke="black" clip-path="url(#clip-0)" stroke-width="1"></line> <line x1="254.2112676056338" x2="258.70422535211264" y1="233.10344827586192" y2="227.06896551724114" stroke="black" clip-path="url(#clip-0)" stroke-width="1"></line> <line x1="258.70422535211264" x2="263.19718309859155" y1="227.06896551724114" y2="221.03448275862078" stroke="black" clip-path="url(#clip-0)" stroke-width="1"></line> <line x1="263.19718309859155" x2="267.6901408450704" y1="221.03448275862078" y2="263.27586206896535" stroke="black" clip-path="url(#clip-0)" stroke-width="1"></line> <line x1="267.6901408450704" x2="272.1830985915493" y1="263.27586206896535" y2="221.03448275862078" stroke="black" clip-path="url(#clip-0)" stroke-width="1"></line> <line x1="272.1830985915493" x2="276.67605633802816" y1="221.03448275862078" y2="221.03448275862078" stroke="black" clip-path="url(#clip-0)" stroke-width="1"></line> <line x1="276.67605633802816" x2="281.169014084507" y1="221.03448275862078" y2="245.17241379310346" stroke="black" clip-path="url(#clip-0)" stroke-width="1"></line> <line x1="281.169014084507" x2="285.6619718309859" y1="245.17241379310346" y2="263.27586206896535" stroke="black" clip-path="url(#clip-0)" stroke-width="1"></line> <line x1="285.6619718309859" x2="290.15492957746477" y1="263.27586206896535" y2="239.13793103448268" stroke="black" clip-path="url(#clip-0)" stroke-width="1"></line> <line x1="290.15492957746477" x2="294.6478873239437" y1="239.13793103448268" y2="221.03448275862078" stroke="black" clip-path="url(#clip-0)" stroke-width="1"></line> <line x1="294.6478873239437" x2="299.14084507042253" y1="221.03448275862078" y2="245.17241379310346" stroke="black" clip-path="url(#clip-0)" stroke-width="1"></line> <line x1="299.14084507042253" x2="303.6338028169014" y1="245.17241379310346" y2="215.0" stroke="black" clip-path="url(#clip-0)" stroke-width="1"></line> <line x1="303.6338028169014" x2="308.1267605633803" y1="215.0" y2="221.03448275862078" stroke="black" clip-path="url(#clip-0)" stroke-width="1"></line> <line x1="308.1267605633803" x2="312.61971830985914" y1="221.03448275862078" y2="221.03448275862078" stroke="black" clip-path="url(#clip-0)" stroke-width="1"></line> <line x1="312.61971830985914" x2="317.11267605633805" y1="221.03448275862078" y2="208.96551724137922" stroke="black" clip-path="url(#clip-0)" stroke-width="1"></line> <line x1="317.11267605633805" x2="321.6056338028169" y1="208.96551724137922" y2="215.0" stroke="black" clip-path="url(#clip-0)" stroke-width="1"></line> <line x1="321.6056338028169" x2="326.0985915492958" y1="215.0" y2="215.0" stroke="black" clip-path="url(#clip-0)" stroke-width="1"></line> <line x1="326.0985915492958" x2="330.59154929577466" y1="215.0" y2="239.13793103448268" stroke="black" clip-path="url(#clip-0)" stroke-width="1"></line> <line x1="330.59154929577466" x2="335.0845070422535" y1="239.13793103448268" y2="215.0" stroke="black" clip-path="url(#clip-0)" stroke-width="1"></line> <line x1="335.0845070422535" x2="339.5774647887324" y1="215.0" y2="215.0" stroke="black" clip-path="url(#clip-0)" stroke-width="1"></line> <line x1="339.5774647887324" x2="344.07042253521126" y1="215.0" y2="215.0" stroke="black" clip-path="url(#clip-0)" stroke-width="1"></line> <line x1="344.07042253521126" x2="348.5633802816901" y1="215.0" y2="221.03448275862078" stroke="black" clip-path="url(#clip-0)" stroke-width="1"></line> <line x1="348.5633802816901" x2="353.056338028169" y1="221.03448275862078" y2="227.06896551724114" stroke="black" clip-path="url(#clip-0)" stroke-width="1"></line> <line x1="353.056338028169" x2="357.5492957746479" y1="227.06896551724114" y2="239.13793103448268" stroke="black" clip-path="url(#clip-0)" stroke-width="1"></line> <line x1="357.5492957746479" x2="362.0422535211268" y1="239.13793103448268" y2="257.24137931034454" stroke="black" clip-path="url(#clip-0)" stroke-width="1"></line> <line x1="362.0422535211268" x2="366.53521126760563" y1="257.24137931034454" y2="233.10344827586192" stroke="black" clip-path="url(#clip-0)" stroke-width="1"></line> <line x1="366.53521126760563" x2="371.0281690140845" y1="233.10344827586192" y2="263.27586206896535" stroke="black" clip-path="url(#clip-0)" stroke-width="1"></line> <line x1="371.0281690140845" x2="375.5211267605634" y1="263.27586206896535" y2="263.27586206896535" stroke="black" clip-path="url(#clip-0)" stroke-width="1"></line> <line x1="375.5211267605634" x2="380.01408450704224" y1="263.27586206896535" y2="208.96551724137922" stroke="black" clip-path="url(#clip-0)" stroke-width="1"></line> <line x1="380.01408450704224" x2="384.50704225352115" y1="208.96551724137922" y2="221.03448275862078" stroke="black" clip-path="url(#clip-0)" stroke-width="1"></line> <line x1="384.50704225352115" x2="389.0" y1="221.03448275862078" y2="208.96551724137922" stroke="black" clip-path="url(#clip-0)" stroke-width="1"></line> <line x1="389.0" x2="393.49295774647885" y1="208.96551724137922" y2="257.24137931034454" stroke="black" clip-path="url(#clip-0)" stroke-width="1"></line> <line x1="393.49295774647885" x2="397.98591549295776" y1="257.24137931034454" y2="269.31034482758616" stroke="black" clip-path="url(#clip-0)" stroke-width="1"></line> <line x1="397.98591549295776" x2="402.4788732394366" y1="269.31034482758616" y2="269.31034482758616" stroke="black" clip-path="url(#clip-0)" stroke-width="1"></line> <line x1="402.4788732394366" x2="406.97183098591546" y1="269.31034482758616" y2="215.0" stroke="black" clip-path="url(#clip-0)" stroke-width="1"></line> <line x1="406.97183098591546" x2="411.4647887323943" y1="215.0" y2="233.10344827586192" stroke="black" clip-path="url(#clip-0)" stroke-width="1"></line> <line x1="411.4647887323943" x2="415.9577464788733" y1="233.10344827586192" y2="245.17241379310346" stroke="black" clip-path="url(#clip-0)" stroke-width="1"></line> <line x1="415.9577464788733" x2="420.4507042253521" y1="245.17241379310346" y2="215.0" stroke="black" clip-path="url(#clip-0)" stroke-width="1"></line> <line x1="420.4507042253521" x2="424.94366197183103" y1="215.0" y2="208.96551724137922" stroke="black" clip-path="url(#clip-0)" stroke-width="1"></line> <line x1="424.94366197183103" x2="429.4366197183099" y1="208.96551724137922" y2="263.27586206896535" stroke="black" clip-path="url(#clip-0)" stroke-width="1"></line> <line x1="429.4366197183099" x2="433.92957746478874" y1="263.27586206896535" y2="233.10344827586192" stroke="black" clip-path="url(#clip-0)" stroke-width="1"></line> <line x1="433.92957746478874" x2="438.4225352112676" y1="233.10344827586192" y2="251.20689655172424" stroke="black" clip-path="url(#clip-0)" stroke-width="1"></line> <line x1="438.4225352112676" x2="442.9154929577465" y1="251.20689655172424" y2="239.13793103448268" stroke="black" clip-path="url(#clip-0)" stroke-width="1"></line> <line x1="442.9154929577465" x2="447.40845070422534" y1="239.13793103448268" y2="269.31034482758616" stroke="black" clip-path="url(#clip-0)" stroke-width="1"></line> <line x1="447.40845070422534" x2="451.9014084507042" y1="269.31034482758616" y2="269.31034482758616" stroke="black" clip-path="url(#clip-0)" stroke-width="1"></line> <line x1="451.9014084507042" x2="456.3943661971831" y1="269.31034482758616" y2="215.0" stroke="black" clip-path="url(#clip-0)" stroke-width="1"></line> <line x1="456.3943661971831" x2="460.88732394366195" y1="215.0" y2="269.31034482758616" stroke="black" clip-path="url(#clip-0)" stroke-width="1"></line> <line x1="460.88732394366195" x2="465.3802816901408" y1="269.31034482758616" y2="251.20689655172424" stroke="black" clip-path="url(#clip-0)" stroke-width="1"></line> <line x1="465.3802816901408" x2="469.87323943661977" y1="251.20689655172424" y2="227.06896551724114" stroke="black" clip-path="url(#clip-0)" stroke-width="1"></line> <line x1="469.87323943661977" x2="474.3661971830986" y1="227.06896551724114" y2="233.10344827586192" stroke="black" clip-path="url(#clip-0)" stroke-width="1"></line> <line x1="474.3661971830986" x2="478.85915492957747" y1="233.10344827586192" y2="251.20689655172424" stroke="black" clip-path="url(#clip-0)" stroke-width="1"></line> <line x1="478.85915492957747" x2="483.3521126760564" y1="251.20689655172424" y2="263.27586206896535" stroke="black" clip-path="url(#clip-0)" stroke-width="1"></line> <line x1="483.3521126760564" x2="487.84507042253523" y1="263.27586206896535" y2="227.06896551724114" stroke="black" clip-path="url(#clip-0)" stroke-width="1"></line> <line x1="487.84507042253523" x2="492.3380281690141" y1="227.06896551724114" y2="263.27586206896535" stroke="black" clip-path="url(#clip-0)" stroke-width="1"></line> <line x1="492.3380281690141" x2="496.83098591549293" y1="263.27586206896535" y2="233.10344827586192" stroke="black" clip-path="url(#clip-0)" stroke-width="1"></line> <line x1="496.83098591549293" x2="501.32394366197184" y1="233.10344827586192" y2="263.27586206896535" stroke="black" clip-path="url(#clip-0)" stroke-width="1"></line> <line x1="501.32394366197184" x2="505.8169014084507" y1="263.27586206896535" y2="245.17241379310346" stroke="black" clip-path="url(#clip-0)" stroke-width="1"></line> <line x1="505.8169014084507" x2="510.30985915492954" y1="245.17241379310346" y2="239.13793103448268" stroke="black" clip-path="url(#clip-0)" stroke-width="1"></line> <line x1="510.30985915492954" x2="514.8028169014085" y1="239.13793103448268" y2="251.20689655172424" stroke="black" clip-path="url(#clip-0)" stroke-width="1"></line> <line x1="514.8028169014085" x2="519.2957746478874" y1="251.20689655172424" y2="215.0" stroke="black" clip-path="url(#clip-0)" stroke-width="1"></line> <line x1="519.2957746478874" x2="523.7887323943662" y1="215.0" y2="239.13793103448268" stroke="black" clip-path="url(#clip-0)" stroke-width="1"></line> <line x1="523.7887323943662" x2="528.2816901408451" y1="239.13793103448268" y2="245.17241379310346" stroke="black" clip-path="url(#clip-0)" stroke-width="1"></line> <line x1="528.2816901408451" x2="532.7746478873239" y1="245.17241379310346" y2="263.27586206896535" stroke="black" clip-path="url(#clip-0)" stroke-width="1"></line> <line x1="532.7746478873239" x2="537.2676056338028" y1="263.27586206896535" y2="251.20689655172424" stroke="black" clip-path="url(#clip-0)" stroke-width="1"></line> <line x1="537.2676056338028" x2="541.7605633802817" y1="251.20689655172424" y2="251.20689655172424" stroke="black" clip-path="url(#clip-0)" stroke-width="1"></line> <line x1="541.7605633802817" x2="546.2535211267606" y1="251.20689655172424" y2="233.10344827586192" stroke="black" clip-path="url(#clip-0)" stroke-width="1"></line> <line x1="546.2535211267606" x2="550.7464788732394" y1="233.10344827586192" y2="263.27586206896535" stroke="black" clip-path="url(#clip-0)" stroke-width="1"></line> <line x1="550.7464788732394" x2="555.2394366197183" y1="263.27586206896535" y2="227.06896551724114" stroke="black" clip-path="url(#clip-0)" stroke-width="1"></line> <line x1="555.2394366197183" x2="559.7323943661972" y1="227.06896551724114" y2="227.06896551724114" stroke="black" clip-path="url(#clip-0)" stroke-width="1"></line> <line x1="559.7323943661972" x2="564.2253521126761" y1="227.06896551724114" y2="239.13793103448268" stroke="black" clip-path="url(#clip-0)" stroke-width="1"></line> <line x1="564.2253521126761" x2="568.7183098591549" y1="239.13793103448268" y2="245.17241379310346" stroke="black" clip-path="url(#clip-0)" stroke-width="1"></line> <line x1="568.7183098591549" x2="573.2112676056338" y1="245.17241379310346" y2="263.27586206896535" stroke="black" clip-path="url(#clip-0)" stroke-width="1"></line> <line x1="573.2112676056338" x2="577.7042253521126" y1="263.27586206896535" y2="263.27586206896535" stroke="black" clip-path="url(#clip-0)" stroke-width="1"></line> <line x1="577.7042253521126" x2="582.1971830985916" y1="263.27586206896535" y2="269.31034482758616" stroke="black" clip-path="url(#clip-0)" stroke-width="1"></line> <line x1="582.1971830985916" x2="586.6901408450705" y1="269.31034482758616" y2="208.96551724137922" stroke="black" clip-path="url(#clip-0)" stroke-width="1"></line> <line x1="586.6901408450705" x2="591.1830985915493" y1="208.96551724137922" y2="239.13793103448268" stroke="black" clip-path="url(#clip-0)" stroke-width="1"></line> <line x1="591.1830985915493" x2="595.6760563380282" y1="239.13793103448268" y2="215.0" stroke="black" clip-path="url(#clip-0)" stroke-width="1"></line> <line x1="595.6760563380282" x2="600.169014084507" y1="215.0" y2="245.17241379310346" stroke="black" clip-path="url(#clip-0)" stroke-width="1"></line> <line x1="600.169014084507" x2="604.6619718309859" y1="245.17241379310346" y2="239.13793103448268" stroke="black" clip-path="url(#clip-0)" stroke-width="1"></line> <line x1="604.6619718309859" x2="609.1549295774648" y1="239.13793103448268" y2="251.20689655172424" stroke="black" clip-path="url(#clip-0)" stroke-width="1"></line> <line x1="609.1549295774648" x2="613.6478873239437" y1="251.20689655172424" y2="251.20689655172424" stroke="black" clip-path="url(#clip-0)" stroke-width="1"></line> <line x1="613.6478873239437" x2="618.1408450704225" y1="251.20689655172424" y2="215.0" stroke="black" clip-path="url(#clip-0)" stroke-width="1"></line> <line x1="618.1408450704225" x2="622.6338028169014" y1="215.0" y2="257.24137931034454" stroke="black" clip-path="url(#clip-0)" stroke-width="1"></line> <line x1="622.6338028169014" x2="627.1267605633802" y1="257.24137931034454" y2="269.31034482758616" stroke="black" clip-path="url(#clip-0)" stroke-width="1"></line> <line x1="627.1267605633802" x2="631.6197183098592" y1="269.31034482758616" y2="251.20689655172424" stroke="black" clip-path="url(#clip-0)" stroke-width="1"></line> <line x1="631.6197183098592" x2="636.112676056338" y1="251.20689655172424" y2="233.10344827586192" stroke="black" clip-path="url(#clip-0)" stroke-width="1"></line> <line x1="636.112676056338" x2="640.6056338028169" y1="233.10344827586192" y2="263.27586206896535" stroke="black" clip-path="url(#clip-0)" stroke-width="1"></line> <line x1="640.6056338028169" x2="645.0985915492957" y1="263.27586206896535" y2="263.27586206896535" stroke="black" clip-path="url(#clip-0)" stroke-width="1"></line> <line x1="645.0985915492957" x2="649.5915492957746" y1="263.27586206896535" y2="233.10344827586192" stroke="black" clip-path="url(#clip-0)" stroke-width="1"></line> <line x1="649.5915492957746" x2="654.0845070422536" y1="233.10344827586192" y2="208.96551724137922" stroke="black" clip-path="url(#clip-0)" stroke-width="1"></line> <line x1="654.0845070422536" x2="658.5774647887324" y1="208.96551724137922" y2="251.20689655172424" stroke="black" clip-path="url(#clip-0)" stroke-width="1"></line> <line x1="658.5774647887324" x2="663.0704225352113" y1="251.20689655172424" y2="227.06896551724114" stroke="black" clip-path="url(#clip-0)" stroke-width="1"></line> <line x1="663.0704225352113" x2="667.5633802816901" y1="227.06896551724114" y2="215.0" stroke="black" clip-path="url(#clip-0)" stroke-width="1"></line> <line x1="667.5633802816901" x2="672.056338028169" y1="215.0" y2="263.27586206896535" stroke="black" clip-path="url(#clip-0)" stroke-width="1"></line> <line x1="672.056338028169" x2="676.5492957746478" y1="263.27586206896535" y2="215.0" stroke="black" clip-path="url(#clip-0)" stroke-width="1"></line> <line x1="676.5492957746478" x2="681.0422535211268" y1="215.0" y2="269.31034482758616" stroke="black" clip-path="url(#clip-0)" stroke-width="1"></line> <line x1="681.0422535211268" x2="685.5352112676056" y1="269.31034482758616" y2="257.24137931034454" stroke="black" clip-path="url(#clip-0)" stroke-width="1"></line> <line x1="685.5352112676056" x2="690.0281690140845" y1="257.24137931034454" y2="208.96551724137922" stroke="black" clip-path="url(#clip-0)" stroke-width="1"></line> <line x1="690.0281690140845" x2="694.5211267605634" y1="208.96551724137922" y2="239.13793103448268" stroke="black" clip-path="url(#clip-0)" stroke-width="1"></line> <line x1="694.5211267605634" x2="699.0140845070423" y1="239.13793103448268" y2="245.17241379310346" stroke="black" clip-path="url(#clip-0)" stroke-width="1"></line> <line x1="699.0140845070423" x2="703.5070422535211" y1="245.17241379310346" y2="239.13793103448268" stroke="black" clip-path="url(#clip-0)" stroke-width="1"></line> <line x1="703.5070422535211" x2="708" y1="239.13793103448268" y2="263.27586206896535" stroke="black" clip-path="url(#clip-0)" stroke-width="1"></line></svg>