<svg width="728" height="450" version="1.1" xmlns="http://www.w3.org/2000/svg" xmlns:xlink="http://www.w3.org/1999/xlink"> <rect width="728" height="450" x="0" y="0" fill="white"></rect> <line x1="70.0" x2="70.0" y1="390" y2="394" stroke="black"></line> <line x1="70.0" x2="70.0" y1="40" y2="390" stroke="#e0e0e0" opacity="1"></line> <text y="404" x="70.0" fill="black" font-weight="normal" font-size="12" text-anchor="middle" font-family="sans-serif"> 0</text> <line x1="85.19047619047619" x2="85.19047619047619" y1="390" y2="392" stroke="black"></line> <line x1="85.19047619047619" x2="85.19047619047619" y1="40" y2="390" stroke="#e0e0e0" opacity="1"></line> <line x1="100.38095238095238" x2="100.38095238095238" y1="390" y2="394" stroke="black"></line> <line x1="100.38095238095238" x2="100.38095238095238" y1="40" y2="390" stroke="#e0e0e0" opacity="1"></line> <text y="404" x="100.38095238095238" fill="black" font-weight="normal" font-size="12" text-anchor="middle" font-family="sans-serif"> 2</text> <line x1="115.57142857142857" x2="115.57142857142857" y1="390" y2="392" stroke="black"></line> <line x1="115.57142857142857" x2="115.57142857142857" y1="40" y2="390" stroke="#e0e0e0" opacity="1"></line> <line x1="130.76190476190476" x2="130.76190476190476" y1="390" y2="394" stroke="black"></line> <line x1="130.76190476190476" x2="130.76190476190476" y1="40" y2="390" stroke="#e0e0e0" opacity="1"></line> <text y="404" x="130.76190476190476" fill="black" font-weight="normal" font-size="12" text-anchor="middle" font-family="sans-serif"> 4</text> <line x1="145.95238095238096" x2="145.95238095238096" y1="390" y2="392" stroke="black"></line> <line x1="145.95238095238096" x2="145.95238095238096" y1="40" y2="390" stroke="#e0e0e0" opacity="1"></line> <line x1="161.14285714285714" x2="161.14285714285714" y1="390" y2="394" stroke="black"></line> <line x1="161.14285714285714" x2="161.14285714285714" y1="40" y2="390" stroke="#e0e0e0" opacity="1"></line> <text y="404" x="161.14285714285714" fill="black" font-weight="normal" font-size="12" text-anchor="middle" font-family="sans-serif"> 6</text> <line x1="176.33333333333331" x2="176.33333333333331" y1="390" y2="392" stroke="black"></line> <line x1="176.33333333333331" x2="176.33333333333331" y1="40" y2="390" stroke="#e0e0e0" opacity="1"></line> <line x1="191.52380952380952" x2="191.52380952380952" y1="390" y2="394" stroke="black"></line> <line x1="191.52380952380952" x2="191.52380952380952" y1="40" y2="390" stroke="#e0e0e0" opacity="1"></line> <text y="404" x="191.52380952380952" fill="black" font-weight="normal" font-size="12" text-anchor="middle" font-family="sans-serif"> 8</text> <line x1="206.7142857142857" x2="206.7142857142857" y1="390" y2="392" stroke="black"></line> <line x1="206.7142857142857" x2="206.7142857142857" y1="40" y2="390" stroke="#e0e0e0" opacity="1"></line> <line x1="221.9047619047619" x2="221.9047619047619" y1="390" y2="394" stroke="black"></line> <line x1="221.9047619047619" x2="221.9047619047619" y1="40" y2="390" stroke="#e0e0e0" opacity="1"></line> <text y="404" x="221.9047619047619" fill="black" font-weight="normal" font-size="12" text-anchor="middle" font-family="sans-serif"> 10</text> <line x1="237.0952380952381" x2="237.0952380952381" y1="390" y2="392" stroke="black"></line> <line x1="237.0952380952381" x2="237.0952380952381" y1="40" y2="390" stroke="#e0e0e0" opacity="1"></line> <line x1="252.28571428571428" x2="252.28571428571428" y1="390" y2="394" stroke="black"></line> <line x1="252.28571428571428" x2="252.28571428571428" y1="40" y2="390" stroke="#e0e0e0" opacity="1"></line> <text y="404" x="252.28571428571428" fill="black" font-weight="normal" font-size="12" text-anchor="middle" font-family="sans-serif"> 12</text> <line x1="267.4761904761905" x2="267.4761904761905" y1="390" y2="392" stroke="black"></line> <line x1="267.4761904761905" x2="267.4761904761905" y1="40" y2="390" stroke="#e0e0e0" opacity="1"></line> <line x1="282.66666666666663" x2="282.66666666666663" y1="390" y2="394" stroke="black"></line> <line x1="282.66666666666663" x2="282.66666666666663" y1="40" y2="390" stroke="#e0e0e0" opacity="1"></line> <text y="404" x="282.66666666666663" fill="black" font-weight="normal" font-size="12" text-anchor="middle" font-family="sans-serif"> 14</text> <line x1="297.8571428571429" x2="297.8571428571429" y1="390" y2="392" stroke="black"></line> <line x1="297.8571428571429" x2="297.8571428571429" y1="40" y2="390" stroke="#e0e0e0" opacity="1"></line> <line x1="313.04761904761904" x2="313.04761904761904" y1="390" y2="394" stroke="black"></line> <line x1="313.04761904761904" x2="313.04761904761904" y1="40" y2="390" stroke="#e0e0e0" opacity="1"></line> <text y="404" x="313.04761904761904" fill="black" font-weight="normal" font-size="12" text-anchor="middle" font-family="sans-serif"> 16</text> <line x1="328.23809523809524" x2="328.23809523809524" y1="390" y2="392" stroke="black"></line> <line x1="328.23809523809524" x2="328.23809523809524" y1="40" y2="390" stroke="#e0e0e0" opacity="1"></line> <line x1="343.4285714285714" x2="343.4285714285714" y1="390" y2="394" stroke="black"></line> <line x1="343.4285714285714" x2="343.4285714285714" y1="40" y2="390" stroke="#e0e0e0" opacity="1"></line> <text y="404" x="343.4285714285714" fill="black" font-weight="normal" font-size="12" text-anchor="middle" font-family="sans-serif"> 18</text> <line x1="358.61904761904765" x2="358.61904761904765" y1="390" y2="392" stroke="black"></line> <line x1="358.61904761904765" x2="358.61904761904765" y1="40" y2="390" stroke="#e0e0e0" opacity="1"></line> <line x1="373.8095238095238" x2="373.8095238095238" y1="390" y2="394" stroke="black"></line> <line x1="373.8095238095238" x2="373.8095238095238" y1="40" y2="390" stroke="#e0e0e0" opacity="1"></line> <text y="404" x="373.8095238095238" fill="black" font-weight="normal" font-size="12" text-anchor="middle" font-family="sans-serif"> 20</text> <line x1="389.0" x2="389.0" y1="390" y2="392" stroke="black"></line> <line x1="389.0" x2="389.0" y1="40" y2="390" stroke="#e0e0e0" opacity="1"></line> <line x1="404.1904761904762" x2="404.1904761904762" y1="390" y2="394" stroke="black"></line> <line x1="404.1904761904762" x2="404.1904761904762" y1="40" y2="390" stroke="#e0e0e0" opacity="1"></line> <text y="404" x="404.1904761904762" fill="black" font-weight="normal" font-size="12" text-anchor="middle" font-family="sans-serif"> 22</text> <line x1="419.3809523809524" x2="419.3809523809524" y1="390" y2="392" stroke="black"></line> <line x1="419.3809523809524" x2="419.3809523809524" y1="40" y2="390" stroke="#e0e0e0" opacity="1"></line> <line x1="434.57142857142856" x2="434.57142857142856" y1="390" y2="394" stroke="black"></line> <line x1="434.57142857142856" x2="434.57142857142856" y1="40" y2="390" stroke="#e0e0e0" opacity="1"></line> <text y="404" x="434.57142857142856" fill="black" font-weight="normal" font-size="12" text-anchor="middle" font-family="sans-serif"> 24</text> <line x1="449.76190476190476" x2="449.76190476190476" y1="390" y2="392" stroke="black"></line> <line x1="449.76190476190476" x2="449.76190476190476" y1="40" y2="390" stroke="#e0e0e0" opacity="1"></line> <line x1="464.95238095238096" x2="464.95238095238096" y1="390" y2="394" stroke="black"></line> <line x1="464.95238095238096" x2="464.95238095238096" y1="40" y2="390" stroke="#e0e0e0" opacity="1"></line> <text y="404" x="464.95238095238096" fill="black" font-weight="normal" font-size="12" text-anchor="middle" font-family="sans-serif"> 26</text> <line x1="480.14285714285717" x2="480.14285714285717" y1="390" y2="392" stroke="black"></line> <line x1="480.14285714285717" x2="480.14285714285717" y1="40" y2="390" stroke="#e0e0e0" opacity="1"></line> <line x1="495.3333333333333" x2="495.3333333333333" y1="390" y2="394" stroke="black"></line> <line x1="495.3333333333333" x2="495.3333333333333" y1="40" y2="390" stroke="#e0e0e0" opacity="1"></line> <text y="404" x="495.3333333333333" fill="black" font-weight="normal" font-size="12" text-anchor="middle" font-family="sans-serif"> 28</text> <line x1="510.5238095238095" x2="510.5238095238095" y1="390" y2="392" stroke="black"></line> <line x1="510.5238095238095" x2="510.5238095238095" y1="40" y2="390" stroke="#e0e0e0" opacity="1"></line> <line x1="525.7142857142858" x2="525.7142857142858" y1="390" y2="394" stroke="black"></line> <line x1="525.7142857142858" x2="525.7142857142858" y1="40" y2="390" stroke="#e0e0e0" opacity="1"></line> <text y="404" x="525.7142857142858" fill="black" font-weight="normal" font-size="12" text-anchor="middle" font-family="sans-serif"> 30</text> <line x1="540.9047619047619" x2="540.9047619047619" y1="390" y2="392" stroke="black"></line> <line x1="540.9047619047619" x2="540.9047619047619" y1="40" y2="390" stroke="#e0e0e0" opacity="1"></line> <line x1="556.0952380952381" x2="556.0952380952381" y1="390" y2="394" stroke="black"></line> <line x1="556.0952380952381" x2="556.0952380952381" y1="40" y2="390" stroke="#e0e0e0" opacity="1"></line> <text y="404" x="556.0952380952381" fill="black" font-weight="normal" font-size="12" text-anchor="middle" font-family="sans-serif"> 32</text> <line x1="571.2857142857142" x2="571.2857142857142" y1="390" y2="392" stroke="black"></line> <line x1="571.2857142857142" x2="571.2857142857142" y1="40" y2="390" stroke="#e0e0e0" opacity="1"></line> <line x1="586.4761904761905" x2="586.4761904761905" y1="390" y2="394" stroke="black"></line> <line x1="586.4761904761905" x2="586.4761904761905" y1="40" y2="390" stroke="#e0e0e0" opacity="1"></line> <text y="404" x="586.4761904761905" fill="black" font-weight="normal" font-size="12" text-anchor="middle" font-family="sans-serif"> 34</text> <line x1="601.6666666666667" x2="601.6666666666667" y1="390" y2="392" stroke="black"></line> <line x1="601.6666666666667" x2="601.6666666666667" y1="40" y2="390" stroke="#e0e0e0" opacity="1"></line> <line x1="616.8571428571428" x2="616.8571428571428" y1="390" y2="394" stroke="black"></line> <line x1="616.8571428571428" x2="616.8571428571428" y1="40" y2="390" stroke="#e0e0e0" opacity="1"></line> <text y="404" x="616.8571428571428" fill="black" font-weight="normal" font-size="12" text-anchor="middle" font-family="sans-serif"> 36</text> <line x1="632.047619047619" x2="632.047619047619" y1="390" y2="392" stroke="black"></line> <line x1="632.047619047619" x2="632.047619047619" y1="40" y2="390" stroke="#e0e0e0" opacity="1"></line> <line x1="647.2380952380953" x2="647.2380952380953" y1="390" y2="394" stroke="black"></line> <line x1="647.2380952380953" x2="647.2380952380953" y1="40" y2="390" stroke="#e0e0e0" opacity="1"></line> <text y="404" x="647.2380952380953" fill="black" font-weight="normal" font-size="12" text-anchor="middle" font-family="sans-serif"> 38</text> <line x1="662.4285714285714" x2="662.4285714285714" y1="390" y2="392" stroke="black"></line> <line x1="662.4285714285714" x2="662.4285714285714" y1="40" y2="390" stroke="#e0e0e0" opacity="1"></line> <line x1="677.6190476190476" x2="677.6190476190476" y1="390" y2="394" stroke="black"></line> <line x1="677.6190476190476" x2="677.6190476190476" y1="40" y2="390" stroke="#e0e0e0" opacity="1"></line> <text y="404" x="677.6190476190476" fill="black" font-weight="normal" font-size="12" text-anchor="middle" font-family="sans-serif"> 40</text> <line x1="692.8095238095237" x2="692.8095238095237" y1="390" y2="392" stroke="black"></line> <line x1="692.8095238095237" x2="692.8095238095237" y1="40" y2="390" stroke="#e0e0e0" opacity="1"></line> <line x1="708.0" x2="708.0" y1="390" y2="394" stroke="black"></line> <line x1="708.0" x2="708.0" y1="40" y2="390" stroke="#e0e0e0" opacity="1"></line> <text y="404" x="708.0" fill="black" font-weight="normal" font-size="12" text-anchor="middle" font-family="sans-serif"> 42</text> <line x1="70" x2="67" y1="390.0" y2="390.0" stroke="black"></line> <line x1="70" x2="708" y1="390.0" y2="390.0" opacity="1" stroke="#e0e0e0"></line> <text y="394.0" x="64" fill="black" font-size="12" text-anchor="end" font-family="sans-serif"> 41</text> <line x1="70" x2="67" y1="377.93103448275843" y2="377.93103448275843" stroke="black"></line> <line x1="70" x2="708" y1="377.93103448275843" y2="377.93103448275843" opacity="1" stroke="#e0e0e0"></line> <line x1="70" x2="67" y1="365.8620689655173" y2="365.8620689655173" stroke="black"></line> <line x1="70" x2="708" y1="365.8620689655173" y2="365.8620689655173" opacity="1" stroke="#e0e0e0"></line> <line x1="70" x2="67" y1="353.79310344827576" y2="353.79310344827576" stroke="black"></line> <line x1="70" x2="708" y1="353.79310344827576" y2="353.79310344827576" opacity="1" stroke="#e0e0e0"></line> <line x1="70" x2="67" y1="341.72413793103465" y2="341.72413793103465" stroke="black"></line> <line x1="70" x2="708" y1="341.72413793103465" y2="341.72413793103465" opacity="1" stroke="#e0e0e0"></line> <line x1="70" x2="67" y1="329.6551724137931" y2="329.6551724137931" stroke="black"></line> <line x1="70" x2="708" y1="329.6551724137931" y2="329.6551724137931" opacity="1" stroke="#e0e0e0"></line> <text y="333.6551724137931" x="64" fill="black" font-size="12" text-anchor="end" font-family="sans-serif"> 42</text> <line x1="70" x2="67" y1="317.5862068965515" y2="317.5862068965515" stroke="black"></line> <line x1="70" x2="708" y1="317.5862068965515" y2="317.5862068965515" opacity="1" stroke="#e0e0e0"></line> <line x1="70" x2="67" y1="305.5172413793104" y2="305.5172413793104" stroke="black"></line> <line x1="70" x2="708" y1="305.5172413793104" y2="305.5172413793104" opacity="1" stroke="#e0e0e0"></line> <line x1="70" x2="67" y1="293.44827586206884" y2="293.44827586206884" stroke="black"></line> <line x1="70" x2="708" y1="293.44827586206884" y2="293.44827586206884" opacity="1" stroke="#e0e0e0"></line> <line x1="70" x2="67" y1="281.3793103448277" y2="281.3793103448277" stroke="black"></line> <line x1="70" x2="708" y1="281.3793103448277" y2="281.3793103448277" opacity="1" stroke="#e0e0e0"></line> <line x1="70" x2="67" y1="269.31034482758616" y2="269.31034482758616" stroke="black"></line> <line x1="70" x2="708" y1="269.31034482758616" y2="269.31034482758616" opacity="1" stroke="#e0e0e0"></line> <text y="273.31034482758616" x="64" fill="black" font-size="12" text-anchor="end" font-family="sans-serif"> 43</text> <line x1="70" x2="67" y1="257.24137931034454" y2="257.24137931034454" stroke="black"></line> <line x1="70" x2="708" y1="257.24137931034454" y2="257.24137931034454" opacity="1" stroke="#e0e0e0"></line> <line x1="70" x2="67" y1="245.17241379310346" y2="245.17241379310346" stroke="black"></line> <line x1="70" x2="708" y1="245.17241379310346" y2="245.17241379310346" opacity="1" stroke="#e0e0e0"></line> <line x1="70" x2="67" y1="233.10344827586192" y2="233.10344827586192" stroke="black"></line> <line x1="70" x2="708" y1="233.10344827586192" y2="233.10344827586192" opacity="1" stroke="#e0e0e0"></line> <line x1="70" x2="67" y1="221.03448275862078" y2="221.03448275862078" stroke="black"></line> <line x1="70" x2="708" y1="221.03448275862078" y2="221.03448275862078" opacity="1" stroke="#e0e0e0"></line> <line x1="70" x2="67" y1="208.96551724137922" y2="208.96551724137922" stroke="black"></line> <line x1="70" x2="708" y1="208.96551724137922" y2="208.96551724137922" opacity="1" stroke="#e0e0e0"></line> <text y="212.96551724137922" x="64" fill="black" font-size="12" text-anchor="end" font-family="sans-serif"> 44</text> <line x1="70" x2="67" y1="196.89655172413765" y2="196.89655172413765" stroke="black"></line> <line x1="70" x2="708" y1="196.89655172413765" y2="196.89655172413765" opacity="1" stroke="#e0e0e0"></line> <line x1="70" x2="67" y1="184.82758620689654" y2="184.82758620689654" stroke="black"></line> <line x1="70" x2="708" y1="184.82758620689654" y2="184.82758620689654" opacity="1" stroke="#e0e0e0"></line> <line x1="70" x2="67" y1="172.75862068965498" y2="172.75862068965498" stroke="black"></line> <line x1="70" x2="708" y1="172.75862068965498" y2="172.75862068965498" opacity="1" stroke="#e0e0e0"></line> <line x1="70" x2="67" y1="160.68965517241384" y2="160.68965517241384" stroke="black"></line> <line x1="70" x2="708" y1="160.68965517241384" y2="160.68965517241384" opacity="1" stroke="#e0e0e0"></line> <line x1="70" x2="67" y1="148.62068965517227" y2="148.62068965517227" stroke="black"></line> <line x1="70" x2="708" y1="148.62068965517227" y2="148.62068965517227" opacity="1" stroke="#e0e0e0"></line> <text y="152.62068965517227" x="64" fill="black" font-size="12" text-anchor="end" font-family="sans-serif"> 45</text> <line x1="70" x2="67" y1="136.55172413793073" y2="136.55172413793073" stroke="black"></line> <line x1="70" x2="708" y1="136.55172413793073" y2="136.55172413793073" opacity="1" stroke="#e0e0e0"></line> <line x1="70" x2="67" y1="124.48275862068965" y2="124.48275862068965" stroke="black"></line> <line x1="70" x2="708" y1="124.48275862068965" y2="124.48275862068965" opacity="1" stroke="#e0e0e0"></line> <line x1="70" x2="67" y1="112.41379310344809" y2="112.41379310344809" stroke="black"></line> <line x1="70" x2="708" y1="112.41379310344809" y2="112.41379310344809" opacity="1" stroke="#e0e0e0"></line> <line x1="70" x2="67" y1="100.34482758620692" y2="100.34482758620692" stroke="black"></line> <line x1="70" x2="708" y1="100.34482758620692" y2="100.34482758620692" opacity="1" stroke="#e0e0e0"></line> <line x1="70" x2="67" y1="88.27586206896535" y2="88.27586206896535" stroke="black"></line> <line x1="70" x2="708" y1="88.27586206896535" y2="88.27586206896535" opacity="1" stroke="#e0e0e0"></line> <text y="92.27586206896535" x="64" fill="black" font-size="12" text-anchor="end" font-family="sans-serif"> 46</text> <line x1="70" x2="67" y1="76.20689655172384" y2="76.20689655172384" stroke="black"></line> <line x1="70" x2="708" y1="76.20689655172384" y2="76.20689655172384" opacity="1" stroke="#e0e0e0"></line> <line x1="70" x2="67" y1="64.13793103448268" y2="64.13793103448268" stroke="black"></line> <line x1="70" x2="708" y1="64.13793103448268" y2="64.13793103448268" opacity="1" stroke="#e0e0e0"></line> <line x1="70" x2="67" y1="52.06896551724111" y2="52.06896551724111" stroke="black"></line> <line x1="70" x2="708" y1="52.06896551724111" y2="52.06896551724111" opacity="1" stroke="#e0e0e0"></line> <line x1="70" x2="67" y1="40.0" y2="40.0" stroke="black"></line> <line x1="70" x2="708" y1="40.0" y2="40.0" opacity="1" stroke="#e0e0e0"></line> <line x1="70" x2="70" y1="40" y2="395" stroke="black"></line> <line x1="65" x2="708" y1="390" y2="390" stroke="black"></line> <clipPath id="clip-0"> <rect x="70" y="40" width="638" height="350"></rect></clipPath> <line x1="70" x2="85.19047619047619" y1="383.96551724137925" y2="323.62068965517227" stroke="black" clip-path="url(#clip-0)" stroke-width="1"></line> <line x1="85.19047619047619" x2="100.38095238095238" y1="323.62068965517227" y2="166.7241379310342" stroke="black" clip-path="url(#clip-0)" stroke-width="1"></line> <line x1="100.38095238095238" x2="115.57142857142857" y1="166.7241379310342" y2="245.17241379310346" stroke="black" clip-path="url(#clip-0)" stroke-width="1"></line> <line x1="115.57142857142857" x2="130.76190476190476" y1="245.17241379310346" y2="245.17241379310346" stroke="black" clip-path="url(#clip-0)" stroke-width="1"></line> <line x1="130.76190476190476" x2="145.95238095238096" y1="245.17241379310346" y2="208.96551724137922" stroke="black" clip-path="url(#clip-0)" stroke-width="1"></line> <line x1="145.95238095238096" x2="161.14285714285714" y1="208.96551724137922" y2="251.20689655172424" stroke="black" clip-path="url(#clip-0)" stroke-width="1"></line> <line x1="161.14285714285714" x2="176.33333333333331" y1="251.20689655172424" y2="269.31034482758616" stroke="black" clip-path="url(#clip-0)" stroke-width="1"></line> <line x1="176.33333333333331" x2="191.52380952380952" y1="269.31034482758616" y2="239.13793103448268" stroke="black" clip-path="url(#clip-0)" stroke-width="1"></line> <line x1="191.52380952380952" x2="206.7142857142857" y1="239.13793103448268" y2="245.17241379310346" stroke="black" clip-path="url(#clip-0)" stroke-width="1"></line> <line x1="206.7142857142857" x2="221.9047619047619" y1="245.17241379310346" y2="257.24137931034454" stroke="black" clip-path="url(#clip-0)" stroke-width="1"></line> <line x1="221.9047619047619" x2="237.0952380952381" y1="257.24137931034454" y2="233.10344827586192" stroke="black" clip-path="url(#clip-0)" stroke-width="1"></line> <line x1="237.0952380952381" x2="252.28571428571428" y1="233.10344827586192" y2="257.24137931034454" stroke="black" clip-path="url(#clip-0)" stroke-width="1"></line> <line x1="252.28571428571428" x2="267.4761904761905" y1="257.24137931034454" y2="233.10344827586192" stroke="black" clip-path="url(#clip-0)" stroke-width="1"></line> <line x1="267.4761904761905" x2="282.66666666666663" y1="233.10344827586192" y2="227.06896551724114" stroke="black" clip-path="url(#clip-0)" stroke-width="1"></line> <line x1="282.66666666666663" x2="297.8571428571429" y1="227.06896551724114" y2="257.24137931034454" stroke="black" clip-path="url(#clip-0)" stroke-width="1"></line> <line x1="297.8571428571429" x2="313.04761904761904" y1="257.24137931034454" y2="263.27586206896535" stroke="black" clip-path="url(#clip-0)" stroke-width="1"></line> <line x1="313.04761904761904" x2="328.23809523809524" y1="263.27586206896535" y2="221.03448275862078" stroke="black" clip-path="url(#clip-0)" stroke-width="1"></line> <line x1="328.23809523809524" x2="343.4285714285714" y1="221.03448275862078" y2="263.27586206896535" stroke="black" clip-path="url(#clip-0)" stroke-width="1"></line> <line x1="343.4285714285714" x2="358.61904761904765" y1="263.27586206896535" y2="208.96551724137922" stroke="black" clip-path="url(#clip-0)" stroke-width="1"></line> <line x1="358.61904761904765" x2="373.8095238095238" y1="208.96551724137922" y2="263.27586206896535" stroke="black" clip-path="url(#clip-0)" stroke-width="1"></line> <line x1="373.8095238095238" x2="389.0" y1="263.27586206896535" y2="233.10344827586192" stroke="black" clip-path="url(#clip-0)" stroke-width="1"></line> <line x1="389.0" x2="404.1904761904762" y1="233.10344827586192" y2="245.17241379310346" stroke="black" clip-path="url(#clip-0)" stroke-width="1"></line> <line x1="404.1904761904762" x2="419.3809523809524" y1="245.17241379310346" y2="263.27586206896535" stroke="black" clip-path="url(#clip-0)" stroke-width="1"></line> <line x1="419.3809523809524" x2="434.57142857142856" y1="263.27586206896535" y2="208.96551724137922" stroke="black" clip-path="url(#clip-0)" stroke-width="1"></line> <line x1="434.57142857142856" x2="449.76190476190476" y1="208.96551724137922" y2="208.96551724137922" stroke="black" clip-path="url(#clip-0)" stroke-width="1"></line> <line x1="449.76190476190476" x2="464.95238095238096" y1="208.96551724137922" y2="227.06896551724114" stroke="black" clip-path="url(#clip-0)" stroke-width="1"></line> <line x1="464.95238095238096" x2="480.14285714285717" y1="227.06896551724114" y2="239.13793103448268" stroke="black" clip-path="url(#clip-0)" stroke-width="1"></line> <line x1="480.14285714285717" x2="495.3333333333333" y1="239.13793103448268" y2="227.06896551724114" stroke="black" clip-path="url(#clip-0)" stroke-width="1"></line> <line x1="495.3333333333333" x2="510.5238095238095" y1="227.06896551724114" y2="227.06896551724114" stroke="black" clip-path="url(#clip-0)" stroke-width="1"></line> <line x1="510.5238095238095" x2="525.7142857142858" y1="227.06896551724114" y2="257.24137931034454" stroke="black" clip-path="url(#clip-0)" stroke-width="1"></line> <line x1="525.7142857142858" x2="540.9047619047619" y1="257.24137931034454" y2="257.24137931034454" stroke="black" clip-path="url(#clip-0)" stroke-width="1"></line> <line x1="540.9047619047619" x2="556.0952380952381" y1="257.24137931034454" y2="215.0" stroke="black" clip-path="url(#clip-0)" stroke-width="1"></line> <line x1="556.0952380952381" x2="571.2857142857142" y1="215.0" y2="215.0" stroke="black" clip-path="url(#clip-0)" stroke-width="1"></line> <line x1="571.2857142857142" x2="586.4761904761905" y1="215.0" y2="208.96551724137922" stroke="black" clip-path="url(#clip-0)" stroke-width="1"></line> <line x1="586.4761904761905" x2="601.6666666666667" y1="208.96551724137922" y2="221.03448275862078" stroke="black" clip-path="url(#clip-0)" stroke-width="1"></line> <line x1="601.6666666666667" x2="616.8571428571428" y1="221.03448275862078" y2="269.31034482758616" stroke="black" clip-path="url(#clip-0)" stroke-width="1"></line> <line x1="616.8571428571428" x2="632.047619047619" y1="269.31034482758616" y2="257.24137931034454" stroke="black" clip-path="url(#clip-0)" stroke-width="1"></line> <line x1="632.047619047619" x2="647.2380952380953" y1="257.24137931034454" y2="233.10344827586192" stroke="black" clip-path="url(#clip-0)" stroke-width="1"></line> <line x1="647.2380952380953" x2="662.4285714285714" y1="233.10344827586192" y2="245.17241379310346" stroke="black" clip-path="url(#clip-0)" stroke-width="1"></line> <line x1="662.4285714285714" x2="677.6190476190476" y1="245.17241379310346" y2="233.10344827586192" stroke="black" clip-path="url(#clip-0)" stroke-width="1"></line> <line x1="677.6190476190476" x2="692.8095238095237" y1="233.10344827586192" y2="233.10344827586192" stroke="black" clip-path="url(#clip-0)" stroke-width="1"></line> <line x1="692.8095238095237" x2="708" y1="233.10344827586192" y2="227.06896551724114" stroke="black" clip-path="url(#clip-0)" stroke-width="1"></line></svg>