<svg width="728" height="450" version="1.1" xmlns="http://www.w3.org/2000/svg" xmlns:xlink="http://www.w3.org/1999/xlink"> <rect width="728" height="450" x="0" y="0" fill="white"></rect> <line x1="70.0" x2="70.0" y1="390" y2="394" stroke="black"></line> <line x1="70.0" x2="70.0" y1="40" y2="390" stroke="#e0e0e0" opacity="1"></line> <text y="404" x="70.0" fill="black" font-weight="normal" font-size="12" text-anchor="middle" font-family="sans-serif"> 0</text> <line x1="389.0" x2="389.0" y1="390" y2="394" stroke="black"></line> <line x1="389.0" x2="389.0" y1="40" y2="390" stroke="#e0e0e0" opacity="1"></line> <text y="404" x="389.0" fill="black" font-weight="normal" font-size="12" text-anchor="middle" font-family="sans-serif"> 1</text> <line x1="708.0" x2="708.0" y1="390" y2="394" stroke="black"></line> <line x1="708.0" x2="708.0" y1="40" y2="390" stroke="#e0e0e0" opacity="1"></line> <text y="404" x="708.0" fill="black" font-weight="normal" font-size="12" text-anchor="middle" font-family="sans-serif"> 2</text> <line x1="70" x2="67" y1="390.0" y2="390.0" stroke="black"></line> <line x1="70" x2="708" y1="390.0" y2="390.0" opacity="1" stroke="#e0e0e0"></line> <text y="394.0" x="64" fill="black" font-size="12" text-anchor="end" font-family="sans-serif"> 41</text> <line x1="70" x2="67" y1="377.93103448275843" y2="377.93103448275843" stroke="black"></line> <line x1="70" x2="708" y1="377.93103448275843" y2="377.93103448275843" opacity="1" stroke="#e0e0e0"></line> <line x1="70" x2="67" y1="365.8620689655173" y2="365.8620689655173" stroke="black"></line> <line x1="70" x2="708" y1="365.8620689655173" y2="365.8620689655173" opacity="1" stroke="#e0e0e0"></line> <line x1="70" x2="67" y1="353.79310344827576" y2="353.79310344827576" stroke="black"></line> <line x1="70" x2="708" y1="353.79310344827576" y2="353.79310344827576" opacity="1" stroke="#e0e0e0"></line> <line x1="70" x2="67" y1="341.72413793103465" y2="341.72413793103465" stroke="black"></line> <line x1="70" x2="708" y1="341.72413793103465" y2="341.72413793103465" opacity="1" stroke="#e0e0e0"></line> <line x1="70" x2="67" y1="329.6551724137931" y2="329.6551724137931" stroke="black"></line> <line x1="70" x2="708" y1="329.6551724137931" y2="329.6551724137931" opacity="1" stroke="#e0e0e0"></line> <text y="333.6551724137931" x="64" fill="black" font-size="12" text-anchor="end" font-family="sans-serif"> 42</text> <line x1="70" x2="67" y1="317.5862068965515" y2="317.5862068965515" stroke="black"></line> <line x1="70" x2="708" y1="317.5862068965515" y2="317.5862068965515" opacity="1" stroke="#e0e0e0"></line> <line x1="70" x2="67" y1="305.5172413793104" y2="305.5172413793104" stroke="black"></line> <line x1="70" x2="708" y1="305.5172413793104" y2="305.5172413793104" opacity="1" stroke="#e0e0e0"></line> <line x1="70" x2="67" y1="293.44827586206884" y2="293.44827586206884" stroke="black"></line> <line x1="70" x2="708" y1="293.44827586206884" y2="293.44827586206884" opacity="1" stroke="#e0e0e0"></line> <line x1="70" x2="67" y1="281.3793103448277" y2="281.3793103448277" stroke="black"></line> <line x1="70" x2="708" y1="281.3793103448277" y2="281.3793103448277" opacity="1" stroke="#e0e0e0"></line> <line x1="70" x2="67" y1="269.31034482758616" y2="269.31034482758616" stroke="black"></line> <line x1="70" x2="708" y1="269.31034482758616" y2="269.31034482758616" opacity="1" stroke="#e0e0e0"></line> <text y="273.31034482758616" x="64" fill="black" font-size="12" text-anchor="end" font-family="sans-serif"> 43</text> <line x1="70" x2="67" y1="257.24137931034454" y2="257.24137931034454" stroke="black"></line> <line x1="70" x2="708" y1="257.24137931034454" y2="257.24137931034454" opacity="1" stroke="#e0e0e0"></line> <line x1="70" x2="67" y1="245.17241379310346" y2="245.17241379310346" stroke="black"></line> <line x1="70" x2="708" y1="245.17241379310346" y2="245.17241379310346" opacity="1" stroke="#e0e0e0"></line> <line x1="70" x2="67" y1="233.10344827586192" y2="233.10344827586192" stroke="black"></line> <line x1="70" x2="708" y1="233.10344827586192" y2="233.10344827586192" opacity="1" stroke="#e0e0e0"></line> <line x1="70" x2="67" y1="221.03448275862078" y2="221.03448275862078" stroke="black"></line> <line x1="70" x2="708" y1="221.03448275862078" y2="221.03448275862078" opacity="1" stroke="#e0e0e0"></line> <line x1="70" x2="67" y1="208.96551724137922" y2="208.96551724137922" stroke="black"></line> <line x1="70" x2="708" y1="208.96551724137922" y2="208.96551724137922" opacity="1" stroke="#e0e0e0"></line> <text y="212.96551724137922" x="64" fill="black" font-size="12" text-anchor="end" font-family="sans-serif"> 44</text> <line x1="70" x2="67" y1="196.89655172413765" y2="196.89655172413765" stroke="black"></line> <line x1="70" x2="708" y1="196.89655172413765" y2="196.89655172413765" opacity="1" stroke="#e0e0e0"></line> <line x1="70" x2="67" y1="184.82758620689654" y2="184.82758620689654" stroke="black"></line> <line x1="70" x2="708" y1="184.82758620689654" y2="184.82758620689654" opacity="1" stroke="#e0e0e0"></line> <line x1="70" x2="67" y1="172.75862068965498" y2="172.75862068965498" stroke="black"></line> <line x1="70" x2="708" y1="172.75862068965498" y2="172.75862068965498" opacity="1" stroke="#e0e0e0"></line> <line x1="70" x2="67" y1="160.68965517241384" y2="160.68965517241384" stroke="black"></line> <line x1="70" x2="708" y1="160.68965517241384" y2="160.68965517241384" opacity="1" stroke="#e0e0e0"></line> <line x1="70" x2="67" y1="148.62068965517227" y2="148.62068965517227" stroke="black"></line> <line x1="70" x2="708" y1="148.62068965517227" y2="148.62068965517227" opacity="1" stroke="#e0e0e0"></line> <text y="152.62068965517227" x="64" fill="black" font-size="12" text-anchor="end" font-family="sans-serif"> 45</text> <line x1="70" x2="67" y1="136.55172413793073" y2="136.55172413793073" stroke="black"></line> <line x1="70" x2="708" y1="136.55172413793073" y2="136.55172413793073" opacity="1" stroke="#e0e0e0"></line> <line x1="70" x2="67" y1="124.48275862068965" y2="124.48275862068965" stroke="black"></line> <line x1="70" x2="708" y1="124.48275862068965" y2="124.48275862068965" opacity="1" stroke="#e0e0e0"></line> <line x1="70" x2="67" y1="112.41379310344809" y2="112.41379310344809" stroke="black"></line> <line x1="70" x2="708" y1="112.41379310344809" y2="112.41379310344809" opacity="1" stroke="#e0e0e0"></line> <line x1="70" x2="67" y1="100.34482758620692" y2="100.34482758620692" stroke="black"></line> <line x1="70" x2="708" y1="100.34482758620692" y2="100.34482758620692" opacity="1" stroke="#e0e0e0"></line> <line x1="70" x2="67" y1="88.27586206896535" y2="88.27586206896535" stroke="black"></line> <line x1="70" x2="708" y1="88.27586206896535" y2="88.27586206896535" opacity="1" stroke="#e0e0e0"></line> <text y="92.27586206896535" x="64" fill="black" font-size="12" text-anchor="end" font-family="sans-serif"> 46</text> <line x1="70" x2="67" y1="76.20689655172384" y2="76.20689655172384" stroke="black"></line> <line x1="70" x2="708" y1="76.20689655172384" y2="76.20689655172384" opacity="1" stroke="#e0e0e0"></line> <line x1="70" x2="67" y1="64.13793103448268" y2="64.13793103448268" stroke="black"></line> <line x1="70" x2="708" y1="64.13793103448268" y2="64.13793103448268" opacity="1" stroke="#e0e0e0"></line> <line x1="70" x2="67" y1="52.06896551724111" y2="52.06896551724111" stroke="black"></line> <line x1="70" x2="708" y1="52.06896551724111" y2="52.06896551724111" opacity="1" stroke="#e0e0e0"></line> <line x1="70" x2="67" y1="40.0" y2="40.0" stroke="black"></line> <line x1="70" x2="708" y1="40.0" y2="40.0" opacity="1" stroke="#e0e0e0"></line> <line x1="70" x2="70" y1="40" y2="395" stroke="black"></line> <line x1="65" x2="708" y1="390" y2="390" stroke="black"></line> <clipPath id="clip-0"> <rect x="70" y="40" width="638" height="350"></rect></clipPath> <line x1="70" x2="389.0" y1="390.0" y2="323.62068965517227" stroke="black" clip-path="url(#clip-0)" stroke-width="1"></line> <line x1="389.0" x2="708" y1="323.62068965517227" y2="166.7241379310342" stroke="black" clip-path="url(#clip-0)" stroke-width="1"></line></svg>