<svg width="728.3720930232558" height="444.7674418604651" version="1.1" xmlns="http://www.w3.org/2000/svg" xmlns:xlink="http://www.w3.org/1999/xlink"> <rect width="728.3720930232558" height="444.7674418604651" x="0" y="0" fill="white"></rect> <line x1="70.0" x2="70.0" y1="384.7674418604651" y2="388.7674418604651" stroke="black"></line> <line x1="70.0" x2="70.0" y1="40" y2="384.7674418604651" stroke="#e0e0e0" opacity="nil"></line> <text y="398.7674418604651" x="70.0" fill="black" font-size="12" text-anchor="middle" font-family="sans-serif"> 0</text> <line x1="85.19933554817275" x2="85.19933554817275" y1="384.7674418604651" y2="386.7674418604651" stroke="black"></line> <line x1="85.19933554817275" x2="85.19933554817275" y1="40" y2="384.7674418604651" stroke="#e0e0e0" opacity="nil"></line> <line x1="100.39867109634551" x2="100.39867109634551" y1="384.7674418604651" y2="388.7674418604651" stroke="black"></line> <line x1="100.39867109634551" x2="100.39867109634551" y1="40" y2="384.7674418604651" stroke="#e0e0e0" opacity="nil"></line> <text y="398.7674418604651" x="100.39867109634551" fill="black" font-size="12" text-anchor="middle" font-family="sans-serif"> 2</text> <line x1="115.59800664451828" x2="115.59800664451828" y1="384.7674418604651" y2="386.7674418604651" stroke="black"></line> <line x1="115.59800664451828" x2="115.59800664451828" y1="40" y2="384.7674418604651" stroke="#e0e0e0" opacity="nil"></line> <line x1="130.79734219269102" x2="130.79734219269102" y1="384.7674418604651" y2="388.7674418604651" stroke="black"></line> <line x1="130.79734219269102" x2="130.79734219269102" y1="40" y2="384.7674418604651" stroke="#e0e0e0" opacity="nil"></line> <text y="398.7674418604651" x="130.79734219269102" fill="black" font-size="12" text-anchor="middle" font-family="sans-serif"> 4</text> <line x1="145.9966777408638" x2="145.9966777408638" y1="384.7674418604651" y2="386.7674418604651" stroke="black"></line> <line x1="145.9966777408638" x2="145.9966777408638" y1="40" y2="384.7674418604651" stroke="#e0e0e0" opacity="nil"></line> <line x1="161.19601328903656" x2="161.19601328903656" y1="384.7674418604651" y2="388.7674418604651" stroke="black"></line> <line x1="161.19601328903656" x2="161.19601328903656" y1="40" y2="384.7674418604651" stroke="#e0e0e0" opacity="nil"></line> <text y="398.7674418604651" x="161.19601328903656" fill="black" font-size="12" text-anchor="middle" font-family="sans-serif"> 6</text> <line x1="176.3953488372093" x2="176.3953488372093" y1="384.7674418604651" y2="386.7674418604651" stroke="black"></line> <line x1="176.3953488372093" x2="176.3953488372093" y1="40" y2="384.7674418604651" stroke="#e0e0e0" opacity="nil"></line> <line x1="191.59468438538204" x2="191.59468438538204" y1="384.7674418604651" y2="388.7674418604651" stroke="black"></line> <line x1="191.59468438538204" x2="191.59468438538204" y1="40" y2="384.7674418604651" stroke="#e0e0e0" opacity="nil"></line> <text y="398.7674418604651" x="191.59468438538204" fill="black" font-size="12" text-anchor="middle" font-family="sans-serif"> 8</text> <line x1="206.7940199335548" x2="206.7940199335548" y1="384.7674418604651" y2="386.7674418604651" stroke="black"></line> <line x1="206.7940199335548" x2="206.7940199335548" y1="40" y2="384.7674418604651" stroke="#e0e0e0" opacity="nil"></line> <line x1="221.99335548172758" x2="221.99335548172758" y1="384.7674418604651" y2="388.7674418604651" stroke="black"></line> <line x1="221.99335548172758" x2="221.99335548172758" y1="40" y2="384.7674418604651" stroke="#e0e0e0" opacity="nil"></line> <text y="398.7674418604651" x="221.99335548172758" fill="black" font-size="12" text-anchor="middle" font-family="sans-serif"> 10</text> <line x1="237.19269102990035" x2="237.19269102990035" y1="384.7674418604651" y2="386.7674418604651" stroke="black"></line> <line x1="237.19269102990035" x2="237.19269102990035" y1="40" y2="384.7674418604651" stroke="#e0e0e0" opacity="nil"></line> <line x1="252.3920265780731" x2="252.3920265780731" y1="384.7674418604651" y2="388.7674418604651" stroke="black"></line> <line x1="252.3920265780731" x2="252.3920265780731" y1="40" y2="384.7674418604651" stroke="#e0e0e0" opacity="nil"></line> <text y="398.7674418604651" x="252.3920265780731" fill="black" font-size="12" text-anchor="middle" font-family="sans-serif"> 12</text> <line x1="267.5913621262458" x2="267.5913621262458" y1="384.7674418604651" y2="386.7674418604651" stroke="black"></line> <line x1="267.5913621262458" x2="267.5913621262458" y1="40" y2="384.7674418604651" stroke="#e0e0e0" opacity="nil"></line> <line x1="282.7906976744186" x2="282.7906976744186" y1="384.7674418604651" y2="388.7674418604651" stroke="black"></line> <line x1="282.7906976744186" x2="282.7906976744186" y1="40" y2="384.7674418604651" stroke="#e0e0e0" opacity="nil"></line> <text y="398.7674418604651" x="282.7906976744186" fill="black" font-size="12" text-anchor="middle" font-family="sans-serif"> 14</text> <line x1="297.99003322259136" x2="297.99003322259136" y1="384.7674418604651" y2="386.7674418604651" stroke="black"></line> <line x1="297.99003322259136" x2="297.99003322259136" y1="40" y2="384.7674418604651" stroke="#e0e0e0" opacity="nil"></line> <line x1="313.1893687707641" x2="313.1893687707641" y1="384.7674418604651" y2="388.7674418604651" stroke="black"></line> <line x1="313.1893687707641" x2="313.1893687707641" y1="40" y2="384.7674418604651" stroke="#e0e0e0" opacity="nil"></line> <text y="398.7674418604651" x="313.1893687707641" fill="black" font-size="12" text-anchor="middle" font-family="sans-serif"> 16</text> <line x1="328.3887043189369" x2="328.3887043189369" y1="384.7674418604651" y2="386.7674418604651" stroke="black"></line> <line x1="328.3887043189369" x2="328.3887043189369" y1="40" y2="384.7674418604651" stroke="#e0e0e0" opacity="nil"></line> <line x1="343.5880398671096" x2="343.5880398671096" y1="384.7674418604651" y2="388.7674418604651" stroke="black"></line> <line x1="343.5880398671096" x2="343.5880398671096" y1="40" y2="384.7674418604651" stroke="#e0e0e0" opacity="nil"></line> <text y="398.7674418604651" x="343.5880398671096" fill="black" font-size="12" text-anchor="middle" font-family="sans-serif"> 18</text> <line x1="358.7873754152824" x2="358.7873754152824" y1="384.7674418604651" y2="386.7674418604651" stroke="black"></line> <line x1="358.7873754152824" x2="358.7873754152824" y1="40" y2="384.7674418604651" stroke="#e0e0e0" opacity="nil"></line> <line x1="373.98671096345515" x2="373.98671096345515" y1="384.7674418604651" y2="388.7674418604651" stroke="black"></line> <line x1="373.98671096345515" x2="373.98671096345515" y1="40" y2="384.7674418604651" stroke="#e0e0e0" opacity="nil"></line> <text y="398.7674418604651" x="373.98671096345515" fill="black" font-size="12" text-anchor="middle" font-family="sans-serif"> 20</text> <line x1="389.1860465116279" x2="389.1860465116279" y1="384.7674418604651" y2="386.7674418604651" stroke="black"></line> <line x1="389.1860465116279" x2="389.1860465116279" y1="40" y2="384.7674418604651" stroke="#e0e0e0" opacity="nil"></line> <line x1="404.3853820598007" x2="404.3853820598007" y1="384.7674418604651" y2="388.7674418604651" stroke="black"></line> <line x1="404.3853820598007" x2="404.3853820598007" y1="40" y2="384.7674418604651" stroke="#e0e0e0" opacity="nil"></line> <text y="398.7674418604651" x="404.3853820598007" fill="black" font-size="12" text-anchor="middle" font-family="sans-serif"> 22</text> <line x1="419.58471760797346" x2="419.58471760797346" y1="384.7674418604651" y2="386.7674418604651" stroke="black"></line> <line x1="419.58471760797346" x2="419.58471760797346" y1="40" y2="384.7674418604651" stroke="#e0e0e0" opacity="nil"></line> <line x1="434.7840531561462" x2="434.7840531561462" y1="384.7674418604651" y2="388.7674418604651" stroke="black"></line> <line x1="434.7840531561462" x2="434.7840531561462" y1="40" y2="384.7674418604651" stroke="#e0e0e0" opacity="nil"></line> <text y="398.7674418604651" x="434.7840531561462" fill="black" font-size="12" text-anchor="middle" font-family="sans-serif"> 24</text> <line x1="449.98338870431894" x2="449.98338870431894" y1="384.7674418604651" y2="386.7674418604651" stroke="black"></line> <line x1="449.98338870431894" x2="449.98338870431894" y1="40" y2="384.7674418604651" stroke="#e0e0e0" opacity="nil"></line> <line x1="465.1827242524917" x2="465.1827242524917" y1="384.7674418604651" y2="388.7674418604651" stroke="black"></line> <line x1="465.1827242524917" x2="465.1827242524917" y1="40" y2="384.7674418604651" stroke="#e0e0e0" opacity="nil"></line> <text y="398.7674418604651" x="465.1827242524917" fill="black" font-size="12" text-anchor="middle" font-family="sans-serif"> 26</text> <line x1="480.3820598006645" x2="480.3820598006645" y1="384.7674418604651" y2="386.7674418604651" stroke="black"></line> <line x1="480.3820598006645" x2="480.3820598006645" y1="40" y2="384.7674418604651" stroke="#e0e0e0" opacity="nil"></line> <line x1="495.5813953488372" x2="495.5813953488372" y1="384.7674418604651" y2="388.7674418604651" stroke="black"></line> <line x1="495.5813953488372" x2="495.5813953488372" y1="40" y2="384.7674418604651" stroke="#e0e0e0" opacity="nil"></line> <text y="398.7674418604651" x="495.5813953488372" fill="black" font-size="12" text-anchor="middle" font-family="sans-serif"> 28</text> <line x1="510.78073089700996" x2="510.78073089700996" y1="384.7674418604651" y2="386.7674418604651" stroke="black"></line> <line x1="510.78073089700996" x2="510.78073089700996" y1="40" y2="384.7674418604651" stroke="#e0e0e0" opacity="nil"></line> <line x1="525.9800664451827" x2="525.9800664451827" y1="384.7674418604651" y2="388.7674418604651" stroke="black"></line> <line x1="525.9800664451827" x2="525.9800664451827" y1="40" y2="384.7674418604651" stroke="#e0e0e0" opacity="nil"></line> <text y="398.7674418604651" x="525.9800664451827" fill="black" font-size="12" text-anchor="middle" font-family="sans-serif"> 30</text> <line x1="541.1794019933556" x2="541.1794019933556" y1="384.7674418604651" y2="386.7674418604651" stroke="black"></line> <line x1="541.1794019933556" x2="541.1794019933556" y1="40" y2="384.7674418604651" stroke="#e0e0e0" opacity="nil"></line> <line x1="556.3787375415282" x2="556.3787375415282" y1="384.7674418604651" y2="388.7674418604651" stroke="black"></line> <line x1="556.3787375415282" x2="556.3787375415282" y1="40" y2="384.7674418604651" stroke="#e0e0e0" opacity="nil"></line> <text y="398.7674418604651" x="556.3787375415282" fill="black" font-size="12" text-anchor="middle" font-family="sans-serif"> 32</text> <line x1="571.5780730897011" x2="571.5780730897011" y1="384.7674418604651" y2="386.7674418604651" stroke="black"></line> <line x1="571.5780730897011" x2="571.5780730897011" y1="40" y2="384.7674418604651" stroke="#e0e0e0" opacity="nil"></line> <line x1="586.7774086378738" x2="586.7774086378738" y1="384.7674418604651" y2="388.7674418604651" stroke="black"></line> <line x1="586.7774086378738" x2="586.7774086378738" y1="40" y2="384.7674418604651" stroke="#e0e0e0" opacity="nil"></line> <text y="398.7674418604651" x="586.7774086378738" fill="black" font-size="12" text-anchor="middle" font-family="sans-serif"> 34</text> <line x1="601.9767441860465" x2="601.9767441860465" y1="384.7674418604651" y2="386.7674418604651" stroke="black"></line> <line x1="601.9767441860465" x2="601.9767441860465" y1="40" y2="384.7674418604651" stroke="#e0e0e0" opacity="nil"></line> <line x1="617.1760797342192" x2="617.1760797342192" y1="384.7674418604651" y2="388.7674418604651" stroke="black"></line> <line x1="617.1760797342192" x2="617.1760797342192" y1="40" y2="384.7674418604651" stroke="#e0e0e0" opacity="nil"></line> <text y="398.7674418604651" x="617.1760797342192" fill="black" font-size="12" text-anchor="middle" font-family="sans-serif"> 36</text> <line x1="632.375415282392" x2="632.375415282392" y1="384.7674418604651" y2="386.7674418604651" stroke="black"></line> <line x1="632.375415282392" x2="632.375415282392" y1="40" y2="384.7674418604651" stroke="#e0e0e0" opacity="nil"></line> <line x1="647.5747508305648" x2="647.5747508305648" y1="384.7674418604651" y2="388.7674418604651" stroke="black"></line> <line x1="647.5747508305648" x2="647.5747508305648" y1="40" y2="384.7674418604651" stroke="#e0e0e0" opacity="nil"></line> <text y="398.7674418604651" x="647.5747508305648" fill="black" font-size="12" text-anchor="middle" font-family="sans-serif"> 38</text> <line x1="662.7740863787376" x2="662.7740863787376" y1="384.7674418604651" y2="386.7674418604651" stroke="black"></line> <line x1="662.7740863787376" x2="662.7740863787376" y1="40" y2="384.7674418604651" stroke="#e0e0e0" opacity="nil"></line> <line x1="677.9734219269103" x2="677.9734219269103" y1="384.7674418604651" y2="388.7674418604651" stroke="black"></line> <line x1="677.9734219269103" x2="677.9734219269103" y1="40" y2="384.7674418604651" stroke="#e0e0e0" opacity="nil"></line> <text y="398.7674418604651" x="677.9734219269103" fill="black" font-size="12" text-anchor="middle" font-family="sans-serif"> 40</text> <line x1="693.172757475083" x2="693.172757475083" y1="384.7674418604651" y2="386.7674418604651" stroke="black"></line> <line x1="693.172757475083" x2="693.172757475083" y1="40" y2="384.7674418604651" stroke="#e0e0e0" opacity="nil"></line> <line x1="708.3720930232558" x2="708.3720930232558" y1="384.7674418604651" y2="388.7674418604651" stroke="black"></line> <line x1="708.3720930232558" x2="708.3720930232558" y1="40" y2="384.7674418604651" stroke="#e0e0e0" opacity="nil"></line> <text y="398.7674418604651" x="708.3720930232558" fill="black" font-size="12" text-anchor="middle" font-family="sans-serif"> 42</text> <line x1="70" x2="67" y1="384.7674418604651" y2="384.7674418604651" stroke="black"></line> <line x1="70" x2="708.3720930232558" y1="384.7674418604651" y2="384.7674418604651" opacity="nil" stroke="#e0e0e0"></line> <text y="388.7674418604651" x="64" fill="black" font-size="12" text-anchor="end" font-family="sans-serif"> 41.0</text> <line x1="70" x2="67" y1="366.1313639220613" y2="366.1313639220613" stroke="black"></line> <line x1="70" x2="708.3720930232558" y1="366.1313639220613" y2="366.1313639220613" opacity="nil" stroke="#e0e0e0"></line> <text y="370.1313639220613" x="64" fill="black" font-size="12" text-anchor="end" font-family="sans-serif"> 41.2</text> <line x1="70" x2="67" y1="347.4952859836582" y2="347.4952859836582" stroke="black"></line> <line x1="70" x2="708.3720930232558" y1="347.4952859836582" y2="347.4952859836582" opacity="nil" stroke="#e0e0e0"></line> <text y="351.4952859836582" x="64" fill="black" font-size="12" text-anchor="end" font-family="sans-serif"> 41.4</text> <line x1="70" x2="67" y1="328.8592080452545" y2="328.8592080452545" stroke="black"></line> <line x1="70" x2="708.3720930232558" y1="328.8592080452545" y2="328.8592080452545" opacity="nil" stroke="#e0e0e0"></line> <text y="332.8592080452545" x="64" fill="black" font-size="12" text-anchor="end" font-family="sans-serif"> 41.6</text> <line x1="70" x2="67" y1="310.2231301068514" y2="310.2231301068514" stroke="black"></line> <line x1="70" x2="708.3720930232558" y1="310.2231301068514" y2="310.2231301068514" opacity="nil" stroke="#e0e0e0"></line> <text y="314.2231301068514" x="64" fill="black" font-size="12" text-anchor="end" font-family="sans-serif"> 41.8</text> <line x1="70" x2="67" y1="291.5870521684476" y2="291.5870521684476" stroke="black"></line> <line x1="70" x2="708.3720930232558" y1="291.5870521684476" y2="291.5870521684476" opacity="nil" stroke="#e0e0e0"></line> <text y="295.5870521684476" x="64" fill="black" font-size="12" text-anchor="end" font-family="sans-serif"> 42.0</text> <line x1="70" x2="67" y1="272.9509742300438" y2="272.9509742300438" stroke="black"></line> <line x1="70" x2="708.3720930232558" y1="272.9509742300438" y2="272.9509742300438" opacity="nil" stroke="#e0e0e0"></line> <text y="276.9509742300438" x="64" fill="black" font-size="12" text-anchor="end" font-family="sans-serif"> 42.2</text> <line x1="70" x2="67" y1="254.3148962916407" y2="254.3148962916407" stroke="black"></line> <line x1="70" x2="708.3720930232558" y1="254.3148962916407" y2="254.3148962916407" opacity="nil" stroke="#e0e0e0"></line> <text y="258.3148962916407" x="64" fill="black" font-size="12" text-anchor="end" font-family="sans-serif"> 42.4</text> <line x1="70" x2="67" y1="235.67881835323692" y2="235.67881835323692" stroke="black"></line> <line x1="70" x2="708.3720930232558" y1="235.67881835323692" y2="235.67881835323692" opacity="nil" stroke="#e0e0e0"></line> <text y="239.67881835323692" x="64" fill="black" font-size="12" text-anchor="end" font-family="sans-serif"> 42.6</text> <line x1="70" x2="67" y1="217.04274041483382" y2="217.04274041483382" stroke="black"></line> <line x1="70" x2="708.3720930232558" y1="217.04274041483382" y2="217.04274041483382" opacity="nil" stroke="#e0e0e0"></line> <text y="221.04274041483382" x="64" fill="black" font-size="12" text-anchor="end" font-family="sans-serif"> 42.8</text> <line x1="70" x2="67" y1="198.40666247643006" y2="198.40666247643006" stroke="black"></line> <line x1="70" x2="708.3720930232558" y1="198.40666247643006" y2="198.40666247643006" opacity="nil" stroke="#e0e0e0"></line> <text y="202.40666247643006" x="64" fill="black" font-size="12" text-anchor="end" font-family="sans-serif"> 43.0</text> <line x1="70" x2="67" y1="179.77058453802627" y2="179.77058453802627" stroke="black"></line> <line x1="70" x2="708.3720930232558" y1="179.77058453802627" y2="179.77058453802627" opacity="nil" stroke="#e0e0e0"></line> <text y="183.77058453802627" x="64" fill="black" font-size="12" text-anchor="end" font-family="sans-serif"> 43.2</text> <line x1="70" x2="67" y1="161.13450659962317" y2="161.13450659962317" stroke="black"></line> <line x1="70" x2="708.3720930232558" y1="161.13450659962317" y2="161.13450659962317" opacity="nil" stroke="#e0e0e0"></line> <text y="165.13450659962317" x="64" fill="black" font-size="12" text-anchor="end" font-family="sans-serif"> 43.4</text> <line x1="70" x2="67" y1="142.4984286612194" y2="142.4984286612194" stroke="black"></line> <line x1="70" x2="708.3720930232558" y1="142.4984286612194" y2="142.4984286612194" opacity="nil" stroke="#e0e0e0"></line> <text y="146.4984286612194" x="64" fill="black" font-size="12" text-anchor="end" font-family="sans-serif"> 43.6</text> <line x1="70" x2="67" y1="123.8623507228163" y2="123.8623507228163" stroke="black"></line> <line x1="70" x2="708.3720930232558" y1="123.8623507228163" y2="123.8623507228163" opacity="nil" stroke="#e0e0e0"></line> <text y="127.8623507228163" x="64" fill="black" font-size="12" text-anchor="end" font-family="sans-serif"> 43.8</text> <line x1="70" x2="67" y1="105.22627278441252" y2="105.22627278441252" stroke="black"></line> <line x1="70" x2="708.3720930232558" y1="105.22627278441252" y2="105.22627278441252" opacity="nil" stroke="#e0e0e0"></line> <text y="109.22627278441252" x="64" fill="black" font-size="12" text-anchor="end" font-family="sans-serif"> 44.0</text> <line x1="70" x2="67" y1="86.59019484600873" y2="86.59019484600873" stroke="black"></line> <line x1="70" x2="708.3720930232558" y1="86.59019484600873" y2="86.59019484600873" opacity="nil" stroke="#e0e0e0"></line> <text y="90.59019484600873" x="64" fill="black" font-size="12" text-anchor="end" font-family="sans-serif"> 44.2</text> <line x1="70" x2="67" y1="67.95411690760562" y2="67.95411690760562" stroke="black"></line> <line x1="70" x2="708.3720930232558" y1="67.95411690760562" y2="67.95411690760562" opacity="nil" stroke="#e0e0e0"></line> <text y="71.95411690760562" x="64" fill="black" font-size="12" text-anchor="end" font-family="sans-serif"> 44.4</text> <line x1="70" x2="67" y1="49.31803896920189" y2="49.31803896920189" stroke="black"></line> <line x1="70" x2="708.3720930232558" y1="49.31803896920189" y2="49.31803896920189" opacity="nil" stroke="#e0e0e0"></line> <text y="53.31803896920189" x="64" fill="black" font-size="12" text-anchor="end" font-family="sans-serif"> 44.6</text> <line x1="70" x2="70" y1="40" y2="389.7674418604651" stroke="black"></line> <line x1="65" x2="708.3720930232558" y1="384.7674418604651" y2="384.7674418604651" stroke="black"></line> <line x1="70.0" x2="85.19933554817275" y1="375.4494028912632" y2="282.2690131992457" stroke="black"></line> <line x1="85.19933554817275" x2="100.39867109634551" y1="282.2690131992457" y2="40.0" stroke="black"></line> <line x1="100.39867109634551" x2="115.59800664451828" y1="40.0" y2="161.13450659962317" stroke="black"></line> <line x1="115.59800664451828" x2="130.79734219269102" y1="161.13450659962317" y2="161.13450659962317" stroke="black"></line> <line x1="130.79734219269102" x2="145.9966777408638" y1="161.13450659962317" y2="105.22627278441252" stroke="black"></line> <line x1="145.9966777408638" x2="161.19601328903656" y1="105.22627278441252" y2="170.45254556882506" stroke="black"></line> <line x1="161.19601328903656" x2="176.3953488372093" y1="170.45254556882506" y2="198.40666247643006" stroke="black"></line> <line x1="176.3953488372093" x2="191.59468438538204" y1="198.40666247643006" y2="151.81646763042133" stroke="black"></line> <line x1="191.59468438538204" x2="206.7940199335548" y1="151.81646763042133" y2="161.13450659962317" stroke="black"></line> <line x1="206.7940199335548" x2="221.99335548172758" y1="161.13450659962317" y2="179.77058453802627" stroke="black"></line> <line x1="221.99335548172758" x2="237.19269102990035" y1="179.77058453802627" y2="142.4984286612194" stroke="black"></line> <line x1="237.19269102990035" x2="252.3920265780731" y1="142.4984286612194" y2="179.77058453802627" stroke="black"></line> <line x1="252.3920265780731" x2="267.5913621262458" y1="179.77058453802627" y2="142.4984286612194" stroke="black"></line> <line x1="267.5913621262458" x2="282.7906976744186" y1="142.4984286612194" y2="133.1803896920175" stroke="black"></line> <line x1="282.7906976744186" x2="297.99003322259136" y1="133.1803896920175" y2="179.77058453802627" stroke="black"></line> <line x1="297.99003322259136" x2="313.1893687707641" y1="179.77058453802627" y2="189.08862350722816" stroke="black"></line> <line x1="313.1893687707641" x2="328.3887043189369" y1="189.08862350722816" y2="123.8623507228163" stroke="black"></line> <line x1="328.3887043189369" x2="343.5880398671096" y1="123.8623507228163" y2="189.08862350722816" stroke="black"></line> <line x1="343.5880398671096" x2="358.7873754152824" y1="189.08862350722816" y2="105.22627278441252" stroke="black"></line> <line x1="358.7873754152824" x2="373.98671096345515" y1="105.22627278441252" y2="189.08862350722816" stroke="black"></line> <line x1="373.98671096345515" x2="389.1860465116279" y1="189.08862350722816" y2="142.4984286612194" stroke="black"></line> <line x1="389.1860465116279" x2="404.3853820598007" y1="142.4984286612194" y2="161.13450659962317" stroke="black"></line> <line x1="404.3853820598007" x2="419.58471760797346" y1="161.13450659962317" y2="189.08862350722816" stroke="black"></line> <line x1="419.58471760797346" x2="434.7840531561462" y1="189.08862350722816" y2="105.22627278441252" stroke="black"></line> <line x1="434.7840531561462" x2="449.98338870431894" y1="105.22627278441252" y2="105.22627278441252" stroke="black"></line> <line x1="449.98338870431894" x2="465.1827242524917" y1="105.22627278441252" y2="133.1803896920175" stroke="black"></line> <line x1="465.1827242524917" x2="480.3820598006645" y1="133.1803896920175" y2="151.81646763042133" stroke="black"></line> <line x1="480.3820598006645" x2="495.5813953488372" y1="151.81646763042133" y2="133.1803896920175" stroke="black"></line> <line x1="495.5813953488372" x2="510.78073089700996" y1="133.1803896920175" y2="133.1803896920175" stroke="black"></line> <line x1="510.78073089700996" x2="525.9800664451827" y1="133.1803896920175" y2="179.77058453802627" stroke="black"></line> <line x1="525.9800664451827" x2="541.1794019933556" y1="179.77058453802627" y2="179.77058453802627" stroke="black"></line> <line x1="541.1794019933556" x2="556.3787375415282" y1="179.77058453802627" y2="114.54431175361441" stroke="black"></line> <line x1="556.3787375415282" x2="571.5780730897011" y1="114.54431175361441" y2="114.54431175361441" stroke="black"></line> <line x1="571.5780730897011" x2="586.7774086378738" y1="114.54431175361441" y2="105.22627278441252" stroke="black"></line> <line x1="586.7774086378738" x2="601.9767441860465" y1="105.22627278441252" y2="123.8623507228163" stroke="black"></line> <line x1="601.9767441860465" x2="617.1760797342192" y1="123.8623507228163" y2="198.40666247643006" stroke="black"></line> <line x1="617.1760797342192" x2="632.375415282392" y1="198.40666247643006" y2="179.77058453802627" stroke="black"></line> <line x1="632.375415282392" x2="647.5747508305648" y1="179.77058453802627" y2="142.4984286612194" stroke="black"></line> <line x1="647.5747508305648" x2="662.7740863787376" y1="142.4984286612194" y2="161.13450659962317" stroke="black"></line> <line x1="662.7740863787376" x2="677.9734219269103" y1="161.13450659962317" y2="142.4984286612194" stroke="black"></line> <line x1="677.9734219269103" x2="693.172757475083" y1="142.4984286612194" y2="142.4984286612194" stroke="black"></line> <line x1="693.172757475083" x2="708.3720930232558" y1="142.4984286612194" y2="133.1803896920175" stroke="black"></line></svg>