<svg width="728" height="889" version="1.1" xmlns="http://www.w3.org/2000/svg" xmlns:xlink="http://www.w3.org/1999/xlink"> <rect width="728" height="889" x="0" y="0" fill="white"></rect> <line x1="70.0" x2="70.0" y1="829" y2="833" stroke="black"></line> <line x1="70.0" x2="70.0" y1="40" y2="829" stroke="#e0e0e0" opacity="nil"></line> <text y="843" x="70.0" fill="black" font-size="12" text-anchor="middle" font-family="sans-serif"> 0</text> <line x1="85.19047619047619" x2="85.19047619047619" y1="829" y2="831" stroke="black"></line> <line x1="85.19047619047619" x2="85.19047619047619" y1="40" y2="829" stroke="#e0e0e0" opacity="nil"></line> <line x1="100.38095238095238" x2="100.38095238095238" y1="829" y2="833" stroke="black"></line> <line x1="100.38095238095238" x2="100.38095238095238" y1="40" y2="829" stroke="#e0e0e0" opacity="nil"></line> <text y="843" x="100.38095238095238" fill="black" font-size="12" text-anchor="middle" font-family="sans-serif"> 2</text> <line x1="115.57142857142857" x2="115.57142857142857" y1="829" y2="831" stroke="black"></line> <line x1="115.57142857142857" x2="115.57142857142857" y1="40" y2="829" stroke="#e0e0e0" opacity="nil"></line> <line x1="130.76190476190476" x2="130.76190476190476" y1="829" y2="833" stroke="black"></line> <line x1="130.76190476190476" x2="130.76190476190476" y1="40" y2="829" stroke="#e0e0e0" opacity="nil"></line> <text y="843" x="130.76190476190476" fill="black" font-size="12" text-anchor="middle" font-family="sans-serif"> 4</text> <line x1="145.95238095238096" x2="145.95238095238096" y1="829" y2="831" stroke="black"></line> <line x1="145.95238095238096" x2="145.95238095238096" y1="40" y2="829" stroke="#e0e0e0" opacity="nil"></line> <line x1="161.14285714285714" x2="161.14285714285714" y1="829" y2="833" stroke="black"></line> <line x1="161.14285714285714" x2="161.14285714285714" y1="40" y2="829" stroke="#e0e0e0" opacity="nil"></line> <text y="843" x="161.14285714285714" fill="black" font-size="12" text-anchor="middle" font-family="sans-serif"> 6</text> <line x1="176.33333333333331" x2="176.33333333333331" y1="829" y2="831" stroke="black"></line> <line x1="176.33333333333331" x2="176.33333333333331" y1="40" y2="829" stroke="#e0e0e0" opacity="nil"></line> <line x1="191.52380952380952" x2="191.52380952380952" y1="829" y2="833" stroke="black"></line> <line x1="191.52380952380952" x2="191.52380952380952" y1="40" y2="829" stroke="#e0e0e0" opacity="nil"></line> <text y="843" x="191.52380952380952" fill="black" font-size="12" text-anchor="middle" font-family="sans-serif"> 8</text> <line x1="206.7142857142857" x2="206.7142857142857" y1="829" y2="831" stroke="black"></line> <line x1="206.7142857142857" x2="206.7142857142857" y1="40" y2="829" stroke="#e0e0e0" opacity="nil"></line> <line x1="221.9047619047619" x2="221.9047619047619" y1="829" y2="833" stroke="black"></line> <line x1="221.9047619047619" x2="221.9047619047619" y1="40" y2="829" stroke="#e0e0e0" opacity="nil"></line> <text y="843" x="221.9047619047619" fill="black" font-size="12" text-anchor="middle" font-family="sans-serif"> 10</text> <line x1="237.0952380952381" x2="237.0952380952381" y1="829" y2="831" stroke="black"></line> <line x1="237.0952380952381" x2="237.0952380952381" y1="40" y2="829" stroke="#e0e0e0" opacity="nil"></line> <line x1="252.28571428571428" x2="252.28571428571428" y1="829" y2="833" stroke="black"></line> <line x1="252.28571428571428" x2="252.28571428571428" y1="40" y2="829" stroke="#e0e0e0" opacity="nil"></line> <text y="843" x="252.28571428571428" fill="black" font-size="12" text-anchor="middle" font-family="sans-serif"> 12</text> <line x1="267.4761904761905" x2="267.4761904761905" y1="829" y2="831" stroke="black"></line> <line x1="267.4761904761905" x2="267.4761904761905" y1="40" y2="829" stroke="#e0e0e0" opacity="nil"></line> <line x1="282.66666666666663" x2="282.66666666666663" y1="829" y2="833" stroke="black"></line> <line x1="282.66666666666663" x2="282.66666666666663" y1="40" y2="829" stroke="#e0e0e0" opacity="nil"></line> <text y="843" x="282.66666666666663" fill="black" font-size="12" text-anchor="middle" font-family="sans-serif"> 14</text> <line x1="297.8571428571429" x2="297.8571428571429" y1="829" y2="831" stroke="black"></line> <line x1="297.8571428571429" x2="297.8571428571429" y1="40" y2="829" stroke="#e0e0e0" opacity="nil"></line> <line x1="313.04761904761904" x2="313.04761904761904" y1="829" y2="833" stroke="black"></line> <line x1="313.04761904761904" x2="313.04761904761904" y1="40" y2="829" stroke="#e0e0e0" opacity="nil"></line> <text y="843" x="313.04761904761904" fill="black" font-size="12" text-anchor="middle" font-family="sans-serif"> 16</text> <line x1="328.23809523809524" x2="328.23809523809524" y1="829" y2="831" stroke="black"></line> <line x1="328.23809523809524" x2="328.23809523809524" y1="40" y2="829" stroke="#e0e0e0" opacity="nil"></line> <line x1="343.4285714285714" x2="343.4285714285714" y1="829" y2="833" stroke="black"></line> <line x1="343.4285714285714" x2="343.4285714285714" y1="40" y2="829" stroke="#e0e0e0" opacity="nil"></line> <text y="843" x="343.4285714285714" fill="black" font-size="12" text-anchor="middle" font-family="sans-serif"> 18</text> <line x1="358.61904761904765" x2="358.61904761904765" y1="829" y2="831" stroke="black"></line> <line x1="358.61904761904765" x2="358.61904761904765" y1="40" y2="829" stroke="#e0e0e0" opacity="nil"></line> <line x1="373.8095238095238" x2="373.8095238095238" y1="829" y2="833" stroke="black"></line> <line x1="373.8095238095238" x2="373.8095238095238" y1="40" y2="829" stroke="#e0e0e0" opacity="nil"></line> <text y="843" x="373.8095238095238" fill="black" font-size="12" text-anchor="middle" font-family="sans-serif"> 20</text> <line x1="389.0" x2="389.0" y1="829" y2="831" stroke="black"></line> <line x1="389.0" x2="389.0" y1="40" y2="829" stroke="#e0e0e0" opacity="nil"></line> <line x1="404.1904761904762" x2="404.1904761904762" y1="829" y2="833" stroke="black"></line> <line x1="404.1904761904762" x2="404.1904761904762" y1="40" y2="829" stroke="#e0e0e0" opacity="nil"></line> <text y="843" x="404.1904761904762" fill="black" font-size="12" text-anchor="middle" font-family="sans-serif"> 22</text> <line x1="419.3809523809524" x2="419.3809523809524" y1="829" y2="831" stroke="black"></line> <line x1="419.3809523809524" x2="419.3809523809524" y1="40" y2="829" stroke="#e0e0e0" opacity="nil"></line> <line x1="434.57142857142856" x2="434.57142857142856" y1="829" y2="833" stroke="black"></line> <line x1="434.57142857142856" x2="434.57142857142856" y1="40" y2="829" stroke="#e0e0e0" opacity="nil"></line> <text y="843" x="434.57142857142856" fill="black" font-size="12" text-anchor="middle" font-family="sans-serif"> 24</text> <line x1="449.76190476190476" x2="449.76190476190476" y1="829" y2="831" stroke="black"></line> <line x1="449.76190476190476" x2="449.76190476190476" y1="40" y2="829" stroke="#e0e0e0" opacity="nil"></line> <line x1="464.95238095238096" x2="464.95238095238096" y1="829" y2="833" stroke="black"></line> <line x1="464.95238095238096" x2="464.95238095238096" y1="40" y2="829" stroke="#e0e0e0" opacity="nil"></line> <text y="843" x="464.95238095238096" fill="black" font-size="12" text-anchor="middle" font-family="sans-serif"> 26</text> <line x1="480.14285714285717" x2="480.14285714285717" y1="829" y2="831" stroke="black"></line> <line x1="480.14285714285717" x2="480.14285714285717" y1="40" y2="829" stroke="#e0e0e0" opacity="nil"></line> <line x1="495.3333333333333" x2="495.3333333333333" y1="829" y2="833" stroke="black"></line> <line x1="495.3333333333333" x2="495.3333333333333" y1="40" y2="829" stroke="#e0e0e0" opacity="nil"></line> <text y="843" x="495.3333333333333" fill="black" font-size="12" text-anchor="middle" font-family="sans-serif"> 28</text> <line x1="510.5238095238095" x2="510.5238095238095" y1="829" y2="831" stroke="black"></line> <line x1="510.5238095238095" x2="510.5238095238095" y1="40" y2="829" stroke="#e0e0e0" opacity="nil"></line> <line x1="525.7142857142858" x2="525.7142857142858" y1="829" y2="833" stroke="black"></line> <line x1="525.7142857142858" x2="525.7142857142858" y1="40" y2="829" stroke="#e0e0e0" opacity="nil"></line> <text y="843" x="525.7142857142858" fill="black" font-size="12" text-anchor="middle" font-family="sans-serif"> 30</text> <line x1="540.9047619047619" x2="540.9047619047619" y1="829" y2="831" stroke="black"></line> <line x1="540.9047619047619" x2="540.9047619047619" y1="40" y2="829" stroke="#e0e0e0" opacity="nil"></line> <line x1="556.0952380952381" x2="556.0952380952381" y1="829" y2="833" stroke="black"></line> <line x1="556.0952380952381" x2="556.0952380952381" y1="40" y2="829" stroke="#e0e0e0" opacity="nil"></line> <text y="843" x="556.0952380952381" fill="black" font-size="12" text-anchor="middle" font-family="sans-serif"> 32</text> <line x1="571.2857142857142" x2="571.2857142857142" y1="829" y2="831" stroke="black"></line> <line x1="571.2857142857142" x2="571.2857142857142" y1="40" y2="829" stroke="#e0e0e0" opacity="nil"></line> <line x1="586.4761904761905" x2="586.4761904761905" y1="829" y2="833" stroke="black"></line> <line x1="586.4761904761905" x2="586.4761904761905" y1="40" y2="829" stroke="#e0e0e0" opacity="nil"></line> <text y="843" x="586.4761904761905" fill="black" font-size="12" text-anchor="middle" font-family="sans-serif"> 34</text> <line x1="601.6666666666667" x2="601.6666666666667" y1="829" y2="831" stroke="black"></line> <line x1="601.6666666666667" x2="601.6666666666667" y1="40" y2="829" stroke="#e0e0e0" opacity="nil"></line> <line x1="616.8571428571428" x2="616.8571428571428" y1="829" y2="833" stroke="black"></line> <line x1="616.8571428571428" x2="616.8571428571428" y1="40" y2="829" stroke="#e0e0e0" opacity="nil"></line> <text y="843" x="616.8571428571428" fill="black" font-size="12" text-anchor="middle" font-family="sans-serif"> 36</text> <line x1="632.047619047619" x2="632.047619047619" y1="829" y2="831" stroke="black"></line> <line x1="632.047619047619" x2="632.047619047619" y1="40" y2="829" stroke="#e0e0e0" opacity="nil"></line> <line x1="647.2380952380953" x2="647.2380952380953" y1="829" y2="833" stroke="black"></line> <line x1="647.2380952380953" x2="647.2380952380953" y1="40" y2="829" stroke="#e0e0e0" opacity="nil"></line> <text y="843" x="647.2380952380953" fill="black" font-size="12" text-anchor="middle" font-family="sans-serif"> 38</text> <line x1="662.4285714285714" x2="662.4285714285714" y1="829" y2="831" stroke="black"></line> <line x1="662.4285714285714" x2="662.4285714285714" y1="40" y2="829" stroke="#e0e0e0" opacity="nil"></line> <line x1="677.6190476190476" x2="677.6190476190476" y1="829" y2="833" stroke="black"></line> <line x1="677.6190476190476" x2="677.6190476190476" y1="40" y2="829" stroke="#e0e0e0" opacity="nil"></line> <text y="843" x="677.6190476190476" fill="black" font-size="12" text-anchor="middle" font-family="sans-serif"> 40</text> <line x1="692.8095238095237" x2="692.8095238095237" y1="829" y2="831" stroke="black"></line> <line x1="692.8095238095237" x2="692.8095238095237" y1="40" y2="829" stroke="#e0e0e0" opacity="nil"></line> <line x1="708.0" x2="708.0" y1="829" y2="833" stroke="black"></line> <line x1="708.0" x2="708.0" y1="40" y2="829" stroke="#e0e0e0" opacity="nil"></line> <text y="843" x="708.0" fill="black" font-size="12" text-anchor="middle" font-family="sans-serif"> 42</text> <line x1="70" x2="67" y1="829.0" y2="829.0" stroke="black"></line> <line x1="70" x2="708" y1="829.0" y2="829.0" opacity="nil" stroke="#e0e0e0"></line> <text y="833.0" x="64" fill="black" font-size="12" text-anchor="end" font-family="sans-serif"> 41.1</text> <line x1="70" x2="67" y1="807.083333333333" y2="807.083333333333" stroke="black"></line> <line x1="70" x2="708" y1="807.083333333333" y2="807.083333333333" opacity="nil" stroke="#e0e0e0"></line> <text y="811.083333333333" x="64" fill="black" font-size="12" text-anchor="end" font-family="sans-serif"> 41.2</text> <line x1="70" x2="67" y1="785.1666666666677" y2="785.1666666666677" stroke="black"></line> <line x1="70" x2="708" y1="785.1666666666677" y2="785.1666666666677" opacity="nil" stroke="#e0e0e0"></line> <text y="789.1666666666677" x="64" fill="black" font-size="12" text-anchor="end" font-family="sans-serif"> 41.3</text> <line x1="70" x2="67" y1="763.2500000000007" y2="763.2500000000007" stroke="black"></line> <line x1="70" x2="708" y1="763.2500000000007" y2="763.2500000000007" opacity="nil" stroke="#e0e0e0"></line> <text y="767.2500000000007" x="64" fill="black" font-size="12" text-anchor="end" font-family="sans-serif"> 41.4</text> <line x1="70" x2="67" y1="741.3333333333337" y2="741.3333333333337" stroke="black"></line> <line x1="70" x2="708" y1="741.3333333333337" y2="741.3333333333337" opacity="nil" stroke="#e0e0e0"></line> <text y="745.3333333333337" x="64" fill="black" font-size="12" text-anchor="end" font-family="sans-serif"> 41.5</text> <line x1="70" x2="67" y1="719.4166666666667" y2="719.4166666666667" stroke="black"></line> <line x1="70" x2="708" y1="719.4166666666667" y2="719.4166666666667" opacity="nil" stroke="#e0e0e0"></line> <text y="723.4166666666667" x="64" fill="black" font-size="12" text-anchor="end" font-family="sans-serif"> 41.6</text> <line x1="70" x2="67" y1="697.4999999999998" y2="697.4999999999998" stroke="black"></line> <line x1="70" x2="708" y1="697.4999999999998" y2="697.4999999999998" opacity="nil" stroke="#e0e0e0"></line> <text y="701.4999999999998" x="64" fill="black" font-size="12" text-anchor="end" font-family="sans-serif"> 41.7</text> <line x1="70" x2="67" y1="675.5833333333344" y2="675.5833333333344" stroke="black"></line> <line x1="70" x2="708" y1="675.5833333333344" y2="675.5833333333344" opacity="nil" stroke="#e0e0e0"></line> <text y="679.5833333333344" x="64" fill="black" font-size="12" text-anchor="end" font-family="sans-serif"> 41.8</text> <line x1="70" x2="67" y1="653.6666666666674" y2="653.6666666666674" stroke="black"></line> <line x1="70" x2="708" y1="653.6666666666674" y2="653.6666666666674" opacity="nil" stroke="#e0e0e0"></line> <text y="657.6666666666674" x="64" fill="black" font-size="12" text-anchor="end" font-family="sans-serif"> 41.9</text> <line x1="70" x2="67" y1="631.7500000000005" y2="631.7500000000005" stroke="black"></line> <line x1="70" x2="708" y1="631.7500000000005" y2="631.7500000000005" opacity="nil" stroke="#e0e0e0"></line> <text y="635.7500000000005" x="64" fill="black" font-size="12" text-anchor="end" font-family="sans-serif"> 42.0</text> <line x1="70" x2="67" y1="609.8333333333334" y2="609.8333333333334" stroke="black"></line> <line x1="70" x2="708" y1="609.8333333333334" y2="609.8333333333334" opacity="nil" stroke="#e0e0e0"></line> <text y="613.8333333333334" x="64" fill="black" font-size="12" text-anchor="end" font-family="sans-serif"> 42.1</text> <line x1="70" x2="67" y1="587.9166666666665" y2="587.9166666666665" stroke="black"></line> <line x1="70" x2="708" y1="587.9166666666665" y2="587.9166666666665" opacity="nil" stroke="#e0e0e0"></line> <text y="591.9166666666665" x="64" fill="black" font-size="12" text-anchor="end" font-family="sans-serif"> 42.2</text> <line x1="70" x2="67" y1="566.000000000001" y2="566.000000000001" stroke="black"></line> <line x1="70" x2="708" y1="566.000000000001" y2="566.000000000001" opacity="nil" stroke="#e0e0e0"></line> <text y="570.000000000001" x="64" fill="black" font-size="12" text-anchor="end" font-family="sans-serif"> 42.3</text> <line x1="70" x2="67" y1="544.0833333333342" y2="544.0833333333342" stroke="black"></line> <line x1="70" x2="708" y1="544.0833333333342" y2="544.0833333333342" opacity="nil" stroke="#e0e0e0"></line> <text y="548.0833333333342" x="64" fill="black" font-size="12" text-anchor="end" font-family="sans-serif"> 42.4</text> <line x1="70" x2="67" y1="522.1666666666671" y2="522.1666666666671" stroke="black"></line> <line x1="70" x2="708" y1="522.1666666666671" y2="522.1666666666671" opacity="nil" stroke="#e0e0e0"></line> <text y="526.1666666666671" x="64" fill="black" font-size="12" text-anchor="end" font-family="sans-serif"> 42.5</text> <line x1="70" x2="67" y1="500.2500000000001" y2="500.2500000000001" stroke="black"></line> <line x1="70" x2="708" y1="500.2500000000001" y2="500.2500000000001" opacity="nil" stroke="#e0e0e0"></line> <text y="504.2500000000001" x="64" fill="black" font-size="12" text-anchor="end" font-family="sans-serif"> 42.6</text> <line x1="70" x2="67" y1="478.3333333333332" y2="478.3333333333332" stroke="black"></line> <line x1="70" x2="708" y1="478.3333333333332" y2="478.3333333333332" opacity="nil" stroke="#e0e0e0"></line> <text y="482.3333333333332" x="64" fill="black" font-size="12" text-anchor="end" font-family="sans-serif"> 42.7</text> <line x1="70" x2="67" y1="456.4166666666677" y2="456.4166666666677" stroke="black"></line> <line x1="70" x2="708" y1="456.4166666666677" y2="456.4166666666677" opacity="nil" stroke="#e0e0e0"></line> <text y="460.4166666666677" x="64" fill="black" font-size="12" text-anchor="end" font-family="sans-serif"> 42.8</text> <line x1="70" x2="67" y1="434.5000000000008" y2="434.5000000000008" stroke="black"></line> <line x1="70" x2="708" y1="434.5000000000008" y2="434.5000000000008" opacity="nil" stroke="#e0e0e0"></line> <text y="438.5000000000008" x="64" fill="black" font-size="12" text-anchor="end" font-family="sans-serif"> 42.9</text> <line x1="70" x2="67" y1="412.5833333333338" y2="412.5833333333338" stroke="black"></line> <line x1="70" x2="708" y1="412.5833333333338" y2="412.5833333333338" opacity="nil" stroke="#e0e0e0"></line> <text y="416.5833333333338" x="64" fill="black" font-size="12" text-anchor="end" font-family="sans-serif"> 43.0</text> <line x1="70" x2="67" y1="390.6666666666668" y2="390.6666666666668" stroke="black"></line> <line x1="70" x2="708" y1="390.6666666666668" y2="390.6666666666668" opacity="nil" stroke="#e0e0e0"></line> <text y="394.6666666666668" x="64" fill="black" font-size="12" text-anchor="end" font-family="sans-serif"> 43.1</text> <line x1="70" x2="67" y1="368.7499999999999" y2="368.7499999999999" stroke="black"></line> <line x1="70" x2="708" y1="368.7499999999999" y2="368.7499999999999" opacity="nil" stroke="#e0e0e0"></line> <text y="372.7499999999999" x="64" fill="black" font-size="12" text-anchor="end" font-family="sans-serif"> 43.2</text> <line x1="70" x2="67" y1="346.83333333333445" y2="346.83333333333445" stroke="black"></line> <line x1="70" x2="708" y1="346.83333333333445" y2="346.83333333333445" opacity="nil" stroke="#e0e0e0"></line> <text y="350.83333333333445" x="64" fill="black" font-size="12" text-anchor="end" font-family="sans-serif"> 43.3</text> <line x1="70" x2="67" y1="324.9166666666675" y2="324.9166666666675" stroke="black"></line> <line x1="70" x2="708" y1="324.9166666666675" y2="324.9166666666675" opacity="nil" stroke="#e0e0e0"></line> <text y="328.9166666666675" x="64" fill="black" font-size="12" text-anchor="end" font-family="sans-serif"> 43.4</text> <line x1="70" x2="67" y1="303.00000000000057" y2="303.00000000000057" stroke="black"></line> <line x1="70" x2="708" y1="303.00000000000057" y2="303.00000000000057" opacity="nil" stroke="#e0e0e0"></line> <text y="307.00000000000057" x="64" fill="black" font-size="12" text-anchor="end" font-family="sans-serif"> 43.5</text> <line x1="70" x2="67" y1="281.0833333333335" y2="281.0833333333335" stroke="black"></line> <line x1="70" x2="708" y1="281.0833333333335" y2="281.0833333333335" opacity="nil" stroke="#e0e0e0"></line> <text y="285.0833333333335" x="64" fill="black" font-size="12" text-anchor="end" font-family="sans-serif"> 43.6</text> <line x1="70" x2="67" y1="259.16666666666663" y2="259.16666666666663" stroke="black"></line> <line x1="70" x2="708" y1="259.16666666666663" y2="259.16666666666663" opacity="nil" stroke="#e0e0e0"></line> <text y="263.16666666666663" x="64" fill="black" font-size="12" text-anchor="end" font-family="sans-serif"> 43.7</text> <line x1="70" x2="67" y1="237.25000000000114" y2="237.25000000000114" stroke="black"></line> <line x1="70" x2="708" y1="237.25000000000114" y2="237.25000000000114" opacity="nil" stroke="#e0e0e0"></line> <text y="241.25000000000114" x="64" fill="black" font-size="12" text-anchor="end" font-family="sans-serif"> 43.8</text> <line x1="70" x2="67" y1="215.33333333333417" y2="215.33333333333417" stroke="black"></line> <line x1="70" x2="708" y1="215.33333333333417" y2="215.33333333333417" opacity="nil" stroke="#e0e0e0"></line> <text y="219.33333333333417" x="64" fill="black" font-size="12" text-anchor="end" font-family="sans-serif"> 43.9</text> <line x1="70" x2="67" y1="193.4166666666673" y2="193.4166666666673" stroke="black"></line> <line x1="70" x2="708" y1="193.4166666666673" y2="193.4166666666673" opacity="nil" stroke="#e0e0e0"></line> <text y="197.4166666666673" x="64" fill="black" font-size="12" text-anchor="end" font-family="sans-serif"> 44.0</text> <line x1="70" x2="67" y1="171.50000000000023" y2="171.50000000000023" stroke="black"></line> <line x1="70" x2="708" y1="171.50000000000023" y2="171.50000000000023" opacity="nil" stroke="#e0e0e0"></line> <text y="175.50000000000023" x="64" fill="black" font-size="12" text-anchor="end" font-family="sans-serif"> 44.1</text> <line x1="70" x2="67" y1="149.58333333333326" y2="149.58333333333326" stroke="black"></line> <line x1="70" x2="708" y1="149.58333333333326" y2="149.58333333333326" opacity="nil" stroke="#e0e0e0"></line> <text y="153.58333333333326" x="64" fill="black" font-size="12" text-anchor="end" font-family="sans-serif"> 44.2</text> <line x1="70" x2="67" y1="127.66666666666788" y2="127.66666666666788" stroke="black"></line> <line x1="70" x2="708" y1="127.66666666666788" y2="127.66666666666788" opacity="nil" stroke="#e0e0e0"></line> <text y="131.66666666666788" x="64" fill="black" font-size="12" text-anchor="end" font-family="sans-serif"> 44.3</text> <line x1="70" x2="67" y1="105.75000000000091" y2="105.75000000000091" stroke="black"></line> <line x1="70" x2="708" y1="105.75000000000091" y2="105.75000000000091" opacity="nil" stroke="#e0e0e0"></line> <text y="109.75000000000091" x="64" fill="black" font-size="12" text-anchor="end" font-family="sans-serif"> 44.4</text> <line x1="70" x2="67" y1="83.83333333333394" y2="83.83333333333394" stroke="black"></line> <line x1="70" x2="708" y1="83.83333333333394" y2="83.83333333333394" opacity="nil" stroke="#e0e0e0"></line> <text y="87.83333333333394" x="64" fill="black" font-size="12" text-anchor="end" font-family="sans-serif"> 44.5</text> <line x1="70" x2="67" y1="61.91666666666697" y2="61.91666666666697" stroke="black"></line> <line x1="70" x2="708" y1="61.91666666666697" y2="61.91666666666697" opacity="nil" stroke="#e0e0e0"></line> <text y="65.91666666666697" x="64" fill="black" font-size="12" text-anchor="end" font-family="sans-serif"> 44.6</text> <line x1="70" x2="67" y1="40.0" y2="40.0" stroke="black"></line> <line x1="70" x2="708" y1="40.0" y2="40.0" opacity="nil" stroke="#e0e0e0"></line> <text y="44.0" x="64" fill="black" font-size="12" text-anchor="end" font-family="sans-serif"> 44.7</text> <line x1="70" x2="70" y1="40" y2="834" stroke="black"></line> <line x1="65" x2="708" y1="829" y2="829" stroke="black"></line> <clipPath id="clip-0"> <rect x="70" y="40" width="638" height="789"></rect></clipPath> <line x1="70" x2="85.19047619047619" y1="829.0" y2="609.8333333333334" stroke="black" clip-path="url(#clip-0)"></line> <line x1="85.19047619047619" x2="100.38095238095238" y1="609.8333333333334" y2="40.0" stroke="black" clip-path="url(#clip-0)"></line> <line x1="100.38095238095238" x2="115.57142857142857" y1="40.0" y2="324.9166666666675" stroke="black" clip-path="url(#clip-0)"></line> <line x1="115.57142857142857" x2="130.76190476190476" y1="324.9166666666675" y2="324.9166666666675" stroke="black" clip-path="url(#clip-0)"></line> <line x1="130.76190476190476" x2="145.95238095238096" y1="324.9166666666675" y2="193.4166666666673" stroke="black" clip-path="url(#clip-0)"></line> <line x1="145.95238095238096" x2="161.14285714285714" y1="193.4166666666673" y2="346.83333333333445" stroke="black" clip-path="url(#clip-0)"></line> <line x1="161.14285714285714" x2="176.33333333333331" y1="346.83333333333445" y2="412.5833333333338" stroke="black" clip-path="url(#clip-0)"></line> <line x1="176.33333333333331" x2="191.52380952380952" y1="412.5833333333338" y2="303.00000000000057" stroke="black" clip-path="url(#clip-0)"></line> <line x1="191.52380952380952" x2="206.7142857142857" y1="303.00000000000057" y2="324.9166666666675" stroke="black" clip-path="url(#clip-0)"></line> <line x1="206.7142857142857" x2="221.9047619047619" y1="324.9166666666675" y2="368.7499999999999" stroke="black" clip-path="url(#clip-0)"></line> <line x1="221.9047619047619" x2="237.0952380952381" y1="368.7499999999999" y2="281.0833333333335" stroke="black" clip-path="url(#clip-0)"></line> <line x1="237.0952380952381" x2="252.28571428571428" y1="281.0833333333335" y2="368.7499999999999" stroke="black" clip-path="url(#clip-0)"></line> <line x1="252.28571428571428" x2="267.4761904761905" y1="368.7499999999999" y2="281.0833333333335" stroke="black" clip-path="url(#clip-0)"></line> <line x1="267.4761904761905" x2="282.66666666666663" y1="281.0833333333335" y2="259.16666666666663" stroke="black" clip-path="url(#clip-0)"></line> <line x1="282.66666666666663" x2="297.8571428571429" y1="259.16666666666663" y2="368.7499999999999" stroke="black" clip-path="url(#clip-0)"></line> <line x1="297.8571428571429" x2="313.04761904761904" y1="368.7499999999999" y2="390.6666666666668" stroke="black" clip-path="url(#clip-0)"></line> <line x1="313.04761904761904" x2="328.23809523809524" y1="390.6666666666668" y2="237.25000000000114" stroke="black" clip-path="url(#clip-0)"></line> <line x1="328.23809523809524" x2="343.4285714285714" y1="237.25000000000114" y2="390.6666666666668" stroke="black" clip-path="url(#clip-0)"></line> <line x1="343.4285714285714" x2="358.61904761904765" y1="390.6666666666668" y2="193.4166666666673" stroke="black" clip-path="url(#clip-0)"></line> <line x1="358.61904761904765" x2="373.8095238095238" y1="193.4166666666673" y2="390.6666666666668" stroke="black" clip-path="url(#clip-0)"></line> <line x1="373.8095238095238" x2="389.0" y1="390.6666666666668" y2="281.0833333333335" stroke="black" clip-path="url(#clip-0)"></line> <line x1="389.0" x2="404.1904761904762" y1="281.0833333333335" y2="324.9166666666675" stroke="black" clip-path="url(#clip-0)"></line> <line x1="404.1904761904762" x2="419.3809523809524" y1="324.9166666666675" y2="390.6666666666668" stroke="black" clip-path="url(#clip-0)"></line> <line x1="419.3809523809524" x2="434.57142857142856" y1="390.6666666666668" y2="193.4166666666673" stroke="black" clip-path="url(#clip-0)"></line> <line x1="434.57142857142856" x2="449.76190476190476" y1="193.4166666666673" y2="193.4166666666673" stroke="black" clip-path="url(#clip-0)"></line> <line x1="449.76190476190476" x2="464.95238095238096" y1="193.4166666666673" y2="259.16666666666663" stroke="black" clip-path="url(#clip-0)"></line> <line x1="464.95238095238096" x2="480.14285714285717" y1="259.16666666666663" y2="303.00000000000057" stroke="black" clip-path="url(#clip-0)"></line> <line x1="480.14285714285717" x2="495.3333333333333" y1="303.00000000000057" y2="259.16666666666663" stroke="black" clip-path="url(#clip-0)"></line> <line x1="495.3333333333333" x2="510.5238095238095" y1="259.16666666666663" y2="259.16666666666663" stroke="black" clip-path="url(#clip-0)"></line> <line x1="510.5238095238095" x2="525.7142857142858" y1="259.16666666666663" y2="368.7499999999999" stroke="black" clip-path="url(#clip-0)"></line> <line x1="525.7142857142858" x2="540.9047619047619" y1="368.7499999999999" y2="368.7499999999999" stroke="black" clip-path="url(#clip-0)"></line> <line x1="540.9047619047619" x2="556.0952380952381" y1="368.7499999999999" y2="215.33333333333417" stroke="black" clip-path="url(#clip-0)"></line> <line x1="556.0952380952381" x2="571.2857142857142" y1="215.33333333333417" y2="215.33333333333417" stroke="black" clip-path="url(#clip-0)"></line> <line x1="571.2857142857142" x2="586.4761904761905" y1="215.33333333333417" y2="193.4166666666673" stroke="black" clip-path="url(#clip-0)"></line> <line x1="586.4761904761905" x2="601.6666666666667" y1="193.4166666666673" y2="237.25000000000114" stroke="black" clip-path="url(#clip-0)"></line> <line x1="601.6666666666667" x2="616.8571428571428" y1="237.25000000000114" y2="412.5833333333338" stroke="black" clip-path="url(#clip-0)"></line> <line x1="616.8571428571428" x2="632.047619047619" y1="412.5833333333338" y2="368.7499999999999" stroke="black" clip-path="url(#clip-0)"></line> <line x1="632.047619047619" x2="647.2380952380953" y1="368.7499999999999" y2="281.0833333333335" stroke="black" clip-path="url(#clip-0)"></line> <line x1="647.2380952380953" x2="662.4285714285714" y1="281.0833333333335" y2="324.9166666666675" stroke="black" clip-path="url(#clip-0)"></line> <line x1="662.4285714285714" x2="677.6190476190476" y1="324.9166666666675" y2="281.0833333333335" stroke="black" clip-path="url(#clip-0)"></line> <line x1="677.6190476190476" x2="692.8095238095237" y1="281.0833333333335" y2="281.0833333333335" stroke="black" clip-path="url(#clip-0)"></line> <line x1="692.8095238095237" x2="708" y1="281.0833333333335" y2="259.16666666666663" stroke="black" clip-path="url(#clip-0)"></line></svg>