<svg width="728" height="444" version="1.1" xmlns="http://www.w3.org/2000/svg" xmlns:xlink="http://www.w3.org/1999/xlink"> <rect width="728" height="444" x="0" y="0" fill="white"></rect> <line x1="70.0" x2="70.0" y1="384" y2="388" stroke="black"></line> <line x1="70.0" x2="70.0" y1="40" y2="384" stroke="#e0e0e0" opacity="nil"></line> <text y="398" x="70.0" fill="black" font-size="12" text-anchor="middle" font-family="sans-serif"> 0</text> <line x1="389.0" x2="389.0" y1="384" y2="388" stroke="black"></line> <line x1="389.0" x2="389.0" y1="40" y2="384" stroke="#e0e0e0" opacity="nil"></line> <text y="398" x="389.0" fill="black" font-size="12" text-anchor="middle" font-family="sans-serif"> 1</text> <line x1="708.0" x2="708.0" y1="384" y2="388" stroke="black"></line> <line x1="708.0" x2="708.0" y1="40" y2="384" stroke="#e0e0e0" opacity="nil"></line> <text y="398" x="708.0" fill="black" font-size="12" text-anchor="middle" font-family="sans-serif"> 2</text> <line x1="70" x2="67" y1="384.0" y2="384.0" stroke="black"></line> <line x1="70" x2="708" y1="384.0" y2="384.0" opacity="nil" stroke="#e0e0e0"></line> <text y="388.0" x="64" fill="black" font-size="12" text-anchor="end" font-family="sans-serif"> 41.0</text> <line x1="70" x2="67" y1="365.40540540540513" y2="365.40540540540513" stroke="black"></line> <line x1="70" x2="708" y1="365.40540540540513" y2="365.40540540540513" opacity="nil" stroke="#e0e0e0"></line> <text y="369.40540540540513" x="64" fill="black" font-size="12" text-anchor="end" font-family="sans-serif"> 41.2</text> <line x1="70" x2="67" y1="346.81081081081095" y2="346.81081081081095" stroke="black"></line> <line x1="70" x2="708" y1="346.81081081081095" y2="346.81081081081095" opacity="nil" stroke="#e0e0e0"></line> <text y="350.81081081081095" x="64" fill="black" font-size="12" text-anchor="end" font-family="sans-serif"> 41.4</text> <line x1="70" x2="67" y1="328.21621621621614" y2="328.21621621621614" stroke="black"></line> <line x1="70" x2="708" y1="328.21621621621614" y2="328.21621621621614" opacity="nil" stroke="#e0e0e0"></line> <text y="332.21621621621614" x="64" fill="black" font-size="12" text-anchor="end" font-family="sans-serif"> 41.6</text> <line x1="70" x2="67" y1="309.62162162162196" y2="309.62162162162196" stroke="black"></line> <line x1="70" x2="708" y1="309.62162162162196" y2="309.62162162162196" opacity="nil" stroke="#e0e0e0"></line> <text y="313.62162162162196" x="64" fill="black" font-size="12" text-anchor="end" font-family="sans-serif"> 41.8</text> <line x1="70" x2="67" y1="291.0270270270271" y2="291.0270270270271" stroke="black"></line> <line x1="70" x2="708" y1="291.0270270270271" y2="291.0270270270271" opacity="nil" stroke="#e0e0e0"></line> <text y="295.0270270270271" x="64" fill="black" font-size="12" text-anchor="end" font-family="sans-serif"> 42.0</text> <line x1="70" x2="67" y1="272.4324324324323" y2="272.4324324324323" stroke="black"></line> <line x1="70" x2="708" y1="272.4324324324323" y2="272.4324324324323" opacity="nil" stroke="#e0e0e0"></line> <text y="276.4324324324323" x="64" fill="black" font-size="12" text-anchor="end" font-family="sans-serif"> 42.2</text> <line x1="70" x2="67" y1="253.83783783783807" y2="253.83783783783807" stroke="black"></line> <line x1="70" x2="708" y1="253.83783783783807" y2="253.83783783783807" opacity="nil" stroke="#e0e0e0"></line> <text y="257.83783783783804" x="64" fill="black" font-size="12" text-anchor="end" font-family="sans-serif"> 42.4</text> <line x1="70" x2="67" y1="235.24324324324323" y2="235.24324324324323" stroke="black"></line> <line x1="70" x2="708" y1="235.24324324324323" y2="235.24324324324323" opacity="nil" stroke="#e0e0e0"></line> <text y="239.24324324324323" x="64" fill="black" font-size="12" text-anchor="end" font-family="sans-serif"> 42.6</text> <line x1="70" x2="67" y1="216.64864864864904" y2="216.64864864864904" stroke="black"></line> <line x1="70" x2="708" y1="216.64864864864904" y2="216.64864864864904" opacity="nil" stroke="#e0e0e0"></line> <text y="220.64864864864904" x="64" fill="black" font-size="12" text-anchor="end" font-family="sans-serif"> 42.8</text> <line x1="70" x2="67" y1="198.0540540540542" y2="198.0540540540542" stroke="black"></line> <line x1="70" x2="708" y1="198.0540540540542" y2="198.0540540540542" opacity="nil" stroke="#e0e0e0"></line> <text y="202.0540540540542" x="64" fill="black" font-size="12" text-anchor="end" font-family="sans-serif"> 43.0</text> <line x1="70" x2="67" y1="179.45945945945934" y2="179.45945945945934" stroke="black"></line> <line x1="70" x2="708" y1="179.45945945945934" y2="179.45945945945934" opacity="nil" stroke="#e0e0e0"></line> <text y="183.45945945945934" x="64" fill="black" font-size="12" text-anchor="end" font-family="sans-serif"> 43.2</text> <line x1="70" x2="67" y1="160.86486486486515" y2="160.86486486486515" stroke="black"></line> <line x1="70" x2="708" y1="160.86486486486515" y2="160.86486486486515" opacity="nil" stroke="#e0e0e0"></line> <text y="164.86486486486515" x="64" fill="black" font-size="12" text-anchor="end" font-family="sans-serif"> 43.4</text> <line x1="70" x2="67" y1="142.27027027027034" y2="142.27027027027034" stroke="black"></line> <line x1="70" x2="708" y1="142.27027027027034" y2="142.27027027027034" opacity="nil" stroke="#e0e0e0"></line> <text y="146.27027027027034" x="64" fill="black" font-size="12" text-anchor="end" font-family="sans-serif"> 43.6</text> <line x1="70" x2="67" y1="123.67567567567613" y2="123.67567567567613" stroke="black"></line> <line x1="70" x2="708" y1="123.67567567567613" y2="123.67567567567613" opacity="nil" stroke="#e0e0e0"></line> <text y="127.67567567567613" x="64" fill="black" font-size="12" text-anchor="end" font-family="sans-serif"> 43.8</text> <line x1="70" x2="67" y1="105.08108108108132" y2="105.08108108108132" stroke="black"></line> <line x1="70" x2="708" y1="105.08108108108132" y2="105.08108108108132" opacity="nil" stroke="#e0e0e0"></line> <text y="109.08108108108132" x="64" fill="black" font-size="12" text-anchor="end" font-family="sans-serif"> 44.0</text> <line x1="70" x2="67" y1="86.48648648648646" y2="86.48648648648646" stroke="black"></line> <line x1="70" x2="708" y1="86.48648648648646" y2="86.48648648648646" opacity="nil" stroke="#e0e0e0"></line> <text y="90.48648648648646" x="64" fill="black" font-size="12" text-anchor="end" font-family="sans-serif"> 44.2</text> <line x1="70" x2="67" y1="67.89189189189227" y2="67.89189189189227" stroke="black"></line> <line x1="70" x2="708" y1="67.89189189189227" y2="67.89189189189227" opacity="nil" stroke="#e0e0e0"></line> <text y="71.89189189189227" x="64" fill="black" font-size="12" text-anchor="end" font-family="sans-serif"> 44.4</text> <line x1="70" x2="67" y1="49.297297297297405" y2="49.297297297297405" stroke="black"></line> <line x1="70" x2="708" y1="49.297297297297405" y2="49.297297297297405" opacity="nil" stroke="#e0e0e0"></line> <text y="53.297297297297405" x="64" fill="black" font-size="12" text-anchor="end" font-family="sans-serif"> 44.6</text> <line x1="70" x2="70" y1="40" y2="389" stroke="black"></line> <line x1="65" x2="708" y1="384" y2="384" stroke="black"></line> <clipPath id="clip-0"> <rect x="70" y="40" width="638" height="344"></rect></clipPath> <line x1="70" x2="389.0" y1="384.0" y2="281.7297297297297" stroke="black" clip-path="url(#clip-0)"></line> <line x1="389.0" x2="708" y1="281.7297297297297" y2="40.0" stroke="black" clip-path="url(#clip-0)"></line></svg>