<svg width="728.3720930232558" height="444.7674418604651" version="1.1" xmlns="http://www.w3.org/2000/svg" xmlns:xlink="http://www.w3.org/1999/xlink"> <rect width="728.3720930232558" height="444.7674418604651" x="0" y="0" fill="white"></rect> <line x1="70.0" x2="70.0" y1="384.7674418604651" y2="388.7674418604651" stroke="black"></line> <line x1="70.0" x2="70.0" y1="40" y2="384.7674418604651" stroke="#e0e0e0" opacity="nil"></line> <text y="398.7674418604651" x="70.0" fill="black" font-size="12" text-anchor="middle" font-family="sans-serif"> 0</text> <line x1="389.1860465116279" x2="389.1860465116279" y1="384.7674418604651" y2="388.7674418604651" stroke="black"></line> <line x1="389.1860465116279" x2="389.1860465116279" y1="40" y2="384.7674418604651" stroke="#e0e0e0" opacity="nil"></line> <text y="398.7674418604651" x="389.1860465116279" fill="black" font-size="12" text-anchor="middle" font-family="sans-serif"> 1</text> <line x1="708.3720930232558" x2="708.3720930232558" y1="384.7674418604651" y2="388.7674418604651" stroke="black"></line> <line x1="708.3720930232558" x2="708.3720930232558" y1="40" y2="384.7674418604651" stroke="#e0e0e0" opacity="nil"></line> <text y="398.7674418604651" x="708.3720930232558" fill="black" font-size="12" text-anchor="middle" font-family="sans-serif"> 2</text> <line x1="70" x2="67" y1="384.7674418604651" y2="384.7674418604651" stroke="black"></line> <line x1="70" x2="708.3720930232558" y1="384.7674418604651" y2="384.7674418604651" opacity="nil" stroke="#e0e0e0"></line> <text y="388.7674418604651" x="64" fill="black" font-size="12" text-anchor="end" font-family="sans-serif"> 41.0</text> <line x1="70" x2="67" y1="366.1313639220613" y2="366.1313639220613" stroke="black"></line> <line x1="70" x2="708.3720930232558" y1="366.1313639220613" y2="366.1313639220613" opacity="nil" stroke="#e0e0e0"></line> <text y="370.1313639220613" x="64" fill="black" font-size="12" text-anchor="end" font-family="sans-serif"> 41.2</text> <line x1="70" x2="67" y1="347.4952859836582" y2="347.4952859836582" stroke="black"></line> <line x1="70" x2="708.3720930232558" y1="347.4952859836582" y2="347.4952859836582" opacity="nil" stroke="#e0e0e0"></line> <text y="351.4952859836582" x="64" fill="black" font-size="12" text-anchor="end" font-family="sans-serif"> 41.4</text> <line x1="70" x2="67" y1="328.8592080452545" y2="328.8592080452545" stroke="black"></line> <line x1="70" x2="708.3720930232558" y1="328.8592080452545" y2="328.8592080452545" opacity="nil" stroke="#e0e0e0"></line> <text y="332.8592080452545" x="64" fill="black" font-size="12" text-anchor="end" font-family="sans-serif"> 41.6</text> <line x1="70" x2="67" y1="310.2231301068514" y2="310.2231301068514" stroke="black"></line> <line x1="70" x2="708.3720930232558" y1="310.2231301068514" y2="310.2231301068514" opacity="nil" stroke="#e0e0e0"></line> <text y="314.2231301068514" x="64" fill="black" font-size="12" text-anchor="end" font-family="sans-serif"> 41.8</text> <line x1="70" x2="67" y1="291.5870521684476" y2="291.5870521684476" stroke="black"></line> <line x1="70" x2="708.3720930232558" y1="291.5870521684476" y2="291.5870521684476" opacity="nil" stroke="#e0e0e0"></line> <text y="295.5870521684476" x="64" fill="black" font-size="12" text-anchor="end" font-family="sans-serif"> 42.0</text> <line x1="70" x2="67" y1="272.9509742300438" y2="272.9509742300438" stroke="black"></line> <line x1="70" x2="708.3720930232558" y1="272.9509742300438" y2="272.9509742300438" opacity="nil" stroke="#e0e0e0"></line> <text y="276.9509742300438" x="64" fill="black" font-size="12" text-anchor="end" font-family="sans-serif"> 42.2</text> <line x1="70" x2="67" y1="254.3148962916407" y2="254.3148962916407" stroke="black"></line> <line x1="70" x2="708.3720930232558" y1="254.3148962916407" y2="254.3148962916407" opacity="nil" stroke="#e0e0e0"></line> <text y="258.3148962916407" x="64" fill="black" font-size="12" text-anchor="end" font-family="sans-serif"> 42.4</text> <line x1="70" x2="67" y1="235.67881835323692" y2="235.67881835323692" stroke="black"></line> <line x1="70" x2="708.3720930232558" y1="235.67881835323692" y2="235.67881835323692" opacity="nil" stroke="#e0e0e0"></line> <text y="239.67881835323692" x="64" fill="black" font-size="12" text-anchor="end" font-family="sans-serif"> 42.6</text> <line x1="70" x2="67" y1="217.04274041483382" y2="217.04274041483382" stroke="black"></line> <line x1="70" x2="708.3720930232558" y1="217.04274041483382" y2="217.04274041483382" opacity="nil" stroke="#e0e0e0"></line> <text y="221.04274041483382" x="64" fill="black" font-size="12" text-anchor="end" font-family="sans-serif"> 42.8</text> <line x1="70" x2="67" y1="198.40666247643006" y2="198.40666247643006" stroke="black"></line> <line x1="70" x2="708.3720930232558" y1="198.40666247643006" y2="198.40666247643006" opacity="nil" stroke="#e0e0e0"></line> <text y="202.40666247643006" x="64" fill="black" font-size="12" text-anchor="end" font-family="sans-serif"> 43.0</text> <line x1="70" x2="67" y1="179.77058453802627" y2="179.77058453802627" stroke="black"></line> <line x1="70" x2="708.3720930232558" y1="179.77058453802627" y2="179.77058453802627" opacity="nil" stroke="#e0e0e0"></line> <text y="183.77058453802627" x="64" fill="black" font-size="12" text-anchor="end" font-family="sans-serif"> 43.2</text> <line x1="70" x2="67" y1="161.13450659962317" y2="161.13450659962317" stroke="black"></line> <line x1="70" x2="708.3720930232558" y1="161.13450659962317" y2="161.13450659962317" opacity="nil" stroke="#e0e0e0"></line> <text y="165.13450659962317" x="64" fill="black" font-size="12" text-anchor="end" font-family="sans-serif"> 43.4</text> <line x1="70" x2="67" y1="142.4984286612194" y2="142.4984286612194" stroke="black"></line> <line x1="70" x2="708.3720930232558" y1="142.4984286612194" y2="142.4984286612194" opacity="nil" stroke="#e0e0e0"></line> <text y="146.4984286612194" x="64" fill="black" font-size="12" text-anchor="end" font-family="sans-serif"> 43.6</text> <line x1="70" x2="67" y1="123.8623507228163" y2="123.8623507228163" stroke="black"></line> <line x1="70" x2="708.3720930232558" y1="123.8623507228163" y2="123.8623507228163" opacity="nil" stroke="#e0e0e0"></line> <text y="127.8623507228163" x="64" fill="black" font-size="12" text-anchor="end" font-family="sans-serif"> 43.8</text> <line x1="70" x2="67" y1="105.22627278441252" y2="105.22627278441252" stroke="black"></line> <line x1="70" x2="708.3720930232558" y1="105.22627278441252" y2="105.22627278441252" opacity="nil" stroke="#e0e0e0"></line> <text y="109.22627278441252" x="64" fill="black" font-size="12" text-anchor="end" font-family="sans-serif"> 44.0</text> <line x1="70" x2="67" y1="86.59019484600873" y2="86.59019484600873" stroke="black"></line> <line x1="70" x2="708.3720930232558" y1="86.59019484600873" y2="86.59019484600873" opacity="nil" stroke="#e0e0e0"></line> <text y="90.59019484600873" x="64" fill="black" font-size="12" text-anchor="end" font-family="sans-serif"> 44.2</text> <line x1="70" x2="67" y1="67.95411690760562" y2="67.95411690760562" stroke="black"></line> <line x1="70" x2="708.3720930232558" y1="67.95411690760562" y2="67.95411690760562" opacity="nil" stroke="#e0e0e0"></line> <text y="71.95411690760562" x="64" fill="black" font-size="12" text-anchor="end" font-family="sans-serif"> 44.4</text> <line x1="70" x2="67" y1="49.31803896920189" y2="49.31803896920189" stroke="black"></line> <line x1="70" x2="708.3720930232558" y1="49.31803896920189" y2="49.31803896920189" opacity="nil" stroke="#e0e0e0"></line> <text y="53.31803896920189" x="64" fill="black" font-size="12" text-anchor="end" font-family="sans-serif"> 44.6</text> <line x1="70" x2="70" y1="40" y2="389.7674418604651" stroke="black"></line> <line x1="65" x2="708.3720930232558" y1="384.7674418604651" y2="384.7674418604651" stroke="black"></line> <line x1="70.0" x2="389.1860465116279" y1="384.7674418604651" y2="282.2690131992457" stroke="black"></line> <line x1="389.1860465116279" x2="708.3720930232558" y1="282.2690131992457" y2="40.0" stroke="black"></line></svg>